<svg xmlns="http://www.w3.org/2000/svg" width="24" height="24" viewBox="0 0 24 24" fill="none">
<path d="M12 1.25C14.5434 1.25 17.115 1.59261 19.0723 2.1582C20.0459 2.43956 20.9096 2.78762 21.5469 3.2041C22.146 3.59565 22.75 4.18625 22.75 5V19C22.75 19.6364 22.4319 20.1893 22.0049 20.626C21.576 21.0646 20.988 21.4399 20.3076 21.7461C18.9436 22.3599 17.0854 22.75 15 22.75C14.5858 22.75 14.25 22.4142 14.25 22V8C14.25 7.58579 14.5858 7.25 15 7.25C16.9005 7.25 18.5406 6.84615 19.6816 6.31055C20.254 6.04183 20.6743 5.75242 20.9395 5.48828C21.2176 5.21107 21.25 5.04093 21.25 5C21.25 4.98532 21.2256 4.78616 20.7266 4.45996C20.2655 4.15866 19.5603 3.86113 18.6553 3.59961C16.8552 3.07947 14.427 2.75 12 2.75C9.57303 2.75 7.14483 3.07947 5.34473 3.59961C4.43975 3.86113 3.73446 4.15866 3.27344 4.45996C2.7744 4.78616 2.75 4.98532 2.75 5C2.75 4.99337 2.74792 5.03082 2.80078 5.11914C2.85403 5.20803 2.949 5.32445 3.10156 5.46094C3.40836 5.73541 3.88161 6.03126 4.49316 6.30469C5.71398 6.85042 7.36042 7.25 9 7.25C9.41421 7.25 9.75 7.58579 9.75 8V22C9.75 22.4142 9.41421 22.75 9 22.75C7.39376 22.75 5.54738 22.3527 4.09082 21.7568C3.36327 21.4592 2.69334 21.096 2.19141 20.6777C1.71328 20.2792 1.25 19.7128 1.25 19V5C1.25 4.18625 1.85402 3.59565 2.45312 3.2041C3.09042 2.78762 3.95413 2.43956 4.92773 2.1582C6.88495 1.59261 9.45656 1.25 12 1.25Z" fill="currentColor" />
</svg>