<svg xmlns="http://www.w3.org/2000/svg" width="24" height="24" viewBox="0 0 24 24" fill="none">
<path d="M13.1504 1.25C16.5103 1.25 18.1902 1.25041 19.4736 1.9043C20.6026 2.47954 21.5205 3.3974 22.0957 4.52637C22.7496 5.80977 22.75 7.48967 22.75 10.8496L22.75 13.1504C22.75 16.5103 22.7495 18.1902 22.0957 19.4736C21.5205 20.6026 20.6026 21.5205 19.4736 22.0957C18.1902 22.7496 16.5104 22.75 13.1504 22.75L10.8496 22.75C7.48963 22.75 5.80977 22.7496 4.52636 22.0957C3.39739 21.5205 2.47953 20.6026 1.90429 19.4736C1.25042 18.1902 1.25 16.5104 1.25 13.1504L1.25 10.8496C1.25 7.48963 1.25039 5.80978 1.9043 4.52637C2.47954 3.39739 3.39739 2.47954 4.52637 1.9043C5.80977 1.25045 7.48967 1.25 10.8496 1.25L13.1504 1.25ZM14 8C13.7073 8 13.4318 8.12817 13.2432 8.34668L13.168 8.44531L10 13.1973L8.83203 11.4453C8.64656 11.1671 8.33435 11 8 11L6 11C5.44771 11 5 11.4477 5 12C5 12.5523 5.44771 13 6 13L7.46484 13L9.16797 15.5547C9.35343 15.8329 9.66564 16 10 16C10.3343 16 10.6466 15.8329 10.832 15.5547L14 10.8027L15.168 12.5547C15.3534 12.8329 15.6656 13 16 13L18 13C18.5523 13 19 12.5523 19 12C19 11.4477 18.5523 11 18 11L16.5352 11L14.832 8.44531C14.6466 8.16712 14.3344 8 14 8Z" fill="currentColor" />
</svg>