<svg xmlns="http://www.w3.org/2000/svg" width="40" height="40" viewBox="0 0 40 40" fill="none">
<path d="M29.1507 5.83368C28.0839 4.80744 27.3379 4.20627 26.4564 3.84115C25.2312 3.33368 23.8687 3.33368 21.1437 3.33368H18.8561C16.1311 3.33368 14.7686 3.33368 13.5435 3.84115C12.3183 4.34862 11.3549 5.31205 9.42801 7.23892L7.23849 9.42844C5.31163 11.3553 4.34819 12.3187 3.84072 13.5439C3.33325 14.769 3.33325 16.1315 3.33325 18.8565V21.1442C3.33325 23.8692 3.33325 25.2317 3.84072 26.4568C4.34819 27.682 5.31163 28.6454 7.2385 30.5723L9.42801 32.7618C11.3549 34.6886 12.3183 35.6521 13.5435 36.1595C14.7686 36.667 16.1311 36.667 18.8561 36.667H21.1437C23.8687 36.667 25.2312 36.667 26.4564 36.1595C27.6815 35.6521 28.645 34.6886 30.5718 32.7618L32.7613 30.5723C34.6882 28.6454 35.6516 27.682 36.1591 26.4568C36.6666 25.2317 36.6666 23.8692 36.6666 21.1442V18.8565C36.6666 16.1315 36.6666 14.769 36.1591 13.5439C35.7922 12.658 35.1869 11.909 34.1513 10.8337M19.9999 21.667V11.667M20.8333 27.5003C20.8333 27.9606 20.4602 28.3337 19.9999 28.3337C19.5397 28.3337 19.1666 27.9606 19.1666 27.5003M20.8333 27.5003C20.8333 27.0401 20.4602 26.667 19.9999 26.667C19.5397 26.667 19.1666 27.0401 19.1666 27.5003M20.8333 27.5003H19.1666" stroke="currentColor" stroke-width={2.5} stroke-linecap="round" stroke-linejoin="round" />
</svg>