<svg xmlns="http://www.w3.org/2000/svg" width="40" height="40" viewBox="0 0 40 40" fill="none">
<path d="M20.0005 2.08301C29.8954 2.08318 37.9165 10.105 37.9165 20C37.9163 29.8948 29.8953 37.9158 20.0005 37.916C10.1055 37.916 2.08367 29.895 2.0835 20C2.0835 10.1049 10.1054 2.08301 20.0005 2.08301ZM19.9995 25.416C18.8494 25.4164 17.9169 26.3489 17.9165 27.499C17.9165 28.6494 18.8492 29.5827 19.9995 29.583C21.1501 29.583 22.0835 28.6496 22.0835 27.499C22.0832 26.4205 21.2629 25.5332 20.2124 25.4268L19.9995 25.416ZM19.9995 10.416C19.3096 10.4164 18.7497 10.976 18.7495 11.666V21.666C18.7495 22.3562 19.3095 22.9157 19.9995 22.916C20.6899 22.916 21.2495 22.3564 21.2495 21.666V11.666C21.2493 10.9758 20.6898 10.416 19.9995 10.416Z" fill="currentColor" />
</svg>