<svg xmlns="http://www.w3.org/2000/svg" width="40" height="40" viewBox="0 0 40 40" fill="none">
<path d="M30.0001 12.8762C27.1445 7.86983 25.3605 5.22413 23.095 4.31798C21.1083 3.52332 18.892 3.52332 16.9053 4.31798C14.1692 5.41241 12.1353 9.0443 8.06757 16.3081C4.15757 23.2902 2.20257 26.7813 2.65331 29.6339C2.98093 31.7072 4.07896 33.5806 5.72792 34.8795C7.99657 36.6666 11.9978 36.6666 20.0002 36.6666C28.0026 36.6666 32.0037 36.6666 34.2724 34.8795C35.9214 33.5806 37.0194 31.7072 37.347 29.6339C37.7103 27.3349 36.511 24.6213 33.9852 19.9999M20.0001 21.6663V14.9997M20.8334 27.4997C20.8334 27.9599 20.4603 28.333 20.0001 28.333C19.5398 28.333 19.1667 27.9599 19.1667 27.4997M20.8334 27.4997C20.8334 27.0394 20.4603 26.6663 20.0001 26.6663C19.5398 26.6663 19.1667 27.0394 19.1667 27.4997M20.8334 27.4997H19.1667" stroke="currentColor" stroke-width={2.5} stroke-linecap="round" stroke-linejoin="round" />
</svg>