<svg xmlns="http://www.w3.org/2000/svg" width="40" height="40" viewBox="0 0 40 40" fill="none">
<path d="M21.6614 2.08368C23.6996 2.08368 24.7189 2.0839 25.678 2.31415C26.5282 2.51829 27.3416 2.85433 28.0872 3.31122C28.928 3.82654 29.6481 4.5479 31.0891 5.98895L34.011 8.91083C35.4523 10.3521 36.1734 11.0728 36.6887 11.9138C37.1455 12.6592 37.4826 13.4718 37.6868 14.322C37.917 15.281 37.9163 16.3004 37.9163 18.3386V21.6618C37.9163 23.7 37.917 24.7194 37.6868 25.6784C37.4826 26.5287 37.1456 27.342 36.6887 28.0876C36.1734 28.9284 35.4521 29.6485 34.011 31.0895L31.0891 34.0114C29.648 35.4525 28.928 36.1738 28.0872 36.6891C27.3416 37.1461 26.5283 37.4831 25.678 37.6872C24.7189 37.9174 23.6996 37.9167 21.6614 37.9167H18.3381C16.3 37.9167 15.2806 37.9174 14.3215 37.6872C13.4714 37.4831 12.6588 37.1459 11.9133 36.6891C11.0724 36.1738 10.3517 35.4527 8.9104 34.0114L5.98853 31.0895C4.54747 29.6485 3.82611 28.9285 3.31079 28.0876C2.8539 27.342 2.51786 26.5287 2.31372 25.6784C2.08347 24.7193 2.08325 23.7001 2.08325 21.6618V18.3386C2.08325 16.3004 2.08348 15.281 2.31372 14.322C2.51784 13.4719 2.85407 12.6592 3.31079 11.9138C3.82613 11.0728 4.5473 10.352 5.98853 8.91083L8.9104 5.98895C10.3516 4.54773 11.0724 3.82656 11.9133 3.31122C12.6587 2.85449 13.4715 2.51826 14.3215 2.31415C15.2806 2.0839 16.3 2.08368 18.3381 2.08368H21.6614ZM19.9993 25.4177C18.8491 25.418 17.9164 26.3504 17.9163 27.5007C17.9165 28.6508 18.8491 29.5843 19.9993 29.5847C21.1497 29.5847 22.083 28.651 22.0833 27.5007C22.0831 26.422 21.2628 25.5349 20.2122 25.4284L19.9993 25.4177ZM19.9993 10.4177C19.3092 10.418 18.7493 10.9775 18.7493 11.6677V21.6677C18.7495 22.3576 19.3094 22.9173 19.9993 22.9177C20.6895 22.9177 21.249 22.3578 21.2493 21.6677V11.6677C21.2493 10.9773 20.6896 10.4177 19.9993 10.4177Z" fill="currentColor" />
</svg>