<svg xmlns="http://www.w3.org/2000/svg" width="40" height="40" viewBox="0 0 40 40" fill="none">
<path d="M19.9999 21.6668V11.6668M20.8333 27.5001C20.8333 27.9603 20.4602 28.3334 19.9999 28.3334C19.5397 28.3334 19.1666 27.9603 19.1666 27.5001M20.8333 27.5001C20.8333 27.0399 20.4602 26.6668 19.9999 26.6668C19.5397 26.6668 19.1666 27.0399 19.1666 27.5001M20.8333 27.5001H19.1666M36.6666 20.0001C36.6666 29.2048 29.2047 36.6668 19.9999 36.6668C10.7952 36.6668 3.33325 29.2048 3.33325 20.0001C3.33325 10.7954 10.7952 3.33344 19.9999 3.33344C29.2047 3.33344 36.6666 10.7954 36.6666 20.0001Z" stroke="currentColor" stroke-width={2.5} stroke-linecap="round" stroke-linejoin="round" />
</svg>