<svg xmlns="http://www.w3.org/2000/svg" width="40" height="40" viewBox="0 0 40 40" fill="none">
<path d="M20.0002 21.6666V11.6666M20.8335 27.5C20.8335 27.9602 20.4604 28.3333 20.0002 28.3333C19.5399 28.3333 19.1668 27.9602 19.1668 27.5M20.8335 27.5C20.8335 27.0397 20.4604 26.6666 20.0002 26.6666C19.5399 26.6666 19.1668 27.0397 19.1668 27.5M20.8335 27.5H19.1668M6.45769 29.7908L10.2093 33.5425C11.3623 34.6955 11.9388 35.272 12.6116 35.6842C13.2081 36.0498 13.8584 36.3191 14.5386 36.4824C15.3059 36.6666 16.1212 36.6666 17.7518 36.6666H22.2486C23.8792 36.6666 24.6945 36.6666 25.4617 36.4824C26.1419 36.3191 26.7922 36.0498 27.3887 35.6842C28.0615 35.272 28.638 34.6955 29.791 33.5424L33.5426 29.7908C34.6956 28.6378 35.2722 28.0613 35.6844 27.3885C36.05 26.7921 36.3193 26.1418 36.4826 25.4615C36.6668 24.6943 36.6668 23.879 36.6668 22.2484V17.7516C36.6668 16.121 36.6668 15.3057 36.4826 14.5384C36.3193 13.8582 36.05 13.2079 35.6844 12.6114C35.2722 11.9386 34.6956 11.3621 33.5426 10.2091L29.791 6.45751C28.638 5.3045 28.0615 4.72799 27.3887 4.31571C26.7922 3.95019 26.1419 3.68083 25.4617 3.51751C24.6945 3.33331 23.8792 3.33331 22.2486 3.33331H17.7518C16.1212 3.33331 15.3059 3.33331 14.5386 3.51751C13.8584 3.68083 13.2081 3.95019 12.6116 4.31571C11.9388 4.72799 11.3623 5.3045 10.2093 6.45751L6.45769 10.2091C5.30468 11.3621 4.72817 11.9386 4.31589 12.6114C3.95037 13.2079 3.68101 13.8582 3.5177 14.5384C3.3335 15.3057 3.3335 16.121 3.3335 17.7516V22.2484C3.3335 23.879 3.3335 24.6943 3.5177 25.4615C3.68101 26.1418 3.95037 26.7921 4.31589 27.3885C4.72817 28.0613 5.30468 28.6378 6.45769 29.7908Z" stroke="currentColor" stroke-width={2.5} stroke-linecap="round" stroke-linejoin="round" />
</svg>