<svg xmlns="http://www.w3.org/2000/svg" width="40" height="40" viewBox="0 0 40 40" fill="none">
<path d="M20.0001 21.6664V14.9997M20.8334 27.4997C20.8334 27.9599 20.4603 28.333 20.0001 28.333C19.5398 28.333 19.1667 27.9599 19.1667 27.4997M20.8334 27.4997C20.8334 27.0395 20.4603 26.6664 20.0001 26.6664C19.5398 26.6664 19.1667 27.0395 19.1667 27.4997M20.8334 27.4997H19.1667M32.2185 16.8183L31.6335 15.7736C27.8313 8.98408 25.9303 5.5893 23.4294 4.46011C21.2492 3.47567 18.751 3.47567 16.5707 4.46011C14.0699 5.5893 12.1688 8.98409 8.36666 15.7737L7.78165 16.8183C4.12684 23.3448 2.29944 26.608 2.60511 29.2801C2.87179 31.6114 4.10901 33.7223 6.01279 35.0941C8.19489 36.6664 11.935 36.6664 19.4151 36.6664H20.5851C28.0652 36.6664 31.8053 36.6664 33.9874 35.0941C35.8912 33.7223 37.1284 31.6114 37.3951 29.2801C37.7007 26.608 35.8733 23.3448 32.2185 16.8183Z" stroke="currentColor" stroke-width={2.5} stroke-linecap="round" stroke-linejoin="round" />
</svg>