<svg xmlns="http://www.w3.org/2000/svg" width="40" height="40" viewBox="0 0 40 40" fill="none">
<path d="M16.5698 1.90157C18.75 0.917186 21.2481 0.917316 23.4282 1.90157C25.929 3.03074 27.8303 6.42569 31.6323 13.215L34.3501 18.0686C38.0049 24.5949 39.8325 27.8584 39.5269 30.5305C39.2601 32.8615 38.0232 34.9723 36.1196 36.3439C33.9376 37.9162 30.1972 37.9162 22.7173 37.9162H17.2818C9.80165 37.9162 6.06151 37.9163 3.87941 36.3439C1.97577 34.9723 0.738993 32.8616 0.472182 30.5305C0.166518 27.8584 1.99331 24.5947 5.64796 18.0686L8.36574 13.215C12.1678 6.4256 14.0691 3.03081 16.5698 1.90157ZM19.9985 25.4162C18.9202 25.4166 18.033 26.2361 17.9263 27.2863L17.9155 27.4992L17.9263 27.7121C18.0329 28.7625 18.9202 29.5819 19.9985 29.5822C21.1491 29.5822 22.0825 28.6498 22.0825 27.4992C22.0824 26.4205 21.2621 25.5334 20.2114 25.427L19.9985 25.4162ZM19.9985 13.7492C19.3086 13.7496 18.7487 14.3092 18.7485 14.9992V21.6662C18.7487 22.3562 19.3086 22.9158 19.9985 22.9162C20.6888 22.9162 21.2484 22.3564 21.2485 21.6662V14.9992C21.2484 14.309 20.6888 13.7492 19.9985 13.7492Z" fill="currentColor" />
</svg>