<svg xmlns="http://www.w3.org/2000/svg" width="40" height="40" viewBox="0 0 40 40" fill="none">
<path d="M29.1666 6.07805C26.5368 4.34294 23.3863 3.33301 19.9999 3.33301C10.7952 3.33301 3.33325 10.7949 3.33325 19.9997C3.33325 29.2044 10.7952 36.6663 19.9999 36.6663C29.2047 36.6663 36.6666 29.2044 36.6666 19.9997C36.6666 17.302 36.0257 14.754 34.8878 12.4997" stroke="currentColor" stroke-width={2.5} stroke-linecap="round" stroke-linejoin="round" /><path d="M20.0001 21.6663V11.6663M20.8334 27.4997C20.8334 27.9599 20.4603 28.333 20.0001 28.333C19.5398 28.333 19.1667 27.9599 19.1667 27.4997M20.8334 27.4997C20.8334 27.0394 20.4603 26.6663 20.0001 26.6663C19.5398 26.6663 19.1667 27.0394 19.1667 27.4997M20.8334 27.4997H19.1667" stroke="currentColor" stroke-width={2.5} stroke-linecap="round" stroke-linejoin="round" />
</svg>