<svg xmlns="http://www.w3.org/2000/svg" width="24" height="24" viewBox="0 0 24 24" fill="none">
<path d="M12 1.25C12.4142 1.25 12.75 1.58579 12.75 2V6.25H16.1504C18.1103 6.25 19.0902 6.25038 19.8389 6.63184C20.4974 6.96738 21.0326 7.50262 21.3682 8.16113C21.7496 8.90977 21.75 9.88969 21.75 11.8496V12.1504C21.75 14.1103 21.7496 15.0902 21.3682 15.8389C21.0326 16.4974 20.4974 17.0326 19.8389 17.3682C19.0902 17.7496 18.1103 17.75 16.1504 17.75H12.75V22C12.75 22.4142 12.4142 22.75 12 22.75C11.5858 22.75 11.25 22.4142 11.25 22V17.75H7.84961C5.88969 17.75 4.90977 17.7496 4.16113 17.3682C3.50262 17.0326 2.96738 16.4974 2.63184 15.8389C2.25038 15.0902 2.25 14.1103 2.25 12.1504V11.8496C2.25 9.88969 2.25038 8.90977 2.63184 8.16113C2.96738 7.50262 3.50262 6.96738 4.16113 6.63184C4.90977 6.25038 5.88969 6.25 7.84961 6.25H11.25V2C11.25 1.58579 11.5858 1.25 12 1.25Z" fill="currentColor" />
</svg>