<svg xmlns="http://www.w3.org/2000/svg" width="24" height="24" viewBox="0 0 24 24" fill="none">
<path d="M2 2.25C2.41421 2.25 2.75 2.58579 2.75 3V21C2.75 21.4142 2.41421 21.75 2 21.75C1.58579 21.75 1.25 21.4142 1.25 21V3C1.25 2.58579 1.58579 2.25 2 2.25ZM17.1504 6.25C19.1103 6.25 20.0902 6.25038 20.8389 6.63184C21.4974 6.96738 22.0326 7.50262 22.3682 8.16113C22.7496 8.90977 22.75 9.88969 22.75 11.8496V12.1504C22.75 14.1103 22.7496 15.0902 22.3682 15.8389C22.0326 16.4974 21.4974 17.0326 20.8389 17.3682C20.0902 17.7496 19.1103 17.75 17.1504 17.75H10.8496C8.88969 17.75 7.90977 17.7496 7.16113 17.3682C6.50262 17.0326 5.96738 16.4974 5.63184 15.8389C5.25038 15.0902 5.25 14.1103 5.25 12.1504V11.8496C5.25 9.88969 5.25038 8.90977 5.63184 8.16113C5.96738 7.50262 6.50262 6.96738 7.16113 6.63184C7.90977 6.25038 8.88969 6.25 10.8496 6.25H17.1504Z" fill="currentColor" />
</svg>