<svg xmlns="http://www.w3.org/2000/svg" width="24" height="24" viewBox="0 0 24 24" fill="none">
<path d="M14.75 1.25C17.55 1.25 18.95 1.25013 20.0195 1.79492C20.9603 2.27429 21.7257 3.03966 22.2051 3.98047C22.7499 5.04998 22.75 6.45005 22.75 9.25V14.75C22.75 17.55 22.7499 18.95 22.2051 20.0195C21.7257 20.9603 20.9603 21.7257 20.0195 22.2051C18.95 22.7499 17.55 22.75 14.75 22.75H9.25C6.45005 22.75 5.04998 22.7499 3.98047 22.2051C3.03966 21.7257 2.27429 20.9603 1.79492 20.0195C1.25013 18.95 1.25 17.55 1.25 14.75V9.25C1.25 6.45005 1.25013 5.04998 1.79492 3.98047C2.27429 3.03966 3.03966 2.27429 3.98047 1.79492C5.04998 1.25013 6.45005 1.25 9.25 1.25H14.75ZM7 17.25C6.58579 17.25 6.25 17.5858 6.25 18C6.25 18.4142 6.58579 18.75 7 18.75H17C17.4142 18.75 17.75 18.4142 17.75 18C17.75 17.5858 17.4142 17.25 17 17.25H7ZM12 5.25C11.5858 5.25 11.25 5.58579 11.25 6V12.1895L10.0303 10.9697L9.97363 10.918C9.67905 10.6777 9.24433 10.6951 8.96973 10.9697C8.69513 11.2443 8.67767 11.6791 8.91797 11.9736L8.96973 12.0303L11.4697 14.5303C11.6104 14.6709 11.8011 14.75 12 14.75C12.1989 14.75 12.3896 14.6709 12.5303 14.5303L14.9922 12.0684C15.2847 11.7754 15.285 11.3006 14.9922 11.0078C14.6994 10.715 14.2246 10.7153 13.9316 11.0078L12.75 12.1895V6C12.75 5.58579 12.4142 5.25 12 5.25Z" fill="currentColor" />
</svg>