<svg xmlns="http://www.w3.org/2000/svg" width="24" height="24" viewBox="0 0 24 24" fill="none">
<path d="M8 17H7.5H6.8C5.11984 17 4.27976 17 3.63803 16.673C3.07354 16.3854 2.6146 15.9265 2.32698 15.362C2 14.7202 2 13.8802 2 12.2V11.8C2 10.1198 2 9.27976 2.32698 8.63803C2.6146 8.07354 3.07354 7.6146 3.63803 7.32698C4.27976 7 5.11984 7 6.8 7H13.2C14.8802 7 15.7202 7 16.362 7.32698C16.9265 7.6146 17.3854 8.07354 17.673 8.63803C18 9.27976 18 10.1198 18 11.8V12.2C18 13.8802 18 14.7202 17.673 15.362C17.3854 15.9265 16.9265 16.3854 16.362 16.673C15.7202 17 14.8802 17 13.2 17H12.5H12M22 3V21" stroke="currentColor" stroke-width={1.5} stroke-linecap="round" stroke-linejoin="round" />
</svg>