<svg xmlns="http://www.w3.org/2000/svg" width="24" height="24" viewBox="0 0 24 24" fill="none">
<path d="M14.75 1.25C17.55 1.25 18.95 1.25013 20.0195 1.79492C20.9603 2.27429 21.7257 3.03966 22.2051 3.98047C22.7499 5.04998 22.75 6.45005 22.75 9.25V14.75C22.75 17.55 22.7499 18.95 22.2051 20.0195C21.7257 20.9603 20.9603 21.7257 20.0195 22.2051C18.95 22.7499 17.55 22.75 14.75 22.75H9.25C6.45005 22.75 5.04998 22.7499 3.98047 22.2051C3.03966 21.7257 2.27429 20.9603 1.79492 20.0195C1.25013 18.95 1.25 17.55 1.25 14.75V9.25C1.25 6.45005 1.25013 5.04998 1.79492 3.98047C2.27429 3.03966 3.03966 2.27429 3.98047 1.79492C5.04998 1.25013 6.45005 1.25 9.25 1.25H14.75ZM12 9.25C11.8508 9.25 11.7063 9.29445 11.584 9.37598L11.4697 9.46973L8.96973 11.9697C8.67684 12.2626 8.67684 12.7374 8.96973 13.0303C9.26262 13.3232 9.73738 13.3232 10.0303 13.0303L11.25 11.8105V18C11.25 18.4142 11.5858 18.75 12 18.75C12.4142 18.75 12.75 18.4142 12.75 18V11.8105L13.9316 12.9922L13.9883 13.043C14.2829 13.2833 14.7176 13.2668 14.9922 12.9922C15.2668 12.7176 15.2833 12.2829 15.043 11.9883L14.9922 11.9316L12.5303 9.46973C12.3896 9.32907 12.1989 9.25 12 9.25ZM7 5.25C6.58579 5.25 6.25 5.58579 6.25 6C6.25 6.41421 6.58579 6.75 7 6.75H17C17.4142 6.75 17.75 6.41421 17.75 6C17.75 5.58579 17.4142 5.25 17 5.25H7Z" fill="currentColor" />
</svg>