<svg xmlns="http://www.w3.org/2000/svg" width="24" height="24" viewBox="0 0 24 24" fill="none">
<path d="M14.75 1.25C17.55 1.25 18.95 1.25014 20.0195 1.79493C20.9603 2.27429 21.7257 3.03966 22.2051 3.98047C22.7499 5.04999 22.75 6.45005 22.75 9.25L22.75 14.75C22.75 17.55 22.7499 18.95 22.2051 20.0195C21.7257 20.9603 20.9603 21.7257 20.0195 22.2051C18.95 22.7499 17.5499 22.75 14.75 22.75L9.25 22.75C6.45004 22.75 5.04998 22.7499 3.98047 22.2051C3.03965 21.7257 2.27429 20.9603 1.79492 20.0195C1.25013 18.95 1.25 17.55 1.25 14.75L1.25 9.25C1.25 6.45005 1.25013 5.04998 1.79492 3.98047C2.27429 3.03966 3.03966 2.27429 3.98047 1.79492C5.04998 1.25013 6.45005 1.25 9.25 1.25L14.75 1.25ZM7 16.25C6.58586 16.2501 6.25004 16.5859 6.25 17C6.25 17.4142 6.58583 17.7499 7 17.75L17 17.75C17.4142 17.75 17.75 17.4142 17.75 17C17.75 16.5858 17.4142 16.25 17 16.25L7 16.25ZM9 11.25C8.58586 11.2501 8.25004 11.5859 8.25 12C8.25 12.4142 8.58583 12.7499 9 12.75L15 12.75C15.4142 12.75 15.75 12.4142 15.75 12C15.75 11.5858 15.4142 11.25 15 11.25L9 11.25ZM7 6.25C6.58586 6.25006 6.25005 6.58586 6.25 7C6.25 7.41418 6.58583 7.74994 7 7.75L17 7.75C17.4142 7.75 17.75 7.41422 17.75 7C17.75 6.58583 17.4142 6.25 17 6.25L7 6.25Z" fill="currentColor" />
</svg>