<svg xmlns="http://www.w3.org/2000/svg" width="24" height="24" viewBox="0 0 24 24" fill="none">
<path d="M7 12V11.5V10.8C7 9.11984 7 8.27976 7.32698 7.63803C7.6146 7.07354 8.07354 6.6146 8.63803 6.32698C9.27976 6 10.1198 6 11.8 6H12.2C13.8802 6 14.7202 6 15.362 6.32698C15.9265 6.6146 16.3854 7.07354 16.673 7.63803C17 8.27976 17 9.11984 17 10.8V17.2C17 18.8802 17 19.7202 16.673 20.362C16.3854 20.9265 15.9265 21.3854 15.362 21.673C14.7202 22 13.8802 22 12.2 22H11.8C10.1198 22 9.27976 22 8.63803 21.673C8.07354 21.3854 7.6146 20.9265 7.32698 20.362C7 19.7202 7 18.8802 7 17.2V16.5V16M3 2H21" stroke="currentColor" stroke-width={1.5} stroke-linecap="round" stroke-linejoin="round" />
</svg>