<svg xmlns="http://www.w3.org/2000/svg" width="24" height="24" viewBox="0 0 24 24" fill="none">
<path d="M14.75 1.25C17.55 1.25 18.95 1.25014 20.0195 1.79493C20.9603 2.27429 21.7257 3.03966 22.2051 3.98047C22.7499 5.04999 22.75 6.45005 22.75 9.25L22.75 14.75C22.75 17.55 22.7499 18.95 22.2051 20.0195C21.7257 20.9603 20.9603 21.7257 20.0195 22.2051C18.95 22.7499 17.5499 22.75 14.75 22.75L9.25 22.75C6.45004 22.75 5.04998 22.7499 3.98047 22.2051C3.03965 21.7257 2.27429 20.9603 1.79492 20.0195C1.25013 18.95 1.25 17.55 1.25 14.75L1.25 9.25C1.25 6.45005 1.25013 5.04998 1.79492 3.98047C2.27429 3.03966 3.03966 2.27429 3.98047 1.79492C5.04998 1.25013 6.45005 1.25 9.25 1.25L14.75 1.25ZM6 17.25C5.58584 17.25 5.25004 17.5858 5.25 18C5.25 18.4142 5.58582 18.75 6 18.75L12 18.75C12.4142 18.75 12.75 18.4142 12.75 18C12.75 17.5858 12.4142 17.25 12 17.25L6 17.25ZM6 13.25C5.58584 13.25 5.25004 13.5858 5.25 14C5.25 14.4142 5.58582 14.75 6 14.75L16 14.75C16.4142 14.75 16.75 14.4142 16.75 14C16.75 13.5858 16.4142 13.25 16 13.25L6 13.25ZM6 9.25C5.58584 9.25004 5.25004 9.58585 5.25 10C5.25 10.4142 5.58582 10.75 6 10.75L14 10.75C14.4142 10.75 14.75 10.4142 14.75 10C14.75 9.58583 14.4142 9.25 14 9.25L6 9.25ZM6 5.25C5.58584 5.25004 5.25004 5.58585 5.25 6C5.25 6.41419 5.58582 6.74996 6 6.75L18 6.75C18.4142 6.75 18.75 6.41422 18.75 6C18.75 5.58583 18.4142 5.25 18 5.25L6 5.25Z" fill="currentColor" />
</svg>