<svg xmlns="http://www.w3.org/2000/svg" width="24" height="24" viewBox="0 0 24 24" fill="none">
<path d="M12.1504 5.25C14.1103 5.25 15.0902 5.25038 15.8389 5.63184C16.4974 5.96738 17.0326 6.50262 17.3682 7.16113C17.7496 7.90977 17.75 8.88969 17.75 10.8496V17.1504C17.75 19.1103 17.7496 20.0902 17.3682 20.8389C17.0326 21.4974 16.4974 22.0326 15.8389 22.3682C15.0902 22.7496 14.1103 22.75 12.1504 22.75H11.8496C9.88969 22.75 8.90977 22.7496 8.16113 22.3682C7.50262 22.0326 6.96738 21.4974 6.63184 20.8389C6.25038 20.0902 6.25 19.1103 6.25 17.1504V10.8496C6.25 8.88969 6.25038 7.90977 6.63184 7.16113C6.96738 6.50262 7.50262 5.96738 8.16113 5.63184C8.90977 5.25038 9.88969 5.25 11.8496 5.25H12.1504ZM21 1.25C21.4142 1.25 21.75 1.58579 21.75 2C21.75 2.41421 21.4142 2.75 21 2.75H3C2.58579 2.75 2.25 2.41421 2.25 2C2.25 1.58579 2.58579 1.25 3 1.25H21Z" fill="currentColor" />
</svg>