<svg xmlns="http://www.w3.org/2000/svg" width="24" height="24" viewBox="0 0 24 24" fill="none">
<path d="M12.1504 2.25C14.1103 2.25 15.0902 2.25038 15.8389 2.63184C16.4974 2.96738 17.0326 3.50262 17.3682 4.16113C17.7496 4.90977 17.75 5.88969 17.75 7.84961V11.25H22C22.4142 11.25 22.75 11.5858 22.75 12C22.75 12.4142 22.4142 12.75 22 12.75H17.75V16.1504C17.75 18.1103 17.7496 19.0902 17.3682 19.8389C17.0326 20.4974 16.4974 21.0326 15.8389 21.3682C15.0902 21.7496 14.1103 21.75 12.1504 21.75H11.8496C9.88969 21.75 8.90977 21.7496 8.16113 21.3682C7.50262 21.0326 6.96738 20.4974 6.63184 19.8389C6.25038 19.0902 6.25 18.1103 6.25 16.1504V12.75H2C1.58579 12.75 1.25 12.4142 1.25 12C1.25 11.5858 1.58579 11.25 2 11.25H6.25V7.84961C6.25 5.88969 6.25038 4.90977 6.63184 4.16113C6.96738 3.50262 7.50262 2.96738 8.16113 2.63184C8.90977 2.25038 9.88969 2.25 11.8496 2.25H12.1504Z" fill="currentColor" />
</svg>