<svg xmlns="http://www.w3.org/2000/svg" width="24" height="24" viewBox="0 0 24 24" fill="none">
<path d="M21 21.25C21.4142 21.25 21.75 21.5858 21.75 22C21.75 22.4142 21.4142 22.75 21 22.75H3C2.58579 22.75 2.25 22.4142 2.25 22C2.25 21.5858 2.58579 21.25 3 21.25H21ZM12.1504 1.25C14.1103 1.25 15.0902 1.25038 15.8389 1.63184C16.4974 1.96738 17.0326 2.50262 17.3682 3.16113C17.7496 3.90977 17.75 4.88969 17.75 6.84961V13.1504C17.75 15.1103 17.7496 16.0902 17.3682 16.8389C17.0326 17.4974 16.4974 18.0326 15.8389 18.3682C15.0902 18.7496 14.1103 18.75 12.1504 18.75H11.8496C9.88969 18.75 8.90977 18.7496 8.16113 18.3682C7.50262 18.0326 6.96738 17.4974 6.63184 16.8389C6.25038 16.0902 6.25 15.1103 6.25 13.1504V6.84961C6.25 4.88969 6.25038 3.90977 6.63184 3.16113C6.96738 2.50262 7.50262 1.96738 8.16113 1.63184C8.90977 1.25038 9.88969 1.25 11.8496 1.25H12.1504Z" fill="currentColor" />
</svg>