<svg xmlns="http://www.w3.org/2000/svg" width="24" height="24" viewBox="0 0 24 24" fill="none">
<path d="M22 2.25C22.4142 2.25 22.75 2.58579 22.75 3V21C22.75 21.4142 22.4142 21.75 22 21.75C21.5858 21.75 21.25 21.4142 21.25 21V3C21.25 2.58579 21.5858 2.25 22 2.25ZM13.1504 6.25C15.1103 6.25 16.0902 6.25038 16.8389 6.63184C17.4974 6.96738 18.0326 7.50262 18.3682 8.16113C18.7496 8.90977 18.75 9.88969 18.75 11.8496V12.1504C18.75 14.1103 18.7496 15.0902 18.3682 15.8389C18.0326 16.4974 17.4974 17.0326 16.8389 17.3682C16.0902 17.7496 15.1103 17.75 13.1504 17.75H6.84961C4.88969 17.75 3.90977 17.7496 3.16113 17.3682C2.50262 17.0326 1.96738 16.4974 1.63184 15.8389C1.25038 15.0902 1.25 14.1103 1.25 12.1504V11.8496C1.25 9.88969 1.25038 8.90977 1.63184 8.16113C1.96738 7.50262 2.50262 6.96738 3.16113 6.63184C3.90977 6.25038 4.88969 6.25 6.84961 6.25H13.1504Z" fill="currentColor" />
</svg>