<svg xmlns="http://www.w3.org/2000/svg" width="24" height="24" viewBox="0 0 24 24" fill="none">
<path d="M14.75 1.25C17.55 1.25 18.95 1.25014 20.0195 1.79493C20.9603 2.27429 21.7257 3.03966 22.2051 3.98047C22.7499 5.04999 22.75 6.45005 22.75 9.25L22.75 14.75C22.75 17.55 22.7499 18.95 22.2051 20.0195C21.7257 20.9603 20.9603 21.7257 20.0195 22.2051C18.95 22.7499 17.5499 22.75 14.75 22.75L9.25 22.75C6.45004 22.75 5.04998 22.7499 3.98047 22.2051C3.03965 21.7257 2.27429 20.9603 1.79492 20.0195C1.25013 18.95 1.25 17.55 1.25 14.75L1.25 9.25C1.25 6.45005 1.25013 5.04998 1.79492 3.98047C2.27429 3.03966 3.03966 2.27429 3.98047 1.79492C5.04998 1.25013 6.45005 1.25 9.25 1.25L14.75 1.25ZM9 17.25C8.58586 17.25 8.25008 17.5859 8.25 18C8.25 18.4142 8.58581 18.75 9 18.75L15 18.75L15.0771 18.7461C15.4551 18.7075 15.75 18.3882 15.75 18C15.7499 17.6119 15.4551 17.2925 15.0771 17.2539L15 17.25L9 17.25ZM6 13.25C5.58586 13.25 5.25008 13.5859 5.25 14C5.25 14.4142 5.58581 14.75 6 14.75L18 14.75L18.0771 14.7461C18.4551 14.7075 18.75 14.3882 18.75 14C18.7499 13.6119 18.4551 13.2925 18.0771 13.2539L18 13.25L6 13.25ZM8 9.25C7.58586 9.25003 7.25008 9.58587 7.25 10C7.25 10.4142 7.58581 10.75 8 10.75L16 10.75L16.0771 10.7461C16.4551 10.7075 16.75 10.3882 16.75 10C16.7499 9.61191 16.4551 9.29253 16.0771 9.25391L16 9.25L8 9.25ZM6 5.25C5.58586 5.25003 5.25008 5.58587 5.25 6C5.25 6.4142 5.58581 6.74998 6 6.75L18 6.75L18.0771 6.7461C18.4551 6.70747 18.75 6.38816 18.75 6C18.7499 5.61191 18.4551 5.29253 18.0771 5.25391L18 5.25L6 5.25Z" fill="currentColor" />
</svg>