<svg xmlns="http://www.w3.org/2000/svg" width="24" height="24" viewBox="0 0 24 24" fill="none">
<path d="M14.75 1.25C17.55 1.25 18.95 1.25014 20.0195 1.79493C20.9603 2.27429 21.7257 3.03966 22.2051 3.98047C22.7499 5.04999 22.75 6.45005 22.75 9.25L22.75 14.75C22.75 17.55 22.7499 18.95 22.2051 20.0195C21.7257 20.9603 20.9603 21.7257 20.0195 22.2051C18.95 22.7499 17.5499 22.75 14.75 22.75L9.25 22.75C6.45004 22.75 5.04998 22.7499 3.98047 22.2051C3.03965 21.7257 2.27429 20.9603 1.79492 20.0195C1.25013 18.95 1.25 17.55 1.25 14.75L1.25 9.25C1.25 6.45005 1.25013 5.04998 1.79492 3.98047C2.27429 3.03966 3.03966 2.27429 3.98047 1.79492C5.04998 1.25013 6.45005 1.25 9.25 1.25L14.75 1.25ZM7 16.25C6.58588 16.2501 6.25008 16.5859 6.25 17C6.25 17.4142 6.58583 17.75 7 17.75L17 17.75C17.4142 17.75 17.75 17.4142 17.75 17C17.7499 16.5859 17.4142 16.25 17 16.25L7 16.25ZM7 11.25C6.58588 11.2501 6.25008 11.5859 6.25 12C6.25 12.4142 6.58583 12.75 7 12.75L17 12.75L17.0771 12.7461C17.4551 12.7075 17.75 12.3882 17.75 12C17.7499 11.6119 17.4551 11.2925 17.0771 11.2539L17 11.25L7 11.25ZM7 6.25C6.58588 6.25005 6.25008 6.58589 6.25 7C6.25 7.41418 6.58583 7.74995 7 7.75L17 7.75C17.4142 7.75 17.75 7.41422 17.75 7C17.7499 6.58586 17.4142 6.25 17 6.25L7 6.25Z" fill="currentColor" />
</svg>