<svg xmlns="http://www.w3.org/2000/svg" width="24" height="24" viewBox="0 0 24 24" fill="none">
<path opacity={0.32} d="M11.85 1.25C9.88982 1.25 8.90972 1.25 8.16103 1.63148C7.50247 1.96703 6.96703 2.50247 6.63148 3.16103C6.25 3.90972 6.25 4.88982 6.25 6.85V13.15C6.25 15.1102 6.25 16.0903 6.63148 16.839C6.96703 17.4975 7.50247 18.033 8.16103 18.3685C8.90972 18.75 9.88982 18.75 11.85 18.75H12.15C14.1102 18.75 15.0903 18.75 15.839 18.3685C16.4975 18.033 17.033 17.4975 17.3685 16.839C17.75 16.0903 17.75 15.1102 17.75 13.15V6.85C17.75 4.88982 17.75 3.90972 17.3685 3.16103C17.033 2.50247 16.4975 1.96703 15.839 1.63148C15.0903 1.25 14.1102 1.25 12.15 1.25H11.85Z" fill="currentColor" /><path d="M21 21.25C21.4142 21.25 21.75 21.5858 21.75 22C21.75 22.4142 21.4142 22.75 21 22.75H3C2.58579 22.75 2.25 22.4142 2.25 22C2.25 21.5858 2.58579 21.25 3 21.25H21Z" fill="currentColor" />
</svg>