<svg xmlns="http://www.w3.org/2000/svg" width="24" height="24" viewBox="0 0 24 24" fill="none">
<path d="M16 7H16.5C17.8978 7 18.5967 7 19.1481 7.22836C19.8831 7.53284 20.4672 8.11687 20.7716 8.85195C21 9.40326 21 10.1022 21 11.5V12.2C21 13.8802 21 14.7202 20.673 15.362C20.3854 15.9265 19.9265 16.3854 19.362 16.673C18.7202 17 17.8802 17 16.2 17H7.8C6.11984 17 5.27976 17 4.63803 16.673C4.07354 16.3854 3.6146 15.9265 3.32698 15.362C3 14.7202 3 13.8802 3 12.2V11.8C3 10.1198 3 9.27976 3.32698 8.63803C3.6146 8.07354 4.07354 7.6146 4.63803 7.32698C5.27976 7 6.11984 7 7.8 7H10.4C10.9601 7 11.2401 7 11.454 6.89101C11.6422 6.79513 11.7951 6.64215 11.891 6.45399C12 6.24008 12 5.96005 12 5.4V2M12 17V22" stroke="currentColor" stroke-width={1.5} stroke-linecap="round" stroke-linejoin="round" />
</svg>