<svg xmlns="http://www.w3.org/2000/svg" width="24" height="24" viewBox="0 0 24 24" fill="none">
<path d="M14.75 1.25C17.55 1.25 18.95 1.25014 20.0195 1.79493C20.9603 2.27429 21.7257 3.03966 22.2051 3.98047C22.7499 5.04999 22.75 6.45005 22.75 9.25L22.75 14.75C22.75 17.55 22.7499 18.95 22.2051 20.0195C21.7257 20.9603 20.9603 21.7257 20.0195 22.2051C18.95 22.7499 17.5499 22.75 14.75 22.75L9.25 22.75C6.45004 22.75 5.04998 22.7499 3.98047 22.2051C3.03965 21.7257 2.27429 20.9603 1.79492 20.0195C1.25013 18.95 1.25 17.55 1.25 14.75L1.25 9.25C1.25 6.45005 1.25013 5.04998 1.79492 3.98047C2.27429 3.03966 3.03966 2.27429 3.98047 1.79492C5.04998 1.25013 6.45005 1.25 9.25 1.25L14.75 1.25ZM12 17.25C11.5858 17.25 11.25 17.5858 11.25 18C11.25 18.4142 11.5858 18.75 12 18.75L18 18.75L18.0771 18.7461C18.4551 18.7075 18.75 18.3882 18.75 18C18.75 17.6118 18.4551 17.2925 18.0771 17.2539L18 17.25L12 17.25ZM8 13.25C7.58581 13.25 7.25001 13.5858 7.25 14C7.25 14.4142 7.5858 14.75 8 14.75L18 14.75L18.0771 14.7461C18.4551 14.7075 18.75 14.3882 18.75 14C18.75 13.6118 18.4551 13.2925 18.0771 13.2539L18 13.25L8 13.25ZM10 9.25C9.58581 9.25002 9.25001 9.58581 9.25 10C9.25 10.4142 9.5858 10.75 10 10.75L18 10.75L18.0771 10.7461C18.4551 10.7075 18.75 10.3882 18.75 10C18.75 9.61185 18.4551 9.29253 18.0771 9.25391L18 9.25L10 9.25ZM6 5.25C5.58581 5.25002 5.25001 5.58581 5.25 6C5.25 6.4142 5.5858 6.74998 6 6.75L18 6.75C18.4142 6.75 18.75 6.41422 18.75 6C18.75 5.5858 18.4142 5.25 18 5.25L6 5.25Z" fill="currentColor" />
</svg>