<svg xmlns="http://www.w3.org/2000/svg" width="24" height="24" viewBox="0 0 24 24" fill="none">
<path d="M14.75 1.25C17.55 1.25 18.95 1.25013 20.0195 1.79492C20.9603 2.27429 21.7257 3.03966 22.2051 3.98047C22.7499 5.04998 22.75 6.45005 22.75 9.25V14.75C22.75 17.55 22.7499 18.95 22.2051 20.0195C21.7257 20.9603 20.9603 21.7257 20.0195 22.2051C18.95 22.7499 17.55 22.75 14.75 22.75H9.25C6.45005 22.75 5.04998 22.7499 3.98047 22.2051C3.03966 21.7257 2.27429 20.9603 1.79492 20.0195C1.25013 18.95 1.25 17.55 1.25 14.75V9.25C1.25 6.45005 1.25013 5.04998 1.79492 3.98047C2.27429 3.03966 3.03966 2.27429 3.98047 1.79492C5.04998 1.25013 6.45005 1.25 9.25 1.25H14.75ZM12 14.25C11.8509 14.25 11.7063 14.2945 11.584 14.376L11.4697 14.4697L9.46973 16.4697C9.1769 16.7626 9.1769 17.2374 9.46973 17.5303C9.76261 17.8231 10.2374 17.8231 10.5303 17.5303L11.25 16.8105V19.5C11.2501 19.9142 11.5858 20.25 12 20.25C12.4142 20.25 12.7499 19.9142 12.75 19.5V16.8105L13.4697 17.5303L13.5264 17.582C13.8209 17.8223 14.2557 17.8048 14.5303 17.5303C14.8231 17.2374 14.8231 16.7626 14.5303 16.4697L12.5303 14.4697C12.3896 14.3291 12.1989 14.25 12 14.25ZM6 11.25C5.58582 11.25 5.25005 11.5858 5.25 12C5.25005 12.4142 5.58582 12.75 6 12.75H18C18.4142 12.75 18.7499 12.4142 18.75 12C18.7499 11.5858 18.4142 11.25 18 11.25H6ZM12 3.75C11.5858 3.75 11.25 4.08579 11.25 4.5V7.18945L10.5303 6.46973L10.4736 6.41797C10.1791 6.17766 9.74433 6.19512 9.46973 6.46973C9.19518 6.74433 9.17768 7.17907 9.41797 7.47363L9.46973 7.53027L11.4697 9.53027C11.6104 9.67089 11.8011 9.75 12 9.75C12.1989 9.75 12.3896 9.6709 12.5303 9.53027L14.5303 7.53027C14.8231 7.2374 14.8231 6.76262 14.5303 6.46973C14.2374 6.17684 13.7626 6.17684 13.4697 6.46973L12.75 7.18945V4.5C12.75 4.08579 12.4142 3.75 12 3.75Z" fill="currentColor" />
</svg>