<svg xmlns="http://www.w3.org/2000/svg" width="24" height="24" viewBox="0 0 24 24" fill="none">
<path d="M17 8V7.5C17 6.10218 17 5.40326 16.7716 4.85195C16.4672 4.11687 15.8831 3.53284 15.1481 3.22836C14.5967 3 13.8978 3 12.5 3H11.8C10.1198 3 9.27976 3 8.63803 3.32698C8.07354 3.6146 7.6146 4.07354 7.32698 4.63803C7 5.27976 7 6.11984 7 7.8V16.2C7 17.8802 7 18.7202 7.32698 19.362C7.6146 19.9265 8.07354 20.3854 8.63803 20.673C9.27976 21 10.1198 21 11.8 21H12.2C13.8802 21 14.7202 21 15.362 20.673C15.9265 20.3854 16.3854 19.9265 16.673 19.362C17 18.7202 17 17.8802 17 16.2V13.6C17 13.0399 17 12.7599 17.109 12.546C17.2049 12.3578 17.3578 12.2049 17.546 12.109C17.7599 12 18.0399 12 18.6 12H22M2 12H7" stroke="currentColor" stroke-width={1.5} stroke-linecap="round" stroke-linejoin="round" />
</svg>