<svg xmlns="http://www.w3.org/2000/svg" width="24" height="24" viewBox="0 0 24 24" fill="none">
<path opacity={0.32} d="M6.85 6.25C4.88982 6.25 3.90972 6.25 3.16103 6.63148C2.50247 6.96703 1.96703 7.50247 1.63148 8.16103C1.25 8.90972 1.25 9.88982 1.25 11.85V12.15C1.25 14.1102 1.25 15.0903 1.63148 15.839C1.96703 16.4975 2.50247 17.033 3.16103 17.3685C3.90972 17.75 4.88982 17.75 6.85 17.75H13.15C15.1102 17.75 16.0903 17.75 16.839 17.3685C17.4975 17.033 18.033 16.4975 18.3685 15.839C18.75 15.0903 18.75 14.1102 18.75 12.15V11.85C18.75 9.88982 18.75 8.90972 18.3685 8.16103C18.033 7.50247 17.4975 6.96703 16.839 6.63148C16.0903 6.25 15.1102 6.25 13.15 6.25H6.85Z" fill="currentColor" /><path d="M22 2.25C22.4142 2.25 22.75 2.58579 22.75 3V21C22.75 21.4142 22.4142 21.75 22 21.75C21.5858 21.75 21.25 21.4142 21.25 21V3C21.25 2.58579 21.5858 2.25 22 2.25Z" fill="currentColor" />
</svg>