<svg xmlns="http://www.w3.org/2000/svg" width="24" height="24" viewBox="0 0 24 24" fill="none">
<path d="M13.1504 1.25C16.5103 1.25 18.1902 1.25042 19.4736 1.9043C20.6026 2.47954 21.5205 3.3974 22.0957 4.52637C22.7496 5.80978 22.75 7.48966 22.75 10.8496L22.75 13.1504C22.75 16.5104 22.7496 18.1902 22.0957 19.4736C21.5205 20.6026 20.6026 21.5205 19.4736 22.0957C18.1902 22.7496 16.5103 22.75 13.1504 22.75L10.8496 22.75C7.48965 22.75 5.80977 22.7496 4.52636 22.0957C3.39739 21.5205 2.47953 20.6026 1.90429 19.4736C1.25041 18.1902 1.25 16.5103 1.25 13.1504L1.25 10.8496C1.25 7.48965 1.25042 5.80977 1.9043 4.52637C2.47954 3.39739 3.39739 2.47954 4.52637 1.9043C5.80977 1.25042 7.48965 1.25 10.8496 1.25L13.1504 1.25ZM12 5C10.8954 5 10 5.89543 10 7C10 7.75339 10.4169 8.40897 11.0322 8.75C11.0116 8.82995 11 8.91362 11 9L11 15.874C9.59442 15.5122 8.48774 14.4056 8.12597 13L8.875 13C9.42728 13 9.875 12.5523 9.875 12C9.87497 11.4477 9.42726 11 8.875 11L7 11C6.44776 11 6.00003 11.4478 6 12C6 15.3137 8.68632 18 12 18C15.3137 18 18 15.3137 18 12C18 11.4824 17.6066 11.0562 17.1025 11.0049L17 11L15.125 11C14.5728 11 14.125 11.4478 14.125 12C14.125 12.5523 14.5727 13 15.125 13L15.874 13C15.5122 14.4056 14.4056 15.5122 13 15.874L13 9C13 8.91352 12.9874 8.83003 12.9668 8.75C13.5826 8.40908 14 7.7537 14 7C14 5.89543 13.1046 5 12 5Z" fill="currentColor" />
</svg>