<svg xmlns="http://www.w3.org/2000/svg" width="24" height="24" viewBox="0 0 24 24" fill="none">
<path d="M12 1.25C17.9371 1.25 22.75 6.06294 22.75 12C22.75 17.9371 17.9371 22.75 12 22.75C6.06294 22.75 1.25 17.9371 1.25 12C1.25 6.06294 6.06294 1.25 12 1.25ZM11.1455 21.209C11.4269 21.2348 11.7118 21.25 12 21.25C15.3136 21.25 18.218 19.5062 19.8516 16.8877L17.0391 13.21L11.1455 21.209ZM4.06152 16.75C5.26335 18.7542 7.20321 20.2628 9.50488 20.9063L12.5684 16.75L4.06152 16.75ZM20.6025 15.3984C21.0186 14.3461 21.25 13.2003 21.25 12C21.25 10.8561 21.0408 9.76128 20.6611 8.75L15.5176 8.75L20.6025 15.3984ZM3.39648 8.60059C2.98029 9.65306 2.75 10.7995 2.75 12C2.75 13.1439 2.95922 14.2387 3.33886 15.25L8.48242 15.25L3.39648 8.60059ZM12 2.75C8.68649 2.75 5.78102 4.49294 4.14746 7.11133L6.95996 10.7891L12.8535 2.79004C12.5724 2.76432 12.2878 2.75 12 2.75ZM11.4316 7.25L19.9385 7.25C18.7364 5.24542 16.7963 3.73607 14.4941 3.09278L11.4316 7.25Z" fill="currentColor" />
</svg>