<svg xmlns="http://www.w3.org/2000/svg" width="24" height="24" viewBox="0 0 24 24" fill="none">
<path d="M13.9502 1.25C17.0304 1.25 18.5706 1.25016 19.7471 1.84961C20.7818 2.37689 21.6231 3.21816 22.1504 4.25293C22.7498 5.42942 22.75 6.96965 22.75 10.0498V13.9502C22.75 17.0304 22.7498 18.5706 22.1504 19.7471C21.6231 20.7818 20.7818 21.6231 19.7471 22.1504C18.5706 22.7498 17.0304 22.75 13.9502 22.75H10.0498C6.96965 22.75 5.42942 22.7498 4.25293 22.1504C3.21816 21.6231 2.37689 20.7818 1.84961 19.7471C1.25016 18.5706 1.25 17.0304 1.25 13.9502V10.0498C1.25 6.96965 1.25016 5.42942 1.84961 4.25293C2.37689 3.21816 3.21816 2.37689 4.25293 1.84961C5.42942 1.25016 6.96965 1.25 10.0498 1.25H13.9502ZM7.58594 15.3564C7.25287 15.1567 6.82704 15.2461 6.59961 15.5508L6.55664 15.6143L5.95703 16.6143C5.74394 16.9694 5.85869 17.4304 6.21387 17.6436C6.54692 17.8434 6.97272 17.7539 7.2002 17.4492L7.24316 17.3857L7.84277 16.3857C8.05588 16.0306 7.94112 15.5696 7.58594 15.3564ZM14.1006 10.0508C13.8732 9.74602 13.4473 9.65679 13.1143 9.85645C12.7592 10.0695 12.6436 10.5306 12.8564 10.8857L15.0205 14.4912L16.7568 17.3857C16.9699 17.7409 17.4309 17.8567 17.7861 17.6436C18.1192 17.4437 18.2409 17.0257 18.0791 16.6816L18.043 16.6143L16.9883 14.8555H18L18.0771 14.8516C18.4551 14.813 18.7499 14.4935 18.75 14.1055C18.75 13.7173 18.4551 13.398 18.0771 13.3594L18 13.3555H16.0879L14.1436 10.1143L14.1006 10.0508ZM11.4004 5.55078C11.173 5.24606 10.7471 5.1567 10.4141 5.35645C10.081 5.5563 9.95922 5.97424 10.1211 6.31836L10.1572 6.38574L11.125 7.99902L7.91211 13.3555H6C5.58579 13.3555 5.25 13.6913 5.25 14.1055C5.25011 14.5196 5.58586 14.8555 6 14.8555H13L13.0771 14.8516C13.4551 14.813 13.7499 14.4935 13.75 14.1055C13.75 13.7173 13.4551 13.398 13.0771 13.3594L13 13.3555H9.66113L12.6436 8.38574L13.8428 6.38574C14.0559 6.03056 13.9411 5.56956 13.5859 5.35645C13.2308 5.14345 12.7697 5.25912 12.5566 5.61426L12 6.54102L11.4434 5.61426L11.4004 5.55078Z" fill="currentColor" />
</svg>