<svg xmlns="http://www.w3.org/2000/svg" width="24" height="24" viewBox="0 0 24 24" fill="none">
<path d="M14.75 1.25C17.55 1.25 18.95 1.25013 20.0195 1.79492C20.9603 2.27429 21.7257 3.03966 22.2051 3.98047C22.7499 5.04998 22.75 6.45005 22.75 9.25V14.75C22.75 17.55 22.7499 18.95 22.2051 20.0195C21.7257 20.9603 20.9603 21.7257 20.0195 22.2051C18.95 22.7499 17.55 22.75 14.75 22.75H9.25C6.45005 22.75 5.04998 22.7499 3.98047 22.2051C3.03966 21.7257 2.27429 20.9603 1.79492 20.0195C1.25013 18.95 1.25 17.55 1.25 14.75V9.25C1.25 6.45005 1.25013 5.04998 1.79492 3.98047C2.27429 3.03966 3.03966 2.27429 3.98047 1.79492C5.04998 1.25013 6.45005 1.25 9.25 1.25H14.75ZM15.5303 5.46973C15.2374 5.17688 14.7626 5.17688 14.4697 5.46973L11.4697 8.46973C11.1769 8.76261 11.1769 9.23739 11.4697 9.53027C11.7626 9.82312 12.2374 9.82312 12.5303 9.53027L14.25 7.81055V10.5996C14.25 11.732 14.2497 12.5367 14.1982 13.166C14.1475 13.7866 14.0506 14.1711 13.8955 14.4756C13.5839 15.0869 13.087 15.584 12.4756 15.8955C12.1711 16.0506 11.7866 16.1475 11.166 16.1982C10.5367 16.2496 9.73194 16.25 8.59961 16.25H7C6.58579 16.25 6.25 16.5858 6.25 17C6.25 17.4142 6.58579 17.75 7 17.75H8.59961C9.70716 17.75 10.5835 17.7509 11.2881 17.6934C12.0013 17.6351 12.6052 17.5131 13.1562 17.2324C14.05 16.777 14.777 16.05 15.2324 15.1562C15.5132 14.6051 15.6351 14.0014 15.6934 13.2881C15.7509 12.5835 15.75 11.7072 15.75 10.5996V7.81055L17.4697 9.53027C17.7626 9.82312 18.2374 9.82312 18.5303 9.53027C18.8049 9.25566 18.8223 8.82094 18.582 8.52637L18.5303 8.46973L15.5303 5.46973Z" fill="currentColor" />
</svg>