<svg xmlns="http://www.w3.org/2000/svg" width="24" height="24" viewBox="0 0 24 24" fill="none">
<path d="M14.75 22.75C17.55 22.75 18.95 22.7499 20.0195 22.2051C20.9603 21.7257 21.7257 20.9603 22.2051 20.0195C22.7499 18.95 22.75 17.55 22.75 14.75V9.25C22.75 6.45004 22.7499 5.04998 22.2051 3.98047C21.7257 3.03966 20.9603 2.27429 20.0195 1.79492C18.95 1.25013 17.55 1.25 14.75 1.25H9.25C6.45005 1.25 5.04998 1.25013 3.98047 1.79492C3.03966 2.27429 2.27429 3.03966 1.79492 3.98047C1.25013 5.04998 1.25 6.45004 1.25 9.25V14.75C1.25 17.55 1.25013 18.95 1.79492 20.0195C2.27429 20.9603 3.03966 21.7257 3.98047 22.2051C5.04998 22.7499 6.45005 22.75 9.25 22.75H14.75ZM7 17.75C6.58579 17.75 6.25 17.4142 6.25 17V15.4004C6.25 14.2928 6.24909 13.4165 6.30664 12.7119C6.36492 11.9986 6.48682 11.3949 6.76758 10.8438C7.22298 9.94998 7.94998 9.22298 8.84375 8.76758C9.39487 8.48682 9.99862 8.36492 10.7119 8.30664C11.4165 8.24909 12.2928 8.25 13.4004 8.25H16.1895L14.4697 6.53027L14.418 6.47363C14.1777 6.17905 14.1951 5.74433 14.4697 5.46973C14.7626 5.17683 15.2374 5.17683 15.5303 5.46973L18.5303 8.46973C18.8232 8.76262 18.8232 9.23738 18.5303 9.53027L15.5303 12.5303C15.2374 12.8232 14.7626 12.8232 14.4697 12.5303C14.1768 12.2374 14.1768 11.7626 14.4697 11.4697L16.1895 9.75H13.4004C12.268 9.75 11.4633 9.75035 10.834 9.80176C10.2134 9.85246 9.82889 9.94936 9.52441 10.1045C8.91304 10.4161 8.41605 10.913 8.10449 11.5244C7.94936 11.8289 7.85247 12.2134 7.80176 12.834C7.75034 13.4634 7.75 14.268 7.75 15.4004V17C7.75 17.4142 7.41421 17.75 7 17.75Z" fill="currentColor" />
</svg>