<svg xmlns="http://www.w3.org/2000/svg" width="24" height="24" viewBox="0 0 24 24" fill="none">
<path d="M14.75 1.25C17.55 1.25 18.95 1.25013 20.0195 1.79492C20.9603 2.27429 21.7257 3.03966 22.2051 3.98047C22.7499 5.04998 22.75 6.45005 22.75 9.25V14.75C22.75 17.55 22.7499 18.95 22.2051 20.0195C21.7257 20.9603 20.9603 21.7257 20.0195 22.2051C18.95 22.7499 17.55 22.75 14.75 22.75H9.25C6.45005 22.75 5.04998 22.7499 3.98047 22.2051C3.03966 21.7257 2.27429 20.9603 1.79492 20.0195C1.25013 18.95 1.25 17.55 1.25 14.75V9.25C1.25 6.45005 1.25013 5.04998 1.79492 3.98047C2.27429 3.03966 3.03966 2.27429 3.98047 1.79492C5.04998 1.25013 6.45005 1.25 9.25 1.25H14.75ZM12.5303 6.46973C12.2374 6.17688 11.7626 6.17688 11.4697 6.46973L7.46973 10.4697C7.17684 10.7626 7.17684 11.2374 7.46973 11.5303C7.76262 11.8232 8.23738 11.8232 8.53027 11.5303L11.25 8.81055V17C11.25 17.4142 11.5858 17.75 12 17.75C12.4142 17.75 12.75 17.4142 12.75 17V8.81055L15.4697 11.5303C15.7626 11.8232 16.2374 11.8231 16.5303 11.5303C16.8049 11.2557 16.8224 10.8209 16.582 10.5264L16.5303 10.4697L12.5303 6.46973Z" fill="currentColor" />
</svg>