<svg xmlns="http://www.w3.org/2000/svg" width="24" height="24" viewBox="0 0 24 24" fill="none">
<path d="M14.75 1.25C17.55 1.25 18.95 1.25013 20.0195 1.79492C20.9603 2.27429 21.7257 3.03966 22.2051 3.98047C22.7499 5.04998 22.75 6.45005 22.75 9.25V14.75C22.75 17.55 22.7499 18.95 22.2051 20.0195C21.7257 20.9603 20.9603 21.7257 20.0195 22.2051C18.95 22.7499 17.55 22.75 14.75 22.75H9.25C6.45005 22.75 5.04998 22.7499 3.98047 22.2051C3.03966 21.7257 2.27429 20.9603 1.79492 20.0195C1.25013 18.95 1.25 17.55 1.25 14.75V9.25C1.25 6.45005 1.25013 5.04998 1.79492 3.98047C2.27429 3.03966 3.03966 2.27429 3.98047 1.79492C5.04998 1.25013 6.45005 1.25 9.25 1.25H14.75ZM18 6.25C17.5858 6.25 17.25 6.58579 17.25 7V8.59961C17.25 9.73193 17.2496 10.5367 17.1982 11.166C17.1475 11.7866 17.0506 12.1711 16.8955 12.4756C16.584 13.0869 16.0869 13.5839 15.4756 13.8955C15.1711 14.0506 14.7866 14.1475 14.166 14.1982C13.5367 14.2497 12.732 14.25 11.5996 14.25H8.81055L10.5303 12.5303C10.8231 12.2374 10.8231 11.7626 10.5303 11.4697C10.2374 11.1769 9.76261 11.1769 9.46973 11.4697L6.46973 14.4697C6.17689 14.7626 6.17689 15.2374 6.46973 15.5303L9.46973 18.5303L9.52637 18.582C9.82093 18.8223 10.2557 18.8048 10.5303 18.5303C10.8231 18.2374 10.8231 17.7626 10.5303 17.4697L8.81055 15.75H11.5996C12.7072 15.75 13.5835 15.7509 14.2881 15.6934C15.0014 15.6351 15.6051 15.5132 16.1562 15.2324C17.05 14.777 17.777 14.05 18.2324 13.1562C18.5131 12.6052 18.6351 12.0013 18.6934 11.2881C18.7509 10.5835 18.75 9.70715 18.75 8.59961V7C18.75 6.58579 18.4142 6.25 18 6.25Z" fill="currentColor" />
</svg>