<svg xmlns="http://www.w3.org/2000/svg" width="24" height="24" viewBox="0 0 24 24" fill="none">
<path d="M14.75 1.25C17.55 1.25 18.95 1.25013 20.0195 1.79492C20.9603 2.27429 21.7257 3.03966 22.2051 3.98047C22.7499 5.04998 22.75 6.45005 22.75 9.25V14.75C22.75 17.55 22.7499 18.95 22.2051 20.0195C21.7257 20.9603 20.9603 21.7257 20.0195 22.2051C18.95 22.7499 17.55 22.75 14.75 22.75H9.25C6.45005 22.75 5.04998 22.7499 3.98047 22.2051C3.03966 21.7257 2.27429 20.9603 1.79492 20.0195C1.25013 18.95 1.25 17.55 1.25 14.75V9.25C1.25 6.45005 1.25013 5.04998 1.79492 3.98047C2.27429 3.03966 3.03966 2.27429 3.98047 1.79492C5.04998 1.25013 6.45005 1.25 9.25 1.25H14.75ZM13.5303 7.46973C13.2374 7.17684 12.7626 7.17684 12.4697 7.46973C12.1952 7.74433 12.1777 8.17907 12.418 8.47363L12.4697 8.53027L15.1895 11.25H7C6.58581 11.25 6.25003 11.5858 6.25 12C6.25006 12.4142 6.58582 12.75 7 12.75H15.1895L12.4697 15.4697C12.1769 15.7626 12.1769 16.2374 12.4697 16.5303C12.7626 16.8231 13.2374 16.8231 13.5303 16.5303L17.5303 12.5303C17.8231 12.2374 17.8231 11.7626 17.5303 11.4697L13.5303 7.46973Z" fill="currentColor" />
</svg>