<svg xmlns="http://www.w3.org/2000/svg" width="24" height="24" viewBox="0 0 24 24" fill="none">
<path d="M12 1.25C17.9371 1.25 22.75 6.06294 22.75 12C22.75 17.9371 17.9371 22.75 12 22.75C6.06294 22.75 1.25 17.9371 1.25 12C1.25 6.06294 6.06294 1.25 12 1.25ZM10.5 8.25C10.0858 8.25 9.75 8.58579 9.75 9C9.75 9.41421 10.0858 9.75 10.5 9.75H13.1895L8.46973 14.4697C8.17683 14.7626 8.17683 15.2374 8.46973 15.5303C8.76262 15.8232 9.23738 15.8232 9.53027 15.5303L14.25 10.8105V13.5C14.25 13.9142 14.5858 14.25 15 14.25C15.4142 14.25 15.75 13.9142 15.75 13.5V9C15.75 8.58579 15.4142 8.25 15 8.25H10.5Z" fill="currentColor" />
</svg>