<svg xmlns="http://www.w3.org/2000/svg" width="24" height="24" viewBox="0 0 24 24" fill="none">
<path d="M2 14.5L2 15C2 16.8613 2 17.7919 2.24472 18.5451C2.73931 20.0673 3.93273 21.2607 5.45491 21.7553C6.20808 22 7.13872 22 9 22H14C16.8003 22 18.2004 22 19.27 21.455C20.2108 20.9757 20.9757 20.2108 21.455 19.27C22 18.2004 22 16.8003 22 14V10C22 7.19974 22 5.79961 21.455 4.73005C20.9757 3.78924 20.2108 3.02433 19.27 2.54497C18.2004 2 16.8003 2 14 2L9 2C7.13872 2 6.20808 2 5.45491 2.24472C3.93273 2.73931 2.73931 3.93273 2.24472 5.45492C2 6.20808 2 7.13872 2 9L2 9.5M18 9L15 6M18 9L15 12M18 9H14.5C12.1703 9 11.0054 9 10.0866 9.3806C8.86144 9.88807 7.88807 10.8614 7.3806 12.0866C7 13.0054 7 14.1703 7 16.5V17.0001" stroke="currentColor" stroke-width={1.5} stroke-linecap="round" stroke-linejoin="round" />
</svg>