<svg xmlns="http://www.w3.org/2000/svg" width="24" height="24" viewBox="0 0 24 24" fill="none">
<path d="M14.75 1.25C17.55 1.25 18.95 1.25013 20.0195 1.79492C20.9603 2.27429 21.7257 3.03966 22.2051 3.98047C22.7499 5.04998 22.75 6.45005 22.75 9.25V14.75C22.75 17.55 22.7499 18.95 22.2051 20.0195C21.7257 20.9603 20.9603 21.7257 20.0195 22.2051C18.95 22.7499 17.55 22.75 14.75 22.75H9.25C6.45005 22.75 5.04998 22.7499 3.98047 22.2051C3.03966 21.7257 2.27429 20.9603 1.79492 20.0195C1.25013 18.95 1.25 17.55 1.25 14.75V9.25C1.25 6.45005 1.25013 5.04998 1.79492 3.98047C2.27429 3.03966 3.03966 2.27429 3.98047 1.79492C5.04998 1.25013 6.45005 1.25 9.25 1.25H14.75ZM12 4.25C11.8508 4.25 11.7063 4.29445 11.584 4.37598L11.4697 4.46973L9.46973 6.46973C9.17683 6.76262 9.17683 7.23738 9.46973 7.53027C9.76262 7.82317 10.2374 7.82317 10.5303 7.53027L11.25 6.81055V11.25H6.81055L7.53027 10.5303C7.82317 10.2374 7.82317 9.76262 7.53027 9.46973C7.23738 9.17683 6.76262 9.17683 6.46973 9.46973L4.46973 11.4697C4.32907 11.6104 4.25 11.8011 4.25 12C4.25 12.1989 4.32907 12.3896 4.46973 12.5303L6.46973 14.5303L6.52637 14.582C6.82095 14.8223 7.25567 14.8049 7.53027 14.5303C7.80488 14.2557 7.82234 13.8209 7.58203 13.5264L7.53027 13.4697L6.81055 12.75H11.25V17.1895L10.5303 16.4697L10.4736 16.418C10.1791 16.1777 9.74433 16.1951 9.46973 16.4697C9.19512 16.7443 9.17766 17.1791 9.41797 17.4736L9.46973 17.5303L11.4697 19.5303C11.6104 19.6709 11.8011 19.75 12 19.75C12.1989 19.75 12.3896 19.6709 12.5303 19.5303L14.5303 17.5303C14.8232 17.2374 14.8232 16.7626 14.5303 16.4697C14.2374 16.1768 13.7626 16.1768 13.4697 16.4697L12.75 17.1895V12.75H17.1895L16.4697 13.4697C16.1768 13.7626 16.1768 14.2374 16.4697 14.5303C16.7626 14.8232 17.2374 14.8232 17.5303 14.5303L19.5303 12.5303C19.6709 12.3896 19.75 12.1989 19.75 12C19.75 11.8011 19.6709 11.6104 19.5303 11.4697L17.5303 9.46973L17.4736 9.41797C17.1791 9.17766 16.7443 9.19512 16.4697 9.46973C16.1951 9.74433 16.1777 10.1791 16.418 10.4736L16.4697 10.5303L17.1895 11.25H12.75V6.81055L13.4697 7.53027L13.5264 7.58203C13.8209 7.82234 14.2557 7.80488 14.5303 7.53027C14.8049 7.25567 14.8223 6.82095 14.582 6.52637L14.5303 6.46973L12.5303 4.46973C12.3896 4.32907 12.1989 4.25 12 4.25Z" fill="currentColor" />
</svg>