<svg xmlns="http://www.w3.org/2000/svg" width="24" height="24" viewBox="0 0 24 24" fill="none">
<path d="M14.75 1.25C17.55 1.25 18.95 1.25013 20.0195 1.79492C20.9603 2.27429 21.7257 3.03966 22.2051 3.98047C22.7499 5.04998 22.75 6.45005 22.75 9.25V14.75C22.75 17.55 22.7499 18.95 22.2051 20.0195C21.7257 20.9603 20.9603 21.7257 20.0195 22.2051C18.95 22.7499 17.55 22.75 14.75 22.75H9.25C6.45005 22.75 5.04998 22.7499 3.98047 22.2051C3.03966 21.7257 2.27429 20.9603 1.79492 20.0195C1.25013 18.95 1.25 17.55 1.25 14.75V9.25C1.25 6.45005 1.25013 5.04998 1.79492 3.98047C2.27429 3.03966 3.03966 2.27429 3.98047 1.79492C5.04998 1.25013 6.45005 1.25 9.25 1.25H14.75ZM9.53027 5.46973C9.25568 5.19513 8.82095 5.17769 8.52637 5.41797L8.46973 5.46973L5.46973 8.46973C5.17683 8.76262 5.17683 9.23738 5.46973 9.53027C5.76262 9.82314 6.23739 9.82316 6.53027 9.53027L8.25 7.81055V10.5996C8.25 11.7072 8.24909 12.5835 8.30664 13.2881C8.36492 14.0014 8.48682 14.6051 8.76758 15.1562C9.22298 16.05 9.94999 16.777 10.8438 17.2324C11.3949 17.5132 11.9986 17.6351 12.7119 17.6934C13.4165 17.7509 14.2928 17.75 15.4004 17.75H17C17.4142 17.75 17.75 17.4142 17.75 17C17.75 16.5858 17.4142 16.25 17 16.25H15.4004C14.268 16.25 13.4633 16.2497 12.834 16.1982C12.2134 16.1475 11.8289 16.0506 11.5244 15.8955C10.9131 15.584 10.4161 15.0869 10.1045 14.4756C9.94936 14.1711 9.85247 13.7866 9.80176 13.166C9.75035 12.5367 9.75 11.732 9.75 10.5996V7.81055L11.4697 9.53027L11.5264 9.58203C11.8209 9.82231 12.2557 9.80487 12.5303 9.53027C12.8048 9.25568 12.8223 8.82094 12.582 8.52637L12.5303 8.46973L9.53027 5.46973Z" fill="currentColor" />
</svg>