<svg xmlns="http://www.w3.org/2000/svg" width="24" height="24" viewBox="0 0 24 24" fill="none">
<path d="M12 1.25C17.9371 1.25 22.75 6.06294 22.75 12C22.75 17.9371 17.9371 22.75 12 22.75C6.06294 22.75 1.25 17.9371 1.25 12C1.25 6.06294 6.06294 1.25 12 1.25ZM9 8.25C8.58579 8.25 8.25 8.58579 8.25 9V13.5C8.25 13.9142 8.58579 14.25 9 14.25C9.41421 14.25 9.75 13.9142 9.75 13.5V10.8105L14.4697 15.5303L14.5264 15.582C14.8209 15.8223 15.2557 15.8049 15.5303 15.5303C15.8049 15.2557 15.8223 14.8209 15.582 14.5264L15.5303 14.4697L10.8105 9.75H13.5C13.9142 9.75 14.25 9.41421 14.25 9C14.25 8.58579 13.9142 8.25 13.5 8.25H9Z" fill="currentColor" />
</svg>