<svg xmlns="http://www.w3.org/2000/svg" width="24" height="24" viewBox="0 0 24 24" fill="none">
<path d="M12 1.25C17.9371 1.25 22.75 6.06294 22.75 12C22.75 17.9371 17.9371 22.75 12 22.75C6.06294 22.75 1.25 17.9371 1.25 12C1.25 6.06294 6.06294 1.25 12 1.25ZM14.5303 7.46973C14.2374 7.17683 13.7626 7.17683 13.4697 7.46973C13.1951 7.74433 13.1777 8.17905 13.418 8.47363L13.4697 8.53027L14.1895 9.25H11C8.92893 9.25 7.25 10.9289 7.25 13C7.25 15.0711 8.92893 16.75 11 16.75H13C13.4142 16.75 13.75 16.4142 13.75 16C13.75 15.5858 13.4142 15.25 13 15.25H11C9.75736 15.25 8.75 14.2426 8.75 13C8.75 11.7574 9.75736 10.75 11 10.75H16C16.3033 10.75 16.5773 10.5674 16.6934 10.2871C16.8094 10.0069 16.7448 9.68421 16.5303 9.46973L14.5303 7.46973Z" fill="currentColor" />
</svg>