<svg xmlns="http://www.w3.org/2000/svg" width="24" height="24" viewBox="0 0 24 24" fill="none">
<path d="M12 1.25C17.9371 1.25 22.75 6.06294 22.75 12C22.75 17.9371 17.9371 22.75 12 22.75C6.06294 22.75 1.25 17.9371 1.25 12C1.25 6.06294 6.06294 1.25 12 1.25ZM10.5303 7.46973C10.2374 7.17683 9.76262 7.17683 9.46973 7.46973L7.46973 9.46973C7.25525 9.68421 7.1906 10.0069 7.30664 10.2871C7.42273 10.5674 7.69665 10.75 8 10.75H13C14.2426 10.75 15.25 11.7574 15.25 13C15.25 14.2426 14.2426 15.25 13 15.25H11C10.5858 15.25 10.25 15.5858 10.25 16C10.25 16.4142 10.5858 16.75 11 16.75H13C15.0711 16.75 16.75 15.0711 16.75 13C16.75 10.9289 15.0711 9.25 13 9.25H9.81055L10.5303 8.53027C10.8232 8.23738 10.8232 7.76262 10.5303 7.46973Z" fill="currentColor" />
</svg>