<svg xmlns="http://www.w3.org/2000/svg" width="24" height="24" viewBox="0 0 24 24" fill="none">
<path d="M12 1.25C17.9371 1.25 22.75 6.06294 22.75 12C22.75 17.9371 17.9371 22.75 12 22.75C6.06294 22.75 1.25 17.9371 1.25 12C1.25 6.06294 6.06294 1.25 12 1.25ZM9.53027 8.46973C9.23738 8.17683 8.76262 8.17683 8.46973 8.46973C8.17683 8.76262 8.17683 9.23738 8.46973 9.53027L13.1895 14.25H10.5C10.0858 14.25 9.75 14.5858 9.75 15C9.75 15.4142 10.0858 15.75 10.5 15.75H15C15.4142 15.75 15.75 15.4142 15.75 15V10.5C15.75 10.0858 15.4142 9.75 15 9.75C14.5858 9.75 14.25 10.0858 14.25 10.5V13.1895L9.53027 8.46973Z" fill="currentColor" />
</svg>