<svg xmlns="http://www.w3.org/2000/svg" width="24" height="24" viewBox="0 0 24 24" fill="none">
<path d="M14.75 1.25C17.55 1.25 18.95 1.25013 20.0195 1.79492C20.9603 2.27429 21.7257 3.03966 22.2051 3.98047C22.7499 5.04998 22.75 6.45005 22.75 9.25V14.75C22.75 17.55 22.7499 18.95 22.2051 20.0195C21.7257 20.9603 20.9603 21.7257 20.0195 22.2051C18.95 22.7499 17.55 22.75 14.75 22.75H9.25C6.45005 22.75 5.04998 22.7499 3.98047 22.2051C3.03966 21.7257 2.27429 20.9603 1.79492 20.0195C1.25013 18.95 1.25 17.55 1.25 14.75V9.25C1.25 6.45005 1.25013 5.04998 1.79492 3.98047C2.27429 3.03966 3.03966 2.27429 3.98047 1.79492C5.04998 1.25013 6.45005 1.25 9.25 1.25H14.75ZM7 6.25C6.58579 6.25 6.25 6.58579 6.25 7V8.59961C6.25 9.70723 6.24909 10.5835 6.30664 11.2881C6.36492 12.0014 6.48682 12.6051 6.76758 13.1562C7.22298 14.05 7.94998 14.777 8.84375 15.2324C9.39487 15.5132 9.99862 15.6351 10.7119 15.6934C11.4165 15.7509 12.2928 15.75 13.4004 15.75H16.1895L14.4697 17.4697L14.418 17.5264C14.1777 17.8209 14.1951 18.2557 14.4697 18.5303C14.7626 18.8232 15.2374 18.8232 15.5303 18.5303L18.5303 15.5303C18.8232 15.2374 18.8232 14.7626 18.5303 14.4697L15.5303 11.4697C15.2374 11.1768 14.7626 11.1768 14.4697 11.4697C14.1768 11.7626 14.1768 12.2374 14.4697 12.5303L16.1895 14.25H13.4004C12.268 14.25 11.4633 14.2497 10.834 14.1982C10.2134 14.1475 9.82889 14.0506 9.52441 13.8955C8.91304 13.5839 8.41605 13.087 8.10449 12.4756C7.94936 12.1711 7.85247 11.7866 7.80176 11.166C7.75034 10.5366 7.75 9.73202 7.75 8.59961V7C7.75 6.58579 7.41421 6.25 7 6.25Z" fill="currentColor" />
</svg>