<svg xmlns="http://www.w3.org/2000/svg" width="24" height="24" viewBox="0 0 24 24" fill="none">
<path d="M12 1.25C17.9371 1.25 22.75 6.06294 22.75 12C22.75 17.9371 17.9371 22.75 12 22.75C6.06294 22.75 1.25 17.9371 1.25 12C1.25 6.06294 6.06294 1.25 12 1.25ZM12 7.25C11.8508 7.25 11.7063 7.29445 11.584 7.37598L11.4697 7.46973L8.46973 10.4697C8.17683 10.7626 8.17683 11.2374 8.46973 11.5303C8.76262 11.8232 9.23738 11.8232 9.53027 11.5303L11.25 9.81055V16C11.25 16.4142 11.5858 16.75 12 16.75C12.4142 16.75 12.75 16.4142 12.75 16V9.81055L14.4697 11.5303L14.5264 11.582C14.8209 11.8223 15.2557 11.8049 15.5303 11.5303C15.8049 11.2557 15.8223 10.8209 15.582 10.5264L15.5303 10.4697L12.5303 7.46973C12.3896 7.32907 12.1989 7.25 12 7.25Z" fill="currentColor" />
</svg>