<svg xmlns="http://www.w3.org/2000/svg" width="24" height="24" viewBox="0 0 24 24" fill="none">
<path d="M14.75 1.25C17.55 1.25 18.95 1.25013 20.0195 1.79492C20.9603 2.27429 21.7257 3.03966 22.2051 3.98047C22.7499 5.04998 22.75 6.45005 22.75 9.25V14.75C22.75 17.55 22.7499 18.95 22.2051 20.0195C21.7257 20.9603 20.9603 21.7257 20.0195 22.2051C18.95 22.7499 17.55 22.75 14.75 22.75H9.25C6.45005 22.75 5.04998 22.7499 3.98047 22.2051C3.03966 21.7257 2.27429 20.9603 1.79492 20.0195C1.25013 18.95 1.25 17.55 1.25 14.75V9.25C1.25 6.45005 1.25013 5.04998 1.79492 3.98047C2.27429 3.03966 3.03966 2.27429 3.98047 1.79492C5.04998 1.25013 6.45005 1.25 9.25 1.25H14.75ZM11.5303 7.46973C11.2374 7.17684 10.7626 7.17683 10.4697 7.46973L6.46973 11.4697C6.17687 11.7626 6.17686 12.2374 6.46973 12.5303L10.4697 16.5303L10.5264 16.582C10.8209 16.8223 11.2557 16.8048 11.5303 16.5303C11.8049 16.2557 11.8223 15.8209 11.582 15.5264L11.5303 15.4697L8.81055 12.75H17C17.4142 12.75 17.75 12.4142 17.75 12C17.75 11.5858 17.4142 11.25 17 11.25H8.81055L11.5303 8.53027C11.8231 8.2374 11.8231 7.76262 11.5303 7.46973Z" fill="currentColor" />
</svg>