<svg xmlns="http://www.w3.org/2000/svg" width="24" height="24" viewBox="0 0 24 24" fill="none">
<path d="M14.75 1.25C17.55 1.25 18.95 1.25013 20.0195 1.79492C20.9603 2.27429 21.7257 3.03966 22.2051 3.98047C22.7499 5.04998 22.75 6.45005 22.75 9.25V14.75C22.75 17.55 22.7499 18.95 22.2051 20.0195C21.7257 20.9603 20.9603 21.7257 20.0195 22.2051C18.95 22.7499 17.55 22.75 14.75 22.75H9.25C6.45005 22.75 5.04998 22.7499 3.98047 22.2051C3.03966 21.7257 2.27429 20.9603 1.79492 20.0195C1.25013 18.95 1.25 17.55 1.25 14.75V9.25C1.25 6.45005 1.25013 5.04998 1.79492 3.98047C2.27429 3.03966 3.03966 2.27429 3.98047 1.79492C5.04998 1.25013 6.45005 1.25 9.25 1.25H14.75ZM16.0303 12.4697C15.7374 12.1769 15.2626 12.1769 14.9697 12.4697C14.6952 12.7443 14.6777 13.1791 14.918 13.4736L14.9697 13.5303L16.1895 14.75H10C9.58581 14.75 9.25004 15.0858 9.25 15.5C9.25004 15.9142 9.58581 16.25 10 16.25H16.1895L14.9697 17.4697C14.6769 17.7626 14.6769 18.2374 14.9697 18.5303C15.2626 18.8231 15.7374 18.8231 16.0303 18.5303L18.5303 16.0303C18.8231 15.7374 18.8231 15.2626 18.5303 14.9697L16.0303 12.4697ZM9.03027 5.46973C8.73738 5.17684 8.26262 5.17684 7.96973 5.46973L5.46973 7.96973C5.17689 8.26261 5.17688 8.73739 5.46973 9.03027L7.96973 11.5303L8.02637 11.582C8.32094 11.8223 8.75567 11.8048 9.03027 11.5303C9.32312 11.2374 9.32312 10.7626 9.03027 10.4697L7.81055 9.25H14C14.4142 9.25 14.75 8.91418 14.75 8.5C14.75 8.08582 14.4142 7.75 14 7.75H7.81055L9.03027 6.53027C9.32315 6.23739 9.32313 5.76262 9.03027 5.46973Z" fill="currentColor" />
</svg>