<svg xmlns="http://www.w3.org/2000/svg" width="24" height="24" viewBox="0 0 24 24" fill="none">
<path d="M12 1.25C17.9371 1.25 22.75 6.06294 22.75 12C22.75 17.9371 17.9371 22.75 12 22.75C6.06294 22.75 1.25 17.9371 1.25 12C1.25 6.06294 6.06294 1.25 12 1.25ZM12 7.25C11.5858 7.25 11.25 7.58579 11.25 8V14.1895L9.53027 12.4697L9.47363 12.418C9.17905 12.1777 8.74433 12.1951 8.46973 12.4697C8.17683 12.7626 8.17683 13.2374 8.46973 13.5303L11.4697 16.5303C11.7626 16.8232 12.2374 16.8232 12.5303 16.5303L15.5303 13.5303C15.8232 13.2374 15.8232 12.7626 15.5303 12.4697C15.2374 12.1768 14.7626 12.1768 14.4697 12.4697L12.75 14.1895V8C12.75 7.58579 12.4142 7.25 12 7.25Z" fill="currentColor" />
</svg>