<svg xmlns="http://www.w3.org/2000/svg" width="24" height="24" viewBox="0 0 24 24" fill="none">
<path d="M14.75 1.25C17.55 1.25 18.95 1.25013 20.0195 1.79492C20.9603 2.27429 21.7257 3.03966 22.2051 3.98047C22.7499 5.04998 22.75 6.45005 22.75 9.25V14.75C22.75 17.55 22.7499 18.95 22.2051 20.0195C21.7257 20.9603 20.9603 21.7257 20.0195 22.2051C18.95 22.7499 17.55 22.75 14.75 22.75H9.25C6.45005 22.75 5.04998 22.7499 3.98047 22.2051C3.03966 21.7257 2.27429 20.9603 1.79492 20.0195C1.25013 18.95 1.25 17.55 1.25 14.75V9.25C1.25 6.45005 1.25013 5.04998 1.79492 3.98047C2.27429 3.03966 3.03966 2.27429 3.98047 1.79492C5.04998 1.25013 6.45005 1.25 9.25 1.25H14.75ZM15.4004 5.25C14.2928 5.25 13.4165 5.24909 12.7119 5.30664C11.9986 5.36492 11.3949 5.48684 10.8438 5.76758C9.94999 6.22297 9.22298 6.94999 8.76758 7.84375C8.48682 8.39486 8.36492 8.99862 8.30664 9.71191C8.24909 10.4165 8.25 11.2928 8.25 12.4004V15.1895L6.53027 13.4697L6.47363 13.418C6.17906 13.1777 5.74433 13.1952 5.46973 13.4697C5.17683 13.7626 5.17683 14.2374 5.46973 14.5303L8.46973 17.5303C8.76262 17.8231 9.23739 17.8232 9.53027 17.5303L12.5303 14.5303C12.8231 14.2374 12.8231 13.7626 12.5303 13.4697C12.2374 13.1768 11.7626 13.1769 11.4697 13.4697L9.75 15.1895V12.4004C9.75 11.268 9.75035 10.4633 9.80176 9.83398C9.85247 9.21336 9.94936 8.82889 10.1045 8.52441C10.4161 7.91306 10.9131 7.41605 11.5244 7.10449C11.8289 6.94937 12.2134 6.85246 12.834 6.80176C13.4633 6.75035 14.268 6.75 15.4004 6.75H17C17.4142 6.74997 17.75 6.41419 17.75 6C17.75 5.58581 17.4142 5.25003 17 5.25H15.4004Z" fill="currentColor" />
</svg>