<svg xmlns="http://www.w3.org/2000/svg" width="24" height="24" viewBox="0 0 24 24" fill="none">
<path d="M14.75 1.25C17.55 1.25 18.95 1.25013 20.0195 1.79492C20.9603 2.27429 21.7257 3.03966 22.2051 3.98047C22.7499 5.04998 22.75 6.45005 22.75 9.25V14.75C22.75 17.55 22.7499 18.95 22.2051 20.0195C21.7257 20.9603 20.9603 21.7257 20.0195 22.2051C18.95 22.7499 17.55 22.75 14.75 22.75H9.25C6.45005 22.75 5.04998 22.7499 3.98047 22.2051C3.03966 21.7257 2.27429 20.9603 1.79492 20.0195C1.25013 18.95 1.25 17.55 1.25 14.75V9.25C1.25 6.45005 1.25013 5.04998 1.79492 3.98047C2.27429 3.03966 3.03966 2.27429 3.98047 1.79492C5.04998 1.25013 6.45005 1.25 9.25 1.25H14.75ZM7 5.25C6.58579 5.25 6.25 5.58579 6.25 6C6.25 6.41421 6.58579 6.75 7 6.75H8.59961C9.73194 6.75 10.5367 6.75035 11.166 6.80176C11.7866 6.85247 12.1711 6.94936 12.4756 7.10449C13.087 7.41605 13.5839 7.91305 13.8955 8.52441C14.0506 8.82888 14.1475 9.21337 14.1982 9.83398C14.2497 10.4633 14.25 11.268 14.25 12.4004V15.1895L12.5303 13.4697L12.4736 13.418C12.1791 13.1777 11.7443 13.1952 11.4697 13.4697C11.1769 13.7626 11.1769 14.2374 11.4697 14.5303L14.4697 17.5303C14.7626 17.8231 15.2374 17.8231 15.5303 17.5303L18.5303 14.5303C18.8231 14.2374 18.8231 13.7626 18.5303 13.4697C18.2374 13.1769 17.7626 13.1769 17.4697 13.4697L15.75 15.1895V12.4004C15.75 11.2928 15.7509 10.4165 15.6934 9.71191C15.6351 8.99862 15.5132 8.39487 15.2324 7.84375C14.777 6.95 14.05 6.22298 13.1562 5.76758C12.6052 5.48685 12.0013 5.36492 11.2881 5.30664C10.5835 5.24909 9.70716 5.25 8.59961 5.25H7Z" fill="currentColor" />
</svg>