<svg xmlns="http://www.w3.org/2000/svg" width="24" height="24" viewBox="0 0 24 24" fill="none">
<path d="M12 1.25C17.9371 1.25 22.75 6.06294 22.75 12C22.75 17.9371 17.9371 22.75 12 22.75C6.06294 22.75 1.25 17.9371 1.25 12C1.25 6.06294 6.06294 1.25 12 1.25ZM11.5303 8.46973C11.2374 8.17683 10.7626 8.17684 10.4697 8.46973L7.46973 11.4697C7.32909 11.6104 7.25 11.8011 7.25 12C7.25001 12.1989 7.32908 12.3896 7.46973 12.5303L10.4697 15.5303L10.5264 15.582C10.8209 15.8223 11.2557 15.8049 11.5303 15.5303C11.8049 15.2557 11.8223 14.8209 11.582 14.5264L11.5303 14.4697L9.81055 12.75H16L16.0771 12.7461C16.4551 12.7075 16.75 12.3882 16.75 12C16.75 11.6118 16.4551 11.2925 16.0771 11.2539L16 11.25H9.81055L11.5303 9.53027C11.8232 9.23738 11.8232 8.76262 11.5303 8.46973Z" fill="currentColor" />
</svg>