<svg xmlns="http://www.w3.org/2000/svg" width="24" height="24" viewBox="0 0 24 24" fill="none">
<path d="M14.75 22.75C17.55 22.75 18.95 22.7499 20.0195 22.2051C20.9603 21.7257 21.7257 20.9603 22.2051 20.0195C22.7499 18.95 22.75 17.55 22.75 14.75V9.25C22.75 6.45004 22.7499 5.04998 22.2051 3.98047C21.7257 3.03966 20.9603 2.27429 20.0195 1.79492C18.95 1.25013 17.55 1.25 14.75 1.25H9.25C6.45005 1.25 5.04998 1.25013 3.98047 1.79492C3.03966 2.27429 2.27429 3.03966 1.79492 3.98047C1.25013 5.04998 1.25 6.45004 1.25 9.25V14.75C1.25 17.55 1.25013 18.95 1.79492 20.0195C2.27429 20.9603 3.03966 21.7257 3.98047 22.2051C5.04998 22.7499 6.45005 22.75 9.25 22.75H14.75ZM17 17.75C16.5858 17.75 16.25 17.4142 16.25 17V15.4004C16.25 14.268 16.2497 13.4634 16.1982 12.834C16.1475 12.2134 16.0506 11.8289 15.8955 11.5244C15.5839 10.913 15.087 10.4161 14.4756 10.1045C14.1711 9.94936 13.7866 9.85246 13.166 9.80176C12.5367 9.75035 11.732 9.75 10.5996 9.75H7.81055L9.53027 11.4697L9.58203 11.5264C9.82234 11.8209 9.80488 12.2557 9.53027 12.5303C9.25567 12.8049 8.82095 12.8223 8.52637 12.582L8.46973 12.5303L5.46973 9.53027C5.17683 9.23738 5.17683 8.76262 5.46973 8.46973L8.46973 5.46973C8.76262 5.17683 9.23738 5.17683 9.53027 5.46973C9.82317 5.76262 9.82317 6.23738 9.53027 6.53027L7.81055 8.25H10.5996C11.7072 8.25 12.5835 8.24909 13.2881 8.30664C14.0014 8.36492 14.6051 8.48682 15.1562 8.76758C16.05 9.22298 16.777 9.94998 17.2324 10.8438C17.5132 11.3949 17.6351 11.9986 17.6934 12.7119C17.7509 13.4165 17.75 14.2928 17.75 15.4004V17C17.75 17.4142 17.4142 17.75 17 17.75Z" fill="currentColor" />
</svg>