<svg xmlns="http://www.w3.org/2000/svg" width="24" height="24" viewBox="0 0 24 24" fill="none">
<path d="M17 12V8M17 12C17 9.23858 14.7614 7 12 7C9.23858 7 7 9.23858 7 12C7 14.7614 9.23858 17 12 17C12.3425 17 12.6769 16.9656 13 16.9M17 12L17 13.9448C17 15 17.5 16.5 19 16.5C21 16.5 22 14.2013 22 12C22 6.47715 17.5228 2 12 2C7.89936 2 4.3752 4.46819 2.83209 8M2 12C2 17.5228 6.47715 22 12 22C13.5965 22 15.1056 21.6259 16.4444 20.9605" stroke="currentColor" stroke-width={2} stroke-linecap="round" stroke-linejoin="round" />
</svg>