<svg xmlns="http://www.w3.org/2000/svg" width="24" height="24" viewBox="0 0 24 24" fill="none">
<path d="M13.1504 1.25C16.5103 1.25 18.1902 1.25042 19.4736 1.9043C20.6026 2.47954 21.5205 3.39739 22.0957 4.52637C22.7496 5.80977 22.75 7.48965 22.75 10.8496V13.1504C22.75 16.5103 22.7496 18.1902 22.0957 19.4736C21.5205 20.6026 20.6026 21.5205 19.4736 22.0957C18.1902 22.7496 16.5103 22.75 13.1504 22.75H10.8496C7.48965 22.75 5.80977 22.7496 4.52637 22.0957C3.39739 21.5205 2.47954 20.6026 1.9043 19.4736C1.25042 18.1902 1.25 16.5103 1.25 13.1504V10.8496C1.25 7.48965 1.25042 5.80977 1.9043 4.52637C2.47954 3.39739 3.39739 2.47954 4.52637 1.9043C5.80977 1.25042 7.48965 1.25 10.8496 1.25H13.1504ZM12 5C8.13401 5 5 8.13401 5 12C5 15.866 8.13401 19 12 19C13.1157 19 14.1729 18.7378 15.1113 18.2715C15.6058 18.0258 15.808 17.4261 15.5625 16.9316C15.3321 16.468 14.7898 16.261 14.3154 16.4395L14.2217 16.4805C13.5536 16.8125 12.8 17 12 17C9.23858 17 7 14.7614 7 12C7 9.23858 9.23858 7 12 7C14.7614 7 17 9.23858 17 12C17 12.5289 16.8767 13.0177 16.6885 13.3379C16.5119 13.638 16.3472 13.7001 16.2002 13.7002C16.1738 13.7002 16.1595 13.6971 16.1533 13.6953C16.1503 13.6931 16.1349 13.6815 16.1133 13.6465C16.0851 13.6008 16.0549 13.5305 16.0322 13.4375C16.0098 13.3453 16 13.2496 16 13.167V12C16 9.79086 14.2091 8 12 8C9.79086 8 8 9.79086 8 12C8 14.2091 9.79086 16 12 16C13.0128 16 13.9369 15.6226 14.6416 15.002C14.995 15.4028 15.5138 15.7002 16.2002 15.7002C17.253 15.7001 17.9888 15.072 18.4121 14.3525C18.8238 13.6529 19 12.7916 19 12C19 8.13401 15.866 5 12 5ZM12 10C13.1046 10 14 10.8954 14 12C14 13.1046 13.1046 14 12 14C10.8954 14 10 13.1046 10 12C10 10.8954 10.8954 10 12 10Z" fill="currentColor" />
</svg>