<svg xmlns="http://www.w3.org/2000/svg" width="24" height="24" viewBox="0 0 24 24" fill="none">
<path d="M9.5 2L9 2C8.07116 2 7.60674 2 7.21684 2.05133C4.52444 2.40579 2.40579 4.52444 2.05133 7.21684C2 7.60674 2 8.07116 2 9L2 12.4C2 15.7603 2 17.4405 2.65396 18.7239C3.2292 19.8529 4.14709 20.7708 5.27606 21.346C6.55953 22 8.23969 22 11.6 22H12.4C15.7603 22 17.4405 22 18.7239 21.346C19.8529 20.7708 20.7708 19.8529 21.346 18.7239C22 17.4405 22 15.7603 22 12.4V9C22 8.07116 22 7.60674 21.9487 7.21684C21.5942 4.52444 19.4756 2.40579 16.7832 2.05133C16.3933 2 15.9288 2 15 2L14.5 2M15 12C15 13.6569 13.6569 15 12 15C10.3431 15 9 13.6569 9 12C9 10.3431 10.3431 9 12 9C13.6569 9 15 10.3431 15 12ZM15 12L15 13.1669C15 13.8 15.3 14.7 16.2 14.7C17.4 14.7 18 13.3208 18 12C18 8.68629 15.3137 6 12 6C8.68629 6 6 8.68629 6 12C6 15.3137 8.68629 18 12 18C12.9579 18 13.8634 17.7755 14.6667 17.3763" stroke="currentColor" stroke-width={2} stroke-linecap="round" stroke-linejoin="round" />
</svg>