<svg xmlns="http://www.w3.org/2000/svg" width="24" height="24" viewBox="0 0 24 24" fill="none">
<path d="M12.0001 19.5909C10.572 18.7349 9.12185 17.6067 7.7575 16.2424C3.07121 11.5561 1.17171 5.85763 3.51486 3.51448C5.85801 1.17134 11.5565 3.07083 16.2428 7.75712C20.9291 12.4434 22.8286 18.1419 20.4854 20.485C19.3139 21.6566 17.3035 21.7675 15.0002 20.9998M12.0002 4.40853C15.4775 2.32431 18.8245 1.8534 20.4854 3.51437C22.8286 5.85752 20.9291 11.556 16.2428 16.2423C11.5565 20.9286 5.85802 22.8281 3.51488 20.4849C1.17173 18.1418 3.07123 12.4433 7.75752 7.75701C8.01872 7.49581 8.28306 7.24327 8.5498 6.99964M12 12H12.01M12.5 12C12.5 12.2761 12.2761 12.5 12 12.5C11.7239 12.5 11.5 12.2761 11.5 12C11.5 11.7239 11.7239 11.5 12 11.5C12.2761 11.5 12.5 11.7239 12.5 12Z" stroke="currentColor" stroke-width={2} stroke-linecap="round" stroke-linejoin="round" />
</svg>