<svg xmlns="http://www.w3.org/2000/svg" width="24" height="24" viewBox="0 0 24 24" fill="none">
<path d="M12.0001 12H12.0101M16.2428 7.75701C20.9291 12.4433 22.8286 18.1418 20.4854 20.4849C18.1423 22.8281 12.4438 20.9286 7.7575 16.2423C3.07121 11.556 1.17171 5.85752 3.51486 3.51437C5.85801 1.17123 11.5565 3.07072 16.2428 7.75701ZM16.2428 16.2423C11.5565 20.9286 5.85802 22.8281 3.51488 20.485C1.17173 18.1418 3.07123 12.4434 7.75752 7.75706C12.4438 3.07077 18.1423 1.17128 20.4854 3.51442C22.8286 5.85757 20.9291 11.5561 16.2428 16.2423ZM12.5001 12C12.5001 12.2761 12.2763 12.5 12.0001 12.5C11.724 12.5 11.5001 12.2761 11.5001 12C11.5001 11.7239 11.724 11.5 12.0001 11.5C12.2763 11.5 12.5001 11.7239 12.5001 12Z" stroke="currentColor" stroke-width={2} stroke-linecap="round" stroke-linejoin="round" />
</svg>