<svg xmlns="http://www.w3.org/2000/svg" width="24" height="24" viewBox="0 0 24 24" fill="none">
<path d="M6.34312 6.34313C4.96662 7.71963 3.79228 9.19753 2.866 10.6889C2.63997 10.1978 2.4469 9.71257 2.28841 9.23709C1.49246 6.84923 1.50365 4.46498 2.98431 2.98431C4.46498 1.50365 6.84923 1.49246 9.23709 2.28841C9.71257 2.4469 10.1978 2.63997 10.6889 2.866C9.19753 3.79228 7.71962 4.96663 6.34312 6.34313Z" fill="currentColor" /><path d="M17.6568 17.6568C16.2803 19.0333 14.8025 20.2077 13.3111 21.1339C13.8021 21.3599 14.2873 21.553 14.7628 21.7114C17.1506 22.5074 19.5349 22.4962 21.0155 21.0155C22.4962 19.5349 22.5074 17.1506 21.7114 14.7628C21.553 14.2873 21.3599 13.8021 21.1339 13.3111C20.2077 14.8025 19.0333 16.2804 17.6568 17.6568Z" fill="currentColor" /><path fill-rule="evenodd" clip-rule="evenodd" d="M14.7628 2.28848C17.1506 1.49252 19.5349 1.50372 21.0156 2.98438C22.4962 4.46504 22.5074 6.8493 21.7115 9.23716C20.8997 11.6726 19.1805 14.3653 16.7729 16.773C14.3653 19.1806 11.6726 20.8997 9.23712 21.7115C6.84926 22.5075 4.46501 22.4963 2.98434 21.0156C1.50368 19.5349 1.49249 17.1507 2.28844 14.7628C3.10026 12.3274 4.81936 9.63464 7.22698 7.22702C9.63461 4.8194 12.3273 3.10029 14.7628 2.28848ZM11.9999 14C13.1045 14 13.9999 13.1046 13.9999 12C13.9999 10.8954 13.1045 9.99998 11.9999 9.99998C10.8954 9.99998 9.99992 10.8954 9.99992 12C9.99992 13.1046 10.8954 14 11.9999 14Z" fill="currentColor" />
</svg>