<svg xmlns="http://www.w3.org/2000/svg" width="24" height="24" viewBox="0 0 24 24" fill="none">
<path d="M3.25 10C3.25 5.16751 7.16751 1.25 12 1.25C16.8325 1.25 20.75 5.16751 20.75 10C20.75 14.8325 16.8325 18.75 12 18.75C7.16751 18.75 3.25 14.8325 3.25 10Z" fill="currentColor" /><path d="M5.73633 19.2575C5.81418 18.8293 5.85311 18.6152 5.95374 18.5078C6.04797 18.4071 6.15379 18.3578 6.29143 18.3503C6.43845 18.3422 6.64374 18.4593 7.05434 18.6934C8.51286 19.5249 10.201 20 12 20C13.799 20 15.4871 19.5249 16.9457 18.6934C17.3563 18.4593 17.5616 18.3423 17.7086 18.3503C17.8462 18.3578 17.952 18.4072 18.0463 18.5078C18.1469 18.6152 18.1858 18.8293 18.2637 19.2575L18.7252 21.7958C18.7937 22.1726 18.8279 22.361 18.7711 22.4974C18.7213 22.6167 18.6273 22.7122 18.5087 22.7636C18.3731 22.8225 18.1843 22.791 17.8066 22.7281L16.0853 22.4412C14.4976 22.1766 13.7528 22.0533 13.0067 22.0039C12.3363 21.9596 11.6637 21.9596 10.9933 22.0039C10.2473 22.0533 9.50243 22.1766 7.91469 22.4412L6.19343 22.7281C5.81573 22.791 5.62688 22.8225 5.49132 22.7636C5.37271 22.7122 5.27867 22.6167 5.22892 22.4974C5.17207 22.361 5.20632 22.1726 5.27482 21.7958L5.73633 19.2575Z" fill="currentColor" />
</svg>