<svg xmlns="http://www.w3.org/2000/svg" width="24" height="24" viewBox="0 0 24 24" fill="none">
<path d="M1 1.00006L1.5 1C2.9345 1.00004 4.15068 2.05485 4.35355 3.47493L5.21501 9.50516C5.49335 11.4535 5.63252 12.4277 6.1028 13.1605C6.51723 13.8063 7.10865 14.3192 7.80654 14.6381C8.59847 15.0001 9.58254 15.0001 11.5507 15.0001H16.4214C17.467 15.0001 17.9898 15.0001 18.4368 14.8961C19.7245 14.5967 20.781 13.6803 21.2596 12.4479C21.4257 12.0201 21.4996 11.5025 21.6475 10.4674C21.7324 9.87305 21.7749 9.57586 21.795 9.27985C21.852 8.43905 21.7759 7.59451 21.5693 6.77747C21.4966 6.48983 21.4017 6.20503 21.2118 5.63541L21.0676 5.20274C20.6997 4.09913 20.5158 3.54733 20.1849 3.13167C19.8415 2.70024 19.3858 2.37181 18.8679 2.18245C18.369 2.00001 17.7873 2.00002 16.624 2.00003L14.6352 2.00004C14.1831 2.00004 13.957 2.00005 13.7538 2.02799C12.7673 2.16358 11.9125 2.77973 11.4719 3.67265C11.3811 3.85668 11.3096 4.07112 11.1667 4.5L11 5.00003M21 20C21 21.1046 20.1046 22 19 22C17.8954 22 17 21.1046 17 20C17 18.8954 17.8954 18 19 18M8 8H21.5M11 20C11 21.1046 10.1046 22 9 22C7.89543 22 7 21.1046 7 20C7 18.8954 7.89543 18 9 18C10.1046 18 11 18.8954 11 20Z" stroke="currentColor" stroke-width={2} stroke-linecap="round" stroke-linejoin="round" />
</svg>