<svg xmlns="http://www.w3.org/2000/svg" width="24" height="24" viewBox="0 0 24 24" fill="none">
<path d="M13.1504 1.25C16.5103 1.25 18.1902 1.25049 19.4736 1.9043C20.6026 2.47952 21.5205 3.39744 22.0957 4.52637C22.7497 5.80984 22.75 7.49027 22.75 10.8506L22.75 13.1504C22.75 16.5106 22.7496 18.1912 22.0957 19.4746C21.5204 20.6034 20.6024 21.5215 19.4736 22.0967C18.1903 22.7504 16.5101 22.75 13.1504 22.75L10.8496 22.75C7.48991 22.75 5.80973 22.7504 4.52636 22.0967C3.39754 21.5215 2.47955 20.6034 1.90429 19.4746C1.25034 18.1912 1.25 16.5106 1.25 13.1504L1.25 10.8506C1.25 7.49027 1.25034 5.80984 1.9043 4.52637C2.47954 3.39742 3.39741 2.47953 4.52637 1.9043C5.80976 1.25045 7.48973 1.25 10.8496 1.25L13.1504 1.25ZM7 7C6.44781 7.00002 6.00013 7.44784 6 8L6 16C6 16.5523 6.44773 17 7 17C7.55228 17 8 16.5523 8 16L8 8C7.99987 7.44783 7.55221 7 7 7ZM12 10C11.4478 10 11.0001 10.4478 11 11L11 16C11 16.5523 11.4477 17 12 17C12.5523 17 13 16.5523 13 16L13 11C12.9999 10.4478 12.5522 10 12 10ZM17 8C16.4478 8.00003 16.0001 8.44784 16 9L16 16C16 16.5523 16.4477 17 17 17C17.5523 17 18 16.5523 18 16L18 9C17.9999 8.44783 17.5522 8 17 8Z" fill="currentColor" />
</svg>