<svg xmlns="http://www.w3.org/2000/svg" width="24" height="24" viewBox="0 0 24 24" fill="none">
<path d="M14.3506 4.25C16.5905 4.25 17.7108 4.25058 18.5664 4.68652C19.3189 5.07003 19.931 5.68206 20.3144 6.43457C20.6015 6.9981 20.698 7.67646 20.7314 8.71387L20.7832 8.72949C22.2433 9.14677 23.25 10.4814 23.25 12C23.25 13.5186 22.2433 14.8532 20.7832 15.2705L20.7314 15.2852C20.698 16.3235 20.6017 17.0026 20.3144 17.5664C19.931 18.3189 19.3189 18.931 18.5664 19.3144C17.7108 19.7504 16.5905 19.75 14.3506 19.75L7.65039 19.75C5.41056 19.75 4.29016 19.7502 3.43457 19.3144C2.68206 18.931 2.07003 18.3189 1.68652 17.5664C1.25058 16.7108 1.25 15.5905 1.25 13.3506L1.25 10.6504C1.25 8.41032 1.25063 7.29019 1.68652 6.43457C2.07002 5.68192 2.68192 5.07001 3.43457 4.68652C4.2902 4.25061 5.4103 4.25 7.65039 4.25L14.3506 4.25ZM20.75 10.6504L20.75 13.3506C20.75 13.4607 20.7481 13.5681 20.748 13.6728C21.3549 13.3467 21.75 12.7104 21.75 12C21.75 11.2895 21.3552 10.6522 20.748 10.3262C20.7481 10.4315 20.75 10.5397 20.75 10.6504Z" fill="currentColor" />
</svg>