<svg xmlns="http://www.w3.org/2000/svg" width="24" height="24" viewBox="0 0 24 24" fill="none">
<path d="M7 4.99997H6.5C6.03566 4.99997 5.80349 4.99997 5.60793 5.01923C3.70883 5.20627 2.20631 6.70879 2.01926 8.6079C2 8.80346 2 9.03563 2 9.49997V9.99997V10.5M15 4.99997H15.5C15.9643 4.99997 16.1965 4.99997 16.3921 5.01923C18.2912 5.20627 19.7937 6.70879 19.9807 8.6079C20 8.80346 20 9.03563 20 9.49997V15M20 15L20.643 14.7428C21.7646 14.2942 22.5 13.2079 22.5 12C22.5 10.7921 21.7646 9.70583 20.6431 9.2572L20 8.99997M20 15C20 17.2091 18.2091 19 16 19H15.5H15M7 19H6.5H6C6 19 6 19 6 19C3.79086 19 2 17.2091 2 15C2 15 2 15 2 15V14.5M11 5.99997L9 12H13L11 18" stroke="currentColor" stroke-width={1.5} stroke-linecap="round" stroke-linejoin="round" />
</svg>