<svg xmlns="http://www.w3.org/2000/svg" width="24" height="24" viewBox="0 0 24 24" fill="none">
<path d="M14.3496 4.25C16.5898 4.25 17.7108 4.24958 18.5664 4.68555C19.3189 5.06902 19.931 5.68109 20.3145 6.4336C20.6016 6.99724 20.697 7.67614 20.7305 8.71387L20.7832 8.7295C22.2432 9.14685 23.25 10.4815 23.25 12C23.25 13.5185 22.2432 14.8532 20.7832 15.2705L20.7305 15.2852C20.697 16.3234 20.6017 17.0026 20.3145 17.5664C19.931 18.3189 19.3189 18.931 18.5664 19.3145C17.7108 19.7504 16.5898 19.75 14.3496 19.75L7.65039 19.75C5.41018 19.75 4.28924 19.7504 3.43359 19.3145C2.68109 18.931 2.06901 18.3189 1.68554 17.5664C1.24957 16.7108 1.25 15.5898 1.25 13.3496L1.25 10.6504C1.25 8.41018 1.24957 7.28924 1.68555 6.43359C2.06902 5.68109 2.68109 5.06902 3.43359 4.68555C4.28924 4.24957 5.41018 4.25 7.65039 4.25L14.3496 4.25ZM7 9.25C6.58579 9.25 6.25 9.58579 6.25 10L6.25 14C6.25 14.4142 6.58578 14.75 7 14.75C7.4141 14.7499 7.75 14.4141 7.75 14L7.75 10C7.75 9.58587 7.4141 9.25013 7 9.25ZM20.75 10.6504L20.75 13.3496C20.75 13.4599 20.7481 13.5679 20.748 13.6729C21.3548 13.3467 21.75 12.7103 21.75 12C21.75 11.2896 21.355 10.6522 20.748 10.3262C20.7481 10.4315 20.75 10.5398 20.75 10.6504Z" fill="currentColor" />
</svg>