<svg xmlns="http://www.w3.org/2000/svg" width="24" height="24" viewBox="0 0 24 24" fill="none">
<path d="M14.3506 4.25C16.5905 4.25 17.7108 4.2496 18.5664 4.68555C19.319 5.06904 19.931 5.68194 20.3144 6.43457C20.6014 6.99811 20.698 7.67646 20.7314 8.71387L20.7832 8.72949C22.2433 9.14678 23.25 10.4814 23.25 12C23.25 13.5186 22.2433 14.8532 20.7832 15.2705L20.7314 15.2852C20.698 16.3235 20.6017 17.0026 20.3144 17.5664C19.931 18.3189 19.3189 18.931 18.5664 19.3145C17.7108 19.7504 16.5905 19.75 14.3506 19.75L7.65039 19.75C5.41058 19.75 4.29015 19.7502 3.43457 19.3144C2.68208 18.931 2.07003 18.3188 1.68652 17.5664C1.25055 16.7108 1.25 15.5898 1.25 13.3496L1.25 10.6504C1.25 8.41036 1.25066 7.29019 1.68652 6.43457C2.07002 5.68192 2.68192 5.06904 3.43457 4.68555C4.29015 4.24983 5.41062 4.25 7.65039 4.25L14.3506 4.25ZM11.6348 7.50488C11.4919 7.35472 11.2811 7.28907 11.0781 7.33105C10.8433 7.37986 10.5789 7.76071 10.0508 8.52246L8.04492 11.416C7.70652 11.9041 7.53735 12.1486 7.54687 12.3516C7.55525 12.5282 7.6408 12.6923 7.78125 12.7998C7.94263 12.9233 8.24007 12.9228 8.83398 12.9228L9.24023 12.9228C9.5758 12.9228 9.7438 12.923 9.87207 12.9883C9.98496 13.0458 10.0772 13.1381 10.1348 13.251C10.2 13.3792 10.2002 13.5473 10.2002 13.8828L10.2002 14.9307C10.2002 15.8577 10.2 16.3213 10.3652 16.4951C10.5081 16.6453 10.7189 16.7109 10.9219 16.6689C11.1566 16.6199 11.4212 16.239 11.9492 15.4775L13.9551 12.584C14.2935 12.0959 14.4626 11.8514 14.4531 11.6484C14.4447 11.4719 14.3591 11.3076 14.2187 11.2002C14.0574 11.0767 13.7599 11.0771 13.166 11.0771L12.7598 11.0771C12.4242 11.0771 12.2562 11.0769 12.1279 11.0117C12.015 10.9542 11.9228 10.8619 11.8652 10.749C11.8 10.6207 11.7998 10.4528 11.7998 10.1172L11.7998 9.06933C11.7998 8.14241 11.8 7.67872 11.6348 7.50488ZM20.75 10.6504L20.75 13.3496C20.75 13.4599 20.7481 13.5679 20.748 13.6729C21.3549 13.3467 21.75 12.7104 21.75 12C21.75 11.2895 21.3552 10.6522 20.748 10.3262C20.7481 10.4315 20.75 10.5397 20.75 10.6504Z" fill="currentColor" />
</svg>