<svg xmlns="http://www.w3.org/2000/svg" width="24" height="24" viewBox="0 0 24 24" fill="none">
<path d="M10 5H15.9628C15.9973 5 16.0146 5 16.0292 5.00011C18.2155 5.01608 19.9839 6.78448 19.9999 8.97077C20 8.98538 20 9.00266 20 9.03722V14.3075C20 14.6392 20.335 14.866 20.643 14.7428C21.7646 14.2942 22.5 13.208 22.5 12C22.5 10.7921 21.7646 9.70589 20.6431 9.25727L20 9.00003M2 2.00003L4.99997 5M21 21L19 19M19 19L4.99997 5M19 19H12.5H12M4.99997 5C3.34313 5 2 6.34313 2 7.99997V13.5C2 14.8956 2 15.5933 2.17224 16.1611C2.56004 17.4395 3.56046 18.44 4.83886 18.8278C5.40666 19 6.10444 19 7.5 19H8" stroke="currentColor" stroke-width={1.5} stroke-linecap="round" stroke-linejoin="round" />
</svg>