<svg xmlns="http://www.w3.org/2000/svg" width="24" height="24" viewBox="0 0 24 24" fill="none">
<path d="M14.3501 4.25C16.5903 4.25 17.7112 4.24958 18.5669 4.68555C19.3194 5.06902 19.9315 5.68109 20.3149 6.4336C20.6021 6.99724 20.6975 7.67614 20.731 8.71387L20.7837 8.7295C22.2437 9.14685 23.2505 10.4815 23.2505 12C23.2505 13.5185 22.2437 14.8532 20.7837 15.2705L20.731 15.2852C20.6975 16.3234 20.6022 17.0026 20.3149 17.5664C19.9315 18.3189 19.3194 18.931 18.5669 19.3145C17.7112 19.7504 16.5903 19.75 14.3501 19.75L7.65088 19.75C5.41067 19.75 4.28973 19.7504 3.43408 19.3145C2.68157 18.931 2.0695 18.3189 1.68603 17.5664C1.25006 16.7108 1.25049 15.5898 1.25049 13.3496L1.25049 10.6504C1.25049 8.41018 1.25006 7.28924 1.68603 6.43359C2.0695 5.68109 2.68158 5.06902 3.43408 4.68555C4.28973 4.24957 5.41067 4.25 7.65088 4.25L14.3501 4.25ZM7.00049 9.25C6.58627 9.25 6.25049 9.58579 6.25049 10L6.25049 14C6.25049 14.4142 6.58627 14.75 7.00049 14.75C7.41464 14.7499 7.75049 14.4142 7.75049 14L7.75049 10C7.75049 9.58583 7.41465 9.25007 7.00049 9.25ZM11.0005 9.25C10.5863 9.25 10.2505 9.58579 10.2505 10L10.2505 14C10.2505 14.4142 10.5863 14.75 11.0005 14.75C11.4146 14.7499 11.7505 14.4142 11.7505 14L11.7505 10C11.7505 9.58583 11.4146 9.25007 11.0005 9.25ZM20.7505 10.6504L20.7505 13.3496C20.7505 13.4599 20.7486 13.5679 20.7485 13.6729C21.3553 13.3467 21.7505 12.7103 21.7505 12C21.7505 11.2896 21.3555 10.6522 20.7485 10.3262C20.7486 10.4315 20.7505 10.5398 20.7505 10.6504Z" fill="currentColor" />
</svg>