<svg xmlns="http://www.w3.org/2000/svg" width="24" height="24" viewBox="0 0 24 24" fill="none">
<path d="M10 5H9.5H8.4C6.15979 5 5.03968 5 4.18404 5.43597C3.43139 5.81947 2.81947 6.43139 2.43597 7.18404C2 8.03968 2 9.15979 2 11.4V12.6C2 14.8402 2 15.9603 2.43597 16.816C2.81947 17.5686 3.43139 18.1805 4.18404 18.564C5.03968 19 6.15979 19 8.4 19H13.6C15.8402 19 16.9603 19 17.816 18.564C18.5686 18.1805 19.1805 17.5686 19.564 16.816C20 15.9603 20 14.8402 20 12.6V10.5C20 9.10444 20 8.40666 19.8278 7.83886C19.44 6.56046 18.4395 5.56004 17.1611 5.17224C16.5933 5 15.8956 5 14.5 5H14M7 9.99951V13.9995M11 9.99951V13.9995M15 9.99951V13.9995M20 8.99951L20.6431 9.25675C21.7646 9.70537 22.5 10.7916 22.5 11.9995C22.5 13.2075 21.7646 14.2937 20.643 14.7423L20 14.9995" stroke="currentColor" stroke-width={1.5} stroke-linecap="round" stroke-linejoin="round" />
</svg>