<svg xmlns="http://www.w3.org/2000/svg" width="24" height="24" viewBox="0 0 24 24" fill="none">
<path d="M1.46973 1.46967C1.76262 1.17678 2.23738 1.17678 2.53027 1.46967L21.5303 20.4697L21.582 20.5263C21.8223 20.8209 21.8049 21.2556 21.5303 21.5302C21.2557 21.8048 20.8209 21.8223 20.5264 21.582L20.4697 21.5302L18.6894 19.7499L8.40039 19.7499C7.29277 19.7499 6.41651 19.7509 5.71191 19.6933C4.99862 19.635 4.39486 19.5131 3.84375 19.2324C2.94998 18.777 2.22297 18.05 1.76758 17.1562C1.48681 16.6051 1.36492 16.0013 1.30664 15.288C1.24908 14.5834 1.25 13.7072 1.25 12.5996L1.25 7.99994C1.25 6.46183 2.17602 5.1399 3.50098 4.56147L1.46973 2.53022C1.17683 2.23732 1.17683 1.76256 1.46973 1.46967ZM16.0352 4.24995C18.4675 4.26794 20.4639 6.1126 20.7217 8.48042L20.9219 8.56049C22.3281 9.12304 23.25 10.4854 23.25 11.9999C23.25 13.5145 22.3281 14.8769 20.9219 15.4394C20.1213 15.7596 19.2501 15.1698 19.25 14.3076L19.25 8.97651C19.237 7.20015 17.7998 5.76293 16.0234 5.74995L10 5.74994C9.5858 5.74994 9.25002 5.41414 9.25 4.99994C9.25 4.58573 9.58579 4.24994 10 4.24994L16.0352 4.24995ZM20.75 13.8437C21.3651 13.4421 21.75 12.7537 21.75 11.9999C21.75 11.246 21.3654 10.5567 20.75 10.1552L20.75 13.8437Z" fill="currentColor" />
</svg>