<svg xmlns="http://www.w3.org/2000/svg" width="24" height="24" viewBox="0 0 24 24" fill="none">
<path d="M4 12V9.4C4 7.15979 4 6.03968 4.43597 5.18404C4.81947 4.43139 5.43139 3.81947 6.18404 3.43597C7.03968 3 8.15979 3 10.4 3H14.5C15.8956 3 16.5933 3 17.1611 3.17224C18.4395 3.56004 19.44 4.56046 19.8278 5.83886C20 6.40666 20 7.10444 20 8.5V9M2 15V21M22 15V21M16 12V11.2C16 10.0799 16 9.51984 15.782 9.09202C15.5903 8.71569 15.2843 8.40973 14.908 8.21799C14.4802 8 13.9201 8 12.8 8H11.2C10.0799 8 9.51984 8 9.09202 8.21799C8.71569 8.40973 8.40973 8.71569 8.21799 9.09202C8 9.51984 8 10.0799 8 11.2V12M2 19V15.2C2 14.0799 2 13.5198 2.21799 13.092C2.40973 12.7157 2.71569 12.4097 3.09202 12.218C3.51984 12 4.07989 12 5.2 12H18.8C19.9201 12 20.4802 12 20.908 12.218C21.2843 12.4097 21.5903 12.7157 21.782 13.092C22 13.5198 22 14.0799 22 15.2V19H5.5" stroke="currentColor" stroke-width={2} stroke-linecap="round" stroke-linejoin="round" />
</svg>