<svg xmlns="http://www.w3.org/2000/svg" width="24" height="24" viewBox="0 0 24 24" fill="none">
<path d="M13.9502 1.25C17.0304 1.25 18.5706 1.25016 19.7471 1.84961C20.7818 2.37689 21.6231 3.21816 22.1504 4.25293C22.7498 5.42942 22.75 6.96965 22.75 10.0498V13.9502C22.75 17.0304 22.7498 18.5706 22.1504 19.7471C21.6231 20.7818 20.7818 21.6231 19.7471 22.1504C18.5706 22.7498 17.0304 22.75 13.9502 22.75H10.0498C6.96965 22.75 5.42942 22.7498 4.25293 22.1504C3.21816 21.6231 2.37689 20.7818 1.84961 19.7471C1.25016 18.5706 1.25 17.0304 1.25 13.9502V10.0498C1.25 6.96965 1.25016 5.42942 1.84961 4.25293C2.37689 3.21816 3.21816 2.37689 4.25293 1.84961C5.42942 1.25016 6.96965 1.25 10.0498 1.25H13.9502ZM6 7.25C5.58579 7.25 5.25 7.58579 5.25 8V16C5.25 16.4142 5.58579 16.75 6 16.75H8.75C10.4069 16.75 11.75 15.4069 11.75 13.75C11.75 12.6594 11.1662 11.7078 10.2959 11.1826C10.5807 10.7766 10.75 10.2836 10.75 9.75C10.75 8.36929 9.63071 7.25 8.25 7.25H6ZM16 9.75C14.2051 9.75 12.75 11.2051 12.75 13C12.75 14.1168 13.0292 15.0654 13.623 15.7441C14.2284 16.4359 15.0757 16.75 16 16.75C16.9257 16.75 17.6305 16.4393 18.1035 16.124C18.3386 15.9673 18.5169 15.8093 18.6396 15.6865C18.7011 15.6251 18.7493 15.5719 18.7842 15.5312C18.8016 15.5109 18.8162 15.4932 18.8271 15.4795C18.8325 15.4728 18.837 15.4668 18.8408 15.4619C18.8427 15.4595 18.8442 15.4571 18.8457 15.4551C18.8465 15.4541 18.848 15.453 18.8486 15.4521V15.4512L18.8496 15.4502L18.8926 15.3867C19.089 15.0612 19.0107 14.6335 18.7002 14.4004C18.3895 14.1674 17.9569 14.2116 17.6992 14.4912L17.6504 14.5498V14.5488L17.6533 14.5459V14.5439C17.6517 14.546 17.6496 14.55 17.6455 14.5547C17.6335 14.5687 17.6113 14.5938 17.5791 14.626C17.5143 14.6907 17.4114 14.7827 17.2715 14.876C16.9945 15.0607 16.5743 15.25 16 15.25C15.4244 15.25 15.0216 15.064 14.752 14.7559C14.561 14.5376 14.4004 14.2126 14.3154 13.75H18.5C18.9142 13.75 19.25 13.4142 19.25 13C19.25 11.2051 17.7949 9.75 16 9.75ZM8.75 12.25C9.57843 12.25 10.25 12.9216 10.25 13.75C10.25 14.5784 9.57843 15.25 8.75 15.25H6.75V12.25H8.75ZM16 11.25C16.6977 11.25 17.298 11.6593 17.5791 12.25H14.4209C14.702 11.6593 15.3023 11.25 16 11.25ZM8.25 8.75C8.80228 8.75 9.25 9.19772 9.25 9.75C9.25 10.3023 8.80228 10.75 8.25 10.75H6.75V8.75H8.25ZM14.5 7.25C14.0858 7.25 13.75 7.58579 13.75 8C13.75 8.41421 14.0858 8.75 14.5 8.75H17.5C17.9142 8.75 18.25 8.41421 18.25 8C18.25 7.58579 17.9142 7.25 17.5 7.25H14.5Z" fill="currentColor" />
</svg>