<svg xmlns="http://www.w3.org/2000/svg" width="40" height="40" viewBox="0 0 40 40" fill="none">
<path d="M13.3334 32.5758C14.4311 35.0456 17.2974 36.6667 20.0001 36.6667C22.7028 36.6667 25.5691 35.0456 26.6667 32.5758M20.0001 14.1667V18.3334M20.0001 18.3334V22.5001M20.0001 18.3334H15.8334M20.0001 18.3334H24.1667M30.0001 18.6505V13.3334C30.0001 7.81056 25.5229 3.33341 20.0001 3.33341C14.4772 3.33341 10.0001 7.81056 10.0001 13.3334V18.6505C10.0001 20.04 9.41033 21.3642 8.37753 22.2937L6.53099 23.9556C4.32681 25.9394 5.03004 29.5564 7.81691 30.5698L8.16857 30.6977C15.8114 33.4769 24.1887 33.4769 31.8316 30.6977L32.1832 30.5698C34.9701 29.5564 35.6733 25.9394 33.4692 23.9556L31.6226 22.2937C30.5898 21.3642 30.0001 20.04 30.0001 18.6505Z" stroke="currentColor" stroke-width={2.5} stroke-linecap="round" stroke-linejoin="round" />
</svg>