<svg xmlns="http://www.w3.org/2000/svg" width="40" height="40" viewBox="0 0 40 40" fill="none">
<path d="M13.3334 32.5758C14.4311 35.0455 17.2974 36.6667 20.0001 36.6667C22.7028 36.6667 25.5691 35.0455 26.6667 32.5758M15.8334 18.3333H20.0001H24.1667M30.0001 18.6504V13.3333C30.0001 7.81049 25.5229 3.33333 20.0001 3.33333C14.4772 3.33333 10.0001 7.81049 10.0001 13.3333V18.6504C10.0001 20.0399 9.41033 21.3641 8.37753 22.2936L6.53099 23.9555C4.32682 25.9393 5.03004 29.5563 7.81691 30.5698L8.16857 30.6976C15.8114 33.4769 24.1887 33.4769 31.8316 30.6976L32.1833 30.5698C34.9701 29.5563 35.6734 25.9393 33.4692 23.9555L31.6226 22.2936C30.5898 21.3641 30.0001 20.0399 30.0001 18.6504Z" stroke="currentColor" stroke-width={2.5} stroke-linecap="round" stroke-linejoin="round" />
</svg>