<svg xmlns="http://www.w3.org/2000/svg" width="40" height="40" viewBox="0 0 40 40" fill="none">
<path d="M26.4172 33.4798C25.6276 36.2806 23.0536 38.3332 20.0002 38.3333C16.9467 38.3333 14.3719 36.2807 13.5823 33.4798C17.8283 34.2165 22.1712 34.2165 26.4172 33.4798ZM19.9993 2.08333C26.2124 2.08333 31.2492 7.12016 31.2493 13.3333V16.7825C31.2494 17.9581 31.6899 19.0912 32.4836 19.9583L34.8186 22.5081C36.8603 24.7383 36.0346 28.323 33.2229 29.4349C24.7277 32.7943 15.2719 32.7943 6.77661 29.4349C3.96487 28.323 3.1392 24.7383 5.18091 22.5081L7.51587 19.9583C8.30961 19.0912 8.74917 17.9581 8.74927 16.7825V13.3333C8.74931 7.12031 13.7863 2.08357 19.9993 2.08333ZM25.05 16.6165C24.5619 16.1285 23.7706 16.1284 23.2825 16.6165L18.3333 21.5658L16.717 19.9495C16.2289 19.4616 15.4376 19.4616 14.9495 19.9495C14.4616 20.4377 14.4615 21.229 14.9495 21.7171L17.4495 24.2171C17.6838 24.4515 18.0018 24.5833 18.3333 24.5833C18.6647 24.5833 18.9826 24.4514 19.217 24.2171L25.05 18.3841C25.5382 17.896 25.5382 17.1047 25.05 16.6165Z" fill="currentColor" />
</svg>