<svg xmlns="http://www.w3.org/2000/svg" width="40" height="40" viewBox="0 0 40 40" fill="none">
<path d="M13.3334 32.5758C14.4311 35.0455 17.2974 36.6667 20.0001 36.6667C22.7027 36.6667 25.5691 35.0455 26.6667 32.5758M30.0001 18.6504C30.0001 20.0399 30.5898 21.3641 31.6226 22.2936L33.4692 23.9555C35.6733 25.9393 34.9701 29.5563 32.1832 30.5698L31.8316 30.6976C24.1887 33.4769 15.8114 33.4768 8.16855 30.6976L7.81689 30.5697C5.03001 29.5563 4.3268 25.9393 6.53097 23.9555L8.37751 22.2936C9.41031 21.3641 10.0001 20.0399 10.0001 18.6504V13.3333C10.0001 7.81048 14.4772 3.33333 20.0001 3.33333C24.9551 3.33333 29.0683 6.93714 29.8618 11.6667" stroke="currentColor" stroke-width={2.5} stroke-linecap="round" stroke-linejoin="round" />
</svg>