<svg xmlns="http://www.w3.org/2000/svg" width="40" height="40" viewBox="0 0 40 40" fill="none">
<path d="M26.4175 33.4798C25.6278 36.2806 23.0538 38.3332 20.0005 38.3333C16.947 38.3333 14.3722 36.2807 13.5825 33.4798C17.8286 34.2165 22.1714 34.2165 26.4175 33.4798ZM19.9995 2.08334C26.2127 2.08334 31.2495 7.12017 31.2495 13.3333V16.7826C31.2496 17.9581 31.6901 19.0912 32.4839 19.9583L34.8188 22.5081C36.8605 24.7383 36.0348 28.323 33.2231 29.4349C24.7279 32.7943 15.2721 32.7943 6.77686 29.4349C3.96511 28.323 3.13944 24.7383 5.18115 22.5081L7.51514 19.9583C8.30899 19.0912 8.74941 17.9582 8.74951 16.7826V13.3333C8.74955 7.1203 13.7865 2.08356 19.9995 2.08334ZM20.0005 12.0833C19.3102 12.0833 18.7505 12.643 18.7505 13.3333V17.0833H15.0005C14.3102 17.0833 13.7505 17.643 13.7505 18.3333C13.7505 19.0237 14.3101 19.5833 15.0005 19.5833H18.7505V23.3333C18.7505 24.0237 19.3101 24.5833 20.0005 24.5833C20.6907 24.5831 21.2505 24.0236 21.2505 23.3333V19.5833H25.0005C25.6907 19.5831 26.2505 19.0236 26.2505 18.3333C26.2504 17.6431 25.6906 17.0835 25.0005 17.0833H21.2505V13.3333C21.2504 12.6431 20.6906 12.0835 20.0005 12.0833Z" fill="currentColor" />
</svg>