<svg xmlns="http://www.w3.org/2000/svg" width="40" height="40" viewBox="0 0 40 40" fill="none">
<path d="M13.3333 32.5758C14.431 35.0455 17.2973 36.6667 20 36.6667C22.7027 36.6667 25.569 35.0455 26.6667 32.5758M33.3333 24.1667L31.6225 22.2936C30.5897 21.3641 30 20.0399 30 18.6504V13.3333C30 7.81049 25.5228 3.33334 20 3.33334C17.9554 3.33334 16.0542 3.94692 14.4703 5M5 3.33334L10.8838 9.21709L32.2221 30.5554M36.6667 35L32.2221 30.5554M32.2221 30.5554C32.0923 30.604 31.9617 30.6503 31.8315 30.6976C24.1886 33.4769 15.8113 33.4769 8.16847 30.6976L7.8168 30.5698C5.02993 29.5563 4.32671 25.9393 6.53089 23.9555L8.37743 22.2936C9.41023 21.3641 9.99998 20.0399 9.99998 18.6504V15" stroke="currentColor" stroke-width={2.5} stroke-linecap="round" stroke-linejoin="round" />
</svg>