<svg xmlns="http://www.w3.org/2000/svg" width="40" height="40" viewBox="0 0 40 40" fill="none">
<path d="M20 2.08344C13.7868 2.08344 8.75004 7.12023 8.75004 13.3334V16.7822C8.75004 17.9579 8.30969 19.0911 7.51575 19.9583L5.18123 22.5083C3.13952 24.7385 3.96532 28.3226 6.77706 29.4345C15.2723 32.7939 24.7278 32.7939 33.223 29.4345C36.0348 28.3226 36.8606 24.7385 34.8189 22.5083L32.4843 19.9583C31.6904 19.0911 31.25 17.9579 31.25 16.7822V13.3334C31.25 7.12023 26.2132 2.08344 20 2.08344Z" fill="currentColor" /><path d="M13.583 33.4799C14.3727 36.2808 16.9467 38.3337 20.0002 38.3337C23.0537 38.3337 25.6278 36.2808 26.4174 33.4799C22.1714 34.2166 17.8291 34.2166 13.583 33.4799Z" fill="currentColor" />
</svg>