<svg xmlns="http://www.w3.org/2000/svg" width="40" height="40" viewBox="0 0 40 40" fill="none">
<path d="M26.4169 33.4798C25.6272 36.2807 23.0533 38.3332 19.9999 38.3333C16.9464 38.3333 14.3726 36.2807 13.5829 33.4798C17.8288 34.2164 22.171 34.2165 26.4169 33.4798ZM4.1161 2.44955C4.60424 1.96145 5.39553 1.96145 5.88367 2.44955L37.5507 34.1165L37.6366 34.2113C38.0368 34.7022 38.0082 35.4266 37.5507 35.8841C37.0931 36.3417 36.3688 36.3702 35.8778 35.9701L35.7831 35.8841L30.3339 30.4349C22.6205 32.7498 14.32 32.4181 6.77625 29.4349C3.96457 28.323 3.13886 24.7383 5.18055 22.5081L7.51551 19.9583C8.30929 19.0912 8.74978 17.9581 8.74989 16.7826V13.3333C8.74989 11.9929 8.98383 10.7071 9.41395 9.51498L4.1161 4.21712C3.62798 3.72897 3.62795 2.93769 4.1161 2.44955ZM19.9999 2.08334C26.9033 2.08344 32.4998 7.67988 32.4999 14.5833V18.0326C32.5 18.8957 32.8233 19.728 33.4061 20.3646L35.7401 22.9144L35.8222 23.013C36.2003 23.521 36.14 24.243 35.663 24.68C35.1538 25.1462 34.3625 25.1111 33.8964 24.6019L31.5624 22.0521C30.5576 20.9545 30 19.5206 29.9999 18.0326V14.5833C29.9998 9.06059 25.5226 4.58344 19.9999 4.58334C18.3448 4.58334 16.7869 4.98449 15.4149 5.69369C14.8017 6.01068 14.0474 5.77067 13.7304 5.15755C13.4134 4.54436 13.6534 3.79004 14.2665 3.47298C15.985 2.58459 17.936 2.08334 19.9999 2.08334Z" fill="currentColor" />
</svg>