<svg xmlns="http://www.w3.org/2000/svg" width="40" height="40" viewBox="0 0 40 40" fill="none">
<path d="M26.4172 33.4798C25.6276 36.2806 23.0536 38.3332 20.0002 38.3333C16.9467 38.3333 14.3719 36.2807 13.5823 33.4798C17.8283 34.2165 22.1712 34.2165 26.4172 33.4798ZM19.9993 2.08333C26.2124 2.08333 31.2492 7.12017 31.2493 13.3333V16.7826C31.2494 17.9581 31.6899 19.0912 32.4836 19.9583L34.8186 22.5081C36.8603 24.7383 36.0346 28.323 33.2229 29.4349C24.7277 32.7943 15.2719 32.7943 6.77661 29.4349C3.96487 28.323 3.1392 24.7383 5.18091 22.5081L7.51587 19.9583C8.30961 19.0912 8.74917 17.9581 8.74927 16.7826V13.3333C8.74931 7.12032 13.7863 2.08358 19.9993 2.08333ZM15.0002 17.0833C14.3099 17.0833 13.7503 17.643 13.7502 18.3333C13.7502 19.0237 14.3099 19.5833 15.0002 19.5833H25.0002L25.1282 19.5765C25.7583 19.5123 26.2502 18.9804 26.2502 18.3333C26.2502 17.6863 25.7582 17.1544 25.1282 17.0902L25.0002 17.0833H15.0002Z" fill="currentColor" />
</svg>