<svg xmlns="http://www.w3.org/2000/svg" width="40" height="40" viewBox="0 0 40 40" fill="none">
<path d="M13.3334 32.5759C14.4311 35.0456 17.2974 36.6668 20.0001 36.6668C22.7027 36.6668 25.5691 35.0456 26.6667 32.5759M30.0001 18.6505C30.0001 20.04 30.5898 21.3642 31.6226 22.2937L33.4692 23.9556C35.6733 25.9394 34.9701 29.5564 32.1832 30.5699L31.8316 30.6977C24.1887 33.477 15.8114 33.477 8.16855 30.6977L7.81689 30.5699C5.03001 29.5564 4.3268 25.9394 6.53097 23.9556L8.37751 22.2937C9.41031 21.3642 10.0001 20.04 10.0001 18.6505V13.3334C10.0001 7.81059 14.4772 3.33344 20.0001 3.33344C24.9551 3.33344 29.0683 6.93725 29.8618 11.6668M15.8334 20.8334L18.3334 23.3334L24.1667 17.5001" stroke="currentColor" stroke-width={2.5} stroke-linecap="round" stroke-linejoin="round" />
</svg>