<svg xmlns="http://www.w3.org/2000/svg" width="24" height="24" viewBox="0 0 24 24" fill="none">
<path d="M13.1504 1.25C16.5103 1.25 18.1902 1.25042 19.4736 1.9043C20.6026 2.47954 21.5205 3.39739 22.0957 4.52637C22.7496 5.80977 22.75 7.48965 22.75 10.8496V13.1504C22.75 16.5103 22.7496 18.1902 22.0957 19.4736C21.5205 20.6026 20.6026 21.5205 19.4736 22.0957C18.1902 22.7496 16.5103 22.75 13.1504 22.75H10.8496C7.48965 22.75 5.80977 22.7496 4.52637 22.0957C3.39739 21.5205 2.47954 20.6026 1.9043 19.4736C1.25042 18.1902 1.25 16.5103 1.25 13.1504V10.8496C1.25 7.48965 1.25042 5.80977 1.9043 4.52637C2.47954 3.39739 3.39739 2.47954 4.52637 1.9043C5.80977 1.25042 7.48965 1.25 10.8496 1.25H13.1504ZM11.6279 4.73145C11.0664 4.7931 10.5568 5.08918 10.2256 5.54688C9.97009 5.9001 9.9025 6.29995 9.87402 6.61035C9.84514 6.92551 9.8457 7.31904 9.8457 7.75098V10.3867L7.44434 9.19531L7.35059 9.1543C6.87618 8.97607 6.33467 9.18275 6.10449 9.64648C5.85899 10.1412 6.06099 10.7408 6.55566 10.9863L8.84668 12.123L6.44824 13.7119C5.98775 14.0167 5.86123 14.6371 6.16602 15.0977C6.47086 15.5581 7.09126 15.6837 7.55176 15.3789L9.8457 13.8604V16.249C9.8457 16.681 9.84514 17.0745 9.87402 17.3896C9.9025 17.7 9.97009 18.0999 10.2256 18.4531C10.5568 18.9108 11.0664 19.2069 11.6279 19.2686C12.0614 19.3161 12.4426 19.1776 12.7266 19.0488C13.0147 18.9182 13.3561 18.7232 13.7314 18.5098L15.0488 17.7598C15.4321 17.5418 15.7804 17.3448 16.0439 17.1611C16.3024 16.981 16.622 16.7214 16.8027 16.3184C17.0361 15.7979 17.0361 15.2021 16.8027 14.6816C16.622 14.2786 16.3024 14.019 16.0439 13.8389C15.7804 13.6552 15.4321 13.4582 15.0488 13.2402L12.8682 12L15.0488 10.7598C15.4321 10.5418 15.7804 10.3448 16.0439 10.1611C16.3024 9.98099 16.622 9.72141 16.8027 9.31836C17.0361 8.79788 17.0361 8.20212 16.8027 7.68164C16.622 7.27859 16.3024 7.01901 16.0439 6.83887C15.7804 6.65522 15.4321 6.45822 15.0488 6.24023L13.7314 5.49023C13.3561 5.27676 13.0147 5.08184 12.7266 4.95117C12.4426 4.82244 12.0614 4.6839 11.6279 4.73145ZM14.0605 14.9785C14.4779 15.2159 14.7301 15.3608 14.9004 15.4795C14.9099 15.4861 14.9176 15.4941 14.9258 15.5C14.9176 15.5059 14.9099 15.5139 14.9004 15.5205C14.7301 15.6392 14.4779 15.7841 14.0605 16.0215L12.7432 16.7705C12.3333 17.0036 12.0853 17.1437 11.9004 17.2275C11.8897 17.2324 11.8785 17.2342 11.8691 17.2383C11.8681 17.2286 11.8662 17.2181 11.8652 17.207C11.8467 17.0049 11.8457 16.7203 11.8457 16.249V13.7188L14.0605 14.9785ZM11.9004 6.77246C12.0853 6.85629 12.3333 6.9964 12.7432 7.22949L14.0605 7.97852C14.4779 8.2159 14.7301 8.36081 14.9004 8.47949C14.9099 8.4861 14.9176 8.49409 14.9258 8.5C14.9176 8.50591 14.9099 8.5139 14.9004 8.52051C14.7301 8.63919 14.4779 8.7841 14.0605 9.02148L11.8457 10.2803V7.75098C11.8457 7.27972 11.8467 6.99511 11.8652 6.79297C11.8663 6.78155 11.8681 6.77067 11.8691 6.76074C11.8786 6.76484 11.8895 6.76754 11.9004 6.77246Z" fill="currentColor" />
</svg>