<svg xmlns="http://www.w3.org/2000/svg" width="24" height="24" viewBox="0 0 24 24" fill="none">
<path d="M10.8462 12V7.75068C10.8462 6.84711 10.8462 6.39533 11.036 6.13296C11.2016 5.90409 11.4563 5.75594 11.7371 5.72514C12.059 5.68983 12.4517 5.91318 13.2372 6.35989L13.332 6.41381C14.5333 7.09706 15.1339 7.43868 15.3346 7.88635C15.5097 8.27673 15.5097 8.72327 15.3346 9.11365C15.1339 9.56132 14.5333 9.90294 13.332 10.5862L10.8462 12ZM10.8462 12V16.2493C10.8462 17.1529 10.8462 17.6047 11.036 17.867C11.2016 18.0959 11.4563 18.2441 11.7371 18.2749C12.059 18.3102 12.4517 18.0868 13.2372 17.6401L13.332 17.5862C14.5333 16.9029 15.1339 16.5613 15.3346 16.1137C15.5097 15.7233 15.5097 15.2767 15.3346 14.8863C15.1339 14.4387 14.5333 14.0971 13.332 13.4138L10.8462 12ZM10.8462 12L7 10.0909M10.8462 12L7 14.5455M9.5 2H9C8.07116 2 7.60674 2 7.21684 2.05133C4.52444 2.40579 2.40579 4.52444 2.05133 7.21684C2 7.60674 2 8.07116 2 9V12.4C2 15.7603 2 17.4405 2.65396 18.7239C3.2292 19.8529 4.14708 20.7708 5.27606 21.346C6.55953 22 8.23969 22 11.6 22H12.4C15.7603 22 17.4405 22 18.7239 21.346C19.8529 20.7708 20.7708 19.8529 21.346 18.7239C22 17.4405 22 15.7603 22 12.4V9C22 8.07116 22 7.60674 21.9487 7.21684C21.5942 4.52444 19.4756 2.40579 16.7832 2.05133C16.3933 2 15.9288 2 15 2H14.5" stroke="currentColor" stroke-width={2} stroke-linecap="round" stroke-linejoin="round" />
</svg>