<svg xmlns="http://www.w3.org/2000/svg" width="24" height="24" viewBox="0 0 24 24" fill="none">
<path opacity={0.32} d="M11.45 1.25C8.92976 1.25 7.66965 1.25 6.70704 1.74047C5.86031 2.1719 5.1719 2.86031 4.74047 3.70704C4.25 4.66965 4.25 5.92976 4.25 8.45V15.55C4.25 18.0702 4.25 19.3304 4.74047 20.293C5.1719 21.1397 5.86031 21.8281 6.70704 22.2595C7.66965 22.75 8.92976 22.75 11.45 22.75H12.55C15.0702 22.75 16.3304 22.75 17.293 22.2595C18.1397 21.8281 18.8281 21.1397 19.2595 20.293C19.75 19.3304 19.75 18.0702 19.75 15.55V8.45C19.75 5.92976 19.75 4.66965 19.2595 3.70704C18.8281 2.86031 18.1397 2.1719 17.293 1.74047C16.3304 1.25 15.0702 1.25 12.55 1.25H11.45Z" fill="currentColor" /><path d="M4.25 18C2.45507 18 1 16.5449 1 14.75V9.25C1 7.45507 2.45507 6 4.25 6V18ZM19.75 6C21.5449 6 23 7.45507 23 9.25V14.75C23 16.5449 21.5449 18 19.75 18V6ZM11 14.25C11.4142 14.25 11.75 14.5858 11.75 15C11.75 15.4142 11.4142 15.75 11 15.75H9C8.58579 15.75 8.25 15.4142 8.25 15C8.25 14.5858 8.58579 14.25 9 14.25H11ZM15 10.25C15.4142 10.25 15.75 10.5858 15.75 11C15.75 11.4142 15.4142 11.75 15 11.75H9C8.58579 11.75 8.25 11.4142 8.25 11C8.25 10.5858 8.58579 10.25 9 10.25H15ZM15 6.25C15.4142 6.25 15.75 6.58579 15.75 7C15.75 7.41421 15.4142 7.75 15 7.75H9C8.58579 7.75 8.25 7.41421 8.25 7C8.25 6.58579 8.58579 6.25 9 6.25H15Z" fill="currentColor" />
</svg>