<svg xmlns="http://www.w3.org/2000/svg" width="24" height="24" viewBox="0 0 24 24" fill="none">
<path d="M12.75 1.25C15.55 1.25 16.95 1.25013 18.0195 1.79492C18.9603 2.27429 19.7257 3.03966 20.2051 3.98047C20.7499 5.04998 20.75 6.45005 20.75 9.25V21.9189C20.75 22.3476 20.7504 22.5623 20.6602 22.6914C20.5814 22.8041 20.4592 22.8793 20.3232 22.8994C20.1674 22.9224 19.9752 22.8264 19.5918 22.6348L17.7246 21.7012C15.6259 20.6518 14.5762 20.1265 13.4756 19.9199C12.5006 19.737 11.4994 19.737 10.5244 19.9199C9.42377 20.1265 8.37406 20.6518 6.27539 21.7012L4.4082 22.6348C4.02484 22.8264 3.83257 22.9224 3.67676 22.8994C3.54076 22.8793 3.41865 22.8041 3.33984 22.6914C3.24957 22.5623 3.25 22.3476 3.25 21.9189V9.25C3.25 6.45005 3.25013 5.04998 3.79492 3.98047C4.27429 3.03966 5.03966 2.27429 5.98047 1.79492C7.04998 1.25013 8.45005 1.25 11.25 1.25H12.75ZM9 10C8.44772 10 8 10.4477 8 11C8 11.5523 8.44772 12 9 12H15C15.5523 12 16 11.5523 16 11C16 10.4477 15.5523 10 15 10H9Z" fill="currentColor" />
</svg>