<svg xmlns="http://www.w3.org/2000/svg" width="24" height="24" viewBox="0 0 24 24" fill="none">
<path opacity={0.4} d="M18 1V4M18 4V7M18 4H15M18 4H21M8 8H14M8 12H12M8 16H10" stroke="currentColor" stroke-width={1.5} stroke-linecap="round" stroke-linejoin="round" /><path d="M11.5 4H11H10.4C8.15979 4 7.03968 4 6.18404 4.43597C5.43139 4.81947 4.81947 5.43139 4.43597 6.18404C4 7.03968 4 8.15979 4 10.4V15.6C4 17.8402 4 18.9603 4.43597 19.816C4.81947 20.5686 5.43139 21.1805 6.18404 21.564C7.03968 22 8.15979 22 10.4 22H11.6C13.8402 22 14.9603 22 15.816 21.564C16.5686 21.1805 17.1805 20.5686 17.564 19.816C18 18.9603 18 17.8402 18 15.6V10.5" stroke="currentColor" stroke-width={1.5} stroke-linecap="round" stroke-linejoin="round" />
</svg>