<svg xmlns="http://www.w3.org/2000/svg" width="24" height="24" viewBox="0 0 24 24" fill="none">
<path d="M14.3496 1.25C16.5898 1.25 17.7108 1.24957 18.5664 1.68555C19.3189 2.06902 19.931 2.68109 20.3145 3.43359C20.7504 4.28924 20.75 5.41018 20.75 7.65039V17C20.75 17.8934 20.7541 18.4497 20.6592 18.9268C20.2844 20.811 18.811 22.2844 16.9268 22.6592C16.4497 22.7541 15.8934 22.75 15 22.75H6.5C4.70507 22.75 3.25 21.2949 3.25 19.5V7.65039C3.25 5.41018 3.24957 4.28924 3.68555 3.43359C4.06902 2.68109 4.68109 2.06902 5.43359 1.68555C6.28924 1.24957 7.41018 1.25 9.65039 1.25H14.3496ZM6.5 17.75C5.5335 17.75 4.75 18.5335 4.75 19.5C4.75 20.4665 5.5335 21.25 6.5 21.25H15C15.965 21.25 16.3381 21.2463 16.6338 21.1875C17.923 20.9311 18.9311 19.923 19.1875 18.6338C19.2278 18.431 19.241 18.1917 19.2461 17.75H6.5ZM9.25 6.25C8.83579 6.25 8.5 6.58579 8.5 7C8.5 7.41421 8.83579 7.75 9.25 7.75H14.75C15.1642 7.75 15.5 7.41421 15.5 7C15.5 6.58579 15.1642 6.25 14.75 6.25H9.25Z" fill="currentColor" />
</svg>