<svg xmlns="http://www.w3.org/2000/svg" width="24" height="24" viewBox="0 0 24 24" fill="none">
<path opacity={0.32} d="M8.45 1.25C5.92976 1.25 4.66965 1.25 3.70704 1.74047C2.86031 2.1719 2.1719 2.86031 1.74047 3.70704C1.25 4.66965 1.25 5.92976 1.25 8.45V15.55C1.25 18.0702 1.25 19.3304 1.74047 20.293C2.1719 21.1397 2.86031 21.8281 3.70704 22.2595C4.66965 22.75 5.92976 22.75 8.45 22.75H9.55C12.0702 22.75 13.3304 22.75 14.293 22.2595C15.1397 21.8281 15.8281 21.1397 16.2595 20.293C16.75 19.3304 16.75 18.0702 16.75 15.55V8.45C16.75 5.92976 16.75 4.66965 16.2595 3.70704C15.8281 2.86031 15.1397 2.1719 14.293 1.74047C13.3304 1.25 12.0702 1.25 9.55 1.25H8.45Z" fill="currentColor" /><path d="M19 5.25C19.4142 5.25 19.75 5.58579 19.75 6V18C19.75 18.4142 19.4142 18.75 19 18.75C18.5858 18.75 18.25 18.4142 18.25 18V6C18.25 5.58579 18.5858 5.25 19 5.25ZM22 7.25C22.4142 7.25 22.75 7.58579 22.75 8V16C22.75 16.4142 22.4142 16.75 22 16.75C21.5858 16.75 21.25 16.4142 21.25 16V8C21.25 7.58579 21.5858 7.25 22 7.25ZM8 14.25C8.41421 14.25 8.75 14.5858 8.75 15C8.75 15.4142 8.41421 15.75 8 15.75H6C5.58579 15.75 5.25 15.4142 5.25 15C5.25 14.5858 5.58579 14.25 6 14.25H8ZM12.0771 10.2539C12.4551 10.2925 12.75 10.6118 12.75 11C12.75 11.3882 12.4551 11.7075 12.0771 11.7461L12 11.75H6C5.58579 11.75 5.25 11.4142 5.25 11C5.25 10.5858 5.58579 10.25 6 10.25H12L12.0771 10.2539ZM12 6.25C12.4142 6.25 12.75 6.58579 12.75 7C12.75 7.41421 12.4142 7.75 12 7.75H6C5.58579 7.75 5.25 7.41421 5.25 7C5.25 6.58579 5.58579 6.25 6 6.25H12Z" fill="currentColor" />
</svg>