<svg xmlns="http://www.w3.org/2000/svg" width="24" height="24" viewBox="0 0 24 24" fill="none">
<path opacity={0.32} d="M3.25 9.65V16.35C3.25 18.5902 3.25 19.7103 3.68597 20.566C4.06947 21.3186 4.68139 21.9305 5.43404 22.314C6.28969 22.75 7.40979 22.75 9.65 22.75H12.35C14.5902 22.75 15.7103 22.75 16.566 22.314C17.3186 21.9305 17.9305 21.3186 18.314 20.566C18.75 19.7103 18.75 18.5902 18.75 16.35V8H14V3.25H9.65C7.40979 3.25 6.28969 3.25 5.43404 3.68597C4.68139 4.06947 4.06947 4.68139 3.68597 5.43404C3.25 6.28969 3.25 7.40979 3.25 9.65Z" fill="currentColor" /><path d="M10 17.25C10.4142 17.25 10.75 17.5858 10.75 18C10.75 18.4142 10.4142 18.75 10 18.75H7C6.58579 18.75 6.25 18.4142 6.25 18C6.25 17.5858 6.58579 17.25 7 17.25H10ZM13 13.25C13.4142 13.25 13.75 13.5858 13.75 14C13.75 14.4142 13.4142 14.75 13 14.75H7C6.58579 14.75 6.25 14.4142 6.25 14C6.25 13.5858 6.58579 13.25 7 13.25H13ZM9 9.25C9.41421 9.25 9.75 9.58579 9.75 10C9.75 10.4142 9.41421 10.75 9 10.75H7C6.58579 10.75 6.25 10.4142 6.25 10C6.25 9.58579 6.58579 9.25 7 9.25H9ZM17.7998 1C18.9199 1 19.4804 0.999786 19.9082 1.21777C20.2845 1.40951 20.5905 1.71554 20.7822 2.0918C21.0002 2.51962 21 3.08009 21 4.2002V5.7998C21 6.91991 21.0002 7.48038 20.7822 7.9082C20.5905 8.28446 20.2845 8.59049 19.9082 8.78223C19.4804 9.00021 18.9199 9 17.7998 9H16.2002C15.0801 9 14.5196 9.00021 14.0918 8.78223C13.7155 8.59049 13.4095 8.28446 13.2178 7.9082C12.9998 7.48038 13 6.91991 13 5.7998V4.2002C13 3.08009 12.9998 2.51962 13.2178 2.0918C13.4095 1.71554 13.7155 1.40951 14.0918 1.21777C14.5196 0.999786 15.0801 1 16.2002 1H17.7998ZM17 2.25C16.5858 2.25 16.25 2.58579 16.25 3V4.25H15C14.5858 4.25 14.25 4.58579 14.25 5C14.25 5.41421 14.5858 5.75 15 5.75H16.25V7C16.25 7.41421 16.5858 7.75 17 7.75C17.4142 7.75 17.75 7.41421 17.75 7V5.75H19C19.4142 5.75 19.75 5.41421 19.75 5C19.75 4.58579 19.4142 4.25 19 4.25H17.75V3C17.75 2.58579 17.4142 2.25 17 2.25Z" fill="currentColor" />
</svg>