<svg xmlns="http://www.w3.org/2000/svg" width="24" height="24" viewBox="0 0 24 24" fill="none">
<path d="M9.90039 3.25C10.4602 3.25 10.7402 3.25041 10.9541 3.35938C11.1421 3.45521 11.2948 3.60793 11.3906 3.7959C11.4996 4.00976 11.5 4.28982 11.5 4.84961V5.7002C11.5 7.38022 11.5002 8.22059 11.8271 8.8623C12.1147 9.42653 12.5735 9.88528 13.1377 10.1729C13.7794 10.4998 14.6198 10.5 16.2998 10.5H17.1504C17.7102 10.5 17.9902 10.5004 18.2041 10.6094C18.3921 10.7052 18.5448 10.8579 18.6406 11.0459C18.7496 11.2598 18.75 11.5398 18.75 12.0996V16.3496C18.75 18.5898 18.7504 19.7108 18.3145 20.5664C17.931 21.3189 17.3189 21.931 16.5664 22.3145C15.7108 22.7504 14.5898 22.75 12.3496 22.75H9.65039C7.41018 22.75 6.28924 22.7504 5.43359 22.3145C4.68109 21.931 4.06902 21.3189 3.68555 20.5664C3.24957 19.7108 3.25 18.5898 3.25 16.3496V9.65039C3.25 7.41018 3.24957 6.28924 3.68555 5.43359C4.06902 4.68109 4.68109 4.06902 5.43359 3.68555C6.28924 3.24957 7.41018 3.25 9.65039 3.25H9.90039ZM7 17.25C6.58579 17.25 6.25 17.5858 6.25 18C6.25 18.4142 6.58579 18.75 7 18.75H10C10.4142 18.75 10.75 18.4142 10.75 18C10.75 17.5858 10.4142 17.25 10 17.25H7ZM7 13.25C6.58579 13.25 6.25 13.5858 6.25 14C6.25 14.4142 6.58579 14.75 7 14.75H13C13.4142 14.75 13.75 14.4142 13.75 14C13.75 13.5858 13.4142 13.25 13 13.25H7ZM7 9.25C6.58579 9.25 6.25 9.58579 6.25 10C6.25 10.4142 6.58579 10.75 7 10.75H9C9.41421 10.75 9.75 10.4142 9.75 10C9.75 9.58579 9.41421 9.25 9 9.25H7ZM17.7998 1C18.9199 1 19.4804 0.999786 19.9082 1.21777C20.2845 1.40951 20.5905 1.71554 20.7822 2.0918C21.0002 2.51962 21 3.08009 21 4.2002V5.7998C21 6.91991 21.0002 7.48038 20.7822 7.9082C20.5905 8.28446 20.2845 8.59049 19.9082 8.78223C19.4804 9.00021 18.9199 9 17.7998 9H16.2002C15.0801 9 14.5196 9.00021 14.0918 8.78223C13.7155 8.59049 13.4095 8.28446 13.2178 7.9082C12.9998 7.48038 13 6.91991 13 5.7998V4.2002C13 3.08009 12.9998 2.51962 13.2178 2.0918C13.4095 1.71554 13.7155 1.40951 14.0918 1.21777C14.5196 0.999786 15.0801 1 16.2002 1H17.7998ZM17 2.25C16.5858 2.25 16.25 2.58579 16.25 3V4.25H15C14.5858 4.25 14.25 4.58579 14.25 5C14.25 5.41421 14.5858 5.75 15 5.75H16.25V7C16.25 7.41421 16.5858 7.75 17 7.75C17.4142 7.75 17.75 7.41421 17.75 7V5.75H19C19.4142 5.75 19.75 5.41421 19.75 5C19.75 4.58579 19.4142 4.25 19 4.25H17.75V3C17.75 2.58579 17.4142 2.25 17 2.25Z" fill="currentColor" />
</svg>