<svg xmlns="http://www.w3.org/2000/svg" width="24" height="24" viewBox="0 0 24 24" fill="none">
<path d="M4 13V10.4C4 8.15979 4 7.03968 4.43597 6.18404C4.81947 5.43139 5.43139 4.81947 6.18404 4.43597C7.03968 4 8.15979 4 10.4 4H11.6C13.8402 4 14.9603 4 15.816 4.43597C16.5686 4.81947 17.1805 5.43139 17.564 6.18404C18 7.03968 18 8.15979 18 10.4V22L15.7629 20.7217C14.0269 19.7297 13.1589 19.2336 12.237 19.0394C11.4213 18.8675 10.5787 18.8675 9.76298 19.0394C8.84113 19.2336 7.97311 19.7297 6.23707 20.7217L4 22V17M21 19V8C21 7.07116 21 6.60674 20.9487 6.21684C20.5942 3.52444 18.4756 1.40579 15.7832 1.05133C15.3933 1 14.9288 1 14 1H10C8.34315 1 7 2.34315 7 4" stroke="currentColor" stroke-width={2} stroke-linecap="round" stroke-linejoin="round" />
</svg>