<svg xmlns="http://www.w3.org/2000/svg" width="24" height="24" viewBox="0 0 24 24" fill="none">
<path d="M9.59961 1.25C10.7072 1.25 11.5835 1.24909 12.2881 1.30664C13.0014 1.36492 13.6051 1.48682 14.1563 1.76758C15.05 2.22298 15.777 2.94998 16.2324 3.84375C16.5132 4.39487 16.6351 4.99862 16.6934 5.71192C16.7509 6.41651 16.75 7.29277 16.75 8.40039V15.5996C16.75 16.7072 16.7509 17.5835 16.6934 18.2881C16.6351 19.0014 16.5132 19.6051 16.2324 20.1562C15.777 21.05 15.05 21.777 14.1563 22.2324C13.6051 22.5132 13.0014 22.6351 12.2881 22.6934C11.5835 22.7509 10.7072 22.75 9.59961 22.75H8.40039C7.29277 22.75 6.41651 22.7509 5.71192 22.6934C4.99862 22.6351 4.39487 22.5132 3.84375 22.2324C2.94998 21.777 2.22298 21.05 1.76758 20.1562C1.48682 19.6051 1.36492 19.0014 1.30664 18.2881C1.24909 17.5835 1.25 16.7072 1.25 15.5996V8.40039C1.25 7.29277 1.24909 6.41651 1.30664 5.71192C1.36492 4.99862 1.48682 4.39487 1.76758 3.84375C2.22298 2.94998 2.94998 2.22298 3.84375 1.76758C4.39487 1.48682 4.99862 1.36492 5.71192 1.30664C6.41651 1.24909 7.29277 1.25 8.40039 1.25H9.59961ZM19 5.25C19.4142 5.25 19.75 5.58579 19.75 6V18C19.75 18.4142 19.4142 18.75 19 18.75C18.5858 18.75 18.25 18.4142 18.25 18V6C18.25 5.58579 18.5858 5.25 19 5.25ZM22 7.25C22.4142 7.25 22.75 7.58579 22.75 8V16C22.75 16.4142 22.4142 16.75 22 16.75C21.5858 16.75 21.25 16.4142 21.25 16V8C21.25 7.58579 21.5858 7.25 22 7.25ZM6 14.25C5.58579 14.25 5.25 14.5858 5.25 15C5.25 15.4142 5.58579 15.75 6 15.75H8L8.07715 15.7461C8.45512 15.7075 8.75 15.3882 8.75 15C8.75 14.6118 8.45512 14.2925 8.07715 14.2539L8 14.25H6ZM6 10.25C5.58579 10.25 5.25 10.5858 5.25 11C5.25 11.4142 5.58579 11.75 6 11.75H12L12.0771 11.7461C12.4551 11.7075 12.75 11.3882 12.75 11C12.75 10.6118 12.4551 10.2925 12.0771 10.2539L12 10.25H6ZM6 6.25C5.58579 6.25 5.25 6.58579 5.25 7C5.25 7.41421 5.58579 7.75 6 7.75H12C12.4142 7.75 12.75 7.41421 12.75 7C12.75 6.58579 12.4142 6.25 12 6.25H6Z" fill="currentColor" />
</svg>