<svg xmlns="http://www.w3.org/2000/svg" width="24" height="24" viewBox="0 0 24 24" fill="none">
<path d="M21 18.4999C21.5523 18.4999 22 18.9476 22 19.4999C21.9998 20.052 21.5522 20.4999 21 20.4999C19.035 20.4999 17.6371 20.624 16.3877 20.9647C15.149 21.3026 13.9982 21.8696 12.5547 22.8319C12.2189 23.0557 11.7811 23.0557 11.4453 22.8319C10.0018 21.8696 8.85097 21.3026 7.6123 20.9647C6.36292 20.624 4.96502 20.4999 3 20.4999C2.44783 20.4999 2.00019 20.052 2 19.4999C2 18.9476 2.44772 18.4999 3 18.4999C5.03479 18.4999 6.6372 18.6259 8.1377 19.0351C9.46636 19.3974 10.6708 19.9685 12 20.8065C13.3292 19.9685 14.5336 19.3974 15.8623 19.0351C17.3628 18.6259 18.9652 18.4999 21 18.4999ZM21.1504 1.24209C21.712 1.24435 21.9931 1.24535 22.2061 1.35439C22.3939 1.45079 22.546 1.60361 22.6416 1.79189C22.7499 2.00532 22.75 2.28678 22.75 2.84951V11.8065C22.75 13.3969 22.7497 14.1922 22.46 14.8026C22.1883 15.3749 21.8285 15.7706 21.2842 16.0946C20.7035 16.4401 19.7866 16.5266 17.9531 16.6991C17.5378 16.7382 17.124 16.7911 16.7129 16.8632C15.2943 17.1119 13.9979 17.6069 12.4053 18.6308L12 18.8915L11.5947 18.6308C10.0021 17.6069 8.70567 17.1119 7.28711 16.8632C6.87603 16.7911 6.46224 16.7382 6.04688 16.6991C4.21341 16.5266 3.29647 16.4401 2.71582 16.0946C2.17146 15.7706 1.81165 15.3749 1.54004 14.8026C1.25034 14.1922 1.25 13.3969 1.25 11.8065V2.84951C1.25 2.28678 1.25013 2.00532 1.3584 1.79189C1.45404 1.60361 1.60605 1.45079 1.79395 1.35439C2.00688 1.24535 2.28797 1.24435 2.84961 1.24209C4.42159 1.23576 5.9998 1.25719 7.5459 1.52822C7.90165 1.59059 8.25037 1.66733 8.5957 1.75966C9.2662 1.93894 9.60157 2.0284 10.0752 2.3915C10.4184 2.65466 10.8559 3.22437 11.0215 3.62392C11.25 4.17542 11.25 4.68205 11.25 5.69521V9.9999C11.2502 10.4139 11.5859 10.7499 12 10.7499C12.4141 10.7499 12.7498 10.4139 12.75 9.9999V5.69521C12.75 4.68205 12.75 4.17542 12.9785 3.62392C13.1441 3.22437 13.5816 2.65466 13.9248 2.3915C14.3984 2.0284 14.7338 1.93894 15.4043 1.75966C15.7496 1.66733 16.0984 1.59059 16.4541 1.52822C18.0002 1.25719 19.5784 1.23576 21.1504 1.24209Z" fill="currentColor" />
</svg>