<svg xmlns="http://www.w3.org/2000/svg" width="24" height="24" viewBox="0 0 24 24" fill="none">
<path d="M12.4004 7.74284e-05C14.2857 7.6123e-05 15.435 -0.00948042 16.4004 0.262773C18.7442 0.923897 20.5762 2.75587 21.2373 5.09969C21.5096 6.06503 21.5 7.21441 21.5 9.09969V19.0001C21.5 19.5524 21.0523 20.0001 20.5 20.0001C19.9477 20.0001 19.5 19.5524 19.5 19.0001V9.09969C19.5 7.07904 19.4907 6.27467 19.3125 5.64266C18.8403 3.96848 17.5316 2.6598 15.8574 2.18758C15.2254 2.00933 14.4211 2.00008 12.4004 2.00008C11.0305 2.00008 10.5514 2.00922 10.1855 2.11238C9.51077 2.3027 8.93519 2.7198 8.54395 3.27742C9.2095 3.25092 10.009 3.25008 11 3.25008C13.5647 3.25008 14.8475 3.24978 15.8438 3.70906C16.9247 4.20746 17.7926 5.07538 18.291 6.15633C18.7503 7.15259 18.75 8.43539 18.75 11.0001V21.9141C18.75 22.3667 18.7504 22.5934 18.6553 22.7247C18.5723 22.8391 18.4442 22.9126 18.3037 22.9278C18.1426 22.9452 17.9457 22.833 17.5527 22.6085L17.3506 22.4932C15.0359 21.1706 13.8785 20.5091 12.6494 20.2501C11.5618 20.0209 10.4382 20.0209 9.35059 20.2501C8.12149 20.5091 6.96406 21.1706 4.64941 22.4932L4.44727 22.6085C4.05429 22.833 3.85742 22.9452 3.69629 22.9278C3.55577 22.9126 3.42769 22.8391 3.34473 22.7247C3.24964 22.5934 3.25 22.3667 3.25 21.9141V11.0001C3.25 8.43539 3.2497 7.15259 3.70898 6.15633C4.20738 5.07538 5.0753 4.20746 6.15625 3.70906C6.16172 3.70654 6.16737 3.70374 6.17285 3.70125C6.17798 3.68175 6.18206 3.66196 6.1875 3.64266C6.65975 1.96848 7.96839 0.659802 9.64258 0.187577C10.3417 -0.00960494 11.1659 7.74284e-05 12.4004 7.74284e-05Z" fill="currentColor" />
</svg>