<svg xmlns="http://www.w3.org/2000/svg" width="24" height="24" viewBox="0 0 24 24" fill="none">
<path d="M14.75 1.25C17.55 1.25 18.95 1.25013 20.0195 1.79492C20.9603 2.27429 21.7257 3.03966 22.2051 3.98047C22.7499 5.04998 22.75 6.45005 22.75 9.25V14.75C22.75 17.55 22.7499 18.95 22.2051 20.0195C21.7257 20.9603 20.9603 21.7257 20.0195 22.2051C18.95 22.7499 17.55 22.75 14.75 22.75H9.25C6.45005 22.75 5.04998 22.7499 3.98047 22.2051C3.03966 21.7257 2.27429 20.9603 1.79492 20.0195C1.25013 18.95 1.25 17.55 1.25 14.75V9.25C1.25 6.45005 1.25013 5.04998 1.79492 3.98047C2.27429 3.03966 3.03966 2.27429 3.98047 1.79492C5.04998 1.25013 6.45005 1.25 9.25 1.25H14.75ZM12 5.25C11.5858 5.25 11.25 5.58579 11.25 6V18C11.25 18.4142 11.5858 18.75 12 18.75C12.4142 18.75 12.75 18.4142 12.75 18V6C12.75 5.58579 12.4142 5.25 12 5.25ZM7 15.75C6.35285 15.75 5.82092 16.2418 5.75684 16.8721L5.75 17L5.75684 17.1279C5.82092 17.7582 6.35285 18.25 7 18.25C7.69036 18.25 8.25 17.6904 8.25 17C8.25 16.3096 7.69036 15.75 7 15.75ZM17 15.75C16.3528 15.75 15.8209 16.2418 15.7568 16.8721L15.75 17L15.7568 17.1279C15.8209 17.7582 16.3528 18.25 17 18.25C17.6904 18.25 18.25 17.6904 18.25 17C18.25 16.3096 17.6904 15.75 17 15.75ZM7 10.75C6.35285 10.75 5.82092 11.2418 5.75684 11.8721L5.75 12L5.75684 12.1279C5.82092 12.7582 6.35285 13.25 7 13.25C7.69036 13.25 8.25 12.6904 8.25 12C8.25 11.3096 7.69036 10.75 7 10.75ZM17 10.75C16.3528 10.75 15.8209 11.2418 15.7568 11.8721L15.75 12L15.7568 12.1279C15.8209 12.7582 16.3528 13.25 17 13.25C17.6904 13.25 18.25 12.6904 18.25 12C18.25 11.3096 17.6904 10.75 17 10.75ZM7 5.75C6.35285 5.75 5.82092 6.24183 5.75684 6.87207L5.75 7L5.75684 7.12793C5.82092 7.75817 6.35285 8.25 7 8.25C7.69036 8.25 8.25 7.69036 8.25 7C8.25 6.35285 7.75817 5.82092 7.12793 5.75684L7 5.75ZM17 5.75C16.3096 5.75 15.75 6.30964 15.75 7C15.75 7.69036 16.3096 8.25 17 8.25C17.6904 8.25 18.25 7.69036 18.25 7C18.25 6.35285 17.7582 5.82092 17.1279 5.75684L17 5.75Z" fill="currentColor" />
</svg>