<svg xmlns="http://www.w3.org/2000/svg" width="24" height="24" viewBox="0 0 24 24" fill="none">
<path d="M14.75 1.25C17.55 1.25 18.95 1.25013 20.0195 1.79492C20.9603 2.27429 21.7257 3.03966 22.2051 3.98047C22.7499 5.04998 22.75 6.45005 22.75 9.25V14.75C22.75 17.55 22.7499 18.95 22.2051 20.0195C21.7257 20.9603 20.9603 21.7257 20.0195 22.2051C18.95 22.7499 17.55 22.75 14.75 22.75H9.25C6.45005 22.75 5.04998 22.7499 3.98047 22.2051C3.03966 21.7257 2.27429 20.9603 1.79492 20.0195C1.25013 18.95 1.25 17.55 1.25 14.75V9.25C1.25 6.45005 1.25013 5.04998 1.79492 3.98047C2.27429 3.03966 3.03966 2.27429 3.98047 1.79492C5.04998 1.25013 6.45005 1.25 9.25 1.25H14.75ZM6 16.25C5.58579 16.25 5.25 16.5858 5.25 17C5.25 17.4142 5.58579 17.75 6 17.75H18C18.4142 17.75 18.75 17.4142 18.75 17C18.75 16.5858 18.4142 16.25 18 16.25H6ZM7 10.75C6.30964 10.75 5.75 11.3096 5.75 12C5.75 12.6904 6.30964 13.25 7 13.25C7.69036 13.25 8.25 12.6904 8.25 12C8.25 11.3096 7.69036 10.75 7 10.75ZM12 10.75C11.3096 10.75 10.75 11.3096 10.75 12C10.75 12.6904 11.3096 13.25 12 13.25C12.6904 13.25 13.25 12.6904 13.25 12C13.25 11.3096 12.6904 10.75 12 10.75ZM17 10.75C16.3096 10.75 15.75 11.3096 15.75 12C15.75 12.6904 16.3096 13.25 17 13.25C17.6904 13.25 18.25 12.6904 18.25 12C18.25 11.3096 17.6904 10.75 17 10.75ZM7 5.75C6.30964 5.75 5.75 6.30964 5.75 7C5.75 7.69036 6.30964 8.25 7 8.25C7.69036 8.25 8.25 7.69036 8.25 7C8.25 6.30964 7.69036 5.75 7 5.75ZM12 5.75C11.3096 5.75 10.75 6.30964 10.75 7C10.75 7.69036 11.3096 8.25 12 8.25C12.6904 8.25 13.25 7.69036 13.25 7C13.25 6.30964 12.6904 5.75 12 5.75ZM17 5.75C16.3096 5.75 15.75 6.30964 15.75 7C15.75 7.69036 16.3096 8.25 17 8.25C17.6904 8.25 18.25 7.69036 18.25 7C18.25 6.30964 17.6904 5.75 17 5.75Z" fill="currentColor" />
</svg>