<svg xmlns="http://www.w3.org/2000/svg" width="24" height="24" viewBox="0 0 24 24" fill="none">
<path d="M11.5 20.5C11.2239 20.5 11 20.7239 11 21C11 21.2761 11.2239 21.5 11.5 21.5M11.5 20.5C11.7761 20.5 12 20.7239 12 21C12 21.2761 11.7761 21.5 11.5 21.5M11.5 20.5V21.5M11.5 2.5C11.2239 2.5 11 2.72386 11 3C11 3.27614 11.2239 3.5 11.5 3.5M11.5 2.5C11.7761 2.5 12 2.72386 12 3C12 3.27614 11.7761 3.5 11.5 3.5M11.5 2.5V3.5M11.5 16C11.2239 16 11 16.2239 11 16.5C11 16.7761 11.2239 17 11.5 17M11.5 16C11.7761 16 12 16.2239 12 16.5C12 16.7761 11.7761 17 11.5 17M11.5 16V17M11.5 7C11.2239 7 11 7.22386 11 7.5C11 7.77614 11.2239 8 11.5 8M11.5 7C11.7761 7 12 7.22386 12 7.5C12 7.77614 11.7761 8 11.5 8M11.5 7V8M11.5 11.5C11.2239 11.5 11 11.7239 11 12C11 12.2761 11.2239 12.5 11.5 12.5M11.5 11.5C11.7761 11.5 12 11.7239 12 12C12 12.2761 11.7761 12.5 11.5 12.5M11.5 11.5V12.5M7 20.5C6.72386 20.5 6.5 20.7239 6.5 21C6.5 21.2761 6.72386 21.5 7 21.5M7 20.5C7.27614 20.5 7.5 20.7239 7.5 21C7.5 21.2761 7.27614 21.5 7 21.5M7 20.5V21.5M7 2.5C6.72386 2.5 6.5 2.72386 6.5 3C6.5 3.27614 6.72386 3.5 7 3.5M7 2.5C7.27614 2.5 7.5 2.72386 7.5 3C7.5 3.27614 7.27614 3.5 7 3.5M7 2.5V3.5M7 11.5C6.72386 11.5 6.5 11.7239 6.5 12C6.5 12.2761 6.72386 12.5 7 12.5M7 11.5C7.27614 11.5 7.5 11.7239 7.5 12C7.5 12.2761 7.27614 12.5 7 12.5M7 11.5V12.5M16 20.5C15.7239 20.5 15.5 20.7239 15.5 21C15.5 21.2761 15.7239 21.5 16 21.5M16 20.5C16.2761 20.5 16.5 20.7239 16.5 21C16.5 21.2761 16.2761 21.5 16 21.5M16 20.5V21.5M16 2.5C15.7239 2.5 15.5 2.72386 15.5 3C15.5 3.27614 15.7239 3.5 16 3.5M16 2.5C16.2761 2.5 16.5 2.72386 16.5 3C16.5 3.27614 16.2761 3.5 16 3.5M16 2.5V3.5M16 11.5C15.7239 11.5 15.5 11.7239 15.5 12C15.5 12.2761 15.7239 12.5 16 12.5M16 11.5C16.2761 11.5 16.5 11.7239 16.5 12C16.5 12.2761 16.2761 12.5 16 12.5M16 11.5V12.5M3 20.5C2.72386 20.5 2.5 20.7239 2.5 21C2.5 21.2761 2.72386 21.5 3 21.5M3 20.5C3.27614 20.5 3.5 20.7239 3.5 21C3.5 21.2761 3.27614 21.5 3 21.5M3 20.5V21.5M3 2.5C2.72386 2.5 2.5 2.72386 2.5 3C2.5 3.27614 2.72386 3.5 3 3.5M3 2.5C3.27614 2.5 3.5 2.72386 3.5 3C3.5 3.27614 3.27614 3.5 3 3.5M3 2.5V3.5M4 16C3.72386 16 3.5 16.2239 3.5 16.5C3.5 16.7761 3.72386 17 4 17M4 16C4.27614 16 4.5 16.2239 4.5 16.5C4.5 16.7761 4.27614 17 4 17M4 16V17M4 7C3.72386 7 3.5 7.22386 3.5 7.5C3.5 7.77614 3.72386 8 4 8M4 7C4.27614 7 4.5 7.22386 4.5 7.5C4.5 7.77614 4.27614 8 4 8M4 7V8M2 11.5C1.72386 11.5 1.5 11.7239 1.5 12C1.5 12.2761 1.72386 12.5 2 12.5M2 11.5C2.27614 11.5 2.5 11.7239 2.5 12C2.5 12.2761 2.27614 12.5 2 12.5M2 11.5V12.5M20.5 20.5C20.2239 20.5 20 20.7239 20 21C20 21.2761 20.2239 21.5 20.5 21.5M20.5 20.5C20.7761 20.5 21 20.7239 21 21C21 21.2761 20.7761 21.5 20.5 21.5M20.5 20.5V21.5M20.5 2.5C20.2239 2.5 20 2.72386 20 3C20 3.27614 20.2239 3.5 20.5 3.5M20.5 2.5C20.7761 2.5 21 2.72386 21 3C21 3.27614 20.7761 3.5 20.5 3.5M20.5 2.5V3.5M19.5 16C19.2239 16 19 16.2239 19 16.5C19 16.7761 19.2239 17 19.5 17M19.5 16C19.7761 16 20 16.2239 20 16.5C20 16.7761 19.7761 17 19.5 17M19.5 16V17M19.5 7C19.2239 7 19 7.22386 19 7.5C19 7.77614 19.2239 8 19.5 8M19.5 7C19.7761 7 20 7.22386 20 7.5C20 7.77614 19.7761 8 19.5 8M19.5 7V8M21.5 11.5C21.2239 11.5 21 11.7239 21 12C21 12.2761 21.2239 12.5 21.5 12.5M21.5 11.5C21.7761 11.5 22 11.7239 22 12C22 12.2761 21.7761 12.5 21.5 12.5M21.5 11.5V12.5" stroke="currentColor" stroke-width={1.5} stroke-linecap="round" stroke-linejoin="round" />
</svg>