<svg xmlns="http://www.w3.org/2000/svg" width="24" height="24" viewBox="0 0 24 24" fill="none">
<path d="M9.53042 1.60724C10.4283 1.0685 10.8773 0.799126 11.3565 0.69388C11.7805 0.600786 12.2195 0.600786 12.6435 0.69388C13.1227 0.799126 13.5717 1.0685 14.4696 1.60723L20.5073 5.22988C20.8869 5.45765 21.0767 5.57154 21.1406 5.71848C21.1964 5.84671 21.1959 5.99243 21.1393 6.12029C21.0744 6.2668 20.8838 6.3794 20.5027 6.60462L12.407 11.3885C12.2589 11.476 12.1848 11.5197 12.1059 11.5368C12.0361 11.552 11.9639 11.552 11.8941 11.5368C11.8152 11.5197 11.7411 11.476 11.593 11.3885L3.49729 6.60462C3.11615 6.3794 2.92558 6.2668 2.86071 6.12029C2.8041 5.99243 2.80361 5.84671 2.85936 5.71848C2.92325 5.57154 3.11306 5.45765 3.49267 5.22989L9.53042 1.60724Z" fill="currentColor" /><path d="M2.45698 7.73221C2.06151 7.49852 1.86378 7.38167 1.70126 7.39759C1.55953 7.41148 1.43044 7.48514 1.34638 7.60009C1.25 7.73191 1.25 7.96159 1.25 8.42095V14.7071C1.25 15.6981 1.25 16.1936 1.39219 16.6388C1.51802 17.0329 1.72396 17.3966 1.99708 17.7072C2.30572 18.0582 2.73062 18.3131 3.58042 18.823L10.0384 22.6978C10.435 22.9358 10.6333 23.0547 10.7964 23.0395C10.9387 23.0263 11.0685 22.9528 11.153 22.8376C11.25 22.7055 11.25 22.4743 11.25 22.0118V13.3846C11.25 13.2182 11.25 13.135 11.226 13.0603C11.2048 12.9943 11.17 12.9334 11.1239 12.8815C11.0719 12.8228 11.0002 12.7805 10.857 12.6958L2.45698 7.73221Z" fill="currentColor" /><path d="M12.75 22.0118C12.75 22.4743 12.75 22.7055 12.847 22.8376C12.9315 22.9528 13.0613 23.0263 13.2036 23.0395C13.3667 23.0547 13.565 22.9358 13.9616 22.6978L20.4196 18.823C21.2694 18.3131 21.6943 18.0582 22.0029 17.7072C22.276 17.3966 22.482 17.0329 22.6078 16.6388C22.75 16.1936 22.75 15.6981 22.75 14.7071V8.42095C22.75 7.96159 22.75 7.73191 22.6536 7.60009C22.5696 7.48514 22.4405 7.41148 22.2987 7.39759C22.1362 7.38167 21.9385 7.49852 21.543 7.73221L13.143 12.6958C12.9998 12.7805 12.9281 12.8228 12.8761 12.8815C12.83 12.9334 12.7952 12.9943 12.774 13.0603C12.75 13.135 12.75 13.2182 12.75 13.3846V22.0118Z" fill="currentColor" />
</svg>