<svg xmlns="http://www.w3.org/2000/svg" width="24" height="24" viewBox="0 0 24 24" fill="none">
<path d="M13.1504 1.25C16.5103 1.25 18.1902 1.25042 19.4736 1.9043C20.6026 2.47954 21.5205 3.39739 22.0957 4.52637C22.7496 5.80977 22.75 7.48965 22.75 10.8496V13.1504C22.75 16.5103 22.7496 18.1902 22.0957 19.4736C21.5205 20.6026 20.6026 21.5205 19.4736 22.0957C18.1902 22.7496 16.5103 22.75 13.1504 22.75H10.8496C7.48965 22.75 5.80977 22.7496 4.52637 22.0957C3.39739 21.5205 2.47954 20.6026 1.9043 19.4736C1.25042 18.1902 1.25 16.5103 1.25 13.1504V10.8496C1.25 7.48965 1.25042 5.80977 1.9043 4.52637C2.47954 3.39739 3.39739 2.47954 4.52637 1.9043C5.80977 1.25042 7.48965 1.25 10.8496 1.25H13.1504ZM8.5 5C6.56701 5.00001 5.00001 6.56701 5 8.5V15.5C5 17.433 6.56701 19 8.5 19H9L9.10254 18.9951C9.60667 18.9438 10 18.5177 10 18C10 17.4823 9.60667 17.0562 9.10254 17.0049L9 17H8.5C7.67157 17 7 16.3284 7 15.5V8.5C7.00001 7.67158 7.67158 7.00001 8.5 7H9C9.55228 7 9.99999 6.55228 10 6C10 5.44773 9.55228 5.00001 9 5H8.5ZM15 5C14.4477 5.00001 14 5.44773 14 6C14 6.55228 14.4477 7 15 7H15.5L15.6533 7.00781C16.4097 7.08461 17 7.72334 17 8.5V15.5C17 16.3284 16.3284 17 15.5 17H15C14.4477 17 14 17.4477 14 18C14 18.5523 14.4477 19 15 19H15.5C17.433 19 19 17.433 19 15.5V8.5C19 6.62728 17.5292 5.09842 15.6797 5.00488L15.5 5H15ZM12 14C11.2233 14 10.5846 14.5903 10.5078 15.3467L10.5 15.5L10.5078 15.6533C10.5846 16.4097 11.2233 17 12 17C12.8284 17 13.5 16.3284 13.5 15.5C13.5 14.7233 12.9097 14.0846 12.1533 14.0078L12 14ZM12 10.5C11.2233 10.5 10.5846 11.0903 10.5078 11.8467L10.5 12L10.5078 12.1533C10.5846 12.9097 11.2233 13.5 12 13.5C12.8284 13.5 13.5 12.8284 13.5 12C13.5 11.2233 12.9097 10.5846 12.1533 10.5078L12 10.5ZM12 7C11.2233 7 10.5846 7.59027 10.5078 8.34668L10.5 8.5L10.5078 8.65332C10.5846 9.40972 11.2233 10 12 10C12.8284 10 13.5 9.32843 13.5 8.5C13.5 7.72334 12.9097 7.08461 12.1533 7.00781L12 7Z" fill="currentColor" />
</svg>