<svg xmlns="http://www.w3.org/2000/svg" width="24" height="24" viewBox="0 0 24 24" fill="none">
<path d="M4.00001 14.9999L0.99999 11.9999L4.00001 8.99992V6.00001C4.00001 5.99994 4.00001 5.99991 4.00001 5.99987C4.00006 3.79083 5.79089 2.00001 7.99994 1.99999C7.99998 1.99999 8 1.99999 8.00004 1.99999C8.19531 1.99999 8.03866 1.99997 9.00005 1.99999M9.00005 21.9998H8.00004H7C5.34315 21.9998 4.00002 20.6567 4.00002 18.9998V17.9998M12.5 6.99993C12.5 7.27607 12.2761 7.49992 12 7.49992C11.7239 7.49992 11.5 7.27607 11.5 6.99993M12.5 6.99993C12.5 6.72379 12.2761 6.49993 12 6.49993C11.7239 6.49993 11.5 6.72379 11.5 6.99993M12.5 6.99993H11.5M12.5 11.9999C12.5 12.276 12.2761 12.4999 12 12.4999C11.7239 12.4999 11.5 12.276 11.5 11.9999M12.5 11.9999C12.5 11.7237 12.2761 11.4999 12 11.4999C11.7239 11.4999 11.5 11.7237 11.5 11.9999M12.5 11.9999H11.5M12.5 16.9998C12.5 17.276 12.2761 17.4998 12 17.4998C11.7239 17.4998 11.5 17.276 11.5 16.9998M12.5 16.9998C12.5 16.7237 12.2761 16.4998 12 16.4998C11.7239 16.4998 11.5 16.7237 11.5 16.9998M12.5 16.9998H11.5M20 8.99992L23 11.9999L21.4498 13.5501C21.1763 13.8235 21.0396 13.9602 20.9205 14.1039C20.407 14.7233 20.0923 15.4832 20.0174 16.2843C20 16.4701 20 16.6634 20 17.0501V17.9997C20 17.9998 20 17.9999 20 17.9999C20 20.209 18.2092 21.9997 16.0001 21.9998C16.0001 21.9998 16 21.9998 16 21.9998H15M15 1.99999L16 1.99999H17C18.6569 1.99999 20 3.34311 20 4.99995V5.99994" stroke="currentColor" stroke-width={2} stroke-linecap="round" stroke-linejoin="round" />
</svg>