<svg xmlns="http://www.w3.org/2000/svg" width="24" height="24" viewBox="0 0 24 24" fill="none">
<path d="M9.00005 21.9998H7.19998C6.07989 21.9998 5.51984 21.9998 5.09202 21.7818C4.7157 21.5901 4.40974 21.2841 4.218 20.9078C4.00001 20.48 4.00001 19.9199 4.00001 18.7998V17.6508C4.00001 16.6725 4.00001 16.1833 3.88949 15.7229C3.7915 15.3148 3.62989 14.9246 3.41057 14.5667C3.1632 14.1631 2.81729 13.8172 2.12548 13.1254L0.99999 11.9999L2.12548 10.8744C2.81729 10.1826 3.1632 9.83672 3.41057 9.43306C3.62989 9.07517 3.7915 8.68499 3.88949 8.27685C4.00001 7.8165 4.00001 7.32731 4.00001 6.34895V5.19993C4.00001 4.07984 4.00001 3.5198 4.218 3.09198C4.40974 2.71566 4.71571 2.4097 5.09203 2.21796C5.51985 1.99997 6.0799 1.99997 7.20001 1.99997C7.83588 1.99998 8.4461 1.99998 9.00005 1.99999M15 1.99999C15.5524 1.99998 16.1631 1.99997 16.8 1.99997C17.9201 1.99997 18.4802 1.99997 18.908 2.21796C19.2843 2.4097 19.5903 2.71566 19.782 3.09198C20 3.5198 20 4.07985 20 5.19995V6.34894C20 7.32731 20 7.81649 20.1105 8.27684C20.2085 8.68499 20.3701 9.07517 20.5894 9.43306C20.8368 9.83672 21.1827 10.1826 21.8745 10.8744L23 11.9999L21.8745 13.1254C21.1827 13.8172 20.8368 14.1631 20.5894 14.5667C20.3701 14.9246 20.2085 15.3148 20.1105 15.7229C20 16.1833 20 16.6725 20 17.6508V18.7998C20 19.9199 20 20.48 19.782 20.9078C19.5903 21.2841 19.2843 21.5901 18.908 21.7818C18.4802 21.9998 17.9201 21.9998 16.8 21.9998H15M12.5 6.99993C12.5 7.27607 12.2761 7.49992 12 7.49992C11.7239 7.49992 11.5 7.27607 11.5 6.99993M12.5 6.99993C12.5 6.72379 12.2761 6.49993 12 6.49993C11.7239 6.49993 11.5 6.72379 11.5 6.99993M12.5 6.99993H11.5M12.5 11.9999C12.5 12.276 12.2761 12.4999 12 12.4999C11.7239 12.4999 11.5 12.276 11.5 11.9999M12.5 11.9999C12.5 11.7237 12.2761 11.4999 12 11.4999C11.7239 11.4999 11.5 11.7237 11.5 11.9999M12.5 11.9999H11.5M12.5 16.9998C12.5 17.276 12.2761 17.4998 12 17.4998C11.7239 17.4998 11.5 17.276 11.5 16.9998M12.5 16.9998C12.5 16.7237 12.2761 16.4998 12 16.4998C11.7239 16.4998 11.5 16.7237 11.5 16.9998M12.5 16.9998H11.5" stroke="currentColor" stroke-width={2} stroke-linecap="round" stroke-linejoin="round" />
</svg>