<svg xmlns="http://www.w3.org/2000/svg" width="24" height="24" viewBox="0 0 24 24" fill="none">
<path d="M22 9.5V9C22 8.07116 22 7.60674 21.9487 7.21684C21.5942 4.52444 19.4756 2.40579 16.7832 2.05133C16.3933 2 15.9288 2 15 2H11.6C8.23969 2 6.55953 2 5.27606 2.65396C4.14708 3.2292 3.2292 4.14708 2.65396 5.27606C2 6.55953 2 8.23969 2 11.6V12.4C2 15.7603 2 17.4405 2.65396 18.7239C3.2292 19.8529 4.14708 20.7708 5.27606 21.346C6.55953 22 8.23969 22 11.6 22H15C15.9288 22 16.3933 22 16.7832 21.9487C19.4756 21.5942 21.5942 19.4756 21.9487 16.7832C22 16.3933 22 15.9288 22 15V14.5M15 6.00001L15.5 6.00001C16.8807 6.00001 18 7.1193 18 8.50001V15.5C18 16.8807 16.8807 18 15.5 18H15M9 18H8.5C7.11929 18 6 16.8807 6 15.5V8.50001C6 7.1193 7.11929 6.00001 8.5 6L9 6.00001M12.5 8.5C12.5 8.77614 12.2761 9 12 9C11.7239 9 11.5 8.77614 11.5 8.5M12.5 8.5C12.5 8.22385 12.2761 8 12 8C11.7239 8 11.5 8.22385 11.5 8.5M12.5 8.5H11.5M12.5 15.5C12.5 15.7761 12.2761 16 12 16C11.7239 16 11.5 15.7761 11.5 15.5M12.5 15.5C12.5 15.2239 12.2761 15 12 15C11.7239 15 11.5 15.2239 11.5 15.5M12.5 15.5H11.5M12.5 12C12.5 12.2761 12.2761 12.5 12 12.5C11.7239 12.5 11.5 12.2761 11.5 12M12.5 12C12.5 11.7239 12.2761 11.5 12 11.5C11.7239 11.5 11.5 11.7239 11.5 12M12.5 12H11.5" stroke="currentColor" stroke-width={2} stroke-linecap="round" stroke-linejoin="round" />
</svg>