<svg xmlns="http://www.w3.org/2000/svg" width="24" height="24" viewBox="0 0 24 24" fill="none">
<path d="M22.75 16.3496C22.75 18.5898 22.7504 19.7108 22.3145 20.5664C21.931 21.3189 21.3189 21.931 20.5664 22.3145C19.7108 22.7504 18.5898 22.75 16.3496 22.75H7.65039C5.41018 22.75 4.28924 22.7504 3.43359 22.3145C2.68109 21.931 2.06902 21.3189 1.68555 20.5664C1.24957 19.7108 1.25 18.5898 1.25 16.3496V11.9326C3.11345 12.7181 5.04195 13.2895 7 13.6494V14.5C7 15.0523 7.44772 15.5 8 15.5C8.55228 15.5 9 15.0523 9 14.5V13.9443C10.994 14.1618 13.006 14.1618 15 13.9443V14.5C15 15.0523 15.4477 15.5 16 15.5C16.5523 15.5 17 15.0523 17 14.5V13.6494C18.958 13.2895 20.8865 12.7181 22.75 11.9326V16.3496ZM12 1C14.5071 1 16.5823 2.84544 16.9434 5.25195C18.795 5.25527 19.7899 5.28991 20.5664 5.68555C21.3189 6.06902 21.931 6.68109 22.3145 7.43359C22.6051 8.0041 22.6992 8.69269 22.7314 9.75195C20.8829 10.6034 18.9595 11.2259 17 11.6152V11C17 10.4477 16.5523 10 16 10C15.4477 10 15 10.4477 15 11V11.9297C13.0068 12.1643 10.9932 12.1643 9 11.9297V11C9 10.4477 8.55228 10 8 10C7.44772 10 7 10.4477 7 11V11.6152C5.04022 11.2259 3.1164 10.6036 1.26758 9.75195C1.29986 8.69267 1.39486 8.0041 1.68555 7.43359C2.06902 6.68109 2.68109 6.06902 3.43359 5.68555C4.20994 5.28998 5.20468 5.25529 7.05566 5.25195C7.4167 2.84537 9.49281 1 12 1ZM12 3C10.6024 3 9.43095 3.95647 9.09766 5.25H14.9023C14.569 3.95647 13.3976 3 12 3Z" fill="currentColor" />
</svg>