<svg xmlns="http://www.w3.org/2000/svg" width="24" height="24" viewBox="0 0 24 24" fill="none">
<path d="M6.90039 14.25C7.09338 14.2502 7.24979 14.4066 7.25 14.5996V15.25C7.25 15.6642 7.58579 16 8 16C8.41421 16 8.75 15.6642 8.75 15.25V14.5996C8.75021 14.4066 8.90662 14.2502 9.09961 14.25H14.9004C15.0934 14.2502 15.2498 14.4066 15.25 14.5996V15.25C15.25 15.6642 15.5858 16 16 16C16.4142 16 16.75 15.6642 16.75 15.25V14.5996C16.7502 14.4066 16.9066 14.2502 17.0996 14.25H18.917C19.6923 14.25 20.08 14.2504 20.3926 14.3564C20.9814 14.5563 21.4437 15.0186 21.6436 15.6074C21.7496 15.92 21.75 16.3077 21.75 17.083C21.75 18.6344 21.7504 19.4108 21.5381 20.0361C21.1383 21.2135 20.2135 22.1383 19.0361 22.5381C18.4108 22.7504 17.6344 22.75 16.083 22.75H7.91699C6.36561 22.75 5.58922 22.7504 4.96387 22.5381C3.78649 22.1383 2.86166 21.2135 2.46191 20.0361C2.24963 19.4108 2.25 18.6344 2.25 17.083C2.25 16.3077 2.25038 15.92 2.35645 15.6074C2.55631 15.0186 3.01864 14.5563 3.60742 14.3564C3.92003 14.2504 4.30768 14.25 5.08301 14.25H6.90039ZM12 1C14.5065 1 16.5825 2.84435 16.9443 5.25H19.5498C20.6699 5.25 21.2304 5.24979 21.6582 5.46777C22.0345 5.65951 22.3405 5.96554 22.5322 6.3418C22.7502 6.76962 22.75 7.33009 22.75 8.4502V9.5498C22.75 10.6699 22.7502 11.2304 22.5322 11.6582C22.3405 12.0345 22.0345 12.3405 21.6582 12.5322C21.2304 12.7502 20.6699 12.75 19.5498 12.75H17.0996C16.9066 12.7498 16.7502 12.5934 16.75 12.4004V11.75C16.75 11.3358 16.4142 11 16 11C15.5858 11 15.25 11.3358 15.25 11.75V12.4004C15.2498 12.5934 15.0934 12.7498 14.9004 12.75H9.09961C8.90662 12.7498 8.75021 12.5934 8.75 12.4004V11.75C8.75 11.3358 8.41421 11 8 11C7.58579 11 7.25 11.3358 7.25 11.75V12.4004C7.24979 12.5934 7.09338 12.7498 6.90039 12.75H4.4502C3.33009 12.75 2.76962 12.7502 2.3418 12.5322C1.96554 12.3405 1.65951 12.0345 1.46777 11.6582C1.24979 11.2304 1.25 10.6699 1.25 9.5498V8.4502C1.25 7.33009 1.24979 6.76962 1.46777 6.3418C1.65951 5.96554 1.96554 5.65951 2.3418 5.46777C2.76962 5.24979 3.33009 5.25 4.4502 5.25H7.05566C7.41751 2.84435 9.49347 1 12 1ZM12 3C10.6024 3 9.43095 3.95647 9.09766 5.25H14.9023C14.569 3.95647 13.3976 3 12 3Z" fill="currentColor" />
</svg>