<svg xmlns="http://www.w3.org/2000/svg" width="24" height="24" viewBox="0 0 24 24" fill="none">
<path d="M13.1504 1.25C16.5103 1.25 18.1902 1.25042 19.4736 1.9043C20.6026 2.47954 21.5205 3.39739 22.0957 4.52637C22.7496 5.80977 22.75 7.48965 22.75 10.8496V13.1504C22.75 16.5103 22.7496 18.1902 22.0957 19.4736C21.5205 20.6026 20.6026 21.5205 19.4736 22.0957C18.1902 22.7496 16.5103 22.75 13.1504 22.75H10.8496C7.48965 22.75 5.80977 22.7496 4.52637 22.0957C3.39739 21.5205 2.47954 20.6026 1.9043 19.4736C1.25042 18.1902 1.25 16.5103 1.25 13.1504V10.8496C1.25 7.48965 1.25042 5.80977 1.9043 4.52637C2.47954 3.39739 3.39739 2.47954 4.52637 1.9043C5.80977 1.25042 7.48965 1.25 10.8496 1.25H13.1504ZM9.38379 5.5332C9.12585 5.04486 8.52155 4.85828 8.0332 5.11621C5.6234 6.38906 4 9.00879 4 12C4 14.8978 5.52347 17.447 7.80957 18.7607L8.0332 18.8838L8.12598 18.9277C8.59571 19.1178 9.14202 18.9245 9.38379 18.4668C9.62566 18.0089 9.47688 17.4487 9.05469 17.168L8.9668 17.1162L8.64746 16.9316C7.07957 15.9544 6 14.1254 6 12C6 9.73302 7.2278 7.80233 8.9668 6.88379C9.45514 6.62585 9.64172 6.02155 9.38379 5.5332ZM15.9668 5.11621C15.4785 4.85828 14.8742 5.04486 14.6162 5.5332C14.3743 5.99114 14.5231 6.55131 14.9453 6.83203L15.0332 6.88379L15.3525 7.06836C16.9204 8.04556 18 9.87464 18 12C18 14.267 16.7722 16.1977 15.0332 17.1162C14.5449 17.3742 14.3583 17.9785 14.6162 18.4668C14.8742 18.9551 15.4785 19.1417 15.9668 18.8838C18.3766 17.6109 20 14.9912 20 12C20 9.00879 18.3766 6.38906 15.9668 5.11621ZM15.2314 8.17383C14.8133 7.88737 14.2376 7.95904 13.9033 8.35449C13.5692 8.74978 13.5946 9.32871 13.9463 9.69336L14.0215 9.76367L14.127 9.8584C14.6455 10.351 15 11.1142 15 12C15 12.9447 14.5968 13.75 14.0215 14.2363C13.5997 14.5929 13.5468 15.2237 13.9033 15.6455C14.2598 16.0673 14.8907 16.1202 15.3125 15.7637C16.356 14.8817 17 13.5087 17 12C17 10.5857 16.4344 9.29036 15.5039 8.40723L15.3125 8.23633L15.2314 8.17383ZM10.0967 8.35449C9.74016 7.93269 9.1093 7.87981 8.6875 8.23633C7.644 9.11835 7 10.4913 7 12C7.00001 13.4143 7.56563 14.7096 8.49609 15.5928L8.6875 15.7637L8.76855 15.8262C9.18672 16.1126 9.76243 16.0409 10.0967 15.6455C10.4308 15.2502 10.4054 14.6713 10.0537 14.3066L9.97852 14.2363L9.87305 14.1416C9.35451 13.649 9.00001 12.8858 9 12C9 11.0553 9.40314 10.25 9.97852 9.76367C10.4003 9.40715 10.4532 8.77629 10.0967 8.35449ZM12 10.5C11.2233 10.5 10.5846 11.0903 10.5078 11.8467L10.5 12L10.5078 12.1533C10.5846 12.9097 11.2233 13.5 12 13.5C12.8284 13.5 13.5 12.8284 13.5 12C13.5 11.2233 12.9097 10.5846 12.1533 10.5078L12 10.5Z" fill="currentColor" />
</svg>