<svg xmlns="http://www.w3.org/2000/svg" width="24" height="24" viewBox="0 0 24 24" fill="none">
<path d="M9 2V6M13 2V4M4 9C4 9 7.5 11 12 11C13.4686 11 14.8307 10.787 15.9993 10.5M12 22C10.4296 22 9.23502 20.5899 9.4932 19.0408L9.68062 17.9163C9.87046 16.7773 9.29521 15.6476 8.26238 15.1312L6.14857 14.0743C4.83178 13.4159 4 12.07 4 10.5978V5.16808C4 3.4184 5.4184 2 7.16808 2H16.8319C18.5816 2 20 3.4184 20 5.16808V10.5978C20 12.07 19.1682 13.4159 17.8514 14.0743L15.7376 15.1312C14.7048 15.6476 14.1295 16.7773 14.3194 17.9163L14.5068 19.0408C14.765 20.5899 13.5704 22 12 22Z" stroke="currentColor" stroke-width={2} stroke-linecap="round" stroke-linejoin="round" />
</svg>