<svg xmlns="http://www.w3.org/2000/svg" width="24" height="24" viewBox="0 0 24 24" fill="none">
<path opacity={0.32} d="M12 4.25C7.71979 4.25 4.25 7.71979 4.25 12V15C4.25 19.2802 7.71979 22.75 12 22.75C16.2802 22.75 19.75 19.2802 19.75 15V12C19.75 7.71979 16.2802 4.25 12 4.25Z" fill="currentColor" /><path d="M12 16.25C12.4142 16.25 12.75 16.5858 12.75 17V23C12.75 23.4142 12.4142 23.75 12 23.75C11.5858 23.75 11.25 23.4142 11.25 23V17C11.25 16.5858 11.5858 16.25 12 16.25ZM4.46976 15.4697C4.76265 15.1768 5.23741 15.1768 5.53031 15.4697C5.8232 15.7626 5.8232 16.2374 5.53031 16.5303L3.93656 18.124C3.39247 18.6681 3.21042 18.8579 3.08207 19.0674C2.95872 19.2687 2.86765 19.4882 2.81253 19.7178C2.75525 19.9566 2.75003 20.2191 2.75003 20.9883V22C2.75003 22.4142 2.41425 22.75 2.00003 22.75C1.58584 22.75 1.25003 22.4142 1.25003 22V20.9883C1.25003 20.2902 1.24512 19.8188 1.35355 19.3672C1.44541 18.9846 1.59717 18.6187 1.80277 18.2832C2.04546 17.8872 2.38245 17.557 2.87601 17.0635L4.46976 15.4697ZM18.4698 15.4697C18.7444 15.1951 19.1791 15.1777 19.4737 15.418L19.5303 15.4697L22.5303 18.4697C22.671 18.6104 22.75 18.8011 22.75 19V22C22.75 22.4142 22.4142 22.75 22 22.75C21.5858 22.75 21.25 22.4142 21.25 22V19.3105L18.4698 16.5303L18.418 16.4736C18.1777 16.1791 18.1952 15.7443 18.4698 15.4697ZM22 2.25C22.4142 2.25 22.75 2.58579 22.75 3V4.01172C22.75 4.70979 22.7549 5.18116 22.6465 5.63281C22.5547 6.01544 22.4029 6.38128 22.1973 6.7168C21.9546 7.11278 21.6176 7.44297 21.1241 7.93652L19.5303 9.53027C19.2374 9.82315 18.7626 9.82316 18.4698 9.53027C18.1769 9.23738 18.1769 8.76262 18.4698 8.46973L20.0635 6.87598C20.6076 6.3319 20.7896 6.14207 20.918 5.93262C21.0413 5.73132 21.1324 5.51178 21.1875 5.28223C21.2448 5.04343 21.25 4.78088 21.25 4.01172V3C21.25 2.5858 21.5858 2.25002 22 2.25ZM2.00003 2.25C2.41425 2.25 2.75003 2.58579 2.75003 3V4.01172C2.75003 4.78087 2.75525 5.04344 2.81253 5.28223C2.86765 5.51178 2.95872 5.73132 3.08207 5.93262C3.21042 6.14207 3.39247 6.33189 3.93656 6.87598L5.53031 8.46973L5.58207 8.52637C5.82237 8.82095 5.80491 9.25567 5.53031 9.53027C5.2557 9.80486 4.82098 9.82234 4.5264 9.58203L4.46976 9.53027L2.87601 7.93652C2.38246 7.44297 2.04545 7.11279 1.80277 6.7168C1.59717 6.38128 1.44541 6.01544 1.35355 5.63281C1.24512 5.18116 1.25003 4.70979 1.25003 4.01172V3C1.25003 2.5858 1.58584 2.25002 2.00003 2.25ZM12 1.25C14.0711 1.25 15.75 2.92893 15.75 5V5.5C15.75 5.91421 15.4142 6.25 15 6.25C14.5858 6.24998 14.25 5.9142 14.25 5.5V5C14.25 3.75736 13.2427 2.75 12 2.75C10.7574 2.75002 9.75003 3.75737 9.75003 5V5.5C9.75003 5.91421 9.41425 6.25 9.00003 6.25C8.58583 6.24998 8.25003 5.9142 8.25003 5.5V5C8.25003 2.92894 9.92898 1.25002 12 1.25Z" fill="currentColor" />
</svg>