<svg xmlns="http://www.w3.org/2000/svg" width="24" height="24" viewBox="0 0 24 24" fill="none">
<path d="M12 15V19.6C12 20.3662 12 20.7493 12.2405 21.1211C12.4125 21.3871 12.8479 21.694 13.1563 21.7666C13.5873 21.8681 13.8428 21.7768 14.3539 21.5944C17.0619 20.6276 19 18.0402 19 15V12C19 8.13401 15.866 5 12 5C8.13401 5 5 8.13401 5 12V15C5 16.9587 5.80447 18.7295 7.10102 20C7.37907 20.2725 7.67976 20.5219 8 20.7453M19 9L20.5941 7.40589C21.113 6.88703 21.3724 6.6276 21.5579 6.32485C21.7224 6.05644 21.8436 5.7638 21.9171 5.4577C22 5.11243 22 4.74555 22 4.01177V3M19 16L20.5941 17.5941C21.113 18.113 21.3724 18.3724 21.5579 18.6751C21.7224 18.9436 21.8436 19.2362 21.9171 19.5423C22 19.8876 22 20.2545 22 20.9882V22M5 9L3.40589 7.40589C2.88703 6.88703 2.6276 6.6276 2.44208 6.32485C2.27759 6.05644 2.15638 5.7638 2.08289 5.4577C2 5.11243 2 4.74555 2 4.01177V3M5 16L3.40589 17.5941C2.88703 18.113 2.6276 18.3724 2.44208 18.6751C2.27759 18.9436 2.15638 19.2362 2.08289 19.5423C2 19.8876 2 20.2545 2 20.9882V22M15 5.5V5C15 3.34315 13.6569 2 12 2C10.3431 2 9 3.34315 9 5V5.5" stroke="currentColor" stroke-width={1.5} stroke-linecap="round" stroke-linejoin="round" />
</svg>