<svg xmlns="http://www.w3.org/2000/svg" width="24" height="24" viewBox="0 0 24 24" fill="none">
<path d="M12 1.25C14.0711 1.25 15.75 2.92893 15.75 5V5.2168C17.0036 5.9113 18.0427 6.94374 18.7481 8.19043L20.0635 6.87598C20.6076 6.3319 20.7896 6.14206 20.918 5.93262C21.0413 5.73132 21.1324 5.51178 21.1875 5.28223C21.2448 5.04343 21.25 4.78088 21.25 4.01172V3C21.25 2.58581 21.5858 2.25004 22 2.25C22.4142 2.25 22.75 2.58579 22.75 3V4.01172C22.75 4.70979 22.755 5.18116 22.6465 5.63281C22.5547 6.01544 22.4029 6.38128 22.1973 6.7168C21.9546 7.11278 21.6176 7.44297 21.1241 7.93652L19.5303 9.53027C19.4855 9.57508 19.4349 9.61051 19.3828 9.6416C19.6202 10.3854 19.75 11.1775 19.75 12V15C19.75 15.2221 19.7381 15.4418 19.7198 15.6592L21.1241 17.0635C21.6176 17.557 21.9546 17.8872 22.1973 18.2832C22.4029 18.6187 22.5547 18.9846 22.6465 19.3672C22.755 19.8188 22.75 20.2902 22.75 20.9883V22C22.75 22.4142 22.4142 22.75 22 22.75C21.5858 22.75 21.25 22.4142 21.25 22V20.9883C21.25 20.2191 21.2448 19.9566 21.1875 19.7178C21.1324 19.4882 21.0413 19.2687 20.918 19.0674C20.7896 18.8579 20.6076 18.6681 20.0635 18.124L19.3614 17.4219C18.4191 20.2876 15.8527 22.4148 12.75 22.7129V17C12.75 16.5858 12.4142 16.25 12 16.25C11.5858 16.25 11.25 16.5858 11.25 17V22.7129C8.14722 22.4148 5.57991 20.2877 4.63773 17.4219L3.93656 18.124C3.39248 18.6681 3.21042 18.8579 3.08207 19.0674C2.95873 19.2687 2.86764 19.4882 2.81253 19.7178C2.75525 19.9566 2.75003 20.2191 2.75003 20.9883V22C2.75003 22.4142 2.41425 22.75 2.00003 22.75C1.58585 22.75 1.25003 22.4142 1.25003 22V20.9883C1.25003 20.2902 1.24512 19.8188 1.35355 19.3672C1.44541 18.9846 1.59717 18.6187 1.80277 18.2832C2.04545 17.8872 2.38246 17.557 2.87601 17.0635L4.27933 15.6592C4.26102 15.4418 4.25003 15.2221 4.25003 15V12C4.25003 11.1776 4.37891 10.3853 4.61624 9.6416C4.58571 9.62331 4.55463 9.60506 4.5264 9.58203L4.46976 9.53027L2.87601 7.93652C2.38246 7.44297 2.04545 7.11278 1.80277 6.7168C1.59717 6.38129 1.44541 6.01543 1.35355 5.63281C1.24512 5.18116 1.25003 4.70978 1.25003 4.01172V3C1.25003 2.58581 1.58585 2.25004 2.00003 2.25C2.41425 2.25 2.75003 2.58579 2.75003 3V4.01172C2.75003 4.78086 2.75525 5.04344 2.81253 5.28223C2.86764 5.51178 2.95873 5.73133 3.08207 5.93262C3.21042 6.14207 3.39248 6.3319 3.93656 6.87598L5.25101 8.19043C5.95634 6.94355 6.99633 5.91138 8.25003 5.2168V5C8.25003 2.92895 9.929 1.25004 12 1.25ZM12 2.75C10.9044 2.75003 9.99265 3.53332 9.79203 4.57031C10.4919 4.36264 11.2328 4.25001 12 4.25C12.7669 4.25 13.5075 4.36282 14.2071 4.57031C14.0064 3.53339 13.0956 2.75 12 2.75Z" fill="currentColor" />
</svg>