<svg xmlns="http://www.w3.org/2000/svg" width="24" height="24" viewBox="0 0 24 24" fill="none">
<path d="M2.46967 2.46973C2.74427 2.19512 3.17899 2.17766 3.47358 2.41797L3.53022 2.46973L20.5302 19.4697L20.582 19.5264C20.8223 19.8209 20.8048 20.2557 20.5302 20.5303C20.2556 20.8049 19.8209 20.8223 19.5263 20.582L19.4697 20.5303L16.4218 17.4824C15.9999 17.9637 15.7499 18.5428 15.7499 19.127C15.7499 21.1279 14.1278 22.7499 12.1269 22.75H11.8876C9.8786 22.75 8.24994 21.1213 8.24994 19.1123C8.24994 18.3764 7.86161 17.6476 7.22651 17.1162C5.72303 15.8583 3.24994 13.3097 3.24994 10C3.24994 8.3697 3.69618 6.8418 4.47358 5.53418L2.46967 3.53027C2.17678 3.23738 2.17678 2.76262 2.46967 2.46973ZM11.9999 1.25C16.8324 1.25 20.7499 5.16751 20.7499 10C20.7499 11.7184 20.1021 13.2155 19.2871 14.4199C19.0549 14.763 18.5891 14.8532 18.246 14.6211C17.9031 14.389 17.8131 13.9231 18.0449 13.5801C18.7485 12.5403 19.2499 11.3317 19.2499 10C19.2499 5.99594 16.004 2.75 11.9999 2.75C10.4868 2.75 9.08432 3.21327 7.92279 4.00488C7.58052 4.23816 7.11311 4.14892 6.87983 3.80664C6.64699 3.46447 6.73512 2.99786 7.07709 2.76465C8.47976 1.80865 10.1759 1.25 11.9999 1.25Z" fill="currentColor" />
</svg>