<svg xmlns="http://www.w3.org/2000/svg" width="24" height="24" viewBox="0 0 24 24" fill="none">
<path opacity={0.32} d="M10.85 1.25C7.48969 1.25 5.80953 1.25 4.52606 1.90396C3.39708 2.4792 2.4792 3.39708 1.90396 4.52606C1.25 5.80953 1.25 7.48969 1.25 10.85V13.15C1.25 16.5103 1.25 18.1905 1.90396 19.4739C2.4792 20.6029 3.39708 21.5208 4.52606 22.096C5.80953 22.75 7.48969 22.75 10.85 22.75H13.15C16.5103 22.75 18.1905 22.75 19.4739 22.096C20.6029 21.5208 21.5208 20.6029 22.096 19.4739C22.75 18.1905 22.75 16.5103 22.75 13.15V10.85C22.75 7.48969 22.75 5.80953 22.096 4.52606C21.5208 3.39708 20.6029 2.4792 19.4739 1.90396C18.1905 1.25 16.5103 1.25 13.15 1.25H10.85Z" fill="currentColor" /><path d="M13.667 13C15.5077 13.0002 16.9998 14.4923 17 16.333C17 17.2535 16.2535 18 15.333 18H8.66699C7.74652 18 7 17.2535 7 16.333C7.00018 14.4923 8.49232 13.0002 10.333 13H13.667ZM12 5C13.6569 5 15 6.34315 15 8C15 9.65685 13.6569 11 12 11C10.3431 11 9 9.65685 9 8C9 6.34315 10.3431 5 12 5ZM8 0.25C8.41421 0.25 8.75 0.585786 8.75 1V4C8.75 4.41421 8.41421 4.75 8 4.75C7.58579 4.75 7.25 4.41421 7.25 4V1C7.25 0.585786 7.58579 0.25 8 0.25ZM16 0.25C16.4142 0.25 16.75 0.585786 16.75 1V4C16.75 4.41421 16.4142 4.75 16 4.75C15.5858 4.75 15.25 4.41421 15.25 4V1C15.25 0.585786 15.5858 0.25 16 0.25Z" fill="currentColor" />
</svg>