<svg xmlns="http://www.w3.org/2000/svg" width="24" height="24" viewBox="0 0 24 24" fill="none">
<path d="M2 8V7.5C2 4.46243 4.46243 2 7.5 2H12.4C15.7603 2 17.4405 2 18.7239 2.65396C19.8529 3.2292 20.7708 4.14708 21.346 5.27606C22 6.55953 22 8.23969 22 11.6V12.4C22 15.7603 22 17.4405 21.346 18.7239C20.7708 19.8529 19.8529 20.7708 18.7239 21.346C17.4405 22 15.7603 22 12.4 22H10.5C8.17293 22 7.0094 22 6.07136 21.6816C4.30502 21.082 2.91801 19.695 2.31842 17.9286C2 16.9906 2 15.8271 2 13.5V13M8 1V4M16 1V4M9 15L12 12M12 12L15 9M12 12L9 9M12 12L15 15" stroke="currentColor" stroke-width={1.5} stroke-linecap="round" stroke-linejoin="round" />
</svg>