<svg xmlns="http://www.w3.org/2000/svg" width="40" height="40" viewBox="0 0 40 40" fill="none">
<path d="M13.333 1.6665V6.6665M26.6663 1.6665V6.6665M29.1663 13.3332H10.833M13.333 20.8332C13.333 21.2934 12.9599 21.6665 12.4997 21.6665C12.0394 21.6665 11.6663 21.2934 11.6663 20.8332M13.333 20.8332C13.333 20.3729 12.9599 19.9998 12.4997 19.9998C12.0394 19.9998 11.6663 20.3729 11.6663 20.8332M13.333 20.8332H11.6663M13.333 27.4998C13.333 27.9601 12.9599 28.3332 12.4997 28.3332C12.0394 28.3332 11.6663 27.9601 11.6663 27.4998M13.333 27.4998C13.333 27.0396 12.9599 26.6665 12.4997 26.6665C12.0394 26.6665 11.6663 27.0396 11.6663 27.4998M13.333 27.4998H11.6663M20.833 20.8332C20.833 21.2934 20.4599 21.6665 19.9997 21.6665C19.5394 21.6665 19.1663 21.2934 19.1663 20.8332M20.833 20.8332C20.833 20.3729 20.4599 19.9998 19.9997 19.9998C19.5394 19.9998 19.1663 20.3729 19.1663 20.8332M20.833 20.8332H19.1663M20.833 27.4998C20.833 27.9601 20.4599 28.3332 19.9997 28.3332C19.5394 28.3332 19.1663 27.9601 19.1663 27.4998M20.833 27.4998C20.833 27.0396 20.4599 26.6665 19.9997 26.6665C19.5394 26.6665 19.1663 27.0396 19.1663 27.4998M20.833 27.4998H19.1663M28.333 20.8332C28.333 21.2934 27.9599 21.6665 27.4997 21.6665C27.0394 21.6665 26.6663 21.2934 26.6663 20.8332M28.333 20.8332C28.333 20.3729 27.9599 19.9998 27.4997 19.9998C27.0394 19.9998 26.6663 20.3729 26.6663 20.8332M28.333 20.8332H26.6663M28.333 27.4998C28.333 27.9601 27.9599 28.3332 27.4997 28.3332C27.0394 28.3332 26.6663 27.9601 26.6663 27.4998M28.333 27.4998C28.333 27.0396 27.9599 26.6665 27.4997 26.6665C27.0394 26.6665 26.6663 27.0396 26.6663 27.4998M28.333 27.4998H26.6663M19.333 36.6665H20.6663C26.2669 36.6665 29.0671 36.6665 31.2062 35.5766C33.0879 34.6178 34.6177 33.088 35.5764 31.2064C36.6663 29.0673 36.6663 26.267 36.6663 20.6665V19.3332C36.6663 13.7326 36.6663 10.9324 35.5764 8.79327C34.6177 6.91164 33.0879 5.38184 31.2062 4.42311C29.0671 3.33317 26.2669 3.33317 20.6663 3.33317H19.333C13.7325 3.33317 10.9322 3.33317 8.7931 4.42311C6.91148 5.38184 5.38168 6.91164 4.42294 8.79327C3.33301 10.9324 3.33301 13.7326 3.33301 19.3332V20.6665C3.33301 26.267 3.33301 29.0673 4.42294 31.2064C5.38168 33.088 6.91148 34.6178 8.7931 35.5766C10.9322 36.6665 13.7325 36.6665 19.333 36.6665Z" stroke="currentColor" stroke-width={2.5} stroke-linecap="round" stroke-linejoin="round" />
</svg>