<svg xmlns="http://www.w3.org/2000/svg" width="24" height="24" viewBox="0 0 24 24" fill="none">
<path d="M16 0.25C16.4142 0.25 16.75 0.585786 16.75 1V1.30762C17.9265 1.37957 18.7611 1.5413 19.4736 1.9043C20.6026 2.47954 21.5205 3.39739 22.0957 4.52637C22.7496 5.80977 22.75 7.48965 22.75 10.8496V13.1504C22.75 16.5103 22.7496 18.1902 22.0957 19.4736C21.5205 20.6026 20.6026 21.5205 19.4736 22.0957C18.1902 22.7496 16.5103 22.75 13.1504 22.75H10.8496C7.48965 22.75 5.80977 22.7496 4.52637 22.0957C3.39739 21.5205 2.47954 20.6026 1.9043 19.4736C1.25042 18.1902 1.25 16.5103 1.25 13.1504V10.8496C1.25 7.48965 1.25042 5.80977 1.9043 4.52637C2.47954 3.39739 3.39739 2.47954 4.52637 1.9043C5.23885 1.5413 6.07352 1.37957 7.25 1.30762V1C7.25 0.585786 7.58579 0.25 8 0.25C8.41421 0.25 8.75 0.585786 8.75 1V1.25879C9.3688 1.25037 10.0632 1.25 10.8496 1.25H13.1504C13.9368 1.25 14.6312 1.25037 15.25 1.25879V1C15.25 0.585786 15.5858 0.25 16 0.25ZM10.333 13C8.49232 13.0002 7.00018 14.4923 7 16.333C7 17.2535 7.74652 18 8.66699 18H15.333C16.2535 18 17 17.2535 17 16.333C16.9998 14.4923 15.5077 13.0002 13.667 13H10.333ZM12 5C10.3431 5 9 6.34315 9 8C9 9.65685 10.3431 11 12 11C13.6569 11 15 9.65685 15 8C15 6.34315 13.6569 5 12 5Z" fill="currentColor" />
</svg>