<svg xmlns="http://www.w3.org/2000/svg" width="24" height="24" viewBox="0 0 24 24" fill="none">
<path d="M16 0.25C16.4142 0.25 16.75 0.585786 16.75 1V1.30762C17.9265 1.37957 18.7611 1.5413 19.4736 1.9043C20.6026 2.47954 21.5205 3.39739 22.0957 4.52637C22.7496 5.80977 22.75 7.48965 22.75 10.8496V13.1504C22.75 16.5103 22.7496 18.1902 22.0957 19.4736C21.5205 20.6026 20.6026 21.5205 19.4736 22.0957C18.1902 22.7496 16.5103 22.75 13.1504 22.75H10.8496C7.48965 22.75 5.80977 22.7496 4.52637 22.0957C3.39739 21.5205 2.47954 20.6026 1.9043 19.4736C1.25042 18.1902 1.25 16.5103 1.25 13.1504V10.8496C1.25 7.48965 1.25042 5.80977 1.9043 4.52637C2.47954 3.39739 3.39739 2.47954 4.52637 1.9043C5.23885 1.5413 6.07352 1.37957 7.25 1.30762V1C7.25 0.585786 7.58579 0.25 8 0.25C8.41421 0.25 8.75 0.585786 8.75 1V1.25879C9.3688 1.25037 10.0632 1.25 10.8496 1.25H13.1504C13.9368 1.25 14.6312 1.25037 15.25 1.25879V1C15.25 0.585786 15.5858 0.25 16 0.25ZM9 8.25C8.58579 8.25 8.25 8.58579 8.25 9C8.25 9.41421 8.58579 9.75 9 9.75H13.627L9.86914 15.5947C9.64532 15.9431 9.74636 16.4069 10.0947 16.6309C10.4431 16.8547 10.9069 16.7536 11.1309 16.4053L15.6309 9.40527C15.7791 9.17452 15.7896 8.88136 15.6582 8.64062C15.5267 8.39983 15.2743 8.25 15 8.25H9Z" fill="currentColor" />
</svg>