<svg xmlns="http://www.w3.org/2000/svg" width="40" height="40" viewBox="0 0 40 40" fill="none">
<path d="M26.666 0.416504C27.3563 0.416592 27.916 0.976202 27.916 1.6665V2.1792C29.877 2.29893 31.2686 2.56833 32.4561 3.17334C34.3375 4.13205 35.8675 5.66202 36.8262 7.54346C37.9159 9.68253 37.916 12.4833 37.916 18.0835V21.9165C37.916 27.5168 37.9161 30.3175 36.8262 32.4565C35.8674 34.3381 34.3376 35.868 32.4561 36.8267C30.317 37.9166 27.5164 37.9165 21.916 37.9165H18.083C12.4827 37.9165 9.68205 37.9165 7.54297 36.8267C5.66155 35.868 4.13156 34.3379 3.17285 32.4565C2.08303 30.3175 2.08301 27.5166 2.08301 21.9165V18.0835C2.08301 12.4831 2.08301 9.68255 3.17285 7.54346C4.13158 5.66189 5.6614 4.13206 7.54297 3.17334C8.73055 2.56824 10.1218 2.29891 12.083 2.1792V1.6665C12.083 0.976148 12.6427 0.416504 13.333 0.416504C14.0233 0.416592 14.583 0.976202 14.583 1.6665V2.09814C15.6145 2.08418 16.7721 2.0835 18.083 2.0835H21.916C23.227 2.0835 24.3845 2.08416 25.416 2.09814V1.6665C25.416 0.976256 25.9758 0.41668 26.666 0.416504ZM12.5 25.4165C11.4212 25.4165 10.5333 26.2369 10.4268 27.2876L10.416 27.5005L10.4268 27.7134C10.5337 28.7637 11.4215 29.5835 12.5 29.5835C13.6501 29.5831 14.5827 28.6506 14.583 27.5005C14.5829 26.4221 13.7631 25.5342 12.7129 25.4272L12.5 25.4165ZM20 25.4165C18.9212 25.4165 18.0333 26.2369 17.9268 27.2876L17.916 27.5005L17.9268 27.7134C18.0337 28.7637 18.9215 29.5835 20 29.5835C21.1501 29.5831 22.0827 28.6506 22.083 27.5005C22.0829 26.4221 21.2631 25.5342 20.2129 25.4272L20 25.4165ZM27.5 25.4165C26.4212 25.4165 25.5333 26.2369 25.4268 27.2876L25.416 27.5005L25.4268 27.7134C25.5337 28.7637 26.4215 29.5835 27.5 29.5835C28.6501 29.5831 29.5827 28.6506 29.583 27.5005C29.5829 26.4221 28.7631 25.5342 27.7129 25.4272L27.5 25.4165ZM12.5 18.7505C11.4213 18.7505 10.5335 19.5701 10.4268 20.6206L10.416 20.8335L10.4268 21.0464C10.5335 22.0968 11.4214 22.9165 12.5 22.9165C13.6502 22.9162 14.5828 21.9837 14.583 20.8335C14.5829 19.7551 13.7631 18.8682 12.7129 18.7612L12.5 18.7505ZM20 18.7505C18.9213 18.7505 18.0335 19.5701 17.9268 20.6206L17.916 20.8335L17.9268 21.0464C18.0335 22.0968 18.9214 22.9165 20 22.9165C21.1502 22.9162 22.0828 21.9837 22.083 20.8335C22.0829 19.7551 21.2631 18.8682 20.2129 18.7612L20 18.7505ZM27.5 18.7505C26.4213 18.7505 25.5335 19.5701 25.4268 20.6206L25.416 20.8335L25.4268 21.0464C25.5335 22.0968 26.4214 22.9165 27.5 22.9165C28.6502 22.9162 29.5828 21.9837 29.583 20.8335C29.5829 19.7551 28.7631 18.8682 27.7129 18.7612L27.5 18.7505ZM10.833 12.0835C10.1427 12.0835 9.5831 12.6432 9.58301 13.3335C9.58318 14.0237 10.1428 14.5835 10.833 14.5835H29.166C29.8561 14.5833 30.4158 14.0236 30.416 13.3335C30.4159 12.6433 29.8562 12.0837 29.166 12.0835H10.833Z" fill="currentColor" />
</svg>