<svg xmlns="http://www.w3.org/2000/svg" width="40" height="40" viewBox="0 0 40 40" fill="none">
<path d="M13.334 1.6665V6.6665M26.6673 1.6665V6.6665M29.1673 13.3332H10.834H4.76256C3.97358 13.3332 3.33398 12.6936 3.33398 11.9046C3.33398 7.17073 7.17154 3.33317 11.9054 3.33317H20.6673C26.2678 3.33317 29.0681 3.33317 31.2072 4.42311C33.0888 5.38184 34.6186 6.91164 35.5774 8.79327C36.6673 10.9324 36.6673 13.7326 36.6673 19.3332V20.6665C36.6673 26.267 36.6673 29.0673 35.5774 31.2064C34.6186 33.088 33.0888 34.6178 31.2072 35.5766C29.0681 36.6665 26.2678 36.6665 20.6673 36.6665H19.1673C13.724 36.6665 11.0023 36.6665 8.9111 35.6352C6.93677 34.6616 5.33889 33.0637 4.36526 31.0894C3.33398 28.9982 3.33398 26.2765 3.33398 20.8332V19.9998M13.334 20.8332C13.334 21.2934 12.9609 21.6665 12.5007 21.6665C12.0404 21.6665 11.6673 21.2934 11.6673 20.8332M13.334 20.8332C13.334 20.3729 12.9609 19.9998 12.5007 19.9998C12.0404 19.9998 11.6673 20.3729 11.6673 20.8332M13.334 20.8332H11.6673M13.334 27.4998C13.334 27.9601 12.9609 28.3332 12.5007 28.3332C12.0404 28.3332 11.6673 27.9601 11.6673 27.4998M13.334 27.4998C13.334 27.0396 12.9609 26.6665 12.5007 26.6665C12.0404 26.6665 11.6673 27.0396 11.6673 27.4998M13.334 27.4998H11.6673M20.834 20.8332C20.834 21.2934 20.4609 21.6665 20.0007 21.6665C19.5404 21.6665 19.1673 21.2934 19.1673 20.8332M20.834 20.8332C20.834 20.3729 20.4609 19.9998 20.0007 19.9998C19.5404 19.9998 19.1673 20.3729 19.1673 20.8332M20.834 20.8332H19.1673M20.834 27.4998C20.834 27.9601 20.4609 28.3332 20.0007 28.3332C19.5404 28.3332 19.1673 27.9601 19.1673 27.4998M20.834 27.4998C20.834 27.0396 20.4609 26.6665 20.0007 26.6665C19.5404 26.6665 19.1673 27.0396 19.1673 27.4998M20.834 27.4998H19.1673M28.334 20.8332C28.334 21.2934 27.9609 21.6665 27.5007 21.6665C27.0404 21.6665 26.6673 21.2934 26.6673 20.8332M28.334 20.8332C28.334 20.3729 27.9609 19.9998 27.5007 19.9998C27.0404 19.9998 26.6673 20.3729 26.6673 20.8332M28.334 20.8332H26.6673M28.334 27.4998C28.334 27.9601 27.9609 28.3332 27.5007 28.3332C27.0404 28.3332 26.6673 27.9601 26.6673 27.4998M28.334 27.4998C28.334 27.0396 27.9609 26.6665 27.5007 26.6665C27.0404 26.6665 26.6673 27.0396 26.6673 27.4998M28.334 27.4998H26.6673" stroke="currentColor" stroke-width={2.5} stroke-linecap="round" stroke-linejoin="round" />
</svg>