<svg xmlns="http://www.w3.org/2000/svg" width="24" height="24" viewBox="0 0 24 24" fill="none">
<path d="M5.0883 1.24986C6.08396 1.24986 6.58193 1.25028 7.00237 1.40611C7.48741 1.58593 7.90465 1.91174 8.1967 2.33872C8.44976 2.70875 8.57054 3.1915 8.81194 4.15708L9.02776 5.01841C9.31815 6.17999 9.4627 6.7609 9.44084 7.33091C9.42147 7.83576 9.30718 8.33268 9.10295 8.79478C8.87233 9.31654 8.48624 9.77497 7.71526 10.6913L7.22112 11.2782C6.6867 11.9133 6.41971 12.2312 6.30217 12.6415C6.20893 12.967 6.20993 13.4236 6.30412 13.7489C6.42286 14.1586 6.64739 14.4246 7.09709 14.9559C7.63148 15.5872 8.21163 16.1762 8.83342 16.7206C9.34004 17.1641 9.59322 17.3859 9.98772 17.5126C10.301 17.6131 10.7429 17.6299 11.0629 17.5536C11.4658 17.4574 11.7869 17.217 12.4291 16.7362L13.3998 16.0096C14.2947 15.3396 14.7424 15.0044 15.2406 14.8075C15.682 14.6331 16.1509 14.5383 16.6254 14.5282C17.161 14.5168 17.7032 14.6526 18.7875 14.9237L19.8422 15.1874C20.8081 15.4288 21.2915 15.5494 21.6615 15.8026C22.0884 16.0946 22.4144 16.512 22.5942 16.9969C22.75 17.4173 22.7494 17.9156 22.7494 18.911C22.7494 20.1363 22.7493 20.7497 22.4975 21.2674C22.2284 21.8202 21.6469 22.3363 21.0658 22.537C20.5216 22.7249 19.9872 22.6601 18.9194 22.5311C15.875 22.1632 12.9305 21.2933 10.2621 19.6376C7.73451 18.0692 5.66344 15.95 4.1469 13.3807C2.62467 10.8017 1.81686 7.98585 1.46721 5.07993C1.33867 4.01161 1.27445 3.47729 1.46233 2.93345C1.66321 2.35233 2.17891 1.77079 2.73186 1.50181C3.24948 1.25012 3.86259 1.24986 5.0883 1.24986ZM18.4701 2.46958C18.7631 2.17697 19.2379 2.1768 19.5307 2.46958L22.5307 5.46958C22.8234 5.76239 22.8233 6.23726 22.5307 6.53013L19.5307 9.53013C19.2378 9.82295 18.763 9.82288 18.4701 9.53013C18.1773 9.23725 18.1773 8.76247 18.4701 8.46958L20.1899 6.74986H14.0004C13.5862 6.74986 13.2504 6.41407 13.2504 5.99986C13.2505 5.58572 13.5863 5.24986 14.0004 5.24986H20.1899L18.4701 3.53013L18.4184 3.47349C18.1781 3.17891 18.1956 2.74418 18.4701 2.46958Z" fill="currentColor" />
</svg>