<svg xmlns="http://www.w3.org/2000/svg" width="24" height="24" viewBox="0 0 24 24" fill="none">
<path d="M7.81392 10L7.61949 12.4774C7.57982 12.9829 7.55999 13.2356 7.48431 13.465C7.38925 13.7531 7.22989 14.0158 7.01829 14.2333C6.84983 14.4063 6.63485 14.5407 6.20489 14.8094L6.04327 14.9104C5.3417 15.3489 4.99092 15.5682 4.6513 15.6421C4.03159 15.7771 3.38459 15.6102 2.90757 15.1922C2.64616 14.9631 2.44526 14.6015 2.04348 13.8783C1.75798 13.3644 1.61523 13.1074 1.55285 12.8146C1.44828 12.3237 1.57259 11.6891 1.85464 11.2739C2.02291 11.0263 2.21451 10.8723 2.59771 10.5645C4.35408 9.15339 6.1927 8.19379 8 7.62891C9.36767 7.20143 10.7174 7 12 7C13.2826 7 14.6323 7.20143 16 7.62891C17.8073 8.1938 19.6459 9.15342 21.4023 10.5646C21.7855 10.8724 21.9771 11.0263 22.1454 11.274C22.4274 11.6892 22.5517 12.3238 22.4471 12.8147C22.3848 13.1075 22.242 13.3644 21.9565 13.8783C21.5547 14.6015 21.3539 14.9631 21.0924 15.1922C20.6154 15.6102 19.9684 15.7771 19.3487 15.6421C19.0091 15.5682 18.6583 15.3489 17.9568 14.9105L17.7951 14.8094C17.3651 14.5407 17.1502 14.4063 16.9817 14.2332C16.7701 14.0158 16.6108 13.7531 16.5157 13.465C16.44 13.2356 16.4202 12.9829 16.3805 12.4774L16.1861 10" stroke="currentColor" stroke-width={1.5} stroke-linecap="round" stroke-linejoin="round" />
</svg>