<svg xmlns="http://www.w3.org/2000/svg" width="24" height="24" viewBox="0 0 24 24" fill="none">
<path d="M12.0004 11.25C12.4145 11.2501 12.7504 11.5858 12.7504 12V18.1895L14.4701 16.4697C14.763 16.1769 15.2378 16.1769 15.5307 16.4697C15.8234 16.7626 15.8234 17.2374 15.5307 17.5303L12.5307 20.5303C12.2378 20.8231 11.763 20.8231 11.4701 20.5303L8.47011 17.5303C8.17722 17.2374 8.17722 16.7626 8.47011 16.4697C8.74472 16.1952 9.17947 16.1777 9.47402 16.418L9.53066 16.4697L11.2504 18.1895V12C11.2504 11.5858 11.5862 11.25 12.0004 11.25ZM12.0004 4.25C13.3614 4.25 14.7864 4.46375 16.224 4.91309C18.3819 5.58756 20.2839 6.72191 22.0014 8.12207C22.292 8.35897 22.4374 8.47743 22.5951 8.66895C23.1568 9.35096 23.3078 10.4772 22.9457 11.2832C22.844 11.5095 22.7047 11.7048 22.4262 12.0947C22.091 12.564 21.9228 12.799 21.7416 12.9688C21.0465 13.6194 20.0417 13.8192 19.1508 13.4834C18.9183 13.3957 18.6733 13.2424 18.184 12.9365L18.0346 12.8428C17.4806 12.4965 17.2033 12.3238 16.9682 12.1201C16.3498 11.5845 15.9103 10.8721 15.7094 10.0791C15.633 9.7775 15.6029 9.45214 15.5424 8.80176L15.5014 8.35938C15.4338 7.63308 15.3994 7.26985 15.2182 6.92188C15.0538 6.60649 14.6946 6.24448 14.3803 6.07812C14.0335 5.89458 13.7481 5.86544 13.1771 5.80859C12.7788 5.76893 12.3859 5.75 12.0004 5.75C11.6149 5.75 11.222 5.76893 10.8236 5.80859C10.2527 5.86545 9.96731 5.89459 9.6205 6.07812C9.30618 6.24448 8.94694 6.60649 8.78261 6.92188C8.60135 7.26985 8.56702 7.63306 8.49941 8.35938L8.45839 8.80176C8.39785 9.45214 8.3678 9.7775 8.2914 10.0791C8.09051 10.8721 7.65094 11.5845 7.03261 12.1201C6.79745 12.3238 6.52015 12.4966 5.96621 12.8428L5.81679 12.9365C5.32747 13.2424 5.08249 13.3957 4.85 13.4834C3.95912 13.8192 2.95423 13.6194 2.25918 12.9688C2.07792 12.799 1.90981 12.564 1.57461 12.0947C1.29607 11.7048 1.15678 11.5095 1.05507 11.2832C0.692945 10.4772 0.843935 9.35098 1.40566 8.66895C1.5634 8.47742 1.70881 8.35897 1.99941 8.12207C3.71692 6.72194 5.61888 5.58754 7.77675 4.91309C9.21436 4.46377 10.6394 4.25 12.0004 4.25Z" fill="currentColor" />
</svg>