<svg xmlns="http://www.w3.org/2000/svg" width="24" height="24" viewBox="0 0 24 24" fill="none">
<path d="M5.08802 1.24986C6.0836 1.24986 6.58167 1.25031 7.00208 1.40611C7.48722 1.58591 7.90529 1.91168 8.19739 2.33872C8.45034 2.70873 8.57127 3.19165 8.81263 4.15708L9.02747 5.01841C9.31788 6.18004 9.46339 6.7609 9.44153 7.33091C9.42216 7.83576 9.3069 8.33268 9.10267 8.79478C8.87204 9.31649 8.48686 9.77505 7.71595 10.6913L7.22181 11.2782C6.68725 11.9135 6.41942 12.2311 6.30189 12.6415C6.20864 12.967 6.20964 13.4236 6.30384 13.7489C6.42259 14.1587 6.64788 14.4244 7.09778 14.9559C7.63212 15.5872 8.21141 16.1762 8.83314 16.7206C9.33967 17.164 9.59307 17.3859 9.98743 17.5126C10.3007 17.6131 10.7426 17.6299 11.0626 17.5536C11.4656 17.4574 11.7873 17.2173 12.4298 16.7362L13.3995 16.0096C14.2944 15.3396 14.7421 15.0044 15.2404 14.8075C15.6817 14.633 16.1507 14.5383 16.6251 14.5282C17.1608 14.5167 17.7036 14.6525 18.7882 14.9237L19.8419 15.1874C20.8078 15.4288 21.2912 15.5495 21.6613 15.8026C22.0882 16.0946 22.414 16.512 22.5939 16.9969C22.7497 17.4173 22.7501 17.9156 22.7501 18.911C22.7501 20.1363 22.75 20.7497 22.4982 21.2674C22.2291 21.8203 21.6468 22.3363 21.0656 22.537C20.5215 22.7247 19.9875 22.6601 18.9201 22.5311C15.8755 22.1632 12.9304 21.2934 10.2618 19.6376C7.73429 18.0692 5.66312 15.95 4.14661 13.3807C2.62445 10.8017 1.81656 7.98579 1.46693 5.07993C1.33837 4.01152 1.27507 3.47734 1.46302 2.93345C1.66394 2.35222 2.17949 1.77073 2.73255 1.50181C3.25008 1.25024 3.8627 1.24986 5.08802 1.24986ZM21.0001 2.24986C21.4142 2.25 21.75 2.5858 21.7501 2.99986V7.99986C21.7501 8.41398 21.4142 8.74971 21.0001 8.74986C20.5859 8.74986 20.2501 8.41407 20.2501 7.99986V4.8104L15.5304 9.53013C15.2375 9.823 14.7628 9.82296 14.4699 9.53013C14.177 9.23724 14.177 8.76248 14.4699 8.46958L19.1896 3.74986H16.0001C15.5859 3.74986 15.2501 3.41407 15.2501 2.99986C15.2502 2.58571 15.586 2.24986 16.0001 2.24986H21.0001Z" fill="currentColor" />
</svg>