<svg xmlns="http://www.w3.org/2000/svg" width="24" height="24" viewBox="0 0 24 24" fill="none">
<path d="M5.08802 1.24988C6.08361 1.24988 6.58166 1.25033 7.00208 1.40613C7.48722 1.58593 7.90529 1.9117 8.1974 2.33875C8.45033 2.70875 8.57127 3.19168 8.81263 4.1571L9.02747 5.01843C9.31788 6.18006 9.46339 6.76092 9.44154 7.33093C9.42216 7.83578 9.3069 8.3327 9.10267 8.7948C8.87204 9.31651 8.48687 9.77507 7.71595 10.6913L7.22181 11.2782C6.68725 11.9135 6.41942 12.2311 6.30189 12.6415C6.20865 12.9671 6.20964 13.4236 6.30384 13.7489C6.4226 14.1587 6.64788 14.4244 7.09779 14.9559C7.63212 15.5872 8.21141 16.1762 8.83314 16.7206C9.33968 17.1641 9.59306 17.3859 9.98743 17.5126C10.3007 17.6131 10.7426 17.6299 11.0626 17.5536C11.4656 17.4575 11.7873 17.2173 12.4298 16.7362L13.3995 16.0096C14.2944 15.3396 14.7421 15.0044 15.2404 14.8075C15.6817 14.6331 16.1507 14.5384 16.6251 14.5282C17.1608 14.5168 17.7036 14.6526 18.7882 14.9237L19.8419 15.1874C20.8078 15.4288 21.2912 15.5495 21.6613 15.8026C22.0882 16.0946 22.414 16.512 22.5939 16.9969C22.7497 17.4173 22.7501 17.9156 22.7501 18.911C22.7501 20.1363 22.75 20.7497 22.4982 21.2675C22.2291 21.8204 21.6468 22.3363 21.0656 22.537C20.5215 22.7247 19.9875 22.6601 18.9201 22.5311C15.8755 22.1632 12.9304 21.2934 10.2618 19.6376C7.73429 18.0692 5.66312 15.95 4.14661 13.3807C2.62445 10.8017 1.81656 7.98581 1.46693 5.07996C1.33837 4.01154 1.27506 3.47737 1.46302 2.93347C1.66394 2.35224 2.17949 1.77075 2.73255 1.50183C3.25008 1.25027 3.8627 1.24988 5.08802 1.24988ZM16.0001 3.24988C16.4142 3.25002 16.7501 3.58575 16.7501 3.99988V7.99988C16.7501 8.414 16.4142 8.74974 16.0001 8.74988C15.5859 8.74988 15.2501 8.41409 15.2501 7.99988V3.99988C15.2501 3.58566 15.5859 3.24988 16.0001 3.24988ZM20.0001 3.24988C20.4142 3.25002 20.7501 3.58575 20.7501 3.99988V7.99988C20.7501 8.414 20.4142 8.74974 20.0001 8.74988C19.5859 8.74988 19.2501 8.41409 19.2501 7.99988V3.99988C19.2501 3.58566 19.5859 3.24988 20.0001 3.24988Z" fill="currentColor" />
</svg>