<svg xmlns="http://www.w3.org/2000/svg" width="24" height="24" viewBox="0 0 24 24" fill="none">
<path d="M12.0001 11.25C13.3611 11.25 14.7862 11.4638 16.2238 11.9131C18.3817 12.5876 20.2836 13.7219 22.0011 15.1221C22.2917 15.359 22.4371 15.4774 22.5949 15.6689C23.1566 16.351 23.3075 17.4772 22.9455 18.2832C22.8438 18.5095 22.7044 18.7048 22.4259 19.0947C22.0907 19.564 21.9226 19.799 21.7414 19.9688C21.0463 20.6194 20.0414 20.8192 19.1505 20.4834C18.918 20.3957 18.6731 20.2424 18.1837 19.9365L18.0343 19.8428C17.4804 19.4965 17.2031 19.3238 16.9679 19.1201C16.3496 18.5845 15.91 17.8721 15.7091 17.0791C15.6327 16.7775 15.6027 16.4521 15.5421 15.8018L15.5011 15.3594C15.4335 14.6331 15.3992 14.2698 15.2179 13.9219C15.0536 13.6065 14.6943 13.2445 14.38 13.0781C14.0332 12.8946 13.7478 12.8654 13.1769 12.8086C12.7786 12.7689 12.3856 12.75 12.0001 12.75C11.6147 12.75 11.2217 12.7689 10.8234 12.8086C10.2524 12.8654 9.96707 12.8946 9.62026 13.0781C9.30594 13.2445 8.9467 13.6065 8.78237 13.9219C8.60111 14.2699 8.56678 14.6331 8.49917 15.3594L8.45815 15.8018C8.39761 16.4521 8.36756 16.7775 8.29116 17.0791C8.09026 17.8721 7.6507 18.5845 7.03237 19.1201C6.7972 19.3238 6.51991 19.4966 5.96596 19.8428L5.81655 19.9365C5.32722 20.2424 5.08224 20.3957 4.84975 20.4834C3.95887 20.8192 2.95399 20.6194 2.25893 19.9688C2.07767 19.799 1.90957 19.564 1.57436 19.0947C1.29583 18.7048 1.15654 18.5095 1.05483 18.2832C0.692701 17.4772 0.843691 16.351 1.40542 15.6689C1.56316 15.4774 1.70856 15.359 1.99917 15.1221C3.71667 13.7219 5.61864 12.5875 7.77651 11.9131C9.21412 11.4638 10.6392 11.25 12.0001 11.25ZM11.0001 3.25C11.4144 3.25 11.7501 3.58579 11.7501 4C11.7501 4.41421 11.4144 4.75 11.0001 4.75H8.81069L10.2677 6.20703C10.6724 6.61176 10.9447 6.88308 11.171 7.0752C11.3902 7.26126 11.5168 7.32889 11.6134 7.36035C11.8645 7.44192 12.1358 7.44191 12.3869 7.36035C12.4834 7.32889 12.61 7.26127 12.8292 7.0752C13.0555 6.88308 13.3278 6.61176 13.7326 6.20703L15.9699 3.96973C16.2628 3.67684 16.7375 3.67685 17.0304 3.96973C17.3233 4.26262 17.3233 4.73738 17.0304 5.03027L14.7931 7.26758C14.4059 7.65481 14.0838 7.97778 13.7999 8.21875C13.5094 8.46534 13.2097 8.67017 12.8498 8.78711C12.2976 8.96647 11.7027 8.96647 11.1505 8.78711C10.7906 8.67016 10.4908 8.46534 10.2003 8.21875C9.91648 7.97777 9.59441 7.65481 9.20717 7.26758L7.75014 5.81055V8C7.75014 8.41421 7.41436 8.75 7.00014 8.75C6.58595 8.74998 6.25014 8.4142 6.25014 8V4C6.25014 3.5858 6.58595 3.25002 7.00014 3.25H11.0001Z" fill="currentColor" />
</svg>