<svg xmlns="http://www.w3.org/2000/svg" width="24" height="24" viewBox="0 0 24 24" fill="none">
<path d="M5.08802 1.25C6.08361 1.25 6.58166 1.25045 7.00208 1.40625C7.48722 1.58606 7.90529 1.91182 8.1974 2.33887C8.45033 2.70887 8.57127 3.1918 8.81263 4.15723L9.02747 5.01855C9.31788 6.18018 9.46339 6.76104 9.44154 7.33105C9.42216 7.8359 9.3069 8.33282 9.10267 8.79492C8.87204 9.31663 8.48687 9.77519 7.71595 10.6914L7.22181 11.2783C6.68725 11.9136 6.41942 12.2312 6.30189 12.6416C6.20865 12.9672 6.20964 13.4237 6.30384 13.749C6.4226 14.1588 6.64788 14.4245 7.09779 14.9561C7.63212 15.5873 8.21141 16.1764 8.83314 16.7207C9.33968 17.1642 9.59306 17.3861 9.98743 17.5127C10.3007 17.6132 10.7426 17.63 11.0626 17.5537C11.4656 17.4576 11.7873 17.2174 12.4298 16.7363L13.3995 16.0098C14.2944 15.3397 14.7421 15.0046 15.2404 14.8076C15.6817 14.6332 16.1507 14.5385 16.6251 14.5283C17.1608 14.5169 17.7036 14.6527 18.7882 14.9238L19.8419 15.1875C20.8078 15.429 21.2912 15.5496 21.6613 15.8027C22.0882 16.0947 22.414 16.5121 22.5939 16.9971C22.7497 17.4175 22.7501 17.9157 22.7501 18.9111C22.7501 20.1364 22.75 20.7498 22.4982 21.2676C22.2291 21.8205 21.6468 22.3364 21.0656 22.5371C20.5215 22.7249 19.9875 22.6602 18.9201 22.5312C15.8755 22.1633 12.9304 21.2935 10.2618 19.6377C7.73429 18.0693 5.66312 15.9501 4.14661 13.3809C2.62445 10.8019 1.81656 7.98593 1.46693 5.08008C1.33837 4.01166 1.27506 3.47749 1.46302 2.93359C1.66394 2.35237 2.17949 1.77087 2.73255 1.50195C3.25008 1.25039 3.8627 1.25 5.08802 1.25ZM20.4699 2.46973C20.7628 2.17697 21.2376 2.17688 21.5304 2.46973C21.8231 2.76259 21.8231 3.23741 21.5304 3.53027L16.8107 8.25H20.0001C20.4142 8.25015 20.7501 8.58588 20.7501 9C20.7501 9.41412 20.4142 9.74985 20.0001 9.75H15.0001C14.5859 9.75 14.2501 9.41421 14.2501 9V4C14.2501 3.58579 14.5859 3.25 15.0001 3.25C15.4142 3.25015 15.7501 3.58588 15.7501 4V7.18945L20.4699 2.46973Z" fill="currentColor" />
</svg>