<svg xmlns="http://www.w3.org/2000/svg" width="24" height="24" viewBox="0 0 24 24" fill="none">
<path d="M5.08802 1.24985C6.08361 1.24985 6.58166 1.2503 7.00208 1.4061C7.48722 1.5859 7.90529 1.91167 8.1974 2.33871C8.45033 2.70872 8.57127 3.19165 8.81263 4.15707L9.02747 5.0184C9.31788 6.18003 9.46339 6.76089 9.44154 7.3309C9.42216 7.83575 9.3069 8.33267 9.10267 8.79477C8.87204 9.31648 8.48687 9.77504 7.71595 10.6913L7.22181 11.2782C6.68725 11.9135 6.41942 12.2311 6.30189 12.6414C6.20865 12.967 6.20964 13.4236 6.30384 13.7489C6.4226 14.1587 6.64788 14.4244 7.09779 14.9559C7.63212 15.5872 8.21141 16.1762 8.83314 16.7206C9.33968 17.164 9.59306 17.3859 9.98743 17.5125C10.3007 17.6131 10.7426 17.6299 11.0626 17.5536C11.4656 17.4574 11.7873 17.2173 12.4298 16.7362L13.3995 16.0096C14.2944 15.3396 14.7421 15.0044 15.2404 14.8075C15.6817 14.633 16.1507 14.5383 16.6251 14.5282C17.1608 14.5167 17.7036 14.6525 18.7882 14.9237L19.8419 15.1873C20.8078 15.4288 21.2912 15.5495 21.6613 15.8026C22.0882 16.0946 22.414 16.512 22.5939 16.9969C22.7497 17.4173 22.7501 17.9155 22.7501 18.911C22.7501 20.1363 22.75 20.7497 22.4982 21.2674C22.2291 21.8203 21.6468 22.3363 21.0656 22.537C20.5215 22.7247 19.9875 22.6601 18.9201 22.5311C15.8755 22.1632 12.9304 21.2934 10.2618 19.6375C7.73429 18.0692 5.66312 15.95 4.14661 13.3807C2.62445 10.8017 1.81656 7.98578 1.46693 5.07993C1.33837 4.01151 1.27506 3.47734 1.46302 2.93344C1.66394 2.35221 2.17949 1.77072 2.73255 1.5018C3.25008 1.25024 3.8627 1.24985 5.08802 1.24985ZM19.4699 3.46957C19.7628 3.1769 20.2376 3.17675 20.5304 3.46957C20.8232 3.7624 20.8231 4.23723 20.5304 4.53012L18.5607 6.49985L20.5304 8.46957L20.5822 8.52621C20.8224 8.82072 20.8048 9.25552 20.5304 9.53012C20.2558 9.80469 19.8211 9.8221 19.5265 9.58188L19.4699 9.53012L17.5001 7.56039L15.5304 9.53012C15.2375 9.82299 14.7628 9.82294 14.4699 9.53012C14.177 9.23723 14.177 8.76247 14.4699 8.46957L16.4396 6.49985L14.4699 4.53012C14.177 4.23723 14.177 3.76247 14.4699 3.46957C14.7628 3.1769 15.2376 3.17675 15.5304 3.46957L17.5001 5.4393L19.4699 3.46957Z" fill="currentColor" />
</svg>