<svg xmlns="http://www.w3.org/2000/svg" width="24" height="24" viewBox="0 0 24 24" fill="none">
<path d="M12.9677 1.24988C14.4882 1.24997 15.9075 2.01018 16.7509 3.27527C17.2197 3.97841 17.9521 4.42583 18.8252 4.60047C21.1072 5.05686 22.75 7.0604 22.75 9.38758L22.75 13.2079C22.75 14.9676 22.7511 16.3445 22.6386 17.4384C22.5248 18.5451 22.2884 19.4465 21.7597 20.2264C21.6964 20.3199 21.6281 20.4096 21.5595 20.4989L23.0302 21.9696L23.082 22.0262C23.3223 22.3208 23.3048 22.7556 23.0302 23.0302C22.7556 23.3048 22.3209 23.3222 22.0263 23.0819L21.9697 23.0302L1.4697 2.53015C1.1768 2.23726 1.1768 1.7625 1.4697 1.4696C1.76259 1.17671 2.23735 1.17671 2.53024 1.4696L5.55759 4.49695C6.24137 4.27347 6.88044 3.82809 7.24899 3.27527C8.0924 2.01018 9.51175 1.24996 11.0322 1.24988L12.9677 1.24988ZM2.19528 6.50574C2.44526 6.21963 2.87657 6.16322 3.19333 6.38757C3.53124 6.62701 3.61044 7.0955 3.37106 7.43347L3.23141 7.64734C2.92407 8.15904 2.74997 8.75595 2.74997 9.38757L2.74997 13.2079C2.74997 14.9992 2.75071 16.2857 2.85348 17.285C2.95495 18.2716 3.14992 18.8941 3.48239 19.3846C3.78478 19.8307 4.16917 20.2151 4.6152 20.5175C5.10571 20.8499 5.72822 21.0449 6.71481 21.1464C7.71414 21.2491 9.00061 21.2499 10.792 21.2499L13.208 21.2499C14.7961 21.2499 15.9904 21.2494 16.9433 21.1766C17.3561 21.1454 17.7164 21.4543 17.748 21.8671C17.7795 22.2801 17.4696 22.6412 17.0566 22.6727C16.0337 22.7508 14.7738 22.7499 13.208 22.7499L10.792 22.7499C9.03226 22.7499 7.65535 22.751 6.56149 22.6386C5.45479 22.5247 4.55338 22.2883 3.7734 21.7596C3.16977 21.3504 2.6494 20.8301 2.2402 20.2264C1.71153 19.4465 1.47511 18.545 1.3613 17.4384C1.24881 16.3445 1.24997 14.9676 1.24997 13.2079L1.24997 9.38757C1.24997 8.34621 1.57932 7.36839 2.14743 6.56628L2.19528 6.50574ZM8.31247 11.2733C8.71361 11.3766 8.95575 11.7862 8.85251 12.1874L8.80856 12.3837C8.77039 12.5827 8.74998 12.7886 8.74997 12.9999C8.74997 14.7948 10.205 16.2499 12 16.2499C12.2817 16.2499 12.5544 16.214 12.8134 16.1473C13.2144 16.0444 13.6233 16.2864 13.7265 16.6874C13.8296 17.0884 13.5875 17.4972 13.1865 17.6005C12.8064 17.6982 12.4087 17.7499 12 17.7499C9.37662 17.7499 7.24997 15.6232 7.24997 12.9999C7.24999 12.5912 7.30159 12.1934 7.39938 11.8134L7.42282 11.7401C7.55418 11.3835 7.93654 11.1769 8.31247 11.2733ZM12 8.99988C11.4295 8.99989 10.8875 9.12063 10.3965 9.33582L15.6631 14.6024C15.8781 14.1115 16 13.5701 16 12.9999C15.9998 10.7909 14.209 8.99988 12 8.99988Z" fill="currentColor" />
</svg>