<svg xmlns="http://www.w3.org/2000/svg" width="24" height="24" viewBox="0 0 24 24" fill="none">
<path fill-rule="evenodd" clip-rule="evenodd" d="M5.02321 4.63058C5.99974 4.43527 6.85869 3.86004 7.41109 3.03143L7.44289 2.98374C8.16496 1.90063 9.38057 1.25006 10.6823 1.25006L13.3178 1.25006C14.6196 1.25006 15.8352 1.90064 16.5572 2.98374L16.589 3.03143C17.1414 3.86004 18.0004 4.43527 18.9769 4.63058C21.1708 5.06936 22.7501 6.99571 22.7501 9.23308V14.7501C22.7501 17.5503 22.7501 18.9505 22.2051 20.02C21.7257 20.9608 20.9608 21.7257 20.02 22.2051C18.9505 22.7501 17.5503 22.7501 14.7501 22.7501H9.25006C6.4498 22.7501 5.04967 22.7501 3.98011 22.2051C3.0393 21.7257 2.2744 20.9608 1.79503 20.02C1.25006 18.9505 1.25006 17.5503 1.25006 14.7501L1.25006 9.23308C1.25006 6.99571 2.82929 5.06936 5.02321 4.63058ZM12.0001 17.0001C14.2092 17.0001 16.0001 15.2092 16.0001 13.0001C16.0001 10.7909 14.2092 9.00006 12.0001 9.00006C9.79092 9.00006 8.00006 10.7909 8.00006 13.0001C8.00006 15.2092 9.79092 17.0001 12.0001 17.0001Z" fill="currentColor" />
</svg>