<svg xmlns="http://www.w3.org/2000/svg" width="24" height="24" viewBox="0 0 24 24" fill="none">
<path opacity={0.32} d="M9.25 1.25C6.44974 1.25 5.04961 1.25 3.98005 1.79497C3.03924 2.27433 2.27433 3.03924 1.79497 3.98005C1.25 5.04961 1.25 6.44974 1.25 9.25V14.75C1.25 17.5503 1.25 18.9504 1.79497 20.02C2.27433 20.9608 3.03924 21.7257 3.98005 22.205C5.04961 22.75 6.44974 22.75 9.25 22.75H14.75C17.5503 22.75 18.9504 22.75 20.02 22.205C20.9608 21.7257 21.7257 20.9608 22.205 20.02C22.75 18.9504 22.75 17.5503 22.75 14.75V9.25C22.75 6.44974 22.75 5.04961 22.205 3.98005C21.7257 3.03924 20.9608 2.27433 20.02 1.79497C18.9504 1.25 17.5503 1.25 14.75 1.25H9.25Z" fill="currentColor" /><path d="M9.00001 8.25001C10.2426 8.25001 11.25 9.25737 11.25 10.5C11.25 10.9142 10.9142 11.25 10.5 11.25C10.1118 11.25 9.79253 10.9551 9.75391 10.5772L9.7461 10.4229C9.70748 10.0449 9.38817 9.75001 9.00001 9.75001H8.9004C8.46798 9.75001 8.1881 9.75022 7.97559 9.76759C7.77204 9.78423 7.69625 9.81315 7.65919 9.83204C7.51836 9.90389 7.40389 10.0184 7.33204 10.1592C7.31315 10.1963 7.28423 10.272 7.26759 10.4756C7.25022 10.6881 7.25001 10.968 7.25001 11.4004V12.5996C7.25001 13.032 7.25022 13.3119 7.26759 13.5244C7.28423 13.728 7.31315 13.8038 7.33204 13.8408C7.40389 13.9817 7.51836 14.0961 7.65919 14.168C7.69625 14.1869 7.77204 14.2158 7.97559 14.2324C8.1881 14.2498 8.46798 14.25 8.9004 14.25H9.00001C9.38817 14.25 9.70748 13.9551 9.7461 13.5772L9.75391 13.4229C9.79254 13.0449 10.1118 12.75 10.5 12.75C10.9142 12.75 11.25 13.0858 11.25 13.5C11.25 14.7426 10.2426 15.75 9.00001 15.75H8.9004C8.49273 15.75 8.14128 15.7511 7.85352 15.7275C7.55709 15.7033 7.26224 15.6494 6.97852 15.5049C6.55516 15.2892 6.21084 14.9449 5.99512 14.5215C5.85057 14.2378 5.7967 13.9429 5.77247 13.6465C5.74896 13.3587 5.75001 13.0073 5.75001 12.5996V11.4004C5.75001 10.9927 5.74896 10.6413 5.77247 10.3535C5.7967 10.0571 5.85057 9.76224 5.99512 9.47852C6.21084 9.05516 6.55516 8.71084 6.97852 8.49512C7.26224 8.35057 7.55709 8.2967 7.85352 8.27247C8.14128 8.24896 8.49273 8.25001 8.9004 8.25001H9.00001ZM16 8.25001C17.2426 8.25001 18.25 9.25737 18.25 10.5C18.25 10.9142 17.9142 11.25 17.5 11.25C17.1118 11.25 16.7925 10.9551 16.7539 10.5772L16.7461 10.4229C16.7075 10.0449 16.3882 9.75001 16 9.75001H15.9004C15.468 9.75001 15.1881 9.75022 14.9756 9.76759C14.772 9.78423 14.6963 9.81315 14.6592 9.83204C14.5184 9.90389 14.4039 10.0184 14.332 10.1592C14.3132 10.1963 14.2842 10.272 14.2676 10.4756C14.2502 10.6881 14.25 10.968 14.25 11.4004V12.5996C14.25 13.032 14.2502 13.3119 14.2676 13.5244C14.2842 13.728 14.3132 13.8038 14.332 13.8408C14.4039 13.9817 14.5184 14.0961 14.6592 14.168C14.6963 14.1869 14.772 14.2158 14.9756 14.2324C15.1881 14.2498 15.468 14.25 15.9004 14.25H16C16.3882 14.25 16.7075 13.9551 16.7461 13.5772L16.7539 13.4229C16.7925 13.0449 17.1118 12.75 17.5 12.75C17.9142 12.75 18.25 13.0858 18.25 13.5C18.25 14.7426 17.2426 15.75 16 15.75H15.9004C15.4927 15.75 15.1413 15.7511 14.8535 15.7275C14.5571 15.7033 14.2622 15.6494 13.9785 15.5049C13.5552 15.2892 13.2108 14.9449 12.9951 14.5215C12.8506 14.2378 12.7967 13.9429 12.7725 13.6465C12.749 13.3587 12.75 13.0073 12.75 12.5996V11.4004C12.75 10.9927 12.749 10.6413 12.7725 10.3535C12.7967 10.0571 12.8506 9.76224 12.9951 9.47852C13.2108 9.05516 13.5552 8.71084 13.9785 8.49512C14.2622 8.35057 14.5571 8.2967 14.8535 8.27247C15.1413 8.24896 15.4927 8.25001 15.9004 8.25001H16Z" fill="currentColor" />
</svg>