<svg xmlns="http://www.w3.org/2000/svg" width="24" height="24" viewBox="0 0 24 24" fill="none">
<path d="M14.75 1.25C17.55 1.25 18.95 1.25013 20.0195 1.79492C20.9603 2.27429 21.7257 3.03966 22.2051 3.98047C22.7499 5.04998 22.75 6.45005 22.75 9.25V14.75C22.75 17.55 22.7499 18.95 22.2051 20.0195C21.7257 20.9603 20.9603 21.7257 20.0195 22.2051C18.95 22.7499 17.55 22.75 14.75 22.75H9.25C6.45005 22.75 5.04998 22.7499 3.98047 22.2051C3.03966 21.7257 2.27429 20.9603 1.79492 20.0195C1.25013 18.95 1.25 17.55 1.25 14.75V9.25C1.25 6.45005 1.25013 5.04998 1.79492 3.98047C2.27429 3.03966 3.03966 2.27429 3.98047 1.79492C5.04998 1.25013 6.45005 1.25 9.25 1.25H14.75ZM8.90039 8.25C8.49273 8.25 8.14127 8.24895 7.85352 8.27246C7.55708 8.29669 7.26223 8.35057 6.97852 8.49512C6.55515 8.71083 6.21083 9.05515 5.99512 9.47852C5.85057 9.76223 5.79669 10.0571 5.77246 10.3535C5.74895 10.6413 5.75 10.9927 5.75 11.4004V12.5996C5.75 13.0073 5.74895 13.3587 5.77246 13.6465C5.79669 13.9429 5.85057 14.2378 5.99512 14.5215C6.21083 14.9448 6.55515 15.2892 6.97852 15.5049C7.26223 15.6494 7.55708 15.7033 7.85352 15.7275C8.14127 15.751 8.49273 15.75 8.90039 15.75H9C10.2426 15.75 11.25 14.7426 11.25 13.5C11.25 13.0858 10.9142 12.75 10.5 12.75C10.1118 12.75 9.79253 13.0449 9.75391 13.4229L9.74609 13.5771C9.70747 13.9551 9.38817 14.25 9 14.25H8.90039C8.46798 14.25 8.18809 14.2498 7.97559 14.2324C7.77203 14.2158 7.69625 14.1869 7.65918 14.168C7.51836 14.0961 7.40388 13.9816 7.33203 13.8408C7.31314 13.8038 7.28423 13.728 7.26758 13.5244C7.25022 13.3119 7.25 13.032 7.25 12.5996V11.4004C7.25 10.968 7.25022 10.6881 7.26758 10.4756C7.28423 10.272 7.31314 10.1962 7.33203 10.1592C7.40388 10.0184 7.51836 9.90388 7.65918 9.83203C7.69625 9.81314 7.77203 9.78423 7.97559 9.76758C8.18809 9.75022 8.46798 9.75 8.90039 9.75H9C9.38817 9.75 9.70747 10.0449 9.74609 10.4229L9.75391 10.5771C9.79253 10.9551 10.1118 11.25 10.5 11.25C10.9142 11.25 11.25 10.9142 11.25 10.5C11.25 9.25736 10.2426 8.25 9 8.25H8.90039ZM15.9004 8.25C15.4927 8.25 15.1413 8.24895 14.8535 8.27246C14.5571 8.29669 14.2622 8.35057 13.9785 8.49512C13.5552 8.71083 13.2108 9.05515 12.9951 9.47852C12.8506 9.76223 12.7967 10.0571 12.7725 10.3535C12.749 10.6413 12.75 10.9927 12.75 11.4004V12.5996C12.75 13.0073 12.749 13.3587 12.7725 13.6465C12.7967 13.9429 12.8506 14.2378 12.9951 14.5215C13.2108 14.9448 13.5552 15.2892 13.9785 15.5049C14.2622 15.6494 14.5571 15.7033 14.8535 15.7275C15.1413 15.751 15.4927 15.75 15.9004 15.75H16C17.2426 15.75 18.25 14.7426 18.25 13.5C18.25 13.0858 17.9142 12.75 17.5 12.75C17.1118 12.75 16.7925 13.0449 16.7539 13.4229L16.7461 13.5771C16.7075 13.9551 16.3882 14.25 16 14.25H15.9004C15.468 14.25 15.1881 14.2498 14.9756 14.2324C14.772 14.2158 14.6962 14.1869 14.6592 14.168C14.5184 14.0961 14.4039 13.9816 14.332 13.8408C14.3131 13.8038 14.2842 13.728 14.2676 13.5244C14.2502 13.3119 14.25 13.032 14.25 12.5996V11.4004C14.25 10.968 14.2502 10.6881 14.2676 10.4756C14.2842 10.272 14.3131 10.1962 14.332 10.1592C14.4039 10.0184 14.5184 9.90388 14.6592 9.83203C14.6962 9.81314 14.772 9.78423 14.9756 9.76758C15.1881 9.75022 15.468 9.75 15.9004 9.75H16C16.3882 9.75 16.7075 10.0449 16.7461 10.4229L16.7539 10.5771C16.7925 10.9551 17.1118 11.25 17.5 11.25C17.9142 11.25 18.25 10.9142 18.25 10.5C18.25 9.25736 17.2426 8.25 16 8.25H15.9004Z" fill="currentColor" />
</svg>