<svg xmlns="http://www.w3.org/2000/svg" width="24" height="24" viewBox="0 0 24 24" fill="none">
<path d="M22 9.5V9C22 7.13872 22 6.20808 21.7553 5.45492C21.2607 3.93273 20.0673 2.73931 18.5451 2.24472C17.7919 2 16.8613 2 15 2H10C7.19974 2 5.79961 2 4.73005 2.54497C3.78924 3.02433 3.02433 3.78924 2.54497 4.73005C2 5.79961 2 7.19974 2 10V14C2 16.8003 2 18.2004 2.54497 19.27C3.02433 20.2108 3.78924 20.9757 4.73005 21.455C5.79961 22 7.19974 22 10 22H15C16.8613 22 17.7919 22 18.5451 21.7553C20.0673 21.2607 21.2607 20.0673 21.7553 18.5451C22 17.7919 22 16.8613 22 15V14.5M10.5 13.5C10.5 14.3284 9.82843 15 9 15H8.9C8.05992 15 7.63988 15 7.31901 14.8365C7.03677 14.6927 6.8073 14.4632 6.66349 14.181C6.5 13.8601 6.5 13.4401 6.5 12.6V11.4C6.5 10.5599 6.5 10.1399 6.66349 9.81901C6.8073 9.53677 7.03677 9.3073 7.31901 9.16349C7.63988 9 8.05992 9 8.9 9H9C9.82843 9 10.5 9.67157 10.5 10.5M17.5 13.5C17.5 14.3284 16.8284 15 16 15H15.9C15.0599 15 14.6399 15 14.319 14.8365C14.0368 14.6927 13.8073 14.4632 13.6635 14.181C13.5 13.8601 13.5 13.4401 13.5 12.6V11.4C13.5 10.5599 13.5 10.1399 13.6635 9.81901C13.8073 9.53677 14.0368 9.3073 14.319 9.16349C14.6399 9 15.0599 9 15.9 9H16C16.8284 9 17.5 9.67157 17.5 10.5" stroke="currentColor" stroke-width={1.5} stroke-linecap="round" stroke-linejoin="round" />
</svg>