<svg xmlns="http://www.w3.org/2000/svg" width="24" height="24" viewBox="0 0 24 24" fill="none">
<path d="M19.0771 21.2539C19.4551 21.2925 19.75 21.6118 19.75 22C19.75 22.3882 19.4551 22.7075 19.0771 22.7461L19 22.75H5C4.58579 22.75 4.25 22.4142 4.25 22C4.25 21.5858 4.58579 21.25 5 21.25H19L19.0771 21.2539ZM16.25 2.2002C16.25 3.02778 16.249 3.69362 16.293 4.23145C16.3376 4.77805 16.4329 5.25795 16.6592 5.70215C17.0187 6.40776 17.5922 6.9813 18.2979 7.34082C18.7421 7.56714 19.2219 7.66237 19.7686 7.70703C20.3064 7.75097 20.9722 7.75 21.7998 7.75H22.75V12.25H21.7998C20.9722 12.25 20.3064 12.249 19.7686 12.293C19.2219 12.3376 18.7421 12.4329 18.2979 12.6592C17.5922 13.0187 17.0187 13.5922 16.6592 14.2979C16.4329 14.7421 16.3376 15.2219 16.293 15.7686C16.249 16.3064 16.25 16.9722 16.25 17.7998V18.75H7.75V17.7998C7.75 16.9722 7.75097 16.3064 7.70703 15.7686C7.66237 15.2219 7.56714 14.7421 7.34082 14.2979C6.9813 13.5922 6.40776 13.0187 5.70215 12.6592C5.25795 12.4329 4.77805 12.3376 4.23145 12.293C3.69362 12.249 3.02778 12.25 2.2002 12.25H1.25V7.75H2.2002C3.02778 7.75 3.69362 7.75097 4.23145 7.70703C4.77805 7.66237 5.25795 7.56714 5.70215 7.34082C6.40776 6.9813 6.9813 6.40776 7.34082 5.70215C7.56714 5.25795 7.66237 4.77805 7.70703 4.23145C7.75097 3.69362 7.75 3.02778 7.75 2.2002V1.25H16.25V2.2002ZM2.2002 13.75C3.05254 13.75 3.64678 13.7503 4.10938 13.7881C4.5632 13.8252 4.82398 13.8945 5.02148 13.9951C5.44485 14.2108 5.78917 14.5552 6.00488 14.9785C6.10551 15.176 6.17483 15.4368 6.21191 15.8906C6.24971 16.3532 6.25 16.9475 6.25 17.7998V18.7432C4.89991 18.7249 4.08895 18.6484 3.43359 18.3145C2.68109 17.931 2.06902 17.3189 1.68555 16.5664C1.35163 15.911 1.27513 15.1001 1.25684 13.75H2.2002ZM22.7432 13.75C22.7249 15.1001 22.6484 15.911 22.3145 16.5664C21.931 17.3189 21.3189 17.931 20.5664 18.3145C19.911 18.6484 19.1001 18.7249 17.75 18.7432V17.7998C17.75 16.9475 17.7503 16.3532 17.7881 15.8906C17.8252 15.4368 17.8945 15.176 17.9951 14.9785C18.2108 14.5552 18.5552 14.2108 18.9785 13.9951C19.176 13.8945 19.4368 13.8252 19.8906 13.7881C20.3532 13.7503 20.9475 13.75 21.7998 13.75H22.7432ZM12 7.25098C10.4812 7.25098 9.25 8.48219 9.25 10.001C9.25026 11.5195 10.4814 12.751 12 12.751C13.5186 12.751 14.7497 11.5195 14.75 10.001C14.75 8.48219 13.5188 7.25098 12 7.25098ZM12 8.75098C12.6904 8.75098 13.25 9.31062 13.25 10.001C13.2497 10.6911 12.6902 11.251 12 11.251C11.3098 11.251 10.7503 10.6911 10.75 10.001C10.75 9.31062 11.3096 8.75098 12 8.75098ZM6.25 2.2002C6.25 3.05255 6.24971 3.64678 6.21191 4.10938C6.17483 4.5632 6.10551 4.82398 6.00488 5.02148C5.78917 5.44485 5.44485 5.78917 5.02148 6.00488C4.82398 6.10551 4.5632 6.17483 4.10938 6.21191C3.64678 6.24971 3.05254 6.25 2.2002 6.25H1.25684C1.27513 4.89991 1.35163 4.08895 1.68555 3.43359C2.06902 2.68109 2.68109 2.06902 3.43359 1.68555C4.08895 1.35162 4.8999 1.27416 6.25 1.25586V2.2002ZM17.75 1.25586C19.1001 1.27416 19.911 1.35162 20.5664 1.68555C21.3189 2.06902 21.931 2.68109 22.3145 3.43359C22.6484 4.08895 22.7249 4.89991 22.7432 6.25H21.7998C20.9475 6.25 20.3532 6.24971 19.8906 6.21191C19.4368 6.17483 19.176 6.10551 18.9785 6.00488C18.5552 5.78917 18.2108 5.44485 17.9951 5.02148C17.8945 4.82398 17.8252 4.5632 17.7881 4.10938C17.7503 3.64678 17.75 3.05255 17.75 2.2002V1.25586Z" fill="currentColor" />
</svg>