<svg xmlns="http://www.w3.org/2000/svg" width="24" height="24" viewBox="0 0 24 24" fill="none">
<path d="M2 20.75C2.69036 20.75 3.25 21.3096 3.25 22C3.25 22.6904 2.69036 23.25 2 23.25C1.30964 23.25 0.75 22.6904 0.75 22C0.75 21.3096 1.30964 20.75 2 20.75ZM2.24121 17.2559C4.72451 17.3862 6.75 19.5144 6.75 22C6.75 22.4142 6.41421 22.75 6 22.75C5.58579 22.75 5.25 22.4142 5.25 22C5.25 20.3121 3.85021 18.844 2.16406 18.7539L2 18.75L1.92285 18.7461C1.54488 18.7075 1.25 18.3882 1.25 18C1.25 17.5858 1.58579 17.25 2 17.25L2.24121 17.2559ZM2.44434 13.2617C7.01207 13.5025 10.75 17.4278 10.75 22C10.75 22.4142 10.4142 22.75 10 22.75C9.58579 22.75 9.25 22.4142 9.25 22C9.25 18.2255 6.13778 14.9603 2.36719 14.7598L2 14.75L1.92285 14.7461C1.54487 14.7075 1.25 14.3882 1.25 14C1.25 13.5858 1.58579 13.25 2 13.25L2.44434 13.2617ZM14.75 1.25C17.55 1.25 18.95 1.25013 20.0195 1.79492C20.9603 2.27429 21.7257 3.03966 22.2051 3.98047C22.7499 5.04998 22.75 6.45005 22.75 9.25V14.75C22.75 17.55 22.7499 18.95 22.2051 20.0195C21.7257 20.9603 20.9603 21.7257 20.0195 22.2051C18.95 22.7499 17.55 22.75 14.75 22.75H14.3496C13.7916 22.75 13.512 22.7499 13.3086 22.6533C13.1182 22.5629 12.9868 22.4429 12.8789 22.2617C12.7637 22.0682 12.7343 21.7621 12.6768 21.1504C12.1353 15.3946 8.60544 11.8647 2.84961 11.3232C2.23791 11.2657 1.93182 11.2363 1.73828 11.1211C1.55715 11.0132 1.43714 10.8818 1.34668 10.6914C1.25013 10.488 1.25 10.2084 1.25 9.65039V9.25C1.25 6.45005 1.25013 5.04998 1.79492 3.98047C2.27429 3.03966 3.03966 2.27429 3.98047 1.79492C5.04998 1.25013 6.45005 1.25 9.25 1.25H14.75Z" fill="currentColor" />
</svg>