<svg xmlns="http://www.w3.org/2000/svg" width="24" height="24" viewBox="0 0 24 24" fill="none">
<path d="M12 1.25C17.9369 1.2501 22.7499 6.06311 22.75 12C22.75 17.937 17.937 22.7499 12 22.75C6.06294 22.75 1.25 17.9371 1.25 12C1.25013 6.06305 6.06302 1.25 12 1.25ZM12 9.25C10.4813 9.25 9.25012 10.4813 9.25 12C9.25 13.5188 10.4812 14.75 12 14.75C13.5187 14.7499 14.75 13.5187 14.75 12C14.7499 10.4814 13.5186 9.2501 12 9.25ZM12 10.75C12.6902 10.7501 13.2499 11.3098 13.25 12C13.25 12.6903 12.6903 13.2499 12 13.25C11.3096 13.25 10.75 12.6904 10.75 12C10.7501 11.3098 11.3097 10.75 12 10.75ZM12 5.25C11.5859 5.25 11.2501 5.5859 11.25 6C11.25 6.38817 11.5449 6.70747 11.9229 6.7461L12 6.75L12.2705 6.75684C15.0441 6.8977 17.2499 9.19139 17.25 12C17.25 12.4142 17.5858 12.75 18 12.75C18.4141 12.7499 18.75 12.4142 18.75 12C18.7499 8.38884 15.9139 5.43981 12.3477 5.25879L12 5.25Z" fill="currentColor" />
</svg>