<svg xmlns="http://www.w3.org/2000/svg" width="24" height="24" viewBox="0 0 24 24" fill="none">
<path d="M17.5 3.64678C15.9221 2.60572 14.0318 1.99976 12 1.99976C6.47715 1.99976 2 6.47691 2 11.9998C2 17.5226 6.47715 21.9998 12 21.9998C17.5228 21.9998 22 17.5226 22 11.9998C22 10.3811 21.6154 8.85235 20.9327 7.49976M12 5.99976C15.3137 5.99976 18 8.68605 18 11.9998M14 11.9998C14 13.1043 13.1046 13.9998 12 13.9998C10.8954 13.9998 10 13.1043 10 11.9998C10 10.8952 10.8954 9.99976 12 9.99976C13.1046 9.99976 14 10.8952 14 11.9998Z" stroke="currentColor" stroke-width={1.5} stroke-linecap="round" stroke-linejoin="round" />
</svg>