<svg xmlns="http://www.w3.org/2000/svg" width="24" height="24" viewBox="0 0 24 24" fill="none">
<path d="M12 5.99976C15.3137 5.99976 18 8.68605 18 11.9998M22 11.9998C22 17.5226 17.5228 21.9998 12 21.9998C6.47715 21.9998 2 17.5226 2 11.9998C2 6.47691 6.47715 1.99976 12 1.99976C17.5228 1.99976 22 6.47691 22 11.9998ZM14 11.9998C14 13.1043 13.1046 13.9998 12 13.9998C10.8954 13.9998 10 13.1043 10 11.9998C10 10.8952 10.8954 9.99976 12 9.99976C13.1046 9.99976 14 10.8952 14 11.9998Z" stroke="currentColor" stroke-width={1.5} stroke-linecap="round" stroke-linejoin="round" />
</svg>