<svg xmlns="http://www.w3.org/2000/svg" width="24" height="24" viewBox="0 0 24 24" fill="none">
<path opacity={0.32} d="M12 1.25C6.06294 1.25 1.25 6.06294 1.25 12C1.25 17.9371 6.06294 22.75 12 22.75C17.9371 22.75 22.75 17.9371 22.75 12C22.75 6.06294 17.9371 1.25 12 1.25Z" fill="currentColor" /><path d="M12 9.25024C13.5188 9.25024 14.75 10.4815 14.75 12.0002C14.75 13.519 13.5188 14.7502 12 14.7502C10.4812 14.7502 9.25 13.519 9.25 12.0002C9.25 10.4815 10.4812 9.25024 12 9.25024ZM12 10.7502C11.3096 10.7502 10.75 11.3099 10.75 12.0002C10.75 12.6906 11.3096 13.2502 12 13.2502C12.6904 13.2502 13.25 12.6906 13.25 12.0002C13.25 11.3099 12.6904 10.7502 12 10.7502ZM12.3477 5.25903C15.914 5.43997 18.75 8.38892 18.75 12.0002C18.75 12.4145 18.4142 12.7502 18 12.7502C17.5858 12.7502 17.25 12.4145 17.25 12.0002C17.25 9.19148 15.0443 6.89786 12.2705 6.75708L12 6.75024L11.9229 6.74634C11.5449 6.70772 11.25 6.38841 11.25 6.00024C11.25 5.58603 11.5858 5.25024 12 5.25024L12.3477 5.25903Z" fill="currentColor" />
</svg>