<svg xmlns="http://www.w3.org/2000/svg" width="24" height="24" viewBox="0 0 24 24" fill="none">
<path d="M14.75 1.25C17.55 1.25 18.95 1.25013 20.0195 1.79492C20.9603 2.27429 21.7257 3.03966 22.2051 3.98047C22.7499 5.04998 22.75 6.45005 22.75 9.25V14.75C22.75 17.55 22.7499 18.95 22.2051 20.0195C21.7257 20.9603 20.9603 21.7257 20.0195 22.2051C18.95 22.7499 17.55 22.75 14.75 22.75H9.25C6.45005 22.75 5.04998 22.7499 3.98047 22.2051C3.03966 21.7257 2.27429 20.9603 1.79492 20.0195C1.25013 18.95 1.25 17.55 1.25 14.75V9.25C1.25 6.45005 1.25013 5.04998 1.79492 3.98047C2.27429 3.03966 3.03966 2.27429 3.98047 1.79492C5.04998 1.25013 6.45005 1.25 9.25 1.25H14.75ZM17.5303 8.46973C17.2374 8.17683 16.7626 8.17683 16.4697 8.46973L13 11.9395L11.5303 10.4697C11.2557 10.1951 10.8209 10.1777 10.5264 10.418L10.4697 10.4697L6.46973 14.4697C6.17683 14.7626 6.17683 15.2374 6.46973 15.5303C6.76262 15.8232 7.23738 15.8232 7.53027 15.5303L11 12.0605L12.4697 13.5303C12.6104 13.6709 12.8011 13.75 13 13.75C13.1989 13.75 13.3896 13.6709 13.5303 13.5303L17.5303 9.53027C17.8232 9.23738 17.8232 8.76262 17.5303 8.46973Z" fill="currentColor" />
</svg>