<svg xmlns="http://www.w3.org/2000/svg" width="24" height="24" viewBox="0 0 24 24" fill="none">
<path d="M13.1504 1.25C16.5103 1.25 18.1902 1.25042 19.4736 1.9043C20.6026 2.47954 21.5205 3.39739 22.0957 4.52637C22.7496 5.80977 22.75 7.48965 22.75 10.8496V13.1504C22.75 16.5103 22.7496 18.1902 22.0957 19.4736C21.5205 20.6026 20.6026 21.5205 19.4736 22.0957C18.1902 22.7496 16.5103 22.75 13.1504 22.75H10.8496C7.48965 22.75 5.80977 22.7496 4.52637 22.0957C3.39739 21.5205 2.47954 20.6026 1.9043 19.4736C1.25042 18.1902 1.25 16.5103 1.25 13.1504V10.8496C1.25 7.48965 1.25042 5.80977 1.9043 4.52637C2.47954 3.39739 3.39739 2.47954 4.52637 1.9043C5.80977 1.25042 7.48965 1.25 10.8496 1.25H13.1504ZM17.707 8.29297C17.3165 7.90244 16.6835 7.90244 16.293 8.29297L11 13.5859L9.20703 11.793L9.13086 11.7246C8.73809 11.4043 8.15908 11.4269 7.79297 11.793C7.40244 12.1835 7.40244 12.8165 7.79297 13.207L10.293 15.707C10.6835 16.0976 11.3165 16.0976 11.707 15.707L17.707 9.70703C18.0976 9.31651 18.0976 8.68349 17.707 8.29297Z" fill="currentColor" />
</svg>