<svg xmlns="http://www.w3.org/2000/svg" width="40" height="40" viewBox="0 0 40 40" fill="none">
<path d="M20.0002 2.0835C29.8952 2.08367 37.9163 10.1055 37.9163 20.0005C37.9161 29.8953 29.8951 37.9163 20.0002 37.9165C10.1053 37.9165 2.08343 29.8954 2.08325 20.0005C2.08325 10.1054 10.1051 2.0835 20.0002 2.0835ZM28.678 14.6548C28.0272 14.0042 26.9724 14.0043 26.3215 14.6548L18.3323 22.6431L15.345 19.6548L15.218 19.5405C14.5634 19.0067 13.5977 19.0446 12.9875 19.6548C12.3776 20.2649 12.3395 21.2307 12.8733 21.8853L12.9875 22.0122L17.1545 26.1782C17.4671 26.4907 17.8913 26.6665 18.3333 26.6665C18.7751 26.6664 19.1985 26.4906 19.511 26.1782L28.678 17.0122C29.3289 16.3613 29.3289 15.3057 28.678 14.6548Z" fill="currentColor" />
</svg>