<svg xmlns="http://www.w3.org/2000/svg" width="24" height="24" viewBox="0 0 24 24" fill="none">
<path d="M12 1.5C15.0483 1.5 17.7918 2.80035 19.71 4.875L12 12.5859L9.70703 10.293L9.63086 10.2246C9.23809 9.90426 8.65908 9.92685 8.29297 10.293C7.90244 10.6835 7.90244 11.3165 8.29297 11.707L11.293 14.707C11.6835 15.0976 12.3165 15.0976 12.707 14.707L20.9316 6.48145C21.9247 8.08524 22.5 9.97503 22.5 12C22.5 17.799 17.799 22.5 12 22.5C6.20101 22.5 1.5 17.799 1.5 12C1.5 6.20101 6.20101 1.5 12 1.5ZM22.293 2.29297C22.6835 1.90244 23.3165 1.90244 23.707 2.29297C24.0976 2.68349 24.0976 3.31651 23.707 3.70703L20.9316 6.48145C20.5758 5.90669 20.1666 5.3689 19.71 4.875L22.293 2.29297Z" fill="currentColor" />
</svg>