<svg xmlns="http://www.w3.org/2000/svg" width="24" height="24" viewBox="0 0 24 24" fill="none">
<path d="M13.75 2.24992C16.55 2.24992 17.95 2.25006 19.0195 2.79485C19.6144 3.09796 20.1389 3.51572 20.5654 4.01946L12 12.5859L9.70703 10.2929L9.63086 10.2245C9.23809 9.90418 8.65908 9.92678 8.29297 10.2929C7.90244 10.6834 7.90244 11.3164 8.29297 11.707L11.293 14.707C11.6835 15.0975 12.3165 15.0975 12.707 14.707L21.5254 5.88762C21.7491 6.86112 21.75 8.16873 21.75 10.2499V13.7499C21.75 16.5499 21.7499 17.9499 21.2051 19.0195C20.7257 19.9603 19.9603 20.7256 19.0195 21.205C17.95 21.7498 16.55 21.7499 13.75 21.7499H10.25C7.45005 21.7499 6.04998 21.7498 4.98047 21.205C4.03966 20.7256 3.27429 19.9603 2.79492 19.0195C2.25013 17.9499 2.25 16.5499 2.25 13.7499V10.2499C2.25 7.44997 2.25013 6.04991 2.79492 4.98039C3.27429 4.03958 4.03966 3.27421 4.98047 2.79485C6.04998 2.25006 7.45005 2.24992 10.25 2.24992H13.75ZM22.293 2.29289C22.6835 1.90237 23.3165 1.90237 23.707 2.29289C24.0976 2.68342 24.0976 3.31643 23.707 3.70696L21.5254 5.88762C21.4481 5.55141 21.3449 5.25494 21.2051 4.98039C21.0288 4.63448 20.8134 4.31236 20.5654 4.01946L22.293 2.29289Z" fill="currentColor" />
</svg>