<svg xmlns="http://www.w3.org/2000/svg" width="40" height="40" viewBox="0 0 40 40" fill="none">
<path d="M15.2191 18.1145C14.5591 18.7746 14.2291 19.1046 14.1054 19.4851C13.9967 19.8199 13.9967 20.1805 14.1054 20.5152C14.2291 20.8957 14.5591 21.2258 15.2191 21.8858L20.4479 27.1145C21.8758 28.5425 22.5898 29.2564 23.2027 29.3047C23.7346 29.3465 24.2544 29.1312 24.6008 28.7256C25.0002 28.258 25.0002 27.2483 25.0002 25.2289L25.0002 14.7714C25.0002 12.752 25.0002 11.7423 24.6008 11.2748C24.2544 10.8691 23.7346 10.6538 23.2027 10.6957C22.5898 10.7439 21.8758 11.4579 20.4479 12.8858L15.2191 18.1145Z" fill="currentColor" />
</svg>