<svg xmlns="http://www.w3.org/2000/svg" width="24" height="24" viewBox="0 0 24 24" fill="none">
<path d="M14.75 1.25C17.55 1.25 18.95 1.25013 20.0195 1.79492C20.9603 2.27429 21.7257 3.03966 22.2051 3.98047C22.7499 5.04998 22.75 6.45005 22.75 9.25V14.75C22.75 17.55 22.7499 18.95 22.2051 20.0195C21.7257 20.9603 20.9603 21.7257 20.0195 22.2051C18.95 22.7499 17.55 22.75 14.75 22.75H9.25C6.45005 22.75 5.04998 22.7499 3.98047 22.2051C3.03966 21.7257 2.27429 20.9603 1.79492 20.0195C1.25013 18.95 1.25 17.55 1.25 14.75V9.25C1.25 6.45005 1.25013 5.04998 1.79492 3.98047C2.27429 3.03966 3.03966 2.27429 3.98047 1.79492C5.04998 1.25013 6.45005 1.25 9.25 1.25H14.75ZM12.5303 12.4697C12.2374 12.1768 11.7626 12.1768 11.4697 12.4697L8.46973 15.4697L8.41797 15.5264C8.17766 15.8209 8.19512 16.2557 8.46973 16.5303C8.76262 16.8232 9.23738 16.8232 9.53027 16.5303L12 14.0605L14.4697 16.5303C14.7626 16.8232 15.2374 16.8232 15.5303 16.5303C15.8232 16.2374 15.8232 15.7626 15.5303 15.4697L12.5303 12.4697ZM12.5303 7.46973C12.2374 7.17683 11.7626 7.17683 11.4697 7.46973L5.96973 12.9697C5.67683 13.2626 5.67683 13.7374 5.96973 14.0303C6.24433 14.3049 6.67905 14.3223 6.97363 14.082L7.03027 14.0303L12 9.06055L16.9697 14.0303C17.2626 14.3232 17.7374 14.3232 18.0303 14.0303C18.3232 13.7374 18.3232 13.2626 18.0303 12.9697L12.5303 7.46973Z" fill="currentColor" />
</svg>