<svg xmlns="http://www.w3.org/2000/svg" width="24" height="24" viewBox="0 0 24 24" fill="none">
<path d="M14.75 1.25C17.55 1.25 18.95 1.25013 20.0195 1.79492C20.9603 2.27429 21.7257 3.03966 22.2051 3.98047C22.7499 5.04998 22.75 6.45005 22.75 9.25V14.75C22.75 17.55 22.7499 18.95 22.2051 20.0195C21.7257 20.9603 20.9603 21.7257 20.0195 22.2051C18.95 22.7499 17.55 22.75 14.75 22.75H9.25C6.45005 22.75 5.04998 22.7499 3.98047 22.2051C3.03966 21.7257 2.27429 20.9603 1.79492 20.0195C1.25013 18.95 1.25 17.55 1.25 14.75V9.25C1.25 6.45005 1.25013 5.04998 1.79492 3.98047C2.27429 3.03966 3.03966 2.27429 3.98047 1.79492C5.04998 1.25013 6.45005 1.25 9.25 1.25H14.75ZM12.4639 8.69434C12.1626 8.59645 11.8374 8.59645 11.5361 8.69434C11.1937 8.80565 10.8967 9.10331 10.3027 9.69727L9.09668 10.9033C7.81177 12.1882 7.16939 12.8312 7.12598 13.3828C7.08847 13.8613 7.28247 14.3289 7.64746 14.6406C8.06834 14.9998 8.97688 15 10.7939 15H13.2061C15.0231 15 15.9317 14.9999 16.3525 14.6406C16.7175 14.3289 16.9115 13.8613 16.874 13.3828C16.8306 12.8312 16.1882 12.1882 14.9033 10.9033L13.6973 9.69727C13.1034 9.10339 12.8063 8.80568 12.4639 8.69434Z" fill="currentColor" />
</svg>