<svg xmlns="http://www.w3.org/2000/svg" width="24" height="24" viewBox="0 0 24 24" fill="none">
<path d="M14.75 1.25C17.55 1.25 18.95 1.25013 20.0195 1.79492C20.9603 2.27429 21.7257 3.03966 22.2051 3.98047C22.7499 5.04998 22.75 6.45005 22.75 9.25V14.75C22.75 17.55 22.7499 18.95 22.2051 20.0195C21.7257 20.9603 20.9603 21.7257 20.0195 22.2051C18.95 22.7499 17.55 22.75 14.75 22.75H9.25C6.45005 22.75 5.04998 22.7499 3.98047 22.2051C3.03966 21.7257 2.27429 20.9603 1.79492 20.0195C1.25013 18.95 1.25 17.55 1.25 14.75V9.25C1.25 6.45005 1.25013 5.04998 1.79492 3.98047C2.27429 3.03966 3.03966 2.27429 3.98047 1.79492C5.04998 1.25013 6.45005 1.25 9.25 1.25H14.75ZM10.6182 7.12598C10.1395 7.0883 9.67121 7.28235 9.35938 7.64746C9.00015 8.06832 9 8.97688 9 10.7939V13.2061C9 15.0231 9.00017 15.9317 9.35938 16.3525C9.67121 16.7177 10.1395 16.9117 10.6182 16.874C11.1697 16.8303 11.8122 16.1878 13.0967 14.9033L14.3027 13.6973C14.8967 13.1033 15.1943 12.8063 15.3057 12.4639C15.4036 12.1626 15.4036 11.8374 15.3057 11.5361C15.1943 11.1937 14.8966 10.8966 14.3027 10.3027L13.0967 9.09668C11.8122 7.81218 11.1697 7.16972 10.6182 7.12598Z" fill="currentColor" />
</svg>