<svg xmlns="http://www.w3.org/2000/svg" width="24" height="24" viewBox="0 0 24 24" fill="none">
<path d="M14.8686 10.8686C15.2646 11.2646 15.4627 11.4627 15.5368 11.691C15.6021 11.8918 15.6021 12.1082 15.5368 12.309C15.4627 12.5373 15.2646 12.7354 14.8686 13.1314L11.7314 16.2686C10.8746 17.1254 10.4462 17.5538 10.0785 17.5827C9.75934 17.6078 9.44749 17.4786 9.23959 17.2352C9 16.9547 9 16.3489 9 15.1373L9 8.86274C9 7.65111 9 7.04529 9.23959 6.76477C9.44749 6.52136 9.75934 6.39218 10.0785 6.4173C10.4462 6.44624 10.8746 6.87462 11.7314 7.73137L14.8686 10.8686Z" fill="currentColor" />
</svg>