<svg xmlns="http://www.w3.org/2000/svg" width="24" height="24" viewBox="0 0 24 24" fill="none">
<path d="M14.75 1.25C17.55 1.25 18.95 1.25013 20.0195 1.79492C20.9603 2.27429 21.7257 3.03966 22.2051 3.98047C22.7499 5.04998 22.75 6.45005 22.75 9.25V14.75C22.75 17.55 22.7499 18.95 22.2051 20.0195C21.7257 20.9603 20.9603 21.7257 20.0195 22.2051C18.95 22.7499 17.55 22.75 14.75 22.75H9.25C6.45005 22.75 5.04998 22.7499 3.98047 22.2051C3.03966 21.7257 2.27429 20.9603 1.79492 20.0195C1.25013 18.95 1.25 17.55 1.25 14.75V9.25C1.25 6.45005 1.25013 5.04998 1.79492 3.98047C2.27429 3.03966 3.03966 2.27429 3.98047 1.79492C5.04998 1.25013 6.45005 1.25 9.25 1.25H14.75ZM12.0303 5.96973C11.7374 5.67683 11.2626 5.67683 10.9697 5.96973C10.6951 6.24433 10.6777 6.67905 10.918 6.97363L10.9697 7.03027L15.9395 12L10.9697 16.9697C10.6768 17.2626 10.6768 17.7374 10.9697 18.0303C11.2626 18.3232 11.7374 18.3232 12.0303 18.0303L17.5303 12.5303C17.8232 12.2374 17.8232 11.7626 17.5303 11.4697L12.0303 5.96973ZM9.47363 8.41797C9.17905 8.17766 8.74433 8.19512 8.46973 8.46973C8.17683 8.76262 8.17683 9.23738 8.46973 9.53027L10.9395 12L8.46973 14.4697C8.17683 14.7626 8.17683 15.2374 8.46973 15.5303C8.76262 15.8232 9.23738 15.8232 9.53027 15.5303L12.5303 12.5303C12.8232 12.2374 12.8232 11.7626 12.5303 11.4697L9.53027 8.46973L9.47363 8.41797Z" fill="currentColor" />
</svg>