<svg xmlns="http://www.w3.org/2000/svg" width="24" height="24" viewBox="0 0 24 24" fill="none">
<path d="M14.75 1.25C17.55 1.25 18.95 1.25013 20.0195 1.79492C20.9603 2.27429 21.7257 3.03966 22.2051 3.98047C22.7499 5.04998 22.75 6.45005 22.75 9.25V14.75C22.75 17.55 22.7499 18.95 22.2051 20.0195C21.7257 20.9603 20.9603 21.7257 20.0195 22.2051C18.95 22.7499 17.55 22.75 14.75 22.75H9.25C6.45005 22.75 5.04998 22.7499 3.98047 22.2051C3.03966 21.7257 2.27429 20.9603 1.79492 20.0195C1.25013 18.95 1.25 17.55 1.25 14.75V9.25C1.25 6.45005 1.25013 5.04998 1.79492 3.98047C2.27429 3.03966 3.03966 2.27429 3.98047 1.79492C5.04998 1.25013 6.45005 1.25 9.25 1.25H14.75ZM10.7939 9C8.97689 9 8.06834 9.00017 7.64746 9.35938C7.28235 9.67121 7.0883 10.1395 7.12598 10.6182C7.16972 11.1697 7.81216 11.8122 9.09668 13.0967L10.3027 14.3027C10.8967 14.8967 11.1937 15.1943 11.5361 15.3057C11.8374 15.4036 12.1626 15.4036 12.4639 15.3057C12.8063 15.1943 13.1034 14.8966 13.6973 14.3027L14.9033 13.0967C16.1878 11.8122 16.8303 11.1697 16.874 10.6182C16.9117 10.1395 16.7177 9.67121 16.3525 9.35938C15.9317 9.00014 15.0231 9 13.2061 9H10.7939Z" fill="currentColor" />
</svg>