<svg xmlns="http://www.w3.org/2000/svg" width="40" height="40" viewBox="0 0 40 40" fill="none">
<path d="M18.1145 24.781L12.8858 19.5523C11.4579 18.1244 10.7439 17.4104 10.6957 16.7974C10.6538 16.2656 10.8691 15.7458 11.2748 15.3993C11.7423 15 12.752 15 14.7714 15H25.2289C27.2483 15 28.258 15 28.7256 15.3993C29.1312 15.7458 29.3465 16.2656 29.3047 16.7974C29.2564 17.4104 28.5425 18.1244 27.1145 19.5523L21.8858 24.781C21.2258 25.4411 20.8957 25.7711 20.5152 25.8947C20.1805 26.0035 19.8199 26.0035 19.4851 25.8947C19.1046 25.7711 18.7746 25.4411 18.1145 24.781Z" fill="currentColor" />
</svg>