<svg xmlns="http://www.w3.org/2000/svg" width="24" height="24" viewBox="0 0 24 24" fill="none">
<path d="M2 14.5L2 15C2 16.8613 2 17.7919 2.24472 18.5451C2.73931 20.0673 3.93273 21.2607 5.45491 21.7553C6.20808 22 7.13872 22 9 22H14C16.8003 22 18.2004 22 19.27 21.455C20.2108 20.9757 20.9757 20.2108 21.455 19.27C22 18.2004 22 16.8003 22 14V10C22 7.19974 22 5.79961 21.455 4.73005C20.9757 3.78924 20.2108 3.02433 19.27 2.54497C18.2004 2 16.8003 2 14 2L9 2C7.13872 2 6.20808 2 5.45491 2.24472C3.93273 2.73931 2.73931 3.93273 2.24472 5.45492C2 6.20808 2 7.13872 2 9L2 9.5M12.9804 8.48286L14.9358 10.1938C15.6485 10.8174 16.0048 11.1292 16.1358 11.4987C16.2509 11.823 16.2509 12.177 16.1358 12.5013C16.0048 12.8708 15.6485 13.1826 14.9358 13.8062L12.9804 15.5171C11.7162 16.6233 11.0841 17.1765 10.5479 17.1936C10.082 17.2085 9.63573 17.0059 9.34017 16.6455C9 16.2308 9 15.3908 9 13.711L9 10.289C9 8.60917 9 7.76923 9.34017 7.35445C9.63573 6.99405 10.082 6.79153 10.5479 6.80642C11.0841 6.82355 11.7162 7.37665 12.9804 8.48286Z" stroke="currentColor" stroke-width={1.5} stroke-linecap="round" stroke-linejoin="round" />
</svg>