<svg xmlns="http://www.w3.org/2000/svg" width="24" height="24" viewBox="0 0 24 24" fill="none">
<path d="M9.5 2L9 2C7.13872 2 6.20808 2 5.45492 2.24472C3.93273 2.73931 2.73931 3.93273 2.24472 5.45492C2 6.20808 2 7.13872 2 9L2 14C2 16.8003 2 18.2004 2.54497 19.27C3.02434 20.2108 3.78924 20.9757 4.73005 21.455C5.79961 22 7.19974 22 10 22H14C16.8003 22 18.2004 22 19.27 21.455C20.2108 20.9757 20.9757 20.2108 21.455 19.27C22 18.2004 22 16.8003 22 14V9C22 7.13872 22 6.20808 21.7553 5.45492C21.2607 3.93273 20.0673 2.73931 18.5451 2.24472C17.7919 2 16.8613 2 15 2L14.5 2M15.5171 12.9804L13.8062 14.9358C13.1826 15.6485 12.8708 16.0048 12.5013 16.1358C12.177 16.2509 11.823 16.2509 11.4987 16.1358C11.1292 16.0048 10.8174 15.6485 10.1938 14.9358L8.48286 12.9804C7.37665 11.7162 6.82355 11.0841 6.80642 10.5479C6.79153 10.082 6.99405 9.63573 7.35445 9.34017C7.76923 9 8.60917 9 10.289 9H13.711C15.3908 9 16.2308 9 16.6455 9.34017C17.0059 9.63573 17.2085 10.082 17.1936 10.5479C17.1765 11.0841 16.6233 11.7162 15.5171 12.9804Z" stroke="currentColor" stroke-width={1.5} stroke-linecap="round" stroke-linejoin="round" />
</svg>