<svg xmlns="http://www.w3.org/2000/svg" width="24" height="24" viewBox="0 0 24 24" fill="none">
<path d="M14.75 1.25C17.55 1.25 18.95 1.25013 20.0195 1.79492C20.9603 2.27429 21.7257 3.03966 22.2051 3.98047C22.7499 5.04998 22.75 6.45005 22.75 9.25V14.75C22.75 17.55 22.7499 18.95 22.2051 20.0195C21.7257 20.9603 20.9603 21.7257 20.0195 22.2051C18.95 22.7499 17.55 22.75 14.75 22.75H9.25C6.45005 22.75 5.04998 22.7499 3.98047 22.2051C3.03966 21.7257 2.27429 20.9603 1.79492 20.0195C1.25013 18.95 1.25 17.55 1.25 14.75V9.25C1.25 6.45005 1.25013 5.04998 1.79492 3.98047C2.27429 3.03966 3.03966 2.27429 3.98047 1.79492C5.04998 1.25013 6.45005 1.25 9.25 1.25H14.75ZM13.0303 5.96973C12.7374 5.67683 12.2626 5.67683 11.9697 5.96973L6.46973 11.4697C6.17683 11.7626 6.17683 12.2374 6.46973 12.5303L11.9697 18.0303L12.0264 18.082C12.3209 18.3223 12.7557 18.3049 13.0303 18.0303C13.3049 17.7557 13.3223 17.3209 13.082 17.0264L13.0303 16.9697L8.06055 12L13.0303 7.03027C13.3232 6.73738 13.3232 6.26262 13.0303 5.96973ZM15.5303 8.46973C15.2374 8.17683 14.7626 8.17683 14.4697 8.46973L11.4697 11.4697C11.1768 11.7626 11.1768 12.2374 11.4697 12.5303L14.4697 15.5303L14.5264 15.582C14.8209 15.8223 15.2557 15.8049 15.5303 15.5303C15.8049 15.2557 15.8223 14.8209 15.582 14.5264L15.5303 14.4697L13.0605 12L15.5303 9.53027C15.8232 9.23738 15.8232 8.76262 15.5303 8.46973Z" fill="currentColor" />
</svg>