<svg xmlns="http://www.w3.org/2000/svg" width="24" height="24" viewBox="0 0 24 24" fill="none">
<path d="M14.75 1.25C17.55 1.25 18.95 1.25013 20.0195 1.79492C20.9603 2.27429 21.7257 3.03966 22.2051 3.98047C22.7499 5.04998 22.75 6.45005 22.75 9.25V14.75C22.75 17.55 22.7499 18.95 22.2051 20.0195C21.7257 20.9603 20.9603 21.7257 20.0195 22.2051C18.95 22.7499 17.55 22.75 14.75 22.75H9.25C6.45005 22.75 5.04998 22.7499 3.98047 22.2051C3.03966 21.7257 2.27429 20.9603 1.79492 20.0195C1.25013 18.95 1.25 17.55 1.25 14.75V9.25C1.25 6.45005 1.25013 5.04998 1.79492 3.98047C2.27429 3.03966 3.03966 2.27429 3.98047 1.79492C5.04998 1.25013 6.45005 1.25 9.25 1.25H14.75ZM13.3828 7.12598C12.8312 7.16939 12.1882 7.81179 10.9033 9.09668L9.69727 10.3027C9.10336 10.8966 8.80567 11.1937 8.69434 11.5361C8.59645 11.8374 8.59645 12.1626 8.69434 12.4639C8.80566 12.8063 9.10333 13.1033 9.69727 13.6973L10.9033 14.9033C12.1882 16.1882 12.8312 16.8306 13.3828 16.874C13.8613 16.9115 14.3289 16.7175 14.6406 16.3525C14.9999 15.9317 15 15.0231 15 13.2061V10.7939C15 8.97684 14.9999 8.06831 14.6406 7.64746C14.3289 7.28246 13.8613 7.08846 13.3828 7.12598Z" fill="currentColor" />
</svg>