<svg xmlns="http://www.w3.org/2000/svg" width="40" height="40" viewBox="0 0 40 40" fill="none">
<path d="M18.1145 15.219L12.8858 20.4477C11.4579 21.8756 10.7439 22.5896 10.6957 23.2026C10.6538 23.7344 10.8691 24.2542 11.2748 24.6007C11.7423 25 12.752 25 14.7714 25H25.2289C27.2483 25 28.258 25 28.7256 24.6007C29.1312 24.2542 29.3465 23.7344 29.3047 23.2026C29.2564 22.5896 28.5425 21.8756 27.1145 20.4477L21.8858 15.219C21.2258 14.5589 20.8957 14.2289 20.5152 14.1053C20.1805 13.9965 19.8199 13.9965 19.4851 14.1053C19.1046 14.2289 18.7746 14.5589 18.1145 15.219Z" fill="currentColor" />
</svg>