<svg xmlns="http://www.w3.org/2000/svg" width="24" height="24" viewBox="0 0 24 24" fill="none">
<path d="M2 10C2 7.19974 2 5.79961 2.54497 4.73005C3.02433 3.78924 3.78924 3.02433 4.73005 2.54497C5.79961 2 7.19974 2 10 2H14C16.8003 2 18.2004 2 19.27 2.54497C20.2108 3.02433 20.9757 3.78924 21.455 4.73005C22 5.79961 22 7.19974 22 10V14C22 16.8003 22 18.2004 21.455 19.27C20.9757 20.2108 20.2108 20.9757 19.27 21.455C18.2004 22 16.8003 22 14 22H10C7.19974 22 5.79961 22 4.73005 21.455C3.78924 20.9757 3.02433 20.2108 2.54497 19.27C2 18.2004 2 16.8003 2 14V10Z" stroke="currentColor" stroke-width={1.5} stroke-linecap="round" stroke-linejoin="round" /><path d="M9.06421 10.1938C8.35151 10.8174 7.99515 11.1292 7.86415 11.4987C7.74913 11.823 7.74913 12.177 7.86415 12.5013C7.99515 12.8708 8.35151 13.1826 9.06421 13.8062L11.0196 15.5171C12.2838 16.6233 12.9159 17.1765 13.4521 17.1936C13.918 17.2085 14.3643 17.0059 14.6598 16.6455C15 16.2308 15 15.3908 15 13.711V10.289C15 8.60917 15 7.76923 14.6598 7.35445C14.3643 6.99405 13.918 6.79153 13.4521 6.80642C12.9159 6.82355 12.2838 7.37665 11.0196 8.48286L9.06421 10.1938Z" stroke="currentColor" stroke-width={1.5} stroke-linecap="round" stroke-linejoin="round" />
</svg>