<svg xmlns="http://www.w3.org/2000/svg" width="24" height="24" viewBox="0 0 24 24" fill="none">
<path d="M14.75 1.25C17.55 1.25 18.95 1.25013 20.0195 1.79492C20.9603 2.27429 21.7257 3.03966 22.2051 3.98047C22.7499 5.04998 22.75 6.45005 22.75 9.25V14.75C22.75 17.55 22.7499 18.95 22.2051 20.0195C21.7257 20.9603 20.9603 21.7257 20.0195 22.2051C18.95 22.7499 17.55 22.75 14.75 22.75H9.25C6.45005 22.75 5.04998 22.7499 3.98047 22.2051C3.03966 21.7257 2.27429 20.9603 1.79492 20.0195C1.25013 18.95 1.25 17.55 1.25 14.75V9.25C1.25 6.45005 1.25013 5.04998 1.79492 3.98047C2.27429 3.03966 3.03966 2.27429 3.98047 1.79492C5.04998 1.25013 6.45005 1.25 9.25 1.25H14.75ZM18.0303 9.96973C17.7374 9.67683 17.2626 9.67683 16.9697 9.96973L12 14.9395L7.03027 9.96973L6.97363 9.91797C6.67905 9.67766 6.24433 9.69512 5.96973 9.96973C5.67683 10.2626 5.67683 10.7374 5.96973 11.0303L11.4697 16.5303C11.7626 16.8232 12.2374 16.8232 12.5303 16.5303L18.0303 11.0303C18.3232 10.7374 18.3232 10.2626 18.0303 9.96973ZM15.5303 7.46973C15.2374 7.17683 14.7626 7.17683 14.4697 7.46973L12 9.93945L9.53027 7.46973C9.23738 7.17683 8.76262 7.17683 8.46973 7.46973C8.19512 7.74433 8.17766 8.17905 8.41797 8.47363L8.46973 8.53027L11.4697 11.5303C11.7626 11.8232 12.2374 11.8232 12.5303 11.5303L15.5303 8.53027C15.8232 8.23738 15.8232 7.76262 15.5303 7.46973Z" fill="currentColor" />
</svg>