<svg xmlns="http://www.w3.org/2000/svg" width="24" height="24" viewBox="0 0 24 24" fill="none">
<path d="M13.8635 0.25C15.1483 0.25 16.2982 1.04703 16.7493 2.25C18.9583 2.25 20.7493 4.04096 20.7493 6.25V14.75C20.7493 17.55 20.7491 18.95 20.2043 20.0195C19.725 20.9603 18.9596 21.7257 18.0188 22.2051C16.9493 22.7499 15.5492 22.75 12.7493 22.75H11.2493C8.44931 22.75 7.04925 22.7499 5.97974 22.2051C5.03893 21.7257 4.27356 20.9603 3.79419 20.0195C3.2494 18.95 3.24927 17.55 3.24927 14.75V6.25C3.24937 4.04091 5.04017 2.2501 7.24927 2.25C7.70044 1.04698 8.85115 0.25 10.136 0.25H13.8635ZM8.99927 14.25C8.58517 14.2501 8.24927 14.5859 8.24927 15C8.24927 15.4141 8.58517 15.7499 8.99927 15.75H12.9993C13.4135 15.75 13.7493 15.4142 13.7493 15C13.7493 14.5858 13.4135 14.25 12.9993 14.25H8.99927ZM8.99927 10.25C8.58517 10.2501 8.24927 10.5859 8.24927 11C8.24927 11.4141 8.58517 11.7499 8.99927 11.75H14.9993C15.4135 11.75 15.7493 11.4142 15.7493 11C15.7493 10.5858 15.4135 10.25 14.9993 10.25H8.99927ZM9.99927 1.75C9.309 1.7501 8.74927 2.30971 8.74927 3C8.74927 3.69029 9.309 4.2499 9.99927 4.25H13.9993C14.6896 4.25 15.2493 3.69036 15.2493 3C15.2493 2.30964 14.6896 1.75 13.9993 1.75H9.99927Z" fill="currentColor" />
</svg>