<svg xmlns="http://www.w3.org/2000/svg" width="24" height="24" viewBox="0 0 24 24" fill="none">
<path d="M13.8638 0.25C15.1485 0.25 16.2984 1.04703 16.7495 2.25C18.9585 2.25 20.7495 4.04096 20.7495 6.25V14.75C20.7495 17.55 20.7494 18.95 20.2046 20.0195C19.7252 20.9603 18.9599 21.7257 18.019 22.2051C16.9495 22.7499 15.5495 22.75 12.7495 22.75H11.2495C8.44956 22.75 7.04949 22.7499 5.97998 22.2051C5.03917 21.7257 4.2738 20.9603 3.79443 20.0195C3.24965 18.95 3.24951 17.55 3.24951 14.75V6.25C3.24961 4.04091 5.04042 2.2501 7.24951 2.25C7.70068 1.04698 8.85139 0.25 10.1362 0.25H13.8638ZM15.5308 10.4697C15.238 10.1769 14.7631 10.1771 14.4702 10.4697L11.0005 13.9395L10.0308 12.9697L9.97412 12.918C9.67963 12.6777 9.24483 12.6954 8.97021 12.9697C8.67732 13.2626 8.67732 13.7374 8.97021 14.0303L10.4702 15.5303C10.6108 15.6708 10.8017 15.75 11.0005 15.75C11.1992 15.7499 11.3902 15.6708 11.5308 15.5303L15.5308 11.5303C15.8233 11.2374 15.8233 10.7626 15.5308 10.4697ZM9.99951 1.75C9.30924 1.7501 8.74951 2.30971 8.74951 3C8.74951 3.69029 9.30924 4.2499 9.99951 4.25H13.9995C14.6899 4.25 15.2495 3.69036 15.2495 3C15.2495 2.30964 14.6899 1.75 13.9995 1.75H9.99951Z" fill="currentColor" />
</svg>