<svg xmlns="http://www.w3.org/2000/svg" width="24" height="24" viewBox="0 0 24 24" fill="none">
<path d="M13.864 0.25C15.1488 0.25 16.2986 1.04703 16.7498 2.25C18.9588 2.25 20.7498 4.04096 20.7498 6.25V14.75C20.7498 17.55 20.7496 18.95 20.2048 20.0195C19.7255 20.9603 18.9601 21.7257 18.0193 22.2051C16.9498 22.7499 15.5497 22.75 12.7498 22.75H11.2498C8.4498 22.75 7.04974 22.7499 5.98022 22.2051C5.03941 21.7257 4.27404 20.9603 3.79468 20.0195C3.24989 18.95 3.24976 17.55 3.24976 14.75V6.25C3.24985 4.04091 5.04066 2.2501 7.24976 2.25C7.70092 1.04698 8.85164 0.25 10.1365 0.25H13.864ZM14.53 10.4697C14.2371 10.1768 13.7624 10.1768 13.4695 10.4697L11.9998 11.9395L10.53 10.4697C10.2371 10.1768 9.76238 10.1768 9.46948 10.4697C9.17659 10.7626 9.17659 11.2374 9.46948 11.5303L10.9392 13L9.46948 14.4697C9.17659 14.7626 9.17659 15.2374 9.46948 15.5303C9.76238 15.8232 10.2371 15.8232 10.53 15.5303L11.9998 14.0605L13.4695 15.5303L13.5261 15.582C13.8207 15.8223 14.2554 15.8049 14.53 15.5303C14.8046 15.2557 14.8221 14.8209 14.5818 14.5264L14.53 14.4697L13.0603 13L14.53 11.5303C14.8229 11.2374 14.8229 10.7626 14.53 10.4697ZM9.99976 1.75C9.30948 1.7501 8.74976 2.30971 8.74976 3C8.74976 3.69029 9.30948 4.2499 9.99976 4.25H13.9998C14.6901 4.25 15.2498 3.69036 15.2498 3C15.2498 2.30964 14.6901 1.75 13.9998 1.75H9.99976Z" fill="currentColor" />
</svg>