<svg xmlns="http://www.w3.org/2000/svg" width="24" height="24" viewBox="0 0 24 24" fill="none">
<path d="M16 3C16 4.10457 15.1046 5 14 5H10C8.89543 5 8 4.10457 8 3M16 3C16 2.63571 15.9026 2.29417 15.7324 2C15.5568 1.69637 15.3036 1.4432 15 1.26756M16 3C18.2091 3 20 4.79086 20 7V14.0001C20 16.8003 20 18.2004 19.4551 19.2699C18.9757 20.2108 18.2108 20.9757 17.2699 21.4551C16.2004 22 14.8003 22 12.0001 22H11.6562C9.17981 22 7.9416 22 6.97392 21.5711C5.8391 21.0681 4.93196 20.1609 4.42897 19.0261C4.00005 18.0584 4.00007 16.8202 4.00011 14.3438L4 14M8 3C8 1.89543 8.89543 1 10 1H12M8 3C5.79086 3 4 4.79086 4 7V9.5V10" stroke="currentColor" stroke-width={1.5} stroke-linecap="round" stroke-linejoin="round" />
</svg>