<svg xmlns="http://www.w3.org/2000/svg" width="24" height="24" viewBox="0 0 24 24" fill="none">
<path d="M1.46961 1.46973C1.74421 1.19512 2.17893 1.17766 2.47352 1.41797L2.53016 1.46973L22.5302 21.4697L22.5819 21.5264C22.8222 21.8209 22.8048 22.2557 22.5302 22.5303C22.2556 22.8049 21.8208 22.8223 21.5262 22.582L21.4696 22.5303L19.327 20.3877C18.5835 21.1148 17.6456 21.4412 16.4891 21.5967C15.3383 21.7514 13.8643 21.75 11.9999 21.75C10.1355 21.75 8.66147 21.7514 7.51062 21.5967C6.33832 21.439 5.38979 21.1067 4.64148 20.3584C3.89317 19.6101 3.56084 18.6616 3.4032 17.4893C3.24848 16.3384 3.24988 14.8644 3.24988 13V7.57129C3.24988 7.06107 3.2491 6.74338 3.28016 6.46777C3.34594 5.8844 3.51715 5.33358 3.77332 4.83398L1.46961 2.53027C1.17672 2.23738 1.17672 1.76262 1.46961 1.46973ZM12.9999 0.25C14.2587 0.25 15.317 1.09665 15.6434 2.25098C16.032 2.2513 16.2974 2.25383 16.5321 2.28027C18.734 2.52856 20.4713 4.26593 20.7196 6.46777C20.7507 6.74337 20.7499 7.06107 20.7499 7.57129V15.0195C20.7439 15.4337 20.4033 15.7647 19.9891 15.7588C19.575 15.7528 19.244 15.4121 19.2499 14.998V7.57129C19.2499 7.02027 19.2486 6.80655 19.2294 6.63574C19.0595 5.12928 17.8706 3.94042 16.3641 3.77051C16.2174 3.75398 16.039 3.75155 15.6425 3.75098C15.3154 4.90424 14.258 5.75 12.9999 5.75H10.9999C9.74171 5.75 8.68334 4.90437 8.35633 3.75098C7.96051 3.75156 7.78221 3.75399 7.63562 3.77051C7.48241 3.78779 7.33286 3.81606 7.18738 3.85352C6.78626 3.95684 6.37664 3.7146 6.27332 3.31348C6.1703 2.91261 6.41162 2.50384 6.81238 2.40039C7.02538 2.34553 7.24449 2.30544 7.46766 2.28027C7.70217 2.25385 7.96728 2.25131 8.35535 2.25098C8.68169 1.09652 9.74096 0.25 10.9999 0.25H12.9999ZM10.9999 1.75C10.3095 1.75 9.74988 2.30964 9.74988 3C9.74988 3.69036 10.3095 4.25 10.9999 4.25H12.9999C13.6902 4.25 14.2499 3.69036 14.2499 3C14.2499 2.30964 13.6902 1.75 12.9999 1.75H10.9999Z" fill="currentColor" />
</svg>