<svg xmlns="http://www.w3.org/2000/svg" width="24" height="24" viewBox="0 0 24 24" fill="none">
<path opacity={0.32} d="M12 1.25C6.06294 1.25 1.25 6.06294 1.25 12C1.25 17.9371 6.06294 22.75 12 22.75C17.9371 22.75 22.75 17.9371 22.75 12C22.75 6.06294 17.9371 1.25 12 1.25Z" fill="currentColor" /><path d="M14.4697 8.46967C14.7626 8.17678 15.2373 8.17678 15.5302 8.46967C15.8231 8.76256 15.8231 9.23732 15.5302 9.53022L13.0605 11.9999L15.5302 14.4697L15.582 14.5263C15.8223 14.8209 15.8048 15.2556 15.5302 15.5302C15.2556 15.8048 14.8209 15.8223 14.5263 15.582L14.4697 15.5302L11.9999 13.0605L9.53022 15.5302C9.23732 15.8231 8.76256 15.8231 8.46967 15.5302C8.17678 15.2373 8.17678 14.7626 8.46967 14.4697L10.9394 11.9999L8.46967 9.53022L8.41791 9.47358C8.1776 9.179 8.19507 8.74427 8.46967 8.46967C8.74427 8.19507 9.179 8.1776 9.47358 8.41791L9.53022 8.46967L11.9999 10.9394L14.4697 8.46967ZM3.46967 0.46967C3.76256 0.176777 4.23732 0.176777 4.53022 0.46967C4.82311 0.762563 4.82311 1.23732 4.53022 1.53022L1.53022 4.53022C1.23732 4.82311 0.762563 4.82311 0.46967 4.53022C0.176777 4.23732 0.176777 3.76256 0.46967 3.46967L3.46967 0.46967ZM19.4697 0.46967C19.7626 0.176777 20.2373 0.176777 20.5302 0.46967L23.5302 3.46967L23.582 3.52631C23.8223 3.82089 23.8048 4.25561 23.5302 4.53022C23.2556 4.80482 22.8209 4.82228 22.5263 4.58197L22.4697 4.53022L19.4697 1.53022L19.4179 1.47358C19.1776 1.17899 19.1951 0.744274 19.4697 0.46967Z" fill="currentColor" />
</svg>