<svg xmlns="http://www.w3.org/2000/svg" width="24" height="24" viewBox="0 0 24 24" fill="none">
<path d="M11.9999 1.24994C17.937 1.24994 22.7499 6.06288 22.7499 11.9999C22.7499 17.937 17.937 22.7499 11.9999 22.7499C6.06288 22.7499 1.24994 17.937 1.24994 11.9999C1.24994 6.06288 6.06288 1.24994 11.9999 1.24994ZM7.99994 11.2499C7.58573 11.2499 7.24994 11.5857 7.24994 11.9999C7.24994 12.4142 7.58573 12.7499 7.99994 12.7499H15.9999C16.4142 12.7499 16.7499 12.4142 16.7499 11.9999C16.7499 11.5857 16.4142 11.2499 15.9999 11.2499H7.99994ZM3.46967 0.46967C3.76256 0.176777 4.23732 0.176777 4.53022 0.46967C4.82311 0.762563 4.82311 1.23732 4.53022 1.53022L1.53022 4.53022C1.23732 4.82311 0.762563 4.82311 0.46967 4.53022C0.176777 4.23732 0.176777 3.76256 0.46967 3.46967L3.46967 0.46967ZM19.4697 0.46967C19.7626 0.176777 20.2373 0.176777 20.5302 0.46967L23.5302 3.46967L23.582 3.52631C23.8223 3.82089 23.8048 4.25561 23.5302 4.53022C23.2556 4.80482 22.8209 4.82228 22.5263 4.58197L22.4697 4.53022L19.4697 1.53022L19.4179 1.47358C19.1776 1.17899 19.1951 0.744274 19.4697 0.46967Z" fill="currentColor" />
</svg>