<svg xmlns="http://www.w3.org/2000/svg" width="24" height="24" viewBox="0 0 24 24" fill="none">
<path opacity={0.32} d="M12 1.25C6.06294 1.25 1.25 6.06294 1.25 12C1.25 17.9371 6.06294 22.75 12 22.75C17.9371 22.75 22.75 17.9371 22.75 12C22.75 6.06294 17.9371 1.25 12 1.25Z" fill="currentColor" /><path d="M13.9999 8.24994C14.2765 8.24994 14.5306 8.40256 14.6611 8.64643C14.7915 8.89025 14.7773 9.18589 14.624 9.41596L11.4013 14.2499H13.9999C14.4142 14.2499 14.7499 14.5857 14.7499 14.9999C14.7499 15.4142 14.4142 15.7499 13.9999 15.7499H9.99994C9.72335 15.7499 9.46933 15.5973 9.33881 15.3535C9.20844 15.1096 9.22254 14.814 9.37592 14.5839L12.5986 9.74994H9.99994C9.58573 9.74994 9.24994 9.41416 9.24994 8.99994C9.24994 8.58573 9.58573 8.24994 9.99994 8.24994H13.9999ZM3.46967 0.46967C3.76256 0.176777 4.23732 0.176777 4.53022 0.46967C4.82311 0.762563 4.82311 1.23732 4.53022 1.53022L1.53022 4.53022C1.23732 4.82311 0.762563 4.82311 0.46967 4.53022C0.176777 4.23732 0.176777 3.76256 0.46967 3.46967L3.46967 0.46967ZM19.4697 0.46967C19.7626 0.176777 20.2373 0.176777 20.5302 0.46967L23.5302 3.46967L23.582 3.52631C23.8223 3.82089 23.8048 4.25561 23.5302 4.53022C23.2556 4.80482 22.8209 4.82228 22.5263 4.58197L22.4697 4.53022L19.4697 1.53022L19.4179 1.47358C19.1776 1.17899 19.1951 0.744274 19.4697 0.46967Z" fill="currentColor" />
</svg>