<svg xmlns="http://www.w3.org/2000/svg" width="24" height="24" viewBox="0 0 24 24" fill="none">
<path opacity={0.4} d="M8.33301 3.03947C9.69245 2.37412 11.2248 2 12.8458 2C18.4536 2 22.9997 6.47715 22.9997 12C22.9997 13.5965 22.6198 15.1056 21.9442 16.4444M19.9997 1L22.9997 4" stroke="currentColor" stroke-width={1.5} stroke-linecap="round" stroke-linejoin="round" /><path d="M23 22L20.026 19.0711M1 3.66667L2.69231 2L5.6663 4.92893M20.026 19.0711C18.1885 20.8807 15.6501 22 12.8462 22C7.23834 22 2.69231 17.5228 2.69231 12C2.69231 9.23858 3.82882 6.73858 5.6663 4.92893M20.026 19.0711L5.6663 4.92893" stroke="currentColor" stroke-width={1.5} stroke-linecap="round" stroke-linejoin="round" />
</svg>