<svg xmlns="http://www.w3.org/2000/svg" width="24" height="24" viewBox="0 0 24 24" fill="none">
<path d="M2.22261 1.41498C2.51572 1.1791 2.945 1.19621 3.21871 1.46576L6.19234 4.39447L20.5527 18.5371L23.5263 21.4658L23.5781 21.5224C23.8205 21.8151 23.8066 22.2497 23.5341 22.5263C23.2435 22.8213 22.7687 22.8247 22.4736 22.5341L20.0058 20.1035C18.0895 21.7503 15.5852 22.7499 12.8457 22.7499C6.83467 22.7497 1.94234 17.9476 1.94234 11.9999C1.94234 9.30035 2.95403 6.83528 4.61812 4.94916L2.69234 3.0517L1.52632 4.20112L1.46871 4.2519C1.17241 4.48978 0.738268 4.46967 0.465777 4.1933C0.175128 3.89818 0.178469 3.42243 0.47359 3.13178L2.16597 1.46576L2.22261 1.41498ZM12.8457 1.24994C18.8569 1.24994 23.75 6.05213 23.75 11.9999C23.75 13.7167 23.3413 15.3413 22.6142 16.7822L22.5761 16.8486C22.3715 17.1691 21.9532 17.2892 21.6064 17.1142C21.2367 16.9276 21.0888 16.4762 21.2753 16.1064L21.496 15.6357C21.9813 14.5202 22.25 13.2916 22.25 11.9999C22.25 6.90206 18.0501 2.74994 12.8457 2.74994C11.3413 2.75001 9.92165 3.09686 8.66304 3.71283L8.59273 3.74311C8.23613 3.87507 7.83092 3.71787 7.66011 3.36908C7.47802 2.99704 7.63182 2.54824 8.00386 2.36615L8.27925 2.23529C9.66933 1.60241 11.2169 1.25001 12.8457 1.24994ZM19.4697 0.46967C19.7626 0.176777 20.2373 0.176777 20.5302 0.46967L23.5302 3.46967L23.582 3.52631C23.8223 3.82089 23.8048 4.25561 23.5302 4.53022C23.2556 4.80482 22.8209 4.82228 22.5263 4.58197L22.4697 4.53022L19.4697 1.53022L19.4179 1.47358C19.1776 1.17899 19.1951 0.744274 19.4697 0.46967Z" fill="currentColor" />
</svg>