<svg xmlns="http://www.w3.org/2000/svg" width="24" height="24" viewBox="0 0 24 24" fill="none">
<path opacity={0.32} d="M5.66638 3.87627L5.14011 4.39457C3.16662 6.33815 1.94238 9.02788 1.94238 12C1.94238 17.9478 6.83504 22.75 12.8462 22.75C15.8533 22.75 18.5791 21.5488 20.5523 19.6054L21.0949 19.0711L5.66638 3.87627Z" fill="currentColor" /><path d="M2.22261 1.41494C2.51572 1.17906 2.945 1.19617 3.21871 1.46572L23.5263 21.4657L23.5781 21.5224C23.8205 21.8151 23.8066 22.2496 23.5341 22.5263C23.2435 22.8212 22.7687 22.8247 22.4736 22.5341L2.69234 3.05166L1.52632 4.20107L1.46871 4.25186C1.17241 4.48974 0.738268 4.46963 0.465777 4.19326C0.175128 3.89814 0.178469 3.42239 0.47359 3.13174L2.16597 1.46572L2.22261 1.41494ZM12.8466 1.2499C18.8577 1.2501 23.75 6.05221 23.75 11.9999C23.75 13.7167 23.3413 15.3412 22.6142 16.7821C22.4276 17.1519 21.9762 17.3008 21.6064 17.1142C21.2368 16.9275 21.0888 16.4761 21.2753 16.1063L21.496 15.6356C21.9814 14.5201 22.25 13.2916 22.25 11.9999C22.25 6.90214 18.0509 2.7501 12.8466 2.7499C11.342 2.7499 9.92181 3.09672 8.66304 3.71279L8.33394 3.03897L8.00386 2.36611C9.46398 1.65149 11.1091 1.2499 12.8466 1.2499ZM19.4697 0.469629C19.7626 0.176763 20.2373 0.176817 20.5302 0.469629L23.5302 3.46963L23.582 3.52627C23.8224 3.82085 23.8049 4.25555 23.5302 4.53018C23.2373 4.82299 22.7626 4.82304 22.4697 4.53018L19.4697 1.53018C19.1769 1.2373 19.1769 0.762502 19.4697 0.469629ZM8.66304 3.71279C8.29103 3.89486 7.84223 3.74101 7.66011 3.36904C7.47803 2.99702 7.63187 2.54822 8.00386 2.36611L8.66304 3.71279Z" fill="currentColor" />
</svg>