<svg xmlns="http://www.w3.org/2000/svg" width="24" height="24" viewBox="0 0 24 24" fill="none">
<path d="M11.9999 1.24994C17.937 1.24994 22.7499 6.06288 22.7499 11.9999C22.7499 17.937 17.937 22.7499 11.9999 22.7499C6.06288 22.7499 1.24994 17.937 1.24994 11.9999C1.24994 6.06288 6.06288 1.24994 11.9999 1.24994ZM15.5302 8.46967C15.2373 8.17678 14.7626 8.17678 14.4697 8.46967L11.9999 10.9394L9.53022 8.46967C9.23732 8.17678 8.76256 8.17678 8.46967 8.46967C8.17678 8.76256 8.17678 9.23732 8.46967 9.53022L10.9394 11.9999L8.46967 14.4697C8.17678 14.7626 8.17678 15.2373 8.46967 15.5302C8.76256 15.8231 9.23732 15.8231 9.53022 15.5302L11.9999 13.0605L14.4697 15.5302L14.5263 15.582C14.8209 15.8223 15.2556 15.8048 15.5302 15.5302C15.8048 15.2556 15.8223 14.8209 15.582 14.5263L15.5302 14.4697L13.0605 11.9999L15.5302 9.53022C15.8231 9.23732 15.8231 8.76256 15.5302 8.46967ZM3.46967 0.46967C3.76256 0.176777 4.23732 0.176777 4.53022 0.46967C4.82311 0.762563 4.82311 1.23732 4.53022 1.53022L1.53022 4.53022C1.23732 4.82311 0.762563 4.82311 0.46967 4.53022C0.176777 4.23732 0.176777 3.76256 0.46967 3.46967L3.46967 0.46967ZM19.4697 0.46967C19.7626 0.176777 20.2373 0.176777 20.5302 0.46967L23.5302 3.46967L23.582 3.52631C23.8223 3.82089 23.8048 4.25561 23.5302 4.53022C23.2556 4.80482 22.8209 4.82228 22.5263 4.58197L22.4697 4.53022L19.4697 1.53022L19.4179 1.47358C19.1776 1.17899 19.1951 0.744274 19.4697 0.46967Z" fill="currentColor" />
</svg>