<svg xmlns="http://www.w3.org/2000/svg" width="24" height="24" viewBox="0 0 24 24" fill="none">
<path d="M11.9999 1.24994C17.937 1.24994 22.7499 6.06288 22.7499 11.9999C22.7499 17.937 17.937 22.7499 11.9999 22.7499C6.06288 22.7499 1.24994 17.937 1.24994 11.9999C1.24994 6.06288 6.06288 1.24994 11.9999 1.24994ZM9.99994 8.24994C9.58573 8.24994 9.24994 8.58573 9.24994 8.99994C9.24994 9.41416 9.58573 9.74994 9.99994 9.74994H12.5986L9.37592 14.5839C9.22254 14.814 9.20844 15.1096 9.33881 15.3535C9.46933 15.5973 9.72335 15.7499 9.99994 15.7499H13.9999C14.4142 15.7499 14.7499 15.4142 14.7499 14.9999C14.7499 14.5857 14.4142 14.2499 13.9999 14.2499H11.4013L14.624 9.41596C14.7773 9.18589 14.7915 8.89025 14.6611 8.64643C14.5469 8.43305 14.3382 8.28926 14.1025 8.25678L13.9999 8.24994H9.99994ZM3.46967 0.46967C3.76256 0.176777 4.23732 0.176777 4.53022 0.46967C4.82311 0.762563 4.82311 1.23732 4.53022 1.53022L1.53022 4.53022C1.23732 4.82311 0.762563 4.82311 0.46967 4.53022C0.176777 4.23732 0.176777 3.76256 0.46967 3.46967L3.46967 0.46967ZM19.4697 0.46967C19.7626 0.176777 20.2373 0.176777 20.5302 0.46967L23.5302 3.46967L23.582 3.52631C23.8223 3.82089 23.8048 4.25561 23.5302 4.53022C23.2556 4.80482 22.8209 4.82228 22.5263 4.58197L22.4697 4.53022L19.4697 1.53022L19.4179 1.47358C19.1776 1.17899 19.1951 0.744274 19.4697 0.46967Z" fill="currentColor" />
</svg>