<svg xmlns="http://www.w3.org/2000/svg" width="24" height="24" viewBox="0 0 24 24" fill="none">
<path d="M11.9999 1.24994C17.937 1.24994 22.7499 6.06288 22.7499 11.9999C22.7499 17.937 17.937 22.7499 11.9999 22.7499C6.06288 22.7499 1.24994 17.937 1.24994 11.9999C1.24994 6.06288 6.06288 1.24994 11.9999 1.24994ZM16.5302 8.46967C16.2373 8.17678 15.7626 8.17678 15.4697 8.46967L10.9999 12.9394L9.53022 11.4697L9.47358 11.4179C9.179 11.1776 8.74427 11.1951 8.46967 11.4697C8.17678 11.7626 8.17678 12.2373 8.46967 12.5302L10.4697 14.5302C10.6103 14.6709 10.801 14.7499 10.9999 14.7499C11.1989 14.7499 11.3896 14.6709 11.5302 14.5302L16.5302 9.53022C16.8231 9.23732 16.8231 8.76256 16.5302 8.46967ZM3.46967 0.46967C3.76256 0.176777 4.23732 0.176777 4.53022 0.46967C4.82311 0.762563 4.82311 1.23732 4.53022 1.53022L1.53022 4.53022C1.23732 4.82311 0.762563 4.82311 0.46967 4.53022C0.176777 4.23732 0.176777 3.76256 0.46967 3.46967L3.46967 0.46967ZM19.4697 0.46967C19.7626 0.176777 20.2373 0.176777 20.5302 0.46967L23.5302 3.46967L23.582 3.52631C23.8223 3.82089 23.8048 4.25561 23.5302 4.53022C23.2556 4.80482 22.8209 4.82228 22.5263 4.58197L22.4697 4.53022L19.4697 1.53022L19.4179 1.47358C19.1776 1.17899 19.1951 0.744274 19.4697 0.46967Z" fill="currentColor" />
</svg>