<svg xmlns="http://www.w3.org/2000/svg" width="24" height="24" viewBox="0 0 24 24" fill="none">
<path opacity={0.32} d="M12 1.25C6.06294 1.25 1.25 6.06294 1.25 12C1.25 17.9371 6.06294 22.75 12 22.75C17.9371 22.75 22.75 17.9371 22.75 12C22.75 6.06294 17.9371 1.25 12 1.25Z" fill="currentColor" /><path d="M11.9999 7.24994C12.4142 7.24994 12.7499 7.58573 12.7499 7.99994V11.5986L15.416 13.3759L15.4775 13.4218C15.7709 13.6636 15.8394 14.0928 15.624 14.416C15.4086 14.739 14.9863 14.8407 14.6503 14.663L14.5839 14.624L11.5839 12.624C11.3753 12.4849 11.2499 12.2507 11.2499 11.9999V7.99994C11.2499 7.58573 11.5857 7.24994 11.9999 7.24994ZM3.46967 0.46967C3.76256 0.176777 4.23732 0.176777 4.53022 0.46967C4.82311 0.762563 4.82311 1.23732 4.53022 1.53022L1.53022 4.53022C1.23732 4.82311 0.762563 4.82311 0.46967 4.53022C0.176777 4.23732 0.176777 3.76256 0.46967 3.46967L3.46967 0.46967ZM19.4697 0.46967C19.7626 0.176777 20.2373 0.176777 20.5302 0.46967L23.5302 3.46967L23.582 3.52631C23.8223 3.82089 23.8048 4.25561 23.5302 4.53022C23.2556 4.80482 22.8209 4.82228 22.5263 4.58197L22.4697 4.53022L19.4697 1.53022L19.4179 1.47358C19.1776 1.17899 19.1951 0.744274 19.4697 0.46967Z" fill="currentColor" />
</svg>