<svg xmlns="http://www.w3.org/2000/svg" width="24" height="24" viewBox="0 0 24 24" fill="none">
<path d="M12 21C12.5523 21 13 21.4477 13 22C13 22.5523 12.5523 23 12 23C11.4477 23 11 22.5523 11 22C11 21.4477 11.4477 21 12 21ZM8 19C8.55228 19 9 19.4477 9 20C9 20.5523 8.55228 21 8 21C7.44772 21 7 20.5523 7 20C7 19.4477 7.44772 19 8 19ZM16 19C16.5523 19 17 19.4477 17 20C17 20.5523 16.5523 21 16 21C15.4477 21 15 20.5523 15 20C15 19.4477 15.4477 19 16 19ZM12 1.25C15.8601 1.25 19.0947 3.90383 20.1143 7.50391C22.2676 8.52313 23.7499 10.7562 23.75 13.333C23.75 15.9638 22.2007 18.2445 19.9697 19.2305C19.6977 19.3507 19.5612 19.4103 19.4102 19.3828C19.2897 19.3607 19.1547 19.2732 19.0859 19.1719C18.9999 19.0448 19 18.8752 19 18.5371V13.1211C19 12.401 18.9996 12.0408 18.8496 11.7988C18.7182 11.587 18.5123 11.4313 18.2725 11.3633C17.9986 11.2859 17.6519 11.3853 16.96 11.583L13.7578 12.498C13.104 12.6848 12.7769 12.7783 12.4443 12.8154C12.149 12.8484 11.851 12.8484 11.5557 12.8154C11.2231 12.7783 10.896 12.6848 10.2422 12.498L7.04004 11.583C6.3481 11.3853 6.00135 11.2859 5.72754 11.3633C5.48774 11.4313 5.28176 11.587 5.15039 11.7988C5.00044 12.0408 5 12.401 5 13.1211V18.8691C5 19.1613 4.99954 19.3071 4.92676 19.4268C4.86911 19.5216 4.75163 19.6132 4.64551 19.6455C4.51164 19.6862 4.39025 19.6549 4.14746 19.5928C1.89697 19.017 0.250058 16.9258 0.25 14.4668C0.25 12.2253 1.61427 10.2947 3.55859 9.53125C3.76285 4.9415 7.4446 1.25 12 1.25ZM12 16C12.5523 16 13 16.4477 13 17C13 17.5523 12.5523 18 12 18C11.4477 18 11 17.5523 11 17C11 16.4477 11.4477 16 12 16ZM8 14C8.55228 14 9 14.4477 9 15C9 15.5523 8.55228 16 8 16C7.44772 16 7 15.5523 7 15C7 14.4477 7.44772 14 8 14ZM16 14C16.5523 14 17 14.4477 17 15C17 15.5523 16.5523 16 16 16C15.4477 16 15 15.5523 15 15C15 14.4477 15.4477 14 16 14Z" fill="currentColor" />
</svg>