<svg xmlns="http://www.w3.org/2000/svg" width="24" height="24" viewBox="0 0 24 24" fill="none">
<path d="M12 2.25C15.8601 2.25 19.0947 4.90383 20.1143 8.50391C22.2676 9.52313 23.7499 11.7562 23.75 14.333C23.75 17.8556 20.9727 20.75 17.5 20.75H5.40039C2.53522 20.75 0.250069 18.3634 0.25 15.4668C0.25 13.2253 1.61427 11.2947 3.55859 10.5312C3.76285 5.9415 7.4446 2.25 12 2.25ZM14.5303 10.4697C14.2374 10.1768 13.7626 10.1768 13.4697 10.4697L12 11.9395L10.5303 10.4697C10.2374 10.1768 9.76262 10.1768 9.46973 10.4697C9.17683 10.7626 9.17683 11.2374 9.46973 11.5303L10.9395 13L9.46973 14.4697C9.17683 14.7626 9.17683 15.2374 9.46973 15.5303C9.76262 15.8232 10.2374 15.8232 10.5303 15.5303L12 14.0605L13.4697 15.5303L13.5264 15.582C13.8209 15.8223 14.2557 15.8049 14.5303 15.5303C14.8049 15.2557 14.8223 14.8209 14.582 14.5264L14.5303 14.4697L13.0605 13L14.5303 11.5303C14.8232 11.2374 14.8232 10.7626 14.5303 10.4697Z" fill="currentColor" />
</svg>