<svg xmlns="http://www.w3.org/2000/svg" width="24" height="24" viewBox="0 0 24 24" fill="none">
<path d="M12 19.25C12.4142 19.25 12.75 19.5858 12.75 20V22C12.75 22.4142 12.4142 22.75 12 22.75C11.5858 22.75 11.25 22.4142 11.25 22V20C11.25 19.5858 11.5858 19.25 12 19.25ZM8 18.25C8.41421 18.25 8.75 18.5858 8.75 19V21C8.75 21.4142 8.41421 21.75 8 21.75C7.58579 21.75 7.25 21.4142 7.25 21V19C7.25 18.5858 7.58579 18.25 8 18.25ZM16 18.25C16.4142 18.25 16.75 18.5858 16.75 19V21C16.75 21.4142 16.4142 21.75 16 21.75C15.5858 21.75 15.25 21.4142 15.25 21V19C15.25 18.5858 15.5858 18.25 16 18.25ZM12 1.25C15.8601 1.25 19.0947 3.90383 20.1143 7.50391C22.2676 8.52313 23.7499 10.7562 23.75 13.333C23.75 15.9638 22.2007 18.2445 19.9697 19.2305C19.6977 19.3507 19.5612 19.4103 19.4102 19.3828C19.2897 19.3607 19.1547 19.2732 19.0859 19.1719C18.9999 19.0448 19 18.8752 19 18.5371V13.1211C19 12.401 18.9996 12.0408 18.8496 11.7988C18.7182 11.587 18.5123 11.4313 18.2725 11.3633C17.9986 11.2859 17.6519 11.3853 16.96 11.583L13.7578 12.498C13.104 12.6848 12.7769 12.7783 12.4443 12.8154C12.149 12.8484 11.851 12.8484 11.5557 12.8154C11.2231 12.7783 10.896 12.6848 10.2422 12.498L7.04004 11.583C6.3481 11.3853 6.00135 11.2859 5.72754 11.3633C5.48774 11.4313 5.28176 11.587 5.15039 11.7988C5.00044 12.0408 5 12.401 5 13.1211V18.8691C5 19.1613 4.99954 19.3071 4.92676 19.4268C4.86911 19.5216 4.75163 19.6132 4.64551 19.6455C4.51164 19.6862 4.39025 19.6549 4.14746 19.5928C1.89697 19.017 0.250058 16.9258 0.25 14.4668C0.25 12.2253 1.61427 10.2947 3.55859 9.53125C3.76285 4.9415 7.4446 1.25 12 1.25ZM12 14.25C12.4142 14.25 12.75 14.5858 12.75 15V17C12.75 17.4142 12.4142 17.75 12 17.75C11.5858 17.75 11.25 17.4142 11.25 17V15C11.25 14.5858 11.5858 14.25 12 14.25ZM8 13.25C8.41421 13.25 8.75 13.5858 8.75 14V16C8.75 16.4142 8.41421 16.75 8 16.75C7.58579 16.75 7.25 16.4142 7.25 16V14C7.25 13.5858 7.58579 13.25 8 13.25ZM16 13.25C16.4142 13.25 16.75 13.5858 16.75 14V16C16.75 16.4142 16.4142 16.75 16 16.75C15.5858 16.75 15.25 16.4142 15.25 16V14C15.25 13.5858 15.5858 13.25 16 13.25Z" fill="currentColor" />
</svg>