<svg xmlns="http://www.w3.org/2000/svg" width="24" height="24" viewBox="0 0 24 24" fill="none">
<path d="M11.5264 12.418C11.8209 12.1777 12.2557 12.1951 12.5303 12.4697L16.0303 15.9697L16.082 16.0264C16.3223 16.3209 16.3049 16.7557 16.0303 17.0303C15.7557 17.3049 15.3209 17.3223 15.0264 17.082L14.9697 17.0303L12.75 14.8105V22C12.75 22.4142 12.4142 22.75 12 22.75C11.5858 22.75 11.25 22.4142 11.25 22V14.8105L9.03027 17.0303C8.73738 17.3232 8.26262 17.3232 7.96973 17.0303C7.67683 16.7374 7.67683 16.2626 7.96973 15.9697L11.4697 12.4697L11.5264 12.418ZM12 1.25C15.8601 1.25 19.0947 3.90383 20.1143 7.50391C22.2676 8.52313 23.7499 10.7562 23.75 13.333C23.75 16.8556 20.9727 19.75 17.5 19.75H14V17.8281L14.0859 17.9141C14.867 18.6951 16.133 18.6951 16.9141 17.9141C17.6951 17.133 17.6951 15.867 16.9141 15.0859L13.4141 11.5859C12.633 10.8049 11.367 10.8049 10.5859 11.5859L7.08594 15.0859C6.30489 15.867 6.30489 17.133 7.08594 17.9141C7.86699 18.6951 9.13301 18.6951 9.91406 17.9141L10 17.8281V19.75H5.40039C2.53522 19.75 0.250069 17.3634 0.25 14.4668C0.25 12.2253 1.61427 10.2947 3.55859 9.53125C3.76285 4.9415 7.4446 1.25 12 1.25Z" fill="currentColor" />
</svg>