<svg xmlns="http://www.w3.org/2000/svg" width="24" height="24" viewBox="0 0 24 24" fill="none">
<path d="M12.4697 13.4697C12.7626 13.1768 13.2374 13.1768 13.5303 13.4697C13.8232 13.7626 13.8232 14.2374 13.5303 14.5303L10.8105 17.25H15C15.3033 17.25 15.5773 17.4326 15.6934 17.7129C15.8094 17.9931 15.7448 18.3158 15.5303 18.5303L11.5303 22.5303C11.2374 22.8232 10.7626 22.8232 10.4697 22.5303C10.1768 22.2374 10.1768 21.7626 10.4697 21.4697L13.1895 18.75H9C8.69665 18.75 8.42273 18.5674 8.30664 18.2871C8.1906 18.0069 8.25525 17.6842 8.46973 17.4697L12.4697 13.4697ZM12 1.25C15.8601 1.25 19.0947 3.90383 20.1143 7.50391C22.2676 8.52313 23.7499 10.7562 23.75 13.333C23.75 16.8556 20.9727 19.75 17.5 19.75H16.0781L16.4141 19.4141C16.9861 18.8421 17.1572 17.9817 16.8477 17.2344C16.538 16.4872 15.8088 16 15 16H13.8281L14.4141 15.4141C15.1951 14.633 15.1951 13.367 14.4141 12.5859C13.633 11.8049 12.367 11.8049 11.5859 12.5859L7.58594 16.5859C7.01394 17.1579 6.84278 18.0183 7.15234 18.7656C7.32937 19.1928 7.64345 19.5352 8.03125 19.75H5.40039C2.53522 19.75 0.250069 17.3634 0.25 14.4668C0.25 12.2253 1.61427 10.2947 3.55859 9.53125C3.76285 4.9415 7.4446 1.25 12 1.25Z" fill="currentColor" />
</svg>