<svg xmlns="http://www.w3.org/2000/svg" width="24" height="24" viewBox="0 0 24 24" fill="none">
<path d="M12 2.25C15.8601 2.25 19.0947 4.90383 20.1143 8.50391C22.2676 9.52313 23.7499 11.7562 23.75 14.333C23.75 17.8556 20.9727 20.75 17.5 20.75H5.40039C2.53522 20.75 0.250069 18.3634 0.25 15.4668C0.25 13.2253 1.61427 11.2947 3.55859 10.5312C3.76285 5.9415 7.4446 2.25 12 2.25ZM15.5303 10.4697C15.2374 10.1768 14.7626 10.1768 14.4697 10.4697L11 13.9395L10.0303 12.9697L9.97363 12.918C9.67905 12.6777 9.24433 12.6951 8.96973 12.9697C8.67683 13.2626 8.67683 13.7374 8.96973 14.0303L10.4697 15.5303C10.6104 15.6709 10.8011 15.75 11 15.75C11.1989 15.75 11.3896 15.6709 11.5303 15.5303L15.5303 11.5303C15.8232 11.2374 15.8232 10.7626 15.5303 10.4697Z" fill="currentColor" />
</svg>