<svg xmlns="http://www.w3.org/2000/svg" width="24" height="24" viewBox="0 0 24 24" fill="none">
<path d="M12 12.25C12.4142 12.25 12.75 12.5858 12.75 13V20.1895L14.9697 17.9697C15.2626 17.6768 15.7374 17.6768 16.0303 17.9697C16.3232 18.2626 16.3232 18.7374 16.0303 19.0303L12.5303 22.5303C12.2374 22.8232 11.7626 22.8232 11.4697 22.5303L7.96973 19.0303C7.67683 18.7374 7.67683 18.2626 7.96973 17.9697C8.24433 17.6951 8.67905 17.6777 8.97363 17.918L9.03027 17.9697L11.25 20.1895V13C11.25 12.5858 11.5858 12.25 12 12.25ZM12 1.25C15.8445 1.25 19.0839 3.82898 20.1104 7.35352C22.259 8.34748 23.75 10.5301 23.75 13.0615C23.75 13.1064 23.75 13.1516 23.749 13.1963C23.75 13.2417 23.75 13.2873 23.75 13.333C23.75 16.8556 20.9727 19.75 17.5 19.75H17.0615C17.6917 18.9647 17.6425 17.8143 16.9141 17.0859C16.133 16.3049 14.867 16.3049 14.0859 17.0859L14 17.1719V13C14 11.8954 13.1046 11 12 11C10.8954 11 10 11.8954 10 13V17.1719L9.91406 17.0859C9.13301 16.3049 7.86699 16.3049 7.08594 17.0859C6.35753 17.8143 6.30825 18.9647 6.93848 19.75H5.40039C2.53522 19.75 0.250069 17.3634 0.25 14.4668C0.25 14.4163 0.250575 14.3656 0.251953 14.3154C0.250578 14.2663 0.25 14.2165 0.25 14.167C0.250173 11.9623 1.62278 10.0778 3.55957 9.33301C3.77228 4.8364 7.46622 1.25 12 1.25Z" fill="currentColor" />
</svg>