<svg xmlns="http://www.w3.org/2000/svg" width="24" height="24" viewBox="0 0 24 24" fill="none">
<path d="M14.75 1.25C17.55 1.25 18.95 1.25013 20.0195 1.79492C20.9603 2.27429 21.7257 3.03966 22.2051 3.98047C22.7499 5.04998 22.75 6.45005 22.75 9.25V14.75C22.75 17.55 22.7499 18.95 22.2051 20.0195C21.7257 20.9603 20.9603 21.7257 20.0195 22.2051C18.95 22.7499 17.55 22.75 14.75 22.75H9.25C6.45005 22.75 5.04998 22.7499 3.98047 22.2051C3.03966 21.7257 2.27429 20.9603 1.79492 20.0195C1.25013 18.95 1.25 17.55 1.25 14.75V9.25C1.25 6.45005 1.25013 5.04998 1.79492 3.98047C2.27429 3.03966 3.03966 2.27429 3.98047 1.79492C5.04998 1.25013 6.45005 1.25 9.25 1.25H14.75ZM14.5303 7.46973C14.2374 7.17683 13.7626 7.17683 13.4697 7.46973C13.1951 7.74433 13.1777 8.17905 13.418 8.47363L13.4697 8.53027L16.9395 12L13.4697 15.4697C13.1768 15.7626 13.1768 16.2374 13.4697 16.5303C13.7626 16.8232 14.2374 16.8232 14.5303 16.5303L18.5303 12.5303C18.8232 12.2374 18.8232 11.7626 18.5303 11.4697L14.5303 7.46973ZM10.5303 7.46973C10.2374 7.17683 9.76262 7.17683 9.46973 7.46973L5.46973 11.4697C5.17683 11.7626 5.17683 12.2374 5.46973 12.5303L9.46973 16.5303L9.52637 16.582C9.82095 16.8223 10.2557 16.8049 10.5303 16.5303C10.8049 16.2557 10.8223 15.8209 10.582 15.5264L10.5303 15.4697L7.06055 12L10.5303 8.53027C10.8232 8.23738 10.8232 7.76262 10.5303 7.46973Z" fill="currentColor" />
</svg>