<svg xmlns="http://www.w3.org/2000/svg" width="24" height="24" viewBox="0 0 24 24" fill="none">
<path d="M3 8V7.5V6.8C3 5.11984 3 4.27976 3.32698 3.63803C3.6146 3.07354 4.07354 2.6146 4.63803 2.32698C5.27976 2 6.11984 2 7.8 2H14.2C15.8802 2 16.7202 2 17.362 2.32698C17.9265 2.6146 18.3854 3.07354 18.673 3.63803C19 4.27976 19 5.11984 19 6.8V10C19 12.8003 19 14.2004 18.455 15.27C17.9757 16.2108 17.2108 16.9757 16.27 17.455C15.2004 18 13.8003 18 11 18H8.5C8.0357 18 7.80355 18 7.6077 17.9846C5.15582 17.7916 3.20838 15.8442 3.01541 13.3923C3 13.1965 3 12.9643 3 12.5V12M2 22H20M19 6C19.9319 6 20.3978 6 20.7654 6.15224C21.2554 6.35523 21.6448 6.74458 21.8478 7.23463C22 7.60218 22 8.06812 22 9V10C22 10.9319 22 11.3978 21.8478 11.7654C21.6448 12.2554 21.2554 12.6448 20.7654 12.8478C20.3978 13 19.9319 13 19 13" stroke="currentColor" stroke-width={1.5} stroke-linecap="round" stroke-linejoin="round" />
</svg>