<svg xmlns="http://www.w3.org/2000/svg" width="24" height="24" viewBox="0 0 24 24" fill="none">
<path d="M20 21.25C20.4142 21.25 20.75 21.5858 20.75 22C20.7499 22.4142 20.4142 22.75 20 22.75L2 22.75C1.58582 22.75 1.25005 22.4142 1.25 22C1.25 21.5858 1.58578 21.25 2 21.25L20 21.25ZM14.1504 1.25C16.1104 1.25 17.0902 1.25043 17.8389 1.63184C18.4974 1.9674 19.0336 2.50257 19.3691 3.16114C19.6294 3.67215 19.7101 4.29118 19.7363 5.25586C19.8842 5.25878 20.0205 5.26198 20.1455 5.27051C20.4626 5.29215 20.7624 5.33872 21.0527 5.45899C21.7264 5.7381 22.2619 6.2736 22.541 6.94727C22.6613 7.23759 22.7079 7.53748 22.7295 7.8545C22.7507 8.16484 22.75 8.54438 22.75 9L22.75 10C22.75 10.4556 22.7507 10.8352 22.7295 11.1455C22.7078 11.4625 22.6613 11.7624 22.541 12.0527C22.2619 12.7264 21.7264 13.2619 21.0527 13.541C20.7624 13.6613 20.4625 13.7079 20.1455 13.7295C20.0098 13.7388 19.8609 13.7423 19.6982 13.7451C19.6385 14.7279 19.508 15.4249 19.2051 16.0195C18.7258 16.9603 17.9612 17.7257 17.0205 18.2051C15.9509 18.75 14.5503 18.75 11.75 18.75L10.25 18.75C7.45004 18.75 6.04997 18.7499 4.98047 18.2051C4.03966 17.7257 3.27429 16.9603 2.79492 16.0195C2.25018 14.95 2.25 13.5499 2.25 10.75L2.25 6.84961C2.25 4.8897 2.25039 3.90977 2.63184 3.16113C2.96735 2.50264 3.50267 1.9674 4.16113 1.63184C4.90982 1.25036 5.8904 1.25 7.85059 1.25L14.1504 1.25ZM19.75 6.84961L19.75 10.75C19.75 11.2984 19.7473 11.7931 19.7432 12.2422C19.8551 12.2396 19.9537 12.2385 20.043 12.2324C20.2836 12.216 20.4014 12.1872 20.4785 12.1553C20.7848 12.0284 21.0284 11.7848 21.1553 11.4785C21.1872 11.4014 21.216 11.2836 21.2324 11.043C21.2493 10.7956 21.25 10.476 21.25 10L21.25 9C21.25 8.52404 21.2493 8.20445 21.2324 7.95703C21.216 7.71642 21.1872 7.59864 21.1553 7.52149C21.0284 7.21522 20.7848 6.9716 20.4785 6.84473C20.4014 6.81277 20.2837 6.78401 20.043 6.76758C19.9553 6.76161 19.8585 6.75945 19.749 6.75684C19.749 6.78752 19.75 6.81844 19.75 6.84961Z" fill="currentColor" />
</svg>