<svg xmlns="http://www.w3.org/2000/svg" width="24" height="24" viewBox="0 0 24 24" fill="none">
<path d="M5.25019 7.99975C5.25019 4.27183 8.27226 1.24976 12.0002 1.24976C15.7281 1.24975 18.7502 4.27183 18.7502 7.99975C18.7502 11.7277 15.7281 14.7498 12.0002 14.7498C8.27226 14.7498 5.25019 11.7277 5.25019 7.99975Z" fill="currentColor" /><path d="M4.31571 10.2318C2.46873 11.448 1.25018 13.5512 1.25018 15.9391C1.25018 19.6934 4.26517 22.7497 8.00018 22.7497C11.7352 22.7497 14.7502 19.6934 14.7502 15.9391C14.7502 15.7981 14.7459 15.6581 14.7375 15.5192C13.8836 15.8301 12.9617 15.9997 12.0002 15.9997C8.35658 15.9997 5.28189 13.5639 4.31571 10.2318Z" fill="currentColor" /><path d="M19.6766 10.2595C19.0852 12.2716 17.7242 13.9544 15.9342 14.9672C15.9777 15.3052 16.0002 15.6498 16.0002 15.9997C16.0002 18.4796 14.8718 20.6959 13.1005 22.1633C13.953 22.5402 14.897 22.7497 15.8893 22.7497C19.6726 22.7497 22.7502 19.7063 22.7502 15.9391C22.7502 13.5646 21.5269 11.4778 19.6766 10.2595Z" fill="currentColor" />
</svg>