<svg xmlns="http://www.w3.org/2000/svg" width="24" height="24" viewBox="0 0 24 24" fill="none">
<path d="M13.6863 13.9999C13.8898 14.6088 14.0001 15.2611 14.0001 15.9393C14.0001 19.2865 11.3138 21.9999 8.00006 21.9999C4.68635 21.9999 2.00006 19.2865 2.00006 15.9393C2.00006 14.4354 2.5424 13.0594 3.4403 11.9999M18.0001 10.2501C20.3348 11.1024 22.0001 13.328 22.0001 15.9394C22.0001 19.2866 19.2641 22 15.8892 22C15.5872 22 15.2903 21.9783 15.0001 21.9363M12.0001 1.99994C8.68635 1.99994 6.00006 4.68623 6.00006 7.99994C6.00006 11.3136 8.68635 13.9999 12.0001 13.9999C15.3138 13.9999 18.0001 11.3136 18.0001 7.99994C18.0001 6.22294 17.2276 4.62637 16.0001 3.52773" stroke="currentColor" stroke-width={1.5} stroke-linecap="round" stroke-linejoin="round" />
</svg>