<svg xmlns="http://www.w3.org/2000/svg" width="24" height="24" viewBox="0 0 24 24" fill="none">
<path d="M6.00006 10.2236C3.66968 11.0556 2.00006 13.3005 2.00006 15.9393C2.00006 19.2865 4.68635 21.9999 8.00006 21.9999C11.3138 21.9999 14.0001 19.2865 14.0001 15.9393C14.0001 15.2611 13.8898 14.6088 13.6863 13.9999M12.0001 20.6144C13.0567 21.4799 14.4117 22 15.8892 22C19.2641 22 22.0001 19.2866 22.0001 15.9394C22.0001 13.328 20.3348 11.1024 18.0001 10.2501M18.0001 7.99994C18.0001 11.3136 15.3138 13.9999 12.0001 13.9999C8.68635 13.9999 6.00006 11.3136 6.00006 7.99994C6.00006 4.68623 8.68635 1.99994 12.0001 1.99994C15.3138 1.99994 18.0001 4.68623 18.0001 7.99994Z" stroke="currentColor" stroke-width={1.5} stroke-linecap="round" stroke-linejoin="round" />
</svg>