<svg xmlns="http://www.w3.org/2000/svg" width="24" height="24" viewBox="0 0 24 24" fill="none">
<path d="M14.75 1.25C17.55 1.25 18.95 1.25013 20.0195 1.79492C20.9603 2.27429 21.7257 3.03966 22.2051 3.98047C22.7499 5.04998 22.75 6.45005 22.75 9.25V14.75C22.75 17.55 22.7499 18.95 22.2051 20.0195C21.7257 20.9603 20.9603 21.7257 20.0195 22.2051C18.95 22.7499 17.55 22.75 14.75 22.75H9.25C6.45005 22.75 5.04998 22.7499 3.98047 22.2051C3.03966 21.7257 2.27429 20.9603 1.79492 20.0195C1.25013 18.95 1.25 17.55 1.25 14.75V9.25C1.25 6.45005 1.25013 5.04998 1.79492 3.98047C2.27429 3.03966 3.03966 2.27429 3.98047 1.79492C5.04998 1.25013 6.45005 1.25 9.25 1.25H14.75ZM6 6.25C5.58579 6.25 5.25 6.58579 5.25 7V17C5.25 17.4142 5.58579 17.75 6 17.75C6.41421 17.75 6.75 17.4142 6.75 17V7C6.75 6.58579 6.41421 6.25 6 6.25ZM18 6.25C17.5858 6.25 17.25 6.58579 17.25 7V17C17.25 17.4142 17.5858 17.75 18 17.75C18.4142 17.75 18.75 17.4142 18.75 17V7C18.75 6.58579 18.4142 6.25 18 6.25ZM10.5303 9.96973C10.2374 9.67683 9.76262 9.67683 9.46973 9.96973L7.96973 11.4697C7.67683 11.7626 7.67683 12.2374 7.96973 12.5303L9.46973 14.0303L9.52637 14.082C9.82095 14.3224 10.2557 14.3049 10.5303 14.0303C10.8049 13.7557 10.8224 13.3209 10.582 13.0264L10.5303 12.9697L10.3105 12.75H13.6895L13.4697 12.9697C13.1768 13.2626 13.1768 13.7374 13.4697 14.0303C13.7626 14.3232 14.2374 14.3232 14.5303 14.0303L16.0303 12.5303C16.3232 12.2374 16.3232 11.7626 16.0303 11.4697L14.5303 9.96973L14.4736 9.91797C14.1791 9.67766 13.7443 9.69512 13.4697 9.96973C13.1951 10.2443 13.1777 10.6791 13.418 10.9736L13.4697 11.0303L13.6895 11.25H10.3105L10.5303 11.0303C10.8232 10.7374 10.8232 10.2626 10.5303 9.96973Z" fill="currentColor" />
</svg>