<svg xmlns="http://www.w3.org/2000/svg" width="24" height="24" viewBox="0 0 24 24" fill="none">
<path d="M14.75 1.25C17.55 1.25 18.95 1.25013 20.0195 1.79492C20.9603 2.27429 21.7257 3.03966 22.2051 3.98047C22.7499 5.04998 22.75 6.45005 22.75 9.25V20.0859C22.75 21.4733 22.7499 22.1673 22.459 22.5635C22.2054 22.9087 21.8162 23.1291 21.3896 23.1689C20.9002 23.2146 20.3049 22.8574 19.1152 22.1436L18.6924 21.8896C17.9853 21.4654 17.6314 21.2535 17.2539 21.1035C16.9189 20.9704 16.5706 20.8736 16.2148 20.8154C15.814 20.7499 15.4009 20.75 14.5762 20.75H9.25C6.45005 20.75 5.04998 20.7499 3.98047 20.2051C3.03966 19.7257 2.27429 18.9603 1.79492 18.0195C1.25013 16.95 1.25 15.55 1.25 12.75V9.25C1.25 6.45005 1.25013 5.04998 1.79492 3.98047C2.27429 3.03966 3.03966 2.27429 3.98047 1.79492C5.04998 1.25013 6.45005 1.25 9.25 1.25H14.75ZM7.5 9.75C6.80964 9.75 6.25 10.3096 6.25 11C6.25 11.6904 6.80964 12.25 7.5 12.25C8.19036 12.25 8.75 11.6904 8.75 11C8.75 10.3096 8.19036 9.75 7.5 9.75ZM12 9.75C11.3096 9.75 10.75 10.3096 10.75 11C10.75 11.6904 11.3096 12.25 12 12.25C12.6904 12.25 13.25 11.6904 13.25 11C13.25 10.3096 12.6904 9.75 12 9.75ZM16.5 9.75C15.8096 9.75 15.25 10.3096 15.25 11C15.25 11.6904 15.8096 12.25 16.5 12.25C17.1904 12.25 17.75 11.6904 17.75 11C17.75 10.3096 17.1904 9.75 16.5 9.75Z" fill="currentColor" />
</svg>