<svg xmlns="http://www.w3.org/2000/svg" width="24" height="24" viewBox="0 0 24 24" fill="none">
<path d="M12 1.25C17.9371 1.25 22.75 6.06294 22.75 12C22.75 17.9371 17.9371 22.75 12 22.75C10.786 22.75 9.72205 22.5769 8.72363 22.2197C7.83033 21.9002 7.46398 21.7701 7.35352 21.7441C6.24919 21.4847 5.24153 22.4804 4.19336 22.6553C3.0689 22.8426 2.06787 21.9223 2.16113 20.7861C2.21595 20.1187 2.60594 19.6105 2.78418 18.9902C3.03681 18.1103 2.60277 17.293 2.24121 16.5127C1.60516 15.1397 1.25 13.6102 1.25 12C1.25 6.06294 6.06294 1.25 12 1.25ZM15.0303 8.96973C14.7374 8.67683 14.2626 8.67683 13.9697 8.96973L12 10.9395L10.0303 8.96973C9.73738 8.67683 9.26262 8.67683 8.96973 8.96973C8.67683 9.26262 8.67683 9.73738 8.96973 10.0303L10.9395 12L8.96973 13.9697C8.67683 14.2626 8.67683 14.7374 8.96973 15.0303C9.26262 15.3232 9.73738 15.3232 10.0303 15.0303L12 13.0605L13.9697 15.0303L14.0264 15.082C14.3209 15.3223 14.7557 15.3049 15.0303 15.0303C15.3049 14.7557 15.3223 14.3209 15.082 14.0264L15.0303 13.9697L13.0605 12L15.0303 10.0303C15.3232 9.73738 15.3232 9.26262 15.0303 8.96973Z" fill="currentColor" />
</svg>