<svg xmlns="http://www.w3.org/2000/svg" width="24" height="24" viewBox="0 0 24 24" fill="none">
<path d="M4 5.99902C2.74418 7.67051 2 9.74835 2 12C2 13.499 2.33015 14.921 2.9214 16.1973C3.38829 17.2052 3.83022 18.0644 3.50454 19.1977C3.34789 19.7429 2.95529 20.2798 2.90866 20.8475C2.85534 21.4967 3.42708 22.0228 4.06965 21.9157C5.3779 21.6977 6.0076 20.6574 7.52552 21.0144C7.69003 21.0531 8.11879 21.2065 8.97627 21.5132C9.88354 21.8377 10.8606 22 12 22C17.5228 22 22 17.5228 22 12C22 6.47715 17.5228 2 12 2C10.5778 2 9.22492 2.29689 8 2.83209M12.5 16C12.5 16.2761 12.2761 16.5 12 16.5C11.7239 16.5 11.5 16.2761 11.5 16M12.5 16C12.5 15.7239 12.2761 15.5 12 15.5C11.7239 15.5 11.5 15.7239 11.5 16M12.5 16H11.5M10 10.5V10C10 8.89543 10.8954 8 12 8C13.1046 8 14 8.89543 14 10V10.1213C14 10.6839 13.7765 11.2235 13.3787 11.6213L12 13" stroke="currentColor" stroke-width={1.5} stroke-linecap="round" stroke-linejoin="round" />
</svg>