<svg xmlns="http://www.w3.org/2000/svg" width="24" height="24" viewBox="0 0 24 24" fill="none">
<path d="M14.75 1.25C17.55 1.25 18.95 1.25013 20.0195 1.79492C20.9603 2.27429 21.7257 3.03966 22.2051 3.98047C22.7499 5.04998 22.75 6.45005 22.75 9.25V20.0859C22.75 21.4733 22.7499 22.1673 22.459 22.5635C22.2054 22.9087 21.8162 23.1291 21.3896 23.1689C20.9002 23.2146 20.3049 22.8574 19.1152 22.1436L18.6924 21.8896C17.9853 21.4654 17.6314 21.2535 17.2539 21.1035C16.9189 20.9704 16.5706 20.8736 16.2148 20.8154C15.814 20.7499 15.4009 20.75 14.5762 20.75H9.25C6.45005 20.75 5.04998 20.7499 3.98047 20.2051C3.03966 19.7257 2.27429 18.9603 1.79492 18.0195C1.25013 16.95 1.25 15.55 1.25 12.75V9.25C1.25 6.45005 1.25013 5.04998 1.79492 3.98047C2.27429 3.03966 3.03966 2.27429 3.98047 1.79492C5.04998 1.25013 6.45005 1.25 9.25 1.25H14.75ZM15.0303 7.96973C14.7374 7.67683 14.2626 7.67683 13.9697 7.96973L12 9.93945L10.0303 7.96973C9.73738 7.67683 9.26262 7.67683 8.96973 7.96973C8.67683 8.26262 8.67683 8.73738 8.96973 9.03027L10.9395 11L8.96973 12.9697C8.67683 13.2626 8.67683 13.7374 8.96973 14.0303C9.26262 14.3232 9.73738 14.3232 10.0303 14.0303L12 12.0605L13.9697 14.0303L14.0264 14.082C14.3209 14.3223 14.7557 14.3049 15.0303 14.0303C15.3049 13.7557 15.3223 13.3209 15.082 13.0264L15.0303 12.9697L13.0605 11L15.0303 9.03027C15.3232 8.73738 15.3232 8.26262 15.0303 7.96973Z" fill="currentColor" />
</svg>