<svg xmlns="http://www.w3.org/2000/svg" width="24" height="24" viewBox="0 0 24 24" fill="none">
<path d="M21.9697 0.96967C22.2626 0.676777 22.7374 0.676777 23.0303 0.96967C23.3232 1.26256 23.3232 1.73732 23.0303 2.03022L2.53027 22.5302C2.23738 22.8231 1.76262 22.8231 1.46973 22.5302C1.17683 22.2373 1.17683 21.7626 1.46973 21.4697L3.43066 19.5078C3.02057 19.183 2.65656 18.8036 2.34863 18.3798C1.76287 17.5736 1.50032 16.6292 1.37402 15.4638C1.24927 14.3123 1.25 12.8581 1.25 10.9999C1.25 9.14178 1.24927 7.68758 1.37402 6.53608C1.50032 5.37071 1.76287 4.4263 2.34863 3.62006C2.70317 3.13214 3.1322 2.70312 3.62012 2.34858C4.42636 1.76281 5.37077 1.50026 6.53613 1.37397C7.68763 1.24921 9.14184 1.24994 11 1.24994H13.5C15.1222 1.24994 16.3919 1.24939 17.4043 1.34565C18.4276 1.44297 19.2652 1.64499 20.0039 2.0976C20.1754 2.20269 20.3402 2.31755 20.499 2.4394L21.9697 0.96967ZM21.9277 6.24994C22.3157 6.24601 22.6381 6.5375 22.6807 6.91498L22.6855 6.99213V7.06049C22.686 7.10537 22.6876 7.17154 22.6885 7.25678C22.6902 7.42744 22.6923 7.67462 22.6953 7.98041C22.7014 8.59198 22.7097 9.43841 22.7178 10.3779C22.7339 12.2559 22.75 14.5089 22.75 15.9999V19.1708C22.75 19.6729 22.7501 20.0886 22.7275 20.4169C22.7053 20.7403 22.6573 21.072 22.5059 21.3701C22.0962 22.1761 21.2437 22.6582 20.3418 22.5947C20.0083 22.5711 19.6989 22.4422 19.4102 22.2949C19.1171 22.1453 18.7615 21.9311 18.3311 21.6728C17.7914 21.349 17.5729 21.2193 17.3486 21.1191C16.9602 20.9456 16.5473 20.8313 16.125 20.7802C15.8812 20.7508 15.6272 20.7499 14.998 20.7499C13.3836 20.7499 11.7518 20.7644 10.1211 20.7607L8.49121 20.7499L8.41406 20.7451C8.03658 20.702 7.74545 20.3793 7.75 19.9912C7.75496 19.577 8.0947 19.2451 8.50879 19.2499C10.6689 19.2758 12.8198 19.2499 14.998 19.2499C15.5926 19.2499 15.9515 19.2491 16.3057 19.2919C16.8769 19.361 17.4346 19.5153 17.96 19.7499C18.2857 19.8954 18.5927 20.0807 19.1025 20.3867C19.5516 20.6561 19.8554 20.8383 20.0918 20.9589C20.3322 21.0817 20.4224 21.0968 20.4473 21.0986C20.7479 21.1197 21.0324 20.9591 21.1689 20.6904C21.1803 20.668 21.213 20.5824 21.2314 20.3134C21.2496 20.0487 21.25 19.6945 21.25 19.1708V15.9999C21.25 14.5161 21.2339 12.2688 21.2178 10.3906C21.2097 9.45201 21.2014 8.60611 21.1953 7.99506C21.1923 7.68962 21.1902 7.44282 21.1885 7.2724C21.1876 7.18718 21.187 7.12092 21.1865 7.07612C21.1863 7.0538 21.1857 7.03678 21.1855 7.02533V7.00776L21.1885 6.93158C21.2227 6.55286 21.5393 6.25411 21.9277 6.24994Z" fill="currentColor" />
</svg>