<svg xmlns="http://www.w3.org/2000/svg" width="24" height="24" viewBox="0 0 24 24" fill="none">
<path d="M1.46973 1.46973C1.76262 1.17683 2.23738 1.17683 2.53027 1.46973L22.5303 21.4697L22.582 21.5264C22.8223 21.8209 22.8049 22.2557 22.5303 22.5303C22.2557 22.8049 21.8209 22.8223 21.5264 22.582L21.4697 22.5303L19.0498 20.1104C17.1626 21.752 14.6982 22.75 12 22.75C10.786 22.75 9.72205 22.5769 8.72363 22.2197C7.83033 21.9002 7.46398 21.7701 7.35352 21.7441C6.8215 21.6191 6.46588 21.7249 6.04102 21.9268C5.63444 22.12 4.98496 22.5233 4.19336 22.6553C3.0689 22.8426 2.06787 21.9223 2.16113 20.7861C2.19589 20.3629 2.35523 19.9843 2.48145 19.7051C2.62585 19.3856 2.72563 19.194 2.78418 18.9902C3.01942 18.1711 2.73361 17.5756 2.24121 16.5127C1.60516 15.1397 1.25 13.6102 1.25 12C1.25 9.30172 2.24699 6.83642 3.88867 4.94922L1.46973 2.53027C1.17683 2.23738 1.17683 1.76262 1.46973 1.46973ZM12 1.25C17.9371 1.25 22.75 6.06294 22.75 12C22.75 13.5273 22.4311 14.9821 21.8555 16.2998C21.6896 16.6794 21.2468 16.8533 20.8672 16.6875C20.488 16.5216 20.315 16.0796 20.4805 15.7002C20.9751 14.5682 21.25 13.3169 21.25 12C21.25 6.89137 17.1086 2.75 12 2.75C10.6831 2.75 9.43182 3.02493 8.2998 3.51953C7.92044 3.68498 7.47837 3.51202 7.3125 3.13281C7.14666 2.75325 7.32063 2.31037 7.7002 2.14453C9.0179 1.56888 10.4727 1.25 12 1.25Z" fill="currentColor" />
</svg>