<svg xmlns="http://www.w3.org/2000/svg" width="24" height="24" viewBox="0 0 24 24" fill="none">
<path d="M12 1.25C17.9371 1.25 22.75 6.06294 22.75 12C22.75 17.9371 17.9371 22.75 12 22.75C10.786 22.75 9.72205 22.5769 8.72363 22.2197C7.83033 21.9002 7.46398 21.7701 7.35352 21.7441C6.24919 21.4847 5.24153 22.4804 4.19336 22.6553C3.0689 22.8426 2.06787 21.9223 2.16113 20.7861C2.21595 20.1187 2.60594 19.6105 2.78418 18.9902C3.03681 18.1103 2.60277 17.293 2.24121 16.5127C1.60516 15.1397 1.25 13.6102 1.25 12C1.25 6.06294 6.06294 1.25 12 1.25ZM16.0303 8.96973C15.7374 8.67683 15.2626 8.67683 14.9697 8.96973L11 12.9395L9.53027 11.4697L9.47363 11.418C9.17905 11.1777 8.74433 11.1951 8.46973 11.4697C8.17683 11.7626 8.17683 12.2374 8.46973 12.5303L10.4697 14.5303C10.7626 14.8232 11.2374 14.8232 11.5303 14.5303L16.0303 10.0303C16.3232 9.73738 16.3232 9.26262 16.0303 8.96973Z" fill="currentColor" />
</svg>