<svg xmlns="http://www.w3.org/2000/svg" width="24" height="24" viewBox="0 0 24 24" fill="none">
<path d="M12 1.25C17.9371 1.25 22.75 6.06294 22.75 12C22.75 17.9371 17.9371 22.75 12 22.75C10.786 22.75 9.72205 22.5769 8.72363 22.2197C7.83033 21.9002 7.46398 21.7701 7.35352 21.7441C6.24919 21.4847 5.24153 22.4804 4.19336 22.6553C3.0689 22.8426 2.06787 21.9223 2.16113 20.7861C2.21595 20.1187 2.60594 19.6105 2.78418 18.9902C3.03681 18.1103 2.60277 17.293 2.24121 16.5127C1.60516 15.1397 1.25 13.6102 1.25 12C1.25 6.06294 6.06294 1.25 12 1.25ZM9 11.25C8.58579 11.25 8.25 11.5858 8.25 12C8.25 12.4142 8.58579 12.75 9 12.75H15C15.4142 12.75 15.75 12.4142 15.75 12C15.75 11.5858 15.4142 11.25 15 11.25H9Z" fill="currentColor" />
</svg>