<svg xmlns="http://www.w3.org/2000/svg" width="24" height="24" viewBox="0 0 24 24" fill="none">
<path d="M14.75 1.25C17.55 1.25 18.95 1.25013 20.0195 1.79492C20.9603 2.27429 21.7257 3.03966 22.2051 3.98047C22.7499 5.04998 22.75 6.45005 22.75 9.25V20.0859C22.75 21.4733 22.7499 22.1673 22.459 22.5635C22.2054 22.9087 21.8162 23.1291 21.3896 23.1689C20.9002 23.2146 20.3049 22.8574 19.1152 22.1436L18.6924 21.8896C17.9853 21.4654 17.6314 21.2535 17.2539 21.1035C16.9189 20.9704 16.5706 20.8736 16.2148 20.8154C15.814 20.7499 15.4009 20.75 14.5762 20.75H9.25C6.45005 20.75 5.04998 20.7499 3.98047 20.2051C3.03966 19.7257 2.27429 18.9603 1.79492 18.0195C1.25013 16.95 1.25 15.55 1.25 12.75V9.25C1.25 6.45005 1.25013 5.04998 1.79492 3.98047C2.27429 3.03966 3.03966 2.27429 3.98047 1.79492C5.04998 1.25013 6.45005 1.25 9.25 1.25H14.75ZM16.0303 7.96973C15.7374 7.67683 15.2626 7.67683 14.9697 7.96973L11 11.9395L9.53027 10.4697L9.47363 10.418C9.17905 10.1777 8.74433 10.1951 8.46973 10.4697C8.17683 10.7626 8.17683 11.2374 8.46973 11.5303L10.4697 13.5303C10.7626 13.8232 11.2374 13.8232 11.5303 13.5303L16.0303 9.03027C16.3232 8.73738 16.3232 8.26262 16.0303 7.96973Z" fill="currentColor" />
</svg>