<svg xmlns="http://www.w3.org/2000/svg" width="24" height="24" viewBox="0 0 24 24" fill="none">
<path d="M12 1.25C17.9371 1.25 22.75 6.06294 22.75 12C22.75 17.9371 17.9371 22.75 12 22.75C10.786 22.75 9.72205 22.5769 8.72363 22.2197C7.83033 21.9002 7.46398 21.7701 7.35352 21.7441C6.24919 21.4847 5.24153 22.4804 4.19336 22.6553C3.0689 22.8426 2.06787 21.9223 2.16113 20.7861C2.21595 20.1187 2.60594 19.6105 2.78418 18.9902C3.03681 18.1103 2.60277 17.293 2.24121 16.5127C1.60516 15.1397 1.25 13.6102 1.25 12C1.25 6.06294 6.06294 1.25 12 1.25ZM12 14.75C11.3096 14.75 10.75 15.3096 10.75 16C10.75 16.6904 11.3096 17.25 12 17.25C12.6904 17.25 13.25 16.6904 13.25 16C13.25 15.3096 12.6904 14.75 12 14.75ZM12 6.75C11.5858 6.75 11.25 7.08579 11.25 7.5V12.5C11.25 12.9142 11.5858 13.25 12 13.25C12.4142 13.25 12.75 12.9142 12.75 12.5V7.5C12.75 7.08579 12.4142 6.75 12 6.75Z" fill="currentColor" />
</svg>