<svg xmlns="http://www.w3.org/2000/svg" width="24" height="24" viewBox="0 0 24 24" fill="none">
<path d="M12 1.25C17.9371 1.25 22.75 6.06294 22.75 12C22.75 17.9371 17.9371 22.75 12 22.75C6.06294 22.75 1.25 17.9371 1.25 12C1.25 6.06294 6.06294 1.25 12 1.25ZM11.8887 7C9.16235 7.00012 7 9.26539 7 12C7 14.7346 9.16235 16.9999 11.8887 17C12.9954 17 14.017 16.6224 14.834 15.9912C15.2034 15.7057 15.5314 15.3684 15.8076 14.9902C16.1333 14.5443 16.0358 13.9185 15.5898 13.5928C15.1439 13.2671 14.5181 13.3646 14.1924 13.8105C14.0263 14.0379 13.8306 14.2398 13.6113 14.4092C13.1284 14.7823 12.5329 15 11.8887 15C10.3196 14.9999 9 13.6835 9 12C9 10.3165 10.3196 9.00012 11.8887 9C12.5329 9 13.1284 9.21772 13.6113 9.59082C13.8306 9.76024 14.0263 9.96213 14.1924 10.1895C14.5181 10.6354 15.1439 10.7329 15.5898 10.4072C16.0079 10.1018 16.1193 9.53309 15.8633 9.0957L15.8076 9.00977L15.5908 8.7334C15.3648 8.46571 15.111 8.22282 14.834 8.00879C14.017 7.37759 12.9954 7 11.8887 7Z" fill="currentColor" />
</svg>