<svg xmlns="http://www.w3.org/2000/svg" width="24" height="24" viewBox="0 0 24 24" fill="none">
<path d="M16 2.83209C14.7751 2.2969 13.4222 2 12 2C6.47715 2 2 6.47715 2 12C2 17.5228 6.47715 22 12 22C17.5228 22 22 17.5228 22 12C22 9.74835 21.2558 7.67051 20 5.99902M15 9.59961C14.7788 9.29674 14.5167 9.02722 14.2222 8.79971C13.5723 8.29756 12.7644 8 11.8889 8C9.74112 8 8 9.79086 8 12C8 14.2091 9.74112 16 11.8889 16C12.7644 16 13.5723 15.7024 14.2222 15.2003C14.5167 14.9728 14.7788 14.7033 15 14.4004" stroke="currentColor" stroke-width={2} stroke-linecap="round" stroke-linejoin="round" />
</svg>