<svg xmlns="http://www.w3.org/2000/svg" width="24" height="24" viewBox="0 0 24 24" fill="none">
<path d="M1.46973 1.46967C1.76262 1.17678 2.23738 1.17678 2.53027 1.46967L22.5303 21.4697L22.582 21.5263C22.8223 21.8209 22.8049 22.2556 22.5303 22.5302C22.2557 22.8048 21.8209 22.8223 21.5264 22.582L21.4697 22.5302L20.166 21.2265C20.1627 21.2282 20.1596 21.2307 20.1562 21.2324C19.6051 21.5131 19.0014 21.635 18.2881 21.6933C17.5835 21.7509 16.7072 21.7499 15.5996 21.7499H8.40039C7.29277 21.7499 6.41651 21.7509 5.71192 21.6933C4.99862 21.635 4.39487 21.5131 3.84375 21.2324C2.94998 20.777 2.22298 20.05 1.76758 19.1562C1.48682 18.6051 1.36492 18.0013 1.30664 17.288C1.24909 16.5834 1.25 15.7072 1.25 14.5996V8.99897C1.25077 8.01846 1.25681 7.22891 1.31836 6.581C1.38074 5.92444 1.50393 5.36123 1.76758 4.84369C1.98872 4.40968 2.27419 4.01509 2.61133 3.67182L1.46973 2.53022C1.17683 2.23732 1.17683 1.76256 1.46973 1.46967ZM15.5996 2.24994C16.7072 2.24994 17.5835 2.24903 18.2881 2.30658C19.0014 2.36486 19.6051 2.48676 20.1562 2.76752C21.05 3.22292 21.777 3.94992 22.2324 4.84369C22.4961 5.36123 22.6193 5.92444 22.6816 6.581C22.7412 7.20791 22.7479 7.96743 22.749 8.90424C22.753 8.9356 22.7559 8.9675 22.7559 8.99994C22.7559 9.03003 22.7534 9.05965 22.75 9.08881V14.5996C22.75 15.5873 22.7501 16.3892 22.71 17.0458C22.6985 17.2338 22.6837 17.4132 22.6641 17.5849C22.617 17.9963 22.2454 18.292 21.834 18.2451C21.4226 18.198 21.1269 17.8264 21.1738 17.415C21.1899 17.2746 21.2027 17.1215 21.2129 16.954C21.2495 16.3536 21.25 15.6047 21.25 14.5996V9.74994H13C12.5858 9.74994 12.25 9.41416 12.25 8.99994C12.25 8.58573 12.5858 8.24994 13 8.24994H21.2441C21.2389 7.62732 21.2276 7.13452 21.1885 6.7226C21.1356 6.16633 21.041 5.80986 20.8955 5.52436C20.5839 4.91299 20.087 4.416 19.4756 4.10444C19.1711 3.9493 18.7866 3.85241 18.166 3.8017C17.5367 3.75029 16.732 3.74994 15.5996 3.74994H8.40039L7.00977 3.7558L6.93359 3.75287C6.55483 3.71968 6.25526 3.40392 6.25 3.01557C6.24446 2.60145 6.5761 2.26142 6.99024 2.2558L8.40039 2.24994H15.5996Z" fill="currentColor" />
</svg>