<svg xmlns="http://www.w3.org/2000/svg" width="24" height="24" viewBox="0 0 24 24" fill="none">
<path d="M2 16.25C2.41422 16.25 2.75 16.5858 2.75 17V17.2002C2.75 18.0525 2.75029 18.6468 2.78809 19.1094C2.82517 19.5632 2.89449 19.824 2.99512 20.0215C3.21083 20.4449 3.55515 20.7892 3.97852 21.0049C4.17602 21.1055 4.4368 21.1748 4.89063 21.2119C5.35322 21.2497 5.94746 21.25 6.79981 21.25H7C7.41422 21.25 7.75 21.5858 7.75 22C7.75 22.4142 7.41422 22.75 7 22.75H6.79981C5.97222 22.75 5.30639 22.751 4.76856 22.707C4.22195 22.6624 3.74205 22.5671 3.29785 22.3408C2.59225 21.9813 2.01871 21.4078 1.65918 20.7022C1.43287 20.2579 1.33763 19.7781 1.29297 19.2314C1.24903 18.6936 1.25 18.0278 1.25 17.2002V17C1.25 16.5858 1.58579 16.25 2 16.25ZM22 16.25C22.4142 16.25 22.75 16.5858 22.75 17V17.2002C22.75 18.0278 22.751 18.6936 22.707 19.2314C22.6624 19.7781 22.5671 20.2579 22.3408 20.7022C21.9813 21.4078 21.4078 21.9813 20.7022 22.3408C20.2579 22.5671 19.7781 22.6624 19.2314 22.707C18.6936 22.751 18.0278 22.75 17.2002 22.75H17C16.5858 22.75 16.25 22.4142 16.25 22C16.25 21.5858 16.5858 21.25 17 21.25H17.2002C18.0525 21.25 18.6468 21.2497 19.1094 21.2119C19.5632 21.1748 19.824 21.1055 20.0215 21.0049C20.4449 20.7892 20.7892 20.4449 21.0049 20.0215C21.1055 19.824 21.1748 19.5632 21.2119 19.1094C21.2497 18.6468 21.25 18.0525 21.25 17.2002V17C21.25 16.5858 21.5858 16.25 22 16.25ZM17.9502 11.75C18.2299 11.75 18.3697 11.7503 18.4766 11.8047C18.5706 11.8526 18.6474 11.9294 18.6953 12.0234C18.7496 12.1303 18.75 12.2702 18.75 12.5498V13.75C18.75 15.1499 18.7499 15.85 18.4775 16.3848C18.2379 16.8552 17.8552 17.2379 17.3848 17.4775C16.85 17.75 16.15 17.75 14.75 17.75H9.25C7.8502 17.75 7.14997 17.7498 6.61524 17.4775C6.14483 17.2379 5.76215 16.8552 5.52246 16.3848C5.25002 15.85 5.25 15.1501 5.25 13.75V12.5498C5.25 12.2701 5.25029 12.1303 5.30469 12.0234C5.35257 11.9295 5.42852 11.8526 5.52246 11.8047C5.62942 11.7502 5.76978 11.75 6.04981 11.75H17.9502ZM15.416 6.25C16.1907 6.25 16.5786 6.24987 16.8965 6.33496C17.7591 6.56611 18.4338 7.23994 18.665 8.10254C18.7502 8.42041 18.75 8.80825 18.75 9.58301C18.75 9.738 18.7495 9.8163 18.7324 9.87988C18.6861 10.0522 18.5513 10.1872 18.3789 10.2334C18.3154 10.2503 18.2377 10.25 18.083 10.25H5.91602C5.76129 10.25 5.68365 10.2504 5.62012 10.2334C5.44775 10.1872 5.31293 10.0522 5.2666 9.87988C5.24957 9.8163 5.25 9.738 5.25 9.58301C5.25 8.80825 5.24979 8.42041 5.33496 8.10254C5.56622 7.24003 6.23999 6.56612 7.10254 6.33496C7.42045 6.24978 7.80809 6.25 8.58301 6.25H15.416ZM7 1.25C7.41422 1.25 7.75 1.58579 7.75 2C7.75 2.41422 7.41422 2.75 7 2.75H6.79981C5.94746 2.75 5.35322 2.75029 4.89063 2.78809C4.4368 2.82517 4.17602 2.89449 3.97852 2.99512C3.55515 3.21083 3.21083 3.55515 2.99512 3.97852C2.89449 4.17602 2.82517 4.4368 2.78809 4.89063C2.75029 5.35322 2.75 5.94746 2.75 6.79981V7C2.75 7.41422 2.41422 7.75 2 7.75C1.58579 7.75 1.25 7.41422 1.25 7V6.79981C1.25 5.97222 1.24903 5.30639 1.29297 4.76856C1.33763 4.22195 1.43287 3.74205 1.65918 3.29785C2.01871 2.59225 2.59225 2.01871 3.29785 1.65918C3.74205 1.43287 4.22195 1.33763 4.76856 1.29297C5.30639 1.24903 5.97222 1.25 6.79981 1.25H7ZM17.2002 1.25C18.0278 1.25 18.6936 1.24903 19.2314 1.29297C19.7781 1.33763 20.2579 1.43287 20.7022 1.65918C21.4078 2.01871 21.9813 2.59225 22.3408 3.29785C22.5671 3.74205 22.6624 4.22195 22.707 4.76856C22.751 5.30639 22.75 5.97222 22.75 6.79981V7C22.75 7.41422 22.4142 7.75 22 7.75C21.5858 7.75 21.25 7.41422 21.25 7V6.79981C21.25 5.94746 21.2497 5.35322 21.2119 4.89063C21.1748 4.4368 21.1055 4.17602 21.0049 3.97852C20.7892 3.55515 20.4449 3.21083 20.0215 2.99512C19.824 2.89449 19.5632 2.82517 19.1094 2.78809C18.6468 2.75029 18.0525 2.75 17.2002 2.75H17C16.5858 2.75 16.25 2.41422 16.25 2C16.25 1.58579 16.5858 1.25 17 1.25H17.2002Z" fill="currentColor" />
</svg>