<svg xmlns="http://www.w3.org/2000/svg" width="24" height="24" viewBox="0 0 24 24" fill="none">
<path d="M22 11.2857V9.4C22 7.15979 22 6.03968 21.564 5.18404C21.1805 4.43139 20.5686 3.81947 19.816 3.43597C18.9603 3 17.8402 3 15.6 3H8.4C6.15979 3 5.03968 3 4.18404 3.43597C3.43139 3.81947 2.81947 4.43139 2.43597 5.18404C2 6.03968 2 7.15979 2 9.4V14.6C2 16.8402 2 17.9603 2.43597 18.816C2.81947 19.5686 3.43139 20.1805 4.18404 20.564C5.03968 21 6.15979 21 8.4 21H11M2.5 8H21.5M6 12H9" stroke="currentColor" stroke-width={1.5} stroke-linecap="round" stroke-linejoin="round" /><path d="M18.6447 21.8742L18.2893 22.2408C17.3081 23.2531 15.7172 23.2531 14.7359 22.2408C13.7547 21.2285 13.7547 19.5873 14.7359 18.575L15.5833 17.7008C16.489 16.7664 17.9576 16.7664 18.8633 17.7008L19 17.8418M18.3553 15.1258L18.7107 14.7592C19.6919 13.7469 21.2828 13.7469 22.2641 14.7592C23.2453 15.7715 23.2453 17.4127 22.2641 18.425L21.4167 19.2992C20.511 20.2336 19.0424 20.2336 18.1367 19.2992L18 19.1582" stroke="currentColor" stroke-width={1.5} stroke-linecap="round" stroke-linejoin="round" />
</svg>