<svg xmlns="http://www.w3.org/2000/svg" width="24" height="24" viewBox="0 0 24 24" fill="none">
<path d="M22 7L22.0001 6.5C22.0001 5.10213 22.0001 4.40319 21.7717 3.85189C21.4672 3.11683 20.8832 2.53283 20.1481 2.22835C19.5968 2 18.8979 2 17.5001 2H17M22 17L22.0001 17.5C22.0001 18.8979 22.0001 19.5968 21.7717 20.1481C21.4672 20.8832 20.8832 21.4672 20.1481 21.7716C19.5968 22 18.8979 22 17.5001 22H17M2 17V17.5C2 18.8978 2 19.5967 2.22836 20.1481C2.53284 20.8831 3.11687 21.4672 3.85195 21.7716C4.40326 22 5.10222 22 6.50012 22H7M2 7V6.5C2 5.10218 2 4.40326 2.22836 3.85195C2.53284 3.11687 3.11687 2.53284 3.85195 2.22836C4.40326 2 5.10222 2 6.50012 2H7M6 11V13.8C6 14.9201 6 15.4802 6.21799 15.908C6.40973 16.2843 6.71569 16.5903 7.09202 16.782C7.51984 17 8.0799 17 9.2 17H14.8C15.9201 17 16.4802 17 16.908 16.782C17.2843 16.5903 17.5903 16.2843 17.782 15.908C18 15.4802 18 14.9201 18 13.8V10.2C18 9.07989 18 8.51984 17.782 8.09202C17.5903 7.71569 17.2843 7.40973 16.908 7.21799C16.4802 7 15.9201 7 14.8 7H9.2C8.0799 7 7.51984 7 7.09202 7.21799C6.71569 7.40973 6.40973 7.71569 6.21799 8.09202C6 8.51984 6 9.07989 6 10.2V11ZM6 11H14" stroke="currentColor" stroke-width={1.5} stroke-linecap="round" stroke-linejoin="round" />
</svg>