<svg xmlns="http://www.w3.org/2000/svg" width="24" height="24" viewBox="0 0 24 24" fill="none">
<path d="M2 15.2857V9.4C2 7.15979 2 6.03968 2.43597 5.18404C2.81947 4.43139 3.43139 3.81947 4.18404 3.43597C5.03968 3 6.15979 3 8.4 3H9.5H10M11 21H15.6C17.8402 21 18.9603 21 19.816 20.564C20.5686 20.1805 21.1805 19.5686 21.564 18.816C22 17.9603 22 16.8402 22 14.6V9.4C22 7.15979 22 6.03968 21.564 5.18404C21.1805 4.43139 20.5686 3.81947 19.816 3.43597C18.9603 3 17.8402 3 15.6 3H14.5H14M2 19H8M8 19L6 17M8 19L6 21M6 8H21.5M15 12H18" stroke="currentColor" stroke-width={1.5} stroke-linecap="round" stroke-linejoin="round" />
</svg>