<svg xmlns="http://www.w3.org/2000/svg" width="24" height="24" viewBox="0 0 24 24" fill="none">
<path d="M14.75 1.25C17.55 1.25 18.95 1.25013 20.0195 1.79492C20.9603 2.27429 21.7257 3.03966 22.2051 3.98047C22.7499 5.04998 22.75 6.45005 22.75 9.25V14.75C22.75 17.55 22.7499 18.95 22.2051 20.0195C21.7257 20.9603 20.9603 21.7257 20.0195 22.2051C18.95 22.7499 17.55 22.75 14.75 22.75H9.25C6.45005 22.75 5.04998 22.7499 3.98047 22.2051C3.03966 21.7257 2.27429 20.9603 1.79492 20.0195C1.25013 18.95 1.25 17.55 1.25 14.75V9.25C1.25 6.45005 1.25013 5.04998 1.79492 3.98047C2.27429 3.03966 3.03966 2.27429 3.98047 1.79492C5.04998 1.25013 6.45005 1.25 9.25 1.25H14.75ZM8 5.25C7.58579 5.25 7.25 5.58579 7.25 6V7.25H6C5.58579 7.25 5.25 7.58579 5.25 8C5.25 8.41421 5.58579 8.75 6 8.75H7.25V12.7998C7.25 13.3475 7.24897 13.8037 7.2793 14.1748C7.31033 14.5545 7.37809 14.9109 7.5498 15.248C7.81346 15.7655 8.23451 16.1865 8.75195 16.4502C9.0891 16.6219 9.44546 16.6897 9.8252 16.7207C10.1963 16.751 10.6525 16.75 11.2002 16.75H15.25V18C15.25 18.4142 15.5858 18.75 16 18.75C16.4142 18.75 16.75 18.4142 16.75 18V16.75H18C18.4142 16.75 18.75 16.4142 18.75 16C18.75 15.5858 18.4142 15.25 18 15.25H11.2002C10.6278 15.25 10.2431 15.2498 9.94727 15.2256C9.66027 15.2021 9.52316 15.1594 9.43262 15.1133C9.1975 14.9935 9.00655 14.8025 8.88672 14.5674C8.84059 14.4768 8.79788 14.3397 8.77441 14.0527C8.75024 13.7569 8.75 13.3722 8.75 12.7998V6C8.75 5.58579 8.41421 5.25 8 5.25ZM11 7.25C10.5858 7.25 10.25 7.58579 10.25 8C10.25 8.41421 10.5858 8.75 11 8.75H12.7998C13.3722 8.75 13.7569 8.75024 14.0527 8.77441C14.3397 8.79788 14.4768 8.84059 14.5674 8.88672C14.8025 9.00655 14.9935 9.1975 15.1133 9.43262C15.1594 9.52316 15.2021 9.66027 15.2256 9.94727C15.2498 10.2431 15.25 10.6278 15.25 11.2002V13C15.25 13.4142 15.5858 13.75 16 13.75C16.4142 13.75 16.75 13.4142 16.75 13V11.2002C16.75 10.6525 16.751 10.1963 16.7207 9.8252C16.6897 9.44546 16.6219 9.0891 16.4502 8.75195C16.1865 8.23451 15.7655 7.81346 15.248 7.5498C14.9109 7.37809 14.5545 7.31033 14.1748 7.2793C13.8037 7.24897 13.3475 7.25 12.7998 7.25H11Z" fill="currentColor" />
</svg>