<svg xmlns="http://www.w3.org/2000/svg" width="24" height="24" viewBox="0 0 24 24" fill="none">
<path d="M14.75 1.25C17.55 1.25 18.95 1.25013 20.0195 1.79492C20.9603 2.27429 21.7257 3.03966 22.2051 3.98047C22.7499 5.04998 22.75 6.45005 22.75 9.25V14.75C22.75 17.55 22.7499 18.95 22.2051 20.0195C21.7257 20.9603 20.9603 21.7257 20.0195 22.2051C18.95 22.7499 17.55 22.75 14.75 22.75H9.25C6.45005 22.75 5.04998 22.7499 3.98047 22.2051C3.03966 21.7257 2.27429 20.9603 1.79492 20.0195C1.25013 18.95 1.25 17.55 1.25 14.75V9.25C1.25 6.45005 1.25013 5.04998 1.79492 3.98047C2.27429 3.03966 3.03966 2.27429 3.98047 1.79492C5.04998 1.25013 6.45005 1.25 9.25 1.25H14.75ZM5 11.25C4.58579 11.25 4.25 11.5858 4.25 12C4.25 16.2802 7.71979 19.75 12 19.75C12.2766 19.75 12.5306 19.5974 12.6611 19.3535C12.7915 19.1097 12.7774 18.8141 12.624 18.584L11.624 17.084L11.5781 17.0225C11.3364 16.7291 10.9071 16.6606 10.584 16.876C10.261 17.0913 10.1593 17.5137 10.3369 17.8496L10.376 17.916L10.4727 18.0615C7.75923 17.38 5.75 14.9249 5.75 12C5.75 11.5858 5.41421 11.25 5 11.25ZM10 8.25C9.58579 8.25 9.25 8.58579 9.25 9V9.25H9C8.58579 9.25 8.25 9.58579 8.25 10C8.25 10.4142 8.58579 10.75 9 10.75H9.25V12.5801C9.25 12.9037 9.24913 13.192 9.26855 13.4297C9.28871 13.676 9.33472 13.934 9.46289 14.1855C9.6498 14.5522 9.94782 14.8502 10.3145 15.0371C10.566 15.1653 10.824 15.2113 11.0703 15.2314C11.308 15.2509 11.5963 15.25 11.9199 15.25H13.75V15.5C13.75 15.9142 14.0858 16.25 14.5 16.25C14.9142 16.25 15.25 15.9142 15.25 15.5V15.25H15.5C15.9142 15.25 16.25 14.9142 16.25 14.5C16.25 14.0858 15.9142 13.75 15.5 13.75H11.9199C11.5719 13.75 11.3558 13.7496 11.1934 13.7363C11.0432 13.7241 11.0025 13.7044 10.9961 13.7012C10.9114 13.658 10.842 13.5886 10.7988 13.5039C10.7956 13.4975 10.7759 13.4568 10.7637 13.3066C10.7504 13.1442 10.75 12.9281 10.75 12.5801V9C10.75 8.58579 10.4142 8.25 10 8.25ZM12 9.25C11.5858 9.25 11.25 9.58579 11.25 10C11.25 10.4142 11.5858 10.75 12 10.75H12.5801C12.9281 10.75 13.1442 10.7504 13.3066 10.7637C13.4568 10.7759 13.4975 10.7956 13.5039 10.7988C13.5886 10.842 13.658 10.9114 13.7012 10.9961C13.7044 11.0025 13.7241 11.0432 13.7363 11.1934C13.7496 11.3558 13.75 11.5719 13.75 11.9199V12.5C13.75 12.9142 14.0858 13.25 14.5 13.25C14.9142 13.25 15.25 12.9142 15.25 12.5V11.9199C15.25 11.5963 15.2509 11.308 15.2314 11.0703C15.2113 10.824 15.1653 10.566 15.0371 10.3145C14.8502 9.94782 14.5522 9.6498 14.1855 9.46289C13.934 9.33472 13.676 9.28871 13.4297 9.26855C13.192 9.24913 12.9037 9.25 12.5801 9.25H12ZM12 4.25C11.7234 4.25 11.4694 4.40262 11.3389 4.64648C11.2085 4.89031 11.2226 5.18595 11.376 5.41602L12.376 6.91602L12.4219 6.97754C12.6636 7.27092 13.0929 7.33943 13.416 7.12402C13.739 6.90867 13.8407 6.48633 13.6631 6.15039L13.624 6.08398L13.5264 5.9375C16.2404 6.61865 18.25 9.07474 18.25 12C18.25 12.4142 18.5858 12.75 19 12.75C19.4142 12.75 19.75 12.4142 19.75 12C19.75 7.71979 16.2802 4.25 12 4.25Z" fill="currentColor" />
</svg>