<svg xmlns="http://www.w3.org/2000/svg" width="24" height="24" viewBox="0 0 24 24" fill="none">
<path d="M9.5 2L9 2C7.13872 2 6.20808 2 5.45492 2.24472C3.93273 2.73931 2.73931 3.93273 2.24472 5.45492C2 6.20808 2 7.13872 2 9L2 14C2 16.8003 2 18.2004 2.54497 19.27C3.02434 20.2108 3.78924 20.9757 4.73005 21.455C5.79961 22 7.19974 22 10 22H14C16.8003 22 18.2004 22 19.27 21.455C20.2108 20.9757 20.9757 20.2108 21.455 19.27C22 18.2004 22 16.8003 22 14V9C22 7.13872 22 6.20808 21.7553 5.45492C21.2607 3.93273 20.0673 2.73931 18.5451 2.24472C17.7919 2 16.8613 2 15 2L14.5 2M16 16H11.2C10.0799 16 9.51984 16 9.09202 15.782C8.71569 15.5903 8.40973 15.2843 8.21799 14.908C8 14.4802 8 13.9201 8 12.8V8M16 16V18M16 16H18M8 8V6M8 8H6M11 8H12.8C13.9201 8 14.4802 8 14.908 8.21799C15.2843 8.40973 15.5903 8.71569 15.782 9.09202C16 9.51984 16 10.0799 16 11.2V13" stroke="currentColor" stroke-width={1.5} stroke-linecap="round" stroke-linejoin="round" />
</svg>