<svg xmlns="http://www.w3.org/2000/svg" width="24" height="24" viewBox="0 0 24 24" fill="none">
<path opacity={0.32} d="M9.25 1.25C6.44974 1.25 5.04961 1.25 3.98005 1.79497C3.03924 2.27433 2.27433 3.03924 1.79497 3.98005C1.25 5.04961 1.25 6.44974 1.25 9.25V14.75C1.25 17.5503 1.25 18.9504 1.79497 20.02C2.27433 20.9608 3.03924 21.7257 3.98005 22.205C5.04961 22.75 6.44974 22.75 9.25 22.75H14.75C17.5503 22.75 18.9504 22.75 20.02 22.205C20.9608 21.7257 21.7257 20.9608 22.205 20.02C22.75 18.9504 22.75 17.5503 22.75 14.75V9.25C22.75 6.44974 22.75 5.04961 22.205 3.98005C21.7257 3.03924 20.9608 2.27433 20.02 1.79497C18.9504 1.25 17.5503 1.25 14.75 1.25H9.25Z" fill="currentColor" /><path d="M5 11.25C5.41421 11.25 5.75 11.5858 5.75 12C5.75 14.9249 7.75923 17.38 10.4727 18.0615L10.376 17.916L10.3369 17.8496C10.1593 17.5137 10.261 17.0913 10.584 16.876C10.9071 16.6606 11.3364 16.7291 11.5781 17.0225L11.624 17.084L12.624 18.584C12.7774 18.8141 12.7915 19.1097 12.6611 19.3535C12.5306 19.5974 12.2766 19.75 12 19.75C7.71979 19.75 4.25 16.2802 4.25 12C4.25 11.5858 4.58579 11.25 5 11.25ZM10 8.25C10.4142 8.25 10.75 8.58579 10.75 9V12.5801C10.75 12.9281 10.7504 13.1442 10.7637 13.3066C10.7759 13.4568 10.7956 13.4975 10.7988 13.5039C10.842 13.5886 10.9114 13.658 10.9961 13.7012C11.0025 13.7044 11.0432 13.7241 11.1934 13.7363C11.3558 13.7496 11.5719 13.75 11.9199 13.75H15.5C15.9142 13.75 16.25 14.0858 16.25 14.5C16.25 14.9142 15.9142 15.25 15.5 15.25H15.25V15.5C15.25 15.9142 14.9142 16.25 14.5 16.25C14.0858 16.25 13.75 15.9142 13.75 15.5V15.25H11.9199C11.5963 15.25 11.308 15.2509 11.0703 15.2314C10.824 15.2113 10.566 15.1653 10.3145 15.0371C9.94782 14.8502 9.6498 14.5522 9.46289 14.1855C9.33472 13.934 9.28871 13.676 9.26855 13.4297C9.24913 13.192 9.25 12.9037 9.25 12.5801V10.75H9C8.58579 10.75 8.25 10.4142 8.25 10C8.25 9.58579 8.58579 9.25 9 9.25H9.25V9C9.25 8.58579 9.58579 8.25 10 8.25ZM12.5801 9.25C12.9037 9.25 13.192 9.24913 13.4297 9.26855C13.676 9.28871 13.934 9.33472 14.1855 9.46289C14.5522 9.6498 14.8502 9.94782 15.0371 10.3145C15.1653 10.566 15.2113 10.824 15.2314 11.0703C15.2509 11.308 15.25 11.5963 15.25 11.9199V12.5C15.25 12.9142 14.9142 13.25 14.5 13.25C14.0858 13.25 13.75 12.9142 13.75 12.5V11.9199C13.75 11.5719 13.7496 11.3558 13.7363 11.1934C13.7241 11.0432 13.7044 11.0025 13.7012 10.9961C13.658 10.9114 13.5886 10.842 13.5039 10.7988C13.4975 10.7956 13.4568 10.7759 13.3066 10.7637C13.1442 10.7504 12.9281 10.75 12.5801 10.75H12C11.5858 10.75 11.25 10.4142 11.25 10C11.25 9.58579 11.5858 9.25 12 9.25H12.5801ZM12 4.25C16.2802 4.25 19.75 7.71979 19.75 12C19.75 12.4142 19.4142 12.75 19 12.75C18.5858 12.75 18.25 12.4142 18.25 12C18.25 9.07474 16.2404 6.61865 13.5264 5.9375L13.624 6.08398L13.6631 6.15039C13.8407 6.48633 13.739 6.90867 13.416 7.12402C13.0929 7.33943 12.6636 7.27092 12.4219 6.97754L12.376 6.91602L11.376 5.41602C11.2226 5.18595 11.2085 4.89031 11.3389 4.64648C11.4694 4.40262 11.7234 4.25 12 4.25Z" fill="currentColor" />
</svg>