<svg xmlns="http://www.w3.org/2000/svg" width="24" height="24" viewBox="0 0 24 24" fill="none">
<path opacity={0.32} d="M9.25 1.25C6.44974 1.25 5.04961 1.25 3.98005 1.79497C3.03924 2.27433 2.27433 3.03924 1.79497 3.98005C1.25 5.04961 1.25 6.44974 1.25 9.25V14.75C1.25 17.5503 1.25 18.9504 1.79497 20.02C2.27433 20.9608 3.03924 21.7257 3.98005 22.205C5.04961 22.75 6.44974 22.75 9.25 22.75H14.75C17.5503 22.75 18.9504 22.75 20.02 22.205C20.9608 21.7257 21.7257 20.9608 22.205 20.02C22.75 18.9504 22.75 17.5503 22.75 14.75V9.25C22.75 6.44974 22.75 5.04961 22.205 3.98005C21.7257 3.03924 20.9608 2.27433 20.02 1.79497C18.9504 1.25 17.5503 1.25 14.75 1.25H9.25Z" fill="currentColor" /><path d="M8 5.25C8.41421 5.25 8.75 5.58579 8.75 6V12.7998C8.75 13.3722 8.75024 13.7569 8.77441 14.0527C8.79788 14.3397 8.84059 14.4768 8.88672 14.5674C9.00655 14.8025 9.1975 14.9935 9.43262 15.1133C9.52316 15.1594 9.66027 15.2021 9.94727 15.2256C10.2431 15.2498 10.6278 15.25 11.2002 15.25H18C18.4142 15.25 18.75 15.5858 18.75 16C18.75 16.4142 18.4142 16.75 18 16.75H16.75V18C16.75 18.4142 16.4142 18.75 16 18.75C15.5858 18.75 15.25 18.4142 15.25 18V16.75H11.2002C10.6525 16.75 10.1963 16.751 9.8252 16.7207C9.44546 16.6897 9.0891 16.6219 8.75195 16.4502C8.23451 16.1865 7.81346 15.7655 7.5498 15.248C7.37809 14.9109 7.31033 14.5545 7.2793 14.1748C7.24897 13.8037 7.25 13.3475 7.25 12.7998V8.75H6C5.58579 8.75 5.25 8.41421 5.25 8C5.25 7.58579 5.58579 7.25 6 7.25H7.25V6C7.25 5.58579 7.58579 5.25 8 5.25ZM12.7998 7.25C13.3475 7.25 13.8037 7.24897 14.1748 7.2793C14.5545 7.31033 14.9109 7.37809 15.248 7.5498C15.7655 7.81346 16.1865 8.23451 16.4502 8.75195C16.6219 9.0891 16.6897 9.44546 16.7207 9.8252C16.751 10.1963 16.75 10.6525 16.75 11.2002V13C16.75 13.4142 16.4142 13.75 16 13.75C15.5858 13.75 15.25 13.4142 15.25 13V11.2002C15.25 10.6278 15.2498 10.2431 15.2256 9.94727C15.2021 9.66027 15.1594 9.52316 15.1133 9.43262C14.9935 9.1975 14.8025 9.00655 14.5674 8.88672C14.4768 8.84059 14.3397 8.79788 14.0527 8.77441C13.7569 8.75024 13.3722 8.75 12.7998 8.75H11C10.5858 8.75 10.25 8.41421 10.25 8C10.25 7.58579 10.5858 7.25 11 7.25H12.7998Z" fill="currentColor" />
</svg>