<svg xmlns="http://www.w3.org/2000/svg" width="40" height="40" viewBox="0 0 40 40" fill="none">
<path d="M20.0005 2.08301C29.8954 2.08318 37.9165 10.105 37.9165 20C37.9163 29.8948 29.8953 37.9158 20.0005 37.916C10.1055 37.916 2.08367 29.895 2.0835 20C2.0835 10.1049 10.1054 2.08301 20.0005 2.08301ZM25.8843 14.1162C25.3961 13.6281 24.6049 13.6281 24.1167 14.1162L20.0005 18.2324L15.8843 14.1162C15.3961 13.6281 14.6049 13.6281 14.1167 14.1162C13.6285 14.6044 13.6285 15.3956 14.1167 15.8838L18.2329 20L14.1167 24.1162C13.6285 24.6044 13.6285 25.3956 14.1167 25.8838C14.6049 26.3716 15.3962 26.3718 15.8843 25.8838L20.0005 21.7676L24.1167 25.8838L24.2114 25.9697C24.7024 26.3699 25.4267 26.3413 25.8843 25.8838C26.3418 25.4262 26.3704 24.7019 25.9702 24.2109L25.8843 24.1162L21.7681 20L25.8843 15.8838C26.3723 15.3957 26.3721 14.6044 25.8843 14.1162Z" fill="currentColor" />
</svg>