<svg xmlns="http://www.w3.org/2000/svg" width="24" height="24" viewBox="0 0 24 24" fill="none">
<path d="M22 12C22 17.5228 17.5228 22 12 22M22 12C22 9.74835 21.2558 7.67051 20 5.99902M22 12H19M12 22C6.47715 22 2 17.5228 2 12M12 22V19M2 12C2 6.47715 6.47715 2 12 2M2 12H5M12 2C13.4222 2 14.7751 2.2969 16 2.83209M12 2V5M14 12C14 13.1046 13.1046 14 12 14C10.8954 14 10 13.1046 10 12C10 10.8954 10.8954 10 12 10C13.1046 10 14 10.8954 14 12Z" stroke="currentColor" stroke-width={2} stroke-linecap="round" stroke-linejoin="round" />
</svg>