<svg xmlns="http://www.w3.org/2000/svg" width="40" height="40" viewBox="0 0 40 40" fill="none">
<path d="M29.151 5.83368C28.0841 4.80744 27.3381 4.20627 26.4566 3.84115C25.2315 3.33368 23.869 3.33368 21.144 3.33368H18.8563C16.1313 3.33368 14.7688 3.33368 13.5437 3.84115C12.3186 4.34862 11.3551 5.31205 9.42825 7.23892L7.23874 9.42844C5.31187 11.3553 4.34844 12.3187 3.84097 13.5439C3.3335 14.769 3.3335 16.1315 3.3335 18.8565V21.1442C3.3335 23.8692 3.3335 25.2317 3.84097 26.4568C4.34844 27.682 5.31187 28.6454 7.23874 30.5723L9.42825 32.7618C11.3551 34.6886 12.3186 35.6521 13.5437 36.1595C14.7688 36.667 16.1313 36.667 18.8563 36.667H21.144C23.869 36.667 25.2315 36.667 26.4566 36.1595C27.6818 35.6521 28.6452 34.6886 30.5721 32.7618L32.7616 30.5723C34.6885 28.6454 35.6519 27.682 36.1594 26.4568C36.6668 25.2317 36.6668 23.8692 36.6668 21.1442V18.8565C36.6668 16.1315 36.6668 14.769 36.1594 13.5439C35.7924 12.658 35.1871 11.909 34.1516 10.8337M15.0002 25.0003L20.0002 20.0003M20.0002 20.0003L25.0002 15.0003M20.0002 20.0003L15.0002 15.0003M20.0002 20.0003L25.0002 25.0003" stroke="currentColor" stroke-width={2.5} stroke-linecap="round" stroke-linejoin="round" />
</svg>