<svg xmlns="http://www.w3.org/2000/svg" width="24" height="24" viewBox="0 0 24 24" fill="none">
<path d="M12 1.25C17.9371 1.25 22.75 6.06294 22.75 12C22.75 17.9371 17.9371 22.75 12 22.75C6.06294 22.75 1.25 17.9371 1.25 12C1.25 6.06294 6.06294 1.25 12 1.25ZM12 16C11.4477 16 11 16.4477 11 17V20C11 20.5523 11.4477 21 12 21C12.5523 21 13 20.5523 13 20V17C13 16.4477 12.5523 16 12 16ZM12 10C10.8954 10 10 10.8954 10 12C10 13.1046 10.8954 14 12 14C13.1046 14 14 13.1046 14 12C14 10.8954 13.1046 10 12 10ZM4 11C3.44772 11 3 11.4477 3 12C3 12.5523 3.44772 13 4 13H7C7.55228 13 8 12.5523 8 12C8 11.4477 7.55228 11 7 11H4ZM17 11C16.4477 11 16 11.4477 16 12C16 12.5523 16.4477 13 17 13H20C20.5523 13 21 12.5523 21 12C21 11.4477 20.5523 11 20 11H17ZM12 3C11.4477 3 11 3.44772 11 4V7C11 7.55228 11.4477 8 12 8C12.5523 8 13 7.55228 13 7V4C13 3.44772 12.5523 3 12 3Z" fill="currentColor" />
</svg>