<svg xmlns="http://www.w3.org/2000/svg" width="40" height="40" viewBox="0 0 40 40" fill="none">
<path d="M15.0002 25.0003L20.0002 20.0003M20.0002 20.0003L25.0002 15.0003M20.0002 20.0003L15.0002 15.0003M20.0002 20.0003L25.0002 25.0003M6.45769 29.7912L10.2093 33.5428C11.3623 34.6958 11.9388 35.2723 12.6116 35.6846C13.2081 36.0501 13.8584 36.3195 14.5386 36.4828C15.3059 36.667 16.1212 36.667 17.7518 36.667H22.2486C23.8792 36.667 24.6945 36.667 25.4617 36.4828C26.1419 36.3195 26.7922 36.0501 27.3887 35.6846C28.0615 35.2723 28.638 34.6958 29.791 33.5428L33.5426 29.7912C34.6956 28.6382 35.2722 28.0617 35.6844 27.3889C36.05 26.7924 36.3193 26.1421 36.4826 25.4619C36.6668 24.6946 36.6668 23.8793 36.6668 22.2487V17.752C36.6668 16.1214 36.6668 15.3061 36.4826 14.5388C36.3193 13.8586 36.05 13.2083 35.6844 12.6118C35.2722 11.939 34.6956 11.3625 33.5426 10.2095L29.791 6.45787C28.638 5.30486 28.0615 4.72836 27.3887 4.31608C26.7922 3.95055 26.1419 3.68119 25.4617 3.51788C24.6945 3.33368 23.8792 3.33368 22.2486 3.33368H17.7518C16.1212 3.33368 15.3059 3.33368 14.5386 3.51788C13.8584 3.68119 13.2081 3.95055 12.6116 4.31608C11.9388 4.72836 11.3623 5.30486 10.2093 6.45788L6.45769 10.2095C5.30468 11.3625 4.72817 11.939 4.31589 12.6118C3.95037 13.2083 3.68101 13.8586 3.5177 14.5388C3.3335 15.3061 3.3335 16.1214 3.3335 17.752V22.2487C3.3335 23.8793 3.3335 24.6946 3.5177 25.4619C3.68101 26.1421 3.95037 26.7924 4.31589 27.3889C4.72817 28.0617 5.30468 28.6382 6.45769 29.7912Z" stroke="currentColor" stroke-width={2.5} stroke-linecap="round" stroke-linejoin="round" />
</svg>