<svg xmlns="http://www.w3.org/2000/svg" width="24" height="24" viewBox="0 0 24 24" fill="none">
<path d="M13.1504 1.25C16.5103 1.25 18.1902 1.25042 19.4736 1.9043C20.6026 2.47954 21.5205 3.39739 22.0957 4.52637C22.7496 5.80977 22.75 7.48965 22.75 10.8496V13.1504C22.75 16.5103 22.7496 18.1902 22.0957 19.4736C21.5205 20.6026 20.6026 21.5205 19.4736 22.0957C18.1902 22.7496 16.5103 22.75 13.1504 22.75H10.8496C7.48965 22.75 5.80977 22.7496 4.52637 22.0957C3.39739 21.5205 2.47954 20.6026 1.9043 19.4736C1.25042 18.1902 1.25 16.5103 1.25 13.1504V10.8496C1.25 7.48965 1.25042 5.80977 1.9043 4.52637C2.47954 3.39739 3.39739 2.47954 4.52637 1.9043C5.80977 1.25042 7.48965 1.25 10.8496 1.25H13.1504ZM16.707 7.29297C16.3165 6.90244 15.6835 6.90244 15.293 7.29297L12 10.5859L8.70703 7.29297C8.31651 6.90244 7.68349 6.90244 7.29297 7.29297C6.90245 7.68349 6.90245 8.31651 7.29297 8.70703L10.5859 12L7.29297 15.293C6.90245 15.6835 6.90245 16.3165 7.29297 16.707C7.68349 17.0976 8.31651 17.0976 8.70703 16.707L12 13.4141L15.293 16.707L15.3691 16.7754C15.7619 17.0957 16.3409 17.0731 16.707 16.707C17.0731 16.3409 17.0957 15.7619 16.7754 15.3691L16.707 15.293L13.4141 12L16.707 8.70703C17.0976 8.31651 17.0976 7.68349 16.707 7.29297Z" fill="currentColor" />
</svg>