<svg xmlns="http://www.w3.org/2000/svg" width="40" height="40" viewBox="0 0 40 40" fill="none">
<path d="M21.6614 2.08331C23.6996 2.08331 24.7189 2.08353 25.678 2.31378C26.5283 2.51792 27.3416 2.85396 28.0872 3.31085C28.928 3.82617 29.6481 4.54754 31.0891 5.98859L34.011 8.91046C35.4523 10.3517 36.1734 11.0724 36.6887 11.9134C37.1455 12.6589 37.4826 13.4715 37.6868 14.3216C37.917 15.2806 37.9163 16.3001 37.9163 18.3382V21.6614C37.9163 23.6996 37.917 24.719 37.6868 25.678C37.4826 26.5283 37.1456 27.3416 36.6887 28.0872C36.1734 28.9281 35.4521 29.6481 34.011 31.0892L31.0891 34.011C29.648 35.4521 28.928 36.1735 28.0872 36.6888C27.3416 37.1457 26.5283 37.4827 25.678 37.6868C24.7189 37.9171 23.6996 37.9163 21.6614 37.9163H18.3381C16.3 37.9163 15.2806 37.9171 14.3215 37.6868C13.4714 37.4827 12.6588 37.1456 11.9133 36.6888C11.0724 36.1734 10.3517 35.4523 8.9104 34.011L5.98853 31.0892C4.54747 29.6481 3.82611 28.9281 3.31079 28.0872C2.8539 27.3416 2.51786 26.5283 2.31372 25.678C2.08347 24.719 2.08325 23.6997 2.08325 21.6614V18.3382C2.08325 16.3001 2.08348 15.2806 2.31372 14.3216C2.51784 13.4716 2.85407 12.6588 3.31079 11.9134C3.82613 11.0724 4.5473 10.3517 5.98853 8.91046L8.9104 5.98859C10.3516 4.54737 11.0724 3.82619 11.9133 3.31085C12.6587 2.85413 13.4715 2.5179 14.3215 2.31378C15.2806 2.08354 16.3 2.08331 18.3381 2.08331H21.6614ZM25.884 14.1165C25.3959 13.6284 24.6046 13.6284 24.1165 14.1165L20.0002 18.2327L15.884 14.1165C15.3959 13.6284 14.6046 13.6284 14.1165 14.1165C13.6284 14.6047 13.6283 15.396 14.1165 15.8841L18.2327 20.0003L14.1165 24.1165C13.6284 24.6047 13.6283 25.396 14.1165 25.8841C14.6046 26.3718 15.396 26.372 15.884 25.8841L20.0002 21.7679L24.1165 25.8841L24.2112 25.97C24.7021 26.3701 25.4265 26.3415 25.884 25.8841C26.3416 25.4266 26.3701 24.7022 25.97 24.2112L25.884 24.1165L21.7678 20.0003L25.884 15.8841C26.3721 15.3961 26.3718 14.6047 25.884 14.1165Z" fill="currentColor" />
</svg>