<svg xmlns="http://www.w3.org/2000/svg" width="24" height="24" viewBox="0 0 24 24" fill="none">
<g clipPath="url(#clip0_48_4697)"><path d="M16.7383 0.851714C17.0963 0.431391 17.728 0.38054 18.1484 0.738433C18.5688 1.0965 18.6196 1.72817 18.2617 2.14859L13.5078 7.72769L17.8896 13.2521C17.9263 13.2513 17.9631 13.2502 18 13.2502C20.6233 13.2502 22.75 15.3768 22.75 18.0002C22.75 20.6235 20.6234 22.7502 18 22.7502C15.3766 22.7502 13.25 20.6235 13.25 18.0002C13.25 16.181 14.2727 14.6008 15.7744 13.8029L12.1865 9.27945L8.29883 13.8429C9.7604 14.6529 10.75 16.2108 10.75 18.0002C10.75 20.6235 8.62335 22.7502 6 22.7501C3.37664 22.7501 1.25 20.6235 1.25 18.0001C1.25 15.3768 3.37665 13.2501 6 13.2501C6.05787 13.2501 6.11548 13.252 6.17285 13.2541L16.7383 0.851714ZM6.35645 0.734525C6.75303 0.40141 7.33277 0.428894 7.69629 0.782376L7.76562 0.856595L11.126 4.8566L11.1875 4.93863C11.4726 5.35767 11.3994 5.93276 11.0029 6.26578C10.6064 6.59875 10.0276 6.57122 9.66406 6.21792L9.59473 6.1437L6.23437 2.1437L6.17285 2.06167C5.8877 1.6427 5.96017 1.06761 6.35645 0.734525Z" fill="currentColor" /></g><defs><clipPath id="clip0_48_4697"><rect width={24} height={24} fill="white" /></clipPath></defs>
</svg>