<svg xmlns="http://www.w3.org/2000/svg" width="24" height="24" viewBox="0 0 24 24" fill="none">
<path d="M2.49993 3.50011C3.47915 2.52089 4.66862 2.13996 5.86321 2.27745C7.03349 2.41228 8.14635 3.03521 9.05559 3.94445C9.96483 4.85369 10.5878 5.96654 10.7226 7.13683C10.8343 8.10728 10.6036 9.07412 9.98821 9.92784L20.5302 20.4698L20.582 20.5265C20.8223 20.8211 20.8048 21.2558 20.5302 21.5304C20.2556 21.805 19.8209 21.8224 19.5263 21.5821L19.4697 21.5304L10.9999 13.0607L2.5302 21.5304C2.23731 21.8233 1.76255 21.8233 1.46966 21.5304C1.17678 21.2375 1.17678 20.7627 1.46966 20.4698L9.93938 12.0001L8.92766 10.9884C8.0738 11.6039 7.10628 11.8346 6.13567 11.7228C4.96557 11.5878 3.85338 10.9649 2.94427 10.0558C2.03503 9.14653 1.41208 8.03368 1.27727 6.86339C1.13979 5.66879 1.52071 4.47934 2.49993 3.50011ZM19.5263 2.41808C19.8209 2.17778 20.2556 2.19525 20.5302 2.46984L21.2675 3.20714C21.6547 3.59438 21.9777 3.91645 22.2187 4.2003C22.4653 4.49081 22.6701 4.79059 22.787 5.1505C22.9664 5.70269 22.9664 6.29753 22.787 6.84972C22.6701 7.20963 22.4653 7.50941 22.2187 7.79991C21.9777 8.08377 21.6547 8.40584 21.2675 8.79308L16.5302 13.5304C16.2373 13.8233 15.7625 13.8233 15.4697 13.5304L12.4697 10.5304C12.1768 10.2375 12.1768 9.76273 12.4697 9.46984L19.4697 2.46984L19.5263 2.41808Z" fill="currentColor" />
</svg>