<svg xmlns="http://www.w3.org/2000/svg" width="24" height="24" viewBox="0 0 24 24" fill="none">
<path d="M14.9999 22V14M14.9999 14V2L16.576 2.39403C17.4427 2.61069 17.876 2.71903 18.1986 2.96062C18.4833 3.17378 18.706 3.459 18.8438 3.78687C18.9999 4.15848 18.9999 4.60515 18.9999 5.49848V10.0223C18.9999 10.7402 18.9999 11.0992 18.8906 11.4161C18.7939 11.6963 18.6361 11.9516 18.4287 12.1634C18.1941 12.4029 17.8731 12.5634 17.231 12.8845L14.9999 14ZM6.99988 2V11M6.99988 11V22M6.99988 11L5.42484 9.94997C4.90386 9.60265 4.64336 9.42899 4.45479 9.19955C4.28784 8.99643 4.16258 8.76238 4.08618 8.5108C3.99988 8.22663 3.99988 7.91355 3.99988 7.28741V2M6.99988 11L8.57492 9.94997C9.0959 9.60265 9.35639 9.42899 9.54497 9.19955C9.71192 8.99643 9.83717 8.76238 9.91358 8.5108C9.99988 8.22663 9.99988 7.91355 9.99988 7.28741V2" stroke="currentColor" stroke-width={1.5} stroke-linecap="round" stroke-linejoin="round" />
</svg>