<svg xmlns="http://www.w3.org/2000/svg" width="24" height="24" viewBox="0 0 24 24" fill="none">
<path d="M7.00012 2V11M7.00012 22V11M7.00012 11L5.42508 9.94997C4.9041 9.60265 4.64361 9.42899 4.45503 9.19955C4.28808 8.99643 4.16283 8.76238 4.08642 8.5108C4.00012 8.22663 4.00012 7.91355 4.00012 7.28741V2M10.0001 9V2M17.0001 2V14C15.3433 14 13.5001 15.7909 13.5001 18C13.5001 20.2091 15.3433 22 17.0001 22C18.657 22 20.5001 20.2091 20.5001 18C20.5001 17.6547 20.4551 17.3196 20.3728 17C20.2814 16.6452 20.1441 16.3095 19.9715 16" stroke="currentColor" stroke-width={1.5} stroke-linecap="round" stroke-linejoin="round" />
</svg>