<svg xmlns="http://www.w3.org/2000/svg" width="24" height="24" viewBox="0 0 24 24" fill="none">
<path d="M10.0002 1.25C10.4144 1.25 10.7502 1.58579 10.7502 2V7.28711C10.7502 7.86652 10.7573 8.31264 10.6311 8.72852C10.526 9.07444 10.3538 9.39649 10.1242 9.67578C9.84825 10.0114 9.47341 10.2529 8.99141 10.5742L7.7502 11.4014V22C7.7502 22.4142 7.41441 22.75 7.0002 22.75C6.58598 22.75 6.2502 22.4142 6.2502 22V11.4014L5.00898 10.5742C4.52698 10.2529 4.15214 10.0114 3.87617 9.67578C3.64662 9.39649 3.47439 9.07444 3.36934 8.72852C3.24306 8.31264 3.2502 7.86652 3.2502 7.28711V2C3.2502 1.58579 3.58598 1.25 4.0002 1.25C4.41441 1.25 4.7502 1.58579 4.7502 2V7.28711C4.7502 7.95995 4.75761 8.14052 4.80391 8.29297C4.85166 8.45019 4.93004 8.59669 5.03438 8.72363C5.13554 8.84667 5.28135 8.95306 5.84102 9.32617L6.2502 9.59863V2C6.2502 1.58579 6.58598 1.25 7.0002 1.25C7.41441 1.25 7.7502 1.58579 7.7502 2V9.59863L8.15938 9.32617C8.71904 8.95306 8.86485 8.84667 8.96602 8.72363C9.07035 8.59669 9.14873 8.45019 9.19649 8.29297C9.24278 8.14052 9.2502 7.95995 9.2502 7.28711V2C9.2502 1.58579 9.58598 1.25 10.0002 1.25ZM17.0002 1.25C17.4144 1.25 17.7502 1.58579 17.7502 2V13.3398C18.5663 13.5324 19.331 14.0214 19.923 14.6631C20.703 15.5085 21.2502 16.6852 21.2502 18C21.2502 19.3148 20.703 20.4915 19.923 21.3369C19.1522 22.1724 18.0894 22.75 17.0002 22.75C15.911 22.75 14.8482 22.1724 14.0773 21.3369C13.2974 20.4915 12.7502 19.3148 12.7502 18C12.7502 16.6852 13.2974 15.5085 14.0773 14.6631C14.6694 14.0214 15.4341 13.5324 16.2502 13.3398V2C16.2502 1.58579 16.586 1.25 17.0002 1.25Z" fill="currentColor" />
</svg>