<svg xmlns="http://www.w3.org/2000/svg" width="24" height="24" viewBox="0 0 24 24" fill="none">
<path d="M9.99995 1.25C10.4142 1.25 10.75 1.58579 10.75 2V7.28711C10.75 7.86652 10.7571 8.31264 10.6308 8.72852C10.5258 9.07444 10.3535 9.39649 10.124 9.67578C9.848 10.0114 9.47317 10.2529 8.99116 10.5742L7.74995 11.4014V22C7.74995 22.4142 7.41417 22.75 6.99995 22.75C6.58574 22.75 6.24995 22.4142 6.24995 22V11.4014L5.00874 10.5742C4.52673 10.2529 4.1519 10.0114 3.87593 9.67578C3.64638 9.39649 3.47415 9.07444 3.36909 8.72852C3.24281 8.31264 3.24995 7.86652 3.24995 7.28711V2C3.24995 1.58579 3.58574 1.25 3.99995 1.25C4.41417 1.25 4.74995 1.58579 4.74995 2V7.28711C4.74995 7.95995 4.75736 8.14052 4.80366 8.29297C4.85141 8.45019 4.9298 8.59669 5.03413 8.72363C5.13529 8.84667 5.28111 8.95306 5.84077 9.32617L6.24995 9.59863V2C6.24995 1.58579 6.58574 1.25 6.99995 1.25C7.41417 1.25 7.74995 1.58579 7.74995 2V9.59863L8.15913 9.32617C8.7188 8.95306 8.86461 8.84667 8.96577 8.72363C9.07011 8.59669 9.14849 8.45019 9.19624 8.29297C9.24254 8.14052 9.24995 7.95995 9.24995 7.28711V2C9.24995 1.58579 9.58574 1.25 9.99995 1.25ZM14.538 1.40918C14.72 1.2671 14.9576 1.21654 15.1816 1.27246L16.7578 1.66602C17.5569 1.86579 18.1752 2.00603 18.6484 2.36035C19.0397 2.65337 19.3457 3.04544 19.5351 3.49609C19.764 4.041 19.75 4.67457 19.75 5.49805V10.0225C19.75 10.6857 19.7595 11.1962 19.5996 11.6602C19.4666 12.0455 19.25 12.3973 18.9648 12.6885C18.6213 13.0392 18.1598 13.2589 17.5664 13.5557L15.75 14.4629V22C15.75 22.4142 15.4142 22.75 15 22.75C14.5857 22.75 14.25 22.4142 14.25 22V2C14.25 1.76921 14.3562 1.55132 14.538 1.40918Z" fill="currentColor" />
</svg>