<svg xmlns="http://www.w3.org/2000/svg" width="24" height="24" viewBox="0 0 24 24" fill="none">
<path d="M5.46967 2.46984C5.76256 2.17695 6.23732 2.17695 6.53022 2.46984L9.39936 5.33801C9.78334 5.72199 10.0832 6.01325 10.2822 6.37121C10.4477 6.66915 10.5571 6.99544 10.6035 7.33312C10.6591 7.739 10.5934 8.15282 10.5165 8.69055L10.2949 10.2345L20.5302 20.4698L20.582 20.5265C20.8223 20.8211 20.8048 21.2558 20.5302 21.5304C20.2556 21.805 19.8209 21.8225 19.5263 21.5821L19.4697 21.5304L10.9999 13.0607L2.53022 21.5304C2.23732 21.8233 1.76256 21.8233 1.46967 21.5304C1.17678 21.2375 1.17678 20.7627 1.46967 20.4698L9.9394 12.0001L9.23432 11.295L7.69037 11.5167C7.15264 11.5935 6.73882 11.6593 6.33295 11.6036C5.99527 11.5573 5.66898 11.4479 5.37104 11.2823C5.01308 11.0834 4.72182 10.7835 4.33783 10.3995L1.46967 7.53039C1.17678 7.2375 1.17678 6.76274 1.46967 6.46984C1.74427 6.19524 2.17899 6.17778 2.47358 6.41809L2.53022 6.46984L5.39936 9.33801C5.84481 9.78346 5.96819 9.89878 6.09955 9.9718C6.23499 10.0471 6.38355 10.0962 6.53705 10.1173C6.68596 10.1377 6.85393 10.1204 7.47748 10.0314L7.90815 9.96887L2.96967 5.03039L2.91791 4.97375C2.6776 4.67917 2.69507 4.24445 2.96967 3.96984C3.24427 3.69524 3.67899 3.67778 3.97358 3.91809L4.03022 3.96984L8.96869 8.90832L9.03119 8.47766C9.12027 7.8541 9.13755 7.68613 9.11713 7.53723C9.09606 7.38372 9.04689 7.23516 8.97162 7.09973C8.8986 6.96836 8.78329 6.84499 8.33783 6.39953L5.46967 3.53039L5.41791 3.47375C5.1776 3.17917 5.19507 2.74445 5.46967 2.46984ZM19.5263 2.41809C19.8209 2.17778 20.2556 2.19524 20.5302 2.46984L21.2675 3.20715C21.6548 3.59439 21.9777 3.91645 22.2187 4.20031C22.4653 4.49082 22.6701 4.79059 22.7871 5.15051C22.9664 5.7027 22.9664 6.29753 22.7871 6.84973C22.6701 7.20964 22.4653 7.50942 22.2187 7.79992C21.9777 8.08378 21.6548 8.40584 21.2675 8.79309L16.5302 13.5304C16.2373 13.8233 15.7626 13.8233 15.4697 13.5304L12.4697 10.5304C12.1768 10.2375 12.1768 9.76274 12.4697 9.46984L19.4697 2.46984L19.5263 2.41809Z" fill="currentColor" />
</svg>