<svg xmlns="http://www.w3.org/2000/svg" width="24" height="24" viewBox="0 0 24 24" fill="none">
<path d="M13.8525 15.75C15.4101 15.7501 16.0666 15.7562 16.6719 15.9082C17.2295 16.0483 17.7613 16.2787 18.2441 16.5908C18.7707 16.9314 19.2246 17.4106 20.2988 18.5615L20.4141 18.6855C18.4446 21.1609 15.409 22.75 12 22.75C8.59076 22.75 5.5544 21.1611 3.58496 18.6855L3.70215 18.5615C4.77655 17.4104 5.23105 16.9314 5.75781 16.5908C6.2407 16.2787 6.77242 16.0482 7.33008 15.9082C7.935 15.7565 8.59058 15.7501 10.1465 15.75C10.4432 16.4827 11.1608 16.9999 12 17C12.8391 17 13.5557 16.4826 13.8525 15.75ZM12 1.25C17.937 1.25007 22.75 6.06298 22.75 12C22.75 13.9766 22.213 15.8267 21.2822 17.418C20.327 16.3944 19.7495 15.7785 19.0576 15.3311C18.4369 14.9298 17.754 14.6332 17.0371 14.4531C16.2114 14.2458 15.3377 14.2499 13.8525 14.25C13.6477 13.7446 13.2436 13.3427 12.7363 13.1416C12.7451 13.0957 12.751 13.0485 12.751 13V9C12.751 8.58607 12.4148 8.25046 12.001 8.25C11.5868 8.25 11.251 8.58579 11.251 9V13C11.251 13.0484 11.2549 13.0958 11.2637 13.1416C10.7564 13.3428 10.3512 13.7445 10.1465 14.25C8.66264 14.2499 7.79008 14.2461 6.96484 14.4531C6.24778 14.6331 5.56426 14.9297 4.94336 15.3311C4.25106 15.7786 3.67276 16.3946 2.7168 17.4189C1.78583 15.8276 1.25 13.9768 1.25 12C1.25 6.06294 6.06294 1.25 12 1.25ZM4.00098 11.25C3.58676 11.25 3.25098 11.5858 3.25098 12C3.25098 12.4142 3.58676 12.75 4.00098 12.75H5.33398C5.74795 12.7497 6.08398 12.414 6.08398 12C6.08398 11.586 5.74795 11.2503 5.33398 11.25H4.00098ZM18.667 11.25C18.2529 11.2502 17.917 11.5859 17.917 12C17.917 12.4141 18.2529 12.7498 18.667 12.75H20.001C20.4148 12.7495 20.751 12.4139 20.751 12C20.751 11.5861 20.4148 11.2505 20.001 11.25H18.667ZM17.8643 6.13672C17.5714 5.84391 17.0966 5.84407 16.8037 6.13672L15.915 7.02539C15.6221 7.31828 15.6221 7.79304 15.915 8.08594C16.208 8.3784 16.6828 8.37869 16.9756 8.08594L17.8643 7.19727C18.1568 6.9045 18.1566 6.42956 17.8643 6.13672ZM7.14062 6.08496C6.84613 5.84473 6.41133 5.86235 6.13672 6.13672C5.86242 6.41132 5.84576 6.84518 6.08594 7.13965L6.13672 7.19727L7.02539 8.08594L7.08301 8.1377C7.37758 8.37746 7.81251 8.36034 8.08691 8.08594C8.36109 7.81133 8.37783 7.37646 8.1377 7.08203L8.08691 7.02539L7.19727 6.13672L7.14062 6.08496ZM12.001 3.25C11.5868 3.25 11.251 3.58579 11.251 4V5.33301C11.251 5.74722 11.5868 6.08301 12.001 6.08301C12.4148 6.08255 12.751 5.74694 12.751 5.33301V4C12.751 3.58607 12.4148 3.25046 12.001 3.25Z" fill="currentColor" />
</svg>