<svg xmlns="http://www.w3.org/2000/svg" width="24" height="24" viewBox="0 0 24 24" fill="none">
<path d="M22 12C22 17.5228 17.5228 22 12 22C6.47715 22 2 17.5228 2 12M22 12C22 7.89936 19.5318 4.3752 16 2.83209M22 12H20M2 12C2 6.47715 6.47715 2 12 2V4M2 12H4M20 18L18.7678 16.7678C17.6359 15.6359 16.1007 15 14.5 15M7 15H9.5M19.0004 5L18 6M5 5L6 6M12 13C10.8954 13 10 13.8954 10 15C10 16.1046 10.8954 17 12 17C13.1046 17 14 16.1046 14 15C14 13.8954 13.1046 13 12 13ZM12 13V9" stroke="currentColor" stroke-width={1.5} stroke-linecap="round" stroke-linejoin="round" />
</svg>