<svg xmlns="http://www.w3.org/2000/svg" width="24" height="24" viewBox="0 0 24 24" fill="none">
<path d="M12 1.25C17.9371 1.25 22.75 6.06294 22.75 12C22.75 17.9371 17.9371 22.75 12 22.75C6.06294 22.75 1.25 17.9371 1.25 12C1.25 6.06294 6.06294 1.25 12 1.25ZM8.09277 15.6094C7.80363 15.3131 7.32874 15.3077 7.03223 15.5967L6.14355 16.4629C5.84692 16.752 5.84077 17.2268 6.12988 17.5234C6.419 17.8199 6.89385 17.8262 7.19043 17.5371L8.0791 16.6709C8.37573 16.3818 8.38188 15.906 8.09277 15.6094ZM16.9678 15.5967C16.6712 15.3075 16.1964 15.3129 15.9072 15.6094C15.6181 15.9059 15.6245 16.3807 15.9209 16.6699L16.8096 17.5371L16.8672 17.5879C17.1648 17.8244 17.599 17.8015 17.8701 17.5234C18.1593 17.2269 18.153 16.7521 17.8564 16.4629L16.9678 15.5967ZM12.1514 9.17676C12.07 9.15094 11.9301 9.15096 11.8486 9.17676C11.7368 9.21233 11.6758 9.27132 11.5547 9.38867C10.9653 9.95958 10 11.1149 10 12.5557C10.0001 15.8148 13.9999 15.8148 14 12.5557C14 11.1149 13.0347 9.95958 12.4453 9.38867C12.3241 9.27129 12.2633 9.21233 12.1514 9.17676ZM4 11.0498C3.58585 11.0498 3.25011 11.3857 3.25 11.7998C3.25 12.214 3.58579 12.5498 4 12.5498H5.33301C5.74722 12.5498 6.08301 12.214 6.08301 11.7998C6.0829 11.3857 5.74716 11.0498 5.33301 11.0498H4ZM18.667 11.0498C18.2528 11.0498 17.9171 11.3857 17.917 11.7998C17.917 12.214 18.2528 12.5498 18.667 12.5498H20L20.0771 12.5459C20.4551 12.5073 20.75 12.188 20.75 11.7998C20.7499 11.3857 20.4141 11.0498 20 11.0498H18.667ZM17.8701 6.07617C17.5989 5.79825 17.1647 5.77597 16.8672 6.0127L16.8096 6.06348L15.9209 6.92969C15.6244 7.21881 15.6182 7.69365 15.9072 7.99023C16.1963 8.28673 16.6712 8.29283 16.9678 8.00391L17.8564 7.13672C18.153 6.84756 18.1593 6.37275 17.8701 6.07617ZM7.13281 6.0127C6.83529 5.77597 6.40109 5.79825 6.12988 6.07617C5.85874 6.35427 5.84669 6.78954 6.09082 7.08105L6.14355 7.13672L7.03223 8.00391L7.08984 8.05469C7.38743 8.29096 7.82177 8.26819 8.09277 7.99023C8.36376 7.71218 8.37482 7.2778 8.13086 6.98633L8.0791 6.92969L7.19043 6.06348L7.13281 6.0127ZM12 3.25C11.5858 3.25 11.25 3.58579 11.25 4V5.2998C11.25 5.71402 11.5858 6.0498 12 6.0498C12.4142 6.0498 12.75 5.71402 12.75 5.2998V4C12.75 3.58579 12.4142 3.25 12 3.25Z" fill="currentColor" />
</svg>