<svg xmlns="http://www.w3.org/2000/svg" width="24" height="24" viewBox="0 0 24 24" fill="none">
<g clipPath="url(#clip0_9_1536)"><path opacity={0.4} d="M8 7L9.13783 4.72433C10.059 2.88191 10.5197 1.96069 11.1429 1.66508C11.6854 1.40782 12.3146 1.40782 12.857 1.66508C13.4803 1.96069 13.941 2.88191 14.8622 4.72433L17.5 10" stroke="currentColor" stroke-width={1.5} stroke-linecap="round" stroke-linejoin="round" /><path d="M8 7L4.01929 14.9614C2.52082 17.9584 1.77158 19.4568 2.02258 20.2346C2.23924 20.9059 2.79354 21.4135 3.48131 21.5703C4.2781 21.7519 5.70492 20.8739 8.55857 19.1178L10.3229 18.0321C10.9318 17.6573 11.2363 17.47 11.5622 17.3969C11.8505 17.3322 12.1495 17.3322 12.4378 17.3969C12.7637 17.47 13.0682 17.6573 13.6771 18.0321L15.4414 19.1178C18.2951 20.8739 19.7219 21.7519 20.5187 21.5703C21.2065 21.4134 21.7608 20.9059 21.9774 20.2346C22.2284 19.4568 21.4792 17.9584 19.9807 14.9614L17.5 10" stroke="currentColor" stroke-width={1.5} stroke-linecap="round" stroke-linejoin="round" /></g><defs><clipPath id="clip0_9_1536"><rect width={24} height={24} fill="white" /></clipPath></defs>
</svg>