<svg xmlns="http://www.w3.org/2000/svg" width="24" height="24" viewBox="0 0 24 24" fill="none">
<g clipPath="url(#clip0_9_1529)"><path d="M22.1644 6.76607C22.7914 4.52667 23.105 3.40697 22.814 2.63862C22.5603 1.96871 22.0314 1.43982 21.3615 1.18611C20.5931 0.895111 19.4734 1.20863 17.234 1.83566L7.23894 4.63428C3.70185 5.62466 1.93331 6.11986 1.42084 6.96067C0.977616 7.68789 0.935078 8.59071 1.30796 9.35638C1.7391 10.2417 3.45325 10.9009 6.88155 12.2195L8.7604 12.9422C9.37144 13.1772 9.67696 13.2947 9.93395 13.4774C10.1617 13.6394 10.3607 13.8384 10.5227 14.0661C10.7054 14.3231 10.8229 14.6286 11.0579 15.2397L11.7804 17.1184C13.099 20.5467 13.7582 22.2609 14.6435 22.692C15.4092 23.0649 16.312 23.0224 17.0392 22.5792C17.88 22.0667 18.3753 20.2982 19.3657 16.7611L22.1644 6.76607Z" fill="currentColor" /></g><defs><clipPath id="clip0_9_1529"><rect width={24} height={24} fill="white" /></clipPath></defs>
</svg>