<svg xmlns="http://www.w3.org/2000/svg" width="24" height="24" viewBox="0 0 24 24" fill="none">
<g clipPath="url(#clip0_9_1520)"><path opacity={0.4} d="M12 4.08L17.5218 2.53391C19.3133 2.03228 20.209 1.78147 20.8237 2.01427C21.3596 2.21724 21.7827 2.64035 21.9857 3.17628C22.2185 3.79096 21.9677 4.68672 21.466 6.47824L21.0399 8" stroke="currentColor" stroke-width={1.5} stroke-linecap="round" stroke-linejoin="round" /><path d="M12 4.07999L7.29584 5.39715C4.46617 6.18946 3.05133 6.58561 2.64136 7.25827C2.28678 7.84004 2.25275 8.5623 2.55106 9.17483C2.89597 9.88305 4.26729 10.4105 7.00993 11.4653L9.67255 12.4894C10.1614 12.6774 10.4058 12.7714 10.6114 12.9176C10.7936 13.0472 10.9528 13.2064 11.0823 13.3886C11.2285 13.5942 11.3225 13.8386 11.5105 14.3274L12.5345 16.9899C13.5893 19.7326 14.1168 21.1039 14.825 21.4488C15.4375 21.7472 16.1598 21.7131 16.7415 21.3586C17.4142 20.9486 17.8104 19.5338 18.6027 16.7041L21.0399 7.99999" stroke="currentColor" stroke-width={1.5} stroke-linecap="round" stroke-linejoin="round" /></g><defs><clipPath id="clip0_9_1520"><rect width={24} height={24} fill="white" /></clipPath></defs>
</svg>