<svg xmlns="http://www.w3.org/2000/svg" width="24" height="24" viewBox="0 0 24 24" fill="none">
<g clipPath="url(#clip0_9_1545)"><path d="M15.5773 4.47835C14.4258 2.17532 13.85 1.0238 13.0709 0.654282C12.3929 0.332715 11.6063 0.332715 10.9282 0.654282C10.1491 1.0238 9.57337 2.17532 8.42185 4.47835L3.42646 14.4691C1.55336 18.2153 0.616816 20.0884 0.93057 21.0606C1.2014 21.8998 1.89427 22.5342 2.75398 22.7302C3.74997 22.9573 5.5335 21.8597 9.10056 19.6646L9.90317 19.1707C10.6643 18.7023 11.0449 18.4681 11.4524 18.3767C11.8127 18.2959 12.1864 18.2959 12.5468 18.3767C12.9542 18.4681 13.3348 18.7023 14.096 19.1707L14.8986 19.6646C18.4656 21.8597 20.2492 22.9573 21.2451 22.7302C22.1049 22.5342 22.7977 21.8998 23.0686 21.0606C23.3823 20.0884 22.4458 18.2153 20.5727 14.4691L15.5773 4.47835Z" fill="currentColor" /></g><defs><clipPath id="clip0_9_1545"><rect width={24} height={24} fill="white" /></clipPath></defs>
</svg>