<svg xmlns="http://www.w3.org/2000/svg" width="24" height="24" viewBox="0 0 24 24" fill="none">
<g clipPath="url(#clip0_9_1542)"><path opacity={0.32} d="M15.5773 4.47842C14.4258 2.17538 13.85 1.02386 13.0709 0.654343C12.3929 0.332776 11.6063 0.332776 10.9282 0.654343C10.1491 1.02386 9.57337 2.17538 8.42185 4.47842L3.42646 14.4692C1.55336 18.2154 0.616816 20.0885 0.93057 21.0607C1.2014 21.8998 1.89427 22.5342 2.75398 22.7303C3.74997 22.9574 5.5335 21.8598 9.10056 19.6647L9.90317 19.1708C10.6643 18.7024 11.0449 18.4681 11.4524 18.3768C11.8127 18.2959 12.1864 18.2959 12.5468 18.3768C12.9542 18.4681 13.3348 18.7024 14.096 19.1708L14.8986 19.6647C18.4656 21.8598 20.2492 22.9574 21.2451 22.7303C22.1049 22.5342 22.7977 21.8998 23.0686 21.0607C23.3823 20.0885 22.4458 18.2154 20.5727 14.4692L15.5773 4.47842Z" fill="currentColor" /><path d="M12 18.316V0.413086C12.3661 0.413086 12.7323 0.493469 13.0714 0.654266C13.8505 1.02377 14.4262 2.17529 15.5778 4.47833L20.5732 14.4691C22.4463 18.2153 23.3828 20.0884 23.069 21.0606C22.7982 21.8997 22.1053 22.5341 21.2456 22.7302C20.2497 22.9573 18.4662 21.8598 14.8993 19.6648L14.0964 19.1707C13.3353 18.7023 12.9547 18.468 12.5472 18.3766C12.3671 18.3362 12.1835 18.316 12 18.316Z" fill="currentColor" /></g><defs><clipPath id="clip0_9_1542"><rect width={24} height={24} fill="white" /></clipPath></defs>
</svg>