<svg xmlns="http://www.w3.org/2000/svg" width="24" height="24" viewBox="0 0 24 24" fill="none">
<g clipPath="url(#clip0_9_1526)"><path opacity={0.32} d="M22.1644 6.76601C22.7914 4.52661 23.105 3.40691 22.814 2.63856C22.5603 1.96865 22.0314 1.43976 21.3615 1.18605C20.5931 0.89505 19.4734 1.20857 17.234 1.8356L7.23894 4.63422C3.70185 5.6246 1.93331 6.1198 1.42084 6.96061C0.977616 7.68783 0.935078 8.59065 1.30796 9.35632C1.7391 10.2416 3.45325 10.9009 6.88155 12.2195L8.7604 12.9421C9.37144 13.1771 9.67696 13.2946 9.93395 13.4774C10.1617 13.6393 10.3607 13.8383 10.5227 14.0661C10.7054 14.3231 10.8229 14.6286 11.0579 15.2396L11.7804 17.1183C13.099 20.5467 13.7582 22.2608 14.6435 22.692C15.4092 23.0649 16.312 23.0224 17.0392 22.5791C17.88 22.0667 18.3753 20.2981 19.3657 16.761L22.1644 6.76601Z" fill="currentColor" /><path d="M22.2439 1.75624C21.9962 1.50857 21.6965 1.31291 21.3615 1.18605C20.5932 0.895057 19.4735 1.20857 17.2341 1.83561L7.23902 4.63423C3.70193 5.62461 1.93338 6.1198 1.42092 6.96062C0.977692 7.68783 0.935154 8.59066 1.30804 9.35632C1.71223 10.1863 3.24407 10.8176 6.2588 11.9797C6.45978 12.0572 6.66736 12.1371 6.88163 12.2195L7.99357 12.6471C8.00817 12.6528 8.02269 12.6583 8.03705 12.6639C8.88639 12.9905 9.31814 13.1539 9.74735 13.1631C10.1332 13.1714 10.5157 13.0902 10.8649 12.926C11.2599 12.7402 11.5926 12.4075 12.2579 11.7422L22.2439 1.75624Z" fill="currentColor" /></g><defs><clipPath id="clip0_9_1526"><rect width={24} height={24} fill="white" /></clipPath></defs>
</svg>