<svg xmlns="http://www.w3.org/2000/svg" width="24" height="24" viewBox="0 0 24 24" fill="none">
<path d="M5.76593 3.0207C5.77393 3.03312 5.81793 3.08901 5.85993 3.14282C6.16592 3.51955 6.39591 4.13224 6.51991 4.90432C6.6019 5.41145 6.6059 5.57084 6.6059 7.50414V9.30497H5.76993C5.00596 9.30497 4.91797 9.30083 4.76797 9.26978C4.53198 9.21803 4.28799 9.07935 4.124 8.90133C3.994 8.75851 3.998 8.75023 4.006 9.18284C4.016 9.54094 4.02 9.58027 4.07 9.77484C4.14999 10.0833 4.25999 10.313 4.42598 10.5179C4.65198 10.7994 4.88197 10.9568 5.20995 11.0623C5.27995 11.083 5.42795 11.0913 5.95193 11.0954L6.6059 11.1058V12.0021V12.9004L5.68394 12.8942L4.75797 12.888L4.59798 12.8218C4.40798 12.7431 4.32199 12.6851 4.13599 12.5133L4 12.3871L4.008 12.7824C4.018 13.1488 4.02 13.1902 4.07 13.3765C4.24399 14.0347 4.66398 14.5046 5.21795 14.6578C5.35595 14.6971 5.40995 14.6992 5.98793 14.7075L6.6059 14.7157V16.5704C6.6059 17.6902 6.5999 18.5161 6.5899 18.6569C6.5799 18.7852 6.5479 19.0253 6.51991 19.193C6.38991 19.965 6.15592 20.5467 5.81993 20.9234L5.75193 21H9.13381C11.1557 21 12.6677 20.9917 12.8897 20.9814C13.2797 20.9607 14.1496 20.8717 14.3456 20.8282C14.4076 20.8158 14.5236 20.7971 14.5996 20.7847C14.7616 20.7599 15.0296 20.7019 15.4156 20.6005C15.9596 20.4598 16.4555 20.2838 16.9415 20.0603C17.0935 19.9899 17.5295 19.7601 17.6455 19.6877C17.7075 19.6504 17.7815 19.6049 17.8095 19.5904C17.8875 19.5469 18.0175 19.46 18.2075 19.3192C18.3015 19.2489 18.3955 19.1805 18.4155 19.1661C18.4995 19.1081 18.7894 18.8576 18.9214 18.7314C19.4234 18.2532 19.8434 17.7213 20.1694 17.152C20.2154 17.0692 20.2754 16.9657 20.3014 16.9223C20.3674 16.8063 20.6394 16.2268 20.6654 16.1398C20.6774 16.1005 20.6934 16.0591 20.7014 16.0508C20.7534 15.9805 21.0534 15.0035 21.0894 14.7902C21.1014 14.7219 21.1074 14.7116 21.1574 14.7012C21.1894 14.695 21.6553 14.695 22.1933 14.6992C23.2693 14.7075 23.2693 14.7075 23.5073 14.8213C23.6413 14.8855 23.6813 14.9144 23.8293 15.0531C24.0233 15.2332 24.0053 15.2622 23.9933 14.8109C23.9853 14.546 23.9753 14.3825 23.9573 14.3162C23.8893 14.0616 23.8733 14.0078 23.8133 13.8795C23.6173 13.4365 23.2893 13.1198 22.8693 12.9687L22.7053 12.9066L22.0373 12.8983L21.3714 12.888L21.3794 12.6458C21.3874 12.327 21.3874 11.6957 21.3774 11.3707L21.3694 11.1099L22.2613 11.1058C23.0253 11.1017 23.1673 11.1058 23.2513 11.1286C23.5033 11.201 23.6733 11.3004 23.8813 11.497L23.9973 11.6088V11.3024C23.9973 10.9381 23.9793 10.7767 23.9073 10.5366C23.7653 10.0501 23.4853 9.6879 23.0853 9.46435C22.8253 9.31946 22.8093 9.31532 21.9153 9.30911C21.3913 9.30497 21.1174 9.29669 21.1034 9.28427C21.0914 9.27185 21.0814 9.25115 21.0814 9.23459C21.0814 9.21803 21.0514 9.08763 21.0114 8.94687C20.5434 7.23505 19.6694 5.87512 18.3915 4.86707C18.2175 4.72838 17.7915 4.43652 17.6195 4.33717C17.5535 4.29784 17.4815 4.25644 17.4635 4.24402C17.3795 4.19641 16.8975 3.95216 16.7775 3.90041C16.7055 3.8673 16.6115 3.8259 16.5695 3.80934C15.8636 3.49264 14.6796 3.1925 13.7756 3.09936C13.6276 3.08487 13.4316 3.0621 13.3417 3.05382C12.9337 3.00621 12.3677 3 9.15381 3C6.43791 3 5.75593 3.00621 5.76593 3.0207ZM12.3797 3.91697C13.0557 3.95837 13.4716 4.01219 13.9576 4.13431C15.4416 4.49862 16.4855 5.26863 17.2435 6.55612C17.3135 6.67617 17.6095 7.30129 17.6535 7.42755C17.8635 8.01334 17.9655 8.36109 18.0555 8.82061C18.0775 8.93238 18.1075 9.08142 18.1215 9.15179C18.1355 9.2201 18.1415 9.28427 18.1355 9.29048C18.1255 9.29876 16.1175 9.3029 13.6696 9.30083L9.2198 9.29669L9.21381 6.63684C9.21181 5.17548 9.21381 3.96044 9.2198 3.93767L9.2278 3.89834H10.6498C11.4297 3.89834 12.2097 3.90662 12.3797 3.91697ZM18.3295 11.1679C18.3435 11.2569 18.3435 12.7679 18.3295 12.8425L18.3175 12.8983L13.7676 12.8942L9.2198 12.888L9.21581 12.0104C9.2118 11.5281 9.21581 11.1265 9.2198 11.1182C9.2258 11.1079 11.1637 11.1017 13.7736 11.1017H18.3175L18.3295 11.1679ZM18.1255 14.7219C18.1355 14.753 18.0875 15.0076 17.9895 15.4216C17.8775 15.8873 17.7255 16.3572 17.5715 16.7049C17.4955 16.8829 17.3055 17.2679 17.2595 17.3404C17.2375 17.3735 17.1735 17.4791 17.1175 17.5722C16.7575 18.1559 16.2435 18.6879 15.6576 19.0812C15.4436 19.2219 15.0036 19.4621 14.8856 19.4993C14.8616 19.5055 14.8356 19.5179 14.8256 19.5262C14.8116 19.5386 14.6296 19.609 14.4176 19.6877C14.0276 19.8305 13.2857 19.9857 12.6897 20.0499C12.3037 20.0892 12.2417 20.0913 10.7557 20.0913H9.2178V17.4066V14.7199L13.6356 14.7116C16.0655 14.7075 18.0675 14.7012 18.0835 14.6971C18.1015 14.695 18.1195 14.7075 18.1255 14.7219Z" fill="currentColor" />
</svg>