<svg xmlns="http://www.w3.org/2000/svg" width="24" height="24" viewBox="0 0 24 24" fill="none">
<path d="M14.3281 1.25C15.4286 1.25 15.9792 1.24974 16.4971 1.37402C16.9562 1.48425 17.3952 1.66638 17.7979 1.91309C18.252 2.19137 18.6416 2.58012 19.4199 3.3584L20.6416 4.58008C21.4199 5.35836 21.8086 5.74802 22.0869 6.20215C22.3336 6.60475 22.5157 7.0438 22.626 7.50293C22.7503 8.02076 22.75 8.57136 22.75 9.67188V15.5498C22.75 18.07 22.7502 19.3304 22.2598 20.293C21.8283 21.1397 21.1397 21.8283 20.293 22.2598C19.3304 22.7502 18.07 22.75 15.5498 22.75H8.4502C5.93004 22.75 4.66962 22.7502 3.70703 22.2598C2.8603 21.8283 2.17166 21.1397 1.74023 20.293C1.24981 19.3304 1.25 18.07 1.25 15.5498V8.4502C1.25 5.93004 1.24981 4.66962 1.74023 3.70703C2.17166 2.8603 2.8603 2.17166 3.70703 1.74023C4.66962 1.24981 5.93003 1.25 8.4502 1.25H14.3281ZM11.2002 13C10.0801 13 9.51962 12.9998 9.0918 13.2178C8.71554 13.4095 8.40951 13.7155 8.21777 14.0918C7.99979 14.5196 8 15.0801 8 16.2002V18.5996C8 19.4393 7.99981 19.8598 8.16309 20.1807C8.3069 20.4629 8.53709 20.6931 8.81934 20.8369C9.14015 21.0002 9.56068 21 10.4004 21H13.5996C14.4393 21 14.8598 21.0002 15.1807 20.8369C15.4629 20.6931 15.6931 20.4629 15.8369 20.1807C16.0002 19.8598 16 19.4393 16 18.5996V16.2002C16 15.0801 16.0002 14.5196 15.7822 14.0918C15.5905 13.7155 15.2845 13.4095 14.9082 13.2178C14.4804 12.9998 13.9199 13 12.7998 13H11.2002ZM8.75 7.25C8.33579 7.25 8 7.58579 8 8C8 8.41421 8.33579 8.75 8.75 8.75H15.25C15.6642 8.75 16 8.41421 16 8C16 7.58579 15.6642 7.25 15.25 7.25H8.75Z" fill="currentColor" />
</svg>