<svg xmlns="http://www.w3.org/2000/svg" width="24" height="24" viewBox="0 0 24 24" fill="none">
<path opacity={0.32} d="M8.85 6.25C6.88982 6.25 5.90972 6.25 5.16103 6.63148C4.50247 6.96703 3.96703 7.50247 3.63148 8.16103C3.25 8.90972 3.25 9.88982 3.25 11.85V12.15C3.25 14.1102 3.25 15.0903 3.63148 15.839C3.96703 16.4975 4.50247 17.033 5.16103 17.3685C5.90972 17.75 6.88982 17.75 8.85 17.75H15.15C17.1102 17.75 18.0903 17.75 18.839 17.3685C19.4975 17.033 20.033 16.4975 20.3685 15.839C20.75 15.0903 20.75 14.1102 20.75 12.15V11.85C20.75 9.88982 20.75 8.90972 20.3685 8.16103C20.033 7.50247 19.4975 6.96703 18.839 6.63148C18.0903 6.25 17.1102 6.25 15.15 6.25H8.85Z" fill="currentColor" /><path d="M21 21.25C21.4142 21.25 21.75 21.5858 21.75 22C21.75 22.4142 21.4142 22.75 21 22.75H3C2.58579 22.75 2.25 22.4142 2.25 22C2.25 21.5858 2.58579 21.25 3 21.25H21ZM21 1.25C21.4142 1.25 21.75 1.58579 21.75 2C21.75 2.41421 21.4142 2.75 21 2.75H3C2.58579 2.75 2.25 2.41421 2.25 2C2.25 1.58579 2.58579 1.25 3 1.25H21Z" fill="currentColor" />
</svg>