<svg xmlns="http://www.w3.org/2000/svg" width="24" height="24" viewBox="0 0 24 24" fill="none">
<path d="M2 2.25C2.41421 2.25 2.75 2.58579 2.75 3V21C2.75 21.4142 2.41421 21.75 2 21.75C1.58579 21.75 1.25 21.4142 1.25 21V3C1.25 2.58579 1.58579 2.25 2 2.25ZM22 2.25C22.4142 2.25 22.75 2.58579 22.75 3V21C22.75 21.4142 22.4142 21.75 22 21.75C21.5858 21.75 21.25 21.4142 21.25 21V3C21.25 2.58579 21.5858 2.25 22 2.25ZM12.1504 3.25C14.1103 3.25 15.0902 3.25038 15.8389 3.63184C16.4974 3.96738 17.0326 4.50262 17.3682 5.16113C17.7496 5.90977 17.75 6.88969 17.75 8.84961V15.1504C17.75 17.1103 17.7496 18.0902 17.3682 18.8389C17.0326 19.4974 16.4974 20.0326 15.8389 20.3682C15.0902 20.7496 14.1103 20.75 12.1504 20.75H11.8496C9.88969 20.75 8.90977 20.7496 8.16113 20.3682C7.50262 20.0326 6.96738 19.4974 6.63184 18.8389C6.25038 18.0902 6.25 17.1103 6.25 15.1504V8.84961C6.25 6.88969 6.25038 5.90977 6.63184 5.16113C6.96738 4.50262 7.50262 3.96738 8.16113 3.63184C8.90977 3.25038 9.88969 3.25 11.8496 3.25H12.1504Z" fill="currentColor" />
</svg>