<svg xmlns="http://www.w3.org/2000/svg" width="24" height="24" viewBox="0 0 24 24" fill="none">
<path d="M21 21.25C21.4142 21.2501 21.75 21.5858 21.75 22C21.75 22.4142 21.4142 22.7499 21 22.75H3C2.58579 22.75 2.25 22.4142 2.25 22C2.25 21.5858 2.58579 21.25 3 21.25H21ZM15.1494 6.25C17.1096 6.25 18.0902 6.25036 18.8389 6.63184C19.4974 6.9674 20.0326 7.50263 20.3682 8.16113C20.7496 8.90977 20.75 9.88969 20.75 11.8496V12.1504C20.75 14.1103 20.7496 15.0902 20.3682 15.8389C20.0326 16.4974 19.4974 17.0326 18.8389 17.3682C18.0902 17.7496 17.1096 17.75 15.1494 17.75H8.84961C6.88963 17.75 5.90979 17.7496 5.16113 17.3682C4.5026 17.0326 3.9674 16.4974 3.63184 15.8389C3.25038 15.0902 3.25 14.1103 3.25 12.1504V11.8496C3.25 9.88969 3.25038 8.90977 3.63184 8.16113C3.9674 7.50262 4.5026 6.96737 5.16113 6.63184C5.90979 6.25039 6.88963 6.25 8.84961 6.25H15.1494ZM21 1.25C21.4142 1.25007 21.75 1.58583 21.75 2C21.75 2.41417 21.4142 2.74993 21 2.75H3C2.58579 2.75 2.25 2.41421 2.25 2C2.25 1.58579 2.58579 1.25 3 1.25H21Z" fill="currentColor" />
</svg>