<svg xmlns="http://www.w3.org/2000/svg" width="24" height="24" viewBox="0 0 24 24" fill="none">
<path d="M12 1.25C17.9371 1.25 22.75 6.06294 22.75 12C22.75 17.9371 17.9371 22.75 12 22.75C6.06294 22.75 1.25 17.9371 1.25 12C1.25 6.06294 6.06294 1.25 12 1.25ZM12 5.75C11.5858 5.75 11.25 6.08579 11.25 6.5V7.25H10.7432C9.36629 7.25014 8.25014 8.36629 8.25 9.74316C8.25 10.8164 8.93692 11.769 9.95508 12.1084L11.25 12.54V15.25H11C10.3096 15.25 9.75 14.6904 9.75 14C9.75 13.5858 9.41416 13.2501 9 13.25C8.58579 13.25 8.25 13.5858 8.25 14C8.25 15.5188 9.48122 16.75 11 16.75H11.25V17.5C11.25 17.9142 11.5858 18.25 12 18.25C12.4142 18.2499 12.75 17.9142 12.75 17.5V16.75H13.2568C14.6337 16.7498 15.7499 15.6337 15.75 14.2568C15.75 13.1836 15.063 12.231 14.0449 11.8916L12.75 11.459V8.75H13C13.6903 8.75007 14.25 9.30968 14.25 10C14.25 10.4142 14.5858 10.75 15 10.75C15.4142 10.7499 15.75 10.4142 15.75 10C15.75 8.48126 14.5187 7.25007 13 7.25H12.75V6.5C12.75 6.08583 12.4142 5.75007 12 5.75ZM13.5703 13.3145C13.9759 13.4497 14.25 13.8293 14.25 14.2568C14.2499 14.8052 13.8052 15.2498 13.2568 15.25H12.75V13.04L13.5703 13.3145ZM11.25 8.75V10.959L10.4297 10.6855C10.024 10.5503 9.75 10.1708 9.75 9.74316C9.75014 9.19472 10.1947 8.75014 10.7432 8.75H11.25Z" fill="currentColor" />
</svg>