<svg xmlns="http://www.w3.org/2000/svg" width="24" height="24" viewBox="0 0 24 24" fill="none">
<path d="M14.0127 14.0312C14.9587 16.5963 15.7044 19.2191 16.25 21.875C14.9462 22.4369 13.5099 22.75 12 22.75C9.29698 22.75 6.82932 21.7497 4.94043 20.1025C7.2712 17.175 10.4559 15.0601 14.0127 14.0312ZM15.4805 13.6748C17.6438 13.2421 19.9137 13.2018 22.1895 13.6133L22.6143 13.6982C22.1137 16.8518 20.2429 19.5473 17.6299 21.1572C17.0898 18.626 16.3754 16.1249 15.4805 13.6748ZM12.3486 10.0244C12.7468 10.8843 13.1209 11.7525 13.4717 12.6279C9.72287 13.7397 6.36067 15.9643 3.87305 19.0322C2.24026 17.1469 1.25 14.6898 1.25 12C1.25 11.8725 1.25439 11.7456 1.25879 11.6191C5.00104 11.9684 8.80969 11.4386 12.3486 10.0244ZM20.1201 4.96094C21.7567 6.8472 22.75 9.30669 22.75 12C22.75 12.0653 22.7463 12.1303 22.7451 12.1953L22.4561 12.1377C19.9026 11.6759 17.3559 11.7372 14.9375 12.2539C14.5601 11.3023 14.1563 10.3587 13.7246 9.4248C16.0297 8.32919 18.1941 6.84106 20.1201 4.96094ZM8.18164 2.6123C9.49446 4.56953 10.6664 6.59296 11.6982 8.66797C8.41468 9.96303 4.8865 10.448 1.41602 10.127C2.05485 6.49225 4.51621 3.48559 7.82617 2.08984L8.18164 2.6123ZM12 1.25C14.7038 1.25 17.1724 2.25048 19.0615 3.89844C17.2588 5.65573 15.2329 7.04663 13.0762 8.07129C12.0073 5.91414 10.7917 3.81085 9.42773 1.77734L9.30078 1.5918C10.1633 1.36876 11.0678 1.25 12 1.25Z" fill="currentColor" />
</svg>