<svg xmlns="http://www.w3.org/2000/svg" width="24" height="24" viewBox="0 0 24 24" fill="none">
<path d="M1.46967 1.46967C1.76256 1.17678 2.23732 1.17678 2.53022 1.46967L7.29194 6.23139L19.1747 18.1132L22.5302 21.4697L22.582 21.5263C22.8223 21.8209 22.8048 22.2556 22.5302 22.5302C22.2556 22.8048 21.8209 22.8223 21.5263 22.582L21.4697 22.5302L18.7177 19.7792C16.4905 22.3913 12.8465 23.2589 9.69037 22.4658C6.20566 21.5899 3.24994 18.6811 3.24994 13.8515C3.25002 11.143 4.38106 8.75245 5.77143 6.83197L1.46967 2.53022C1.17678 2.23732 1.17678 1.76256 1.46967 1.46967ZM11.9999 1.69819C12.2315 1.6982 12.4974 1.72003 12.7275 1.78315C13.2899 1.93747 13.6308 2.21876 14.0663 2.56342C15.2649 3.51194 16.9227 5.00467 18.2861 6.9101C19.6484 8.81402 20.7499 11.1781 20.7499 13.8515C20.7499 14.2755 20.727 14.6863 20.6826 15.083C20.6365 15.4946 20.2651 15.7911 19.8535 15.7451C19.4422 15.6988 19.1465 15.3283 19.1923 14.9169C19.2303 14.5774 19.2499 14.2218 19.2499 13.8515C19.2499 11.5973 18.319 9.53514 17.0654 7.78315C15.8128 6.03269 14.2709 4.63935 13.1347 3.74018C12.6651 3.36852 12.5529 3.29155 12.33 3.23041C12.2745 3.21524 12.1543 3.1982 11.9999 3.19819C11.8452 3.19819 11.7243 3.21521 11.6689 3.23041C11.4462 3.29155 11.3331 3.36841 10.8622 3.74115C10.5609 3.97968 10.2301 4.25414 9.88276 4.56147C9.57257 4.83591 9.09865 4.80713 8.82416 4.49701C8.54973 4.18684 8.57852 3.71291 8.88862 3.43842C9.25848 3.11117 9.61088 2.81924 9.93158 2.56537C10.3678 2.22005 10.709 1.93758 11.2714 1.78315C11.5016 1.71997 11.7683 1.6982 11.9999 1.69819Z" fill="currentColor" />
</svg>