<svg xmlns="http://www.w3.org/2000/svg" width="24" height="24" viewBox="0 0 24 24" fill="none">
<path d="M13.2228 1.76452C14.2799 0.987303 15.7193 0.987393 16.7765 1.76452C16.9598 1.89933 17.1504 2.08964 17.5304 2.4696L18.8234 3.76257L19.7931 2.79284C20.1836 2.40232 20.8166 2.40232 21.2071 2.79284C21.5973 3.18339 21.5976 3.81649 21.2071 4.2069L20.2374 5.17663L21.5304 6.4696C21.91 6.84922 22.0997 7.03927 22.2345 7.22253C23.0117 8.27972 23.0117 9.71904 22.2345 10.7762C22.0997 10.9596 21.9103 11.1502 21.5304 11.5301C21.1504 11.9101 20.9598 12.0994 20.7765 12.2342C19.7193 13.0115 18.28 13.0115 17.2228 12.2342C17.0395 12.0995 16.8495 11.9098 16.4698 11.5301L15.1769 10.2372L10.2374 15.1766L11.5304 16.4696C11.91 16.8492 12.0997 17.0393 12.2345 17.2225C13.0117 18.2797 13.0117 19.719 12.2345 20.7762C12.0997 20.9596 11.9103 21.1502 11.5304 21.5301C11.1504 21.9101 10.9598 22.0994 10.7765 22.2342C9.71929 23.0115 8.27996 23.0115 7.22277 22.2342C7.03951 22.0995 6.84947 21.9098 6.46984 21.5301L5.17687 20.2372L4.20715 21.2069C3.81674 21.5973 3.18364 21.5971 2.79308 21.2069C2.40256 20.8164 2.40256 20.1834 2.79308 19.7928L3.76281 18.8231L2.46984 17.5301C2.08989 17.1502 1.89957 16.9596 1.76476 16.7762C0.987637 15.7191 0.987547 14.2797 1.76476 13.2225C1.89957 13.0392 2.08989 12.8495 2.46984 12.4696C2.84979 12.0896 3.03941 11.8993 3.22277 11.7645C4.27991 10.9873 5.7193 10.9874 6.77648 11.7645C6.95984 11.8993 7.15043 12.0896 7.53039 12.4696L8.82336 13.7626L13.7628 8.82311L12.4698 7.53014C12.0899 7.15019 11.8996 6.9596 11.7648 6.77624C10.9876 5.71905 10.9875 4.27967 11.7648 3.22253C11.8996 3.03917 12.0899 2.84955 12.4698 2.4696C12.8498 2.08965 13.0394 1.89933 13.2228 1.76452Z" fill="currentColor" />
</svg>