<svg xmlns="http://www.w3.org/2000/svg" width="24" height="24" viewBox="0 0 24 24" fill="none">
<path d="M3.46963 2.4695C3.74424 2.1949 4.17896 2.17743 4.47354 2.41774L4.53018 2.4695L21.5302 19.4695L21.5819 19.5261C21.8221 19.8207 21.8047 20.2555 21.5302 20.53C21.2556 20.8045 20.8208 20.822 20.5263 20.5818L20.4696 20.53L14.4999 14.5603L10.9003 18.1599C10.4094 18.6508 10.102 18.9617 9.74502 19.2107C9.43929 19.4239 9.10959 19.601 8.7626 19.7371C8.35741 19.896 7.92782 19.9788 7.24698 20.115L4.14737 20.7351C3.90153 20.7843 3.64694 20.7073 3.46963 20.53C3.29236 20.3528 3.21545 20.0982 3.26456 19.8523L3.88467 16.7527C4.02083 16.0719 4.10371 15.6422 4.2626 15.2371C4.39872 14.8901 4.57577 14.5604 4.78897 14.2547C5.03794 13.8977 5.34885 13.5903 5.83975 13.0994L9.43936 9.49977L3.46963 3.53005C3.17676 3.23718 3.17681 2.7624 3.46963 2.4695ZM16.7792 2.36403C17.5486 1.98288 18.4523 1.98277 19.2216 2.36403C19.6535 2.57823 20.028 2.96728 20.5302 3.4695C21.0325 3.97184 21.4215 4.34696 21.6356 4.77907C22.0166 5.54825 22.0167 6.45133 21.6356 7.22048C21.4215 7.65256 21.0325 8.0277 20.5302 8.53005L17.5302 11.53C17.2373 11.8228 16.7625 11.8228 16.4696 11.53C16.1768 11.2372 16.1768 10.7624 16.4696 10.4695L17.4491 9.48903C16.0734 9.01388 14.9845 7.92545 14.5097 6.54958L13.5302 7.53005C13.2373 7.82282 12.7625 7.82279 12.4696 7.53005C12.1768 7.23717 12.1768 6.76238 12.4696 6.4695L15.4696 3.4695C15.972 2.9671 16.3471 2.57819 16.7792 2.36403ZM18.5546 3.70778C18.2051 3.53479 17.7947 3.53474 17.4452 3.70778C17.2892 3.78509 17.1182 3.94205 16.5302 4.53005L15.7636 5.29567C15.9043 6.85399 17.1448 8.09397 18.703 8.23512L19.4696 7.4695C20.0575 6.88165 20.2146 6.71042 20.2919 6.55446C20.4649 6.20503 20.4648 5.79454 20.2919 5.44509C20.2146 5.2891 20.0575 5.11798 19.4696 4.53005C18.8818 3.9422 18.7106 3.78511 18.5546 3.70778Z" fill="currentColor" />
</svg>