<svg xmlns="http://www.w3.org/2000/svg" width="24" height="24" viewBox="0 0 24 24" fill="none">
<path d="M20 20.2502C20.4142 20.2502 20.75 20.586 20.75 21.0002C20.75 21.4144 20.4142 21.7502 20 21.7502H4C3.58579 21.7502 3.25 21.4144 3.25 21.0002C3.25003 20.586 3.58581 20.2502 4 20.2502H20ZM16.1504 2.79417C17.1993 1.84076 18.8007 1.84073 19.8496 2.79417C19.9014 2.84123 19.9568 2.8965 20.0303 2.96995C20.1038 3.04345 20.16 3.09883 20.207 3.15062C21.1601 4.1995 21.1594 5.80107 20.2061 6.84983C20.159 6.90158 20.1037 6.95708 20.0303 7.0305L12.7842 14.2766C12.3343 14.7265 12.0522 15.0119 11.7275 15.2453C11.4494 15.4453 11.1505 15.6146 10.8359 15.7502C10.4687 15.9086 10.0792 16.0031 9.46191 16.1575L7.18164 16.7278C6.92613 16.7916 6.65596 16.7167 6.46973 16.5305C6.28352 16.3443 6.20867 16.0741 6.27246 15.8186L6.84277 13.5383C6.99708 12.9211 7.09167 12.5315 7.25 12.1643C7.38563 11.8498 7.55496 11.5508 7.75488 11.2727C7.98829 10.948 8.27375 10.6659 8.72363 10.216L15.9697 2.96995C16.0431 2.89654 16.0987 2.84121 16.1504 2.79417Z" fill="currentColor" />
</svg>