<svg xmlns="http://www.w3.org/2000/svg" width="24" height="24" viewBox="0 0 24 24" fill="none">
<path d="M16 11L15.5 11.5C15.1728 11.8272 14.7629 12.0593 14.314 12.1715L11 13L11.5701 10.7198C11.7301 10.0797 11.8101 9.7596 11.9388 9.46119C12.053 9.19626 12.1956 8.94448 12.364 8.71022C12.5536 8.44636 12.7869 8.21308 13.2535 7.74651L17.5 3.5C17.5797 3.42035 17.6195 3.38052 17.6547 3.34847C18.4176 2.65508 19.5824 2.65508 20.3453 3.34847C20.3805 3.38052 20.4203 3.42035 20.5 3.5C20.5797 3.57965 20.6195 3.61948 20.6515 3.65474C21.3449 4.41756 21.3449 5.58244 20.6515 6.34526C20.6195 6.38052 20.5797 6.42035 20.5 6.5L18.5 8.5M22 12V12.5V14C22 16.8003 22 18.2004 21.455 19.27C20.9757 20.2108 20.2108 20.9757 19.27 21.455C18.2004 22 16.8003 22 14 22H9.5C7.17029 22 6.00544 22 5.08658 21.6194C3.86144 21.1119 2.88807 20.1386 2.3806 18.9134C2 17.9946 2 16.8297 2 14.5V14M12 2H11.5H9.5C7.17029 2 6.00544 2 5.08658 2.3806C3.86144 2.88807 2.88807 3.86144 2.3806 5.08658C2 6.00544 2 7.17029 2 9.5V10M17 4C16.75 5.75 18.25 7.25 20 7" stroke="currentColor" stroke-width={1.5} stroke-linecap="round" stroke-linejoin="round" />
</svg>