<svg xmlns="http://www.w3.org/2000/svg" width="24" height="24" viewBox="0 0 24 24" fill="none">
<path d="M14.75 1.25C17.55 1.25 18.95 1.25013 20.0195 1.79492C20.9603 2.27429 21.7257 3.03966 22.2051 3.98047C22.7499 5.04998 22.75 6.45005 22.75 9.25V14.75C22.75 17.55 22.7499 18.95 22.2051 20.0195C21.7257 20.9603 20.9603 21.7257 20.0195 22.2051C18.95 22.7499 17.55 22.75 14.75 22.75H9.25C6.45005 22.75 5.04998 22.7499 3.98047 22.2051C3.03966 21.7257 2.27429 20.9603 1.79492 20.0195C1.25013 18.95 1.25 17.55 1.25 14.75V9.25C1.25 6.45005 1.25013 5.04998 1.79492 3.98047C2.27429 3.03966 3.03966 2.27429 3.98047 1.79492C5.04998 1.25013 6.45005 1.25 9.25 1.25H14.75ZM8.57617 11.3633C8.10972 11.8297 7.87618 12.0633 7.68652 12.3271C7.51825 12.5613 7.37589 12.8133 7.26172 13.0781C7.13314 13.3764 7.05251 13.6962 6.89258 14.3359L6.35742 16.4785C6.22943 16.9905 6.16548 17.2464 6.23535 17.4248C6.29634 17.5805 6.4195 17.7037 6.5752 17.7646C6.75361 17.8344 7.00965 17.7705 7.52148 17.6426L9.66406 17.1074C10.3038 16.9475 10.6236 16.8669 10.9219 16.7383C11.1867 16.6241 11.4387 16.4818 11.6729 16.3135C11.9367 16.1238 12.1703 15.8903 12.6367 15.4238L15.6406 12.4199C14.4869 12.1396 13.5646 11.6629 12.8662 10.9248C12.2207 10.2426 11.8135 9.38468 11.5693 8.36914L8.57617 11.3633ZM16.9053 6.84473C15.8527 5.79254 14.1462 5.79231 13.0938 6.84473C12.9468 6.9917 12.8748 7.19903 12.9072 7.4043C13.0878 8.54368 13.4289 9.33646 13.9561 9.89355C14.5006 10.4691 15.3224 10.874 16.6006 11.084C16.8063 11.1178 17.0147 11.0459 17.1621 10.8984C18.2106 9.84995 18.2105 8.1501 17.1621 7.10156L16.9053 6.84473Z" fill="currentColor" />
</svg>