<svg xmlns="http://www.w3.org/2000/svg" width="24" height="24" viewBox="0 0 24 24" fill="none">
<path d="M13.4808 5.74703C14.105 8.07628 15.924 9.89531 18.2533 10.5195C18.3295 10.5399 18.4075 10.5562 18.4867 10.5732L10.7396 18.3203C10.2304 18.8295 9.97602 19.0847 9.68591 19.2871C9.42856 19.4665 9.15082 19.6149 8.85876 19.7295C8.52955 19.8586 8.17599 19.9291 7.47009 20.0703L4.45641 20.6738C3.98429 20.7682 3.74783 20.8147 3.57946 20.7451C3.43228 20.6842 3.31516 20.5671 3.25427 20.4199C3.18487 20.2515 3.2322 20.0156 3.32653 19.5439L3.92907 16.5302C4.0703 15.8241 4.14077 15.4708 4.26989 15.1416C4.38454 14.8493 4.53365 14.571 4.71325 14.3134C4.91554 14.0235 5.17006 13.7687 5.67907 13.2597L13.4261 5.51168C13.4432 5.59157 13.4602 5.67012 13.4808 5.74703ZM17.3822 1.86519C17.7838 1.73474 18.2169 1.73469 18.6185 1.86519C19.0751 2.01364 19.4712 2.4102 20.2631 3.20211L20.7982 3.73726C21.5901 4.52914 21.9858 4.92519 22.1341 5.3818C22.2647 5.78348 22.2647 6.21644 22.1341 6.61812C21.9857 7.07462 21.59 7.47087 20.7982 8.26266L19.8353 9.22457C19.3209 9.20129 18.9613 9.15675 18.642 9.07125C16.8302 8.5858 15.4145 7.17009 14.9291 5.35836C14.8435 5.03881 14.798 4.67902 14.7748 4.16402L15.7377 3.20211C16.5297 2.41009 16.9255 2.01357 17.3822 1.86519Z" fill="currentColor" />
</svg>