<svg xmlns="http://www.w3.org/2000/svg" width="24" height="24" viewBox="0 0 24 24" fill="none">
<path d="M6.75 13.25C8.14998 13.25 8.85001 13.2501 9.38477 13.5225C9.85517 13.7621 10.2379 14.1448 10.4775 14.6152C10.7499 15.15 10.75 15.85 10.75 17.25V18.75C10.75 20.15 10.7499 20.85 10.4775 21.3848C10.2379 21.8552 9.85517 22.2379 9.38477 22.4775C8.85001 22.7499 8.14998 22.75 6.75 22.75H5.25C3.85002 22.75 3.14999 22.7499 2.61523 22.4775C2.14483 22.2379 1.76214 21.8552 1.52246 21.3848C1.25007 20.85 1.25 20.15 1.25 18.75V17.25C1.25 15.85 1.25007 15.15 1.52246 14.6152C1.76214 14.1448 2.14483 13.7621 2.61523 13.5225C3.14999 13.2501 3.85002 13.25 5.25 13.25H6.75ZM18.75 13.25C20.15 13.25 20.85 13.2501 21.3848 13.5225C21.8552 13.7621 22.2379 14.1448 22.4775 14.6152C22.7499 15.15 22.75 15.85 22.75 17.25V18.75C22.75 20.15 22.7499 20.85 22.4775 21.3848C22.2379 21.8552 21.8552 22.2379 21.3848 22.4775C20.85 22.7499 20.15 22.75 18.75 22.75H17.25C15.85 22.75 15.15 22.7499 14.6152 22.4775C14.1448 22.2379 13.7621 21.8552 13.5225 21.3848C13.2501 20.85 13.25 20.15 13.25 18.75V17.25C13.25 15.85 13.2501 15.15 13.5225 14.6152C13.7621 14.1448 14.1448 13.7621 14.6152 13.5225C15.15 13.2501 15.85 13.25 17.25 13.25H18.75ZM6.75 1.25C8.14998 1.25 8.85001 1.25007 9.38477 1.52246C9.85517 1.76214 10.2379 2.14483 10.4775 2.61523C10.7499 3.14999 10.75 3.85002 10.75 5.25V6.75C10.75 8.14998 10.7499 8.85001 10.4775 9.38477C10.2379 9.85517 9.85517 10.2379 9.38477 10.4775C8.85001 10.7499 8.14998 10.75 6.75 10.75H5.25C3.85002 10.75 3.14999 10.7499 2.61523 10.4775C2.14483 10.2379 1.76214 9.85517 1.52246 9.38477C1.25007 8.85001 1.25 8.14998 1.25 6.75V5.25C1.25 3.85002 1.25007 3.14999 1.52246 2.61523C1.76214 2.14483 2.14483 1.76214 2.61523 1.52246C3.14999 1.25007 3.85002 1.25 5.25 1.25H6.75ZM18 1.25C18.4142 1.25 18.75 1.58579 18.75 2V5.25H22C22.4142 5.25 22.75 5.58579 22.75 6C22.75 6.41421 22.4142 6.75 22 6.75H18.75V10C18.75 10.4142 18.4142 10.75 18 10.75C17.5858 10.75 17.25 10.4142 17.25 10V6.75H14C13.5858 6.75 13.25 6.41421 13.25 6C13.25 5.58579 13.5858 5.25 14 5.25H17.25V2C17.25 1.58579 17.5858 1.25 18 1.25Z" fill="currentColor" />
</svg>