<svg xmlns="http://www.w3.org/2000/svg" width="24" height="24" viewBox="0 0 24 24" fill="none">
<g opacity={0.32}><path d="M5.25 1.25C3.84987 1.25 3.1498 1.25 2.61502 1.52248C2.14462 1.76217 1.76217 2.14462 1.52248 2.61502C1.25 3.1498 1.25 3.84987 1.25 5.25V6.75C1.25 8.15013 1.25 8.8502 1.52248 9.38498C1.76217 9.85538 2.14462 10.2378 2.61502 10.4775C3.1498 10.75 3.84987 10.75 5.25 10.75H6.75C8.15013 10.75 8.8502 10.75 9.38498 10.4775C9.85538 10.2378 10.2378 9.85538 10.4775 9.38498C10.75 8.8502 10.75 8.15013 10.75 6.75V5.25C10.75 3.84987 10.75 3.1498 10.4775 2.61502C10.2378 2.14462 9.85538 1.76217 9.38498 1.52248C8.8502 1.25 8.15013 1.25 6.75 1.25H5.25Z" fill="currentColor" /><path d="M17.25 13.25C15.8499 13.25 15.1498 13.25 14.615 13.5225C14.1446 13.7622 13.7622 14.1446 13.5225 14.615C13.25 15.1498 13.25 15.8499 13.25 17.25V18.75C13.25 20.1501 13.25 20.8502 13.5225 21.385C13.7622 21.8554 14.1446 22.2378 14.615 22.4775C15.1498 22.75 15.8499 22.75 17.25 22.75H18.75C20.1501 22.75 20.8502 22.75 21.385 22.4775C21.8554 22.2378 22.2378 21.8554 22.4775 21.385C22.75 20.8502 22.75 20.1501 22.75 18.75V17.25C22.75 15.8499 22.75 15.1498 22.4775 14.615C22.2378 14.1446 21.8554 13.7622 21.385 13.5225C20.8502 13.25 20.1501 13.25 18.75 13.25H17.25Z" fill="currentColor" /></g><path d="M6.75 13.25C8.14998 13.25 8.85001 13.2501 9.38477 13.5225C9.85517 13.7621 10.2379 14.1448 10.4775 14.6152C10.7499 15.15 10.75 15.85 10.75 17.25V18.75C10.75 20.15 10.7499 20.85 10.4775 21.3848C10.2379 21.8552 9.85517 22.2379 9.38477 22.4775C8.85001 22.7499 8.14998 22.75 6.75 22.75H5.25C3.85002 22.75 3.14999 22.7499 2.61523 22.4775C2.14483 22.2379 1.76214 21.8552 1.52246 21.3848C1.25007 20.85 1.25 20.15 1.25 18.75V17.25C1.25 15.85 1.25007 15.15 1.52246 14.6152C1.76214 14.1448 2.14483 13.7621 2.61523 13.5225C3.14999 13.2501 3.85002 13.25 5.25 13.25H6.75ZM18 1.25C18.4142 1.25 18.75 1.58579 18.75 2V5.25H22C22.4142 5.25 22.75 5.58579 22.75 6C22.75 6.41421 22.4142 6.75 22 6.75H18.75V10C18.75 10.4142 18.4142 10.75 18 10.75C17.5858 10.75 17.25 10.4142 17.25 10V6.75H14C13.5858 6.75 13.25 6.41421 13.25 6C13.25 5.58579 13.5858 5.25 14 5.25H17.25V2C17.25 1.58579 17.5858 1.25 18 1.25Z" fill="currentColor" />
</svg>