<svg xmlns="http://www.w3.org/2000/svg" width="24" height="24" viewBox="0 0 24 24" fill="none">
<path d="M2 9V9.5C2 9.96466 2 10.197 2.03843 10.3902C2.19624 11.1836 2.81644 11.8038 3.60982 11.9616C3.80302 12 4.03534 12 4.5 12H6.8C7.92011 12 8.48016 12 8.90798 11.782C9.28431 11.5903 9.59027 11.2843 9.78201 10.908C10 10.4802 10 9.92011 10 8.8V5.2C10 4.07989 10 3.51984 9.78201 3.09202C9.59027 2.71569 9.28431 2.40973 8.90798 2.21799C8.48016 2 7.92011 2 6.8 2H4.5C4.03534 2 3.80302 2 3.60982 2.03843C2.81644 2.19624 2.19624 2.81644 2.03843 3.60982C2 3.80302 2 4.03534 2 4.5V5M22 19V19.5C22 19.9647 22 20.197 21.9616 20.3902C21.8038 21.1836 21.1836 21.8038 20.3902 21.9616C20.197 22 19.9647 22 19.5 22H17.2C16.0799 22 15.5198 22 15.092 21.782C14.7157 21.5903 14.4097 21.2843 14.218 20.908C14 20.4802 14 19.9201 14 18.8V15.2C14 14.0799 14 13.5198 14.218 13.092C14.4097 12.7157 14.7157 12.4097 15.092 12.218C15.5198 12 16.0799 12 17.2 12H19.5C19.9647 12 20.197 12 20.3902 12.0384C21.1836 12.1962 21.8038 12.8164 21.9616 13.6098C22 13.803 22 14.0353 22 14.5V15M17 8H19C19.9319 8 20.3978 8 20.7654 7.84776C21.2554 7.64477 21.6448 7.25542 21.8478 6.76537C22 6.39782 22 5.93188 22 5C22 4.06812 22 3.60218 21.8478 3.23463C21.6448 2.74458 21.2554 2.35523 20.7654 2.15224C20.3978 2 19.9319 2 19 2H17C16.0681 2 15.6022 2 15.2346 2.15224C14.7446 2.35523 14.3552 2.74458 14.1522 3.23463C14 3.60218 14 4.06812 14 5C14 5.93188 14 6.39782 14.1522 6.76537C14.3552 7.25542 14.7446 7.64477 15.2346 7.84776C15.6022 8 16.0681 8 17 8ZM5 22H7C7.93188 22 8.39782 22 8.76537 21.8478C9.25542 21.6448 9.64477 21.2554 9.84776 20.7654C10 20.3978 10 19.9319 10 19C10 18.0681 10 17.6022 9.84776 17.2346C9.64477 16.7446 9.25542 16.3552 8.76537 16.1522C8.39782 16 7.93188 16 7 16H5C4.06812 16 3.60218 16 3.23463 16.1522C2.74458 16.3552 2.35523 16.7446 2.15224 17.2346C2 17.6022 2 18.0681 2 19C2 19.9319 2 20.3978 2.15224 20.7654C2.35523 21.2554 2.74458 21.6448 3.23463 21.8478C3.60218 22 4.06812 22 5 22Z" stroke="currentColor" stroke-width={1.5} stroke-linecap="round" stroke-linejoin="round" />
</svg>