<svg xmlns="http://www.w3.org/2000/svg" width="40" height="40" viewBox="0 0 40 40" fill="none">
<path d="M24.5835 3.75C29.2505 3.75 31.5841 3.74996 33.3667 4.6582C34.9346 5.45709 36.2093 6.73193 37.0083 8.2998C37.9166 10.0824 37.9165 12.4161 37.9165 17.083V22.917C37.9165 27.5839 37.9166 29.9176 37.0083 31.7002C36.2093 33.2681 34.9346 34.5429 33.3667 35.3418C31.5841 36.25 29.2505 36.25 24.5835 36.25H15.4165C10.7496 36.25 8.41586 36.2501 6.6333 35.3418C5.06543 34.5429 3.79062 33.2681 2.9917 31.7002C2.08344 29.9176 2.0835 27.5839 2.0835 22.917V17.083C2.0835 12.4161 2.08344 10.0824 2.9917 8.2998C3.79062 6.73194 5.06543 5.45712 6.6333 4.6582C8.41586 3.74995 10.7496 3.75 15.4165 3.75H24.5835ZM31.3872 12.4082C30.8766 11.6428 29.8414 11.4361 29.0757 11.9463L27.4097 13.0576C24.6372 14.9059 23.5345 15.6194 22.4048 15.96C20.837 16.4323 19.164 16.4323 17.5962 15.96C16.4664 15.6195 15.3641 14.9061 12.5913 13.0576L10.9253 11.9463L10.7788 11.8594C10.0323 11.464 9.09269 11.6905 8.61377 12.4082C8.13509 13.1262 8.287 14.081 8.93896 14.6182L9.07568 14.7197L10.7427 15.8311C13.3351 17.5593 14.9164 18.6335 16.6353 19.1514C18.8301 19.8126 21.1709 19.8126 23.3657 19.1514C25.0844 18.6335 26.6661 17.5592 29.2583 15.8311L30.9253 14.7197C31.6907 14.209 31.8977 13.1739 31.3872 12.4082Z" fill="currentColor" />
</svg>