<svg xmlns="http://www.w3.org/2000/svg" width="40" height="40" viewBox="0 0 40 40" fill="none">
<path d="M36.6666 15.8333V15C36.6666 13.4517 36.6666 12.6775 36.564 12.0297C35.9992 8.46394 33.2026 5.66736 29.6369 5.1026C28.9891 5 28.2149 5 26.6666 5H16.6666C11.9995 5 9.66593 5 7.88333 5.90828C6.31531 6.70722 5.04048 7.98206 4.24153 9.55008C3.33325 11.3327 3.33325 13.6662 3.33325 18.3333V21.6667C3.33325 26.3338 3.33325 28.6673 4.24153 30.4499C5.04048 32.0179 6.31531 33.2928 7.88333 34.0917C9.66593 35 11.9995 35 16.6666 35H26.6666C28.2149 35 28.9891 35 29.6369 34.8974C33.2026 34.3326 35.9992 31.5361 36.564 27.9703C36.6666 27.3225 36.6666 26.5483 36.6666 25V24.1667M29.9999 13.3333L28.3333 14.4444L27.3959 15.0693C24.7229 16.8513 23.3865 17.7423 21.9419 18.0885C20.6653 18.3944 19.3345 18.3944 18.0579 18.0885C16.6134 17.7423 15.2769 16.8513 12.6039 15.0693L11.6666 14.4444L9.99992 13.3333" stroke="currentColor" stroke-width={2.5} stroke-linecap="round" />
</svg>