<svg xmlns="http://www.w3.org/2000/svg" width="24" height="24" viewBox="0 0 24 24" fill="none">
<path d="M1 7V11.4C1 14.7603 1 16.4405 1.65396 17.7239C2.2292 18.8529 3.14708 19.7708 4.27606 20.346C5.55953 21 7.23969 21 10.6 21H16C17.6569 21 19 19.6569 19 18M18 6L17.1667 6.66667L16.998 6.80156C15.5712 7.94306 14.8577 8.51381 14.0665 8.73269C13.3686 8.92577 12.6314 8.92577 11.9335 8.73269C11.1423 8.51381 10.4288 7.94306 9.00195 6.80156L8.83333 6.66667L8 6M22 12V12.5C22 13.8956 22 14.5933 21.8278 15.1611C21.44 16.4395 20.4395 17.44 19.1611 17.8278C18.5933 18 17.8956 18 16.5 18H10.4C8.15979 18 7.03968 18 6.18404 17.564C5.43139 17.1805 4.81947 16.5686 4.43597 15.816C4 14.9603 4 13.8402 4 11.6V8.4C4 6.15979 4 5.03968 4.43597 4.18404C4.81947 3.43139 5.43139 2.81947 6.18404 2.43597C7.03968 2 8.15979 2 10.4 2H16.5C17.8956 2 18.5933 2 19.1611 2.17224C20.4395 2.56004 21.44 3.56046 21.8278 4.83886C22 5.40666 22 6.10444 22 7.5V8" stroke="currentColor" stroke-width={2} stroke-linecap="round" />
</svg>