<svg xmlns="http://www.w3.org/2000/svg" width="40" height="40" viewBox="0 0 40 40" fill="none">
<path d="M29.9999 13.3333L28.3333 14.4444L27.3959 15.0693C24.7229 16.8513 23.3865 17.7423 21.9419 18.0885C20.6653 18.3944 19.3345 18.3944 18.0579 18.0885C16.6134 17.7423 15.2769 16.8513 12.6039 15.0693L11.6666 14.4444L9.99992 13.3333M16.6666 35H23.3333C28.0004 35 30.3339 35 32.1165 34.0917C33.6845 33.2928 34.9594 32.0179 35.7583 30.4499C36.6666 28.6673 36.6666 26.3338 36.6666 21.6667V18.3333C36.6666 13.6662 36.6666 11.3327 35.7583 9.55008C34.9594 7.98206 33.6845 6.70722 32.1165 5.90828C30.3339 5 28.0004 5 23.3332 5H16.6666C11.9995 5 9.66593 5 7.88333 5.90828C6.31531 6.70722 5.04048 7.98206 4.24153 9.55008C3.33325 11.3327 3.33325 13.6662 3.33325 18.3333V21.6667C3.33325 26.3338 3.33325 28.6673 4.24153 30.4499C5.04048 32.0179 6.31531 33.2928 7.88333 34.0917C9.66593 35 11.9995 35 16.6666 35Z" stroke="currentColor" stroke-width={2.5} stroke-linecap="round" />
</svg>