<svg xmlns="http://www.w3.org/2000/svg" width="24" height="24" viewBox="0 0 24 24" fill="none">
<path d="M15.5498 1.25C18.07 1.25 19.3304 1.24981 20.293 1.74023C21.1397 2.17166 21.8283 2.8603 22.2598 3.70703C22.7502 4.66962 22.75 5.93003 22.75 8.4502V11.5498C22.75 14.07 22.7502 15.3304 22.2598 16.293C21.8283 17.1397 21.1397 17.8283 20.293 18.2598C20.1019 18.3571 19.8988 18.4336 19.6768 18.4961C19.6237 18.9349 19.5298 19.3312 19.3408 19.7021C18.9813 20.4078 18.4078 20.9813 17.7021 21.3408C17.2579 21.5671 16.7781 21.6624 16.2314 21.707C15.6936 21.751 15.0278 21.75 14.2002 21.75H10.5996C8.93202 21.75 7.63571 21.7508 6.59766 21.666C5.55103 21.5805 4.70049 21.4044 3.93555 21.0146C2.66545 20.3675 1.6325 19.3345 0.985352 18.0645C0.595624 17.2995 0.419528 16.449 0.333985 15.4023C0.249172 14.3643 0.25 13.068 0.25 11.4004V7C0.25 6.58579 0.585787 6.25 1 6.25C1.41421 6.25 1.75 6.58579 1.75 7V11.4004C1.75 13.0925 1.75047 14.3165 1.8291 15.2793C1.90706 16.2334 2.05814 16.8654 2.32227 17.3838C2.82556 18.3714 3.62859 19.1744 4.61621 19.6777C5.1346 19.9419 5.76657 20.0929 6.7207 20.1709C7.68345 20.2495 8.90753 20.25 10.5996 20.25H14.2002C15.0525 20.25 15.6468 20.2497 16.1094 20.2119C16.5632 20.1748 16.824 20.1055 17.0215 20.0049C17.4448 19.7892 17.7892 19.4448 18.0049 19.0215C18.0493 18.9343 18.0841 18.8339 18.1162 18.7109C17.4334 18.7465 16.6014 18.75 15.5498 18.75H10.4502C7.93003 18.75 6.66962 18.7502 5.70703 18.2598C4.8603 17.8283 4.17166 17.1397 3.74023 16.293C3.24981 15.3304 3.25 14.07 3.25 11.5498V8.4502C3.25 5.93003 3.24981 4.66962 3.74023 3.70703C4.17166 2.8603 4.8603 2.17166 5.70703 1.74023C6.66962 1.24981 7.93004 1.25 10.4502 1.25H15.5498ZM8.40625 5.36914C8.08695 5.16298 7.65661 5.22806 7.41406 5.53125C7.17147 5.83449 7.20229 6.26891 7.47363 6.53516L7.53125 6.58594L8.36523 7.25195L8.5332 7.3877C9.23796 7.9515 9.79782 8.39959 10.2812 8.73145C10.7725 9.06864 11.2268 9.31489 11.7334 9.45508C12.5622 9.68435 13.4378 9.68435 14.2666 9.45508C14.7732 9.31489 15.2275 9.06864 15.7188 8.73145C16.2022 8.39959 16.762 7.9515 17.4668 7.3877L17.6348 7.25195L18.4688 6.58594C18.7922 6.32718 18.8447 5.8547 18.5859 5.53125C18.3272 5.2078 17.8547 5.15531 17.5312 5.41406L16.6982 6.08105L16.5293 6.21582C15.8074 6.79333 15.2968 7.20155 14.8691 7.49512C14.4494 7.78317 14.1506 7.93108 13.8662 8.00977C13.2993 8.16653 12.7007 8.16653 12.1338 8.00977C11.8494 7.93108 11.5506 7.78317 11.1309 7.49512C10.7032 7.20155 10.1926 6.79333 9.4707 6.21582L9.30176 6.08105L8.46875 5.41406L8.40625 5.36914Z" fill="currentColor" />
</svg>