<svg xmlns="http://www.w3.org/2000/svg" width="24" height="24" viewBox="0 0 24 24" fill="none">
<path d="M12 1.25C17.9371 1.25 22.75 6.06295 22.75 12C22.75 17.9371 17.9371 22.75 12 22.75C6.06295 22.75 1.25 17.9371 1.25 12C1.25001 6.06295 6.06295 1.25001 12 1.25ZM16.4512 14.4004C16.1201 14.1517 15.6502 14.2188 15.4014 14.5498C14.6248 15.5837 13.3898 16.2498 12 16.25C10.6973 16.2499 9.53151 15.664 8.75098 14.7393L8.59961 14.5498L8.55078 14.4902C8.29305 14.2111 7.86024 14.1676 7.5498 14.4004C7.21865 14.6491 7.15173 15.119 7.40039 15.4502C8.4481 16.8449 10.1186 17.7499 12 17.75C13.8815 17.7498 15.5529 16.845 16.6006 15.4502C16.8488 15.1191 16.7819 14.6491 16.4512 14.4004ZM9.00098 8.75C8.35382 8.75 7.82092 9.24183 7.75684 9.87207L7.75 10L7.75684 10.1279C7.82092 10.7582 8.35382 11.25 9.00098 11.25C9.69088 11.2495 10.251 10.69 10.251 10C10.251 9.35285 9.75817 8.82092 9.12793 8.75684L9.00098 8.75ZM15.001 8.75C14.3538 8.75 13.8209 9.24183 13.7568 9.87207L13.751 10L13.7568 10.1279C13.8209 10.7582 14.3538 11.25 15.001 11.25C15.6909 11.2495 16.251 10.69 16.251 10C16.251 9.35285 15.7582 8.82092 15.1279 8.75684L15.001 8.75Z" fill="currentColor" />
</svg>