<svg xmlns="http://www.w3.org/2000/svg" width="24" height="24" viewBox="0 0 24 24" fill="none">
<path d="M12 1.25C17.9371 1.25 22.75 6.06294 22.75 12C22.75 17.9371 17.9371 22.75 12 22.75C6.06294 22.75 1.25 17.9371 1.25 12C1.25 6.06294 6.06294 1.25 12 1.25ZM12 13.25C10.1186 13.2501 8.4481 14.1551 7.40039 15.5498C7.15173 15.881 7.21865 16.3509 7.5498 16.5996C7.88097 16.848 8.35095 16.7812 8.59961 16.4502C9.3762 15.4165 10.6103 14.7501 12 14.75C13.3028 14.7501 14.4695 15.3358 15.25 16.2607L15.4014 16.4502L15.4502 16.5098C15.7081 16.7887 16.1408 16.8327 16.4512 16.5996C16.7613 16.3664 16.8396 15.9386 16.6436 15.6133L16.6006 15.5498L16.3965 15.2939C15.3428 14.0453 13.7638 13.2501 12 13.25ZM9.00098 8.75C8.35382 8.75 7.82092 9.24183 7.75684 9.87207L7.75 10L7.75684 10.1279C7.82092 10.7582 8.35382 11.25 9.00098 11.25C9.69088 11.2495 10.251 10.69 10.251 10C10.251 9.35285 9.75817 8.82092 9.12793 8.75684L9.00098 8.75ZM15.001 8.75C14.3538 8.75 13.8209 9.24183 13.7568 9.87207L13.751 10L13.7568 10.1279C13.8209 10.7582 14.3538 11.25 15.001 11.25C15.6909 11.2495 16.251 10.69 16.251 10C16.251 9.35285 15.7582 8.82092 15.1279 8.75684L15.001 8.75Z" fill="currentColor" />
</svg>