<svg xmlns="http://www.w3.org/2000/svg" width="24" height="24" viewBox="0 0 24 24" fill="none">
<path d="M14.75 1.25C17.55 1.25 18.95 1.25014 20.0195 1.79493C20.9603 2.27429 21.7257 3.03966 22.2051 3.98047C22.7499 5.04999 22.75 6.45005 22.75 9.25L22.75 14.75C22.75 17.55 22.7499 18.95 22.2051 20.0195C21.7257 20.9603 20.9603 21.7257 20.0195 22.2051C18.95 22.7499 17.5499 22.75 14.75 22.75L9.25 22.75C6.45004 22.75 5.04998 22.7499 3.98047 22.2051C3.03965 21.7257 2.27429 20.9603 1.79492 20.0195C1.25013 18.95 1.25 17.55 1.25 14.75L1.25 9.25C1.25 6.45005 1.25013 5.04998 1.79492 3.98047C2.27429 3.03966 3.03966 2.27429 3.98047 1.79492C5.04998 1.25013 6.45005 1.25 9.25 1.25L14.75 1.25ZM7 7.25C6.58586 7.25 6.25013 7.5859 6.25 8L6.25 16C6.25 16.4142 6.58578 16.75 7 16.75C7.41417 16.75 7.75 16.4142 7.75 16L7.75 8C7.74987 7.58593 7.41409 7.25005 7 7.25ZM12 10.25C11.5859 10.25 11.2501 10.5859 11.25 11L11.25 16C11.25 16.4142 11.5858 16.75 12 16.75C12.4142 16.75 12.75 16.4142 12.75 16L12.75 11C12.7499 10.5859 12.4141 10.25 12 10.25ZM17 8.25C16.5859 8.25 16.2501 8.5859 16.25 9L16.25 16C16.25 16.4142 16.5858 16.75 17 16.75C17.4142 16.75 17.75 16.4142 17.75 16L17.75 9C17.7499 8.58593 17.4141 8.25005 17 8.25Z" fill="currentColor" />
</svg>