<svg xmlns="http://www.w3.org/2000/svg" width="24" height="24" viewBox="0 0 24 24" fill="none">
<path d="M14.5 2H15C16.8613 2 17.7919 2 18.5451 2.24472C20.0673 2.73931 21.2607 3.93273 21.7553 5.45492C22 6.20808 22 7.13872 22 9V14C22 16.8003 22 18.2004 21.455 19.27C20.9757 20.2108 20.2108 20.9757 19.27 21.455C18.2004 22 16.8003 22 14 22H10C7.19974 22 5.79961 22 4.73005 21.455C3.78924 20.9757 3.02433 20.2108 2.54497 19.27C2 18.2004 2 16.8003 2 14V9C2 7.13872 2 6.20808 2.24472 5.45492C2.73931 3.93273 3.93273 2.73931 5.45492 2.24472C6.20808 2 7.13872 2 9 2H9.5M7 8L7 16M12 11V16M17 9V16" stroke="currentColor" stroke-width={1.5} stroke-linecap="round" stroke-linejoin="round" />
</svg>