<svg xmlns="http://www.w3.org/2000/svg" width="24" height="24" viewBox="0 0 24 24" fill="none">
<path d="M16 2.83209C14.7751 2.2969 13.4222 2 12 2C6.47715 2 2 6.47715 2 12C2 17.5228 6.47715 22 12 22C17.5228 22 22 17.5228 22 12C22 9.74835 21.2558 7.67051 20 5.99902M15 9.35418C14.2671 8.52375 13.1947 8 12 8C9.79086 8 8 9.79086 8 12C8 14.2091 9.79086 16 12 16C13.1947 16 14.2671 15.4762 15 14.6458M7 11H12M7 13H11" stroke="currentColor" stroke-width={1.5} stroke-linecap="round" stroke-linejoin="round" />
</svg>