<svg xmlns="http://www.w3.org/2000/svg" width="24" height="24" viewBox="0 0 24 24" fill="none">
<path d="M12 1.25C17.9371 1.25 22.75 6.06294 22.75 12C22.75 17.9371 17.9371 22.75 12 22.75C6.06294 22.75 1.25 17.9371 1.25 12C1.25 6.06294 6.06294 1.25 12 1.25ZM12 7.25C9.99483 7.25 8.28089 8.49293 7.58398 10.25H7C6.58579 10.25 6.25 10.5858 6.25 11C6.25 11.4142 6.58579 11.75 7 11.75H7.25586C7.25157 11.8328 7.25 11.9162 7.25 12C7.25 12.0838 7.25157 12.1672 7.25586 12.25H7C6.58579 12.25 6.25 12.5858 6.25 13C6.25 13.4142 6.58579 13.75 7 13.75H7.58398C8.28089 15.5071 9.99483 16.75 12 16.75C13.3301 16.75 14.5331 16.2022 15.3945 15.3223L15.5625 15.1426C15.8365 14.8321 15.8065 14.3581 15.4961 14.084C15.1856 13.8099 14.7116 13.8389 14.4375 14.1494C13.8409 14.8253 12.9705 15.25 12 15.25C10.8496 15.25 9.8393 14.6518 9.26172 13.75H11C11.4142 13.7499 11.75 13.4142 11.75 13C11.75 12.5858 11.4142 12.2501 11 12.25H8.76074C8.75446 12.1675 8.75 12.0842 8.75 12C8.75 11.9158 8.75446 11.8325 8.76074 11.75H12C12.4142 11.7499 12.75 11.4142 12.75 11C12.75 10.5858 12.4142 10.2501 12 10.25H9.26172C9.8393 9.34816 10.8496 8.75 12 8.75C12.9097 8.75003 13.7315 9.12314 14.3223 9.72656L14.4375 9.85059L14.4912 9.90527C14.7703 10.1635 15.2049 10.173 15.4961 9.91602C15.787 9.65908 15.8316 9.22685 15.6104 8.91797L15.5625 8.85742L15.3945 8.67773C14.5331 7.79776 13.3301 7.25003 12 7.25Z" fill="currentColor" />
</svg>