<svg xmlns="http://www.w3.org/2000/svg" width="24" height="24" viewBox="0 0 24 24" fill="none">
<path d="M11.25 9.25012V16.0001C11.25 16.4143 11.5858 16.7501 12 16.7501C12.4142 16.7501 12.75 16.4143 12.75 16.0001V9.25012H16.3496C18.5898 9.25012 19.7108 9.24969 20.5664 9.68566C21.3189 10.0691 21.931 10.6812 22.3145 11.4337C22.7504 12.2894 22.75 13.4103 22.75 15.6505V16.3497C22.75 18.5899 22.7504 19.7109 22.3145 20.5665C21.931 21.319 21.3189 21.9311 20.5664 22.3146C19.7108 22.7505 18.5898 22.7501 16.3496 22.7501L7.65039 22.7501C5.41018 22.7501 4.28924 22.7505 3.43359 22.3146C2.68109 21.9311 2.06902 21.319 1.68555 20.5665C1.24957 19.7109 1.25 18.5899 1.25 16.3497V15.6505C1.25 13.4103 1.24957 12.2894 1.68555 11.4337C2.06902 10.6812 2.68109 10.0691 3.43359 9.68566C4.28924 9.24969 5.41018 9.25012 7.65039 9.25012H11.25ZM11.5264 1.41809C11.8209 1.17778 12.2557 1.19524 12.5303 1.46984L16.5303 5.46984L16.582 5.52648C16.8223 5.82107 16.8049 6.25579 16.5303 6.53039C16.2557 6.80499 15.8209 6.82246 15.5264 6.58215L15.4697 6.53039L12.75 3.81066L12.75 9.25012H11.25L11.25 3.81066L8.53027 6.53039C8.23738 6.82328 7.76262 6.82328 7.46973 6.53039C7.17683 6.2375 7.17683 5.76274 7.46973 5.46984L11.4697 1.46984L11.5264 1.41809Z" fill="currentColor" />
</svg>