<svg xmlns="http://www.w3.org/2000/svg" width="24" height="24" viewBox="0 0 24 24" fill="none">
<path d="M16 9.25012C19.7279 9.25012 22.75 12.2722 22.75 16.0001C22.75 19.728 19.7279 22.7501 16 22.7501L8 22.7501C4.27208 22.7501 1.25 19.728 1.25 16.0001C1.25 12.2722 4.27208 9.25012 8 9.25012H11.25V16.0001C11.25 16.4143 11.5858 16.7501 12 16.7501C12.4142 16.7501 12.75 16.4143 12.75 16.0001V9.25012H16ZM11.5264 1.41809C11.8209 1.17778 12.2557 1.19524 12.5303 1.46984L16.5303 5.46984L16.582 5.52648C16.8223 5.82107 16.8049 6.25579 16.5303 6.53039C16.2557 6.80499 15.8209 6.82246 15.5264 6.58215L15.4697 6.53039L12.75 3.81066L12.75 9.25012H11.25L11.25 3.81066L8.53027 6.53039C8.23738 6.82328 7.76262 6.82328 7.46973 6.53039C7.17683 6.2375 7.17683 5.76274 7.46973 5.46984L11.4697 1.46984L11.5264 1.41809Z" fill="currentColor" />
</svg>