<svg xmlns="http://www.w3.org/2000/svg" width="24" height="24" viewBox="0 0 24 24" fill="none">
<path d="M11 2.5C13.6293 2.5 16.031 3.46846 17.873 5.06543L10.4697 12.4697C10.1768 12.7626 10.1768 13.2374 10.4697 13.5303C10.7626 13.8232 11.2374 13.8232 11.5303 13.5303L18.9336 6.12598C20.5311 7.96812 21.5 10.3702 21.5 13C21.5 18.799 16.799 23.5 11 23.5C5.20101 23.5 0.5 18.799 0.5 13C0.5 7.20101 5.20101 2.5 11 2.5ZM22 1.25C22.4142 1.25 22.75 1.58579 22.75 2V7C22.75 7.41421 22.4142 7.75 22 7.75C21.5858 7.75 21.25 7.41421 21.25 7V3.81055L18.9336 6.12598C18.6056 5.74774 18.2513 5.39339 17.873 5.06543L20.1895 2.75H17C16.5858 2.75 16.25 2.41421 16.25 2C16.25 1.58579 16.5858 1.25 17 1.25H22Z" fill="currentColor" />
</svg>