<svg xmlns="http://www.w3.org/2000/svg" width="24" height="24" viewBox="0 0 24 24" fill="none">
<path d="M13 4H8.5C7.10547 4 6.40821 4 5.83277 4.13815C4.00453 4.57707 2.57707 6.00453 2.13815 7.83277C2 8.40821 2 9.10547 2 10.5V11M20 11V14C20 16.8003 20 18.2004 19.455 19.27C18.9757 20.2108 18.2108 20.9757 17.27 21.455C16.2004 22 14.8003 22 12 22H8.5C7.10547 22 6.40821 22 5.83277 21.8618C4.00453 21.4229 2.57707 19.9955 2.13815 18.1672C2 17.5918 2 16.8945 2 15.5V15M22 2H17M22 2V7M22 2L17 7M12 12L14.5 9.5" stroke="currentColor" stroke-width={1.5} stroke-linecap="round" stroke-linejoin="round" />
</svg>