<svg xmlns="http://www.w3.org/2000/svg" width="24" height="24" viewBox="0 0 24 24" fill="none">
<path d="M10 3H9.5C8.10547 3 7.40821 3 6.83277 3.13815C5.00453 3.57707 3.57707 5.00453 3.13815 6.83277C3 7.40821 3 8.10547 3 9.5V10M21 14V14.5C21 15.8945 21 16.5918 20.8618 17.1672C20.4229 18.9955 18.9955 20.4229 17.1672 20.8618C16.5918 21 15.8945 21 14.5 21H9.5C8.10547 21 7.40821 21 6.83277 20.8618C5.00453 20.4229 3.57707 18.9955 3.13815 17.1672C3 16.5918 3 15.8945 3 14.5V14M21 3H15M21 3V9M21 3L17 7M12 12L14.5 9.5" stroke="currentColor" stroke-width={1.5} stroke-linecap="round" stroke-linejoin="round" />
</svg>