<svg xmlns="http://www.w3.org/2000/svg" width="24" height="24" viewBox="0 0 24 24" fill="none">
<path opacity={0.32} d="M2 11.9999C2 14.4999 5 19.9999 12 19.9999C14.588 19.9999 16.6292 19.2481 18.1742 18.1741L5.82578 5.82568C3.19179 7.65667 2 10.4242 2 11.9999Z" fill="currentColor" /><path d="M2.46973 2.46967C2.76262 2.17678 3.23738 2.17678 3.53027 2.46967L21.5303 20.4697L21.582 20.5263C21.8223 20.8209 21.8049 21.2556 21.5303 21.5302C21.2557 21.8048 20.8209 21.8223 20.5264 21.582L20.4697 21.5302L18.0723 19.1328C16.4769 20.1045 14.4609 20.7499 12 20.7499C8.28463 20.7499 5.593 19.2835 3.83496 17.458C2.10675 15.6633 1.25 13.4849 1.25 11.9999C1.25 10.3097 2.36403 7.67915 4.68848 5.74897L2.46973 3.53022L2.41797 3.47358C2.17766 3.17899 2.19512 2.74427 2.46973 2.46967ZM5.75488 6.81537C3.65169 8.50566 2.75 10.7938 2.75 11.9999C2.75 13.0149 3.39342 14.8367 4.91504 16.4169C6.407 17.9663 8.71554 19.2499 12 19.2499C14.0185 19.2499 15.6631 18.764 16.9756 18.0361L13.5215 14.582C13.075 14.8456 12.556 14.9999 12 14.9999C10.3432 14.9999 9.00005 13.6568 9 11.9999C9 11.4438 9.15323 10.924 9.41699 10.4775L5.75488 6.81537ZM12 3.24994C15.7154 3.24994 18.407 4.7164 20.165 6.54194C21.8933 8.33662 22.75 10.515 22.75 11.9999C22.75 13.0899 22.2894 14.532 21.3965 15.9081C21.2795 16.0885 21.1544 16.2685 21.0215 16.4472C20.7743 16.7796 20.304 16.8487 19.9717 16.6015C19.6397 16.3542 19.5713 15.8849 19.8184 15.5527C19.9321 15.3997 20.0389 15.2456 20.1387 15.0917C20.9209 13.8861 21.25 12.7241 21.25 11.9999C21.25 10.985 20.6066 9.16321 19.085 7.58295C17.593 6.0336 15.2845 4.74994 12 4.74994C10.9652 4.74994 10.0305 4.87705 9.19043 5.0976C9.03254 5.13905 8.87798 5.1845 8.72656 5.23237C8.33167 5.35721 7.91008 5.13796 7.78516 4.74311C7.66033 4.34829 7.87874 3.92672 8.27344 3.8017C8.44855 3.74634 8.62765 3.69517 8.80957 3.6474C9.77814 3.39312 10.8409 3.24994 12 3.24994Z" fill="currentColor" />
</svg>