<svg xmlns="http://www.w3.org/2000/svg" width="24" height="24" viewBox="0 0 24 24" fill="none">
<path d="M13.9502 1.25C17.0304 1.25 18.5706 1.25016 19.7471 1.84961C20.7818 2.37689 21.6231 3.21816 22.1504 4.25293C22.7498 5.42942 22.75 6.96965 22.75 10.0498V13.9502C22.75 17.0304 22.7498 18.5706 22.1504 19.7471C21.6231 20.7818 20.7818 21.6231 19.7471 22.1504C18.5706 22.7498 17.0304 22.75 13.9502 22.75H13.75V14.75H17C17.4142 14.75 17.75 14.4142 17.75 14C17.75 13.5858 17.4142 13.25 17 13.25H13.75V11.2002C13.75 10.6278 13.7502 10.2431 13.7744 9.94727C13.7979 9.66027 13.8406 9.52316 13.8867 9.43262C14.0065 9.1975 14.1975 9.00655 14.4326 8.88672C14.5232 8.84059 14.6603 8.79788 14.9473 8.77441C15.2431 8.75024 15.6278 8.75 16.2002 8.75H17C17.4142 8.75 17.75 8.41421 17.75 8C17.75 7.58579 17.4142 7.25 17 7.25H16.2002C15.6525 7.25 15.1963 7.24897 14.8252 7.2793C14.4455 7.31033 14.0891 7.37809 13.752 7.5498C13.2345 7.81346 12.8135 8.23451 12.5498 8.75195C12.3781 9.0891 12.3103 9.44546 12.2793 9.8252C12.249 10.1963 12.25 10.6525 12.25 11.2002V13.25H10C9.58579 13.25 9.25 13.5858 9.25 14C9.25 14.4142 9.58579 14.75 10 14.75H12.25V22.75H10.0498C6.96965 22.75 5.42942 22.7498 4.25293 22.1504C3.21816 21.6231 2.37689 20.7818 1.84961 19.7471C1.25016 18.5706 1.25 17.0304 1.25 13.9502V10.0498C1.25 6.96965 1.25016 5.42942 1.84961 4.25293C2.37689 3.21816 3.21816 2.37689 4.25293 1.84961C5.42942 1.25016 6.96965 1.25 10.0498 1.25H13.9502Z" fill="currentColor" />
</svg>