<svg xmlns="http://www.w3.org/2000/svg" width="24" height="24" viewBox="0 0 24 24" fill="none">
<path d="M9.5 2L9 2C7.13872 2 6.20808 2 5.45492 2.24472C3.93273 2.73931 2.73931 3.93273 2.24472 5.45492C2 6.20808 2 7.13872 2 9L2 14C2 16.8003 2 18.2004 2.54497 19.27C3.02434 20.2108 3.78924 20.9757 4.73005 21.455C5.79961 22 7.19974 22 10 22H14C16.8003 22 18.2004 22 19.27 21.455C20.2108 20.9757 20.9757 20.2108 21.455 19.27C22 18.2004 22 16.8003 22 14V9C22 7.13872 22 6.20808 21.7553 5.45492C21.2607 3.93273 20.0673 2.73931 18.5451 2.24472C17.7919 2 16.8613 2 15 2L14.5 2M6 10V9.7V9.2C6 8.0799 6 7.51984 6.21799 7.09202C6.40973 6.71569 6.71569 6.40973 7.09202 6.21799C7.51984 6 8.0799 6 9.2 6H9.7H10M14 6H14.3H14.8C15.9201 6 16.4802 6 16.908 6.21799C17.2843 6.40973 17.5903 6.71569 17.782 7.09202C18 7.51984 18 8.0799 18 9.2V9.7V10M18 14.1V14.4V14.8C18 15.9201 18 16.4802 17.782 16.908C17.5903 17.2843 17.2843 17.5903 16.908 17.782C16.4802 18 15.9201 18 14.8 18H14.4H14.1M10 18H9.7H9.2C8.0799 18 7.51984 18 7.09202 17.782C6.71569 17.5903 6.40973 17.2843 6.21799 16.908C6 16.4802 6 15.9201 6 14.8V14.4V14.1M12.0003 9.5V12C12.0003 12.3314 11.7317 12.6 11.4004 12.6M9.5 9.5V10.5M14.5 9.5V10.5M14.5 14.5C14 15 13 15.5 12 15.5C11 15.5 10 15 9.5 14.5" stroke="currentColor" stroke-width={1.5} stroke-linecap="round" stroke-linejoin="round" />
</svg>