<svg xmlns="http://www.w3.org/2000/svg" width="24" height="24" viewBox="0 0 24 24" fill="none">
<path opacity={0.32} fill-rule="evenodd" clip-rule="evenodd" d="M22.75 7.48755C22.75 5.57841 22.75 4.62384 22.351 4.09093C22.0034 3.62652 21.4711 3.33596 20.8925 3.29463C20.2285 3.24721 19.4255 3.7634 17.8196 4.79578L13.25 7.73336V16.2666L17.8196 19.2042C19.4255 20.2365 20.2285 20.7527 20.8925 20.7053C21.4711 20.664 22.0034 20.3734 22.351 19.909C22.75 19.3761 22.75 18.4215 22.75 16.5124V7.48755Z" fill="currentColor" /><path fill-rule="evenodd" clip-rule="evenodd" d="M14.7502 7.48755C14.7502 5.57841 14.7502 4.62384 14.3513 4.09093C14.0036 3.62652 13.4714 3.33596 12.8927 3.29463C12.2287 3.24721 11.4257 3.7634 9.8198 4.79578L2.80048 9.3082C1.40694 10.204 0.710166 10.652 0.469506 11.2215C0.259227 11.7192 0.259227 12.2808 0.469506 12.7784C0.710166 13.348 1.40694 13.7959 2.80048 14.6917L9.8198 19.2042C11.4257 20.2365 12.2287 20.7527 12.8927 20.7053C13.4714 20.664 14.0036 20.3734 14.3513 19.909C14.7502 19.3761 14.7502 18.4215 14.7502 16.5124V7.48755Z" fill="currentColor" />
</svg>