<svg xmlns="http://www.w3.org/2000/svg" width="24" height="24" viewBox="0 0 24 24" fill="none">
<path d="M9 6.21429L9.33333 6C10.7071 5.11684 11.394 4.67526 11.9593 4.66375C12.6686 4.64929 13.3326 5.01177 13.704 5.61631C14 6.09799 14 6.91459 14 8.54777V15.1387C14 17.0478 14 18.0024 13.601 18.5353C13.2534 18.9997 12.7211 19.2903 12.1425 19.3316C11.4785 19.379 10.6755 18.8628 9.06958 17.8304L4.1872 14.6918C2.79366 13.7959 2.09688 13.348 1.85622 12.7784C1.64595 12.2808 1.64595 11.7192 1.85622 11.2216C2.09688 10.652 2.79366 10.2041 4.1872 9.30823L4.66667 9L5 8.78571L5.5 8.46429M14 15.8571L17.0696 17.8304C18.6755 18.8628 19.4785 19.379 20.1425 19.3316C20.7211 19.2903 21.2534 18.9997 21.601 18.5353C22 18.0024 22 17.0478 22 15.1387V7.75523C22 6.81264 22 6.34135 21.8989 6.03563C21.5686 5.03633 20.5203 4.46403 19.5011 4.72655C19.1893 4.80686 18.7929 5.06172 18 5.57143L17.3333 6" stroke="currentColor" stroke-width={1.5} stroke-linecap="round" stroke-linejoin="round" />
</svg>