<svg xmlns="http://www.w3.org/2000/svg" width="24" height="24" viewBox="0 0 24 24" fill="none">
<path d="M6.18042 4.79578C4.5745 3.7634 3.77153 3.24721 3.10752 3.29463C2.52885 3.33596 1.99665 3.62652 1.64897 4.09093C1.25 4.62384 1.25 5.57841 1.25 7.48755V16.5124C1.25 18.4215 1.25 19.3761 1.64897 19.909C1.99665 20.3734 2.52885 20.664 3.10752 20.7053C3.77153 20.7527 4.5745 20.2365 6.18042 19.2042L9.25 17.2309C9.25 18.5102 9.25 19.1498 9.43422 19.5488C9.80375 20.3491 10.6536 20.8131 11.5266 20.6912C11.9619 20.6304 12.4999 20.2845 13.5761 19.5927L21.1997 14.6917C22.5933 13.7959 23.2901 13.348 23.5307 12.7784C23.741 12.2808 23.741 11.7192 23.5307 11.2215C23.2901 10.652 22.5933 10.204 21.1997 9.3082L13.5761 4.40726C12.4999 3.71546 11.9619 3.36956 11.5266 3.30878C10.6536 3.18685 9.80375 3.65085 9.43422 4.45113C9.25 4.8501 9.25 5.48976 9.25 6.76908L6.18042 4.79578Z" fill="currentColor" />
</svg>