<svg xmlns="http://www.w3.org/2000/svg" width="24" height="24" viewBox="0 0 24 24" fill="none">
<path d="M8.75 15.8571V8.86133C8.75 6.95219 8.75 5.99762 9.14897 5.46471C9.49665 5.0003 10.0289 4.70974 10.6075 4.66841C11.2715 4.62099 12.0745 5.13718 13.6804 6.16956L13.75 6.21429M8.75 15.8571L5.68042 17.8304C4.0745 18.8628 3.27153 19.379 2.60752 19.3316C2.02885 19.2903 1.49665 18.9997 1.14897 18.5353C0.75 18.0024 0.75 17.0478 0.75 15.1387V7.75523C0.75 6.81264 0.75 6.34135 0.851055 6.03563C1.18137 5.03633 2.22965 4.46403 3.24886 4.72655C3.56067 4.80686 3.95711 5.06172 4.75 5.57143L5.41667 6M8.75 15.8571C8.75 17.1365 8.75 17.7761 8.93422 18.1751C9.30374 18.9754 10.1536 19.4394 11.0266 19.3174C11.4619 19.2567 11.9999 18.9108 13.0761 18.219L18.5628 14.6918C19.9563 13.7959 20.6531 13.348 20.8938 12.7784C21.1041 12.2808 21.1041 11.7192 20.8938 11.2216C20.6531 10.652 19.9563 10.2041 18.5628 9.30823L17.25 8.46429" stroke="currentColor" stroke-width={1.5} stroke-linecap="round" stroke-linejoin="round" />
</svg>