<svg xmlns="http://www.w3.org/2000/svg" width="24" height="24" viewBox="0 0 24 24" fill="none">
<path opacity={0.32} d="M9.25 6.76932L6.18042 4.79602C4.5745 3.76364 3.77153 3.24745 3.10752 3.29488C2.52885 3.33621 1.99665 3.62677 1.64897 4.09117C1.25 4.62409 1.25 5.57866 1.25 7.48779V16.5126C1.25 18.4218 1.25 19.3763 1.64897 19.9093C1.99665 20.3737 2.52885 20.6642 3.10752 20.7055C3.77153 20.753 4.5745 20.2368 6.18042 19.2044L9.25 17.2311V6.76932Z" fill="currentColor" /><path d="M13.5761 19.5929L21.1997 14.692C22.5933 13.7961 23.2901 13.3482 23.5307 12.7787C23.741 12.281 23.741 11.7194 23.5307 11.2218C23.2901 10.6522 22.5933 10.2043 21.1998 9.30845L21.1997 9.30844L13.5761 4.4075C12.4999 3.7157 11.9619 3.3698 11.5266 3.30902C10.6536 3.1871 9.80375 3.65109 9.43422 4.45137C9.25 4.85034 9.25 5.49 9.25 6.76932V17.2311C9.25 18.5104 9.25 19.1501 9.43422 19.5491C9.80374 20.3493 10.6536 20.8133 11.5266 20.6914C11.9619 20.6306 12.4999 20.2847 13.576 19.5929L13.5761 19.5929Z" fill="currentColor" />
</svg>