<svg xmlns="http://www.w3.org/2000/svg" width="24" height="24" viewBox="0 0 24 24" fill="none">
<g opacity={0.12}><path d="M9.06958 17.8304C10.6755 18.8628 11.4785 19.379 12.1425 19.3316C12.7211 19.2903 13.2534 18.9997 13.601 18.5353C14 18.0024 14 17.0478 14 15.1387V8.86133C14 6.95219 14 5.99762 13.601 5.46471C13.2534 5.0003 12.7211 4.70974 12.1425 4.66841C11.4785 4.62099 10.6755 5.13718 9.06957 6.16956L4.1872 9.30823C2.79366 10.2041 2.09688 10.652 1.85622 11.2216C1.64595 11.7192 1.64595 12.2808 1.85622 12.7784C2.09688 13.348 2.79366 13.7959 4.1872 14.6918L9.06958 17.8304Z" fill="currentColor" /><path d="M15.4696 7.19813C14.9328 7.54322 14.6644 7.71577 14.4698 7.9469C14.2976 8.1515 14.1682 8.38855 14.0892 8.64403C14 8.93266 14 9.25174 14 9.8899V14.1101C14 14.7483 14 15.0673 14.0892 15.356C14.1682 15.6115 14.2976 15.8485 14.4698 16.0531C14.6644 16.2842 14.9328 16.4568 15.4696 16.8019L17.0696 17.8304C18.6755 18.8628 19.4785 19.379 20.1425 19.3316C20.7211 19.2903 21.2534 18.9997 21.601 18.5353C22 18.0024 22 17.0478 22 15.1387V8.86133C22 6.95219 22 5.99762 21.601 5.46471C21.2534 5.0003 20.7211 4.70974 20.1425 4.66841C19.4785 4.62099 18.6755 5.13718 17.0696 6.16956L15.4696 7.19813Z" fill="currentColor" /></g><path d="M14 8.14286L17.0696 6.16956C18.6755 5.13718 19.4785 4.62099 20.1425 4.66841C20.7211 4.70974 21.2534 5.0003 21.601 5.46471C22 5.99762 22 6.95219 22 8.86133V15.1387C22 17.0478 22 18.0024 21.601 18.5353C21.2534 18.9997 20.7211 19.2903 20.1425 19.3316C19.4785 19.379 18.6755 18.8628 17.0696 17.8304L14 15.8571M4.1872 14.6918L9.06958 17.8304C10.6755 18.8628 11.4785 19.379 12.1425 19.3316C12.7211 19.2903 13.2534 18.9997 13.601 18.5353C14 18.0024 14 17.0478 14 15.1387V8.86133C14 6.95219 14 5.99762 13.601 5.46471C13.2534 5.0003 12.7211 4.70974 12.1425 4.66841C11.4785 4.62099 10.6755 5.13718 9.06957 6.16956L4.1872 9.30823C2.79366 10.2041 2.09688 10.652 1.85622 11.2216C1.64595 11.7192 1.64595 12.2808 1.85622 12.7784C2.09688 13.348 2.79366 13.7959 4.1872 14.6918Z" stroke="currentColor" stroke-width={1.5} stroke-linecap="round" stroke-linejoin="round" />
</svg>