<svg xmlns="http://www.w3.org/2000/svg" width="24" height="24" viewBox="0 0 24 24" fill="none">
<path d="M20 15.25C20.4142 15.25 20.75 15.5858 20.75 16V16.5C20.75 16.95 20.7507 17.2185 20.7324 17.4512C20.5105 20.2708 18.2708 22.5105 15.4512 22.7324C15.2185 22.7507 14.95 22.75 14.5 22.75H9.5C9.04996 22.75 8.78146 22.7507 8.54883 22.7324C5.72918 22.5105 3.4895 20.2708 3.26758 17.4512C3.24927 17.2185 3.25 16.95 3.25 16.5V16C3.25 15.5858 3.58579 15.25 4 15.25C4.41421 15.25 4.75 15.5858 4.75 16V16.5C4.75 16.9781 4.75021 17.174 4.7627 17.333C4.92672 19.4171 6.58289 21.0733 8.66699 21.2373C8.82597 21.2498 9.02191 21.25 9.5 21.25H14.5C14.9781 21.25 15.174 21.2498 15.333 21.2373C17.4171 21.0733 19.0733 19.4171 19.2373 17.333C19.2498 17.174 19.25 16.9781 19.25 16.5V16C19.25 15.5858 19.5858 15.25 20 15.25ZM13.25 3.9502C13.25 5.63023 13.2502 6.47059 13.5771 7.1123C13.8647 7.67653 14.3235 8.13528 14.8877 8.42285C15.5294 8.74982 16.3698 8.75 18.0498 8.75H20.75V11.25H22C22.4142 11.25 22.75 11.5858 22.75 12C22.75 12.4142 22.4142 12.75 22 12.75H2C1.58579 12.75 1.25 12.4142 1.25 12C1.25 11.5858 1.58579 11.25 2 11.25H3.25V9.25C3.25 6.45005 3.25013 5.04998 3.79492 3.98047C4.27429 3.03966 5.03966 2.27429 5.98047 1.79492C7.04998 1.25013 8.45005 1.25 11.25 1.25H13.25V3.9502ZM14.75 1.25C15.109 1.25 15.4532 1.39266 15.707 1.64648L20.3535 6.29297C20.6073 6.54681 20.75 6.89103 20.75 7.25H17.9502C16.8301 7.25 16.2696 7.25021 15.8418 7.03223C15.4655 6.84049 15.1595 6.53446 14.9678 6.1582C14.7498 5.73038 14.75 5.16991 14.75 4.0498V1.25Z" fill="currentColor" />
</svg>