<svg xmlns="http://www.w3.org/2000/svg" width="24" height="24" viewBox="0 0 24 24" fill="none">
<path d="M4 12V9.77817C4 7.18697 4 5.89136 4.46859 4.88663C4.96536 3.82147 5.82147 2.96536 6.88663 2.46859C7.89136 2 9.18697 2 11.7782 2C12.9105 2 13.4766 2 14.0113 2.11855C14.5806 2.24479 15.1235 2.46965 15.6153 2.78296C16.0772 3.07721 16.4775 3.47753 17.2782 4.27817L17.6569 4.65685C18.5216 5.52161 18.954 5.95399 19.2632 6.45858C19.5373 6.90594 19.7394 7.39366 19.8618 7.90384C20 8.47928 20 9.09076 20 10.3137V12M2 12H22M6 19V16M10 22V16M14 22V16M18 19V16M14 2.5V6.00003C14 7.1046 14.8954 8.00003 16 8.00003H17" stroke="currentColor" stroke-width={1.5} stroke-linecap="round" stroke-linejoin="round" />
</svg>