<svg xmlns="http://www.w3.org/2000/svg" width="24" height="24" viewBox="0 0 24 24" fill="none">
<path d="M1.46967 1.46974C1.76256 1.17685 2.23732 1.17685 2.53021 1.46974L5.13959 4.07813L19.9218 18.8604L22.5302 21.4697L22.582 21.5264C22.8223 21.821 22.8048 22.2557 22.5302 22.5303C22.2556 22.8049 21.8209 22.8223 21.5263 22.582L21.4697 22.5303L19.5068 20.5684C18.9961 21.2133 18.3512 21.7456 17.6103 22.1231C16.9522 22.4584 16.2248 22.6078 15.3447 22.6797C14.4733 22.7509 13.3875 22.75 11.9999 22.75C10.6124 22.75 9.52654 22.7509 8.65521 22.6797C7.77507 22.6078 7.04772 22.4584 6.38959 22.1231C5.30768 21.5718 4.42816 20.6923 3.87689 19.6104C3.54156 18.9522 3.39216 18.2249 3.32025 17.3447C3.24909 16.4734 3.24994 15.3876 3.24994 14V9.77833C3.24994 8.49417 3.24927 7.48896 3.31049 6.68067C3.36584 5.94988 3.47482 5.3312 3.70404 4.76563L1.46967 2.53028C1.17678 2.23739 1.17678 1.76263 1.46967 1.46974ZM11.7783 1.25001C12.8775 1.25001 13.5403 1.24626 14.1738 1.38673C14.8284 1.53191 15.453 1.79014 16.0185 2.1504C16.5657 2.49904 17.0313 2.97084 17.8085 3.74806L18.0302 3.96974C19.0199 4.95943 19.6219 5.55205 20.0244 6.2754C20.2389 6.66111 20.4082 7.07065 20.5292 7.49513C20.7561 8.29118 20.7499 9.1357 20.7499 10.5352V16C20.7499 16.4142 20.4142 16.75 19.9999 16.75C19.5857 16.75 19.2499 16.4142 19.2499 16V10.5352C19.2499 9.71764 19.2466 9.16928 19.2187 8.75001H17.2001C16.6525 8.75001 16.1963 8.75104 15.8251 8.72071C15.4454 8.68968 15.089 8.62192 14.7519 8.4502C14.2345 8.18655 13.8134 7.7655 13.5497 7.24806C13.378 6.91092 13.3103 6.55454 13.2792 6.17481C13.2489 5.80369 13.2499 5.34749 13.2499 4.79981V2.7754C12.9108 2.75438 12.4657 2.75001 11.7783 2.75001C10.4712 2.75001 9.53239 2.75072 8.79389 2.80665C8.06352 2.86198 7.59011 2.96846 7.20404 3.14845C6.82865 3.32352 6.38205 3.16056 6.20697 2.78517C6.03219 2.40994 6.19421 1.9642 6.56928 1.78907C7.18781 1.5006 7.86457 1.37237 8.6806 1.31056C9.48889 1.24934 10.4941 1.25001 11.7783 1.25001ZM14.7499 4.79981C14.7499 5.37223 14.7502 5.75687 14.7744 6.05274C14.7978 6.33975 14.8405 6.47685 14.8867 6.56739C15.0065 6.80255 15.1974 6.99444 15.4326 7.11427C15.5231 7.16035 15.6605 7.20216 15.9472 7.2256C16.2431 7.24977 16.6277 7.25001 17.2001 7.25001H18.8388C18.7995 7.16717 18.7584 7.08512 18.7138 7.00489C18.4369 6.50722 18.0193 6.07993 16.9697 5.03028L16.748 4.8086C15.924 3.98464 15.5884 3.65489 15.2119 3.41505C15.0631 3.32033 14.9087 3.23546 14.7499 3.16017V4.79981Z" fill="currentColor" />
</svg>