<svg xmlns="http://www.w3.org/2000/svg" width="24" height="24" viewBox="0 0 24 24" fill="none">
<path d="M4 14.25C4.41421 14.25 4.75 14.5858 4.75 15V16.5C4.75 16.9781 4.75022 17.174 4.7627 17.333C4.92672 19.4171 6.5829 21.0733 8.667 21.2373C8.82597 21.2498 9.02191 21.25 9.5 21.25H10C10.4142 21.25 10.75 21.5858 10.75 22C10.75 22.4142 10.4142 22.75 10 22.75H9.5C9.04997 22.75 8.78146 22.7507 8.54883 22.7324C5.72919 22.5105 3.4895 20.2708 3.26758 17.4512C3.24927 17.2186 3.25 16.95 3.25 16.5V15C3.25001 14.5858 3.5858 14.25 4 14.25ZM20 14.25C20.4142 14.25 20.75 14.5858 20.75 15V16.5C20.75 16.95 20.7507 17.2186 20.7324 17.4512C20.5105 20.2708 18.2708 22.5105 15.4512 22.7324C15.2185 22.7507 14.95 22.75 14.5 22.75H14C13.5858 22.75 13.25 22.4142 13.25 22C13.25 21.5858 13.5858 21.25 14 21.25H14.5C14.9781 21.25 15.174 21.2498 15.333 21.2373C17.4171 21.0733 19.0733 19.4171 19.2373 17.333C19.2498 17.174 19.25 16.9781 19.25 16.5V15C19.25 14.5858 19.5858 14.25 20 14.25ZM11.7783 1.25001C12.8775 1.25001 13.5403 1.24626 14.1738 1.38673C14.8285 1.53191 15.453 1.79014 16.0186 2.1504C16.5658 2.49904 17.0314 2.97084 17.8086 3.74806L18.1875 4.12696C19.0266 4.96608 19.536 5.46879 19.9023 6.06642C20.2176 6.58079 20.45 7.14193 20.5908 7.72853C20.7545 8.41031 20.75 9.12638 20.75 10.3135V11C20.75 11.4142 20.4142 11.75 20 11.75C19.5858 11.75 19.25 11.4142 19.25 11V10.3135C19.25 9.20539 19.2457 8.67996 19.168 8.25001H16.9502C15.8301 8.25001 15.2696 8.25022 14.8418 8.03224C14.4655 7.8405 14.1595 7.53447 13.9678 7.15821C13.7498 6.73039 13.75 6.16992 13.75 5.04981V2.83106C13.3387 2.75406 12.8562 2.75001 11.7783 2.75001C10.4713 2.75001 9.53245 2.75072 8.79395 2.80665C8.06358 2.86198 7.59017 2.96846 7.20411 3.14845C6.29873 3.5707 5.5707 4.29874 5.14844 5.20411C4.96845 5.59018 4.86197 6.06359 4.80664 6.79395C4.75071 7.53245 4.75 8.4713 4.75 9.77833V11C4.75 11.4142 4.41422 11.75 4 11.75C3.58579 11.75 3.25 11.4142 3.25 11V9.77833C3.25 8.49417 3.24933 7.48896 3.31055 6.68067C3.37236 5.86465 3.50059 5.18788 3.78907 4.56935C4.36033 3.34467 5.34466 2.36033 6.56934 1.78907C7.18787 1.5006 7.86464 1.37237 8.68067 1.31056C9.48895 1.24934 10.4942 1.25001 11.7783 1.25001Z" fill="currentColor" />
</svg>