<svg xmlns="http://www.w3.org/2000/svg" width="24" height="24" viewBox="0 0 24 24" fill="none">
<path d="M11.9971 1.25C12.5072 1.25 12.9109 1.25266 13.25 1.2627V4.7998C13.25 5.34748 13.249 5.80368 13.2793 6.1748C13.3103 6.55454 13.3781 6.9109 13.5498 7.24805C13.8135 7.76549 14.2345 8.18654 14.752 8.4502C15.0891 8.62191 15.4455 8.68967 15.8252 8.7207C16.1963 8.75103 16.6525 8.75 17.2002 8.75H20.7373C20.7473 9.08911 20.75 9.49278 20.75 10.0029V14.75C20.75 17.55 20.7499 18.95 20.2051 20.0195C19.7257 20.9603 18.9603 21.7257 18.0195 22.2051C16.95 22.7499 15.5499 22.75 12.75 22.75H11.25C8.45005 22.75 7.04998 22.7499 5.98047 22.2051C5.03966 21.7257 4.27429 20.9603 3.79492 20.0195C3.25013 18.95 3.25 17.55 3.25 14.75V9.25C3.25 6.45005 3.25014 5.04998 3.79492 3.98047C4.27429 3.03966 5.03966 2.27429 5.98047 1.79492C7.04998 1.25013 8.45004 1.25 11.25 1.25H11.9971ZM15.5918 11.7891C14.7778 10.772 13.3029 10.5846 12.2607 11.3662L12 11.5615L11.7393 11.3662C10.6971 10.5846 9.22218 10.772 8.4082 11.7891C7.60185 12.797 7.73182 14.2613 8.70312 15.1113L11.5059 17.5645C11.7886 17.8119 12.2114 17.8119 12.4941 17.5645L15.2969 15.1113C16.2682 14.2613 16.3981 12.797 15.5918 11.7891ZM13.1611 12.5664C13.5553 12.2709 14.1131 12.3419 14.4209 12.7266C14.7258 13.1078 14.6769 13.662 14.3096 13.9834L12 16.0029L9.69043 13.9834C9.32307 13.662 9.2742 13.1078 9.5791 12.7266C9.88686 12.3419 10.4447 12.2709 10.8389 12.5664L11.5498 13.0996C11.8165 13.2996 12.1835 13.2996 12.4502 13.0996L13.1611 12.5664ZM14.75 1.4834C15.136 1.60571 15.5065 1.7743 15.8525 1.98633C16.357 2.29548 16.7889 2.72837 17.6533 3.59277L18.4072 4.3457C19.2719 5.2104 19.7045 5.64293 20.0137 6.14746C20.2257 6.49338 20.3933 6.8641 20.5156 7.25H17.2002C16.6278 7.25 16.2431 7.24976 15.9473 7.22559C15.6603 7.20212 15.5232 7.15941 15.4326 7.11328C15.1975 6.99345 15.0065 6.8025 14.8867 6.56738C14.8406 6.47684 14.7979 6.33973 14.7744 6.05273C14.7502 5.75686 14.75 5.37223 14.75 4.7998V1.4834Z" fill="currentColor" />
</svg>