<svg xmlns="http://www.w3.org/2000/svg" width="24" height="24" viewBox="0 0 24 24" fill="none">
<path d="M10 15.25C10.4142 15.25 10.75 15.5858 10.75 16V22C10.75 22.4142 10.4142 22.75 10 22.75C9.58579 22.75 9.25 22.4142 9.25 22V16C9.25 15.5858 9.58579 15.25 10 15.25ZM14 15.25C14.4142 15.25 14.75 15.5858 14.75 16V22C14.75 22.4142 14.4142 22.75 14 22.75C13.5858 22.75 13.25 22.4142 13.25 22V16C13.25 15.5858 13.5858 15.25 14 15.25ZM6 15.25C6.41421 15.25 6.75 15.5858 6.75 16V19C6.75 19.4142 6.41421 19.75 6 19.75C5.58579 19.75 5.25 19.4142 5.25 19V16C5.25 15.5858 5.58579 15.25 6 15.25ZM18 15.25C18.4142 15.25 18.75 15.5858 18.75 16V19C18.75 19.4142 18.4142 19.75 18 19.75C17.5858 19.75 17.25 19.4142 17.25 19V16C17.25 15.5858 17.5858 15.25 18 15.25ZM13.25 3.9502C13.25 5.63023 13.2502 6.47059 13.5771 7.1123C13.8647 7.67653 14.3235 8.13528 14.8877 8.42285C15.5294 8.74982 16.3698 8.75 18.0498 8.75H20.75V11.25H22C22.4142 11.25 22.75 11.5858 22.75 12C22.75 12.4142 22.4142 12.75 22 12.75H2C1.58579 12.75 1.25 12.4142 1.25 12C1.25 11.5858 1.58579 11.25 2 11.25H3.25V9.25C3.25 6.45005 3.25013 5.04998 3.79492 3.98047C4.27429 3.03966 5.03966 2.27429 5.98047 1.79492C7.04998 1.25013 8.45005 1.25 11.25 1.25H13.25V3.9502ZM14.75 1.25C15.109 1.25 15.4532 1.39266 15.707 1.64648L20.3535 6.29297C20.6073 6.54681 20.75 6.89103 20.75 7.25H17.9502C16.8301 7.25 16.2696 7.25021 15.8418 7.03223C15.4655 6.84049 15.1595 6.53446 14.9678 6.1582C14.7498 5.73038 14.75 5.16991 14.75 4.0498V1.25Z" fill="currentColor" />
</svg>