<svg xmlns="http://www.w3.org/2000/svg" width="24" height="24" viewBox="0 0 24 24" fill="none">
<path d="M4 14C4 16.8003 4 18.2004 4.54497 19.27C5.02433 20.2108 5.78924 20.9757 6.73005 21.455C7.79961 22 9.19974 22 12 22C14.8003 22 16.2004 22 17.27 21.455C18.17 20.9964 18.9091 20.2765 19.3912 19.3912M6.88663 2.46859C7.89136 2 9.18697 2 11.7782 2C12.9105 2 13.4766 2 14.0113 2.11855C14.5806 2.24479 15.1235 2.46965 15.6153 2.78296C16.0772 3.07721 16.4775 3.47753 17.2782 4.27817L17.5 4.5C18.5197 5.51972 19.0296 6.02959 19.3693 6.64015C19.5559 6.97555 19.7033 7.33132 19.8085 7.70044C20 8.37237 20 9.09343 20 10.5355V16M19.3912 19.3912L22 22M19.3912 19.3912L4.60883 4.60883M2 2L4.60883 4.60883M4.60883 4.60883C4.55934 4.69972 4.51256 4.79236 4.46859 4.88663C4 5.89136 4 7.18697 4 9.77817V10M14 2.5V6.00003C14 7.1046 14.8954 8.00003 16 8.00003H17" stroke="currentColor" stroke-width={1.5} stroke-linecap="round" stroke-linejoin="round" />
</svg>