<svg xmlns="http://www.w3.org/2000/svg" width="24" height="24" viewBox="0 0 24 24" fill="none">
<path opacity={0.32} d="M14.75 1.25C17.55 1.25 18.95 1.25013 20.0195 1.79492C20.9603 2.27429 21.7257 3.03966 22.2051 3.98047C22.7499 5.04998 22.75 6.45005 22.75 9.25V14.75C22.75 17.55 22.7499 18.95 22.2051 20.0195C21.7257 20.9603 20.9603 21.7257 20.0195 22.2051C18.95 22.7499 17.55 22.75 14.75 22.75H12V21.25H13.5996C14.4393 21.25 14.8598 21.2502 15.1807 21.0869C15.4629 20.9431 15.6931 20.7129 15.8369 20.4307C16.0002 20.1098 16 19.6893 16 18.8496V15.1504C16 14.3107 16.0002 13.8902 15.8369 13.5693C15.6931 13.2871 15.4629 13.0569 15.1807 12.9131C14.8598 12.7498 14.4393 12.75 13.5996 12.75H12V11.25H13.5996C14.4393 11.25 14.8598 11.2502 15.1807 11.0869C15.4629 10.9431 15.6931 10.7129 15.8369 10.4307C16.0002 10.1098 16 9.68932 16 8.84961V5.15039C16 4.31068 16.0002 3.89015 15.8369 3.56934C15.6931 3.28709 15.4629 3.0569 15.1807 2.91309C14.8598 2.74981 14.4393 2.75 13.5996 2.75H12V1.25H14.75ZM18 16.25C17.5858 16.25 17.25 16.5858 17.25 17C17.25 17.4142 17.5858 17.75 18 17.75H20C20.4142 17.75 20.75 17.4142 20.75 17C20.75 16.5858 20.4142 16.25 20 16.25H18ZM18 11.25C17.5858 11.25 17.25 11.5858 17.25 12C17.25 12.4142 17.5858 12.75 18 12.75H20C20.4142 12.75 20.75 12.4142 20.75 12C20.75 11.5858 20.4142 11.25 20 11.25H18ZM18 6.25C17.5858 6.25 17.25 6.58579 17.25 7C17.25 7.41421 17.5858 7.75 18 7.75H20C20.4142 7.75 20.75 7.41421 20.75 7C20.75 6.58579 20.4142 6.25 20 6.25H18Z" fill="currentColor" /><path d="M12 1.25V2.75H10.4004C9.56068 2.75 9.14015 2.74981 8.81934 2.91309C8.53709 3.0569 8.3069 3.28709 8.16309 3.56934C7.99981 3.89015 8 4.31068 8 5.15039V8.84961C8 9.68932 7.99981 10.1098 8.16309 10.4307C8.3069 10.7129 8.53709 10.9431 8.81934 11.0869C9.14015 11.2502 9.56068 11.25 10.4004 11.25H12V12.75H10.4004C9.56068 12.75 9.14015 12.7498 8.81934 12.9131C8.53709 13.0569 8.3069 13.2871 8.16309 13.5693C7.99981 13.8902 8 14.3107 8 15.1504V18.8496C8 19.6893 7.99981 20.1098 8.16309 20.4307C8.3069 20.7129 8.53709 20.9431 8.81934 21.0869C9.14015 21.2502 9.56068 21.25 10.4004 21.25H12V22.75H9.25C6.45005 22.75 5.04998 22.7499 3.98047 22.2051C3.03966 21.7257 2.27429 20.9603 1.79492 20.0195C1.25013 18.95 1.25 17.55 1.25 14.75V9.25C1.25 6.45005 1.25013 5.04998 1.79492 3.98047C2.27429 3.03966 3.03966 2.27429 3.98047 1.79492C5.04998 1.25013 6.45005 1.25 9.25 1.25H12ZM4 16.25C3.58579 16.25 3.25 16.5858 3.25 17C3.25 17.4142 3.58579 17.75 4 17.75H6C6.41421 17.75 6.75 17.4142 6.75 17C6.75 16.5858 6.41421 16.25 6 16.25H4ZM4 11.25C3.58579 11.25 3.25 11.5858 3.25 12C3.25 12.4142 3.58579 12.75 4 12.75H6C6.41421 12.75 6.75 12.4142 6.75 12C6.75 11.5858 6.41421 11.25 6 11.25H4ZM4 6.25C3.58579 6.25 3.25 6.58579 3.25 7C3.25 7.41421 3.58579 7.75 4 7.75H6C6.41421 7.75 6.75 7.41421 6.75 7C6.75 6.58579 6.41421 6.25 6 6.25H4Z" fill="currentColor" />
</svg>