<svg xmlns="http://www.w3.org/2000/svg" width="24" height="24" viewBox="0 0 24 24" fill="none">
<path d="M10 2H9.5C7.17029 2 6.00544 2 5.08658 2.3806C3.86144 2.88807 2.88807 3.86144 2.3806 5.08658C2 6.00544 2 7.17029 2 9.5V14C2 16.8003 2 18.2004 2.54497 19.27C3.02433 20.2108 3.78924 20.9757 4.73005 21.455C5.79961 22 7.19974 22 10 22H14C16.8003 22 18.2004 22 19.27 21.455C20.2108 20.9757 20.9757 20.2108 21.455 19.27C22 18.2004 22 16.8003 22 14V9.5C22 7.17029 22 6.00544 21.6194 5.08658C21.1119 3.86144 20.1386 2.88807 18.9134 2.3806C17.9946 2 16.8297 2 14.5 2H14M8 21.5V2.99996V2.5M16 2.5V21.5001M2.5 12H10M14 12H21.5M5 7H8M16 7H19M16 17H19M5 17H8" stroke="currentColor" stroke-width={1.5} stroke-linecap="round" stroke-linejoin="round" />
</svg>