<svg xmlns="http://www.w3.org/2000/svg" width="24" height="24" viewBox="0 0 24 24" fill="none">
<path d="M12 2C17.5228 2 22 6.47715 22 12C22 17.5228 17.5228 22 12 22C6.47715 22 2 17.5228 2 12C2 6.47715 6.47715 2 12 2ZM12 16.75C11.3096 16.75 10.75 17.3096 10.75 18C10.75 18.6904 11.3096 19.25 12 19.25C12.6904 19.25 13.25 18.6904 13.25 18C13.25 17.3096 12.6904 16.75 12 16.75ZM12 9.25C10.4812 9.25 9.25 10.4812 9.25 12C9.25 13.5188 10.4812 14.75 12 14.75C13.5188 14.75 14.75 13.5188 14.75 12C14.75 10.4812 13.5188 9.25 12 9.25ZM6 10.75C5.30964 10.75 4.75 11.3096 4.75 12C4.75 12.6904 5.30964 13.25 6 13.25C6.69036 13.25 7.25 12.6904 7.25 12C7.25 11.3096 6.69036 10.75 6 10.75ZM18 10.75C17.3096 10.75 16.75 11.3096 16.75 12C16.75 12.6904 17.3096 13.25 18 13.25C18.6904 13.25 19.25 12.6904 19.25 12C19.25 11.3096 18.6904 10.75 18 10.75ZM12 4.75C11.3096 4.75 10.75 5.30964 10.75 6C10.75 6.69036 11.3096 7.25 12 7.25C12.6904 7.25 13.25 6.69036 13.25 6C13.25 5.30964 12.6904 4.75 12 4.75Z" fill="currentColor" />
</svg>