<svg xmlns="http://www.w3.org/2000/svg" width="24" height="24" viewBox="0 0 24 24" fill="none">
<path opacity={0.32} d="M1.25 6.25V14.75C1.25 17.5503 1.25 18.9504 1.79497 20.02C2.27433 20.9608 3.03924 21.7257 3.98005 22.205C5.04961 22.75 6.44974 22.75 9.25 22.75H14.75C17.5503 22.75 18.9504 22.75 20.02 22.205C20.9608 21.7257 21.7257 20.9608 22.205 20.02C22.75 18.9504 22.75 17.5503 22.75 14.75V6.25H1.25Z" fill="currentColor" /><path d="M7 15.75C7.69032 15.75 8.24994 16.3097 8.25 17C8.25 17.6904 7.69036 18.25 7 18.25C6.30964 18.25 5.75 17.6904 5.75 17C5.75006 16.3097 6.30968 15.75 7 15.75ZM17.4541 1.25C20.3787 1.25 22.7499 3.62135 22.75 6.5459C22.7498 7.2108 22.2108 7.74976 21.5459 7.75H2.4541C1.7892 7.74976 1.25024 7.2108 1.25 6.5459C1.25006 3.62135 3.62134 1.25 6.5459 1.25H17.4541ZM4.9707 3.0918C3.74561 3.6513 2.87111 4.84301 2.7627 6.25H6.72559L4.9707 3.0918ZM6.49707 2.75098L8.44141 6.25H12.1748L10.0752 2.75H6.5459C6.52974 2.75 6.51318 2.75078 6.49707 2.75098ZM13.9248 6.25H17.6748L15.6572 2.88574L15.6211 2.81836C15.6105 2.79586 15.6009 2.77304 15.5928 2.75H11.8252L13.9248 6.25ZM19.4248 6.25H21.2373C21.0864 4.29201 19.4508 2.75 17.4541 2.75H17.3252L19.4248 6.25Z" fill="currentColor" />
</svg>