<svg xmlns="http://www.w3.org/2000/svg" width="24" height="24" viewBox="0 0 24 24" fill="none">
<path d="M14 1.25C15.3876 1.25 16.4734 1.24915 17.3447 1.32031C18.2248 1.39222 18.9522 1.54164 19.6104 1.87695C20.6922 2.42821 21.5718 3.30778 22.123 4.38965C22.4584 5.04775 22.6078 5.77518 22.6797 6.65527C22.7509 7.52658 22.75 8.61249 22.75 10V14C22.75 15.3875 22.7508 16.4734 22.6797 17.3447C22.6078 18.2248 22.4583 18.9522 22.123 19.6104C21.5718 20.6923 20.6922 21.5718 19.6104 22.123C18.9522 22.4584 18.2249 22.6078 17.3447 22.6797C16.4734 22.7509 15.3876 22.75 14 22.75H10C8.61244 22.75 7.5266 22.7509 6.65527 22.6797C5.77514 22.6078 5.04778 22.4584 4.38965 22.123C3.30776 21.5718 2.42821 20.6923 1.87695 19.6104C1.54165 18.9522 1.39222 18.2248 1.32031 17.3447C1.24916 16.4734 1.25 15.3875 1.25 14V10C1.25 8.61249 1.24915 7.52658 1.32031 6.65527C1.39223 5.77518 1.54163 5.04775 1.87695 4.38965C2.42823 3.30778 3.30777 2.42821 4.38965 1.87695C5.04777 1.54164 5.77515 1.39222 6.65527 1.32031C7.5266 1.24915 8.61244 1.25 10 1.25H14ZM7.5 15C6.67157 15 6 15.6716 6 16.5C6 17.3284 6.67157 18 7.5 18C8.32843 18 9 17.3284 9 16.5C9 15.6716 8.32843 15 7.5 15ZM5.0459 3.22559C4.25749 3.63376 3.61618 4.27888 3.21289 5.07031C3.0542 5.38175 2.94476 5.74867 2.87305 6.25H6.72559L5.0459 3.22559ZM10 2.75C8.58766 2.75 7.57344 2.75041 6.77734 2.81543C6.69713 2.82198 6.61952 2.8291 6.54492 2.83691L8.44141 6.25H12.1748L10.0752 2.75H10ZM13.9248 6.25H17.6748L15.6572 2.88574L15.6211 2.81836C15.6116 2.79814 15.6033 2.7775 15.5957 2.75684C15.1262 2.75176 14.5989 2.75 14 2.75H11.8252L13.9248 6.25ZM19.4248 6.25H21.127C21.0552 5.74867 20.9458 5.38175 20.7871 5.07031C20.3797 4.2707 19.7293 3.62033 18.9297 3.21289C18.5449 3.01682 18.0755 2.89655 17.3721 2.8291L19.4248 6.25Z" fill="currentColor" />
</svg>