<svg xmlns="http://www.w3.org/2000/svg" width="40" height="40" viewBox="0 0 40 40" fill="none">
<path d="M25 3.33331H32.2753C33.7801 3.33331 35 4.55319 35 6.05799C35 9.57773 33.3002 12.8808 30.436 14.9266L27.2222 17.2222C26.1521 17.9866 25.617 18.3688 25.1851 18.8198C24.2921 19.7523 23.689 20.9241 23.4493 22.1928C23.3333 22.8063 23.3333 23.4639 23.3333 24.779V33.3333C23.3333 35.1743 21.8409 36.6666 20 36.6666C18.1591 36.6666 16.6667 35.1743 16.6667 33.3333V24.779C16.6667 23.4639 16.6667 22.8063 16.5507 22.1928C16.311 20.9241 15.7079 19.7523 14.8149 18.8198C14.383 18.3688 13.8479 17.9866 12.7778 17.2222L9.56395 14.9266C6.69982 12.8808 5 9.57773 5 6.05799C5 4.55319 6.21988 3.33331 7.72467 3.33331H16.6667" stroke="currentColor" stroke-width={3} stroke-linecap="round" stroke-linejoin="round" />
</svg>