<svg xmlns="http://www.w3.org/2000/svg" width="40" height="40" viewBox="0 0 40 40" fill="none">
<path d="M7.0937 2.08331C7.08407 2.08331 7.07926 2.08331 7.07519 2.08332C5.2406 2.0878 3.75449 3.57392 3.75001 5.40851C3.75 5.41258 3.75 5.41739 3.75 5.42701C3.75 5.4478 3.75 5.4582 3.75001 5.46805C3.75636 9.76016 5.82852 13.7868 9.31747 16.2867C9.32547 16.2924 9.33393 16.2984 9.35085 16.3105L14.5671 20.0364C15.1003 20.4172 15.4167 21.0321 15.4167 21.6872V33.3333C15.4167 35.8646 17.4687 37.9166 20 37.9166C22.5313 37.9166 24.5833 35.8646 24.5833 33.3333V21.6872C24.5833 21.0321 24.8997 20.4172 25.4329 20.0364L30.6491 16.3105C30.6661 16.2984 30.6745 16.2924 30.6825 16.2867C34.1715 13.7868 36.2436 9.76016 36.25 5.46805C36.25 5.4582 36.25 5.4478 36.25 5.42701C36.25 5.41739 36.25 5.41258 36.25 5.40851C36.2455 3.57392 34.7594 2.0878 32.9248 2.08332C32.9207 2.08331 32.9159 2.08331 32.9063 2.08331H7.0937Z" fill="currentColor" />
</svg>