<svg xmlns="http://www.w3.org/2000/svg" width="40" height="40" viewBox="0 0 40 40" fill="none">
<path d="M32.2753 3.33331H7.72467C6.21988 3.33331 5 4.55319 5 6.05799C5 9.57773 6.69982 12.8808 9.56395 14.9266L12.7778 17.2222L12.7778 17.2222C13.848 17.9866 14.383 18.3688 14.8149 18.8198C15.7079 19.7523 16.311 20.9241 16.5507 22.1928C16.6667 22.8063 16.6667 23.4639 16.6667 24.779V33.3333C16.6667 35.1743 18.159 36.6666 20 36.6666C21.841 36.6666 23.3333 35.1743 23.3333 33.3333V24.779C23.3333 23.4639 23.3333 22.8063 23.4493 22.1928C23.689 20.9241 24.2921 19.7523 25.1851 18.8198C25.617 18.3688 26.152 17.9866 27.2222 17.2222L27.2222 17.2222L30.436 14.9266C33.3002 12.8808 35 9.57773 35 6.05799C35 4.55319 33.7801 3.33331 32.2753 3.33331Z" stroke="currentColor" stroke-width={3} stroke-linecap="round" stroke-linejoin="round" />
</svg>