<svg xmlns="http://www.w3.org/2000/svg" width="24" height="24" viewBox="0 0 24 24" fill="none">
<path opacity={0.32} d="M9.25 1.25C6.44974 1.25 5.04961 1.25 3.98005 1.79497C3.03924 2.27433 2.27433 3.03924 1.79497 3.98005C1.25 5.04961 1.25 6.44974 1.25 9.25V14.75C1.25 17.5503 1.25 18.9504 1.79497 20.02C2.27433 20.9608 3.03924 21.7257 3.98005 22.205C5.04961 22.75 6.44974 22.75 9.25 22.75H14.75C17.5503 22.75 18.9504 22.75 20.02 22.205C20.9608 21.7257 21.7257 20.9608 22.205 20.02C22.75 18.9504 22.75 17.5503 22.75 14.75V9.25C22.75 6.44974 22.75 5.04961 22.205 3.98005C21.7257 3.03924 20.9608 2.27433 20.02 1.79497C18.9504 1.25 17.5503 1.25 14.75 1.25H9.25Z" fill="currentColor" /><path d="M6.79492 6.60352C7.06787 6.3391 7.50182 6.31932 7.79883 6.56934C8.11559 6.83611 8.15636 7.30913 7.88965 7.62598L7.75879 7.78809C7.12218 8.6113 6.75 9.62232 6.75 10.7139V13.5703C6.75 15.7449 8.23726 17.6231 10.3486 18.2842C10.7438 18.4079 10.9643 18.8284 10.8408 19.2236C10.7249 19.5941 10.3479 19.8115 9.97559 19.7354L9.90137 19.7158L9.65234 19.6328C7.10054 18.726 5.25 16.3697 5.25 13.5703V10.7139C5.25 9.17595 5.81174 7.76561 6.74219 6.66016L6.79492 6.60352ZM18 12.8203C18.4141 12.8203 18.7498 13.1563 18.75 13.5703C18.75 16.4598 16.778 18.8772 14.0986 19.7158C13.7034 19.8393 13.2829 19.6188 13.1592 19.2236C13.0357 18.8284 13.2562 18.4079 13.6514 18.2842C15.7627 17.6231 17.25 15.7449 17.25 13.5703C17.2502 13.1563 17.5859 12.8203 18 12.8203ZM14.1895 8.70508C14.515 8.49319 14.9442 8.56599 15.1826 8.8623L15.2275 8.92383L15.3447 9.11816C15.6024 9.58027 15.75 10.1073 15.75 10.667V13.333C15.75 15.3006 13.9856 16.75 12 16.75C11.4177 16.75 10.8627 16.629 10.3662 16.4102L10.1572 16.3105L10.0908 16.2715C9.77202 16.0644 9.65543 15.6452 9.83301 15.2998C10.0107 14.9546 10.4196 14.8054 10.7734 14.9443L10.8428 14.9766L10.9717 15.0371C11.2774 15.1719 11.6261 15.25 12 15.25C13.3281 15.25 14.25 14.3109 14.25 13.333V10.667C14.25 10.3353 14.1507 10.0203 13.9697 9.74219C13.7441 9.39513 13.8426 8.931 14.1895 8.70508ZM12 7.25C12.4142 7.25 12.75 7.58579 12.75 8C12.75 8.41421 12.4142 8.75 12 8.75C10.6719 8.75 9.75 9.68905 9.75 10.667V13.333C9.75 13.7472 9.41421 14.083 9 14.083C8.58579 14.083 8.25 13.7472 8.25 13.333V10.667C8.25 8.69941 10.0144 7.25 12 7.25ZM12 10.25C12.4142 10.25 12.75 10.5858 12.75 11V13C12.75 13.4142 12.4142 13.75 12 13.75C11.5858 13.75 11.25 13.4142 11.25 13V11C11.25 10.5858 11.5858 10.25 12 10.25ZM12 4.25C15.693 4.25 18.75 7.10988 18.75 10.7139C18.75 11.1281 18.4142 11.4639 18 11.4639C17.5858 11.4639 17.25 11.1281 17.25 10.7139C17.25 8.00655 14.9345 5.75 12 5.75C11.2975 5.75 10.6292 5.88023 10.0195 6.11523C9.63318 6.26402 9.19885 6.07179 9.0498 5.68555C8.90082 5.29905 9.09398 4.86481 9.48047 4.71582C10.2605 4.41516 11.1112 4.25 12 4.25Z" fill="currentColor" />
</svg>