<svg xmlns="http://www.w3.org/2000/svg" width="24" height="24" viewBox="0 0 24 24" fill="none">
<path d="M14.75 1.25C17.55 1.25 18.95 1.25013 20.0195 1.79492C20.9603 2.27429 21.7257 3.03966 22.2051 3.98047C22.7499 5.04998 22.75 6.45005 22.75 9.25V14.75C22.75 17.55 22.7499 18.95 22.2051 20.0195C21.7257 20.9603 20.9603 21.7257 20.0195 22.2051C18.95 22.7499 17.55 22.75 14.75 22.75H9.25C6.45005 22.75 5.04998 22.7499 3.98047 22.2051C3.03966 21.7257 2.27429 20.9603 1.79492 20.0195C1.25013 18.95 1.25 17.55 1.25 14.75V9.25C1.25 6.45005 1.25013 5.04998 1.79492 3.98047C2.27429 3.03966 3.03966 2.27429 3.98047 1.79492C5.04998 1.25013 6.45005 1.25 9.25 1.25H14.75ZM6.84668 7.22656C6.51431 6.97955 6.04498 7.04855 5.79785 7.38086C4.82589 8.68793 4.25009 10.3126 4.25 12.0703C4.25 15.8491 6.90719 19.008 10.4492 19.7344C10.855 19.8176 11.2518 19.5562 11.335 19.1504C11.4179 18.7449 11.1564 18.349 10.751 18.2656C7.90283 17.6816 5.75 15.133 5.75 12.0703C5.75009 10.6448 6.21556 9.3316 7.00098 8.27539C7.24805 7.94301 7.17903 7.4737 6.84668 7.22656ZM18.4365 14.9551C18.0771 14.7493 17.619 14.8741 17.4131 15.2334C16.5302 16.775 15.0234 17.9018 13.249 18.2656C12.8436 18.349 12.5821 18.7449 12.665 19.1504C12.7482 19.5562 13.145 19.8176 13.5508 19.7344C15.7607 19.2812 17.624 17.8815 18.7139 15.9785C18.9197 15.6191 18.7959 15.161 18.4365 14.9551ZM14.667 9.01855L14.166 9.57715C14.8321 10.1733 15.25 11.0375 15.25 12C15.25 13.7949 13.7949 15.25 12 15.25C11.7141 15.25 11.4377 15.2133 11.1748 15.1445L10.917 15.0654L10.8428 15.043C10.4735 14.9534 10.0894 15.1565 9.95996 15.5225C9.83056 15.8886 10.002 16.2879 10.3457 16.4502L10.417 16.4795L10.6045 16.541C11.0466 16.6767 11.5153 16.75 12 16.75C14.6234 16.75 16.75 14.6234 16.75 12C16.75 10.5932 16.1374 9.32864 15.167 8.45996L14.667 9.01855ZM12 7.25C9.37665 7.25 7.25 9.37665 7.25 12C7.25 12.97 7.54156 13.8742 8.04199 14.627C8.27133 14.9719 8.7371 15.0653 9.08203 14.8359C9.4053 14.6208 9.50772 14.1985 9.33008 13.8623L9.29102 13.7969L9.16992 13.5986C8.90278 13.127 8.75 12.5823 8.75 12C8.75 10.2051 10.2051 8.75 12 8.75C12.4142 8.75 12.75 8.41421 12.75 8C12.75 7.58579 12.4142 7.25 12 7.25ZM12 10.25C11.5858 10.25 11.25 10.5858 11.25 11V13C11.25 13.4142 11.5858 13.75 12 13.75C12.4142 13.75 12.75 13.4142 12.75 13V11C12.75 10.5858 12.4142 10.25 12 10.25ZM12 4.25C10.8981 4.25 9.8483 4.48274 8.89746 4.90234C8.51851 5.06959 8.34643 5.51265 8.51367 5.8916C8.68102 6.27034 9.12408 6.44161 9.50293 6.27441C10.2669 5.93726 11.1109 5.75 12 5.75C15.4446 5.75 18.2498 8.57254 18.25 12.0703C18.25 12.4845 18.5858 12.8203 19 12.8203C19.4142 12.8203 19.75 12.4845 19.75 12.0703C19.7498 7.75836 16.2872 4.25 12 4.25ZM15.167 8.45996C14.8583 8.18372 14.3837 8.20991 14.1074 8.51855C13.8316 8.82708 13.8578 9.30095 14.166 9.57715L15.167 8.45996Z" fill="currentColor" />
</svg>