<svg xmlns="http://www.w3.org/2000/svg" width="24" height="24" viewBox="0 0 24 24" fill="none">
<path opacity={0.4} d="M18 10.7138C18 7.55816 15.3137 5 12 5C11.2043 5 10.4448 5.14749 9.75 5.41533M13.875 19C16.2704 18.2502 18 16.1028 18 13.5707M10.125 19C7.72955 18.2502 6 16.1028 6 13.5707V10.7138C6 9.36257 6.49254 8.12088 7.31597 7.14268M12 11V13M9 13.3333V10.6667C9 9.19391 10.3431 8 12 8M14.5987 9.33333C14.8539 9.72556 15 10.181 15 10.6667V13.3333C15 14.8061 13.6569 16 12 16C11.4536 16 10.9413 15.8701 10.5 15.6432" stroke="currentColor" stroke-width={1.5} stroke-linecap="round" stroke-linejoin="round" /><rect x={2} y={2} width={20} height={20} rx={5} stroke="currentColor" stroke-width={1.5} stroke-linecap="round" stroke-linejoin="round" />
</svg>