<svg xmlns="http://www.w3.org/2000/svg" width="24" height="24" viewBox="0 0 24 24" fill="none">
<path opacity={0.4} d="M19 12.0707C19 8.16567 15.866 5 12 5C11.0045 5 10.0574 5.20993 9.2 5.58835M6.39949 7.82829C5.52072 9.01003 5 10.479 5 12.0707C5 15.4915 7.40486 18.3449 10.6 19M18.0635 15.6061C17.0772 17.3284 15.3922 18.5915 13.4 19M12 8C9.79086 8 8 9.79086 8 12C8 12.8178 8.24544 13.5783 8.66667 14.2119M14.6667 9.01852C15.485 9.75095 16 10.8153 16 12C16 14.2091 14.2091 16 12 16C11.5325 16 11.0837 15.9198 10.6667 15.7724M12 11V13" stroke="currentColor" stroke-width={1.5} stroke-linecap="round" stroke-linejoin="round" /><rect x={2} y={2} width={20} height={20} rx={5} stroke="currentColor" stroke-width={1.5} stroke-linecap="round" stroke-linejoin="round" />
</svg>