<svg xmlns="http://www.w3.org/2000/svg" width="24" height="24" viewBox="0 0 24 24" fill="none">
<path d="M14.75 1.25C17.55 1.25 18.95 1.25013 20.0195 1.79492C20.9603 2.27429 21.7257 3.03966 22.2051 3.98047C22.7499 5.04998 22.75 6.45005 22.75 9.25V14.75C22.75 17.55 22.7499 18.95 22.2051 20.0195C21.7257 20.9603 20.9603 21.7257 20.0195 22.2051C18.95 22.7499 17.55 22.75 14.75 22.75H9.25C6.45005 22.75 5.04998 22.7499 3.98047 22.2051C3.03966 21.7257 2.27429 20.9603 1.79492 20.0195C1.25013 18.95 1.25 17.55 1.25 14.75V9.25C1.25 6.45005 1.25013 5.04998 1.79492 3.98047C2.27429 3.03966 3.03966 2.27429 3.98047 1.79492C5.04998 1.25013 6.45005 1.25 9.25 1.25H14.75ZM7.79883 6.56934C7.50182 6.31932 7.06787 6.3391 6.79492 6.60352L6.74219 6.66016C5.81174 7.76561 5.25 9.17595 5.25 10.7139V13.5703C5.25 16.3697 7.10054 18.726 9.65234 19.6328L9.90137 19.7158L9.97559 19.7354C10.3479 19.8115 10.7249 19.5941 10.8408 19.2236C10.9643 18.8284 10.7438 18.4079 10.3486 18.2842C8.23726 17.6231 6.75 15.7449 6.75 13.5703V10.7139C6.75 9.62232 7.12218 8.6113 7.75879 7.78809L7.88965 7.62598C8.15636 7.30913 8.11559 6.83611 7.79883 6.56934ZM18 12.8203C17.5859 12.8203 17.2502 13.1563 17.25 13.5703C17.25 15.7449 15.7627 17.6231 13.6514 18.2842C13.2562 18.4079 13.0357 18.8284 13.1592 19.2236C13.2829 19.6188 13.7034 19.8393 14.0986 19.7158C16.778 18.8772 18.75 16.4598 18.75 13.5703C18.7498 13.1563 18.4141 12.8203 18 12.8203ZM15.1826 8.8623C14.9442 8.56599 14.515 8.49319 14.1895 8.70508C13.8426 8.931 13.7441 9.39513 13.9697 9.74219C14.1507 10.0203 14.25 10.3353 14.25 10.667V13.333C14.25 14.3109 13.3281 15.25 12 15.25C11.6261 15.25 11.2774 15.1719 10.9717 15.0371L10.8428 14.9766L10.7734 14.9443C10.4196 14.8054 10.0107 14.9546 9.83301 15.2998C9.65543 15.6452 9.77202 16.0644 10.0908 16.2715L10.1572 16.3105L10.3662 16.4102C10.8627 16.629 11.4177 16.75 12 16.75C13.9856 16.75 15.75 15.3006 15.75 13.333V10.667C15.75 10.1073 15.6024 9.58027 15.3447 9.11816L15.2275 8.92383L15.1826 8.8623ZM12 7.25C10.0144 7.25 8.25 8.69941 8.25 10.667V13.333C8.25 13.7472 8.58579 14.083 9 14.083C9.41421 14.083 9.75 13.7472 9.75 13.333V10.667C9.75 9.68905 10.6719 8.75 12 8.75C12.4142 8.75 12.75 8.41421 12.75 8C12.75 7.58579 12.4142 7.25 12 7.25ZM12 10.25C11.5858 10.25 11.25 10.5858 11.25 11V13C11.25 13.4142 11.5858 13.75 12 13.75C12.4142 13.75 12.75 13.4142 12.75 13V11C12.75 10.5858 12.4142 10.25 12 10.25ZM12 4.25C11.1112 4.25 10.2605 4.41516 9.48047 4.71582C9.09398 4.86481 8.90082 5.29905 9.0498 5.68555C9.19885 6.07179 9.63318 6.26402 10.0195 6.11523C10.6292 5.88023 11.2975 5.75 12 5.75C14.9345 5.75 17.25 8.00655 17.25 10.7139C17.25 11.1281 17.5858 11.4639 18 11.4639C18.4142 11.4639 18.75 11.1281 18.75 10.7139C18.75 7.10988 15.693 4.25 12 4.25Z" fill="currentColor" />
</svg>