<svg xmlns="http://www.w3.org/2000/svg" width="24" height="24" viewBox="0 0 24 24" fill="none">
<path d="M9.5 2L9 2C8.07116 2 7.60674 2 7.21684 2.05133C4.52444 2.40579 2.40579 4.52444 2.05133 7.21684C2 7.60674 2 8.07116 2 9L2 12.4C2 15.7603 2 17.4405 2.65396 18.7239C3.2292 19.8529 4.14709 20.7708 5.27606 21.346C6.55953 22 8.23969 22 11.6 22H12.4C15.7603 22 17.4405 22 18.7239 21.346C19.8529 20.7708 20.7708 19.8529 21.346 18.7239C22 17.4405 22 15.7603 22 12.4V9C22 8.07116 22 7.60674 21.9487 7.21684C21.5942 4.52444 19.4756 2.40579 16.7832 2.05133C16.3933 2 15.9288 2 15 2L14.5 2M19 12.0707C19 8.16567 15.866 5 12 5C11.0045 5 10.0574 5.20993 9.2 5.58835M6.39949 7.82829C5.52072 9.01003 5 10.479 5 12.0707C5 15.4915 7.40486 18.3449 10.6 19M18.0635 15.6061C17.0772 17.3284 15.3922 18.5915 13.4 19M12 8C9.79086 8 8 9.79086 8 12C8 12.8178 8.24543 13.5783 8.66667 14.2119M14.6667 9.01852C15.485 9.75095 16 10.8153 16 12C16 14.2091 14.2091 16 12 16C11.5325 16 11.0837 15.9198 10.6667 15.7724M12 11V13" stroke="currentColor" stroke-width={1.5} stroke-linecap="round" stroke-linejoin="round" />
</svg>