<svg xmlns="http://www.w3.org/2000/svg" width="24" height="24" viewBox="0 0 24 24" fill="none">
<path d="M9.5 2L9 2C8.07116 2 7.60674 2 7.21684 2.05133C4.52444 2.40579 2.40579 4.52444 2.05133 7.21684C2 7.60674 2 8.07116 2 9L2 12.4C2 15.7603 2 17.4405 2.65396 18.7239C3.2292 19.8529 4.14709 20.7708 5.27606 21.346C6.55953 22 8.23969 22 11.6 22H12.4C15.7603 22 17.4405 22 18.7239 21.346C19.8529 20.7708 20.7708 19.8529 21.346 18.7239C22 17.4405 22 15.7603 22 12.4V9C22 8.07116 22 7.60674 21.9487 7.21684C21.5942 4.52444 19.4756 2.40579 16.7832 2.05133C16.3933 2 15.9288 2 15 2L14.5 2M18 10.7138C18 7.55816 15.3137 5 12 5C11.2043 5 10.4448 5.14749 9.75 5.41533M13.875 19C16.2704 18.2502 18 16.1028 18 13.5707M10.125 19C7.72955 18.2502 6 16.1028 6 13.5707V10.7138C6 9.36257 6.49254 8.12088 7.31597 7.14268M12 11V13M9 13.3333V10.6667C9 9.19391 10.3431 8 12 8M14.5987 9.33333C14.8539 9.72556 15 10.181 15 10.6667V13.3333C15 14.8061 13.6569 16 12 16C11.4536 16 10.9413 15.8701 10.5 15.6432" stroke="currentColor" stroke-width={1.5} stroke-linecap="round" stroke-linejoin="round" />
</svg>