<svg xmlns="http://www.w3.org/2000/svg" width="24" height="24" viewBox="0 0 24 24" fill="none">
<path opacity={0.32} d="M9.25 1.25C6.44974 1.25 5.04961 1.25 3.98005 1.79497C3.03924 2.27433 2.27433 3.03924 1.79497 3.98005C1.25 5.04961 1.25 6.44974 1.25 9.25V14.75C1.25 17.5503 1.25 18.9504 1.79497 20.02C2.27433 20.9608 3.03924 21.7257 3.98005 22.205C5.04961 22.75 6.44974 22.75 9.25 22.75H14.75C17.5503 22.75 18.9504 22.75 20.02 22.205C20.9608 21.7257 21.7257 20.9608 22.205 20.02C22.75 18.9504 22.75 17.5503 22.75 14.75V9.25C22.75 6.44974 22.75 5.04961 22.205 3.98005C21.7257 3.03924 20.9608 2.27433 20.02 1.79497C18.9504 1.25 17.5503 1.25 14.75 1.25H9.25Z" fill="currentColor" /><path d="M5.79785 7.38086C6.04498 7.04855 6.51431 6.97955 6.84668 7.22656C7.17903 7.4737 7.24805 7.94301 7.00098 8.27539C6.21556 9.3316 5.75009 10.6448 5.75 12.0703C5.75 15.133 7.90283 17.6816 10.751 18.2656C11.1564 18.349 11.4179 18.7448 11.335 19.1504C11.2518 19.5562 10.855 19.8176 10.4492 19.7344C6.90719 19.008 4.25 15.8491 4.25 12.0703C4.25009 10.3126 4.82589 8.68793 5.79785 7.38086ZM17.4131 15.2334C17.619 14.8741 18.0771 14.7493 18.4365 14.9551C18.7959 15.161 18.9197 15.6191 18.7139 15.9785C17.624 17.8815 15.7607 19.2812 13.5508 19.7344C13.145 19.8176 12.7482 19.5562 12.665 19.1504C12.5821 18.7449 12.8436 18.349 13.249 18.2656C15.0234 17.9018 16.5302 16.775 17.4131 15.2334ZM15.167 8.45996C16.1374 9.32864 16.75 10.5932 16.75 12C16.75 14.6234 14.6234 16.75 12 16.75C11.5153 16.75 11.0466 16.6767 10.6045 16.541L10.417 16.4795L10.3457 16.4502C10.002 16.2879 9.83056 15.8886 9.95996 15.5225C10.0894 15.1565 10.4735 14.9534 10.8428 15.043L10.917 15.0654L11.1748 15.1445C11.4377 15.2133 11.7141 15.25 12 15.25C13.7949 15.25 15.25 13.7949 15.25 12C15.25 11.0375 14.8321 10.1733 14.166 9.57715L14.667 9.01855L15.167 8.45996ZM12 7.25C12.4142 7.25 12.75 7.58579 12.75 8C12.75 8.41421 12.4142 8.75 12 8.75C10.2051 8.75 8.75 10.2051 8.75 12C8.75 12.5823 8.90278 13.127 9.16992 13.5986L9.29102 13.7969L9.33008 13.8623C9.50772 14.1985 9.4053 14.6208 9.08203 14.8359C8.7371 15.0653 8.27133 14.9719 8.04199 14.627C7.54156 13.8742 7.25 12.97 7.25 12C7.25 9.37665 9.37665 7.25 12 7.25ZM12 10.25C12.4142 10.25 12.75 10.5858 12.75 11V13C12.75 13.4142 12.4142 13.75 12 13.75C11.5858 13.75 11.25 13.4142 11.25 13V11C11.25 10.5858 11.5858 10.25 12 10.25ZM12 4.25C16.2872 4.25 19.7498 7.75836 19.75 12.0703C19.75 12.4845 19.4142 12.8203 19 12.8203C18.5858 12.8203 18.25 12.4845 18.25 12.0703C18.2498 8.57254 15.4446 5.75 12 5.75C11.1109 5.75 10.2669 5.93726 9.50293 6.27441C9.12408 6.44161 8.68102 6.27034 8.51367 5.8916C8.34643 5.51265 8.51851 5.06959 8.89746 4.90234C9.8483 4.48274 10.8981 4.25 12 4.25ZM14.1074 8.51855C14.3837 8.20991 14.8583 8.18372 15.167 8.45996L14.166 9.57715C13.8578 9.30095 13.8316 8.82708 14.1074 8.51855Z" fill="currentColor" />
</svg>