<svg xmlns="http://www.w3.org/2000/svg" width="24" height="24" viewBox="0 0 24 24" fill="none">
<path d="M14.75 1.25C17.55 1.25 18.95 1.25014 20.0195 1.79493C20.9603 2.27429 21.7257 3.03966 22.2051 3.98047C22.7499 5.04999 22.75 6.45005 22.75 9.25L22.75 14.75C22.75 17.55 22.7499 18.95 22.2051 20.0195C21.7257 20.9603 20.9603 21.7257 20.0195 22.2051C18.95 22.7499 17.5499 22.75 14.75 22.75L9.25 22.75C6.45004 22.75 5.04998 22.7499 3.98047 22.2051C3.03965 21.7257 2.27429 20.9603 1.79492 20.0195C1.25013 18.95 1.25 17.55 1.25 14.75L1.25 9.25C1.25 6.45005 1.25013 5.04998 1.79492 3.98047C2.27429 3.03966 3.03966 2.27429 3.98047 1.79492C5.04998 1.25013 6.45005 1.25 9.25 1.25L14.75 1.25ZM6 17.25C5.58589 17.2501 5.25008 17.5859 5.25 18C5.25 18.4142 5.58583 18.7499 6 18.75L18 18.75L18.0771 18.7461C18.4551 18.7075 18.75 18.3882 18.75 18C18.7499 17.5859 18.4142 17.25 18 17.25L6 17.25ZM6 13.25C5.58589 13.2501 5.25008 13.5859 5.25 14C5.25 14.4142 5.58584 14.7499 6 14.75L18 14.75C18.4142 14.75 18.75 14.4142 18.75 14C18.7499 13.5859 18.4142 13.25 18 13.25L6 13.25ZM7.65039 5.25C6.81031 5.25 6.3902 5.25057 6.06934 5.41406C5.78711 5.55786 5.55787 5.78712 5.41406 6.06934C5.25057 6.3902 5.25 6.81031 5.25 7.65039L5.25 8.35059C5.25 9.19021 5.2507 9.60988 5.41406 9.93066C5.55787 10.2129 5.78709 10.4431 6.06933 10.5869C6.39017 10.7503 6.81055 10.75 7.65039 10.75L8.35058 10.75C9.18996 10.75 9.60991 10.7501 9.93066 10.5869C10.2129 10.4431 10.4431 10.2129 10.5869 9.93067C10.7501 9.60992 10.75 9.18995 10.75 8.35059L10.75 7.65039C10.75 6.81054 10.7503 6.39017 10.5869 6.06934C10.4431 5.78709 10.2129 5.55787 9.93066 5.41406C9.60988 5.25069 9.1902 5.25 8.35059 5.25L7.65039 5.25ZM14 9.25C13.5859 9.25006 13.2501 9.58589 13.25 10C13.25 10.4142 13.5858 10.7499 14 10.75L18 10.75L18.0771 10.7461C18.4551 10.7075 18.75 10.3882 18.75 10C18.7499 9.58586 18.4142 9.25 18 9.25L14 9.25ZM14 5.25C13.5859 5.25006 13.2501 5.58589 13.25 6C13.25 6.41418 13.5858 6.74994 14 6.75L18 6.75L18.0771 6.7461C18.4551 6.70748 18.75 6.38817 18.75 6C18.7499 5.6119 18.4551 5.29253 18.0771 5.25391L18 5.25L14 5.25Z" fill="currentColor" />
</svg>