<svg xmlns="http://www.w3.org/2000/svg" width="24" height="24" viewBox="0 0 24 24" fill="none">
<path d="M3 21.0001H21M13 3.00012L21 3.00012M13 9.00012L21 9.00012M3 15.0001H21M5.4 9.00012H6.6C7.44008 9.00012 7.86012 9.00012 8.18099 8.83663C8.46323 8.69282 8.6927 8.46335 8.83651 8.18111C9 7.86024 9 7.4402 9 6.60012V5.40012C9 4.56004 9 4.14 8.83651 3.81914C8.6927 3.53689 8.46323 3.30742 8.18099 3.16361C7.86012 3.00012 7.44008 3.00012 6.6 3.00012H5.4C4.55992 3.00012 4.13988 3.00012 3.81901 3.16361C3.53677 3.30742 3.3073 3.53689 3.16349 3.81914C3 4.14 3 4.56004 3 5.40012V6.60012C3 7.4402 3 7.86024 3.16349 8.18111C3.3073 8.46335 3.53677 8.69282 3.81901 8.83663C4.13988 9.00012 4.55992 9.00012 5.4 9.00012Z" stroke="currentColor" stroke-width={1.5} stroke-linecap="round" stroke-linejoin="round" />
</svg>