<svg xmlns="http://www.w3.org/2000/svg" width="24" height="24" viewBox="0 0 24 24" fill="none">
<path d="M5 1C5.55228 1 6 1.44772 6 2V2.71875L6.07715 2.7002C8.0507 2.20684 10.1394 2.51782 11.8838 3.56445C13.3032 4.41601 15.0244 4.60449 16.5947 4.08105L19.6836 3.05176C19.9885 2.95011 20.3242 3.00053 20.585 3.18848C20.8457 3.37643 21 3.67857 21 4V15C21 15.4303 20.7246 15.812 20.3164 15.9482L17.2266 16.9785C15.1023 17.6865 12.7745 17.4313 10.8545 16.2793C9.56503 15.5056 8.02136 15.276 6.5625 15.6406L6 15.7803V22C6 22.5523 5.55228 23 5 23C4.44772 23 4 22.5523 4 22V2C4 1.44772 4.44772 1 5 1Z" fill="currentColor" />
</svg>