<svg xmlns="http://www.w3.org/2000/svg" width="24" height="24" viewBox="0 0 24 24" fill="none">
<path d="M5 1C5.55228 1 6 1.44772 6 2V3H20L20.1289 3.00781C20.4251 3.04626 20.6912 3.21672 20.8506 3.47461C21.0327 3.76939 21.0495 4.13735 20.8945 4.44727L19.3252 7.58496C18.7746 8.68622 18.5948 9.06682 18.5234 9.44727C18.455 9.81257 18.455 10.1874 18.5234 10.5527C18.5948 10.9332 18.7746 11.3138 19.3252 12.415L20.8945 15.5527C21.0495 15.8626 21.0327 16.2306 20.8506 16.5254C20.6684 16.8202 20.3466 17 20 17H6V22C6 22.5523 5.55228 23 5 23C4.44772 23 4 22.5523 4 22V2C4 1.44772 4.44772 1 5 1Z" fill="currentColor" />
</svg>