<svg xmlns="http://www.w3.org/2000/svg" width="24" height="24" viewBox="0 0 24 24" fill="none">
<path d="M5 1.25C5.41421 1.25 5.75 1.58579 5.75 2V3.26172C7.4405 3.31676 8.73795 3.55852 9.8252 3.91113C11.0634 4.3127 11.999 4.84972 12.8721 5.34863C13.7489 5.84969 14.5635 6.31272 15.6377 6.66113C16.7074 7.00808 18.0652 7.25 20 7.25C20.2308 7.25 20.4487 7.35628 20.5908 7.53809C20.7329 7.72006 20.7835 7.95765 20.7275 8.18164C20.181 10.3678 19.0605 11.7289 17.6104 12.5703C16.2022 13.3873 14.5375 13.6814 12.9648 13.8701C11.3352 14.0657 9.84155 14.1495 8.51562 14.4922C7.30005 14.8064 6.36412 15.309 5.75 16.2188V22C5.75 22.4142 5.41421 22.75 5 22.75C4.58579 22.75 4.25 22.4142 4.25 22V2C4.25 1.58579 4.58579 1.25 5 1.25Z" fill="currentColor" />
</svg>