<svg xmlns="http://www.w3.org/2000/svg" width="24" height="24" viewBox="0 0 24 24" fill="none">
<path d="M17.7788 1.36407C18.5479 0.983075 19.4511 0.983197 20.2202 1.36407C20.6523 1.57819 21.0275 1.96725 21.5298 2.46954C22.032 2.97183 22.421 3.34708 22.6352 3.77911C23.0163 4.54828 23.0162 5.45133 22.6352 6.22051C22.4211 6.65269 22.0322 7.02765 21.5298 7.53008L19.9809 9.07794C20.319 9.5151 20.5522 9.90816 20.6997 10.3221C21.0863 11.4074 21.0863 12.5933 20.6997 13.6785C20.3216 14.7394 19.3905 15.6694 17.5298 17.5301L15.5298 19.5301C13.669 21.3908 12.7391 22.3219 11.6782 22.7C10.5929 23.0867 9.40703 23.0866 8.32175 22.7C7.26075 22.322 6.33003 21.3909 4.46921 19.5301C2.60876 17.6696 1.67833 16.7393 1.30026 15.6785C0.913579 14.5932 0.91359 13.4074 1.30026 12.3221C1.67828 11.2611 2.60839 10.3304 4.46921 8.46954L6.46921 6.46954C8.33002 4.60872 9.26076 3.67861 10.3217 3.30059C11.4071 2.91392 12.5929 2.91391 13.6782 3.30059C14.0915 3.44789 14.4849 3.67911 14.9214 4.01641L16.4692 2.46954C16.9716 1.96715 17.3466 1.57825 17.7788 1.36407ZM7.56003 13.5008C7.26712 13.208 6.79233 13.2079 6.49948 13.5008C6.20693 13.7937 6.20681 14.2685 6.49948 14.5613L9.43893 17.5008C9.73172 17.7936 10.2066 17.7934 10.4995 17.5008C10.7924 17.2079 10.7924 16.7331 10.4995 16.4402L7.56003 13.5008ZM19.5542 2.70782C19.2048 2.53498 18.7942 2.53486 18.4448 2.70782C18.2888 2.78515 18.1177 2.94217 17.5298 3.53008L16.0483 5.01055C16.4746 5.41711 16.9591 5.89886 17.5298 6.46954C18.0998 7.03963 18.5815 7.52406 18.9878 7.95001L20.4692 6.46954C21.0573 5.88147 21.2142 5.71051 21.2915 5.5545C21.4644 5.20503 21.4645 4.79457 21.2915 4.44512C21.2141 4.28921 21.0568 4.11771 20.4692 3.53008C19.8814 2.94226 19.7101 2.78512 19.5542 2.70782Z" fill="currentColor" />
</svg>