<svg xmlns="http://www.w3.org/2000/svg" width="24" height="24" viewBox="0 0 24 24" fill="none">
<path d="M8.31631 1.25004C9.07775 1.25004 9.59051 1.2446 10.0644 1.3643C10.8117 1.55318 11.483 1.96793 11.9862 2.5518C12.3053 2.92213 12.5304 3.38328 12.871 4.06449C13.1279 4.57822 13.202 4.7155 13.289 4.81644C13.4567 5.011 13.6805 5.14899 13.9296 5.21195C14.0588 5.2446 14.2146 5.25004 14.789 5.25004H15.1249C16.1155 5.25004 16.9493 5.25214 17.6532 5.28519L21.4696 1.46976C21.7625 1.17698 22.2373 1.17698 22.5302 1.46976C22.823 1.76263 22.823 2.23741 22.5302 2.53031L1.53018 23.5303C1.23728 23.8232 0.762523 23.8232 0.46963 23.5303C0.176817 23.2374 0.176763 22.7626 0.46963 22.4698L2.16397 20.7745C1.7411 20.1338 1.52237 19.3754 1.40322 18.4893C1.2485 17.3385 1.2499 15.8644 1.2499 14V7.56254C1.2499 6.37785 1.24848 5.42472 1.33584 4.66801C1.42504 3.89548 1.61511 3.23265 2.0624 2.66898C2.24067 2.44435 2.44421 2.2408 2.66885 2.06254C3.23252 1.61525 3.89534 1.42517 4.66787 1.33598C5.42459 1.24862 6.3777 1.25004 7.5624 1.25004H8.31631ZM20.9774 7.2266C21.3272 7.00507 21.7909 7.10846 22.0126 7.45805C22.4117 8.08812 22.5857 8.80175 22.6688 9.65336C22.7508 10.4933 22.7499 11.545 22.7499 12.875V14C22.7499 15.8644 22.7513 17.3385 22.5966 18.4893C22.4389 19.6616 22.1066 20.6101 21.3583 21.3584C20.61 22.1067 19.6615 22.4391 18.4892 22.5967C17.3383 22.7514 15.8643 22.75 13.9999 22.75H6.9999C6.58569 22.75 6.2499 22.4143 6.2499 22C6.24992 21.5858 6.5857 21.25 6.9999 21.25H13.9999C15.9067 21.25 17.2613 21.2485 18.289 21.1104C19.2951 20.9751 19.8745 20.7211 20.2978 20.2979C20.721 19.8747 20.975 19.2952 21.1103 18.2891C21.2484 17.2615 21.2499 15.9068 21.2499 14V12.875C21.2499 11.5152 21.2489 10.549 21.1757 9.79887C21.1126 9.15296 21.0006 8.72802 20.8251 8.3975L20.746 8.26078L20.7079 8.19437C20.538 7.85447 20.6497 7.43451 20.9774 7.2266Z" fill="currentColor" />
</svg>