<svg xmlns="http://www.w3.org/2000/svg" width="24" height="24" viewBox="0 0 24 24" fill="none">
<path d="M2 9.00006V8.50018V6.80006C2 5.1199 2 4.27982 2.32698 3.63809C2.6146 3.0736 3.07354 2.61466 3.63803 2.32704C4.27976 2.00006 5.11984 2.00006 6.8 2.00006H8.31672C9.11834 2.00006 9.51916 2.00006 9.88103 2.09153C10.4791 2.24268 11.016 2.5745 11.4186 3.0418C11.6623 3.32457 11.8415 3.68307 12.2 4.40006C12.439 4.87806 12.5585 5.11706 12.7209 5.30557C12.9894 5.6171 13.3473 5.83832 13.746 5.93908C13.9872 6.00006 14.2544 6.00006 14.7889 6.00006H16.4999C17.8956 6.00006 18.5934 6.00006 19.1612 6.17233C20.4396 6.56014 21.4399 7.5605 21.8277 8.83883C22 9.40667 22 10.1045 22 11.5002V12.0001M2 13.0003V13.5002V15.6001C2 17.8403 2 18.9604 2.43597 19.816C2.81947 20.5687 3.43139 21.1806 4.18404 21.5641C5.03968 22.0001 6.15979 22.0001 8.4 22.0001H16.5001C17.8956 22.0001 18.5933 22.0001 19.161 21.8279C20.4395 21.4401 21.44 20.4396 21.8278 19.1611C22 18.5934 22 17.8956 22 16.5002V16.0001M18 6.50006V7.00006C18 8.10463 17.1046 9.00006 16 9.00006C14.8954 9.00006 14 8.10463 14 7.00006V6.00006M16 13.0001V14.0001M16 17.0001V18.0001" stroke="currentColor" stroke-width={1.5} stroke-linecap="round" stroke-linejoin="round" />
</svg>