<svg xmlns="http://www.w3.org/2000/svg" width="24" height="24" viewBox="0 0 24 24" fill="none">
<path d="M8.78027 1.24997C9.58188 1.24997 9.98285 1.2503 10.3447 1.34177C10.9427 1.49295 11.4792 1.82473 11.8818 2.29196C12.1255 2.57473 12.3046 2.93337 12.6631 3.65036C12.902 4.12827 13.0222 4.36714 13.1846 4.55563C13.453 4.86709 13.8113 5.08867 14.21 5.18942C14.451 5.25025 14.7182 5.24997 15.252 5.24997H16.3496C18.5898 5.24997 19.7108 5.24954 20.5664 5.68552C21.3189 6.06898 21.931 6.68106 22.3145 7.43356C22.7504 8.28921 22.75 9.41015 22.75 11.6504V16.3496C22.75 18.5898 22.7504 19.7107 22.3145 20.5664C21.931 21.3189 21.3189 21.931 20.5664 22.3144C19.7108 22.7504 18.5898 22.75 16.3496 22.75H7.65039C5.41018 22.75 4.28924 22.7504 3.43359 22.3144C2.68109 21.931 2.06902 21.3189 1.68555 20.5664C1.24957 19.7107 1.25 18.5898 1.25 16.3496V6.04977C1.25 4.36975 1.25018 3.52938 1.57715 2.88766C1.86472 2.32344 2.32347 1.86469 2.8877 1.57712C3.52941 1.25015 4.36978 1.24997 6.0498 1.24997H8.78027ZM12 10.25C11.5858 10.25 11.25 10.5858 11.25 11V15.1894L10.0303 13.9697L9.97363 13.9179C9.67905 13.6776 9.24433 13.6951 8.96973 13.9697C8.67683 14.2626 8.67683 14.7373 8.96973 15.0302L11.4697 17.5302C11.7626 17.8231 12.2374 17.8231 12.5303 17.5302L15.0303 15.0302C15.3232 14.7373 15.3232 14.2626 15.0303 13.9697C14.7374 13.6768 14.2626 13.6768 13.9697 13.9697L12.75 15.1894V11C12.75 10.5858 12.4142 10.25 12 10.25Z" fill="currentColor" />
</svg>