<svg xmlns="http://www.w3.org/2000/svg" width="24" height="24" viewBox="0 0 24 24" fill="none">
<path d="M2 9.00003V8.50015V6.80003C2 5.11987 2 4.27979 2.32698 3.63806C2.6146 3.07357 3.07354 2.61463 3.63803 2.32701C4.27976 2.00003 5.11984 2.00003 6.8 2.00003H8.31672C9.11834 2.00003 9.51916 2.00003 9.88103 2.0915C10.4791 2.24265 11.016 2.57447 11.4186 3.04177C11.6623 3.32454 11.8415 3.68304 12.2 4.40003C12.439 4.87803 12.5585 5.11703 12.7209 5.30554C12.9894 5.61707 13.3473 5.83829 13.746 5.93905C13.9872 6.00003 14.2544 6.00003 14.7889 6.00003H16.4999C17.8956 6.00003 18.5934 6.00003 19.1612 6.1723C20.4396 6.56011 21.4399 7.56047 21.8277 8.8388C22 9.40664 22 10.1045 22 11.5002V12M2 13.0003V13.5002V15.6C2 17.8402 2 18.9603 2.43597 19.816C2.81947 20.5686 3.43139 21.1806 4.18404 21.5641C5.03968 22 6.15979 22 8.4 22H16.5001C17.8956 22 18.5933 22 19.161 21.8278C20.4395 21.44 21.44 20.4396 21.8278 19.1611C22 18.5933 22 17.8956 22 16.5002V16M12 17.0005V11.0005M12 11.0005L14.5 13.5005M12 11.0005L9.5 13.5005" stroke="currentColor" stroke-width={1.5} stroke-linecap="round" stroke-linejoin="round" />
</svg>