<svg xmlns="http://www.w3.org/2000/svg" width="24" height="24" viewBox="0 0 24 24" fill="none">
<path d="M8.78027 1.24996C9.58188 1.24996 9.98285 1.25029 10.3447 1.34176C10.9427 1.49294 11.4792 1.82472 11.8818 2.29195C12.1255 2.57472 12.3046 2.93336 12.6631 3.65035C12.902 4.12826 13.0222 4.36713 13.1846 4.55563C13.453 4.86708 13.8113 5.08866 14.21 5.18941C14.451 5.25024 14.7182 5.24996 15.252 5.24996H16.3496C18.5898 5.24996 19.7108 5.24953 20.5664 5.68551C21.3189 6.06898 21.931 6.68105 22.3145 7.43356C22.7504 8.2892 22.75 9.41014 22.75 11.6504V16.3496C22.75 18.5898 22.7504 19.7107 22.3145 20.5664C21.931 21.3189 21.3189 21.9309 20.5664 22.3144C19.7108 22.7504 18.5898 22.75 16.3496 22.75H7.65039C5.41018 22.75 4.28924 22.7504 3.43359 22.3144C2.68109 21.9309 2.06902 21.3189 1.68555 20.5664C1.24957 19.7107 1.25 18.5898 1.25 16.3496V6.04977C1.25 4.36974 1.25018 3.52937 1.57715 2.88766C1.86472 2.32343 2.32347 1.86468 2.8877 1.57711C3.52941 1.25014 4.36978 1.24996 6.0498 1.24996H8.78027ZM9 13.25C8.58579 13.25 8.25 13.5857 8.25 14C8.25 14.4142 8.58579 14.75 9 14.75H15C15.4142 14.75 15.75 14.4142 15.75 14C15.75 13.5857 15.4142 13.25 15 13.25H9Z" fill="currentColor" />
</svg>