<svg xmlns="http://www.w3.org/2000/svg" width="24" height="24" viewBox="0 0 24 24" fill="none">
<path d="M8.78027 1.25C9.58188 1.25 9.98285 1.25033 10.3447 1.3418C10.9427 1.49298 11.4792 1.82476 11.8818 2.29199C12.1255 2.57476 12.3046 2.9334 12.6631 3.65039C12.902 4.1283 13.0222 4.36717 13.1846 4.55566C13.453 4.86712 13.8113 5.0887 14.21 5.18945C14.451 5.25028 14.7182 5.25 15.252 5.25H16.3496C18.5898 5.25 19.7108 5.24957 20.5664 5.68555C21.3189 6.06902 21.931 6.68109 22.3145 7.43359C22.7504 8.28924 22.75 9.41018 22.75 11.6504V16.3496C22.75 18.5898 22.7504 19.7108 22.3145 20.5664C21.931 21.3189 21.3189 21.931 20.5664 22.3145C19.7108 22.7504 18.5898 22.75 16.3496 22.75H7.65039C5.41018 22.75 4.28924 22.7504 3.43359 22.3145C2.68109 21.931 2.06902 21.3189 1.68555 20.5664C1.24957 19.7108 1.25 18.5898 1.25 16.3496V6.0498C1.25 4.36978 1.25018 3.52941 1.57715 2.8877C1.86472 2.32347 2.32347 1.86472 2.8877 1.57715C3.52941 1.25018 4.36978 1.25 6.0498 1.25H8.78027ZM13.5303 9.46973C13.3158 9.25526 12.9931 9.19062 12.7129 9.30664C12.4326 9.42273 12.25 9.69665 12.25 10V13.0527C11.8747 12.8607 11.4506 12.75 11 12.75C9.48122 12.75 8.25 13.9812 8.25 15.5C8.25001 17.0188 9.48122 18.25 11 18.25C12.5187 18.25 13.75 17.0188 13.75 15.5V11.8105L14.4697 12.5303L14.5264 12.582C14.8209 12.8223 15.2557 12.8049 15.5303 12.5303C15.8048 12.2557 15.8223 11.8209 15.582 11.5264L15.5303 11.4697L13.5303 9.46973ZM11 14.25C11.6903 14.25 12.25 14.8097 12.25 15.5C12.25 16.1903 11.6903 16.75 11 16.75C10.3097 16.75 9.75001 16.1903 9.75 15.5C9.75 14.8096 10.3096 14.25 11 14.25Z" fill="currentColor" />
</svg>