<svg xmlns="http://www.w3.org/2000/svg" width="24" height="24" viewBox="0 0 24 24" fill="none">
<path d="M2 9.00004V8.50016V6.80004C2 5.11988 2 4.2798 2.32698 3.63807C2.6146 3.07358 3.07354 2.61464 3.63803 2.32702C4.27976 2.00004 5.11984 2.00004 6.8 2.00004H8.31672C9.11834 2.00004 9.51916 2.00004 9.88103 2.0915C10.4791 2.24266 11.016 2.57448 11.4186 3.04178C11.6623 3.32455 11.8415 3.68304 12.2 4.40004C12.439 4.87803 12.5585 5.11703 12.7209 5.30555C12.9894 5.61708 13.3473 5.83829 13.746 5.93906C13.9872 6.00004 14.2544 6.00004 14.7889 6.00004H16.4999C17.8956 6.00004 18.5934 6.00004 19.1612 6.1723C20.4396 6.56012 21.4399 7.56048 21.8277 8.83881C22 9.40665 22 10.1045 22 11.5002V12M2 13.0003V13.5002V15.6C2 17.8402 2 18.9604 2.43597 19.816C2.81947 20.5686 3.43139 21.1806 4.18404 21.5641C5.03968 22 6.15979 22 8.4 22H16.5001C17.8956 22 18.5933 22 19.161 21.8278C20.4395 21.44 21.44 20.4396 21.8278 19.1611C22 18.5933 22 17.8956 22 16.5002V16M9.5 16.5L12 14M12 14L14.5 11.5M12 14L9.5 11.5M12 14L14.5 16.5" stroke="currentColor" stroke-width={1.5} stroke-linecap="round" stroke-linejoin="round" />
</svg>