<svg xmlns="http://www.w3.org/2000/svg" width="24" height="24" viewBox="0 0 24 24" fill="none">
<path d="M3.17157 20.8284C2 19.6569 2 17.7712 2 14V13.0001M21.3793 7.85975C21.9287 8.72728 21.9918 9.88084 21.9991 12.0001M22 2.00012L17.9493 6.05087M1 23.0001L17.9493 6.05087M17.9493 6.05087C17.2079 6 16.2932 6 15.1246 6H14.7889C14.2544 6 13.9872 6 13.746 5.93902C13.3473 5.83825 12.9894 5.61704 12.7209 5.30551C12.5585 5.11699 12.439 4.878 12.2 4.4C11.8415 3.683 11.6623 3.32451 11.4186 3.04174C11.016 2.57444 10.4791 2.24262 9.88103 2.09146C9.51916 2 9.11834 2 8.31672 2H7.56231C5.15695 2 3.95427 2 3.13514 2.65004C2.95542 2.79266 2.79266 2.95542 2.65004 3.13514C2 3.95427 2 5.15695 2 7.56231V9.00012M7 22C9.33333 22 11.6667 22 14 22C17.7712 22 19.6569 22 20.8284 20.8284C21.7715 19.8854 21.9554 18.4796 21.9913 16.0001" stroke="currentColor" stroke-width={1.5} stroke-linecap="round" stroke-linejoin="round" />
</svg>