<svg xmlns="http://www.w3.org/2000/svg" width="24" height="24" viewBox="0 0 24 24" fill="none">
<path d="M8.78027 1.24994C9.58188 1.24994 9.98285 1.25027 10.3447 1.34174C10.9427 1.49292 11.4792 1.8247 11.8818 2.29193C12.1255 2.5747 12.3046 2.93333 12.6631 3.65033C12.902 4.12824 13.0222 4.36711 13.1846 4.5556C13.453 4.86706 13.8113 5.08864 14.21 5.18939C14.451 5.25022 14.7182 5.24994 15.252 5.24994H16.3496C18.5898 5.24994 19.7108 5.24951 20.5664 5.68549C21.3189 6.06895 21.931 6.68103 22.3145 7.43353C22.7504 8.28918 22.75 9.41012 22.75 11.6503V16.3495C22.75 18.5898 22.7504 19.7107 22.3145 20.5663C21.931 21.3189 21.3189 21.9309 20.5664 22.3144C19.7108 22.7504 18.5898 22.7499 16.3496 22.7499H7.65039C5.41018 22.7499 4.28924 22.7504 3.43359 22.3144C2.68109 21.9309 2.06902 21.3189 1.68555 20.5663C1.24957 19.7107 1.25 18.5898 1.25 16.3495V6.04974C1.25 4.36972 1.25018 3.52934 1.57715 2.88763C1.86472 2.32341 2.32347 1.86466 2.8877 1.57709C3.52941 1.25012 4.36978 1.24994 6.0498 1.24994H8.78027ZM10 10.2499C7.92893 10.2499 6.25 11.9289 6.25 13.9999C6.25 16.071 7.92893 17.7499 10 17.7499H14C15.5188 17.7499 16.75 16.5187 16.75 14.9999C16.75 13.4812 15.5188 12.2499 14 12.2499C13.7776 12.2499 13.5611 12.277 13.3535 12.3271C12.7385 11.0965 11.47 10.2499 10 10.2499ZM10 11.7499C11.065 11.7499 11.9591 12.4911 12.1914 13.4863C12.2469 13.7233 12.414 13.9191 12.6396 14.0107C12.8653 14.1022 13.1212 14.0777 13.3262 13.9462C13.5201 13.8218 13.7506 13.7499 14 13.7499C14.6904 13.7499 15.25 14.3096 15.25 14.9999C15.25 15.6903 14.6904 16.2499 14 16.2499H10C8.75736 16.2499 7.75 15.2426 7.75 13.9999C7.75 12.7573 8.75736 11.7499 10 11.7499Z" fill="currentColor" />
</svg>