<svg xmlns="http://www.w3.org/2000/svg" width="24" height="24" viewBox="0 0 24 24" fill="none">
<path d="M8.78027 1.24994C9.58188 1.24994 9.98285 1.25027 10.3447 1.34174C10.9427 1.49292 11.4792 1.8247 11.8818 2.29193C12.1255 2.5747 12.3046 2.93333 12.6631 3.65033C12.902 4.12824 13.0222 4.36711 13.1846 4.5556C13.2055 4.57991 13.228 4.60273 13.25 4.62592V6.99994C13.25 8.51872 14.4812 9.74994 16 9.74994C17.5188 9.74991 18.75 8.5187 18.75 6.99994V5.29095C19.5343 5.33885 20.0914 5.44347 20.5664 5.68549C21.3189 6.06895 21.931 6.68103 22.3145 7.43353C22.7504 8.28918 22.75 9.41012 22.75 11.6503V16.3495C22.75 18.5898 22.7504 19.7107 22.3145 20.5663C21.931 21.3189 21.3189 21.9309 20.5664 22.3144C19.7108 22.7504 18.5898 22.7499 16.3496 22.7499H7.65039C5.41018 22.7499 4.28924 22.7504 3.43359 22.3144C2.68109 21.9309 2.06902 21.3189 1.68555 20.5663C1.24957 19.7107 1.25 18.5898 1.25 16.3495V6.04974C1.25 4.36972 1.25018 3.52934 1.57715 2.88763C1.86472 2.32341 2.32347 1.86466 2.8877 1.57709C3.52941 1.25012 4.36978 1.24994 6.0498 1.24994H8.78027ZM16 16.2499C15.5858 16.2499 15.25 16.5857 15.25 16.9999V17.9999C15.25 18.4142 15.5858 18.7499 16 18.7499C16.4142 18.7499 16.75 18.4141 16.75 17.9999V16.9999C16.75 16.5857 16.4142 16.25 16 16.2499ZM16 12.2499C15.5858 12.25 15.25 12.5857 15.25 12.9999V13.9999C15.25 14.4141 15.5858 14.7499 16 14.7499C16.4142 14.7499 16.75 14.4141 16.75 13.9999V12.9999C16.75 12.5857 16.4142 12.25 16 12.2499ZM15.252 5.24994H16.3496C16.672 5.24994 16.9715 5.25255 17.25 5.25385V6.99994C17.25 7.69027 16.6903 8.24991 16 8.24994C15.3096 8.24994 14.75 7.69029 14.75 6.99994V5.2431C14.8881 5.24635 15.0511 5.24994 15.252 5.24994Z" fill="currentColor" />
</svg>