<svg xmlns="http://www.w3.org/2000/svg" width="24" height="24" viewBox="0 0 24 24" fill="none">
<path d="M8.78027 1.25C9.58188 1.25 9.98285 1.25033 10.3447 1.3418C10.9427 1.49298 11.4792 1.82476 11.8818 2.29199C12.1255 2.57476 12.3046 2.9334 12.6631 3.65039C12.902 4.1283 13.0222 4.36717 13.1846 4.55566C13.453 4.86712 13.8113 5.0887 14.21 5.18945C14.451 5.25028 14.7182 5.25 15.252 5.25H16.3496C18.5898 5.25 19.7108 5.24957 20.5664 5.68555C21.3189 6.06902 21.931 6.68109 22.3145 7.43359C22.7504 8.28924 22.75 9.41018 22.75 11.6504V16.3496C22.75 18.5898 22.7504 19.7108 22.3145 20.5664C21.931 21.3189 21.3189 21.931 20.5664 22.3145C19.7108 22.7504 18.5898 22.75 16.3496 22.75H7.65039C5.41018 22.75 4.28924 22.7504 3.43359 22.3145C2.68109 21.931 2.06902 21.3189 1.68555 20.5664C1.24957 19.7108 1.25 18.5898 1.25 16.3496V6.0498C1.25 4.36978 1.25018 3.52941 1.57715 2.8877C1.86472 2.32347 2.32347 1.86472 2.8877 1.57715C3.52941 1.25018 4.36978 1.25 6.0498 1.25H8.78027ZM12 10.25C9.92893 10.25 8.25 11.9289 8.25 14C8.25 16.0711 9.92893 17.75 12 17.75C14.0711 17.75 15.75 16.0711 15.75 14C15.75 11.9289 14.0711 10.25 12 10.25ZM12 11.75C13.2426 11.75 14.25 12.7574 14.25 14C14.25 15.2426 13.2426 16.25 12 16.25C10.7574 16.25 9.75 15.2426 9.75 14C9.75 12.7574 10.7574 11.75 12 11.75ZM17.5 9.25C16.8096 9.25 16.25 9.80964 16.25 10.5C16.25 11.1904 16.8096 11.75 17.5 11.75C18.1904 11.75 18.75 11.1904 18.75 10.5C18.75 9.80964 18.1904 9.25 17.5 9.25Z" fill="currentColor" />
</svg>