<svg xmlns="http://www.w3.org/2000/svg" width="24" height="24" viewBox="0 0 24 24" fill="none">
<path d="M8.78027 1.25C9.58188 1.25 9.98285 1.25033 10.3447 1.3418C10.9427 1.49298 11.4792 1.82476 11.8818 2.29199C12.1255 2.57476 12.3046 2.9334 12.6631 3.65039C12.902 4.1283 13.0222 4.36717 13.1846 4.55566C13.453 4.86712 13.8113 5.0887 14.21 5.18945C14.451 5.25028 14.7182 5.25 15.252 5.25H16.3496C18.5898 5.25 19.7108 5.24957 20.5664 5.68555C21.3189 6.06902 21.931 6.68109 22.3145 7.43359C22.7504 8.28924 22.75 9.41018 22.75 11.6504V16.3496C22.75 18.5898 22.7504 19.7108 22.3145 20.5664C21.931 21.3189 21.3189 21.931 20.5664 22.3145C19.7108 22.7504 18.5898 22.75 16.3496 22.75H7.65039C5.41018 22.75 4.28924 22.7504 3.43359 22.3145C2.68109 21.931 2.06902 21.3189 1.68555 20.5664C1.24957 19.7108 1.25 18.5898 1.25 16.3496V6.0498C1.25 4.36978 1.25018 3.52941 1.57715 2.8877C1.86472 2.32347 2.32347 1.86472 2.8877 1.57715C3.52941 1.25018 4.36978 1.25 6.0498 1.25H8.78027ZM16.0303 10.9697C14.9187 9.85819 13.1235 9.84927 12 10.9414C10.8765 9.84927 9.08126 9.85819 7.96973 10.9697C6.84841 12.091 6.84841 13.909 7.96973 15.0303L10.4697 17.5303C11.3149 18.3755 12.6851 18.3755 13.5303 17.5303L16.0303 15.0303C17.1516 13.909 17.1516 12.091 16.0303 10.9697ZM13.0303 12.0303C13.5658 11.4947 14.4342 11.4947 14.9697 12.0303C15.5053 12.5658 15.5053 13.4342 14.9697 13.9697L12.4697 16.4697C12.2103 16.7291 11.7897 16.7291 11.5303 16.4697L9.03027 13.9697C8.49474 13.4342 8.49474 12.5658 9.03027 12.0303C9.56581 11.4947 10.4342 11.4947 10.9697 12.0303L11.4697 12.5303C11.7626 12.8232 12.2374 12.8232 12.5303 12.5303L13.0303 12.0303Z" fill="currentColor" />
</svg>