<svg xmlns="http://www.w3.org/2000/svg" width="24" height="24" viewBox="0 0 24 24" fill="none">
<path d="M8.78027 1.24992C9.58188 1.24992 9.98285 1.25026 10.3447 1.34172C10.9427 1.4929 11.4792 1.82468 11.8818 2.29192C12.1255 2.57468 12.3046 2.93332 12.6631 3.65031C12.902 4.12822 13.0222 4.36709 13.1846 4.55559C13.453 4.86704 13.8113 5.08862 14.21 5.18938C14.451 5.2502 14.7182 5.24992 15.252 5.24992H16.3496C18.5898 5.24992 19.7108 5.2495 20.5664 5.68547C21.3189 6.06894 21.931 6.68101 22.3145 7.43352C22.7504 8.28916 22.75 9.4101 22.75 11.6503V16.3495C22.75 18.5897 22.7504 19.7107 22.3145 20.5663C21.931 21.3188 21.3189 21.9309 20.5664 22.3144C19.7108 22.7504 18.5898 22.7499 16.3496 22.7499H7.65039C5.41018 22.7499 4.28924 22.7504 3.43359 22.3144C2.68109 21.9309 2.06902 21.3188 1.68555 20.5663C1.24957 19.7107 1.25 18.5897 1.25 16.3495V6.04973C1.25 4.3697 1.25018 3.52933 1.57715 2.88762C1.86472 2.3234 2.32347 1.86465 2.8877 1.57707C3.52941 1.2501 4.36978 1.24992 6.0498 1.24992H8.78027ZM12 10.2499C11.5858 10.2499 11.25 10.5857 11.25 10.9999V13.2499H9C8.5858 13.2499 8.25002 13.5857 8.25 13.9999C8.25 14.4141 8.58579 14.7499 9 14.7499H11.25V16.9999C11.25 17.4141 11.5858 17.7499 12 17.7499C12.4142 17.7499 12.75 17.4141 12.75 16.9999V14.7499H15C15.4142 14.7499 15.75 14.4141 15.75 13.9999C15.75 13.5857 15.4142 13.2499 15 13.2499H12.75V10.9999C12.75 10.5857 12.4142 10.2499 12 10.2499Z" fill="currentColor" />
</svg>