<svg xmlns="http://www.w3.org/2000/svg" width="24" height="24" viewBox="0 0 24 24" fill="none">
<path d="M11.4307 9.25C9.98604 9.25 9.26374 9.25 8.6779 9.51281C8.16149 9.74447 7.72115 10.1175 7.40774 10.5888C7.0522 11.1235 6.93345 11.8359 6.69596 13.2609L5.42495 20.887C5.31812 21.5279 5.2647 21.8484 5.35748 22.0982C5.43889 22.3174 5.59453 22.5011 5.79734 22.6174C6.02846 22.75 6.35337 22.75 7.00318 22.75H17.5689C19.0135 22.75 19.7358 22.75 20.3217 22.4872C20.8381 22.2555 21.2784 21.8825 21.5918 21.4112C21.9474 20.8765 22.0661 20.1641 22.3036 18.7391L23.2641 12.9761C23.4778 11.6941 23.5846 11.0532 23.3991 10.5536C23.2362 10.1153 22.925 9.74781 22.5193 9.51514C22.0571 9.25 21.4073 9.25 20.1077 9.25H11.4307Z" fill="currentColor" /><path d="M1.24969 6.04951C1.24969 4.36935 1.24969 3.52928 1.57668 2.88754C1.8643 2.32305 2.32324 1.86411 2.88772 1.57649C3.52946 1.24951 4.36954 1.24951 6.04969 1.24951H7.77994C8.58156 1.24951 8.98238 1.24951 9.34425 1.34098C9.94229 1.49213 10.4792 1.82395 10.8818 2.29125C11.1255 2.57402 11.3047 2.93252 11.6632 3.64951C11.9022 4.12751 12.0217 4.36651 12.1841 4.55502C12.4526 4.86655 12.8105 5.08777 13.2092 5.18854C13.4505 5.24951 13.7177 5.24951 14.2521 5.24951H18.2492C19.6302 5.24951 20.7497 6.36901 20.7497 7.74999H11.5153C9.58913 7.74999 8.62605 7.74999 7.84494 8.1004C7.15639 8.40929 6.56927 8.90666 6.1514 9.53505C5.67734 10.2479 5.51901 11.1979 5.20235 13.0978L3.66109 22.3454C3.62222 22.5786 3.42047 22.7495 3.18407 22.7495C2.11575 22.7495 1.24969 21.8835 1.24969 20.8151V6.04951Z" fill="currentColor" />
</svg>