<svg xmlns="http://www.w3.org/2000/svg" width="24" height="24" viewBox="0 0 24 24" fill="none">
<circle opacity={0.12} cx={12} cy={12} r={10} fill="currentColor" /><path d="M22 12C22 17.5228 17.5228 22 12 22C6.47715 22 2 17.5228 2 12C2 6.47715 6.44444 2 12 2C18.6667 2 22 7.55556 22 7.55556V2.55556M9 9V15M13.5 15C12.6716 15 12 14.3284 12 13.5V10.5C12 9.67157 12.6716 9 13.5 9C14.3284 9 15 9.67157 15 10.5V13.5C15 14.3284 14.3284 15 13.5 15Z" stroke="currentColor" stroke-width={1.5} stroke-linecap="round" stroke-linejoin="round" />
</svg>