<svg xmlns="http://www.w3.org/2000/svg" width="24" height="24" viewBox="0 0 24 24" fill="none">
<path d="M14.75 1.25C17.55 1.25 18.95 1.25013 20.0195 1.79492C20.9603 2.27429 21.7257 3.03966 22.2051 3.98047C22.7499 5.04998 22.75 6.45005 22.75 9.25V14.75C22.75 17.55 22.7499 18.95 22.2051 20.0195C21.7257 20.9603 20.9603 21.7257 20.0195 22.2051C18.95 22.7499 17.55 22.75 14.75 22.75H9.25C6.45005 22.75 5.04998 22.7499 3.98047 22.2051C3.03966 21.7257 2.27429 20.9603 1.79492 20.0195C1.25013 18.95 1.25 17.55 1.25 14.75V9.25C1.25 6.45005 1.25013 5.04998 1.79492 3.98047C2.27429 3.03966 3.03966 2.27429 3.98047 1.79492C5.04998 1.25013 6.45005 1.25 9.25 1.25H14.75ZM11.5303 7.46973C11.2374 7.17683 10.7626 7.17683 10.4697 7.46973C10.1951 7.74433 10.1777 8.17905 10.418 8.47363L10.4697 8.53027L12.1895 10.25H9.2002C8.65252 10.25 8.19632 10.249 7.8252 10.2793C7.44546 10.3103 7.0891 10.3781 6.75195 10.5498C6.23451 10.8135 5.81346 11.2345 5.5498 11.752C5.37809 12.0891 5.31033 12.4455 5.2793 12.8252C5.24897 13.1963 5.25 13.6525 5.25 14.2002V16C5.25 16.4142 5.58579 16.75 6 16.75C6.41421 16.75 6.75 16.4142 6.75 16V14.2002C6.75 13.6278 6.75024 13.2431 6.77441 12.9473C6.79788 12.6603 6.84059 12.5232 6.88672 12.4326C7.00655 12.1975 7.1975 12.0065 7.43262 11.8867C7.52316 11.8406 7.66027 11.7979 7.94727 11.7744C8.24314 11.7502 8.62777 11.75 9.2002 11.75H12.1895L10.4697 13.4697C10.1768 13.7626 10.1768 14.2374 10.4697 14.5303C10.7626 14.8232 11.2374 14.8232 11.5303 14.5303L14.5303 11.5303C14.8232 11.2374 14.8232 10.7626 14.5303 10.4697L11.5303 7.46973ZM15.5303 7.46973C15.2374 7.17683 14.7626 7.17683 14.4697 7.46973C14.1951 7.74433 14.1777 8.17905 14.418 8.47363L14.4697 8.53027L16.9395 11L14.4697 13.4697C14.1768 13.7626 14.1768 14.2374 14.4697 14.5303C14.7626 14.8232 15.2374 14.8232 15.5303 14.5303L18.5303 11.5303C18.8232 11.2374 18.8232 10.7626 18.5303 10.4697L15.5303 7.46973Z" fill="currentColor" />
</svg>