<svg xmlns="http://www.w3.org/2000/svg" width="24" height="24" viewBox="0 0 24 24" fill="none">
<path opacity={0.4} d="M18.7101 10C18.8987 10.6337 19 11.305 19 12C19 15.866 15.866 19 12 19C8.13401 19 5 15.866 5 12C5 8.13401 8.13401 5 12 5C13.9587 5 15.7295 5.80447 17 7.10102L16 4M9.5 9.5V14.5M13 14.5C12.1716 14.5 11.5 13.8284 11.5 13V11C11.5 10.1716 12.1716 9.5 13 9.5C13.8284 9.5 14.5 10.1716 14.5 11V13C14.5 13.8284 13.8284 14.5 13 14.5Z" stroke="currentColor" stroke-width={1.5} stroke-linecap="round" stroke-linejoin="round" /><rect x={2} y={2} width={20} height={20} rx={5} stroke="currentColor" stroke-width={1.5} stroke-linecap="round" stroke-linejoin="round" />
</svg>