<svg xmlns="http://www.w3.org/2000/svg" width="24" height="24" viewBox="0 0 24 24" fill="none">
<path opacity={0.32} d="M9.25 1.25C6.44974 1.25 5.04961 1.25 3.98005 1.79497C3.03924 2.27433 2.27433 3.03924 1.79497 3.98005C1.25 5.04961 1.25 6.44974 1.25 9.25V14.75C1.25 17.5503 1.25 18.9504 1.79497 20.02C2.27433 20.9608 3.03924 21.7257 3.98005 22.205C5.04961 22.75 6.44974 22.75 9.25 22.75H14.75C17.5503 22.75 18.9504 22.75 20.02 22.205C20.9608 21.7257 21.7257 20.9608 22.205 20.02C22.75 18.9504 22.75 17.5503 22.75 14.75V9.25C22.75 6.44974 22.75 5.04961 22.205 3.98005C21.7257 3.03924 20.9608 2.27433 20.02 1.79497C18.9504 1.25 17.5503 1.25 14.75 1.25H9.25Z" fill="currentColor" /><path d="M15.7695 3.28635C16.1391 3.16721 16.5339 3.35033 16.6865 3.69846L16.7139 3.76975L17.7139 6.87131C17.8205 7.2023 17.6853 7.56348 17.3877 7.74338C17.09 7.92312 16.7073 7.87459 16.4639 7.62619C15.3286 6.46785 13.7488 5.75022 12 5.75022C8.54829 5.75022 5.75011 8.54853 5.75 12.0002C5.75 15.452 8.54822 18.2502 12 18.2502C15.4518 18.2502 18.25 15.452 18.25 12.0002C18.25 11.3785 18.1593 10.779 17.9912 10.2141C17.8733 9.8172 18.0992 9.39964 18.4961 9.28147C18.8683 9.17073 19.2586 9.36259 19.4033 9.71408L19.4287 9.78635L19.5029 10.052C19.6643 10.6751 19.75 11.3283 19.75 12.0002C19.75 16.2804 16.2802 19.7502 12 19.7502C7.71979 19.7502 4.25 16.2804 4.25 12.0002C4.25011 7.7201 7.71986 4.25022 12 4.25022C13.2893 4.25022 14.5046 4.56716 15.5742 5.12424L15.2861 4.23069L15.2666 4.15647C15.187 3.78479 15.4001 3.40563 15.7695 3.28635ZM9.5 8.75022C9.91415 8.75022 10.2499 9.0861 10.25 9.50022V14.5002C10.25 14.9144 9.91421 15.2502 9.5 15.2502C9.08579 15.2502 8.75 14.9144 8.75 14.5002V9.50022C8.75011 9.0861 9.08585 8.75022 9.5 8.75022ZM14.5 8.75022C14.9141 8.75022 15.2499 9.0861 15.25 9.50022C15.25 9.91443 14.9142 10.2502 14.5 10.2502H12.25V11.2502H14.5C14.9141 11.2502 15.2499 11.5861 15.25 12.0002V14.5002C15.25 14.9144 14.9142 15.2502 14.5 15.2502H11.5C11.0858 15.2502 10.75 14.9144 10.75 14.5002C10.7501 14.0861 11.0859 13.7502 11.5 13.7502H13.75V12.7502H11.5C11.0858 12.7502 10.75 12.4144 10.75 12.0002V9.50022C10.7501 9.0861 11.0859 8.75022 11.5 8.75022H14.5Z" fill="currentColor" />
</svg>