<svg xmlns="http://www.w3.org/2000/svg" width="24" height="24" viewBox="0 0 24 24" fill="none">
<path d="M14.75 1.25C17.55 1.25 18.95 1.25013 20.0195 1.79492C20.9603 2.27429 21.7257 3.03966 22.2051 3.98047C22.7499 5.04998 22.75 6.45005 22.75 9.25V14.75C22.75 17.55 22.7499 18.95 22.2051 20.0195C21.7257 20.9603 20.9603 21.7257 20.0195 22.2051C18.95 22.7499 17.55 22.75 14.75 22.75H9.25C6.45005 22.75 5.04998 22.7499 3.98047 22.2051C3.03966 21.7257 2.27429 20.9603 1.79492 20.0195C1.25013 18.95 1.25 17.55 1.25 14.75V9.25C1.25 6.45005 1.25013 5.04998 1.79492 3.98047C2.27429 3.03966 3.03966 2.27429 3.98047 1.79492C5.04998 1.25013 6.45005 1.25 9.25 1.25H14.75ZM15.5303 7.46973C15.2374 7.17683 14.7626 7.17683 14.4697 7.46973C14.1952 7.74433 14.1777 8.17907 14.418 8.47363L14.4697 8.53027L16.1895 10.25H10.667C9.90128 10.25 9.28497 10.2494 8.78613 10.2871C8.27944 10.3255 7.83263 10.4068 7.41504 10.6016C6.61618 10.9741 5.97414 11.6162 5.60156 12.415C5.40685 12.8326 5.32548 13.2795 5.28711 13.7861C5.24936 14.285 5.25 14.9013 5.25 15.667V16C5.25004 16.4142 5.58581 16.75 6 16.75C6.41419 16.75 6.74996 16.4142 6.75 16V15.667C6.75 14.8785 6.75073 14.3285 6.7832 13.8994C6.8151 13.4782 6.87459 13.234 6.96094 13.0488C7.18447 12.5696 7.56965 12.1845 8.04883 11.9609C8.23403 11.8746 8.47813 11.8151 8.89941 11.7832C9.32848 11.7507 9.87843 11.75 10.667 11.75H16.1895L14.4697 13.4697C14.1769 13.7626 14.1768 14.2374 14.4697 14.5303C14.7626 14.8231 15.2374 14.8231 15.5303 14.5303L18.5303 11.5303C18.6709 11.3896 18.75 11.1989 18.75 11C18.75 10.8011 18.6709 10.6104 18.5303 10.4697L15.5303 7.46973Z" fill="currentColor" />
</svg>