<svg xmlns="http://www.w3.org/2000/svg" width="24" height="24" viewBox="0 0 24 24" fill="none">
<path d="M22 2.55556V7.55556C22 7.55556 18.6667 2 12 2C6.44444 2 2 6.47715 2 12C2 17.5228 6.47715 22 12 22C13.8214 22 15.5291 21.513 17 20.6622M20.0007 18C21.2561 16.3287 22 14.2512 22 12M9 9V15M13.5 15C12.6716 15 12 14.3284 12 13.5V10.5C12 9.67157 12.6716 9 13.5 9C14.3284 9 15 9.67157 15 10.5V13.5C15 14.3284 14.3284 15 13.5 15Z" stroke="currentColor" stroke-width={1.5} stroke-linecap="round" stroke-linejoin="round" />
</svg>