<svg xmlns="http://www.w3.org/2000/svg" width="24" height="24" viewBox="0 0 24 24" fill="none">
<path d="M14.75 1.25C17.55 1.25 18.95 1.25013 20.0195 1.79492C20.9603 2.27429 21.7257 3.03966 22.2051 3.98047C22.7499 5.04998 22.75 6.45005 22.75 9.25V14.75C22.75 17.55 22.7499 18.95 22.2051 20.0195C21.7257 20.9603 20.9603 21.7257 20.0195 22.2051C18.95 22.7499 17.55 22.75 14.75 22.75H9.25C6.45005 22.75 5.04998 22.7499 3.98047 22.2051C3.03966 21.7257 2.27429 20.9603 1.79492 20.0195C1.25013 18.95 1.25 17.55 1.25 14.75V9.25C1.25 6.45005 1.25013 5.04998 1.79492 3.98047C2.27429 3.03966 3.03966 2.27429 3.98047 1.79492C5.04998 1.25013 6.45005 1.25 9.25 1.25H14.75ZM16.6865 3.69824C16.5339 3.34998 16.1392 3.16693 15.7695 3.28613C15.4 3.40543 15.1869 3.78451 15.2666 4.15625L15.2861 4.23047L15.5742 5.12402C14.5045 4.56692 13.2893 4.25 12 4.25C7.71979 4.25 4.25 7.71979 4.25 12C4.25 16.2802 7.71979 19.75 12 19.75C16.2802 19.75 19.75 16.2802 19.75 12C19.75 11.328 19.6643 10.675 19.5029 10.0518L19.4287 9.78613L19.4033 9.71387C19.2587 9.36225 18.8683 9.17046 18.4961 9.28125C18.0992 9.39944 17.8731 9.81692 17.9912 10.2139C18.1594 10.7789 18.25 11.3782 18.25 12C18.25 15.4518 15.4518 18.25 12 18.25C8.54822 18.25 5.75 15.4518 5.75 12C5.75 8.54822 8.54822 5.75 12 5.75C13.7489 5.75 15.3286 6.46757 16.4639 7.62598C16.7073 7.87437 17.09 7.9229 17.3877 7.74316C17.6854 7.56328 17.8205 7.20212 17.7139 6.87109L16.7139 3.76953L16.6865 3.69824ZM9.5 8.75C9.08579 8.75 8.75 9.08579 8.75 9.5V14.5C8.75 14.9142 9.08579 15.25 9.5 15.25C9.91421 15.25 10.25 14.9142 10.25 14.5V9.5C10.25 9.08579 9.91421 8.75 9.5 8.75ZM11.5 8.75C11.0858 8.75 10.75 9.08579 10.75 9.5V12C10.75 12.4142 11.0858 12.75 11.5 12.75H13.75V13.75H11.5C11.0858 13.75 10.75 14.0858 10.75 14.5C10.75 14.9142 11.0858 15.25 11.5 15.25H14.5C14.9142 15.25 15.25 14.9142 15.25 14.5V12C15.25 11.5858 14.9142 11.25 14.5 11.25H12.25V10.25H14.5C14.9142 10.25 15.25 9.91421 15.25 9.5C15.25 9.08579 14.9142 8.75 14.5 8.75H11.5Z" fill="currentColor" />
</svg>