<svg xmlns="http://www.w3.org/2000/svg" width="24" height="24" viewBox="0 0 24 24" fill="none">
<path d="M22 10V9.5C22 7.17029 22 6.00544 21.6194 5.08658C21.1119 3.86144 20.1386 2.88807 18.9134 2.3806C17.9946 2 16.8297 2 14.5 2H10C7.19974 2 5.79961 2 4.73005 2.54497C3.78924 3.02433 3.02433 3.78924 2.54497 4.73005C2 5.79961 2 7.19974 2 10V14C2 16.8003 2 18.2004 2.54497 19.27C3.02433 20.2108 3.78924 20.9757 4.73005 21.455C5.79961 22 7.19974 22 10 22H14.5C16.8297 22 17.9946 22 18.9134 21.6194C20.1386 21.1119 21.1119 20.1386 21.6194 18.9134C22 17.9946 22 16.8297 22 14.5V14M6.00006 10L6 9.5V9.2C6 8.07989 6 7.51984 6.21799 7.09202C6.40973 6.71569 6.71569 6.40973 7.09202 6.21799C7.51984 6 8.0799 6 9.2 6H14.8C15.9201 6 16.4802 6 16.908 6.21799C17.2843 6.40973 17.5903 6.71569 17.782 7.09202C18 7.51984 18 8.0799 18 9.2V14.8C18 15.9201 18 16.4802 17.782 16.908C17.5903 17.2843 17.2843 17.5903 16.908 17.782C16.4802 18 15.9201 18 14.8 18H9.2C8.07989 18 7.51984 18 7.09202 17.782C6.71569 17.5903 6.40973 17.2843 6.21799 16.908C6 16.4802 6 15.9201 6 14.8V14.5V14" stroke="currentColor" stroke-width={1.5} stroke-linecap="round" stroke-linejoin="round" />
</svg>