<svg xmlns="http://www.w3.org/2000/svg" width="24" height="24" viewBox="0 0 24 24" fill="none">
<path d="M5.55514 3.61569C5.12676 3.18731 4.91257 2.97312 4.8981 2.78923C4.88554 2.62967 4.95013 2.47374 5.07184 2.3698C5.2121 2.25 5.51501 2.25 6.12082 2.25H16.3501C17.1902 2.25 17.6102 2.25 17.9311 2.41349C18.2133 2.5573 18.4428 2.78677 18.5866 3.06901C18.7501 3.38988 18.7501 3.80992 18.7501 4.65V7.35C18.7501 8.19008 18.7501 8.61012 18.5866 8.93099C18.4428 9.21323 18.2133 9.4427 17.9311 9.58651C17.6102 9.75 17.1902 9.75 16.3501 9.75H15.225L14.1309 8.65589C13.612 8.13703 13.3526 7.8776 13.0499 7.69208C12.7814 7.52759 12.4888 7.40638 12.1827 7.33289C11.8374 7.25 11.4705 7.25 10.7368 7.25H9.18945L5.55514 3.61569Z" fill="currentColor" /><path d="M11.3844 21.445C11.8128 21.8734 12.027 22.0875 12.2109 22.102C12.3704 22.1146 12.5264 22.05 12.6303 21.9283C12.7501 21.788 12.7501 21.4851 12.7501 20.8793V16.75H6.68945L11.3844 21.445Z" fill="currentColor" /><path d="M5.25012 10.65C5.25012 9.80992 5.25012 9.38988 5.41361 9.06901C5.55742 8.78677 5.78689 8.5573 6.06914 8.41349C6.39 8.25 6.81004 8.25 7.65012 8.25H10.9853C11.4745 8.25 11.7191 8.25 11.9492 8.30526C12.1533 8.35425 12.3484 8.43506 12.5274 8.54472C12.7292 8.6684 12.9021 8.84135 13.248 9.18726L18.4451 14.3843C18.8735 14.8127 19.0877 15.0269 19.1021 15.2108C19.1147 15.3703 19.0501 15.5263 18.9284 15.6302C18.7881 15.75 18.4852 15.75 17.8794 15.75H5.68946C5.40816 15.4687 5.25012 15.0872 5.25012 14.6893V10.65Z" fill="currentColor" />
</svg>