<svg xmlns="http://www.w3.org/2000/svg" width="24" height="24" viewBox="0 0 24 24" fill="none">
<path d="M14 1.25C15.3876 1.25 16.4734 1.24915 17.3447 1.32031C18.2249 1.39222 18.9522 1.54162 19.6104 1.87695C20.6923 2.42822 21.5718 3.30774 22.123 4.38965C22.4584 5.04778 22.6078 5.77513 22.6797 6.65527C22.7509 7.5266 22.75 8.61244 22.75 10V14C22.75 15.3876 22.7509 16.4734 22.6797 17.3447C22.6078 18.2249 22.4584 18.9522 22.123 19.6104C21.5718 20.6923 20.6923 21.5718 19.6104 22.123C18.9522 22.4584 18.2249 22.6078 17.3447 22.6797C16.4734 22.7509 15.3876 22.75 14 22.75H10C8.61244 22.75 7.5266 22.7509 6.65527 22.6797C5.77513 22.6078 5.04778 22.4584 4.38965 22.123C3.30774 21.5718 2.42822 20.6923 1.87695 19.6104C1.54162 18.9522 1.39222 18.2249 1.32031 17.3447C1.24915 16.4734 1.25 15.3876 1.25 14V10C1.25 8.61244 1.24915 7.5266 1.32031 6.65527C1.39222 5.77513 1.54162 5.04778 1.87695 4.38965C2.42822 3.30774 3.30774 2.42822 4.38965 1.87695C5.04778 1.54162 5.77513 1.39222 6.65527 1.32031C7.5266 1.24915 8.61244 1.25 10 1.25H14ZM10 2.75C8.58766 2.75 7.57344 2.75041 6.77734 2.81543C5.98996 2.87976 5.48174 3.00326 5.07031 3.21289C4.27066 3.62035 3.62035 4.27066 3.21289 5.07031C3.00326 5.48174 2.87976 5.98996 2.81543 6.77734C2.75041 7.57344 2.75 8.58766 2.75 10V14C2.75 15.4123 2.75041 16.4266 2.81543 17.2227C2.87976 18.01 3.00326 18.5183 3.21289 18.9297C3.62035 19.7293 4.27066 20.3797 5.07031 20.7871C5.48174 20.9967 5.98996 21.1202 6.77734 21.1846C7.57344 21.2496 8.58766 21.25 10 21.25H14C15.4123 21.25 16.4266 21.2496 17.2227 21.1846C18.01 21.1202 18.5183 20.9967 18.9297 20.7871C19.7293 20.3797 20.3797 19.7293 20.7871 18.9297C20.9967 18.5183 21.1202 18.01 21.1846 17.2227C21.2496 16.4266 21.25 15.4123 21.25 14V10C21.25 8.58766 21.2496 7.57344 21.1846 6.77734C21.1202 5.98996 20.9967 5.48174 20.7871 5.07031C20.3797 4.27066 19.7293 3.62035 18.9297 3.21289C18.5183 3.00326 18.01 2.87976 17.2227 2.81543C16.4266 2.75041 15.4123 2.75 14 2.75H10ZM14.7998 6C15.9199 6 16.4804 5.99979 16.9082 6.21777C17.2844 6.40951 17.5905 6.71555 17.7822 7.0918C18.0002 7.51962 18 8.08009 18 9.2002V14.7998C18 15.9199 18.0002 16.4804 17.7822 16.9082C17.5905 17.2845 17.2844 17.5905 16.9082 17.7822C16.4804 18.0002 15.9199 18 14.7998 18H9.2002C8.08009 18 7.51962 18.0002 7.0918 17.7822C6.71553 17.5905 6.40952 17.2845 6.21777 16.9082C5.99979 16.4804 6 15.9199 6 14.7998V9.2002C6 8.08009 5.99979 7.51962 6.21777 7.0918C6.40952 6.71554 6.71553 6.4095 7.0918 6.21777C7.51962 5.99979 8.08009 6 9.2002 6H14.7998Z" fill="currentColor" />
</svg>