<svg xmlns="http://www.w3.org/2000/svg" width="24" height="24" viewBox="0 0 24 24" fill="none">
<path opacity={0.32} d="M9.25 1.25C6.44974 1.25 5.04961 1.25 3.98005 1.79497C3.03924 2.27433 2.27433 3.03924 1.79497 3.98005C1.25 5.04961 1.25 6.44974 1.25 9.25V14.75C1.25 17.5503 1.25 18.9504 1.79497 20.02C2.27433 20.9608 3.03924 21.7257 3.98005 22.205C5.04961 22.75 6.44974 22.75 9.25 22.75H14.75C17.5503 22.75 18.9504 22.75 20.02 22.205C20.9608 21.7257 21.7257 20.9608 22.205 20.02C22.75 18.9504 22.75 17.5503 22.75 14.75V9.25C22.75 6.44974 22.75 5.04961 22.205 3.98005C21.7257 3.03924 20.9608 2.27433 20.02 1.79497C18.9504 1.25 17.5503 1.25 14.75 1.25H9.25Z" fill="currentColor" /><path d="M16 5.25C16.4142 5.25 16.75 5.58579 16.75 6V7.25H18C18.4142 7.25 18.75 7.58579 18.75 8C18.75 8.41421 18.4142 8.75 18 8.75H16.75V15.25H18C18.4142 15.25 18.75 15.5858 18.75 16C18.75 16.4142 18.4142 16.75 18 16.75H16.75V18C16.75 18.4142 16.4142 18.75 16 18.75C15.5858 18.75 15.25 18.4142 15.25 18V16.75H8.75V18C8.75 18.4142 8.41421 18.75 8 18.75C7.58579 18.75 7.25 18.4142 7.25 18V16.75H6C5.58579 16.75 5.25 16.4142 5.25 16C5.25 15.5858 5.58579 15.25 6 15.25H7.25V8.75H6C5.58579 8.75 5.25 8.41421 5.25 8C5.25 7.58579 5.58579 7.25 6 7.25H7.25V6C7.25 5.58579 7.58579 5.25 8 5.25C8.41421 5.25 8.75 5.58579 8.75 6V7.25H15.25V6C15.25 5.58579 15.5858 5.25 16 5.25ZM8.75 15.25H15.25V8.75H8.75V15.25Z" fill="currentColor" />
</svg>