<svg xmlns="http://www.w3.org/2000/svg" width="24" height="24" viewBox="0 0 24 24" fill="none">
<path d="M7 15H4.4C3.55992 15 3.13988 15 2.81901 14.8365C2.53677 14.6927 2.3073 14.4632 2.16349 14.181C2 13.8601 2 13.4401 2 12.6V11.4C2 10.5599 2 10.1399 2.16349 9.81901C2.3073 9.53677 2.53677 9.3073 2.81901 9.16349C3.13988 9 3.55992 9 4.4 9H6.00589C6.37277 9 6.55622 9 6.72885 9.04145C6.8819 9.07819 7.02822 9.1388 7.16243 9.22104C7.3138 9.3138 7.44352 9.44352 7.70294 9.70294L10 12M17 9H19.6C20.4401 9 20.8601 9 21.181 9.16349C21.4632 9.3073 21.6927 9.53677 21.8365 9.81901C22 10.1399 22 10.5599 22 11.4V12.6C22 13.4401 22 13.8601 21.8365 14.181C21.6927 14.4632 21.4632 14.6927 21.181 14.8365C20.8601 15 20.4401 15 19.6 15H17.9941C17.6272 15 17.4438 15 17.2712 14.9586C17.1181 14.9218 16.9718 14.8612 16.8376 14.779C16.6862 14.6862 16.5565 14.5565 16.2971 14.2971L14 12M9 7V4.4C9 3.55992 9 3.13988 9.16349 2.81901C9.3073 2.53677 9.53677 2.3073 9.81901 2.16349C10.1399 2 10.5599 2 11.4 2H12.6C13.4401 2 13.8601 2 14.181 2.16349C14.4632 2.3073 14.6927 2.53677 14.8365 2.81901C15 3.13988 15 3.55992 15 4.4V6.00589C15 6.37277 15 6.55622 14.9586 6.72885C14.9218 6.8819 14.8612 7.02822 14.779 7.16243C14.6862 7.3138 14.5565 7.44352 14.2971 7.70294L12 10M15 17V19.6C15 20.4401 15 20.8601 14.8365 21.181C14.6927 21.4632 14.4632 21.6927 14.181 21.8365C13.8601 22 13.4401 22 12.6 22H11.4C10.5599 22 10.1399 22 9.81901 21.8365C9.53677 21.6927 9.3073 21.4632 9.16349 21.181C9 20.8601 9 20.4401 9 19.6V17.9941C9 17.6272 9 17.4438 9.04145 17.2712C9.07819 17.1181 9.1388 16.9718 9.22104 16.8376C9.3138 16.6862 9.44352 16.5565 9.70294 16.2971L12 14" stroke="currentColor" stroke-width={1.5} stroke-linecap="round" stroke-linejoin="round" />
</svg>