<svg xmlns="http://www.w3.org/2000/svg" width="24" height="24" viewBox="0 0 24 24" fill="none">
<path fill-rule="evenodd" clip-rule="evenodd" d="M7.76089 1.98969C6.97721 1.42991 6.58537 1.15003 6.16572 1.06559C5.7958 0.991161 5.41238 1.02289 5.05974 1.15712C4.65968 1.3094 4.31918 1.6499 3.63819 2.33089L2.33069 3.63839C1.6497 4.31938 1.3092 4.65988 1.15692 5.05994C1.02269 5.41258 0.99096 5.796 1.06539 6.16592C1.14982 6.58557 1.42971 6.97741 1.98949 7.76109L2.65036 8.68632C2.94719 9.10187 3.0956 9.30965 3.17933 9.50135C3.27173 9.71289 3.29782 9.8061 3.32864 10.0349C3.35657 10.2422 3.32925 10.6082 3.27461 11.3402C3.25834 11.5581 3.25007 11.7781 3.25007 12C3.25007 12.222 3.25835 12.4422 3.27463 12.6602C3.32931 13.3923 3.35665 13.7583 3.32872 13.9656C3.29791 14.1944 3.27182 14.2876 3.17942 14.4992C3.09568 14.6909 2.94726 14.8987 2.65041 15.3143L1.98944 16.2396C1.42967 17.0233 1.14978 17.4152 1.06535 17.8348C0.990916 18.2047 1.02265 18.5881 1.15688 18.9408C1.30916 19.3408 1.64965 19.6813 2.33065 20.3623L3.63814 21.6698C4.31914 22.3508 4.65964 22.6913 5.05969 22.8436C5.41234 22.9778 5.79576 23.0096 6.16567 22.9351C6.58532 22.8507 6.97716 22.5708 7.76085 22.011L8.68664 21.3498C9.10218 21.0529 9.30995 20.9045 9.50164 20.8208C9.71318 20.7284 9.80638 20.7023 10.0351 20.6715C10.2425 20.6436 10.6084 20.6709 11.3404 20.7255C11.5582 20.7418 11.7782 20.75 12.0001 20.75C12.2219 20.75 12.442 20.7417 12.6599 20.7255C13.3918 20.6708 13.7578 20.6435 13.9652 20.6715C14.1939 20.7023 14.2871 20.7284 14.4987 20.8208C14.6904 20.9045 14.8981 21.0529 15.3137 21.3497L16.2392 22.0108C17.0229 22.5706 17.4147 22.8505 17.8344 22.9349C18.2043 23.0093 18.5877 22.9776 18.9404 22.8434C19.3404 22.6911 19.6809 22.3506 20.3619 21.6696L21.6694 20.3621C22.3504 19.6811 22.6909 19.3406 22.8432 18.9406C22.9774 18.5879 23.0091 18.2045 22.9347 17.8346C22.8503 17.4149 22.5704 17.0231 22.0106 16.2394L21.3497 15.3142C21.0529 14.8986 20.9045 14.6908 20.8207 14.4991C20.7283 14.2875 20.7022 14.1943 20.6714 13.9655C20.6435 13.7582 20.6708 13.3922 20.7255 12.6602C20.7418 12.4422 20.7501 12.222 20.7501 12C20.7501 11.7782 20.7418 11.5581 20.7255 11.3403C20.6709 10.6083 20.6436 10.2423 20.6715 10.035C20.7023 9.80618 20.7284 9.71298 20.8208 9.50144C20.9045 9.30974 21.053 9.10197 21.3498 8.68642L22.0106 7.76131C22.5703 6.97763 22.8502 6.58578 22.9347 6.16614C23.0091 5.79622 22.9774 5.4128 22.8431 5.06016C22.6909 4.6601 22.3504 4.3196 21.6694 3.63861L20.3619 2.33111C19.6809 1.65012 19.3404 1.30962 18.9403 1.15734C18.5877 1.02311 18.2043 0.991379 17.8343 1.06581C17.4147 1.15024 17.0229 1.43013 16.2392 1.98991L15.3145 2.65039C14.8989 2.94724 14.6911 3.09567 14.4994 3.1794C14.2878 3.27181 14.1946 3.29789 13.9658 3.32871C13.7585 3.35663 13.3925 3.32929 12.6604 3.2746C12.4423 3.25831 12.2221 3.25002 12.0001 3.25002C11.7781 3.25002 11.5579 3.25831 11.3399 3.27459C10.6078 3.32926 10.2418 3.3566 10.0345 3.32868C9.80569 3.29786 9.71248 3.27177 9.50093 3.17937C9.30922 3.09564 9.10143 2.94721 8.68584 2.65037L7.76089 1.98969ZM15.0001 12.0001C15.0001 13.6569 13.6569 15.0001 12.0001 15.0001C10.3432 15.0001 9.00009 13.6569 9.00009 12.0001C9.00009 10.3432 10.3432 9.00009 12.0001 9.00009C13.6569 9.00009 15.0001 10.3432 15.0001 12.0001Z" fill="currentColor" />
</svg>