<svg xmlns="http://www.w3.org/2000/svg" width="24" height="24" viewBox="0 0 24 24" fill="none">
<path d="M19.1469 4.73866C19.1899 4.18923 19.0042 3.64642 18.6338 3.23839C18.4237 3.007 18.1158 2.82921 17.4999 2.47363C16.884 2.11805 16.5761 1.94026 16.2706 1.87402C15.732 1.75722 15.1691 1.86783 14.7148 2.17976C14.4571 2.35665 14.2394 2.63774 13.8038 3.19993C13.3831 3.74307 12.7031 4.00132 12.0161 3.99997C12.0107 3.99996 12.0054 3.99995 12 3.99995C11.9946 3.99995 11.9891 3.99996 11.9837 3.99997C11.2967 4.00134 10.6169 3.74314 10.1962 3.20008C9.76063 2.63789 9.54286 2.3568 9.28521 2.1799C8.83087 1.86798 8.26795 1.75737 7.72936 1.87417C7.42393 1.94041 7.11599 2.1182 6.50011 2.47378C5.88423 2.82936 5.57628 3.00715 5.3662 3.23854C4.99575 3.64657 4.81009 4.18938 4.85306 4.73881C4.87742 5.05039 5.01197 5.37952 5.28107 6.03778C5.54112 6.67392 5.42368 7.39192 5.07838 7.98611C5.07277 7.99575 5.06719 8.00541 5.06163 8.01507C4.71939 8.60972 4.15705 9.06937 3.47725 9.16207C2.77261 9.25816 2.42029 9.3062 2.13827 9.44089C1.64097 9.6784 1.26371 10.1106 1.09558 10.6354C1.00022 10.9331 1.00022 11.2886 1.00022 11.9998C1.00022 12.711 1.00022 13.0665 1.09558 13.3642C1.26371 13.889 1.64097 14.3212 2.13827 14.5587C2.42029 14.6934 2.77261 14.7414 3.47725 14.8375C4.15706 14.9302 4.71939 15.3899 5.06163 15.9845C5.0672 15.9942 5.07278 16.0038 5.07838 16.0135C5.42368 16.6077 5.54113 17.3256 5.28108 17.9618C5.01197 18.62 4.87742 18.9492 4.85306 19.2608C4.81009 19.8102 4.99575 20.353 5.3662 20.761C5.57629 20.9924 5.88423 21.1702 6.50011 21.5258C7.11599 21.8814 7.42393 22.0592 7.72937 22.1254C8.26795 22.2422 8.83087 22.1316 9.28521 21.8197C9.54286 21.6428 9.76063 21.3617 10.1962 20.7995C10.6169 20.2564 11.2967 19.9982 11.9837 19.9996C11.9891 19.9996 11.9946 19.9996 12 19.9996C12.0054 19.9996 12.0107 19.9996 12.0161 19.9996C12.7031 19.9983 13.3831 20.2565 13.8038 20.7996C14.2394 21.3618 14.4571 21.6429 14.7148 21.8198C15.1691 22.1317 15.732 22.2424 16.2706 22.1256C16.5761 22.0593 16.884 21.8815 17.4999 21.5259C18.1158 21.1704 18.4237 20.9926 18.6338 20.7612C19.0042 20.3532 19.1899 19.8103 19.1469 19.2609C19.1226 18.9493 18.988 18.6202 18.7189 17.9619C18.4588 17.3257 18.5763 16.6077 18.9216 16.0134C18.9272 16.0038 18.9328 15.9942 18.9384 15.9845C19.2806 15.3899 19.8429 14.9302 20.5228 14.8375C21.2274 14.7414 21.5797 14.6934 21.8617 14.5587C22.359 14.3212 22.7363 13.889 22.9044 13.3642C22.9998 13.0665 22.9998 12.711 22.9998 11.9998C22.9998 11.2886 22.9998 10.9331 22.9044 10.6354C22.7363 10.1106 22.359 9.6784 21.8617 9.44089C21.5797 9.3062 21.2274 9.25816 20.5228 9.16207C19.8429 9.06937 19.2806 8.60971 18.9384 8.01507C18.9328 8.00541 18.9272 7.99577 18.9216 7.98613M12 8.99982C13.6568 8.99982 14.9999 10.3429 14.9999 11.9998C14.9999 13.6566 13.6568 14.9997 12 14.9997C10.3432 14.9997 9.00006 13.6566 9.00006 11.9998C9.00006 11.6491 9.06021 11.3125 9.17076 10.9998" stroke="currentColor" stroke-width={2} stroke-linecap="round" stroke-linejoin="round" />
</svg>