<svg xmlns="http://www.w3.org/2000/svg" width="24" height="24" viewBox="0 0 24 24" fill="none">
<path d="M15.923 20.8631C16.9326 21.5843 17.4374 21.9448 17.991 21.9884C18.2057 22.0053 18.4217 21.9875 18.6307 21.9355C19.1695 21.8015 19.6082 21.3628 20.4855 20.4855C21.3628 19.6082 21.8015 19.1695 21.9355 18.6307C21.9875 18.4217 22.0053 18.2057 21.9884 17.991C21.9448 17.4374 21.5843 16.9326 20.8631 15.923L20.2423 15.0538C19.8849 14.5535 19.793 13.9191 19.8931 13.3125C19.9636 12.8855 20.0002 12.4472 20.0002 12.0002C20.0002 11.5533 19.9636 11.1149 19.8931 10.6879C19.793 10.0814 19.885 9.44694 20.2423 8.94671L20.8631 8.07751C21.5843 7.06791 21.9448 6.56311 21.9884 6.00952C22.0053 5.79483 21.9875 5.57882 21.9355 5.36984C21.8015 4.83095 21.3628 4.39229 20.4855 3.51499C19.6082 2.63768 19.1696 2.19902 18.6307 2.06501C18.4217 2.01304 18.2057 1.99516 17.991 2.01207C17.4374 2.05567 16.9326 2.41624 15.923 3.13738L15.0539 3.75818C14.5536 4.1155 13.9191 4.20744 13.3126 4.10734C12.8856 4.03687 12.4472 4.00021 12.0002 4.00021C11.5533 4.00021 11.1149 4.03686 10.6879 4.10733C10.0813 4.20742 9.44687 4.11548 8.94663 3.75817L8.07747 3.13734C7.06787 2.4162 6.56307 2.05563 6.00948 2.01203C5.79479 1.99513 5.57879 2.013 5.3698 2.06497C4.83091 2.19899 4.39225 2.63764 3.51495 3.51495C2.63764 4.39226 2.19899 4.83091 2.06497 5.3698C2.013 5.57879 1.99513 5.79479 2.01203 6.00948C2.05563 6.56307 2.4162 7.06787 3.13734 8.07747L3.75817 8.94663C4.11548 9.44687 4.20742 10.0813 4.10733 10.6879C4.03686 11.1149 4.00021 11.5533 4.00021 12.0002C4.00021 12.4472 4.03687 12.8856 4.10734 13.3126C4.20744 13.9191 4.1155 14.5536 3.75818 15.0539L3.13735 15.923C2.41621 16.9326 2.05564 17.4374 2.01204 17.991C1.99513 18.2057 2.01301 18.4217 2.06498 18.6307C2.19899 19.1696 2.63765 19.6082 3.51495 20.4855C4.39226 21.3629 4.83092 21.8015 5.36981 21.9355C5.57879 21.9875 5.7948 22.0054 6.00949 21.9885C6.56308 21.9449 7.06788 21.5843 8.07748 20.8632L8.94672 20.2423C9.44695 19.885 10.0814 19.793 10.688 19.8931C11.1149 19.9636 11.5533 20.0002 12.0002 20.0002M12.0002 9C13.6571 9 15.0002 10.3431 15.0002 12C15.0002 13.6569 13.6571 15 12.0002 15C10.3434 15 9.00024 13.6569 9.00024 12C9.00024 11.6494 9.0604 11.3128 9.17095 11" stroke="currentColor" stroke-width={2} stroke-linecap="round" stroke-linejoin="round" />
</svg>