<svg xmlns="http://www.w3.org/2000/svg" width="24" height="24" viewBox="0 0 24 24" fill="none">
<path d="M7.81152 0.923894C8.41861 0.755957 9.06996 0.884423 9.56836 1.2696C9.77005 1.42558 9.94875 1.65488 10.3047 2.11432L10.7266 2.66022C11.0281 3.04944 11.5076 3.25007 12 3.25007C12.4924 3.25007 12.9719 3.0495 13.2734 2.66022L13.6963 2.11432C14.052 1.65517 14.23 1.4255 14.4316 1.2696C14.9301 0.884343 15.5813 0.755899 16.1885 0.923894C16.4342 0.991923 16.6861 1.13814 17.1895 1.42878L18.5625 2.22077C19.0642 2.51042 19.3148 2.65601 19.4961 2.83405C19.9464 3.2763 20.1622 3.90496 20.0771 4.53034C20.0429 4.78217 19.9331 5.05064 19.7139 5.58698L19.4521 6.22663C19.2658 6.68279 19.3314 7.19654 19.5781 7.62311C19.8247 8.04928 20.2387 8.36615 20.7266 8.43268L21.4102 8.52643C21.9847 8.60478 22.2724 8.64394 22.5078 8.7403C23.0916 8.97933 23.5286 9.48013 23.6865 10.0909C23.7501 10.337 23.75 10.6269 23.75 11.2061V12.793C23.75 13.3727 23.7501 13.663 23.6865 13.9092C23.5286 14.52 23.0916 15.0208 22.5078 15.2598C22.2724 15.3562 21.9847 15.3953 21.4102 15.4737L20.7266 15.5665C20.2388 15.633 19.8247 15.95 19.5781 16.376C19.3312 16.8027 19.2656 17.3172 19.4521 17.7735L19.7139 18.4132C19.9331 18.9494 20.0429 19.218 20.0771 19.4698C20.1621 20.0951 19.9463 20.7239 19.4961 21.1661C19.3148 21.344 19.064 21.4889 18.5625 21.7784L17.1895 22.5714C16.6862 22.8619 16.4342 23.0072 16.1885 23.0753C15.5813 23.2433 14.9301 23.1158 14.4316 22.7305C14.2299 22.5746 14.0523 22.3444 13.6963 21.8848L13.2734 21.3399C12.9718 20.9506 12.4925 20.7501 12 20.7501C11.5076 20.7501 11.0281 20.9507 10.7266 21.3399L10.3037 21.8848C9.94771 22.3444 9.77009 22.5746 9.56836 22.7305C9.06994 23.1157 8.41864 23.2442 7.81152 23.0762C7.56575 23.0082 7.314 22.862 6.81055 22.5714L5.4375 21.7794C4.93567 21.4896 4.68426 21.3442 4.50293 21.1661C4.05288 20.7239 3.83783 20.095 3.92285 19.4698C3.95712 19.2179 4.06686 18.9495 4.28613 18.4132L4.54785 17.7735C4.73435 17.3172 4.66878 16.8027 4.42188 16.376C4.17526 15.95 3.76121 15.633 3.27344 15.5665L2.58984 15.4737C2.01528 15.3953 1.72759 15.3562 1.49219 15.2598C0.908367 15.0208 0.471386 14.52 0.313477 13.9092C0.249875 13.663 0.25 13.3727 0.25 12.793V11.2061C0.25 10.6269 0.249939 10.337 0.313477 10.0909C0.471379 9.48013 0.908401 8.97933 1.49219 8.7403C1.72759 8.64394 2.01528 8.60478 2.58984 8.52643L3.27344 8.43268C3.76129 8.36614 4.17527 8.04928 4.42188 7.62311C4.66859 7.19654 4.73419 6.68281 4.54785 6.22663L4.28613 5.58698C4.06688 5.05066 3.95714 4.78217 3.92285 4.53034C3.83778 3.90515 4.05294 3.2763 4.50293 2.83405C4.68427 2.65594 4.93566 2.51051 5.4375 2.22077L6.81055 1.4278C7.31387 1.13721 7.56579 0.991937 7.81152 0.923894ZM12 9.00007C10.3431 9.00007 9 10.3432 9 12.0001C9.00004 13.6569 10.3432 15.0001 12 15.0001C13.6568 15 15 13.6569 15 12.0001C15 10.3432 13.6568 9.00011 12 9.00007Z" fill="currentColor" />
</svg>