<svg xmlns="http://www.w3.org/2000/svg" width="24" height="24" viewBox="0 0 24 24" fill="none">
<path d="M10.7715 12.25C11.0305 12.2613 11.2387 12.4695 11.25 12.7285V16.25C11.25 16.6642 11.5858 17 12 17C12.4142 17 12.75 16.6642 12.75 16.25V12.7285C12.7613 12.4695 12.9695 12.2613 13.2285 12.25H19.9502C20.2299 12.25 20.3697 12.2503 20.4766 12.3047C20.5706 12.3526 20.6474 12.4294 20.6953 12.5234C20.7497 12.6303 20.75 12.7701 20.75 13.0498V16.3496C20.75 18.5898 20.7504 19.7108 20.3145 20.5664C19.931 21.3189 19.3189 21.931 18.5664 22.3145C17.7108 22.7504 16.5898 22.75 14.3496 22.75H9.65039C7.41018 22.75 6.28924 22.7504 5.43359 22.3145C4.68109 21.931 4.06902 21.3189 3.68555 20.5664C3.24957 19.7108 3.25 18.5898 3.25 16.3496V13.0498C3.25 12.7701 3.25034 12.6303 3.30469 12.5234C3.35262 12.4294 3.42936 12.3526 3.52344 12.3047C3.63033 12.2503 3.77014 12.25 4.0498 12.25H10.7715ZM8.58008 1.25C10.0506 1.25 11.3468 2.21461 11.7695 3.62305L12 4.38965L12.2305 3.62305C12.6532 2.21461 13.9494 1.25 15.4199 1.25H15.5C17.2949 1.25 18.75 2.70507 18.75 4.5C18.75 5.14448 18.5618 5.74477 18.2383 6.25H20.5C21.7426 6.25 22.75 7.25736 22.75 8.5C22.75 9.74264 21.7426 10.75 20.5 10.75H3.5C2.25736 10.75 1.25 9.74264 1.25 8.5C1.25 7.25736 2.25736 6.25 3.5 6.25H5.76172C5.43816 5.74477 5.25 5.14448 5.25 4.5C5.25 2.70507 6.70507 1.25 8.5 1.25H8.58008ZM8.5 2.75C7.5335 2.75 6.75 3.5335 6.75 4.5C6.75 5.4665 7.5335 6.25 8.5 6.25H10.9912L10.333 4.05469C10.1008 3.28053 9.38832 2.75 8.58008 2.75H8.5ZM15.4199 2.75C14.6117 2.75 13.8992 3.28053 13.667 4.05469L13.0088 6.25H15.5C16.4665 6.25 17.25 5.4665 17.25 4.5C17.25 3.5335 16.4665 2.75 15.5 2.75H15.4199Z" fill="currentColor" />
</svg>