<svg xmlns="http://www.w3.org/2000/svg" width="24" height="24" viewBox="0 0 24 24" fill="none">
<path d="M18.3756 2.5843C18.6053 2.23966 19.071 2.14655 19.4156 2.37629L20.9908 3.42609C21.4728 3.74743 21.8476 3.98886 22.1236 4.32453C22.3532 4.60382 22.5254 4.92588 22.6304 5.2718C22.7567 5.68765 22.7496 6.13384 22.7496 6.7132V14.0003C22.7496 14.0171 22.7477 14.0336 22.7467 14.0501C22.7486 14.3331 22.7496 14.6477 22.7496 15.0003C22.7496 16.6279 22.7498 17.4421 22.5621 18.1077C22.0898 19.7819 20.7812 21.0906 19.107 21.5628C18.4414 21.7505 17.6271 21.7503 15.9996 21.7503H7.99958C6.37248 21.7503 5.55862 21.7504 4.89314 21.5628C3.21896 21.0906 1.91038 19.7818 1.43806 18.1077C1.25034 17.4421 1.24958 16.6279 1.24958 15.0003C1.24958 14.6477 1.24963 14.3331 1.25154 14.0501C1.25045 14.0337 1.24959 14.017 1.24958 14.0003V6.7132C1.24958 6.13388 1.2425 5.68762 1.36872 5.2718C1.47375 4.92595 1.64608 4.60378 1.87556 4.32453C2.15149 3.98891 2.52646 3.74737 3.00837 3.42609L4.58357 2.37629C4.92821 2.14652 5.39384 2.23965 5.62361 2.5843C5.85334 2.92894 5.76023 3.39458 5.4156 3.62433L3.8404 4.67414C3.2809 5.04715 3.13491 5.15365 3.03376 5.27668C2.9295 5.40358 2.85102 5.55019 2.80329 5.70734C2.75705 5.85975 2.74958 6.04065 2.74958 6.7132V9.68097C3.33922 9.10268 4.07209 8.66937 4.89314 8.43781C5.55864 8.2502 6.37241 8.25031 7.99958 8.25031H15.9996C17.6272 8.25031 18.4414 8.25014 19.107 8.43781C19.9276 8.66925 20.6601 9.10215 21.2496 9.68V6.7132C21.2496 6.04052 21.2421 5.85977 21.1959 5.70734C21.1481 5.55013 21.0697 5.40362 20.9654 5.27668C20.8642 5.15364 20.7184 5.04725 20.1588 4.67414L18.5836 3.62433L18.522 3.57844C18.2287 3.33674 18.1603 2.90738 18.3756 2.5843ZM7.99958 13.0003C6.8952 13.0005 5.99958 13.8959 5.99958 15.0003C5.99967 16.1047 6.89526 17.0001 7.99958 17.0003C9.1041 17.0003 9.99949 16.1048 9.99958 15.0003C9.99958 13.8957 9.10415 13.0003 7.99958 13.0003ZM15.9996 13.0003C14.8952 13.0005 13.9996 13.8959 13.9996 15.0003C13.9997 16.1047 14.8953 17.0001 15.9996 17.0003C17.1041 17.0003 17.9995 16.1048 17.9996 15.0003C17.9996 13.8957 17.1042 13.0003 15.9996 13.0003Z" fill="currentColor" />
</svg>