<svg xmlns="http://www.w3.org/2000/svg" width="24" height="24" viewBox="0 0 24 24" fill="none">
<path d="M18.1676 3.44528C18.4739 2.98596 19.0949 2.86193 19.5543 3.16794L21.1295 4.21774C21.5984 4.5303 22.012 4.79419 22.317 5.16501C22.5673 5.46945 22.7551 5.82117 22.8698 6.19821C22.9745 6.54315 22.9959 6.90602 22.9997 7.30368V16C22.9997 16.2811 22.8827 16.5341 22.6959 16.7158C22.3508 18.9995 20.3806 20.7499 18.0006 20.75C15.8382 20.75 14.0137 19.3051 13.4391 17.3281C13.328 17.253 13.2301 17.1549 13.1549 17.0361L13.112 16.9609C13.1131 16.9631 13.114 16.966 13.1149 16.9677C13.1112 16.9621 13.1058 16.9534 13.0983 16.9433C13.0701 16.9058 13.0172 16.8452 12.9372 16.7812C12.7892 16.6629 12.5063 16.5 11.9997 16.5C11.493 16.5001 11.2102 16.6628 11.0622 16.7812C10.9818 16.8455 10.9292 16.9068 10.901 16.9443C10.8875 16.9623 10.88 16.9742 10.8786 16.9765C10.8788 16.9759 10.8798 16.9738 10.8815 16.9707C10.8827 16.9685 10.8845 16.9655 10.8864 16.9619C10.8874 16.96 10.8891 16.9573 10.8903 16.955L10.8434 17.0361C10.7686 17.1542 10.6715 17.2512 10.5612 17.3261C9.98718 19.304 8.16356 20.7499 6.00064 20.75C3.62118 20.75 1.65024 19.0006 1.30435 16.7177C1.11693 16.536 0.999658 16.2817 0.999658 16V7.71286C0.999654 7.14913 0.989931 6.65792 1.12954 6.19821C1.24416 5.8211 1.43201 5.4695 1.68228 5.16501C1.98735 4.79402 2.40082 4.53038 2.86978 4.21774L4.44497 3.16794C4.90437 2.86167 5.52525 2.98607 5.83169 3.44528C6.13804 3.90481 6.01387 4.52565 5.55435 4.832L3.97915 5.8818C3.40654 6.26355 3.29922 6.3479 3.2272 6.43552C3.14388 6.5369 3.08084 6.65373 3.04263 6.77927C3.00967 6.88779 2.99966 7.02476 2.99966 7.71286V12.3183C3.81773 11.6508 4.86243 11.25 6.00064 11.25C8.19743 11.25 10.0446 12.742 10.5875 14.7675C10.9765 14.6078 11.4446 14.5001 11.9997 14.5C12.5547 14.5 13.0227 14.6089 13.4118 14.7685C13.9543 12.7423 15.8033 11.25 18.0006 11.25C19.1381 11.25 20.1818 11.6505 20.9997 12.3174V7.71286C20.9996 7.02479 20.9896 6.88779 20.9567 6.77927C20.9185 6.6538 20.8554 6.53685 20.7721 6.43552C20.7001 6.34801 20.5921 6.26312 20.0202 5.8818L18.445 4.832L18.3629 4.77145C17.9718 4.44913 17.8804 3.87608 18.1676 3.44528Z" fill="currentColor" />
</svg>