<svg xmlns="http://www.w3.org/2000/svg" width="24" height="24" viewBox="0 0 24 24" fill="none">
<path d="M20.1387 1.25C21.0285 1.25 21.75 1.97154 21.75 2.86133L21.75 6C21.75 11.1324 17.7843 15.3348 12.75 15.7178L12.75 21.25L16 21.25L16.0771 21.2539C16.4551 21.2925 16.75 21.6118 16.75 22C16.75 22.3882 16.4551 22.7075 16.0771 22.7461L16 22.75L8 22.75C7.58579 22.75 7.25 22.4142 7.25 22C7.25 21.5858 7.58579 21.25 8 21.25L11.25 21.25L11.25 15.7178C6.2159 15.3346 2.25 11.1323 2.25 6L2.25 2.86133C2.25 1.97154 2.97154 1.25 3.86133 1.25L20.1387 1.25Z" fill="currentColor" />
</svg>