<svg xmlns="http://www.w3.org/2000/svg" width="24" height="24" viewBox="0 0 24 24" fill="none">
<path d="M9.99951 16.5C9.99951 16.5 10.4999 15.5 11.9999 15.5C13.4999 15.5 13.9995 16.5 13.9995 16.5M21.9995 10V7.71259C21.9995 7.08645 21.9995 6.77337 21.9132 6.4892C21.8368 6.23762 21.7116 6.00357 21.5446 5.80045C21.356 5.57101 21.0955 5.39735 20.5746 5.05003L18.9995 4M1.99951 10V7.71259C1.99951 7.08645 1.99951 6.77337 2.08581 6.4892C2.16222 6.23762 2.28747 6.00357 2.45442 5.80045C2.643 5.57101 2.90349 5.39735 3.42447 5.05003L4.99951 4M9.99988 16C9.99988 18.2091 8.20902 20 5.99988 20C3.79074 20 1.99988 18.2091 1.99988 16C1.99988 13.7909 3.79074 12 5.99988 12C8.20902 12 9.99988 13.7909 9.99988 16ZM21.9999 16C21.9999 18.2091 20.209 20 17.9999 20C15.7907 20 13.9999 18.2091 13.9999 16C13.9999 15.2714 14.1947 14.5883 14.535 14C15.2266 12.8044 16.5193 12 17.9999 12C20.209 12 21.9999 13.7909 21.9999 16Z" stroke="currentColor" stroke-width={2} stroke-linecap="round" stroke-linejoin="round" />
</svg>