<svg xmlns="http://www.w3.org/2000/svg" width="24" height="24" viewBox="0 0 24 24" fill="none">
<path d="M18.8907 1.25C19.378 1.25 19.7959 1.24939 20.1231 1.2793C20.4009 1.3047 20.7225 1.35829 21.0069 1.53223L21.126 1.61426L21.2725 1.74121C21.596 2.05359 21.7889 2.48123 21.8057 2.93555C21.8201 3.328 21.657 3.67119 21.4961 3.94629C21.3303 4.22992 21.086 4.56925 20.8028 4.96582L12.75 16.2393L12.75 21.25L16 21.25C16.4142 21.2501 16.75 21.5858 16.75 22C16.75 22.4142 16.4142 22.7499 16 22.75L8.00003 22.75C7.58582 22.75 7.25003 22.4142 7.25003 22C7.25004 21.5858 7.58582 21.25 8.00003 21.25L11.25 21.25L11.25 16.2393L3.1973 4.96582C2.91404 4.56925 2.66978 4.22992 2.50394 3.94629C2.34311 3.67118 2.17994 3.32802 2.19437 2.93554L2.21195 2.74218C2.27816 2.29745 2.51419 1.89201 2.87406 1.61426L2.9932 1.53222C3.27759 1.35831 3.59921 1.30469 3.87699 1.27929C4.20416 1.2494 4.62213 1.25 5.10941 1.25L18.8907 1.25ZM5.10941 2.75C4.59245 2.75 4.25628 2.75032 4.01371 2.77246C3.86499 2.78605 3.79935 2.80493 3.77933 2.81152C3.73092 2.85361 3.70139 2.91269 3.69535 2.97656C3.70183 2.99719 3.72407 3.06153 3.79887 3.18945C3.92179 3.39967 4.1166 3.67315 4.41703 4.09375L7.20707 8L16.793 8L19.583 4.09375C19.8835 3.67315 20.0783 3.39967 20.2012 3.18945C20.2757 3.06207 20.2972 2.99745 20.3037 2.97656C20.2977 2.9125 20.2684 2.85362 20.2198 2.81152C20.1989 2.80473 20.1332 2.78589 19.9864 2.77246C19.7438 2.75031 19.4076 2.75 18.8907 2.75L5.10941 2.75Z" fill="currentColor" />
</svg>