<svg xmlns="http://www.w3.org/2000/svg" width="24" height="24" viewBox="0 0 24 24" fill="none">
<path d="M21.9995 8V6.71259C21.9995 6.08645 21.9995 5.77337 21.9132 5.4892C21.8368 5.23762 21.7116 5.00357 21.5446 4.80045C21.356 4.57101 21.0955 4.39735 20.5746 4.05003L18.9995 3M1.99951 8V6.71259C1.99951 6.08645 1.99951 5.77337 2.08581 5.4892C2.16222 5.23762 2.28747 5.00357 2.45442 4.80045C2.643 4.57101 2.90349 4.39735 3.42447 4.05003L4.99951 3M9.99988 15C9.99988 16.1046 9.10445 17 7.99988 17C6.89531 17 5.99988 16.1046 5.99988 15C5.99988 13.8954 6.89531 13 7.99988 13M17.9999 15C17.9999 16.1046 17.1044 17 15.9999 17C14.8953 17 13.9999 16.1046 13.9999 15C13.9999 13.8954 14.8953 13 15.9999 13C17.1044 13 17.9999 13.8954 17.9999 15ZM7.99988 21H15.9999C16.9289 21 17.3934 21 17.7821 20.9384C19.9215 20.5996 21.5995 18.9216 21.9383 16.7822C21.9999 16.3935 21.9999 15.929 21.9999 15C21.9999 14.071 21.9999 13.6065 21.9383 13.2178C21.5995 11.0784 19.9215 9.40042 17.7821 9.06156C17.3934 9 16.9289 9 15.9999 9H7.99988C7.07087 9 6.60637 9 6.21771 9.06156C4.07824 9.40042 2.40029 11.0784 2.06144 13.2178C1.99988 13.6065 1.99988 14.071 1.99988 15C1.99988 15.929 1.99988 16.3935 2.06144 16.7822C2.40029 18.9216 4.07824 20.5996 6.21771 20.9384C6.60637 21 7.07087 21 7.99988 21Z" stroke="currentColor" stroke-width={1.5} stroke-linecap="round" stroke-linejoin="round" />
</svg>