<svg xmlns="http://www.w3.org/2000/svg" width="24" height="24" viewBox="0 0 24 24" fill="none">
<path d="M1.99988 16C1.99988 18.2091 3.79074 20 5.99988 20C8.20902 20 9.99988 18.2091 9.99988 16C9.99988 13.7909 8.20902 12 5.99988 12C3.79074 12 1.99988 13.7909 1.99988 16ZM1.99988 16L1.99957 7.71266C1.99955 7.0865 1.99954 6.77341 2.08584 6.48922C2.16224 6.23763 2.28749 6.00357 2.45445 5.80044C2.64303 5.57099 2.90353 5.39732 3.42453 5.04999L4.99951 4M9.99951 16.5C9.99951 16.5 10.4999 15.5 11.9999 15.5C13.4999 15.5 13.9995 16.5 13.9995 16.5M21.9999 16L21.9996 7.71251C21.9996 7.0864 21.9995 6.77334 21.9132 6.48917C21.8368 6.23761 21.7116 6.00357 21.5446 5.80046C21.3561 5.57103 21.0956 5.39738 20.5746 5.05007L18.9995 4M21.9999 16C21.9999 18.2091 20.209 20 17.9999 20C15.7907 20 13.9999 18.2091 13.9999 16C13.9999 13.7909 15.7907 12 17.9999 12C20.209 12 21.9999 13.7909 21.9999 16Z" stroke="currentColor" stroke-width={2} stroke-linecap="round" stroke-linejoin="round" />
</svg>