<svg xmlns="http://www.w3.org/2000/svg" width="24" height="24" viewBox="0 0 24 24" fill="none">
<path d="M22 12C22 17.5228 17.5228 22 12 22M22 12C22 6.47715 17.5228 2 12 2M22 12C22 13.684 19.3983 15.125 15.7149 15.7149M22 12C22 10.881 20.8514 9.8694 19 9.14343M12 22C6.47715 22 2 17.5228 2 12M12 22C13.684 22 15.125 19.3983 15.7149 15.7149M12 22C10.881 22 9.8694 20.8514 9.14343 19M2 12C2 6.47715 6.47715 2 12 2M2 12C2 13.684 4.60173 15.125 8.28511 15.7149M2 12C2 10.316 4.60173 8.87498 8.28511 8.28511M12 2C13.684 2 15.125 4.60173 15.7149 8.28511M12 2C10.316 2 8.87498 4.60173 8.28511 8.28511M15.7149 8.28511C14.5664 8.10118 13.3127 8 12 8C10.6873 8 9.4336 8.10118 8.28511 8.28511M15.7149 8.28511C15.8988 9.4336 16 10.6873 16 12C16 13.3127 15.8988 14.5664 15.7149 15.7149M15.7149 15.7149C14.5664 15.8988 13.3127 16 12 16C10.6873 16 9.4336 15.8988 8.28511 15.7149M8.28511 15.7149C8.10118 14.5664 8 13.3127 8 12" stroke="currentColor" stroke-width={1.5} stroke-linecap="round" stroke-linejoin="round" />
</svg>