<svg xmlns="http://www.w3.org/2000/svg" width="24" height="24" viewBox="0 0 24 24" fill="none">
<path d="M19.6768 1.47461C21.5769 3.41287 22.75 6.07039 22.75 9C22.75 14.6849 18.337 19.3355 12.75 19.7207V21.25H14C14.4142 21.25 14.75 21.5858 14.75 22C14.75 22.4142 14.4142 22.75 14 22.75H10C9.58579 22.75 9.25 22.4142 9.25 22C9.25 21.5858 9.58579 21.25 10 21.25H11.25V19.7207C8.61848 19.5392 6.24602 18.4133 4.47461 16.6768C4.17912 16.3868 4.17498 15.9119 4.46484 15.6162C4.75483 15.3207 5.2297 15.3156 5.52539 15.6055C7.19463 17.2419 9.4787 18.25 12 18.25C17.1086 18.25 21.25 14.1086 21.25 9C21.25 6.4787 20.2419 4.19463 18.6055 2.52539L19.1416 2L19.6768 1.47461ZM12 1.25C16.2802 1.25 19.75 4.71979 19.75 9C19.75 13.2802 16.2802 16.75 12 16.75C7.71979 16.75 4.25 13.2802 4.25 9C4.25 4.71979 7.71979 1.25 12 1.25ZM18.6162 1.46484C18.9119 1.17498 19.3868 1.17912 19.6768 1.47461L18.6055 2.52539C18.3156 2.2297 18.3207 1.75483 18.6162 1.46484Z" fill="currentColor" />
</svg>