<svg xmlns="http://www.w3.org/2000/svg" width="24" height="24" viewBox="0 0 24 24" fill="none">
<path opacity={0.32} d="M12 1.25C7.71979 1.25 4.25 4.71979 4.25 9C4.25 13.2802 7.71979 16.75 12 16.75C16.2802 16.75 19.75 13.2802 19.75 9C19.75 4.71979 16.2802 1.25 12 1.25Z" fill="currentColor" /><path d="M19.6766 1.47464C21.5765 3.41288 22.7498 6.07055 22.7498 9.00003C22.7497 14.6847 18.3367 19.3354 12.7498 19.7207V21.25H13.9998C14.4139 21.2502 14.7498 21.5859 14.7498 22C14.7497 22.4141 14.4138 22.7499 13.9998 22.75H9.99981C9.58566 22.75 9.24991 22.4142 9.24981 22C9.24981 21.5858 9.5856 21.25 9.99981 21.25H11.2498V19.7207C8.61841 19.5392 6.2458 18.4132 4.47442 16.6768C4.17894 16.3868 4.17479 15.9119 4.46466 15.6162C4.75465 15.3208 5.22953 15.3157 5.5252 15.6055C7.19442 17.2417 9.47863 18.25 11.9998 18.25C17.1083 18.2499 21.2497 14.1085 21.2498 9.00003C21.2498 6.47885 20.2415 4.19464 18.6053 2.52542L19.1414 2.00003L19.6766 1.47464ZM18.616 1.46487C18.9117 1.17506 19.3866 1.17917 19.6766 1.47464L18.6053 2.52542C18.3154 2.22973 18.3205 1.75486 18.616 1.46487Z" fill="currentColor" />
</svg>