<svg xmlns="http://www.w3.org/2000/svg" width="24" height="24" viewBox="0 0 24 24" fill="none">
<path d="M1.47852 14.2081C2.11915 14.73 2.97583 15.1733 3.96582 15.5333C5.00487 15.9111 6.22866 16.2131 7.57715 16.422C7.78608 17.7709 8.08887 18.9949 8.4668 20.0343C8.82659 21.0237 9.26956 21.8801 9.79102 22.5206C5.62656 21.6506 2.34806 18.3727 1.47852 14.2081ZM22.5205 14.2081C21.6508 18.373 18.3728 21.651 14.208 22.5206C14.7296 21.88 15.1733 21.024 15.5332 20.0343C15.9111 18.995 16.2129 17.7709 16.4219 16.422C17.7707 16.2131 18.9949 15.9112 20.0342 15.5333C21.0238 15.1734 21.8799 14.7298 22.5205 14.2081ZM14.8701 16.6154C14.68 17.7076 14.4257 18.6894 14.123 19.5216C13.7785 20.4691 13.3864 21.1835 12.9883 21.6466C12.5881 22.1121 12.2514 22.2501 12 22.2501C11.7486 22.2501 11.4119 22.1121 11.0117 21.6466C10.6136 21.1835 10.2205 20.4691 9.87598 19.5216C9.57339 18.6894 9.31904 17.7076 9.12891 16.6154C10.0489 16.7031 11.0112 16.7501 12 16.7501C12.9885 16.7501 13.9504 16.7031 14.8701 16.6154ZM12 8.75012C13.0767 8.75012 14.1123 8.80805 15.085 8.91418C15.1912 9.88717 15.25 10.923 15.25 12.0001C15.25 13.077 15.1901 14.1123 15.084 15.0851C14.1116 15.1912 13.0764 15.2501 12 15.2501C10.9229 15.2501 9.88703 15.1913 8.91406 15.0851C8.80793 14.1124 8.75 13.0769 8.75 12.0001C8.75 10.9234 8.80793 9.88784 8.91406 8.91516C9.88702 8.80895 10.9229 8.75013 12 8.75012ZM7.38379 9.12903C7.296 10.049 7.25 11.0113 7.25 12.0001C7.25 12.9886 7.29606 13.9506 7.38379 14.8702C6.29204 14.6801 5.31044 14.4266 4.47852 14.1241C3.53102 13.7796 2.81664 13.3866 2.35352 12.9884C1.88798 12.5882 1.75 12.2516 1.75 12.0001C1.75004 11.7487 1.88804 11.412 2.35352 11.0118C2.81665 10.6137 3.53108 10.2216 4.47852 9.87708C5.31054 9.57454 6.29185 9.31916 7.38379 9.12903ZM16.6152 9.12903C17.7076 9.31918 18.6892 9.57445 19.5215 9.87708C20.4689 10.2216 21.1833 10.6137 21.6465 11.0118C22.112 11.4121 22.25 11.7487 22.25 12.0001C22.25 12.2516 22.1121 12.5881 21.6465 12.9884C21.1833 13.3866 20.469 13.7796 19.5215 14.1241C18.6893 14.4267 17.7074 14.6801 16.6152 14.8702C16.703 13.9505 16.75 12.9886 16.75 12.0001C16.75 11.0113 16.703 10.049 16.6152 9.12903ZM9.79102 1.47864C9.26935 2.11923 8.8267 2.97622 8.4668 3.96594C8.08896 5.00505 7.78608 6.2287 7.57715 7.57727C6.22861 7.7862 5.00491 8.08909 3.96582 8.46692C2.97613 8.82681 2.1191 9.26948 1.47852 9.79114C2.34837 5.6269 5.62678 2.3485 9.79102 1.47864ZM14.208 1.47864C18.3726 2.34819 21.6505 5.62668 22.5205 9.79114C21.88 9.26971 21.0236 8.82669 20.0342 8.46692C18.9948 8.08901 17.7708 7.7862 16.4219 7.57727C16.2129 6.22877 15.911 5.00501 15.5332 3.96594C15.1732 2.97598 14.7298 2.11928 14.208 1.47864ZM12 1.75012C12.2514 1.75015 12.5881 1.88815 12.9883 2.35364C13.3864 2.81678 13.7785 3.53118 14.123 4.47864C14.4256 5.31064 14.68 6.29201 14.8701 7.38391C13.9505 7.29619 12.9884 7.25012 12 7.25012C11.0112 7.25012 10.0489 7.29613 9.12891 7.38391C9.31902 6.29207 9.57348 5.31062 9.87598 4.47864C10.2205 3.53113 10.6136 2.81678 11.0117 2.35364C11.4119 1.88812 11.7486 1.75015 12 1.75012Z" fill="currentColor" />
</svg>