<svg xmlns="http://www.w3.org/2000/svg" width="24" height="24" viewBox="0 0 24 24" fill="none">
<path d="M1.46973 1.46973C1.74433 1.19512 2.17905 1.17766 2.47363 1.41797L2.53027 1.46973L10.4082 9.34766L14.6582 13.582L14.6602 13.584L18.8945 17.834L22.5303 21.4697L22.582 21.5264C22.8223 21.8209 22.8049 22.2557 22.5303 22.5303C22.2557 22.8049 21.8209 22.8223 21.5264 22.582L21.4697 22.5303L18.3408 19.4014C16.8138 20.7106 14.8783 21.5557 12.75 21.7178V23C12.75 23.4142 12.4142 23.75 12 23.75C11.5858 23.75 11.25 23.4142 11.25 23V21.7178C6.46343 21.3535 2.64649 17.5366 2.28223 12.75H1C0.585786 12.75 0.25 12.4142 0.25 12C0.25 11.5858 0.585786 11.25 1 11.25H2.28223C2.44431 9.12167 3.28836 7.18521 4.59766 5.6582L1.46973 2.53027L1.41797 2.47363C1.17766 2.17905 1.19512 1.74433 1.46973 1.46973ZM5.66016 6.7207C4.46702 8.15174 3.75 9.99156 3.75 12C3.75 16.5563 7.44365 20.25 12 20.25C14.0089 20.25 15.8481 19.5315 17.2793 18.3379L14.0732 15.1201C13.4789 15.5156 12.767 15.75 12 15.75C9.92893 15.75 8.25 14.0711 8.25 12C8.25 11.3182 8.43244 10.6764 8.75195 10.124C8.78975 10.0587 8.83054 9.99534 8.87207 9.93262L5.66016 6.7207ZM12 0.25C12.4142 0.25 12.75 0.585786 12.75 1V2.28125C17.5366 2.64548 21.3535 6.4634 21.7178 11.25H23C23.4142 11.25 23.75 11.5858 23.75 12C23.75 12.4142 23.4142 12.75 23 12.75H21.7207C21.6233 14.0285 21.2802 15.2396 20.7363 16.334C20.552 16.7049 20.1014 16.8562 19.7305 16.6719C19.3596 16.4875 19.2083 16.0369 19.3926 15.666C19.941 14.5625 20.25 13.3184 20.25 12C20.25 7.44365 16.5563 3.75 12 3.75C10.6816 3.75 9.43754 4.05901 8.33398 4.60742C7.96308 4.79174 7.51249 4.6404 7.32812 4.26953C7.1438 3.89862 7.29514 3.44804 7.66602 3.26367C8.76042 2.7198 9.9715 2.37666 11.25 2.2793V1C11.25 0.585786 11.5858 0.25 12 0.25Z" fill="currentColor" />
</svg>