<svg xmlns="http://www.w3.org/2000/svg" width="24" height="24" viewBox="0 0 24 24" fill="none">
<path opacity={0.32} d="M5.10547 5.10564C5.39831 4.8128 5.87311 4.8129 6.16602 5.10564C6.45891 5.39854 6.45891 5.8733 6.16602 6.16619C4.67233 7.65996 3.75 9.72187 3.75 12.0002C3.75016 16.5564 7.44375 20.2502 12 20.2502C14.2784 20.2502 16.3402 19.327 17.834 17.8332C18.1269 17.5406 18.6017 17.5404 18.8945 17.8332C19.1873 18.126 19.1871 18.6008 18.8945 18.8937C17.2963 20.4919 15.1433 21.5357 12.75 21.7179V23.0002C12.7498 23.4143 12.4141 23.7502 12 23.7502C11.5859 23.7502 11.2502 23.4143 11.25 23.0002V21.7179C6.46351 21.3537 2.64662 17.5366 2.28223 12.7502H1C0.585885 12.7502 0.25016 12.4143 0.25 12.0002C0.25 11.586 0.585786 11.2502 1 11.2502H2.28223C2.46441 8.85686 3.50727 6.70391 5.10547 5.10564Z" fill="currentColor" /><path d="M1.46967 1.46973C1.74427 1.19512 2.17899 1.17766 2.47358 1.41797L2.53022 1.46973L22.5302 21.4697L22.582 21.5264C22.8223 21.8209 22.8048 22.2557 22.5302 22.5303C22.2556 22.8049 21.8209 22.8223 21.5263 22.582L21.4697 22.5303L14.0673 15.1279C13.4746 15.5203 12.7639 15.75 11.9999 15.75C9.92888 15.75 8.24994 14.0711 8.24994 12C8.24994 11.236 8.4786 10.5244 8.87104 9.93164L1.46967 2.53027C1.17678 2.23738 1.17678 1.76262 1.46967 1.46973ZM11.9999 0.25C12.4142 0.25 12.7499 0.585786 12.7499 1V2.28125C17.5366 2.64548 21.3535 6.4634 21.7177 11.25H22.9999C23.4142 11.25 23.7499 11.5858 23.7499 12C23.7499 12.4142 23.4142 12.75 22.9999 12.75H21.7206C21.6233 14.0285 21.2801 15.2396 20.7363 16.334C20.5519 16.7049 20.1013 16.8562 19.7304 16.6719C19.3595 16.4875 19.2082 16.0369 19.3925 15.666C19.9409 14.5625 20.2499 13.3184 20.2499 12C20.2499 7.44365 16.5563 3.75 11.9999 3.75C10.6815 3.75 9.43748 4.05901 8.33393 4.60742C7.96303 4.79174 7.51244 4.6404 7.32807 4.26953C7.14374 3.89862 7.29509 3.44804 7.66596 3.26367C8.76036 2.7198 9.97144 2.37666 11.2499 2.2793V1C11.2499 0.585786 11.5857 0.25 11.9999 0.25Z" fill="currentColor" />
</svg>