<svg xmlns="http://www.w3.org/2000/svg" width="24" height="24" viewBox="0 0 24 24" fill="none">
<path d="M9 5.5V22M9 22H14C16.8003 22 18.2004 22 19.27 21.455C20.2108 20.9757 20.9757 20.2108 21.455 19.27C22 18.2004 22 16.8003 22 14V12M9 22C7.13872 22 6.20808 22 5.45492 21.7553C3.93273 21.2607 2.73931 20.0673 2.24472 18.5451C2 17.7919 2 16.8613 2 15V10C2 7.19974 2 5.79961 2.54497 4.73005C3.02433 3.78924 3.78924 3.02433 4.73005 2.54497C5.79961 2 7.19974 2 10 2H15.5C16.8945 2 17.5918 2 18.1672 2.13815C19.9955 2.57707 21.4229 4.00453 21.8618 5.83277C22 6.40821 22 7.10547 22 8.5V9H18.5M15 2V9M15 22L15 9M22 15H5.5M2 9H15" stroke="currentColor" stroke-width={1.5} stroke-linecap="round" stroke-linejoin="round" />
</svg>