<svg xmlns="http://www.w3.org/2000/svg" width="24" height="24" viewBox="0 0 24 24" fill="none">
<g opacity={0.32}><path d="M2.05 8.75C1.76997 8.75 1.62996 8.75 1.523 8.8045C1.42892 8.85243 1.35243 8.92892 1.3045 9.023C1.25 9.12996 1.25 9.26997 1.25 9.55V14.45C1.25 14.73 1.25 14.87 1.3045 14.977C1.35243 15.0711 1.42892 15.1476 1.523 15.1955C1.62996 15.25 1.76997 15.25 2.05 15.25H6.45C6.73003 15.25 6.87004 15.25 6.977 15.1955C7.07108 15.1476 7.14757 15.0711 7.1955 14.977C7.25 14.87 7.25 14.73 7.25 14.45V9.55C7.25 9.26997 7.25 9.12996 7.1955 9.023C7.14757 8.92892 7.07108 8.85243 6.977 8.8045C6.87004 8.75 6.73003 8.75 6.45 8.75H2.05Z" fill="currentColor" /><path d="M8.75 21.95C8.75 22.23 8.75 22.37 8.8045 22.477C8.85243 22.5711 8.92892 22.6476 9.02301 22.6955C9.12996 22.75 9.26997 22.75 9.55 22.75H14.45C14.73 22.75 14.87 22.75 14.977 22.6955C15.0711 22.6476 15.1476 22.5711 15.1955 22.477C15.25 22.37 15.25 22.23 15.25 21.95V17.55C15.25 17.27 15.25 17.13 15.1955 17.023C15.1476 16.9289 15.0711 16.8524 14.977 16.8045C14.87 16.75 14.73 16.75 14.45 16.75H9.55C9.26997 16.75 9.12996 16.75 9.02301 16.8045C8.92892 16.8524 8.85243 16.9289 8.8045 17.023C8.75 17.13 8.75 17.27 8.75 17.55V21.95Z" fill="currentColor" /><path d="M21.95 15.25C22.23 15.25 22.37 15.25 22.477 15.1955C22.5711 15.1476 22.6476 15.0711 22.6955 14.977C22.75 14.87 22.75 14.73 22.75 14.45V9.55C22.75 9.26997 22.75 9.12996 22.6955 9.023C22.6476 8.92892 22.5711 8.85243 22.477 8.8045C22.37 8.75 22.23 8.75 21.95 8.75H17.55C17.27 8.75 17.13 8.75 17.023 8.8045C16.9289 8.85243 16.8524 8.92892 16.8045 9.023C16.75 9.12996 16.75 9.26997 16.75 9.55V14.45C16.75 14.73 16.75 14.87 16.8045 14.977C16.8524 15.0711 16.9289 15.1476 17.023 15.1955C17.13 15.25 17.27 15.25 17.55 15.25H21.95Z" fill="currentColor" /><path d="M15.25 2.05C15.25 1.76997 15.25 1.62996 15.1955 1.523C15.1476 1.42892 15.0711 1.35243 14.977 1.3045C14.87 1.25 14.73 1.25 14.45 1.25H9.55C9.26997 1.25 9.12996 1.25 9.023 1.3045C8.92892 1.35243 8.85243 1.42892 8.8045 1.523C8.75 1.62996 8.75 1.76997 8.75 2.05V6.45C8.75 6.73003 8.75 6.87004 8.8045 6.977C8.85243 7.07108 8.92892 7.14757 9.023 7.1955C9.12996 7.25 9.26997 7.25 9.55 7.25H14.45C14.73 7.25 14.87 7.25 14.977 7.1955C15.0711 7.14757 15.1476 7.07108 15.1955 6.977C15.25 6.87004 15.25 6.73003 15.25 6.45V2.05Z" fill="currentColor" /></g><path d="M7.25 1.79545C7.25 1.75325 7.25 1.73214 7.24873 1.71433C7.23099 1.46631 7.03369 1.26901 6.78567 1.25127C6.76786 1.25 6.74675 1.25 6.70455 1.25C6.28246 1.25 6.07142 1.25 5.8933 1.26274C3.4131 1.44013 1.44013 3.4131 1.26274 5.8933C1.25 6.07142 1.25 6.28246 1.25 6.70455C1.25 6.74675 1.25 6.76786 1.25127 6.78567C1.26901 7.03369 1.46631 7.23099 1.71433 7.24873C1.73214 7.25 1.75325 7.25 1.79545 7.25H6.45C6.73003 7.25 6.87004 7.25 6.977 7.1955C7.07108 7.14757 7.14757 7.07108 7.1955 6.977C7.25 6.87004 7.25 6.73003 7.25 6.45L7.25 1.79545Z" fill="currentColor" /><path d="M1.79545 16.75C1.75325 16.75 1.73214 16.75 1.71433 16.7513C1.46631 16.769 1.26901 16.9663 1.25127 17.2143C1.25 17.2321 1.25 17.2532 1.25 17.2955C1.25 17.7175 1.25 17.9286 1.26274 18.1067C1.44013 20.5869 3.4131 22.5599 5.8933 22.7373C6.07142 22.75 6.28246 22.75 6.70455 22.75C6.74675 22.75 6.76786 22.75 6.78567 22.7487C7.03369 22.731 7.23099 22.5337 7.24873 22.2857C7.25 22.2679 7.25 22.2468 7.25 22.2045L7.25 17.55C7.25 17.27 7.25 17.13 7.1955 17.023C7.14757 16.9289 7.07108 16.8524 6.977 16.8045C6.87004 16.75 6.73003 16.75 6.45 16.75H1.79545Z" fill="currentColor" /><path d="M16.75 22.2045C16.75 22.2468 16.75 22.2679 16.7513 22.2857C16.769 22.5337 16.9663 22.731 17.2143 22.7487C17.2321 22.75 17.2532 22.75 17.2955 22.75C17.7175 22.75 17.9286 22.75 18.1067 22.7373C20.5869 22.5599 22.5599 20.5869 22.7373 18.1067C22.75 17.9286 22.75 17.7175 22.75 17.2955C22.75 17.2532 22.75 17.2321 22.7487 17.2143C22.731 16.9663 22.5337 16.769 22.2857 16.7513C22.2679 16.75 22.2468 16.75 22.2045 16.75H17.55C17.27 16.75 17.13 16.75 17.023 16.8045C16.9289 16.8524 16.8524 16.9289 16.8045 17.023C16.75 17.13 16.75 17.27 16.75 17.55V22.2045Z" fill="currentColor" /><path d="M22.2045 7.25C22.2468 7.25 22.2679 7.25 22.2857 7.24873C22.5337 7.23099 22.731 7.03369 22.7487 6.78567C22.75 6.76786 22.75 6.74675 22.75 6.70455C22.75 6.28246 22.75 6.07142 22.7373 5.8933C22.5599 3.4131 20.5869 1.44013 18.1067 1.26274C17.9286 1.25 17.7175 1.25 17.2955 1.25C17.2532 1.25 17.2321 1.25 17.2143 1.25127C16.9663 1.26901 16.769 1.46631 16.7513 1.71433C16.75 1.73214 16.75 1.75325 16.75 1.79545V6.45C16.75 6.73003 16.75 6.87004 16.8045 6.977C16.8524 7.07108 16.9289 7.14757 17.023 7.1955C17.13 7.25 17.27 7.25 17.55 7.25H22.2045Z" fill="currentColor" /><path d="M9.55 15.25C9.26997 15.25 9.12996 15.25 9.02301 15.1955C8.92892 15.1476 8.85243 15.0711 8.8045 14.977C8.75 14.87 8.75 14.73 8.75 14.45L8.75 9.55C8.75 9.26997 8.75 9.12996 8.8045 9.02301C8.85243 8.92892 8.92892 8.85243 9.02301 8.8045C9.12996 8.75 9.26997 8.75 9.55 8.75H14.45C14.73 8.75 14.87 8.75 14.977 8.8045C15.0711 8.85243 15.1476 8.92892 15.1955 9.023C15.25 9.12996 15.25 9.26997 15.25 9.55V14.45C15.25 14.73 15.25 14.87 15.1955 14.977C15.1476 15.0711 15.0711 15.1476 14.977 15.1955C14.87 15.25 14.73 15.25 14.45 15.25H9.55Z" fill="currentColor" />
</svg>