<svg xmlns="http://www.w3.org/2000/svg" width="24" height="24" viewBox="0 0 24 24" fill="none">
<path d="M8 2H7.5C7.0357 2 6.80355 2 6.6077 2.01541C4.15582 2.20838 2.20838 4.15582 2.01541 6.6077C2 6.80355 2 7.0357 2 7.5V14C2 16.8003 2 18.2004 2.54497 19.27C3.02433 20.2108 3.78924 20.9757 4.73005 21.455C5.79961 22 7.19974 22 10 22H14C16.8003 22 18.2004 22 19.27 21.455C20.2108 20.9757 20.9757 20.2108 21.455 19.27C22 18.2004 22 16.8003 22 14V10C22 7.19974 22 5.79961 21.455 4.73005C20.9757 3.78924 20.2108 3.02433 19.27 2.54497C18.2004 2 16.8003 2 14 2H12L12 18" stroke="currentColor" stroke-width={1.5} stroke-linecap="round" stroke-linejoin="round" />
</svg>