<svg xmlns="http://www.w3.org/2000/svg" width="24" height="24" viewBox="0 0 24 24" fill="none">
<path d="M22 8V7.5C22 7.0357 22 6.80355 21.9846 6.6077C21.7916 4.15582 19.8442 2.20838 17.3923 2.01541C17.1965 2 16.9643 2 16.5 2H10C7.19974 2 5.79961 2 4.73005 2.54497C3.78924 3.02433 3.02433 3.78924 2.54497 4.73005C2 5.79961 2 7.19974 2 10V12H8M2 16V16.5C2 16.9643 2 17.1965 2.01541 17.3923C2.20838 19.8442 4.15582 21.7916 6.6077 21.9846C6.80355 22 7.0357 22 7.5 22H14C16.8003 22 18.2004 22 19.27 21.455C20.2108 20.9757 20.9757 20.2108 21.455 19.27C22 18.2004 22 16.8003 22 14V12H12M12 2L12 22" stroke="currentColor" stroke-width={1.5} stroke-linecap="round" stroke-linejoin="round" />
</svg>