<svg xmlns="http://www.w3.org/2000/svg" width="24" height="24" viewBox="0 0 24 24" fill="none">
<path d="M14.45 16.75C14.73 16.75 14.87 16.75 14.977 16.8045C15.0711 16.8524 15.1476 16.9289 15.1955 17.023C15.25 17.13 15.25 17.27 15.25 17.55V22.2471C15.25 22.2491 15.25 22.2502 15.25 22.2503C15.2498 22.5261 15.0261 22.7498 14.7503 22.75C14.7502 22.75 14.7501 22.75 14.75 22.75H9.25C9.2499 22.75 9.24984 22.75 9.24969 22.75C8.97394 22.7498 8.75017 22.5261 8.75 22.2503C8.75 22.2502 8.75 22.2491 8.75 22.2471V17.55C8.75 17.27 8.75 17.13 8.8045 17.023C8.85243 16.9289 8.92892 16.8524 9.023 16.8045C9.12996 16.75 9.26997 16.75 9.55 16.75H14.45ZM6.45 16.75C6.73003 16.75 6.87004 16.75 6.977 16.8045C7.07108 16.8524 7.14757 16.9289 7.1955 17.023C7.25 17.13 7.25 17.27 7.25 17.55V21.9218C7.25 22.2072 7.25 22.3499 7.19206 22.4595C7.14212 22.554 7.05821 22.6338 6.96133 22.679C6.84896 22.7314 6.71094 22.7245 6.43491 22.7108C5.35598 22.657 4.61082 22.5262 3.98047 22.2051C3.03966 21.7257 2.27429 20.9603 1.79492 20.0195C1.47384 19.3892 1.34299 18.644 1.28922 17.5651C1.27547 17.2891 1.26859 17.151 1.321 17.0387C1.36618 16.9418 1.44601 16.8579 1.54052 16.8079C1.65015 16.75 1.79282 16.75 2.07816 16.75H6.45ZM21.9218 16.75C22.2072 16.75 22.3499 16.75 22.4595 16.8079C22.554 16.8579 22.6338 16.9418 22.679 17.0387C22.7314 17.151 22.7245 17.2891 22.7108 17.5651C22.657 18.644 22.5262 19.3892 22.2051 20.0195C21.7257 20.9603 20.9603 21.7257 20.0195 22.2051C19.3892 22.5262 18.644 22.657 17.5651 22.7108C17.2891 22.7245 17.151 22.7314 17.0387 22.679C16.9418 22.6338 16.8579 22.554 16.8079 22.4595C16.75 22.3499 16.75 22.2072 16.75 21.9218V17.55C16.75 17.27 16.75 17.13 16.8045 17.023C16.8524 16.9289 16.9289 16.8524 17.023 16.8045C17.13 16.75 17.27 16.75 17.55 16.75H21.9218ZM22.75 9.25V14.75C22.75 14.7501 22.75 14.7502 22.75 14.7503C22.7498 15.0261 22.5261 15.2498 22.2503 15.25C22.2502 15.25 22.2495 15.25 22.248 15.25H17.55C17.27 15.25 17.13 15.25 17.023 15.1955C16.9289 15.1476 16.8524 15.0711 16.8045 14.977C16.75 14.87 16.75 14.73 16.75 14.45V9.55C16.75 9.26997 16.75 9.12996 16.8045 9.023C16.8524 8.92892 16.9289 8.85243 17.023 8.8045C17.13 8.75 17.27 8.75 17.55 8.75H22.248C22.2495 8.75 22.2502 8.75 22.2503 8.75C22.5261 8.75017 22.7498 8.97394 22.75 9.24969C22.75 9.24985 22.75 9.2499 22.75 9.25ZM6.45 8.75C6.73003 8.75 6.87004 8.75 6.977 8.8045C7.07108 8.85243 7.14757 8.92892 7.1955 9.023C7.25 9.12996 7.25 9.26997 7.25 9.55V14.45C7.25 14.73 7.25 14.87 7.1955 14.977C7.14757 15.0711 7.07108 15.1476 6.977 15.1955C6.87004 15.25 6.73003 15.25 6.45 15.25H1.75196C1.75055 15.25 1.74985 15.25 1.74969 15.25C1.47394 15.2498 1.25017 15.0261 1.25 14.7503C1.25 14.7502 1.25 14.7501 1.25 14.75V9.25C1.25 9.2499 1.25 9.24985 1.25 9.24969C1.25017 8.97394 1.47394 8.75017 1.74969 8.75C1.74985 8.75 1.75055 8.75 1.75196 8.75H6.45ZM14.45 8.75C14.73 8.75 14.87 8.75 14.977 8.8045C15.0711 8.85243 15.1476 8.92892 15.1955 9.023C15.25 9.12996 15.25 9.26997 15.25 9.55V14.45C15.25 14.73 15.25 14.87 15.1955 14.977C15.1476 15.0711 15.0711 15.1476 14.977 15.1955C14.87 15.25 14.73 15.25 14.45 15.25H9.55C9.26997 15.25 9.12996 15.25 9.023 15.1955C8.92892 15.1476 8.85243 15.0711 8.8045 14.977C8.75 14.87 8.75 14.73 8.75 14.45V9.55C8.75 9.26997 8.75 9.12996 8.8045 9.023C8.85243 8.92892 8.92892 8.85243 9.023 8.8045C9.12996 8.75 9.26997 8.75 9.55 8.75H14.45ZM16.75 2.07718C16.75 1.79185 16.75 1.64918 16.808 1.53954C16.8579 1.44503 16.9418 1.36518 17.0387 1.32002C17.1511 1.26762 17.2891 1.27453 17.5651 1.28834C18.644 1.34234 19.3892 1.47383 20.0195 1.79492C20.9603 2.27429 21.7257 3.03966 22.2051 3.98047C22.5262 4.61082 22.657 5.35598 22.7108 6.43491C22.7245 6.71094 22.7314 6.84896 22.679 6.96133C22.6338 7.05821 22.554 7.14212 22.4595 7.19206C22.3499 7.25 22.2072 7.25 21.9218 7.25H17.55C17.27 7.25 17.13 7.25 17.023 7.1955C16.9289 7.14757 16.8524 7.07108 16.8045 6.977C16.75 6.87004 16.75 6.73003 16.75 6.45V2.07718ZM7.25 6.45C7.25 6.73003 7.25 6.87004 7.1955 6.977C7.14757 7.07108 7.07108 7.14757 6.977 7.1955C6.87004 7.25 6.73003 7.25 6.45 7.25H2.07816C1.79282 7.25 1.65015 7.25 1.54052 7.19206C1.44601 7.14212 1.36618 7.05821 1.321 6.96133C1.26859 6.84896 1.27547 6.71094 1.28922 6.43491C1.34299 5.35598 1.47384 4.61082 1.79492 3.98047C2.27429 3.03966 3.03966 2.27429 3.98047 1.79492C4.61082 1.47383 5.35598 1.34234 6.43491 1.28834C6.71088 1.27453 6.84886 1.26762 6.96126 1.32002C7.05815 1.36518 7.14209 1.44503 7.19205 1.53954C7.25 1.64918 7.25 1.79185 7.25 2.07718V6.45ZM14.75 1.25C14.7501 1.25 14.7502 1.25 14.7503 1.25C15.0261 1.25017 15.2498 1.47394 15.25 1.74969C15.25 1.74985 15.25 1.75055 15.25 1.75196V6.45C15.25 6.73003 15.25 6.87004 15.1955 6.977C15.1476 7.07108 15.0711 7.14757 14.977 7.1955C14.87 7.25 14.73 7.25 14.45 7.25H9.55C9.26997 7.25 9.12996 7.25 9.023 7.1955C8.92892 7.14757 8.85243 7.07108 8.8045 6.977C8.75 6.87004 8.75 6.73003 8.75 6.45V1.75196C8.75 1.75055 8.75 1.74985 8.75 1.74969C8.75017 1.47394 8.97394 1.25017 9.24969 1.25C9.24985 1.25 9.2499 1.25 9.25 1.25H14.75Z" fill="currentColor" />
</svg>