<svg xmlns="http://www.w3.org/2000/svg" width="24" height="24" viewBox="0 0 24 24" fill="none">
<path d="M10.7675 1.25C8.49525 1.25 7.35911 1.25 6.41917 1.65095C5.59003 2.00464 4.87192 2.5759 4.34085 3.30428C3.73881 4.12999 3.48334 5.23704 2.9724 7.45112L1.60223 13.3885C2.24682 12.781 3.05053 12.3401 3.94721 12.132C4.52452 11.998 5.16809 11.9989 5.83419 11.9998H18.1659C18.832 11.9989 19.4756 11.998 20.0529 12.132C20.9496 12.3401 21.7533 12.781 22.3979 13.3885L21.0277 7.45112C20.5168 5.23704 20.2613 4.12999 19.6593 3.30428C19.1282 2.5759 18.4101 2.00464 17.5809 1.65095C16.641 1.25 15.5049 1.25 13.2326 1.25H10.7675Z" fill="currentColor" /><path fill-rule="evenodd" clip-rule="evenodd" d="M5.88425 13.25H18.1158C18.9338 13.2497 19.492 13.2495 19.9706 13.3778C21.2647 13.7245 22.2755 14.7353 22.6223 16.0294C22.7505 16.5081 22.7503 17.0662 22.7501 17.8841V18.1158C22.7503 18.9337 22.7505 19.4919 22.6223 19.9706C22.2755 21.2647 21.2647 22.2755 19.9706 22.6222C19.492 22.7505 18.9338 22.7503 18.1158 22.75H5.88425C5.06629 22.7503 4.50814 22.7505 4.02948 22.6222C2.73538 22.2755 1.72458 21.2647 1.37783 19.9706C1.24957 19.4919 1.24975 18.9337 1.25002 18.1158V17.8842C1.24975 17.0662 1.24957 16.5081 1.37783 16.0294C1.72458 14.7353 2.73538 13.7245 4.02948 13.3778C4.50814 13.2495 5.06629 13.2497 5.88425 13.25ZM7.00006 19C7.55235 19 8.00006 18.5523 8.00006 18C8.00006 17.4477 7.55235 17 7.00006 17C6.44778 17 6.00006 17.4477 6.00006 18C6.00006 18.5523 6.44778 19 7.00006 19ZM18.0001 18C18.0001 18.4142 17.6643 18.75 17.2501 18.75H10.7501C10.3358 18.75 10.0001 18.4142 10.0001 18C10.0001 17.5858 10.3358 17.25 10.7501 17.25H17.2501C17.6643 17.25 18.0001 17.5858 18.0001 18Z" fill="currentColor" />
</svg>