<svg xmlns="http://www.w3.org/2000/svg" width="24" height="24" viewBox="0 0 24 24" fill="none">
<path d="M12 1.25C17.9371 1.25 22.75 6.06294 22.75 12C22.75 17.9371 17.9371 22.75 12 22.75C6.06294 22.75 1.25 17.9371 1.25 12C1.25 6.06294 6.06294 1.25 12 1.25ZM14.5996 6.00488C14.0501 5.94993 13.5599 6.3509 13.5049 6.90039L13.2949 9H11.3047L11.4951 7.09961C11.5501 6.5501 11.1491 6.05989 10.5996 6.00488C10.0501 5.94993 9.55989 6.3509 9.50488 6.90039L9.29492 9H7.625C7.07272 9 6.625 9.44771 6.625 10C6.625 10.5523 7.07272 11 7.625 11H9.09473L8.89453 13H7C6.44772 13 6 13.4477 6 14C6 14.5523 6.44772 15 7 15H8.69531L8.50488 16.9004C8.44993 17.4499 8.8509 17.9401 9.40039 17.9951C9.9499 18.0501 10.4401 17.6491 10.4951 17.0996L10.7051 15H12.6953L12.5049 16.9004C12.4499 17.4499 12.8509 17.9401 13.4004 17.9951C13.9499 18.0501 14.4401 17.6491 14.4951 17.0996L14.7051 15H16.375L16.4775 14.9951C16.9817 14.9438 17.375 14.5177 17.375 14C17.375 13.4823 16.9817 13.0562 16.4775 13.0049L16.375 13H14.9053L15.1055 11H17L17.1025 10.9951C17.6067 10.9438 18 10.5177 18 10C18 9.48232 17.6067 9.05621 17.1025 9.00488L17 9H15.3047L15.4951 7.09961C15.5501 6.5501 15.1491 6.05989 14.5996 6.00488ZM13.0947 11L12.8945 13H10.9053L11.1055 11H13.0947Z" fill="currentColor" />
</svg>