<svg xmlns="http://www.w3.org/2000/svg" width="24" height="24" viewBox="0 0 24 24" fill="none">
<path d="M12 1.25C17.9371 1.25 22.75 6.06294 22.75 12V19C22.75 19.6967 22.75 20.0452 22.6924 20.335C22.4557 21.525 21.525 22.4557 20.335 22.6924C20.0452 22.75 19.6967 22.75 19 22.75C18.3033 22.75 17.9548 22.75 17.665 22.6924C16.475 22.4557 15.5443 21.525 15.3076 20.335C15.25 20.0452 15.25 19.6967 15.25 19V16C15.25 15.3033 15.25 14.9548 15.3076 14.665C15.5443 13.475 16.475 12.5443 17.665 12.3076C17.9548 12.25 18.3033 12.25 19 12.25C19.6967 12.25 20.0452 12.25 20.335 12.3076C20.663 12.3729 20.9705 12.4927 21.25 12.6543V12C21.25 6.89137 17.1086 2.75 12 2.75C6.89137 2.75 2.75 6.89137 2.75 12V12.6543C3.02948 12.4927 3.337 12.3729 3.66504 12.3076C3.95478 12.25 4.30326 12.25 5 12.25C5.69674 12.25 6.04522 12.25 6.33496 12.3076C7.52503 12.5443 8.45566 13.475 8.69238 14.665C8.74997 14.9548 8.75 15.3033 8.75 16V19C8.75 19.6967 8.74997 20.0452 8.69238 20.335C8.45566 21.525 7.52503 22.4557 6.33496 22.6924C6.04522 22.75 5.69674 22.75 5 22.75C4.30326 22.75 3.95478 22.75 3.66504 22.6924C2.47497 22.4557 1.54434 21.525 1.30762 20.335C1.25003 20.0452 1.25 19.6967 1.25 19V12C1.25 6.06294 6.06294 1.25 12 1.25Z" fill="currentColor" />
</svg>