<svg xmlns="http://www.w3.org/2000/svg" width="24" height="24" viewBox="0 0 24 24" fill="none">
<path d="M19 9V13M19 13C19.9319 13 20.3978 13 20.7654 13.1522C21.2554 13.3552 21.6448 13.7446 21.8478 14.2346C22 14.6022 22 15.0681 22 16V19C22 19.9319 22 20.3978 21.8478 20.7654C21.6448 21.2554 21.2554 21.6448 20.7654 21.8478C20.3978 22 19.9319 22 19 22C18.0681 22 17.6022 22 17.2346 21.8478C16.7446 21.6448 16.3552 21.2554 16.1522 20.7654C16 20.3978 16 19.9319 16 19V16C16 15.0681 16 14.6022 16.1522 14.2346C16.3552 13.7446 16.7446 13.3552 17.2346 13.1522C17.6022 13 18.0681 13 19 13ZM17.7453 5C16.4804 3.18652 14.3787 2 12 2C8.13401 2 5 5.13401 5 9V11.4C5 11.8628 5 12.0942 4.92434 12.2775C4.84375 12.4727 4.77815 12.5586 4.61097 12.6876C4.45399 12.8087 4.10489 12.9038 3.40669 13.0938C3.34634 13.1103 3.28939 13.1296 3.23463 13.1522C2.74458 13.3552 2.35523 13.7446 2.15224 14.2346C2 14.6022 2 15.0681 2 16V19C2 19.9319 2 20.3978 2.15224 20.7654C2.35523 21.2554 2.74458 21.6448 3.23463 21.8478C3.60218 22 4.06812 22 5 22C5.93188 22 6.39782 22 6.76537 21.8478C7.25542 21.6448 7.64477 21.2554 7.84776 20.7654C8 20.3978 8 19.9319 8 19V15" stroke="currentColor" stroke-width={1.5} stroke-linecap="round" stroke-linejoin="round" />
</svg>