<svg xmlns="http://www.w3.org/2000/svg" width="24" height="24" viewBox="0 0 24 24" fill="none">
<path d="M12 1.25C16.2802 1.25 19.75 4.71979 19.75 9V12.252C20.4396 12.2604 20.8588 12.2962 21.207 12.4404C21.8193 12.6942 22.3058 13.1807 22.5596 13.793C22.7499 14.2524 22.75 14.8351 22.75 16V19C22.75 20.1649 22.7499 20.7476 22.5596 21.207C22.3058 21.8193 21.8193 22.3058 21.207 22.5596C20.7476 22.7499 20.1649 22.75 19 22.75C17.8351 22.75 17.2524 22.7499 16.793 22.5596C16.1807 22.3058 15.6942 21.8193 15.4404 21.207C15.2501 20.7476 15.25 20.1649 15.25 19V16C15.25 14.8351 15.2501 14.2524 15.4404 13.793C15.6942 13.1807 16.1807 12.6942 16.793 12.4404C17.1412 12.2962 17.5604 12.2604 18.25 12.252V9C18.25 5.54822 15.4518 2.75 12 2.75C8.54822 2.75 5.75 5.54822 5.75 9V12.252C6.4396 12.2604 6.85881 12.2962 7.20703 12.4404C7.81934 12.6942 8.30584 13.1807 8.55957 13.793C8.74987 14.2524 8.75 14.8351 8.75 16V19C8.75 20.1649 8.74987 20.7476 8.55957 21.207C8.30584 21.8193 7.81934 22.3058 7.20703 22.5596C6.7476 22.7499 6.16485 22.75 5 22.75C3.83515 22.75 3.2524 22.7499 2.79297 22.5596C2.18066 22.3058 1.69416 21.8193 1.44043 21.207C1.25013 20.7476 1.25 20.1649 1.25 19V16C1.25 14.8351 1.25013 14.2524 1.44043 13.793C1.69416 13.1807 2.18066 12.6942 2.79297 12.4404C3.14119 12.2962 3.5604 12.2604 4.25 12.252V9C4.25 4.71979 7.71979 1.25 12 1.25Z" fill="currentColor" />
</svg>