<svg xmlns="http://www.w3.org/2000/svg" width="24" height="24" viewBox="0 0 24 24" fill="none">
<rect opacity={0.12} x={2} y={2} width={20} height={20} rx={6} fill="currentColor" /><path d="M11.5 10V12.5L13.5 13.5M6 12C6 15.3137 8.68629 18 12 18C15.3137 18 18 15.3137 18 12C18 8.68629 15.3137 6 12 6C9.77915 6 8 7 6.5 8.5L7.5 5M12 22C8.26154 22 6.3923 22 5 21.1962C4.08788 20.6695 3.33046 19.9121 2.80385 19C2 17.6077 2 15.7385 2 12C2 8.26154 2 6.3923 2.80385 5C3.33046 4.08788 4.08788 3.33046 5 2.80385C6.3923 2 8.26154 2 12 2C15.7385 2 17.6077 2 19 2.80385C19.9121 3.33046 20.6695 4.08788 21.1962 5C22 6.3923 22 8.26154 22 12C22 15.7385 22 17.6077 21.1962 19C20.6695 19.9121 19.9121 20.6695 19 21.1962C17.6077 22 15.7385 22 12 22Z" stroke="currentColor" stroke-width={1.5} stroke-linecap="round" stroke-linejoin="round" />
</svg>