<svg xmlns="http://www.w3.org/2000/svg" width="24" height="24" viewBox="0 0 24 24" fill="none">
<path opacity={0.32} d="M10.85 1.25C7.48969 1.25 5.80953 1.25 4.52606 1.90396C3.39708 2.4792 2.4792 3.39708 1.90396 4.52606C1.25 5.80953 1.25 7.48969 1.25 10.85V13.15C1.25 16.5103 1.25 18.1905 1.90396 19.4739C2.4792 20.6029 3.39708 21.5208 4.52606 22.096C5.80953 22.75 7.48969 22.75 10.85 22.75H13.15C16.5103 22.75 18.1905 22.75 19.4739 22.096C20.6029 21.5208 21.5208 20.6029 22.096 19.4739C22.75 18.1905 22.75 16.5103 22.75 13.15V10.85C22.75 7.48969 22.75 5.80953 22.096 4.52606C21.5208 3.39708 20.6029 2.4792 19.4739 1.90396C18.1905 1.25 16.5103 1.25 13.15 1.25H10.85Z" fill="currentColor" /><path d="M6.7793 4.79372C6.89314 4.39553 7.30782 4.16529 7.70605 4.27908C8.10424 4.39293 8.33448 4.80761 8.2207 5.20583L7.86621 6.44509C9.06167 5.70439 10.4264 5.24978 12 5.24978C15.7279 5.24978 18.75 8.27186 18.75 11.9998C18.75 15.7277 15.7279 18.7498 12 18.7498C8.2721 18.7498 5.25003 15.7277 5.25 11.9998C5.25 11.5856 5.58579 11.2498 6 11.2498C6.41421 11.2498 6.75 11.5856 6.75 11.9998C6.75003 14.8992 9.10052 17.2498 12 17.2498C14.8995 17.2498 17.25 14.8992 17.25 11.9998C17.25 9.10028 14.8995 6.74978 12 6.74978C10.0341 6.74978 8.43491 7.62541 7.03027 9.03005C6.78872 9.27158 6.41459 9.31929 6.12012 9.14626C5.82558 8.97296 5.68544 8.62232 5.7793 8.29372L6.7793 4.79372ZM11.5 9.24978C11.9142 9.24978 12.25 9.58557 12.25 9.99978V12.0359L13.835 12.8289C14.2053 13.0141 14.3558 13.4643 14.1709 13.8347C13.9973 14.182 13.5907 14.3356 13.2354 14.201L13.165 14.1707L11.165 13.1707C10.911 13.0436 10.75 12.7838 10.75 12.4998V9.99978C10.75 9.58557 11.0858 9.24978 11.5 9.24978Z" fill="currentColor" />
</svg>