<svg xmlns="http://www.w3.org/2000/svg" width="40" height="40" viewBox="0 0 40 40" fill="none">
<g clipPath="url(#clip0_48_3229)"><path d="M4.1665 15.833L6.61823 28.0917C7.22911 31.1461 7.53455 32.6733 8.33198 33.8157C9.03518 34.8231 10.0031 35.6165 11.1288 36.1085C12.4054 36.6664 13.9628 36.6664 17.0778 36.6664H22.9219C26.0368 36.6664 27.5943 36.6664 28.8709 36.1085C29.9966 35.6165 30.9645 34.8231 31.6677 33.8157C32.4651 32.6733 32.7706 31.1461 33.3815 28.0917L35.8332 15.833M1.6665 18.333L12.4574 7.54214C15.0975 4.90203 16.4175 3.58197 17.9397 3.08739C19.2787 2.65233 20.721 2.65233 22.06 3.08739C23.5821 3.58197 24.9022 4.90203 27.5423 7.54214L38.3332 18.333M24.9998 19.9997C24.9998 22.7611 22.7613 24.9997 19.9998 24.9997C17.2384 24.9997 14.9998 22.7611 14.9998 19.9997C14.9998 17.2382 17.2384 14.9997 19.9998 14.9997C22.7613 14.9997 24.9998 17.2382 24.9998 19.9997Z" stroke="currentColor" stroke-width={3} stroke-linecap="round" stroke-linejoin="round" /></g><defs><clipPath id="clip0_48_3229"><rect width={40} height={40} fill="white" /></clipPath></defs>
</svg>