<svg xmlns="http://www.w3.org/2000/svg" width="40" height="40" viewBox="0 0 40 40" fill="none">
<path d="M28.3333 6.67445C24.6646 3.78385 22.4868 2.33855 19.9999 2.33855C17.0767 2.33855 14.5806 4.33546 9.58833 8.32927L9.24772 8.60176C6.51211 10.7902 5.1443 11.8845 4.34073 13.3666C4.2115 13.605 4.09399 13.8495 3.9886 14.0993C3.33325 15.6526 3.33325 17.4043 3.33325 20.9076V28.3333C3.33325 32.9357 7.06421 36.6667 11.6666 36.6667C13.5075 36.6667 14.9999 35.1743 14.9999 33.3333V26.6666C14.9999 23.9051 17.2385 21.6666 19.9999 21.6666C22.7613 21.6666 24.9999 23.9051 24.9999 26.6666V33.3333C24.9999 35.1743 26.4923 36.6667 28.3333 36.6667C32.9356 36.6667 36.6666 32.9357 36.6666 28.3333V20.9076C36.6666 17.4043 36.6666 15.6526 36.0112 14.0993C35.9059 13.8495 35.7883 13.605 35.6591 13.3666C35.1625 12.4507 34.4504 11.6829 33.3333 10.7135" stroke="currentColor" stroke-width={3.33333} stroke-linecap="round" stroke-linejoin="round" />
</svg>