<svg xmlns="http://www.w3.org/2000/svg" width="40" height="40" viewBox="0 0 40 40" fill="none">
<g clipPath="url(#clip0_48_3136)"><path d="M36.6666 28.333V19.7413C36.6666 17.388 36.6666 16.2114 36.3673 15.125C36.1022 14.1625 35.6663 13.2556 35.0803 12.4473C34.419 11.5349 33.5002 10.7999 31.6625 9.32976L28.3292 6.66309C25.3565 4.28497 23.8702 3.09591 22.2218 2.6399C20.7679 2.23766 19.232 2.23766 17.778 2.6399C16.1296 3.09591 14.6433 4.28497 11.6707 6.66309L8.33732 9.32976L8.33731 9.32977C6.49968 10.7999 5.58086 11.5349 4.91949 12.4473C4.33358 13.2556 3.89767 14.1625 3.63254 15.125C3.33325 16.2114 3.33325 17.388 3.33325 19.7414V28.333C3.33325 32.9354 7.06421 36.6663 11.6666 36.6663C13.5075 36.6663 14.9999 35.174 14.9999 33.333V26.6662C14.9999 23.9048 17.2385 21.6662 19.9999 21.6662C22.7613 21.6662 24.9999 23.9048 24.9999 26.6662V33.333C24.9999 35.174 26.4923 36.6663 28.3333 36.6663C32.9356 36.6663 36.6666 32.9354 36.6666 28.333Z" stroke="currentColor" stroke-width={3.33333} stroke-linecap="round" stroke-linejoin="round" /></g><defs><clipPath id="clip0_48_3136"><rect width={40} height={40} fill="white" /></clipPath></defs>
</svg>