<svg xmlns="http://www.w3.org/2000/svg" width="40" height="40" viewBox="0 0 40 40" fill="none">
<path d="M17.5531 1.89804C19.1428 1.38151 20.8559 1.38171 22.4457 1.89804C23.4261 2.21659 24.2815 2.78532 25.1908 3.55722C26.089 4.3197 27.1209 5.35257 28.4261 6.6578L39.2172 17.4488L39.3031 17.5435C39.7035 18.0344 39.6745 18.7587 39.2172 19.2164C38.7595 19.674 38.0353 19.7028 37.5443 19.3023L37.4496 19.2164L36.6 18.3678L34.6068 28.3365C34.305 29.8456 34.0659 31.045 33.7982 32.0064C33.5263 32.9827 33.2035 33.7991 32.6928 34.5308C31.8578 35.727 30.7082 36.6693 29.3715 37.2535C28.5535 37.6109 27.689 37.7682 26.6781 37.8433C25.683 37.9173 24.4608 37.9166 22.9222 37.9166H17.0775C15.5387 37.9166 14.3159 37.9173 13.3207 37.8433C12.31 37.7682 11.446 37.6109 10.6283 37.2535C9.29167 36.6693 8.14197 35.727 7.30701 34.5308C6.79629 33.7991 6.47245 32.9827 6.20056 32.0064C5.93286 31.045 5.69377 29.8455 5.39197 28.3365L3.39783 18.3678L2.55017 19.2164C2.06201 19.7045 1.27073 19.7045 0.782596 19.2164C0.294932 18.7282 0.294666 17.9368 0.782596 17.4488L11.5736 6.6578C12.8789 5.35253 13.9108 4.31972 14.809 3.55722C15.7182 2.78533 16.5728 2.21664 17.5531 1.89804ZM20.0004 14.9996C17.239 14.9996 15.0005 17.2383 15.0004 19.9996C15.0004 22.761 17.2389 24.9996 20.0004 24.9996C22.7617 24.9995 25.0004 22.7609 25.0004 19.9996C25.0002 17.2384 22.7616 14.9998 20.0004 14.9996Z" fill="currentColor" />
</svg>