<svg xmlns="http://www.w3.org/2000/svg" width="40" height="40" viewBox="0 0 40 40" fill="none">
<g clipPath="url(#clip0_48_3218)"><path fill-rule="evenodd" clip-rule="evenodd" d="M2.0835 20.4214C2.0835 17.5975 2.0835 16.1855 2.44264 14.8818C2.7608 13.7269 3.28389 12.6385 3.98698 11.6686C4.78063 10.5737 5.88321 9.69167 8.08838 7.92754L10.005 6.39421C13.5722 3.54046 15.3558 2.11359 17.3338 1.56638C19.0786 1.08369 20.9217 1.08369 22.6665 1.56638C24.6445 2.11359 26.4281 3.54046 29.9953 6.39421L31.9119 7.92754C34.1171 9.69167 35.2197 10.5737 36.0133 11.6686C36.7164 12.6385 37.2395 13.7269 37.5577 14.8818C37.9168 16.1855 37.9168 17.5975 37.9168 20.4214V21.9156C37.9168 27.5161 37.9168 30.3163 36.8269 32.4555C35.8682 34.3371 34.3384 35.8669 32.4567 36.8256C30.3176 37.9156 27.5174 37.9156 21.9168 37.9156H18.0835C12.483 37.9156 9.68271 37.9156 7.54359 36.8256C5.66197 35.8669 4.13216 34.3371 3.17343 32.4555C2.0835 30.3163 2.0835 27.5161 2.0835 21.9156V20.4214ZM14.5835 25.4163C13.8931 25.4163 13.3335 25.976 13.3335 26.6663C13.3335 27.3567 13.8931 27.9163 14.5835 27.9163H25.4168C26.1072 27.9163 26.6668 27.3567 26.6668 26.6663C26.6668 25.976 26.1072 25.4163 25.4168 25.4163H14.5835Z" fill="currentColor" /></g><defs><clipPath id="clip0_48_3218"><rect width={40} height={40} fill="white" /></clipPath></defs>
</svg>