<svg xmlns="http://www.w3.org/2000/svg" width="40" height="40" viewBox="0 0 40 40" fill="none">
<path d="M3.3335 19.9999V19.1666C3.3335 17.3779 3.3335 16.4835 3.50712 15.6463C3.78323 14.3149 4.38094 13.0713 5.24812 12.024C5.79339 11.3654 6.49176 10.8067 7.88848 9.68934L11.6709 6.66341C14.6435 4.28529 16.1299 3.09623 17.7782 2.64022C19.2322 2.23798 20.7681 2.23798 22.2221 2.64022C23.8705 3.09623 25.3568 4.28529 28.3294 6.66341L31.6628 9.33008C33.5004 10.8002 34.4192 11.5352 35.0806 12.4476C35.6665 13.2559 36.1024 14.1628 36.3675 15.1253C36.6668 16.2117 36.6668 17.3883 36.6668 19.7417V23.3333C36.6668 28.0004 36.6668 30.334 35.7585 32.1166C34.9596 33.6846 33.6848 34.9594 32.1167 35.7584C30.3342 36.6667 28.0006 36.6667 23.3335 36.6667H12.5003C11.7263 36.6667 11.3394 36.6667 11.0129 36.641C6.92652 36.3193 3.68084 33.0736 3.35919 28.9872C3.3335 28.6608 3.3335 28.2738 3.3335 27.4999V26.6666M25.0002 31.6667V25C25.0002 23.4469 25.0002 22.6703 24.7464 22.0577C24.4081 21.241 23.7592 20.592 22.9424 20.2537C22.3299 20 21.5533 20 20.0002 20C18.447 20 17.6705 20 17.0579 20.2537C16.2411 20.592 15.5922 21.241 15.2539 22.0577C15.0002 22.6703 15.0002 23.4469 15.0002 25V36.6667" stroke="currentColor" stroke-width={3} stroke-linecap="round" stroke-linejoin="round" />
</svg>