<svg xmlns="http://www.w3.org/2000/svg" width="40" height="40" viewBox="0 0 40 40" fill="none">
<g clipPath="url(#clip0_48_3208)"><path d="M3.33325 19.9996V19.1662C3.33325 17.3776 3.33325 16.4832 3.50687 15.646C3.78299 14.3146 4.3807 13.071 5.24787 12.0237C5.79315 11.3651 6.49151 10.8064 7.88824 9.68902L11.6707 6.66309C14.6433 4.28497 16.1296 3.09591 17.778 2.63989C19.232 2.23766 20.7679 2.23766 22.2218 2.63989C23.8702 3.09591 25.3565 4.28497 28.3292 6.66309L31.6625 9.32976C33.5002 10.7999 34.419 11.5349 35.0803 12.4473C35.6663 13.2556 36.1022 14.1625 36.3673 15.125C36.6666 16.2114 36.6666 17.388 36.6666 19.7413V23.333C36.6666 28.0001 36.6666 30.3337 35.7583 32.1163C34.9594 33.6843 33.6845 34.9591 32.1165 35.7581C30.3339 36.6663 28.0004 36.6663 23.3333 36.6663H12.5C11.7261 36.6663 11.3391 36.6663 11.0127 36.6406C6.92627 36.319 3.68059 33.0733 3.35895 28.9869C3.33325 28.6605 3.33325 28.2735 3.33325 27.4996V26.6662M14.9999 26.6663H24.9999" stroke="currentColor" stroke-width={3} stroke-linecap="round" stroke-linejoin="round" /></g><defs><clipPath id="clip0_48_3208"><rect width={40} height={40} fill="white" /></clipPath></defs>
</svg>