<svg xmlns="http://www.w3.org/2000/svg" width="40" height="40" viewBox="0 0 40 40" fill="none">
<g clipPath="url(#clip0_48_3156)"><path d="M29.9953 6.39502C26.4281 3.54128 24.6445 2.11441 22.6665 1.56719C20.9217 1.0845 19.0786 1.0845 17.3338 1.56719C15.3558 2.11441 13.5722 3.54128 10.005 6.39503L8.08837 7.92836C5.88321 9.69249 4.78063 10.5746 3.98698 11.6694C3.28389 12.6393 2.7608 13.7277 2.44264 14.8826C2.0835 16.1863 2.0835 17.5983 2.0835 20.4223V29.3053C2.0835 34.0611 5.93882 37.9164 10.6946 37.9164C13.0725 37.9164 15.0002 35.9887 15.0002 33.6108V26.6663C15.0002 23.9049 17.2387 21.6663 20.0002 21.6663C22.7616 21.6663 25.0002 23.9049 25.0002 26.6663V33.6108C25.0002 35.9887 26.9278 37.9164 29.3057 37.9164C34.0615 37.9164 37.9168 34.0611 37.9168 29.3053V20.4223C37.9168 17.5983 37.9168 16.1863 37.5577 14.8826C37.2395 13.7277 36.7164 12.6393 36.0133 11.6694C35.2197 10.5746 34.1171 9.69249 31.9119 7.92835L29.9953 6.39502Z" fill="currentColor" /></g><defs><clipPath id="clip0_48_3156"><rect width={40} height={40} fill="white" /></clipPath></defs>
</svg>