<svg xmlns="http://www.w3.org/2000/svg" width="40" height="40" viewBox="0 0 40 40" fill="none">
<g clipPath="url(#clip0_48_3187)"><path fill-rule="evenodd" clip-rule="evenodd" d="M29.9953 6.39454C26.4281 3.54079 24.6445 2.11392 22.6665 1.5667C20.9217 1.08401 19.0786 1.08401 17.3338 1.5667C15.3558 2.11392 13.5722 3.54079 10.005 6.39454L8.08838 7.92787C5.88321 9.692 4.78063 10.5741 3.98698 11.6689C3.28389 12.6388 2.7608 13.7272 2.44264 14.8821C2.0835 16.1858 2.0835 17.5978 2.0835 20.4218V21.9159C2.0835 27.5164 2.0835 30.3167 3.17343 32.4558C4.13216 34.3374 5.66197 35.8672 7.54359 36.826C9.68271 37.9159 12.483 37.9159 18.0835 37.9159H21.9168C27.5174 37.9159 30.3176 37.9159 32.4567 36.826C34.3384 35.8672 35.8682 34.3374 36.8269 32.4558C37.9168 30.3167 37.9168 27.5164 37.9168 21.9159V20.4218C37.9168 17.5978 37.9168 16.1858 37.5577 14.8821C37.2395 13.7272 36.7164 12.6388 36.0133 11.6689C35.2197 10.5741 34.1171 9.692 31.9119 7.92787L29.9953 6.39454ZM22.3335 35C23.2669 35 23.7336 35 24.0901 34.8183C24.4037 34.6586 24.6587 34.4036 24.8185 34.09C25.0002 33.7335 25.0002 33.2668 25.0002 32.3333V23.3333C25.0002 21.7802 25.0002 21.0036 24.7464 20.3911C24.4081 19.5743 23.7592 18.9254 22.9424 18.5871C22.3299 18.3333 21.5533 18.3333 20.0002 18.3333C18.447 18.3333 17.6705 18.3333 17.0579 18.5871C16.2411 18.9254 15.5922 19.5743 15.2539 20.3911C15.0002 21.0036 15.0002 21.7802 15.0002 23.3333V32.3333C15.0002 33.2668 15.0002 33.7335 15.1818 34.09C15.3416 34.4036 15.5966 34.6586 15.9102 34.8183C16.2667 35 16.7334 35 17.6668 35H22.3335Z" fill="currentColor" /></g><defs><clipPath id="clip0_48_3187"><rect width={40} height={40} fill="white" /></clipPath></defs>
</svg>