<svg xmlns="http://www.w3.org/2000/svg" width="40" height="40" viewBox="0 0 40 40" fill="none">
<g clipPath="url(#clip0_48_3198)"><path d="M14.9999 26.6663H24.9999M11.6707 6.66309L8.33732 9.32976C6.49968 10.7999 5.58086 11.5349 4.91949 12.4473C4.33358 13.2556 3.89767 14.1625 3.63254 15.125C3.33325 16.2114 3.33325 17.388 3.33325 19.7413V23.333C3.33325 28.0001 3.33325 30.3337 4.24153 32.1163C5.04048 33.6843 6.31531 34.9591 7.88333 35.7581C9.66593 36.6663 11.9995 36.6663 16.6666 36.6663H23.3333C28.0004 36.6663 30.3339 36.6663 32.1165 35.7581C33.6845 34.9591 34.9594 33.6843 35.7583 32.1163C36.6666 30.3337 36.6666 28.0001 36.6666 23.333V19.7413C36.6666 17.388 36.6666 16.2114 36.3673 15.125C36.1022 14.1625 35.6663 13.2556 35.0803 12.4473C34.419 11.5349 33.5002 10.7999 31.6625 9.32976L28.3292 6.66309C25.3565 4.28497 23.8702 3.09591 22.2218 2.63989C20.7679 2.23766 19.232 2.23766 17.778 2.63989C16.1296 3.09591 14.6433 4.28497 11.6707 6.66309Z" stroke="currentColor" stroke-width={3} stroke-linecap="round" stroke-linejoin="round" /></g><defs><clipPath id="clip0_48_3198"><rect width={40} height={40} fill="white" /></clipPath></defs>
</svg>