<svg xmlns="http://www.w3.org/2000/svg" width="40" height="40" viewBox="0 0 40 40" fill="none">
<path d="M25.0002 36.6667V25C25.0002 23.4469 25.0002 22.6703 24.7464 22.0577C24.4081 21.241 23.7592 20.592 22.9424 20.2537C22.3299 20 21.5533 20 20.0002 20C18.447 20 17.6705 20 17.0579 20.2537C16.2411 20.592 15.5922 21.241 15.2539 22.0577C15.0002 22.6703 15.0002 23.4469 15.0002 25V36.6667M11.6709 6.66341L8.33756 9.33008C6.49992 10.8002 5.5811 11.5352 4.91974 12.4476C4.33383 13.2559 3.89792 14.1628 3.63278 15.1253C3.3335 16.2117 3.3335 17.3883 3.3335 19.7417V23.3333C3.3335 28.0004 3.3335 30.334 4.24178 32.1166C5.04072 33.6846 6.31556 34.9594 7.88357 35.7584C9.66617 36.6667 11.9997 36.6667 16.6668 36.6667H23.3335C28.0006 36.6667 30.3342 36.6667 32.1167 35.7584C33.6848 34.9594 34.9596 33.6846 35.7585 32.1166C36.6668 30.334 36.6668 28.0004 36.6668 23.3333V19.7417C36.6668 17.3883 36.6668 16.2117 36.3675 15.1253C36.1024 14.1628 35.6665 13.2559 35.0806 12.4476C34.4192 11.5352 33.5004 10.8002 31.6628 9.33008L28.3294 6.66341C25.3568 4.28529 23.8705 3.09623 22.2221 2.64022C20.7681 2.23798 19.2322 2.23798 17.7782 2.64022C16.1299 3.09623 14.6435 4.28529 11.6709 6.66341Z" stroke="currentColor" stroke-width={3} stroke-linecap="round" stroke-linejoin="round" />
</svg>