<svg xmlns="http://www.w3.org/2000/svg" width="40" height="40" viewBox="0 0 40 40" fill="none">
<g clipPath="url(#clip0_48_3239)"><path d="M4.16675 15.833L6.61847 28.0917C7.22935 31.1461 7.5348 32.6733 8.33223 33.8157C9.03543 34.8231 10.0033 35.6165 11.129 36.1085C12.4056 36.6664 13.9631 36.6664 17.078 36.6664H22.9222C26.0371 36.6664 27.5946 36.6664 28.8711 36.1085C29.9969 35.6165 30.9647 34.8231 31.6679 33.8157C32.4654 32.6733 32.7708 31.1461 33.3817 28.0917L35.8334 15.833M20.0001 14.9997C17.2387 14.9997 15.0001 17.2382 15.0001 19.9997C15.0001 22.7611 17.2387 24.9997 20.0001 24.9997C22.7615 24.9997 25.0001 22.7611 25.0001 19.9997C25.0001 19.4153 24.8998 18.8543 24.7156 18.333M1.66675 18.333L12.4576 7.54214C15.0977 4.90203 16.4178 3.58197 17.94 3.08739C19.2789 2.65233 20.7212 2.65233 22.0602 3.08739C23.5824 3.58197 24.9024 4.90203 27.5426 7.54214L38.3334 18.333" stroke="currentColor" stroke-width={3} stroke-linecap="round" stroke-linejoin="round" /></g><defs><clipPath id="clip0_48_3239"><rect width={40} height={40} fill="white" /></clipPath></defs>
</svg>