<svg xmlns="http://www.w3.org/2000/svg" width="24" height="24" viewBox="0 0 24 24" fill="none">
<path d="M13.9502 1.25C17.0304 1.25 18.5706 1.25016 19.7471 1.84961C20.7818 2.37689 21.6231 3.21816 22.1504 4.25293C22.7498 5.42942 22.75 6.96965 22.75 10.0498V13.9502C22.75 17.0304 22.7498 18.5706 22.1504 19.7471C21.6231 20.7818 20.7818 21.6231 19.7471 22.1504C18.5706 22.7498 17.0304 22.75 13.9502 22.75H10.0498C6.96965 22.75 5.42942 22.7498 4.25293 22.1504C3.21816 21.6231 2.37689 20.7818 1.84961 19.7471C1.25016 18.5706 1.25 17.0304 1.25 13.9502V10.0498C1.25 6.96965 1.25016 5.42942 1.84961 4.25293C2.37689 3.21816 3.21816 2.37689 4.25293 1.84961C5.42942 1.25016 6.96965 1.25 10.0498 1.25H13.9502ZM16.5 11.25C16.0858 11.25 15.75 11.5858 15.75 12V16C15.75 16.4142 16.0858 16.75 16.5 16.75C16.9142 16.75 17.25 16.4142 17.25 16V12C17.25 11.5858 16.9142 11.25 16.5 11.25ZM10 7.25C9.71592 7.25 9.45615 7.41095 9.3291 7.66504L5.3291 15.665C5.14416 16.0354 5.29469 16.4857 5.66504 16.6709C6.03545 16.8558 6.48572 16.7053 6.6709 16.335L7.71387 14.25H12.2861L13.3291 16.335C13.5143 16.7053 13.9646 16.8558 14.335 16.6709C14.6822 16.4973 14.8358 16.0907 14.7012 15.7354L14.6709 15.665L10.6709 7.66504C10.5439 7.41095 10.2841 7.25 10 7.25ZM11.5361 12.75H8.46387L10 9.67676L11.5361 12.75ZM16.5 7.75C15.8096 7.75 15.25 8.30964 15.25 9C15.25 9.69036 15.8096 10.25 16.5 10.25C17.1904 10.25 17.75 9.69036 17.75 9C17.75 8.30964 17.1904 7.75 16.5 7.75Z" fill="currentColor" />
</svg>