<svg xmlns="http://www.w3.org/2000/svg" width="24" height="24" viewBox="0 0 24 24" fill="none">
<path d="M13.25 5C13.25 2.92893 14.9289 1.25 17 1.25C19.0711 1.25 20.75 2.92893 20.75 5C20.75 7.07107 19.0711 8.75 17 8.75C14.9289 8.75 13.25 7.07107 13.25 5Z" fill="currentColor" /><path d="M11.6918 10.8003C10.7959 9.40671 10.348 8.70994 9.77844 8.46928C9.28078 8.259 8.71922 8.259 8.22156 8.46928C7.652 8.70994 7.20408 9.40671 6.30823 10.8003L3.38059 15.3544C1.83202 17.7633 1.05773 18.9677 1.12887 19.9637C1.19087 20.8317 1.6267 21.63 2.32331 22.1515C3.12268 22.75 4.55454 22.75 7.41824 22.75H16.5818C19.4455 22.75 20.8773 22.75 21.6767 22.1515C22.3733 21.63 22.8091 20.8317 22.8711 19.9637C22.9423 18.9677 22.168 17.7633 20.6194 15.3544L19.5 13.6131C19.22 13.1775 19.08 12.9597 18.9496 12.8226C18.1612 11.9931 16.8388 11.9931 16.0504 12.8226C15.92 12.9597 15.78 13.1775 15.5 13.6131C15.36 13.8308 15.29 13.9397 15.2248 14.0083C14.8306 14.423 14.1694 14.423 13.7752 14.0083C13.71 13.9397 13.64 13.8308 13.5 13.6131L11.6918 10.8003Z" fill="currentColor" />
</svg>