<svg xmlns="http://www.w3.org/2000/svg" width="24" height="24" viewBox="0 0 24 24" fill="none">
<path d="M18 22H9H4.16083C3.73202 22 3.51762 22 3.37344 21.9789C2.05697 21.786 1.29231 20.3854 1.84198 19.1738C1.90218 19.0411 2.01812 18.8607 2.25 18.5L3 17.3333M18 22H18.1387C20.0478 22 21.0024 22 21.5353 21.601C21.9997 21.2534 22.2903 20.7211 22.3316 20.1425C22.379 19.4785 21.8628 18.6755 20.8304 17.0696L20.1918 16.0761C19.2959 14.6825 18.848 13.9858 18.2784 13.7451C17.7808 13.5348 17.2192 13.5348 16.7216 13.7451C16.152 13.9858 15.7041 14.6825 14.8082 16.0761L14.5 16.5556M18 22L14.5 16.5556M14.5 16.5556L11.25 11.5C10.7488 10.7204 10.4983 10.3306 10.2298 10.1213C9.50681 9.5576 8.49319 9.5576 7.77024 10.1213C7.50175 10.3306 7.25117 10.7204 6.75 11.5L5.14286 14M20 5C20 6.65685 18.6569 8 17 8C15.3431 8 14 6.65685 14 5C14 3.34315 15.3431 2 17 2" stroke="currentColor" stroke-width={1.5} stroke-linecap="round" stroke-linejoin="round" />
</svg>