<svg xmlns="http://www.w3.org/2000/svg" width="24" height="24" viewBox="0 0 24 24" fill="none">
<path d="M5 21.1962C6.39231 22 8.26154 22 12 22C14.143 22 15.6718 22 16.8486 21.8486M2 2L3.75736 3.75736M22 22L20.2426 20.2426M20.2426 20.2426C19.8734 20.6118 19.4561 20.9328 19 21.1962C18.4058 21.5392 17.7247 21.7359 16.8486 21.8486M20.2426 20.2426L3.75736 3.75736M3.75736 3.75736C3.38816 4.12656 3.06715 4.54394 2.80385 5C2 6.39231 2 8.26154 2 12C2 13.1164 2 14.0661 2.02141 14.8862C2.03958 15.5824 2.04866 15.9305 2.41126 16.3396C2.67643 16.6389 3.26496 16.8737 3.66328 16.8392C4.20796 16.792 4.50772 16.4923 5.10723 15.8928L5.17158 15.8284C6.50491 14.4951 7.17157 13.8284 8 13.8284C8.82843 13.8284 9.49509 14.4951 10.8284 15.8284L16.5 21.5L16.8486 21.8486M7 2.17201C8.19655 2 9.76391 2 12 2C15.7385 2 17.6077 2 19 2.80385C19.9121 3.33046 20.6695 4.08788 21.1962 5C22 6.39231 22 8.26154 22 12C22 14.2361 22 15.8034 21.828 17M18 8C18 9.10457 17.1046 10 16 10C14.8954 10 14 9.10457 14 8C14 6.89543 14.8954 6 16 6C17.1046 6 18 6.89543 18 8Z" stroke="currentColor" stroke-width={1.5} stroke-linecap="round" stroke-linejoin="round" />
</svg>