<svg xmlns="http://www.w3.org/2000/svg" width="24" height="24" viewBox="0 0 24 24" fill="none">
<path d="M5 21.1962C6.39231 22 8.26154 22 12 22C15.3687 22 17.2197 22 18.5716 21.4118M22 12C22 14.806 22 16.559 21.6601 17.8476M12 2C8.26154 2 6.39231 2 5 2.80385C4.08788 3.33046 3.33046 4.08788 2.80385 5C2 6.39231 2 8.26154 2 12C2 13.1164 2 14.0661 2.02141 14.8862C2.03958 15.5824 2.04866 15.9305 2.41126 16.3396C2.67643 16.6389 3.26496 16.8737 3.66328 16.8392C4.20796 16.792 4.50772 16.4923 5.10723 15.8928L6.21305 14.787C7.52848 13.4715 8.1862 12.8138 9.00597 12.8077C9.82573 12.8017 10.4931 13.4496 11.8278 14.7455L14.4861 17.3264M14.4861 17.3264L14.9832 16.8293C16.3171 15.4954 16.9841 14.8284 17.8125 14.8284C18.6409 14.8284 19.3076 15.4951 20.6409 16.8284L21.6601 17.8476M14.4861 17.3264L18.5716 21.4118M21.6601 17.8476C21.5471 18.2758 21.3966 18.6527 21.1962 19C20.6695 19.9121 19.9121 20.6695 19 21.1962C18.8623 21.2757 18.7199 21.3473 18.5716 21.4118M15.8702 6.1298L18 4C18.5523 3.44771 19.4477 3.44772 20 4C20.5523 4.55228 20.5523 5.44771 20 6L17.8702 8.12979C17.3609 8.63909 17.1063 8.89374 16.8161 9.09608C16.5586 9.27568 16.2808 9.42434 15.9886 9.53899C15.6593 9.66815 15.3061 9.73877 14.5999 9.88003L14 10L14.12 9.40014C14.2612 8.69387 14.3319 8.34073 14.461 8.01144C14.5757 7.71916 14.7243 7.44139 14.9039 7.18387C15.1063 6.89374 15.3609 6.63909 15.8702 6.1298Z" stroke="currentColor" stroke-width={1.5} stroke-linecap="round" stroke-linejoin="round" />
</svg>