<svg xmlns="http://www.w3.org/2000/svg" width="24" height="24" viewBox="0 0 24 24" fill="none">
<path d="M7 20.6622C8.47087 21.513 10.1786 22 12 22C13.9938 22 15.8512 21.4165 17.411 20.411M14 17L12.3284 15.3284C10.9951 13.9951 10.3284 13.3284 9.5 13.3284C8.67157 13.3284 8.00491 13.9951 6.67157 15.3284L5.95456 16.0452C5.32489 16.6747 5.01005 16.9895 4.55698 17.076C4.21736 17.1408 3.70423 17.0319 3.42023 16.8347C3.04135 16.5716 2.91539 16.2442 2.66348 15.5893C2.2349 14.4752 2 13.2651 2 12C2 6.47715 6.47715 2 12 2C17.5228 2 22 6.47715 22 12C22 13.9938 21.4165 15.8512 20.411 17.411M14 17L17.411 20.411M14 17C14.7745 16.2255 15.7854 14.8284 17 14.8284C18.4464 14.8284 19.4771 16.4771 20.411 17.411M20.411 17.411C19.6367 18.6121 18.6121 19.6367 17.411 20.411M16 9C16 10.1046 15.1046 11 14 11C12.8954 11 12 10.1046 12 9C12 7.89543 12.8954 7 14 7" stroke="currentColor" stroke-width={1.5} stroke-linecap="round" stroke-linejoin="round" />
</svg>