<svg xmlns="http://www.w3.org/2000/svg" width="24" height="24" viewBox="0 0 24 24" fill="none">
<path d="M12 1.25C12.4142 1.25 12.75 1.58579 12.75 2C12.75 2.41421 12.4142 2.75 12 2.75H11.5C9.85508 2.75 8.66523 2.75077 7.72852 2.8252C6.80017 2.89897 6.18438 3.04117 5.67773 3.29102C4.64125 3.80217 3.80217 4.64125 3.29102 5.67773C3.04117 6.18438 2.89897 6.80017 2.8252 7.72852C2.75077 8.66523 2.75 9.85508 2.75 11.5V12.4004C2.75 14.0925 2.75047 15.3165 2.8291 16.2793C2.85136 16.5517 2.8809 16.7977 2.91602 17.0225L6.7627 13.1768C7.54422 12.3952 7.93518 12.0044 8.38672 11.8555C8.7839 11.7245 9.21227 11.7216 9.61133 11.8467C10.0649 11.989 10.4612 12.3739 11.2539 13.1436L13.3613 15.1895C13.7441 15.5611 13.9356 15.7472 14.1533 15.8193C14.3621 15.8885 14.5881 15.8866 14.7959 15.8145C15.0125 15.7392 15.2018 15.5501 15.5791 15.1729C16.3436 14.4084 16.726 14.0262 17.1641 13.876C17.5844 13.7319 18.0406 13.7319 18.4609 13.876C18.899 14.0262 19.2813 14.4083 20.0459 15.1729L21.1719 16.2988C21.1726 16.2897 21.1741 16.2806 21.1748 16.2715C21.2492 15.3348 21.25 14.1449 21.25 12.5V12C21.25 11.5858 21.5858 11.25 22 11.25C22.4142 11.25 22.75 11.5858 22.75 12V12.5C22.75 14.121 22.7502 15.3807 22.6699 16.3906C22.589 17.4089 22.4226 18.2373 22.0537 18.9854C21.539 20.029 20.7646 20.9148 19.8135 21.5664C19.8033 21.5734 19.7934 21.5809 19.7832 21.5879C19.7189 21.6314 19.6537 21.6735 19.5879 21.7148C19.5626 21.7308 19.5373 21.747 19.5117 21.7627C19.4486 21.8012 19.3848 21.8386 19.3203 21.875C19.2985 21.8873 19.2769 21.9 19.2549 21.9121C19.1908 21.9474 19.1259 21.9814 19.0605 22.0146C19.0354 22.0274 19.0107 22.0412 18.9854 22.0537C18.8354 22.1276 18.6809 22.1904 18.5234 22.249C18.4818 22.2645 18.4406 22.2814 18.3984 22.2959C18.3801 22.3022 18.3613 22.3073 18.3428 22.3135C18.2591 22.3412 18.175 22.3694 18.0889 22.3936C18.0638 22.4006 18.038 22.4054 18.0127 22.4121C17.9352 22.4328 17.8571 22.4536 17.7773 22.4717C17.7341 22.4815 17.6904 22.4899 17.6465 22.499C17.5773 22.5133 17.5075 22.5284 17.4365 22.541C17.3975 22.548 17.358 22.5531 17.3184 22.5596C17.2461 22.5714 17.173 22.5835 17.0986 22.5938C17.0538 22.6 17.0085 22.6046 16.9629 22.6104C16.882 22.6205 16.8002 22.631 16.7168 22.6396C16.6967 22.6417 16.6765 22.6435 16.6562 22.6455C16.5691 22.6541 16.4807 22.6628 16.3906 22.6699C16.3799 22.6708 16.3692 22.671 16.3584 22.6719C16.3484 22.6727 16.3382 22.674 16.3281 22.6748C16.3094 22.6762 16.2904 22.6764 16.2715 22.6777C16.0655 22.6926 15.8493 22.7046 15.6221 22.7139C15.3987 22.723 15.1646 22.7284 14.9189 22.7334C14.5163 22.7416 14.0827 22.7475 13.6143 22.749C13.2723 22.7501 12.9118 22.75 12.5312 22.75C11.0376 22.75 9.53575 22.7895 8.04395 22.6963C7.89004 22.6876 7.74137 22.6778 7.59766 22.666C6.55103 22.5805 5.70049 22.4044 4.93555 22.0146C3.66545 21.3675 2.6325 20.3345 1.98535 19.0645C1.59562 18.2995 1.41953 17.449 1.33398 16.4023C1.24917 15.3643 1.25 14.068 1.25 12.4004V11.5C1.25 9.87902 1.24982 8.61932 1.33008 7.60938C1.411 6.59111 1.57739 5.7627 1.94629 5.01465C2.60349 3.68198 3.68198 2.60349 5.01465 1.94629C5.7627 1.57739 6.59111 1.411 7.60938 1.33008C8.61932 1.24982 9.87902 1.25 11.5 1.25H12ZM19.4697 3.46973C19.7626 3.17683 20.2374 3.17683 20.5303 3.46973C20.8232 3.76262 20.8232 4.23738 20.5303 4.53027L19.0605 6L20.5303 7.46973L20.582 7.52637C20.8223 7.82095 20.8049 8.25567 20.5303 8.53027C20.2557 8.80488 19.8209 8.82234 19.5264 8.58203L19.4697 8.53027L18 7.06055L16.5303 8.53027C16.2374 8.82317 15.7626 8.82317 15.4697 8.53027C15.1768 8.23738 15.1768 7.76262 15.4697 7.46973L16.9395 6L15.4697 4.53027L15.418 4.47363C15.1777 4.17905 15.1951 3.74433 15.4697 3.46973C15.7443 3.19512 16.1791 3.17766 16.4736 3.41797L16.5303 3.46973L18 4.93945L19.4697 3.46973Z" fill="currentColor" />
</svg>