<svg xmlns="http://www.w3.org/2000/svg" width="24" height="24" viewBox="0 0 24 24" fill="none">
<path d="M1.4697 1.46961C1.76259 1.17671 2.23735 1.17671 2.53024 1.46961L4.28806 3.22644L20.7734 19.7118L22.5302 21.4696L22.582 21.5262C22.8223 21.8208 22.8048 22.2555 22.5302 22.5302C22.2556 22.8048 21.8209 22.8222 21.5263 22.5819L21.4697 22.5302L20.2099 21.2714C19.9465 21.4818 19.669 21.6758 19.375 21.8456C18.5456 22.3244 17.6079 22.5412 16.4472 22.6464C15.3103 22.7494 13.8887 22.7489 12.0644 22.7489C12.0625 22.7489 12.0605 22.7499 12.0586 22.7499H11.9619C10.8867 22.7499 9.95107 22.7462 9.13083 22.7255C8.76332 22.7162 8.41898 22.7049 8.09567 22.6854C7.90775 22.6741 7.72685 22.6621 7.5527 22.6464C6.39203 22.5412 5.4543 22.3244 4.62497 21.8456C4.36858 21.6976 4.12294 21.5335 3.88962 21.3544C3.65602 21.1751 3.43433 20.9811 3.22653 20.7733C2.81122 20.358 2.45047 19.8879 2.15427 19.3749C1.67546 18.5456 1.45868 17.6078 1.35349 16.4471C1.24925 15.2968 1.24997 13.8552 1.24997 11.9999C1.24997 10.1446 1.24925 8.70293 1.35349 7.55261C1.45868 6.39195 1.67546 5.4542 2.15427 4.62488C2.32407 4.33078 2.51706 4.05244 2.72751 3.78894L1.4697 2.53015C1.1768 2.23726 1.1768 1.7625 1.4697 1.46961ZM3.79587 4.8573C3.67225 5.02267 3.55695 5.19499 3.45309 5.37488C3.12814 5.93777 2.9434 6.63104 2.84763 7.68738C2.75093 8.75432 2.74997 10.1168 2.74997 11.9999C2.74997 13.8829 2.75093 15.2454 2.84763 16.3124C2.87194 16.5806 2.90182 16.8254 2.93845 17.0507L5.73727 14.2245C6.52881 13.425 6.92516 13.0253 7.38278 12.8749C7.78515 12.7427 8.21902 12.7417 8.62204 12.8719C9.08043 13.0201 9.47876 13.4181 10.2744 14.2137L17.1103 21.0497C17.7421 20.942 18.2178 20.7818 18.625 20.5468C18.8048 20.4429 18.9762 20.3266 19.1416 20.203L3.79587 4.8573ZM12 1.24988C13.8553 1.24988 15.2969 1.24916 16.4472 1.35339C17.6079 1.45859 18.5456 1.67537 19.375 2.15418C20.4011 2.74661 21.2532 3.59875 21.8457 4.62488C22.3245 5.4542 22.5413 6.39195 22.6465 7.55261C22.7507 8.70293 22.75 10.1446 22.75 11.9999C22.75 14.2119 22.7517 15.8438 22.5703 17.1063C22.5114 17.5162 22.1315 17.8008 21.7216 17.7421C21.3117 17.6831 21.0271 17.3033 21.0859 16.8934C21.2484 15.7629 21.25 14.2599 21.25 11.9999C21.25 10.1168 21.249 8.75432 21.1523 7.68738C21.0565 6.63104 20.8718 5.93777 20.5468 5.37488C20.0861 4.57678 19.4231 3.91379 18.625 3.453C18.0621 3.12805 17.3688 2.94331 16.3125 2.84753C15.2455 2.75083 13.883 2.74988 12 2.74988C9.73996 2.74988 8.23695 2.75142 7.10641 2.91394C6.6965 2.97274 6.31671 2.68812 6.25778 2.2782C6.19907 1.86835 6.48365 1.48849 6.89352 1.42957C8.15605 1.2481 9.78795 1.24988 12 1.24988ZM16 5.99988C17.1045 5.99988 18 6.89531 18 7.99988C18 9.10445 17.1045 9.99988 16 9.99988C14.8954 9.99988 14 9.10445 14 7.99988C14 6.89531 14.8954 5.99988 16 5.99988Z" fill="currentColor" />
</svg>