<svg xmlns="http://www.w3.org/2000/svg" width="24" height="24" viewBox="0 0 24 24" fill="none">
<path d="M11.25 7.25V15.1895L8.53027 12.4697L8.47363 12.418C8.17905 12.1777 7.74433 12.1951 7.46973 12.4697C7.17684 12.7626 7.17684 13.2374 7.46973 13.5303L11.4697 17.5303C11.6104 17.6709 11.8011 17.75 12 17.75C12.1989 17.75 12.3896 17.6709 12.5303 17.5303L16.5303 13.5303C16.8232 13.2374 16.8232 12.7626 16.5303 12.4697C16.2374 12.1768 15.7626 12.1768 15.4697 12.4697L12.75 15.1895V7.25H16.3496C18.5898 7.25 19.7108 7.24957 20.5664 7.68555C21.3189 8.06902 21.931 8.68109 22.3145 9.43359C22.7504 10.2892 22.75 11.4102 22.75 13.6504V16.3496C22.75 18.5898 22.7504 19.7108 22.3145 20.5664C21.931 21.3189 21.3189 21.931 20.5664 22.3145C19.7108 22.7504 18.5898 22.75 16.3496 22.75H7.65039C5.41018 22.75 4.28924 22.7504 3.43359 22.3145C2.68109 21.931 2.06902 21.3189 1.68555 20.5664C1.24957 19.7108 1.25 18.5898 1.25 16.3496V13.6504C1.25 11.4102 1.24957 10.2892 1.68555 9.43359C2.06902 8.68109 2.68109 8.06901 3.43359 7.68555C4.28924 7.24957 5.41018 7.25 7.65039 7.25H11.25ZM12 1.25C12.4142 1.25 12.75 1.58579 12.75 2V7.25H11.25V2C11.25 1.58579 11.5858 1.25001 12 1.25Z" fill="currentColor" />
</svg>