<svg xmlns="http://www.w3.org/2000/svg" width="24" height="24" viewBox="0 0 24 24" fill="none">
<path d="M11 2.49994C13.6293 2.49994 16.031 3.4684 17.873 5.06537L10.75 12.1894V8.99994C10.75 8.58573 10.4142 8.24994 10 8.24994C9.58579 8.24994 9.25 8.58573 9.25 8.99994V13.9999C9.25 14.4142 9.58579 14.7499 10 14.7499H15C15.4142 14.7499 15.75 14.4142 15.75 13.9999C15.75 13.5857 15.4142 13.2499 15 13.2499H11.8105L18.9336 6.12592C20.5311 7.96807 21.5 10.3702 21.5 12.9999C21.5 18.7989 16.799 23.4999 11 23.4999C5.20101 23.4999 0.5 18.7989 0.5 12.9999C0.5 7.20095 5.20101 2.49994 11 2.49994ZM21.4697 1.46967C21.7626 1.17678 22.2374 1.17678 22.5303 1.46967C22.8232 1.76256 22.8232 2.23732 22.5303 2.53022L18.9336 6.12592C18.6056 5.74768 18.2513 5.39333 17.873 5.06537L21.4697 1.46967Z" fill="currentColor" />
</svg>