<svg xmlns="http://www.w3.org/2000/svg" width="24" height="24" viewBox="0 0 24 24" fill="none">
<path d="M11.25 7.25V15.1895L8.53027 12.4697L8.47363 12.418C8.17905 12.1777 7.74433 12.1951 7.46973 12.4697C7.17684 12.7626 7.17684 13.2374 7.46973 13.5303L11.4697 17.5303C11.6104 17.6709 11.8011 17.75 12 17.75C12.1989 17.75 12.3896 17.6709 12.5303 17.5303L16.5303 13.5303C16.8232 13.2374 16.8232 12.7626 16.5303 12.4697C16.2374 12.1768 15.7626 12.1768 15.4697 12.4697L12.75 15.1895V7.25H15C19.2802 7.25 22.75 10.7198 22.75 15C22.75 19.2802 19.2802 22.75 15 22.75H9C4.71979 22.75 1.25 19.2802 1.25 15C1.25 10.7198 4.71979 7.25 9 7.25H11.25ZM12 1.25C12.4142 1.25 12.75 1.58579 12.75 2V7.25H11.25V2C11.25 1.58579 11.5858 1.25001 12 1.25Z" fill="currentColor" />
</svg>