<svg xmlns="http://www.w3.org/2000/svg" width="40" height="40" viewBox="0 0 40 40" fill="none">
<path d="M9.57066 24.583C10.0922 24.583 10.3534 24.5834 10.5902 24.6553C10.7995 24.7189 10.9943 24.823 11.1634 24.9619C11.3546 25.1191 11.5 25.3364 11.7894 25.7705L11.9554 26.0205C12.8237 27.323 13.2588 27.9739 13.8324 28.4453C14.3402 28.8626 14.9251 29.1762 15.5541 29.3672C16.2644 29.5829 17.0475 29.583 18.6126 29.583H22.0628C22.9677 29.583 23.4206 29.5834 23.8421 29.5107C24.9046 29.3276 25.8797 28.8058 26.6214 28.0234C26.9158 27.713 27.1664 27.3359 27.6683 26.583C28.0029 26.0812 28.1704 25.83 28.3666 25.623C28.8611 25.1014 29.5117 24.754 30.2201 24.6318C30.501 24.5834 30.8026 24.583 31.4056 24.583H35.9349C36.5169 24.583 36.8081 24.5835 37.0072 24.7041C37.1814 24.8098 37.3112 24.9753 37.3714 25.1699C37.4402 25.3923 37.369 25.6748 37.2279 26.2393L36.8343 27.8164C35.9316 31.4275 35.4796 33.2338 34.473 34.5781C33.5849 35.7641 32.3966 36.6917 31.0306 37.2656C29.4823 37.9162 27.621 37.916 23.8988 37.916H16.1009C12.3787 37.916 10.5175 37.9162 8.96909 37.2656C7.60312 36.6917 6.41483 35.7641 5.52671 34.5781C4.52007 33.2338 4.06816 31.4275 3.16538 27.8164L2.77183 26.2393C2.6307 25.6748 2.55956 25.3923 2.62827 25.1699C2.68851 24.9753 2.81831 24.8098 2.99253 24.7041C3.19159 24.5835 3.48277 24.583 4.0648 24.583H9.57066ZM22.2318 2.08301C25.9537 2.08301 27.8153 2.08303 29.3636 2.7334C30.7298 3.30738 31.9188 4.23571 32.807 5.42188C33.8135 6.76621 34.2647 8.5718 35.1673 12.1826L37.2279 20.4268C37.369 20.9913 37.4402 21.2738 37.3714 21.4961C37.3112 21.6907 37.1814 21.8562 37.0072 21.9619C36.8081 22.0825 36.5169 22.083 35.9349 22.083H31.2699C30.3649 22.083 29.9122 22.0826 29.4906 22.1553C28.4281 22.3384 27.4531 22.8602 26.7113 23.6426C26.417 23.953 26.1663 24.3301 25.6644 25.083C25.3298 25.5849 25.1623 25.836 24.9662 26.043C24.4716 26.5646 23.821 26.9121 23.1126 27.0342C22.8317 27.0826 22.5301 27.083 21.9271 27.083H18.0726C17.4693 27.083 17.1672 27.0826 16.8861 27.0342C16.1779 26.912 15.528 26.5645 15.0335 26.043C14.8373 25.836 14.6699 25.585 14.3353 25.083C13.8333 24.3301 13.5828 23.9531 13.2884 23.6426C12.5467 22.8602 11.5716 22.3385 10.5091 22.1553C10.0875 22.0826 9.63481 22.083 8.72984 22.083H4.0648C3.48278 22.083 3.19158 22.0825 2.99253 21.9619C2.81832 21.8562 2.68851 21.6907 2.62827 21.4961C2.55956 21.2738 2.6307 20.9912 2.77183 20.4268L4.83237 12.1826C5.73516 8.57165 6.18711 6.7662 7.1937 5.42188C8.08188 4.23574 9.26995 3.30736 10.6361 2.7334C12.1844 2.08292 14.0458 2.08301 17.7679 2.08301H22.2318ZM16.6673 15.417C15.977 15.417 15.4173 15.9766 15.4173 16.667C15.4177 17.357 15.9772 17.917 16.6673 17.917H23.3334L23.4613 17.9102C24.0913 17.8461 24.583 17.3139 24.5834 16.667C24.5834 16.0198 24.0915 15.4869 23.4613 15.4229L23.3334 15.417H16.6673ZM15.0003 8.75C14.31 8.75 13.7503 9.30964 13.7503 10C13.7505 10.6902 14.3101 11.25 15.0003 11.25H25.0003L25.1283 11.2432C25.7583 11.179 26.2502 10.6469 26.2503 10C26.2503 9.35297 25.7583 8.82109 25.1283 8.75684L25.0003 8.75H15.0003Z" fill="currentColor" />
</svg>