<svg xmlns="http://www.w3.org/2000/svg" width="40" height="40" viewBox="0 0 40 40" fill="none">
<path d="M30.8332 23.333C30.8332 23.333 29.5511 23.333 29.0171 23.5197C28.6909 23.6337 28.3845 23.7977 28.1087 24.0058C27.6572 24.3466 27.3269 24.8421 26.6663 25.833C26.0056 26.8239 25.6753 27.3194 25.2238 27.6602C24.948 27.8684 24.6416 28.0324 24.3155 28.1463C23.7814 28.333 23.1859 28.333 21.995 28.333H18.0042C16.8133 28.333 16.2178 28.333 15.6837 28.1463C15.3576 28.0324 15.0512 27.8684 14.7754 27.6602C14.3239 27.3194 13.9935 26.8239 13.3329 25.833C12.6723 24.8421 12.342 24.3466 11.8904 24.0058C11.6147 23.7977 11.3083 23.6337 10.9821 23.5197C10.4481 23.333 9.52412 23.333 8.33317 23.333C5.91158 23.333 3.94976 21.3547 4.44706 18.9848C4.54824 18.5026 4.66096 18.0212 4.78148 17.5391L5.50578 14.6421C6.70055 9.86318 7.29794 7.47375 8.85567 5.86657C9.39056 5.31469 9.99923 4.83947 10.6644 4.4544C12.6014 3.33301 15.0675 3.33301 19.9997 3.33301C24.932 3.33301 27.3982 3.33301 29.3353 4.45446C30.0004 4.83953 30.609 5.31476 31.1439 5.86663C32.7017 7.47387 33.299 9.86339 34.4937 14.6424L35.2179 17.5392C35.4521 18.4762 35.5692 18.9446 35.6626 19.4118C36.1802 22.0003 36.1801 24.6657 35.6626 27.2542C35.5692 27.7214 35.452 28.1899 35.2178 29.1268C34.9263 30.2929 34.7805 30.8759 34.5841 31.3766C33.4741 34.2059 30.9117 36.2065 27.8976 36.5972C27.3643 36.6663 26.7633 36.6663 25.5613 36.6663H14.4377C13.2359 36.6663 12.635 36.6663 12.1017 36.5972C9.0875 36.2066 6.52505 34.2059 5.41503 31.3764C5.21863 30.8758 5.07289 30.2929 4.78141 29.1269C4.70381 28.8165 4.63906 28.5576 4.58378 28.333C4.50109 27.9972 4.43955 27.7383 4.38781 27.4997" stroke="currentColor" stroke-width={3} stroke-linecap="round" />
</svg>