<svg xmlns="http://www.w3.org/2000/svg" width="40" height="40" viewBox="0 0 40 40" fill="none">
<path d="M9.57083 24.5831C10.0925 24.5831 10.3536 24.5834 10.5904 24.6553C10.7999 24.719 10.9944 24.8239 11.1636 24.963C11.3548 25.1201 11.5002 25.3365 11.7896 25.7706L11.9566 26.0206C12.8249 27.323 13.2589 27.9749 13.8325 28.4464C14.3403 28.8636 14.9254 29.1763 15.5542 29.3672C16.2647 29.583 17.0475 29.5831 18.6128 29.5831H22.064C22.9685 29.5831 23.4209 29.5834 23.8423 29.5108C24.9048 29.3276 25.8798 28.8059 26.6216 28.0235C26.9159 27.713 27.1675 27.3361 27.6695 26.5831C28.0039 26.0814 28.1715 25.83 28.3677 25.6231C28.8622 25.1017 29.5121 24.754 30.2202 24.6319C30.5012 24.5835 30.8028 24.5831 31.4058 24.5831H35.9351C36.5172 24.5831 36.8083 24.5836 37.0074 24.7042C37.1818 24.8099 37.3114 24.9761 37.3716 25.171C37.4402 25.3933 37.3702 25.6758 37.229 26.2403L36.8345 27.8174C35.9318 31.4284 35.4798 33.2338 34.4732 34.5782C33.585 35.7643 32.3969 36.6927 31.0308 37.2667C29.4825 37.9171 27.621 37.9171 23.899 37.9171H16.1011C12.3789 37.9171 10.5176 37.9172 8.96927 37.2667C7.60314 36.6927 6.41505 35.7643 5.52688 34.5782C4.52026 33.2338 4.06831 31.4285 3.16555 27.8174L2.772 26.2403C2.63089 25.6759 2.55989 25.3933 2.62845 25.171C2.68865 24.9762 2.81837 24.8099 2.9927 24.7042C3.19174 24.5836 3.48303 24.5831 4.06497 24.5831H9.57083ZM22.7222 5.41705C26.2815 5.41705 28.0618 5.41635 29.563 6.02252C30.8883 6.55773 32.0543 7.42543 32.9478 8.54108C33.9597 9.80485 34.471 11.5098 35.4937 14.919L37.1275 20.3672C37.3019 20.9486 37.3896 21.2393 37.3267 21.4698C37.2714 21.6717 37.1419 21.8461 36.9644 21.9571C36.7617 22.0836 36.458 22.0831 35.8511 22.0831H31.27C30.3651 22.0831 29.9124 22.0836 29.4907 22.1563C28.4283 22.3395 27.4532 22.8612 26.7115 23.6436C26.4172 23.954 26.1663 24.3305 25.6646 25.0831C25.33 25.5849 25.1625 25.8361 24.9663 26.043C24.4719 26.5646 23.822 26.9131 23.1138 27.0352C22.8327 27.0837 22.5306 27.0831 21.9273 27.0831H18.0728C17.4695 27.0831 17.1673 27.0837 16.8863 27.0352C16.1781 26.913 15.5282 26.5646 15.0337 26.043C14.8376 25.8361 14.67 25.5848 14.3355 25.0831C13.8337 24.3305 13.5828 23.954 13.2886 23.6436C12.5468 22.8612 11.5718 22.3395 10.5093 22.1563C10.0877 22.0836 9.63498 22.0831 8.73001 22.0831H4.14993C3.54262 22.0831 3.23836 22.0838 3.03567 21.9571C2.85816 21.8461 2.72864 21.6717 2.67337 21.4698C2.61047 21.2393 2.69821 20.9485 2.87259 20.3672L4.50735 14.919C5.53014 11.5099 6.04128 9.80481 7.05325 8.54108C7.9467 7.42547 9.11272 6.55771 10.438 6.02252C11.9392 5.4165 13.719 5.41705 17.2779 5.41705H18.3335V14.3096L16.1792 12.1553L15.0005 13.334L13.8218 14.5118L18.8218 19.5118C19.4727 20.1623 20.5285 20.1625 21.1792 19.5118L26.1792 14.5118C26.8295 13.8611 26.8294 12.8061 26.1792 12.1553C25.5284 11.5045 24.4727 11.5045 23.8218 12.1553L21.6675 14.3096V5.41705H22.7222ZM16.1792 12.1553C15.5284 11.5045 14.4727 11.5045 13.8218 12.1553C13.1712 12.8061 13.1713 13.8609 13.8218 14.5118L16.1792 12.1553ZM20.0005 6.10352e-05C20.9208 0.000293649 21.6675 0.746722 21.6675 1.66705V5.41705H18.3335V1.66705C18.3335 0.746579 19.08 6.10352e-05 20.0005 6.10352e-05Z" fill="currentColor" />
</svg>