<svg xmlns="http://www.w3.org/2000/svg" width="40" height="40" viewBox="0 0 40 40" fill="none">
<path d="M30.8334 23.333C30.8334 23.333 29.5514 23.333 29.0173 23.5197C28.6912 23.6337 28.3847 23.7977 28.109 24.0058C27.6574 24.3466 27.3271 24.8421 26.6665 25.833C26.0059 26.8239 25.6756 27.3194 25.224 27.6602C24.9483 27.8684 24.6418 28.0324 24.3157 28.1463C23.7816 28.333 23.1862 28.333 21.9952 28.333H18.0045C16.8135 28.333 16.218 28.333 15.684 28.1463C15.3578 28.0324 15.0514 27.8684 14.7757 27.6602C14.3241 27.3194 13.9938 26.8239 13.3332 25.833C12.6726 24.8421 12.3422 24.3466 11.8907 24.0058C11.6149 23.7977 11.3085 23.6337 10.9824 23.5197C10.4483 23.333 9.52436 23.333 8.33341 23.333C5.91182 23.333 3.95 21.3547 4.4473 18.9848C4.54848 18.5026 4.6612 18.0212 4.78172 17.5391L5.50602 14.6421C6.7008 9.86318 7.29819 7.47375 8.85592 5.86657C9.39081 5.31469 9.99947 4.83947 10.6646 4.4544C12.6016 3.33301 15.0677 3.33301 19.9999 3.33301C24.9323 3.33301 27.3985 3.33301 29.3355 4.45446C30.0006 4.83953 30.6093 5.31476 31.1442 5.86663C32.7019 7.47387 33.2993 9.86339 34.494 14.6424L35.2181 17.5392C35.4524 18.4762 35.5695 18.9446 35.6629 19.4118C36.1804 22.0003 36.1804 24.6657 35.6628 27.2542C35.5694 27.7214 35.4523 28.1899 35.2181 29.1268C34.9265 30.2929 34.7808 30.8759 34.5844 31.3766C33.4743 34.2059 30.912 36.2065 27.8979 36.5972C27.3645 36.6663 26.7635 36.6663 25.5616 36.6663H14.4379C13.2361 36.6663 12.6352 36.6663 12.1019 36.5972C9.08774 36.2066 6.52529 34.2059 5.41527 31.3764C5.21888 30.8758 5.07314 30.2929 4.78165 29.1269C4.70405 28.8165 4.63931 28.5576 4.58402 28.333C4.50133 27.9972 4.4398 27.7383 4.38806 27.4997M15.0002 11.6663H25.0002M16.6668 18.333H23.3335" stroke="currentColor" stroke-width={3} stroke-linecap="round" />
</svg>