<svg xmlns="http://www.w3.org/2000/svg" width="40" height="40" viewBox="0 0 40 40" fill="none">
<path d="M4.16654 23.333H8.81197C9.85555 23.333 10.3773 23.333 10.851 23.4768C11.2703 23.6042 11.6603 23.8129 11.9989 24.0912C12.3813 24.4055 12.6707 24.8396 13.2496 25.7079L13.4163 25.9581C13.9952 26.8264 14.2846 27.2605 14.667 27.5748C15.0056 27.8531 15.3957 28.0618 15.815 28.1892C16.2886 28.333 16.8104 28.333 17.8539 28.333H22.1453C23.1889 28.333 23.7107 28.333 24.1843 28.1892C24.6036 28.0618 24.9937 27.8531 25.3322 27.5748C25.7146 27.2605 26.004 26.8264 26.5829 25.9581L26.7497 25.7079C27.3285 24.8396 27.618 24.4055 28.0004 24.0912C28.3389 23.8129 28.729 23.6042 29.1483 23.4768C29.6219 23.333 30.1437 23.333 31.1873 23.333H35.8332M15.0001 11.6663H25.0001M16.6667 18.333H23.3334M5.80829 13.4324L4.78156 17.5391C4.54734 18.4759 4.43023 18.9443 4.33682 19.4115C3.81917 22.0002 3.81915 24.6658 4.33677 27.2545C4.43018 27.7217 4.54728 28.1901 4.78149 29.1269C5.07297 30.2929 5.21871 30.8758 5.41511 31.3764C6.52513 34.2059 9.08758 36.2066 12.1018 36.5972C12.6351 36.6663 13.236 36.6663 14.4378 36.6663H25.5614C26.7634 36.6663 27.3644 36.6663 27.8977 36.5972C30.9118 36.2065 33.4742 34.2059 34.5842 31.3766C34.7806 30.8759 34.9264 30.2929 35.2179 29.1268C35.4521 28.1899 35.5692 27.7214 35.6627 27.2542C36.1802 24.6657 36.1802 22.0003 35.6627 19.4118C35.5693 18.9446 35.4522 18.4761 35.218 17.5392L34.1914 13.4327C33.2886 9.82154 32.8373 8.01596 31.8306 6.67158C30.9425 5.48541 29.7541 4.55753 28.3879 3.98355C26.8395 3.33301 24.9784 3.33301 21.2561 3.33301H18.7435C15.0213 3.33301 13.1602 3.33301 11.6118 3.98352C10.2457 4.55748 9.05732 5.48534 8.16914 6.67147C7.1625 8.01581 6.7111 9.82133 5.80829 13.4324Z" stroke="currentColor" stroke-width={3} stroke-linecap="round" />
</svg>