<svg xmlns="http://www.w3.org/2000/svg" width="40" height="40" viewBox="0 0 40 40" fill="none">
<path d="M25.8332 5.00035H26.6665C29.6185 5.00035 32.2053 6.97616 32.982 9.82418L35.0555 17.4272C35.2894 18.2849 35.4064 18.714 35.503 19.1413C36.1284 21.9061 36.1588 24.7723 35.5924 27.5498C35.5049 27.9791 35.397 28.4104 35.1814 29.2731C34.9245 30.3007 34.796 30.8145 34.6297 31.2582C33.531 34.1899 30.8817 36.2584 27.7711 36.6133C27.3003 36.667 26.7707 36.667 25.7114 36.667H14.2876C13.2285 36.667 12.6989 36.667 12.2282 36.6133C9.11744 36.2584 6.46809 34.1899 5.36936 31.2581C5.20309 30.8144 5.07466 30.3007 4.81779 29.2732C4.60215 28.4107 4.49433 27.9794 4.4068 27.5502M14.1665 5.00035H13.3332C10.3811 5.00035 7.79428 6.97613 7.0175 9.82415L4.94388 17.4271C4.70993 18.2848 4.59295 18.7137 4.4963 19.141C3.98262 21.4118 5.90572 23.3337 8.23393 23.3337H8.33315C9.5241 23.3337 10.448 23.3337 10.9821 23.5203C11.3082 23.6343 11.6147 23.7983 11.8904 24.0065C12.342 24.3473 12.6723 24.8427 13.3329 25.8337C13.9935 26.8246 14.3238 27.3201 14.7754 27.6609C15.0511 27.869 15.3576 28.033 15.6837 28.147C16.2178 28.3337 16.8132 28.3337 18.0042 28.3337H21.9949C23.1859 28.3337 23.7814 28.3337 24.3154 28.147C24.6416 28.033 24.948 27.869 25.2237 27.6609C25.6753 27.3201 26.0056 26.8246 26.6662 25.8337C27.3268 24.8427 27.6572 24.3473 28.1087 24.0065C28.3845 23.7983 28.6909 23.6343 29.017 23.5203C29.5511 23.3337 30.4755 23.3337 31.6665 23.3337M19.9999 18.3337L24.9999 13.3337M19.9999 18.3337L14.9999 13.3337M19.9999 18.3337V3.33368" stroke="currentColor" stroke-width={3} stroke-linecap="round" stroke-linejoin="round" />
</svg>