<svg xmlns="http://www.w3.org/2000/svg" width="40" height="40" viewBox="0 0 40 40" fill="none">
<path d="M8.59406 24.5842C9.19737 24.5842 9.49951 24.5836 9.78058 24.632C10.4888 24.7542 11.1387 25.1027 11.6331 25.6242C11.8292 25.8311 11.9969 26.0824 12.3314 26.5842C12.8331 27.3368 13.084 27.7132 13.3782 28.0236C14.12 28.8061 15.0951 29.3277 16.1575 29.5109C16.5791 29.5836 17.0319 29.5842 17.9368 29.5842H22.0638C22.9686 29.5842 23.4215 29.5836 23.8431 29.5109C24.9054 29.3277 25.8797 28.8059 26.6214 28.0236C26.9157 27.7132 27.1674 27.337 27.6693 26.5842C28.0038 26.0823 28.1713 25.8312 28.3675 25.6242C28.862 25.1026 29.5117 24.7541 30.22 24.632C30.5011 24.5836 30.8032 24.5842 31.4066 24.5842H35.9349C36.5168 24.5842 36.8081 24.5838 37.0071 24.7043C37.1816 24.81 37.3112 24.9762 37.3714 25.1711C37.4401 25.3935 37.37 25.6758 37.2288 26.2404L36.8343 27.8176C35.9316 31.4283 35.4804 33.234 34.4739 34.5783C33.5858 35.7645 32.3967 36.6928 31.0306 37.2668C29.4823 37.9172 27.6207 37.9172 23.8987 37.9172H16.1009C12.3789 37.9172 10.5174 37.9173 8.96906 37.2668C7.60303 36.6928 6.41479 35.7644 5.52668 34.5783C4.52016 33.234 4.06904 31.4284 3.16632 27.8176L2.77179 26.2404C2.63066 25.6759 2.55961 25.3934 2.62824 25.1711C2.68848 24.9762 2.819 24.81 2.99347 24.7043C3.19248 24.5839 3.48333 24.5842 4.06476 24.5842H8.59406ZM25.847 12.0842C28.2401 12.0842 29.4371 12.0841 30.4935 12.4484C31.4274 12.7706 32.2779 13.2963 32.9837 13.9875C33.782 14.7694 34.3178 15.8402 35.388 17.9807L36.4749 20.1545C36.7942 20.7932 36.9537 21.1126 36.9153 21.3723C36.8818 21.599 36.7565 21.8024 36.5687 21.9338C36.3536 22.084 35.9963 22.0842 35.2825 22.0842H31.2698C30.365 22.0842 29.9121 22.0838 29.4905 22.1564C28.4283 22.3397 27.4539 22.8615 26.7122 23.6437C26.4179 23.9542 26.1664 24.3312 25.6644 25.0842C25.3299 25.5859 25.1623 25.8372 24.9661 26.0441C24.4717 26.5656 23.8218 26.9132 23.1136 27.0353C22.8325 27.0838 22.5304 27.0842 21.9271 27.0842H18.0726C17.4696 27.0842 17.168 27.0837 16.887 27.0353C16.1787 26.9132 15.528 26.5658 15.0335 26.0441C14.8374 25.8372 14.6707 25.5858 14.3362 25.0842C13.8343 24.3312 13.5827 23.9542 13.2884 23.6437C12.5466 22.8613 11.5716 22.3396 10.5091 22.1564C10.0875 22.0838 9.63465 22.0842 8.7298 22.0842H4.71808C4.00434 22.0842 3.64707 22.084 3.43195 21.9338C3.24414 21.8024 3.11879 21.599 3.08527 21.3723C3.04691 21.1126 3.20633 20.7932 3.5257 20.1545L4.61261 17.9797C5.68282 15.8394 6.2186 14.7694 7.01691 13.9875C7.72271 13.2963 8.57327 12.7706 9.50714 12.4484C10.5635 12.0841 11.7606 12.0842 14.1536 12.0842H18.3333V18.3342C18.3335 19.2545 19.08 20.0012 20.0003 20.0012C20.9205 20.0011 21.6671 19.2544 21.6673 18.3342V12.0842H25.847ZM18.9486 2.04121C19.6032 1.50739 20.5689 1.54531 21.179 2.15546L26.179 7.15546L26.2933 7.28242C26.8268 7.93703 26.7891 8.90284 26.179 9.51289C25.569 10.1228 24.6031 10.1606 23.9486 9.62714L23.8216 9.51289L21.6673 7.35859V12.0842H18.3333V7.35859L16.179 9.51289C15.5282 10.1635 14.4725 10.1634 13.8216 9.51289C13.1708 8.86205 13.1708 7.80635 13.8216 7.15546L18.8216 2.15546L18.9486 2.04121Z" fill="currentColor" />
</svg>