<svg xmlns="http://www.w3.org/2000/svg" width="40" height="40" viewBox="0 0 40 40" fill="none">
<path d="M14.1666 13.3336H12.4056C11.4568 13.3336 10.9823 13.3336 10.5481 13.4109C9.2939 13.6339 8.17214 14.3271 7.41179 15.3491C7.14853 15.703 6.93634 16.1274 6.51196 16.9761L5.71618 18.5676C4.62128 20.7572 6.21354 23.3336 8.66171 23.3336C9.85267 23.3336 10.4481 23.3336 10.9822 23.5203C11.3083 23.6343 11.6148 23.7983 11.8905 24.0064C12.3421 24.3473 12.6724 24.8427 13.333 25.8336C13.9936 26.8246 14.3239 27.32 14.7755 27.6609C15.0512 27.869 15.3577 28.033 15.6838 28.147C16.2179 28.3336 16.8134 28.3336 18.0043 28.3336H21.995C23.186 28.3336 23.7815 28.3336 24.3155 28.147C24.6417 28.033 24.9481 27.869 25.2239 27.6609C25.6754 27.32 26.0057 26.8246 26.6663 25.8336C27.327 24.8427 27.6573 24.3473 28.1088 24.0064C28.3846 23.7983 28.691 23.6343 29.0171 23.5203C29.5512 23.3336 30.4756 23.3336 31.6666 23.3336M25.8333 13.3336H27.36C28.5355 13.3336 29.1233 13.3336 29.6573 13.4519C30.7601 13.6961 31.7478 14.3065 32.4594 15.1837C32.804 15.6085 33.0668 16.1342 33.5925 17.1857L34.0162 18.0332C34.4545 18.9098 34.6736 19.3481 34.8557 19.7881C35.8234 22.1274 36.1051 24.694 35.6678 27.1876C35.5856 27.6566 35.4667 28.1321 35.2291 29.0828C34.9269 30.2913 34.7759 30.8956 34.5698 31.4135C33.4569 34.2116 30.9209 36.1917 27.9364 36.5927C27.384 36.667 26.7611 36.667 25.5154 36.667H14.3972C13.234 36.667 12.6524 36.667 12.136 36.6022C9.09567 36.221 6.50982 34.202 5.40258 31.3449C5.21452 30.8597 5.07345 30.2954 4.79134 29.167L4.58301 28.3336M20.0001 3.33365L25.0001 8.33365M20.0001 3.33365L15.0001 8.33365M20.0001 3.33365V18.3336" stroke="currentColor" stroke-width={3} stroke-linecap="round" stroke-linejoin="round" />
</svg>