<svg xmlns="http://www.w3.org/2000/svg" width="40" height="40" viewBox="0 0 40 40" fill="none">
<path d="M25.8335 13.3336H27.3602C28.5358 13.3336 29.1235 13.3336 29.6575 13.4519C30.7604 13.6961 31.748 14.3065 32.4596 15.1837C32.8042 15.6085 33.067 16.1342 33.5927 17.1857L34.0165 18.0332C34.4548 18.9098 34.6739 19.3481 34.8559 19.7881C35.8236 22.1274 36.1053 24.694 35.6681 27.1876C35.5858 27.6566 35.467 28.132 35.2293 29.0828C34.9272 30.2913 34.7761 30.8956 34.5701 31.4135C33.4571 34.2116 30.9212 36.1917 27.9367 36.5927C27.3842 36.667 26.7614 36.667 25.5156 36.667H14.484C13.2385 36.667 12.6157 36.667 12.0633 36.5928C9.0787 36.1917 6.54262 34.2116 5.42969 31.4134C5.22371 30.8955 5.07267 30.2913 4.77059 29.083C4.53291 28.1323 4.41407 27.6569 4.33184 27.188C3.89453 24.6941 4.17632 22.1273 5.14425 19.7878C5.32627 19.3478 5.5454 18.9096 5.98367 18.0331L6.40753 17.1854C6.93325 16.134 7.19611 15.6083 7.54066 15.1836C8.25227 14.3064 9.23992 13.6961 10.3427 13.4519C10.8767 13.3336 11.4644 13.3336 12.6399 13.3336H14.1668M5.00012 23.3336H8.81222C9.85579 23.3336 10.3776 23.3336 10.8512 23.4775C11.2705 23.6048 11.6606 23.8136 11.9991 24.0918C12.3815 24.4061 12.671 24.8403 13.2498 25.7086L13.4166 25.9587C13.9954 26.827 14.2849 27.2612 14.6673 27.5755C15.0058 27.8537 15.3959 28.0625 15.8152 28.1898C16.2888 28.3336 16.8106 28.3336 17.8542 28.3336H22.1456C23.1891 28.3336 23.7109 28.3336 24.1845 28.1898C24.6038 28.0625 24.9939 27.8537 25.3325 27.5755C25.7149 27.2612 26.0043 26.827 26.5832 25.9587L26.7499 25.7086C27.3288 24.8403 27.6182 24.4061 28.0006 24.0918C28.3392 23.8136 28.7292 23.6048 29.1485 23.4775C29.6222 23.3336 30.1439 23.3336 31.1875 23.3336H35.0001M20.0001 3.33365L25.0001 8.33365M20.0001 3.33365L15.0001 8.33365M20.0001 3.33365V18.3336" stroke="currentColor" stroke-width={3} stroke-linecap="round" stroke-linejoin="round" />
</svg>