<svg xmlns="http://www.w3.org/2000/svg" width="40" height="40" viewBox="0 0 40 40" fill="none">
<path d="M4.16679 23.333H8.81222C9.85579 23.333 10.3776 23.333 10.8512 23.4768C11.2705 23.6042 11.6606 23.8129 11.9991 24.0912C12.3815 24.4055 12.671 24.8396 13.2498 25.7079L13.4166 25.9581C13.9954 26.8264 14.2849 27.2605 14.6673 27.5748C15.0058 27.8531 15.3959 28.0618 15.8152 28.1892C16.2888 28.333 16.8106 28.333 17.8542 28.333H22.1456C23.1891 28.333 23.7109 28.333 24.1845 28.1892C24.6038 28.0618 24.9939 27.8531 25.3325 27.5748C25.7149 27.2605 26.0043 26.8264 26.5832 25.9581L26.7499 25.7079C27.3288 24.8396 27.6182 24.4055 28.0006 24.0912C28.3392 23.8129 28.7292 23.6042 29.1485 23.4768C29.6222 23.333 30.1439 23.333 31.1875 23.333H35.8335M5.80854 13.4324L4.7818 17.5391C4.54758 18.4759 4.43047 18.9443 4.33706 19.4115C3.81941 22.0002 3.81939 24.6658 4.33702 27.2545C4.43042 27.7217 4.54752 28.1901 4.78173 29.1269C5.07322 30.2929 5.21896 30.8758 5.41535 31.3764C6.52537 34.2059 9.08783 36.2066 12.102 36.5972C12.6353 36.6663 13.2362 36.6663 14.438 36.6663H25.5616C26.7636 36.6663 27.3646 36.6663 27.898 36.5972C30.912 36.2065 33.4744 34.2059 34.5844 31.3766C34.7809 30.8759 34.9266 30.2929 35.2181 29.1268C35.4524 28.1899 35.5695 27.7214 35.6629 27.2542C36.1805 24.6657 36.1805 22.0003 35.6629 19.4118C35.5695 18.9446 35.4524 18.4761 35.2182 17.5392L34.1916 13.4327C33.2889 9.82154 32.8375 8.01596 31.8309 6.67158C30.9427 5.48541 29.7543 4.55753 28.3882 3.98355C26.8398 3.33301 24.9786 3.33301 21.2564 3.33301H18.7437C15.0215 3.33301 13.1604 3.33301 11.6121 3.98352C10.2459 4.55748 9.05756 5.48534 8.16939 6.67147C7.16275 8.01581 6.71134 9.82133 5.80854 13.4324Z" stroke="currentColor" stroke-width={3} stroke-linecap="round" />
</svg>