<svg xmlns="http://www.w3.org/2000/svg" width="40" height="40" viewBox="0 0 40 40" fill="none">
<path d="M25.8335 5.00035H26.6668C29.6189 5.00035 32.2057 6.97616 32.9824 9.82418L35.0558 17.4272C35.2898 18.2851 35.4067 18.714 35.5034 19.1413C36.1287 21.9061 36.1592 24.7723 35.5928 27.5498C35.5052 27.9791 35.3974 28.4104 35.1817 29.2731C34.9248 30.3007 34.7964 30.8145 34.6301 31.2582C33.5313 34.1899 30.8821 36.2584 27.7715 36.6133C27.3006 36.667 26.771 36.667 25.7118 36.667H14.2879C13.2288 36.667 12.6993 36.667 12.2285 36.6133C9.11779 36.2584 6.46845 34.1899 5.36971 31.2581C5.20344 30.8144 5.07501 30.3007 4.81814 29.2732C4.6025 28.4107 4.49469 27.9794 4.40715 27.5502C3.84066 24.7725 3.87117 21.906 4.49665 19.141C4.59331 18.7137 4.71028 18.2848 4.94423 17.4271L7.01786 9.82415C7.79463 6.97613 10.3815 5.00035 13.3335 5.00035H14.1668M4.16699 23.3337H8.81242C9.85599 23.3337 10.3778 23.3337 10.8514 23.4775C11.2707 23.6049 11.6608 23.8136 11.9993 24.0919C12.3817 24.4062 12.6712 24.8403 13.25 25.7086L13.4168 25.9587C13.9957 26.827 14.2851 27.2612 14.6675 27.5755C15.006 27.8537 15.3961 28.0625 15.8154 28.1898C16.289 28.3337 16.8108 28.3337 17.8544 28.3337H22.1458C23.1893 28.3337 23.7111 28.3337 24.1847 28.1898C24.604 28.0625 24.9941 27.8537 25.3327 27.5755C25.7151 27.2612 26.0045 26.827 26.5834 25.9587L26.7501 25.7086C27.329 24.8403 27.6184 24.4062 28.0008 24.0919C28.3394 23.8136 28.7294 23.6049 29.1487 23.4775C29.6224 23.3337 30.1441 23.3337 31.1877 23.3337H35.8337M20.0003 18.3337L25.0003 13.3337M20.0003 18.3337L15.0003 13.3337M20.0003 18.3337V3.33368" stroke="currentColor" stroke-width={3} stroke-linecap="round" stroke-linejoin="round" />
</svg>