<svg xmlns="http://www.w3.org/2000/svg" width="40" height="40" viewBox="0 0 40 40" fill="none">
<path d="M4.06516 22.083C3.48305 22.083 3.192 22.083 2.99293 21.9624C2.81846 21.8567 2.68882 21.6906 2.62858 21.4957C2.55986 21.2734 2.63045 20.991 2.77164 20.4263L4.83272 12.1824C5.73552 8.57133 6.18693 6.76581 7.19357 5.42147C8.08174 4.23534 9.27013 3.30748 10.6363 2.73352C12.1846 2.08301 14.0457 2.08301 17.7679 2.08301H22.2325C25.9548 2.08301 27.8159 2.08301 29.3643 2.73355C30.7304 3.30753 31.9188 4.23541 32.807 5.42158C33.8136 6.76596 34.265 8.57154 35.1678 12.1827L37.2285 20.4263C37.3697 20.991 37.4403 21.2734 37.3716 21.4958C37.3113 21.6907 37.1817 21.8567 37.0072 21.9624C36.8082 22.083 36.5171 22.083 35.935 22.083H31.2699C30.3649 22.083 29.9124 22.083 29.4908 22.1557C28.4283 22.3389 27.4535 22.8606 26.7117 23.6431C26.4173 23.9535 26.1663 24.33 25.6643 25.083C25.3297 25.585 25.1624 25.836 24.9661 26.043C24.4716 26.5646 23.8217 26.9124 23.1133 27.0346C22.8323 27.083 22.5306 27.083 21.9273 27.083H18.0727C17.4694 27.083 17.1677 27.083 16.8866 27.0346C16.1783 26.9124 15.5284 26.5646 15.0339 26.043C14.8376 25.836 14.6703 25.585 14.3356 25.083C13.8336 24.33 13.5827 23.9535 13.2883 23.6431C12.5465 22.8606 11.5717 22.3389 10.5091 22.1557C10.0875 22.083 9.63506 22.083 8.73008 22.083H4.06516Z" fill="currentColor" /><path d="M4.06512 24.583C3.48303 24.583 3.19198 24.583 2.99291 24.7036C2.81844 24.8093 2.6888 24.9754 2.62856 25.1703C2.55983 25.3926 2.63042 25.675 2.7716 26.2397L3.16587 27.8168C4.06865 31.4279 4.52004 33.2335 5.52667 34.5778C6.41485 35.764 7.60324 36.6918 8.96939 37.2658C10.5178 37.9163 12.3789 37.9163 16.1011 37.9163H23.899C27.6212 37.9163 29.4824 37.9163 31.0307 37.2658C32.3969 36.6918 33.5853 35.764 34.4734 34.5778C35.4801 33.2335 35.9315 31.4279 36.8342 27.8168L37.2285 26.2397C37.3697 25.675 37.4403 25.3926 37.3716 25.1703C37.3113 24.9754 37.1817 24.8093 37.0072 24.7036C36.8081 24.583 36.5171 24.583 35.935 24.583H31.406C30.8027 24.583 30.501 24.583 30.22 24.6315C29.5116 24.7536 28.8617 25.1014 28.3672 25.623C28.171 25.83 28.0036 26.081 27.669 26.583C27.167 27.336 26.916 27.7125 26.6216 28.023C25.8799 28.8054 24.905 29.3272 23.8425 29.5103C23.4209 29.583 22.9684 29.583 22.0634 29.583H18.6125C17.0471 29.583 16.2644 29.583 15.554 29.3673C14.9251 29.1762 14.3399 28.8631 13.8321 28.4457C13.2585 27.9743 12.8244 27.3231 11.9561 26.0206L11.7893 25.7705C11.4999 25.3363 11.3552 25.1192 11.164 24.9621C10.9947 24.823 10.7997 24.7186 10.59 24.6549C10.3532 24.583 10.0923 24.583 9.57052 24.583H4.06512Z" fill="currentColor" />
</svg>