<svg xmlns="http://www.w3.org/2000/svg" width="24" height="24" viewBox="0 0 24 24" fill="none">
<path d="M14.75 1.25C17.55 1.25 18.95 1.25014 20.0195 1.79493C20.9603 2.27429 21.7257 3.03966 22.2051 3.98047C22.7499 5.04999 22.75 6.45005 22.75 9.25L22.75 14.75C22.75 17.55 22.7499 18.95 22.2051 20.0195C21.7257 20.9603 20.9603 21.7257 20.0195 22.2051C18.95 22.7499 17.5499 22.75 14.75 22.75L9.25 22.75C6.45004 22.75 5.04998 22.7499 3.98047 22.2051C3.03965 21.7257 2.27429 20.9603 1.79492 20.0195C1.25013 18.95 1.25 17.55 1.25 14.75L1.25 9.25C1.25 6.45005 1.25013 5.04998 1.79492 3.98047C2.27429 3.03966 3.03966 2.27429 3.98047 1.79492C5.04998 1.25013 6.45005 1.25 9.25 1.25L14.75 1.25ZM6 17.25C5.58587 17.2501 5.25005 17.5859 5.25 18C5.25 18.4142 5.58584 18.7499 6 18.75L18 18.75L18.0771 18.7461C18.4551 18.7075 18.75 18.3882 18.75 18C18.7499 17.6119 18.4551 17.2925 18.0771 17.2539L18 17.25L6 17.25ZM6.47363 9.41797C6.17905 9.17776 5.74429 9.19516 5.46973 9.46973C5.17688 9.76259 5.17695 10.2374 5.46972 10.5303L6.93945 12L5.46972 13.4697C5.17688 13.7626 5.17695 14.2374 5.46972 14.5303C5.76261 14.8232 6.23738 14.8232 6.53027 14.5303L8.53027 12.5303C8.82316 12.2374 8.82316 11.7626 8.53027 11.4697L6.53027 9.46973L6.47363 9.41797ZM11 13.25C10.5859 13.2501 10.25 13.5859 10.25 14C10.25 14.4142 10.5858 14.7499 11 14.75L18 14.75L18.0771 14.7461C18.4551 14.7075 18.75 14.3882 18.75 14C18.75 13.6119 18.4551 13.2925 18.0771 13.2539L18 13.25L11 13.25ZM11 9.25C10.5859 9.25007 10.2501 9.58587 10.25 10C10.25 10.4142 10.5858 10.7499 11 10.75L18 10.75L18.0771 10.7461C18.4551 10.7075 18.75 10.3882 18.75 10C18.75 9.61188 18.4551 9.29253 18.0771 9.25391L18 9.25L11 9.25ZM6 5.25C5.58587 5.25007 5.25005 5.58587 5.25 6C5.25 6.41417 5.58584 6.74994 6 6.75L18 6.75C18.4142 6.75 18.75 6.41422 18.75 6C18.7499 5.58583 18.4142 5.25 18 5.25L6 5.25Z" fill="currentColor" />
</svg>