<svg xmlns="http://www.w3.org/2000/svg" width="24" height="24" viewBox="0 0 24 24" fill="none">
<path d="M14.75 1.25C17.55 1.25 18.95 1.25014 20.0195 1.79493C20.9603 2.27429 21.7257 3.03966 22.2051 3.98047C22.7499 5.04999 22.75 6.45005 22.75 9.25L22.75 14.75C22.75 17.55 22.7499 18.95 22.2051 20.0195C21.7257 20.9603 20.9603 21.7257 20.0195 22.2051C18.95 22.7499 17.5499 22.75 14.75 22.75L9.25 22.75C6.45004 22.75 5.04998 22.7499 3.98047 22.2051C3.03965 21.7257 2.27429 20.9603 1.79492 20.0195C1.25013 18.95 1.25 17.55 1.25 14.75L1.25 9.25C1.25 6.45005 1.25013 5.04998 1.79492 3.98047C2.27429 3.03966 3.03966 2.27429 3.98047 1.79492C5.04998 1.25013 6.45005 1.25 9.25 1.25L14.75 1.25ZM6 17.25C5.58583 17.2501 5.25 17.5858 5.25 18C5.25001 18.4142 5.58584 18.7499 6 18.75L18 18.75C18.4142 18.75 18.75 18.4142 18.75 18C18.75 17.5858 18.4142 17.25 18 17.25L6 17.25ZM6 13.25C5.58583 13.2501 5.25 13.5858 5.25 14C5.25001 14.4142 5.58584 14.75 6 14.75L18 14.75C18.4142 14.75 18.75 14.4142 18.75 14C18.75 13.5858 18.4142 13.25 18 13.25L6 13.25ZM6.53027 5.46973C6.23738 5.17685 5.76261 5.17684 5.46973 5.46973C5.17688 5.76262 5.17686 6.23739 5.46973 6.53027L6.93945 8L5.46973 9.46973C5.17688 9.76262 5.17686 10.2374 5.46972 10.5303C5.7626 10.8232 6.23738 10.8231 6.53027 10.5303L8.53027 8.53027C8.67092 8.38963 8.74999 8.1989 8.75 8C8.75 7.80109 8.67092 7.61038 8.53027 7.46973L6.53027 5.46973ZM11 9.25C10.5858 9.25005 10.25 9.58582 10.25 10C10.25 10.4142 10.5858 10.75 11 10.75L18 10.75C18.4142 10.75 18.75 10.4142 18.75 10C18.75 9.58579 18.4142 9.25 18 9.25L11 9.25ZM11 5.25C10.5858 5.25005 10.25 5.58582 10.25 6C10.25 6.41417 10.5858 6.74995 11 6.75L18 6.75C18.4142 6.75 18.75 6.4142 18.75 6C18.75 5.61183 18.4551 5.29252 18.0771 5.25391L18 5.25L11 5.25Z" fill="currentColor" />
</svg>