<svg xmlns="http://www.w3.org/2000/svg" width="24" height="24" viewBox="0 0 24 24" fill="none">
<path d="M13.1504 1.25C16.5103 1.25 18.1902 1.25042 19.4736 1.9043C20.6026 2.47954 21.5205 3.3974 22.0957 4.52637C22.7496 5.80978 22.75 7.48966 22.75 10.8496L22.75 13.1504C22.75 16.5104 22.7496 18.1902 22.0957 19.4736C21.5205 20.6026 20.6026 21.5205 19.4736 22.0957C18.1902 22.7496 16.5103 22.75 13.1504 22.75L10.8496 22.75C7.48965 22.75 5.80977 22.7496 4.52636 22.0957C3.39739 21.5205 2.47953 20.6026 1.90429 19.4736C1.25041 18.1902 1.25 16.5103 1.25 13.1504L1.25 10.8496C1.25 7.48965 1.25042 5.80977 1.9043 4.52637C2.47954 3.39739 3.39739 2.47954 4.52637 1.9043C5.80977 1.25042 7.48965 1.25 10.8496 1.25L13.1504 1.25ZM15 8C14.6508 8 14.3109 8.04505 13.9863 8.12989L13.667 8.22754L13.5723 8.2666C13.1137 8.48286 12.885 9.01565 13.0576 9.50391C13.2302 9.9921 13.7428 10.2625 14.2354 10.1426L14.333 10.1133L14.4922 10.0645C14.6535 10.0223 14.8235 10 15 10C16.1046 10 17 10.8954 17 12C17 13.1046 16.1046 14 15 14C13.8954 14 13 13.1046 13 12C13 9.79086 11.2091 8 9 8C6.79086 8 5 9.79086 5 12C5 14.2091 6.79086 16 9 16C9.3492 16 9.6891 15.955 10.0137 15.8701L10.333 15.7725L10.4277 15.7334C10.8863 15.5171 11.115 14.9844 10.9424 14.4961C10.7698 14.0079 10.2572 13.7375 9.76465 13.8574L9.66699 13.8867L9.50781 13.9355C9.34651 13.9777 9.17646 14 9 14C7.89543 14 7 13.1046 7 12C7 10.8954 7.89543 10 9 10C10.1046 10 11 10.8954 11 12C11 14.2091 12.7909 16 15 16C17.2091 16 19 14.2091 19 12C19 9.79087 17.2091 8 15 8Z" fill="currentColor" />
</svg>