<svg xmlns="http://www.w3.org/2000/svg" width="40" height="40" viewBox="0 0 40 40" fill="none">
<path d="M20.0002 2.08334C29.8952 2.08352 37.9163 10.1053 37.9163 20.0003C37.9161 29.8952 29.8951 37.9162 20.0002 37.9164C10.1053 37.9164 2.08343 29.8953 2.08325 20.0003C2.08325 10.1052 10.1051 2.08334 20.0002 2.08334ZM19.9993 17.0833C19.3093 17.0837 18.7494 17.6433 18.7493 18.3333V26.6673C18.7496 27.3572 19.3094 27.917 19.9993 27.9173C20.6894 27.9173 21.249 27.3574 21.2493 26.6673V18.3333C21.2491 17.6431 20.6895 17.0833 19.9993 17.0833ZM19.9993 11.2503C18.8491 11.2507 17.9164 12.1831 17.9163 13.3333C17.9164 14.4836 18.849 15.417 19.9993 15.4173C21.1498 15.4173 22.0831 14.4838 22.0833 13.3333C22.0831 12.1829 21.1498 11.2503 19.9993 11.2503Z" fill="currentColor" />
</svg>