<svg xmlns="http://www.w3.org/2000/svg" width="40" height="40" viewBox="0 0 40 40" fill="none">
<path d="M29.1666 6.07847C26.5368 4.34337 23.3863 3.33344 19.9999 3.33344C10.7952 3.33344 3.33325 10.7954 3.33325 20.0001C3.33325 29.2048 10.7952 36.6668 19.9999 36.6668C29.2047 36.6668 36.6666 29.2048 36.6666 20.0001C36.6666 17.3024 36.0257 14.7544 34.8878 12.5001M19.9999 26.6668V18.3334M20.8333 13.3334C20.8333 13.7937 20.4602 14.1668 19.9999 14.1668C19.5397 14.1668 19.1666 13.7937 19.1666 13.3334M20.8333 13.3334C20.8333 12.8732 20.4602 12.5001 19.9999 12.5001C19.5397 12.5001 19.1666 12.8732 19.1666 13.3334M20.8333 13.3334H19.1666" stroke="currentColor" stroke-width={2.5} stroke-linecap="round" stroke-linejoin="round" />
</svg>