<svg xmlns="http://www.w3.org/2000/svg" width="40" height="40" viewBox="0 0 40 40" fill="none">
<path d="M19.9999 26.6667V18.3333M20.8333 13.3333C20.8333 13.7936 20.4602 14.1667 19.9999 14.1667C19.5397 14.1667 19.1666 13.7936 19.1666 13.3333M20.8333 13.3333C20.8333 12.8731 20.4602 12.5 19.9999 12.5C19.5397 12.5 19.1666 12.8731 19.1666 13.3333M20.8333 13.3333H19.1666M36.6666 20C36.6666 29.2048 29.2047 36.6667 19.9999 36.6667C10.7952 36.6667 3.33325 29.2048 3.33325 20C3.33325 10.7953 10.7952 3.33334 19.9999 3.33334C29.2047 3.33334 36.6666 10.7953 36.6666 20Z" stroke="currentColor" stroke-width={2.5} stroke-linecap="round" stroke-linejoin="round" />
</svg>