<svg xmlns="http://www.w3.org/2000/svg" width="40" height="40" viewBox="0 0 40 40" fill="none">
<path d="M24.8552 37.9204C23.8675 38.2479 22.8 38.2479 21.8123 37.9204C21.2897 37.747 20.8472 37.4735 20.4236 37.1587C20.0133 36.8537 19.5451 36.4521 18.9988 35.9839C18.0758 35.1928 17.8546 35.0254 17.6433 34.936C17.3552 34.8144 17.0401 34.7681 16.7292 34.8022C16.5013 34.8274 16.2409 34.924 15.1306 35.4175L10.6091 37.4272C10.1452 37.6332 9.60799 37.5905 9.18237 37.3139C8.75712 37.0372 8.49976 36.5636 8.49976 36.0561L8.49976 20.8803C7.78382 20.8628 7.18949 20.8127 6.65112 20.6684C4.40828 20.0673 2.65544 18.3147 2.05445 16.0718C1.82031 15.1973 1.83374 14.176 1.83374 12.7231L1.83374 6.05613C1.83408 3.3872 3.99781 1.22338 6.66675 1.22312L25.9998 1.22312C27.8415 1.22312 29.3139 1.2219 30.5007 1.31882C31.7049 1.41721 32.7482 1.62398 33.7078 2.11277C35.2443 2.89566 36.4941 4.14565 37.2771 5.68211C37.766 6.64173 37.9726 7.68489 38.071 8.88914C38.168 10.076 38.1667 11.5482 38.1667 13.3901L38.1667 36.0561C38.1667 36.5638 37.9098 37.0372 37.4841 37.3139C37.0584 37.5905 36.5213 37.6334 36.0574 37.4272L31.5369 35.4175C30.4257 34.9236 30.1653 34.8273 29.9373 34.8022C29.6264 34.7682 29.3112 34.8143 29.0232 34.936C28.812 35.0254 28.5902 35.1932 27.6677 35.9839C27.1214 36.4521 26.6542 36.8537 26.2439 37.1587C25.8202 37.4736 25.378 37.747 24.8552 37.9204ZM8.49976 6.05613C8.49944 5.1072 7.77848 4.32679 6.85425 4.23288L6.66675 4.22312L6.47925 4.23288C5.55524 4.327 4.83406 5.10735 4.83374 6.05613L4.83374 12.7231C4.83374 14.3688 4.84666 14.8985 4.95288 15.2954C5.27647 16.503 6.21992 17.4472 7.42749 17.771C7.66592 17.8348 7.95263 17.8625 8.49976 17.8764L8.49976 6.05613ZM28.3337 12.7231C29.2539 12.7229 30.0005 11.9773 30.0007 11.0571C30.0005 10.1369 29.2539 9.39029 28.3337 9.39011L18.3337 9.39011L18.1638 9.3989C17.3235 9.48425 16.6669 10.1943 16.6668 11.0571C16.6669 11.9199 17.3235 12.63 18.1638 12.7153L18.3337 12.7231L28.3337 12.7231ZM28.3337 19.3901C29.254 19.3899 30.0007 18.6435 30.0007 17.7231C30.0004 16.8031 29.2538 16.0573 28.3337 16.0571L18.3337 16.0571L18.1638 16.0649C17.3236 16.1502 16.6671 16.8605 16.6667 17.7231C16.6668 18.586 17.3234 19.296 18.1638 19.3813L18.3337 19.3901L28.3337 19.3901ZM28.3337 26.0571C29.254 26.0569 30.0007 25.3104 30.0007 24.3901C30.0005 23.4699 29.2539 22.7233 28.3337 22.7231L21.6667 22.7231L21.4968 22.7319C20.6567 22.8174 20.0009 23.5274 20.0007 24.3901C20.0008 25.2529 20.6566 25.9628 21.4968 26.0483L21.6667 26.0571L28.3337 26.0571Z" fill="currentColor" />
</svg>