<svg xmlns="http://www.w3.org/2000/svg" width="40" height="40" viewBox="0 0 40 40" fill="none">
<path d="M9.99959 19.9997L9.99959 36.6663L14.5207 34.657C15.5398 34.204 16.0494 33.9775 16.5651 33.9209C17.1306 33.8588 17.7026 33.9424 18.2266 34.1639C18.7045 34.3658 19.1279 34.7287 19.9747 35.4545C21.0991 36.4183 21.6614 36.9002 22.2836 37.1066C22.9649 37.3326 23.701 37.3326 24.3823 37.1066C25.0045 36.9002 25.5667 36.4183 26.6912 35.4545C27.5379 34.7287 27.9613 34.3658 28.4392 34.1639C28.9633 33.9424 29.5353 33.8588 30.1008 33.9209C30.6165 33.9775 31.126 34.204 32.1452 34.657L36.6663 36.6663L36.6663 13.9997C36.6663 10.266 36.6663 8.39915 35.9396 6.97307C35.3005 5.71866 34.2806 4.69879 33.0262 4.05963C31.6001 3.33301 29.7333 3.33301 25.9996 3.33301L14.9996 3.33301M9.99959 19.9997L8.66626 19.9997C6.79942 19.9997 5.866 19.9997 5.15296 19.6364C4.52575 19.3168 4.01582 18.8069 3.69624 18.1796C3.33293 17.4666 3.33293 16.5332 3.33293 14.6663L3.33292 6.66635C3.33292 4.8254 4.82531 3.33301 6.66626 3.33301C8.50721 3.33301 9.99959 4.8254 9.99959 6.66635L9.99959 19.9997ZM28.3329 11.6663L18.3329 11.6663M28.3329 24.9997L21.6663 24.9997M28.3329 18.333L18.3329 18.333" stroke="currentColor" stroke-width={3} stroke-linecap="round" stroke-linejoin="round" />
</svg>