<svg xmlns="http://www.w3.org/2000/svg" width="40" height="40" viewBox="0 0 40 40" fill="none">
<path d="M10.0001 20.0006L10.0001 36.6673L14.5212 34.6579C15.5403 34.205 16.0499 33.9785 16.5656 33.9219C17.1311 33.8597 17.7031 33.9434 18.2271 34.1648C18.705 34.3668 19.1284 34.7297 19.9752 35.4555C21.0996 36.4193 21.6618 36.9012 22.2841 37.1076C22.9654 37.3335 23.7014 37.3335 24.3828 37.1076C25.005 36.9012 25.5672 36.4193 26.6917 35.4555C27.5384 34.7297 27.9618 34.3668 28.4397 34.1648C28.9637 33.9434 29.5357 33.8597 30.1013 33.9219C30.6169 33.9785 31.1265 34.205 32.1457 34.6579L36.6667 36.6673L36.6668 14.0007C36.6668 10.267 36.6668 8.40013 35.9401 6.97405C35.301 5.71963 34.2811 4.69976 33.0267 4.06061C31.6006 3.33398 29.7338 3.33398 26.0001 3.33398L6.66675 3.33398M10.0001 20.0006L8.66675 20.0006C6.79991 20.0006 5.86649 20.0006 5.15345 19.6373C4.52624 19.3178 4.01631 18.8078 3.69673 18.1806C3.33342 17.4676 3.33342 16.5342 3.33342 14.6673L3.33342 6.66732C3.33342 4.82637 4.8258 3.33398 6.66675 3.33398M10.0001 20.0006L10.0001 6.66732C10.0001 4.82637 8.5077 3.33398 6.66675 3.33398M28.3334 11.6673L18.3334 11.6673M28.3334 25.0007L21.6667 25.0007M28.3334 18.334L18.3334 18.334" stroke="currentColor" stroke-width={3} stroke-linecap="round" stroke-linejoin="round" />
</svg>