<svg xmlns="http://www.w3.org/2000/svg" width="24" height="24" viewBox="0 0 24 24" fill="none">
<path d="M19.4697 1.46967C19.7626 1.17678 20.2374 1.17678 20.5303 1.46967C20.8232 1.76256 20.8232 2.23732 20.5303 2.53022L20.0605 2.99994L22.5303 5.46967C22.8232 5.76256 22.8232 6.23732 22.5303 6.53022L19.0303 10.0302C18.853 10.2075 18.5984 10.2845 18.3525 10.2353L13.7461 9.31342L12.2793 10.7802C13.7875 12.0181 14.75 13.8965 14.75 15.9999C14.75 19.7279 11.7279 22.7499 8 22.7499C4.27208 22.7499 1.25 19.7279 1.25 15.9999C1.25 12.272 4.27208 9.24994 8 9.24994C9.07398 9.24994 10.0888 9.50193 10.9902 9.94819L19.4697 1.46967Z" fill="currentColor" />
</svg>