<svg xmlns="http://www.w3.org/2000/svg" width="24" height="24" viewBox="0 0 24 24" fill="none">
<path opacity={0.32} d="M1.25 16C1.25 19.7279 4.27208 22.75 8 22.75C10.6503 22.75 12.9438 21.2226 14.0484 19L5 9.95166C2.77742 11.0562 1.25 13.3497 1.25 16Z" fill="currentColor" /><path d="M19.4697 1.46967C19.7626 1.17678 20.2374 1.17678 20.5303 1.46967C20.8232 1.76256 20.8232 2.23732 20.5303 2.53022L20.0605 2.99994L22.5303 5.46967C22.8232 5.76256 22.8232 6.23732 22.5303 6.53022L19.0303 10.0302C18.853 10.2075 18.5984 10.2845 18.3525 10.2353L13.7461 9.31342L12.2793 10.7792C13.7878 12.0172 14.75 13.8962 14.75 15.9999C14.75 17.0775 14.4979 18.0963 14.0488 18.9999C14.0488 18.9999 11 18.9999 8 15.9999C5 12.9999 5 9.95112 5 9.95112C5.90367 9.50206 6.92244 9.24995 8 9.24994C9.07397 9.24994 10.0888 9.50193 10.9902 9.94819L19.4697 1.46967Z" fill="currentColor" />
</svg>