<svg xmlns="http://www.w3.org/2000/svg" width="24" height="24" viewBox="0 0 24 24" fill="none">
<path d="M11.1504 19.2129C11.7026 19.0335 12.2974 19.0335 12.8496 19.2129C13.2095 19.3298 13.5093 19.5347 13.7998 19.7812C14.0837 20.0222 14.4057 20.3452 14.793 20.7324L15.5303 21.4697L15.582 21.5264C15.8223 21.8209 15.8049 22.2557 15.5303 22.5303C15.2557 22.8049 14.8209 22.8223 14.5264 22.582L14.4697 22.5303L13.7324 21.793C13.3277 21.3882 13.0554 21.1169 12.8291 20.9248C12.6099 20.7387 12.4833 20.6711 12.3867 20.6396C12.1357 20.5581 11.8643 20.5581 11.6133 20.6396C11.5167 20.6711 11.3901 20.7387 11.1709 20.9248C10.9446 21.1169 10.6723 21.3882 10.2676 21.793L9.53027 22.5303C9.23738 22.8232 8.76262 22.8232 8.46973 22.5303C8.17683 22.2374 8.17683 21.7626 8.46973 21.4697L9.20703 20.7324C9.59428 20.3452 9.91634 20.0222 10.2002 19.7812C10.4907 19.5347 10.7905 19.3298 11.1504 19.2129ZM16.3496 1.25C18.5898 1.25 19.7108 1.24957 20.5664 1.68555C21.3189 2.06902 21.931 2.68109 22.3145 3.43359C22.7504 4.28924 22.75 5.41018 22.75 7.65039V10.3496C22.75 12.5898 22.7504 13.7108 22.3145 14.5664C21.931 15.3189 21.3189 15.931 20.5664 16.3145C19.7108 16.7504 18.5898 16.75 16.3496 16.75H7.65039C5.41018 16.75 4.28924 16.7504 3.43359 16.3145C2.68109 15.931 2.06902 15.3189 1.68555 14.5664C1.24957 13.7108 1.25 12.5898 1.25 10.3496V7.65039C1.25 5.41018 1.24957 4.28924 1.68555 3.43359C2.06902 2.68109 2.68109 2.06902 3.43359 1.68555C4.28924 1.24957 5.41018 1.25 7.65039 1.25H16.3496ZM6 10C5.44772 10 5 10.4477 5 11C5 11.5523 5.44772 12 6 12C6.55228 12 7 11.5523 7 11C7 10.4477 6.55228 10 6 10ZM18 10C17.4477 10 17 10.4477 17 11C17 11.5523 17.4477 12 18 12C18.5523 12 19 11.5523 19 11C19 10.4477 18.5523 10 18 10ZM10 10.25C9.58579 10.25 9.25 10.5858 9.25 11C9.25 11.4142 9.58579 11.75 10 11.75H14C14.4142 11.75 14.75 11.4142 14.75 11C14.75 10.5858 14.4142 10.25 14 10.25H10ZM6 6C5.44772 6 5 6.44772 5 7C5 7.55228 5.44772 8 6 8C6.55228 8 7 7.55228 7 7C7 6.44772 6.55228 6 6 6ZM10 6C9.44771 6 9 6.44772 9 7C9 7.55228 9.44771 8 10 8C10.5523 8 11 7.55228 11 7C11 6.44772 10.5523 6 10 6ZM14 6C13.4477 6 13 6.44772 13 7C13 7.55228 13.4477 8 14 8C14.5523 8 15 7.55228 15 7C15 6.44772 14.5523 6 14 6ZM18 6C17.4477 6 17 6.44772 17 7C17 7.55228 17.4477 8 18 8C18.5523 8 19 7.55228 19 7C19 6.44772 18.5523 6 18 6Z" fill="currentColor" />
</svg>