<svg xmlns="http://www.w3.org/2000/svg" width="24" height="24" viewBox="0 0 24 24" fill="none">
<path d="M16.3496 4.25C18.5898 4.25 19.7108 4.24957 20.5664 4.68555C21.3189 5.06902 21.931 5.68109 22.3145 6.43359C22.7504 7.28924 22.75 8.41018 22.75 10.6504V13.3496C22.75 15.5898 22.7504 16.7108 22.3145 17.5664C21.931 18.3189 21.3189 18.931 20.5664 19.3145C19.7108 19.7504 18.5898 19.75 16.3496 19.75H7.65039C5.41018 19.75 4.28924 19.7504 3.43359 19.3145C2.68109 18.931 2.06902 18.3189 1.68555 17.5664C1.24957 16.7108 1.25 15.5898 1.25 13.3496V10.6504C1.25 8.41018 1.24957 7.28924 1.68555 6.43359C2.06902 5.68109 2.68109 5.06902 3.43359 4.68555C4.28924 4.24957 5.41018 4.25 7.65039 4.25H16.3496ZM6 13C5.44772 13 5 13.4477 5 14C5 14.5523 5.44772 15 6 15C6.55228 15 7 14.5523 7 14C7 13.4477 6.55228 13 6 13ZM18 13C17.4477 13 17 13.4477 17 14C17 14.5523 17.4477 15 18 15C18.5523 15 19 14.5523 19 14C19 13.4477 18.5523 13 18 13ZM10 13.25C9.58579 13.25 9.25 13.5858 9.25 14C9.25 14.4142 9.58579 14.75 10 14.75H14C14.4142 14.75 14.75 14.4142 14.75 14C14.75 13.5858 14.4142 13.25 14 13.25H10ZM6 9C5.44772 9 5 9.44772 5 10C5 10.5523 5.44772 11 6 11C6.55228 11 7 10.5523 7 10C7 9.44772 6.55228 9 6 9ZM10 9C9.44771 9 9 9.44772 9 10C9 10.5523 9.44771 11 10 11C10.5523 11 11 10.5523 11 10C11 9.44772 10.5523 9 10 9ZM14 9C13.4477 9 13 9.44772 13 10C13 10.5523 13.4477 11 14 11C14.5523 11 15 10.5523 15 10C15 9.44772 14.5523 9 14 9ZM18 9C17.4477 9 17 9.44772 17 10C17 10.5523 17.4477 11 18 11C18.5523 11 19 10.5523 19 10C19 9.44772 18.5523 9 18 9Z" fill="currentColor" />
</svg>