<svg xmlns="http://www.w3.org/2000/svg" width="24" height="24" viewBox="0 0 24 24" fill="none">
<path d="M14.75 1.25C17.55 1.25 18.95 1.25013 20.0195 1.79492C20.9603 2.27429 21.7257 3.03966 22.2051 3.98047C22.7499 5.04998 22.75 6.45005 22.75 9.25V14.75C22.75 17.55 22.7499 18.95 22.2051 20.0195C21.7257 20.9603 20.9603 21.7257 20.0195 22.2051C18.95 22.7499 17.55 22.75 14.75 22.75H9.25C6.45005 22.75 5.04998 22.7499 3.98047 22.2051C3.03966 21.7257 2.27429 20.9603 1.79492 20.0195C1.25013 18.95 1.25 17.55 1.25 14.75V9.25C1.25 6.45005 1.25013 5.04998 1.79492 3.98047C2.27429 3.03966 3.03966 2.27429 3.98047 1.79492C5.04998 1.25013 6.45005 1.25 9.25 1.25H14.75ZM15.5 8.25C13.9812 8.25 12.75 9.48122 12.75 11V13C12.75 14.5188 13.9812 15.75 15.5 15.75C15.5605 15.75 15.6202 15.7441 15.6797 15.7402L16.4697 16.5303L16.5264 16.582C16.8209 16.8223 17.2557 16.8049 17.5303 16.5303C17.8049 16.2557 17.8223 15.8209 17.582 15.5264L17.5303 15.4697L17.2109 15.1504C17.8434 14.6465 18.25 13.8714 18.25 13V11C18.25 9.48122 17.0188 8.25 15.5 8.25ZM11 8.25C10.5858 8.25 10.25 8.58579 10.25 9V11.25H7.75V9C7.75 8.58579 7.41421 8.25 7 8.25C6.58579 8.25 6.25 8.58579 6.25 9V15C6.25 15.4142 6.58579 15.75 7 15.75C7.41421 15.75 7.75 15.4142 7.75 15V12.75H10.25V15C10.25 15.4142 10.5858 15.75 11 15.75C11.4142 15.75 11.75 15.4142 11.75 15V9C11.75 8.58579 11.4142 8.25 11 8.25ZM15.5 9.75C16.1904 9.75 16.75 10.3096 16.75 11V13C16.75 13.6904 16.1904 14.25 15.5 14.25C14.8096 14.25 14.25 13.6904 14.25 13V11C14.25 10.3096 14.8096 9.75 15.5 9.75Z" fill="currentColor" />
</svg>