<svg xmlns="http://www.w3.org/2000/svg" width="24" height="24" viewBox="0 0 24 24" fill="none">
<path d="M14.75 1.25C17.55 1.25 18.95 1.25013 20.0195 1.79492C20.9603 2.27429 21.7257 3.03966 22.2051 3.98047C22.7499 5.04998 22.75 6.45005 22.75 9.25V14.75C22.75 17.55 22.7499 18.95 22.2051 20.0195C21.7257 20.9603 20.9603 21.7257 20.0195 22.2051C18.95 22.7499 17.55 22.75 14.75 22.75H9.25C6.45005 22.75 5.04998 22.7499 3.98047 22.2051C3.03966 21.7257 2.27429 20.9603 1.79492 20.0195C1.25013 18.95 1.25 17.55 1.25 14.75V9.25C1.25 6.45005 1.25013 5.04998 1.79492 3.98047C2.27429 3.03966 3.03966 2.27429 3.98047 1.79492C5.04998 1.25013 6.45005 1.25 9.25 1.25H14.75ZM11.2871 8.30664C11.0069 8.1906 10.6842 8.25525 10.4697 8.46973L6.46973 12.4697C6.25525 12.6842 6.1906 13.0069 6.30664 13.2871C6.42273 13.5674 6.69666 13.75 7 13.75H10.25V15C10.25 15.4142 10.5858 15.75 11 15.75C11.4142 15.75 11.75 15.4142 11.75 15V9C11.75 8.69665 11.5674 8.42273 11.2871 8.30664ZM13.5 8.25C13.0858 8.25 12.75 8.58579 12.75 9V15C12.75 15.4142 13.0858 15.75 13.5 15.75C13.9142 15.75 14.25 15.4142 14.25 15V13.2812L14.375 13.1387L16.4355 15.4941L16.4893 15.5488C16.7672 15.8081 17.2019 15.8201 17.4941 15.5645C17.7862 15.3088 17.8323 14.8763 17.6123 14.5664L17.5645 14.5059L15.3711 12L17.5645 9.49414C17.8372 9.18246 17.8057 8.70833 17.4941 8.43555C17.1825 8.16283 16.7083 8.19426 16.4355 8.50586L14.25 11.0029V9C14.25 8.58579 13.9142 8.25 13.5 8.25ZM10.25 12.25H8.81055L10.25 10.8105V12.25Z" fill="currentColor" />
</svg>