<svg xmlns="http://www.w3.org/2000/svg" width="24" height="24" viewBox="0 0 24 24" fill="none">
<path opacity={0.32} d="M9.25 1.25C6.44974 1.25 5.04961 1.25 3.98005 1.79497C3.03924 2.27433 2.27433 3.03924 1.79497 3.98005C1.25 5.04961 1.25 6.44974 1.25 9.25V14.75C1.25 17.5503 1.25 18.9504 1.79497 20.02C2.27433 20.9608 3.03924 21.7257 3.98005 22.205C5.04961 22.75 6.44974 22.75 9.25 22.75H14.75C17.5503 22.75 18.9504 22.75 20.02 22.205C20.9608 21.7257 21.7257 20.9608 22.205 20.02C22.75 18.9504 22.75 17.5503 22.75 14.75V9.25C22.75 6.44974 22.75 5.04961 22.205 3.98005C21.7257 3.03924 20.9608 2.27433 20.02 1.79497C18.9504 1.25 17.5503 1.25 14.75 1.25H9.25Z" fill="currentColor" /><path d="M11 8.25C11.4142 8.25 11.75 8.58579 11.75 9V15C11.75 15.4142 11.4142 15.75 11 15.75C10.5858 15.75 10.25 15.4142 10.25 15V12.75H7.75V15C7.75 15.4142 7.41421 15.75 7 15.75C6.58579 15.75 6.25 15.4142 6.25 15V9C6.25 8.58579 6.58579 8.25 7 8.25C7.41421 8.25 7.75 8.58579 7.75 9V11.25H10.25V9C10.25 8.58579 10.5858 8.25 11 8.25ZM14.5 8.25C14.9557 8.25 15.3351 8.24933 15.6455 8.27051C15.9626 8.29215 16.2624 8.33872 16.5527 8.45899C17.2264 8.73809 17.7619 9.27359 18.041 9.94727C18.1613 10.2376 18.2079 10.5374 18.2295 10.8545C18.2507 11.1649 18.25 11.5443 18.25 12C18.25 12.4557 18.2507 12.8351 18.2295 13.1455C18.2079 13.4626 18.1613 13.7624 18.041 14.0527C17.7619 14.7264 17.2264 15.2619 16.5527 15.541C16.2624 15.6613 15.9626 15.7079 15.6455 15.7295C15.3351 15.7507 14.9557 15.75 14.5 15.75H13.5C13.0858 15.75 12.75 15.4142 12.75 15V9C12.75 8.58579 13.0858 8.25 13.5 8.25H14.5ZM14.25 14.25H14.5C14.976 14.25 15.2955 14.2493 15.543 14.2324C15.7837 14.216 15.9014 14.1872 15.9785 14.1553C16.2848 14.0284 16.5284 13.7848 16.6553 13.4785C16.6872 13.4014 16.716 13.2837 16.7324 13.043C16.7493 12.7955 16.75 12.476 16.75 12C16.75 11.524 16.7493 11.2045 16.7324 10.957C16.716 10.7163 16.6872 10.5986 16.6553 10.5215C16.5284 10.2152 16.2848 9.9716 15.9785 9.84473C15.9014 9.81277 15.7837 9.784 15.543 9.76758C15.2955 9.75071 14.976 9.75 14.5 9.75H14.25V14.25Z" fill="currentColor" />
</svg>