<svg xmlns="http://www.w3.org/2000/svg" width="24" height="24" viewBox="0 0 24 24" fill="none">
<path d="M14.75 1.25C17.55 1.25 18.95 1.25013 20.0195 1.79492C20.9603 2.27429 21.7257 3.03966 22.2051 3.98047C22.7499 5.04998 22.75 6.45005 22.75 9.25V14.75C22.75 17.55 22.7499 18.95 22.2051 20.0195C21.7257 20.9603 20.9603 21.7257 20.0195 22.2051C18.95 22.7499 17.55 22.75 14.75 22.75H9.25C6.45005 22.75 5.04998 22.7499 3.98047 22.2051C3.03966 21.7257 2.27429 20.9603 1.79492 20.0195C1.25013 18.95 1.25 17.55 1.25 14.75V9.25C1.25 6.45005 1.25013 5.04998 1.79492 3.98047C2.27429 3.03966 3.03966 2.27429 3.98047 1.79492C5.04998 1.25013 6.45005 1.25 9.25 1.25H14.75ZM11 8.25C10.5858 8.25 10.25 8.58579 10.25 9V11.25H7.75V9C7.75 8.58579 7.41421 8.25 7 8.25C6.58579 8.25 6.25 8.58579 6.25 9V15C6.25 15.4142 6.58579 15.75 7 15.75C7.41421 15.75 7.75 15.4142 7.75 15V12.75H10.25V15C10.25 15.4142 10.5858 15.75 11 15.75C11.4142 15.75 11.75 15.4142 11.75 15V9C11.75 8.58579 11.4142 8.25 11 8.25ZM13.5 8.25C13.0858 8.25 12.75 8.58579 12.75 9V15C12.75 15.4142 13.0858 15.75 13.5 15.75H14.5C14.9557 15.75 15.3351 15.7507 15.6455 15.7295C15.9626 15.7079 16.2624 15.6613 16.5527 15.541C17.2264 15.2619 17.7619 14.7264 18.041 14.0527C18.1613 13.7624 18.2079 13.4626 18.2295 13.1455C18.2507 12.8351 18.25 12.4557 18.25 12C18.25 11.5443 18.2507 11.1649 18.2295 10.8545C18.2079 10.5374 18.1613 10.2376 18.041 9.94727C17.7619 9.27358 17.2264 8.73809 16.5527 8.45898C16.2624 8.33872 15.9626 8.29215 15.6455 8.27051C15.3351 8.24933 14.9557 8.25 14.5 8.25H13.5ZM14.5 9.75C14.976 9.75 15.2955 9.75071 15.543 9.76758C15.7837 9.784 15.9014 9.81277 15.9785 9.84473C16.2848 9.97159 16.5284 10.2152 16.6553 10.5215C16.6872 10.5986 16.716 10.7163 16.7324 10.957C16.7493 11.2045 16.75 11.524 16.75 12C16.75 12.476 16.7493 12.7955 16.7324 13.043C16.716 13.2837 16.6872 13.4014 16.6553 13.4785C16.5284 13.7848 16.2848 14.0284 15.9785 14.1553C15.9014 14.1872 15.7837 14.216 15.543 14.2324C15.2955 14.2493 14.976 14.25 14.5 14.25H14.25V9.75H14.5Z" fill="currentColor" />
</svg>