<svg xmlns="http://www.w3.org/2000/svg" width="24" height="24" viewBox="0 0 24 24" fill="none">
<path opacity={0.32} d="M9.25 1.25C6.44974 1.25 5.04961 1.25 3.98005 1.79497C3.03924 2.27433 2.27433 3.03924 1.79497 3.98005C1.25 5.04961 1.25 6.44974 1.25 9.25V14.75C1.25 17.5503 1.25 18.9504 1.79497 20.02C2.27433 20.9608 3.03924 21.7257 3.98005 22.205C5.04961 22.75 6.44974 22.75 9.25 22.75H14.75C17.5503 22.75 18.9504 22.75 20.02 22.205C20.9608 21.7257 21.7257 20.9608 22.205 20.02C22.75 18.9504 22.75 17.5503 22.75 14.75V9.25C22.75 6.44974 22.75 5.04961 22.205 3.98005C21.7257 3.03924 20.9608 2.27433 20.02 1.79497C18.9504 1.25 17.5503 1.25 14.75 1.25H9.25Z" fill="currentColor" /><path d="M15.5 8.25C17.0188 8.25 18.25 9.48122 18.25 11V13C18.25 13.8714 17.8434 14.6465 17.2109 15.1504L17.5303 15.4697L17.582 15.5264C17.8223 15.8209 17.8049 16.2557 17.5303 16.5303C17.2557 16.8049 16.8209 16.8223 16.5264 16.582L16.4697 16.5303L15.6797 15.7402C15.6202 15.7441 15.5605 15.75 15.5 15.75C13.9812 15.75 12.75 14.5188 12.75 13V11C12.75 9.48122 13.9812 8.25 15.5 8.25ZM11 8.25C11.4142 8.25 11.75 8.58579 11.75 9V15C11.75 15.4142 11.4142 15.75 11 15.75C10.5858 15.75 10.25 15.4142 10.25 15V12.75H7.75V15C7.75 15.4142 7.41421 15.75 7 15.75C6.58579 15.75 6.25 15.4142 6.25 15V9C6.25 8.58579 6.58579 8.25 7 8.25C7.41421 8.25 7.75 8.58579 7.75 9V11.25H10.25V9C10.25 8.58579 10.5858 8.25 11 8.25ZM15.5 9.75C14.8096 9.75 14.25 10.3096 14.25 11V13C14.25 13.6904 14.8096 14.25 15.5 14.25C16.1904 14.25 16.75 13.6904 16.75 13V11C16.75 10.3096 16.1904 9.75 15.5 9.75Z" fill="currentColor" />
</svg>