<svg xmlns="http://www.w3.org/2000/svg" width="24" height="24" viewBox="0 0 24 24" fill="none">
<path opacity={0.32} d="M9.25 1.25C6.44974 1.25 5.04961 1.25 3.98005 1.79497C3.03924 2.27433 2.27433 3.03924 1.79497 3.98005C1.25 5.04961 1.25 6.44974 1.25 9.25V14.75C1.25 17.5503 1.25 18.9504 1.79497 20.02C2.27433 20.9608 3.03924 21.7257 3.98005 22.205C5.04961 22.75 6.44974 22.75 9.25 22.75H14.75C17.5503 22.75 18.9504 22.75 20.02 22.205C20.9608 21.7257 21.7257 20.9608 22.205 20.02C22.75 18.9504 22.75 17.5503 22.75 14.75V9.25C22.75 6.44974 22.75 5.04961 22.205 3.98005C21.7257 3.03924 20.9608 2.27433 20.02 1.79497C18.9504 1.25 17.5503 1.25 14.75 1.25H9.25Z" fill="currentColor" /><path d="M10.4694 8.46943C10.6838 8.25506 11.0067 8.19053 11.2868 8.30635C11.567 8.42239 11.7496 8.69649 11.7497 8.99971V14.9997C11.7497 15.4139 11.4139 15.7497 10.9997 15.7497C10.5856 15.7495 10.2497 15.4138 10.2497 14.9997V13.7497H6.99971C6.69649 13.7496 6.42239 13.567 6.30635 13.2868C6.19053 13.0067 6.25506 12.6838 6.46943 12.4694L10.4694 8.46943ZM13.4997 8.24971C13.9138 8.24971 14.2495 8.58564 14.2497 8.99971V11.0026L16.4353 8.50557C16.7079 8.1941 17.1822 8.16287 17.4938 8.43525C17.8054 8.70803 17.8369 9.18217 17.5642 9.49385L15.3708 11.9997L17.5642 14.5056L17.612 14.5661C17.832 14.876 17.7859 15.3085 17.4938 15.5642C17.2016 15.8198 16.7669 15.8078 16.489 15.5485L16.4353 15.4938L14.3747 13.1384L14.2497 13.281V14.9997C14.2497 15.4139 13.9139 15.7497 13.4997 15.7497C13.0856 15.7495 12.7497 15.4138 12.7497 14.9997V8.99971C12.7499 8.58575 13.0858 8.24989 13.4997 8.24971ZM8.81026 12.2497H10.2497V10.8103L8.81026 12.2497Z" fill="currentColor" />
</svg>