<svg xmlns="http://www.w3.org/2000/svg" width="24" height="24" viewBox="0 0 24 24" fill="none">
<path d="M6.0057 4C3.65001 5.19638 2.47217 5.92636 2.47217 7.00003C2.47217 8.2361 4.03326 9.01665 7.15545 10.5777L8.42232 11.2112C10.1779 12.089 11.0558 12.5279 12 12.5279C12.9443 12.5279 13.8221 12.089 15.5777 11.2112L16.8446 10.5777C19.9668 9.01665 21.5279 8.2361 21.5279 7.00003C21.5279 5.76396 19.9668 4.98342 16.8446 3.42232L15.5777 2.78889C13.8221 1.91107 12.9443 1.47217 12 1.47217C11.1658 1.47217 10.3834 1.81478 9.00159 2.5M2 13L7.70675 15.8534C9.28094 16.6405 10.068 17.034 10.8936 17.1889C11.6248 17.3261 12.3752 17.3261 13.1064 17.1889C13.932 17.034 14.7191 16.6405 16.2933 15.8534L16.5 15.75L17 15.5M22 13L20 14M22 18L16.2933 20.8534C14.7191 21.6405 13.932 22.034 13.1064 22.1889C12.3752 22.3261 11.6248 22.3261 10.8936 22.1889C10.068 22.034 9.28094 21.6405 7.70675 20.8534L2 18" stroke="currentColor" stroke-width={2} stroke-linecap="round" stroke-linejoin="round" />
</svg>