<svg xmlns="http://www.w3.org/2000/svg" width="24" height="24" viewBox="0 0 24 24" fill="none">
<path d="M1.10532 17.5534C1.33687 17.0903 1.87945 16.8855 2.35337 17.0652L2.44712 17.1062L8.15415 19.9597C9.77985 20.7725 10.4224 21.0837 11.078 21.2068C11.6872 21.321 12.3125 21.321 12.9217 21.2068C13.5773 21.0838 14.22 20.7725 15.8456 19.9597L21.5526 17.1062C22.0466 16.8592 22.6474 17.0595 22.8944 17.5534C23.1412 18.0474 22.941 18.6483 22.4471 18.8952L16.7401 21.7488C15.2182 22.5097 14.2862 22.9858 13.2909 23.1726C12.4379 23.3326 11.5618 23.3326 10.7088 23.1726C9.71351 22.9858 8.78162 22.5098 7.25962 21.7488L1.55259 18.8952L1.46372 18.8445C1.03572 18.5732 0.87406 18.0165 1.10532 17.5534ZM1.10532 12.5534C1.33687 12.0903 1.87945 11.8855 2.35337 12.0652L2.44712 12.1062L8.15415 14.9597C9.77985 15.7725 10.4224 16.0837 11.078 16.2068C11.6872 16.321 12.3125 16.321 12.9217 16.2068C13.5773 16.0838 14.22 15.7725 15.8456 14.9597L21.5526 12.1062C22.0466 11.8592 22.6474 12.0595 22.8944 12.5534C23.1412 13.0474 22.941 13.6483 22.4471 13.8952L16.7401 16.7488C15.2182 17.5097 14.2862 17.9858 13.2909 18.1726C12.4379 18.3326 11.5618 18.3326 10.7088 18.1726C9.71351 17.9858 8.78162 17.5098 7.25962 16.7488L1.55259 13.8952L1.46372 13.8445C1.03572 13.5732 0.87406 13.0165 1.10532 12.5534ZM11.2625 1.04075C11.75 0.949318 12.2507 0.949299 12.7381 1.04075C13.0132 1.0924 13.2821 1.18379 13.6131 1.32786C13.9442 1.47193 14.3375 1.66907 14.8622 1.93137L19.2762 4.1384C19.7365 4.36857 20.1392 4.57028 20.4891 4.75266C20.8394 4.93522 21.1367 5.09849 21.3856 5.25266C21.883 5.5608 22.187 5.8317 22.3348 6.14329C22.5921 6.68566 22.592 7.31476 22.3348 7.85715C22.0392 8.48038 21.1183 8.94102 19.2762 9.86204L14.8622 12.0691C14.3375 12.3314 13.9442 12.5285 13.6131 12.6726C13.282 12.8167 13.0132 12.908 12.7381 12.9597C12.3117 13.0397 11.875 13.0499 11.4461 12.99C11.3848 12.9814 11.3236 12.9711 11.2625 12.9597C11.1938 12.9468 11.1255 12.9309 11.0565 12.9128C10.5729 12.7863 10.056 12.5283 9.13755 12.0691L4.72446 9.86204C4.2638 9.63171 3.86069 9.43026 3.51059 9.24778C2.4605 8.70044 1.88659 8.3246 1.66489 7.85715C1.40777 7.31484 1.40773 6.68559 1.66489 6.14329C1.73883 5.98739 1.85181 5.84131 2.00864 5.69602C2.12623 5.58708 2.26861 5.47852 2.43735 5.36594C2.94336 5.02838 3.68838 4.65644 4.72446 4.1384L9.13755 1.93137C10.187 1.40664 10.7122 1.14401 11.2625 1.04075Z" fill="currentColor" />
</svg>