<svg xmlns="http://www.w3.org/2000/svg" width="24" height="24" viewBox="0 0 24 24" fill="none">
<path d="M14.75 1.25C17.55 1.25 18.95 1.25013 20.0195 1.79492C20.9603 2.27429 21.7257 3.03966 22.2051 3.98047C22.7499 5.04998 22.75 6.45005 22.75 9.25V14.75C22.75 17.55 22.7499 18.95 22.2051 20.0195C21.7257 20.9603 20.9603 21.7257 20.0195 22.2051C18.95 22.7499 17.55 22.75 14.75 22.75H9.25C6.45005 22.75 5.04998 22.7499 3.98047 22.2051C3.03966 21.7257 2.27429 20.9603 1.79492 20.0195C1.25013 18.95 1.25 17.55 1.25 14.75V9.25C1.25 6.45005 1.25013 5.04998 1.79492 3.98047C2.27429 3.03966 3.03966 2.27429 3.98047 1.79492C5.04998 1.25013 6.45005 1.25 9.25 1.25H14.75ZM7.53027 13.4697C7.23738 13.1768 6.76262 13.1768 6.46973 13.4697L4.46973 15.4697C4.17683 15.7626 4.17683 16.2374 4.46973 16.5303L6.46973 18.5303L6.52637 18.582C6.82095 18.8223 7.25567 18.8049 7.53027 18.5303C7.80488 18.2557 7.82234 17.8209 7.58203 17.5264L7.53027 17.4697L6.81055 16.75H17.1895L16.4697 17.4697C16.1768 17.7626 16.1768 18.2374 16.4697 18.5303C16.7626 18.8232 17.2374 18.8232 17.5303 18.5303L19.5303 16.5303C19.8232 16.2374 19.8232 15.7626 19.5303 15.4697L17.5303 13.4697L17.4736 13.418C17.1791 13.1777 16.7443 13.1951 16.4697 13.4697C16.1951 13.7443 16.1777 14.1791 16.418 14.4736L16.4697 14.5303L17.1895 15.25H6.81055L7.53027 14.5303C7.82317 14.2374 7.82317 13.7626 7.53027 13.4697ZM9 5.25C8.58579 5.25 8.25 5.58579 8.25 6C8.25 6.41421 8.58579 6.75 9 6.75H11.25V12C11.25 12.4142 11.5858 12.75 12 12.75C12.4142 12.75 12.75 12.4142 12.75 12V6.75H15C15.4142 6.75 15.75 6.41421 15.75 6C15.75 5.58579 15.4142 5.25 15 5.25H9Z" fill="currentColor" />
</svg>