<svg xmlns="http://www.w3.org/2000/svg" width="24" height="24" viewBox="0 0 24 24" fill="none">
<path d="M19.0711 4.92893L19.7782 4.22183L19.0711 4.92893ZM14.2929 8.29289C13.9024 8.68342 13.9024 9.31658 14.2929 9.70711C14.6834 10.0976 15.3166 10.0976 15.7071 9.70711L14.2929 8.29289ZM9.70711 15.7071C10.0976 15.3166 10.0976 14.6834 9.70711 14.2929C9.31658 13.9024 8.68342 13.9024 8.29289 14.2929L9.70711 15.7071ZM8.29289 9.70711C8.68342 10.0976 9.31658 10.0976 9.70711 9.70711C10.0976 9.31658 10.0976 8.68342 9.70711 8.29289L8.29289 9.70711ZM15.7071 14.2929C15.3166 13.9024 14.6834 13.9024 14.2929 14.2929C13.9024 14.6834 13.9024 15.3166 14.2929 15.7071L15.7071 14.2929ZM12 22V21C9.51444 21 7.26581 19.9937 5.63604 18.364L4.92893 19.0711L4.22183 19.7782C6.21134 21.7677 8.96271 23 12 23V22ZM4.92893 19.0711L5.63604 18.364C4.00626 16.7342 3 14.4856 3 12H2H1C1 15.0373 2.23231 17.7887 4.22183 19.7782L4.92893 19.0711ZM22 12H21C21 14.4856 19.9937 16.7342 18.364 18.364L19.0711 19.0711L19.7782 19.7782C21.7677 17.7887 23 15.0373 23 12H22ZM19.0711 19.0711L18.364 18.364C16.7342 19.9937 14.4856 21 12 21V22V23C15.0373 23 17.7887 21.7677 19.7782 19.7782L19.0711 19.0711ZM12 2V3C14.4856 3 16.7342 4.00626 18.364 5.63604L19.0711 4.92893L19.7782 4.22183C17.7887 2.23231 15.0373 1 12 1V2ZM19.0711 4.92893L18.364 5.63604C19.9937 7.26581 21 9.51444 21 12H22H23C23 8.96271 21.7677 6.21134 19.7782 4.22183L19.0711 4.92893ZM2 12H3C3 9.51444 4.00626 7.26581 5.63604 5.63604L4.92893 4.92893L4.22183 4.22183C2.23231 6.21134 1 8.96271 1 12H2ZM4.92893 4.92893L5.63604 5.63604C7.26581 4.00626 9.51444 3 12 3V2V1C8.96271 1 6.21134 2.23231 4.22183 4.22183L4.92893 4.92893ZM19.0711 4.92893L18.364 4.22183L14.2929 8.29289L15 9L15.7071 9.70711L19.7782 5.63604L19.0711 4.92893ZM9 15L8.29289 14.2929L4.22183 18.364L4.92893 19.0711L5.63604 19.7782L9.70711 15.7071L9 15ZM4.92893 4.92893L4.22183 5.63604L8.29289 9.70711L9 9L9.70711 8.29289L5.63604 4.22183L4.92893 4.92893ZM15 15L14.2929 15.7071L18.364 19.7782L19.0711 19.0711L19.7782 18.364L15.7071 14.2929L15 15ZM16 12H15C15 13.6569 13.6569 15 12 15V16V17C14.7614 17 17 14.7614 17 12H16ZM12 16V15C10.3431 15 9 13.6569 9 12H8H7C7 14.7614 9.23858 17 12 17V16ZM8 12H9C9 10.3431 10.3431 9 12 9V8V7C9.23858 7 7 9.23858 7 12H8ZM12 8V9C13.6569 9 15 10.3431 15 12H16H17C17 9.23858 14.7614 7 12 7V8Z" fill="currentColor" />
</svg>