<svg xmlns="http://www.w3.org/2000/svg" width="24" height="24" viewBox="0 0 24 24" fill="none">
<path d="M19.0711 4.92893L19.7782 4.22183V4.22183L19.0711 4.92893ZM4.92893 4.92893L4.22183 4.22183L4.92893 4.92893ZM14.2929 8.29289C13.9024 8.68342 13.9024 9.31658 14.2929 9.70711C14.6834 10.0976 15.3166 10.0976 15.7071 9.70711L14.2929 8.29289ZM9.70711 15.7071C10.0976 15.3166 10.0976 14.6834 9.70711 14.2929C9.31658 13.9024 8.68342 13.9024 8.29289 14.2929L9.70711 15.7071ZM8.29289 9.70711C8.68342 10.0976 9.31658 10.0976 9.70711 9.70711C10.0976 9.31658 10.0976 8.68342 9.70711 8.29289L8.29289 9.70711ZM15.7071 14.2929C15.3166 13.9024 14.6834 13.9024 14.2929 14.2929C13.9024 14.6834 13.9024 15.3166 14.2929 15.7071L15.7071 14.2929ZM21.5422 15L20.5882 14.7003L20.5881 14.7004L21.5422 15ZM21.5422 9L20.5881 9.29965L20.5882 9.29965L21.5422 9ZM22.6534 14.7493C22.7911 14.2144 22.4691 13.6692 21.9342 13.5316C21.3994 13.3939 20.8542 13.7159 20.7165 14.2507L22.6534 14.7493ZM20.7165 9.74927C20.8542 10.2841 21.3994 10.6061 21.9342 10.4684C22.4691 10.3308 22.7911 9.7856 22.6534 9.25074L20.7165 9.74927ZM12 22V21C9.51444 21 7.26581 19.9937 5.63604 18.364L4.92893 19.0711L4.22183 19.7782C6.21134 21.7677 8.96271 23 12 23V22ZM4.92893 19.0711L5.63604 18.364C4.00626 16.7342 3 14.4856 3 12H2H1C1 15.0373 2.23231 17.7887 4.22183 19.7782L4.92893 19.0711ZM19.0711 19.0711L18.364 18.364C16.7342 19.9937 14.4856 21 12 21V22V23C15.0373 23 17.7887 21.7677 19.7782 19.7782L19.0711 19.0711ZM12 2V3C14.4856 3 16.7342 4.00626 18.364 5.63604L19.0711 4.92893L19.7782 4.22183C17.7887 2.23231 15.0373 1 12 1V2ZM2 12H3C3 9.51444 4.00626 7.26581 5.63604 5.63604L4.92893 4.92893L4.22183 4.22183C2.23231 6.21134 1 8.96271 1 12H2ZM4.92893 4.92893L5.63604 5.63604C7.26581 4.00626 9.51444 3 12 3V2V1C8.96271 1 6.21134 2.23231 4.22183 4.22183L4.92893 4.92893ZM19.0711 4.92893L18.364 4.22183L14.2929 8.29289L15 9L15.7071 9.70711L19.7782 5.63604L19.0711 4.92893ZM9 15L8.29289 14.2929L4.22183 18.364L4.92893 19.0711L5.63604 19.7782L9.70711 15.7071L9 15ZM4.92893 4.92893L4.22183 5.63604L8.29289 9.70711L9 9L9.70711 8.29289L5.63604 4.22183L4.92893 4.92893ZM15 15L14.2929 15.7071L18.364 19.7782L19.0711 19.0711L19.7782 18.364L15.7071 14.2929L15 15ZM21.5422 15L20.5881 14.7004C20.149 16.0984 19.3771 17.3508 18.364 18.364L19.0711 19.0711L19.7782 19.7782C21.0144 18.542 21.9585 17.0117 22.4962 15.2996L21.5422 15ZM19.0711 4.92893L18.364 5.63604C19.3771 6.64922 20.149 7.90159 20.5881 9.29965L21.5422 9L22.4962 8.70035C21.9585 6.98834 21.0144 5.45803 19.7782 4.22183L19.0711 4.92893ZM21.685 14.5L20.7165 14.2507C20.6775 14.4022 20.6347 14.5521 20.5882 14.7003L21.5422 15L22.4962 15.2997C22.5533 15.1182 22.6057 14.9347 22.6534 14.7493L21.685 14.5ZM21.5422 9L20.5882 9.29965C20.6347 9.4479 20.6775 9.5978 20.7165 9.74927L21.685 9.5L22.6534 9.25074C22.6057 9.06535 22.5533 8.88184 22.4962 8.70035L21.5422 9ZM16 12H15C15 13.6569 13.6569 15 12 15V16V17C14.7614 17 17 14.7614 17 12H16ZM12 16V15C10.3431 15 9 13.6569 9 12H8H7C7 14.7614 9.23858 17 12 17V16ZM8 12H9C9 10.3431 10.3431 9 12 9V8V7C9.23858 7 7 9.23858 7 12H8ZM12 8V9C13.6569 9 15 10.3431 15 12H16H17C17 9.23858 14.7614 7 12 7V8Z" fill="currentColor" />
</svg>