<svg xmlns="http://www.w3.org/2000/svg" width="24" height="24" viewBox="0 0 24 24" fill="none">
<path d="M12 1.25C14.9683 1.25 17.657 2.45389 19.6016 4.39844C21.5461 6.34298 22.75 9.03168 22.75 12C22.75 14.9683 21.5461 17.657 19.6016 19.6016C17.657 21.5461 14.9683 22.75 12 22.75C9.03168 22.75 6.34298 21.5461 4.39844 19.6016C2.45389 17.657 1.25 14.9683 1.25 12C1.25 9.03168 2.45389 6.34298 4.39844 4.39844C6.34298 2.45389 9.03168 1.25 12 1.25ZM18.707 5.29297C18.3165 4.90244 17.6835 4.90244 17.293 5.29297L14.4698 8.1153C14.3156 8.26943 14.2385 8.3465 14.1586 8.38374C14.0785 8.42111 14.0212 8.43293 13.9328 8.43036C13.8447 8.4278 13.7215 8.37886 13.475 8.28098C13.0186 8.09972 12.521 8 12 8C11.4788 8 10.9808 8.09959 10.5242 8.28087C10.2776 8.37879 10.1542 8.42774 10.0661 8.43029C9.97771 8.43285 9.92049 8.42103 9.84033 8.38364C9.76044 8.34638 9.68334 8.26928 9.52913 8.11507L6.70703 5.29297C6.31651 4.90244 5.68349 4.90244 5.29297 5.29297C4.90244 5.68349 4.90244 6.31651 5.29297 6.70703L8.11507 9.52913C8.26928 9.68334 8.34638 9.76044 8.38364 9.84033C8.42103 9.92049 8.43285 9.97771 8.43029 10.0661C8.42774 10.1542 8.37879 10.2776 8.28087 10.5242C8.09959 10.9808 8 11.4788 8 12C8 12.521 8.09972 13.0186 8.28098 13.475C8.37886 13.7215 8.4278 13.8447 8.43036 13.9328C8.43293 14.0212 8.42111 14.0785 8.38374 14.1586C8.3465 14.2385 8.26943 14.3156 8.1153 14.4698L5.29297 17.293C4.90244 17.6835 4.90244 18.3165 5.29297 18.707C5.68349 19.0976 6.31651 19.0976 6.70703 18.707L9.52907 15.8841C9.6833 15.7299 9.76042 15.6527 9.84036 15.6155C9.92054 15.5781 9.97787 15.5662 10.0663 15.5688C10.1545 15.5714 10.2777 15.6204 10.5242 15.7184C10.9808 15.9 11.4787 16 12 16C12.5211 16 13.0186 15.8999 13.475 15.7183C13.7213 15.6203 13.8445 15.5713 13.9327 15.5687C14.0211 15.5661 14.0784 15.578 14.1586 15.6153C14.2385 15.6526 14.3156 15.7297 14.4699 15.8839L17.293 18.707L17.3691 18.7754C17.7619 19.0957 18.3409 19.0731 18.707 18.707C19.0731 18.3409 19.0957 17.7619 18.7754 17.3691L18.707 17.293L15.8839 14.4699C15.7297 14.3156 15.6526 14.2385 15.6153 14.1586C15.578 14.0784 15.5661 14.0211 15.5687 13.9327C15.5713 13.8445 15.6203 13.7213 15.7183 13.475C15.8999 13.0186 16 12.5211 16 12C16 11.4787 15.9 10.9808 15.7184 10.5242C15.6204 10.2777 15.5714 10.1545 15.5688 10.0663C15.5662 9.97787 15.5781 9.92054 15.6155 9.84036C15.6527 9.76042 15.7299 9.6833 15.8841 9.52907L18.707 6.70703C19.0976 6.31651 19.0976 5.68349 18.707 5.29297Z" fill="currentColor" />
</svg>