<svg xmlns="http://www.w3.org/2000/svg" width="24" height="24" viewBox="0 0 24 24" fill="none">
<path d="M14.75 5.98444C14.75 3.18662 14.75 1.78771 14.2269 1.21484C13.7741 0.718983 13.1026 0.483457 12.4393 0.587787C11.6729 0.70832 10.799 1.80069 9.05123 3.98542L4.59876 9.551C3.26729 11.2153 2.60155 12.0475 2.6008 12.7479C2.60014 13.3569 2.87707 13.9331 3.35309 14.3131C3.90044 14.75 4.96615 14.75 7.09755 14.75H7.65001C8.21007 14.75 8.49009 14.75 8.704 14.859C8.89217 14.9549 9.04515 15.1079 9.14102 15.296C9.25001 15.5099 9.25001 15.79 9.25001 16.35V18.0156C9.25001 20.8134 9.25001 22.2123 9.77315 22.7852C10.226 23.2811 10.8974 23.5166 11.5607 23.4123C12.3271 23.2917 13.201 22.1994 14.9488 20.0146L19.4013 14.449C20.7327 12.7847 21.3985 11.9525 21.3992 11.2522C21.3999 10.6431 21.123 10.0669 20.6469 9.68694C20.0996 9.25002 19.0339 9.25002 16.9025 9.25002H16.35C15.79 9.25002 15.5099 9.25002 15.296 9.14103C15.1079 9.04516 14.9549 8.89218 14.859 8.70401C14.75 8.4901 14.75 8.21008 14.75 7.65002V5.98444Z" fill="currentColor" />
</svg>