<svg xmlns="http://www.w3.org/2000/svg" width="24" height="24" viewBox="0 0 24 24" fill="none">
<path d="M2.46979 2.46949C2.74437 2.19502 3.17915 2.17754 3.47369 2.41773L3.53033 2.46949L21.5303 20.4695L21.5821 20.5261C21.8224 20.8207 21.8048 21.2554 21.5303 21.53C21.2557 21.8046 20.821 21.8221 20.5264 21.5818L20.4698 21.53L16.7286 17.7888L14.8594 20.1257C14.2132 20.9335 13.6983 21.5785 13.2715 22.0281C12.8724 22.4486 12.4109 22.8577 11.8497 22.9461C11.1035 23.0634 10.3483 22.7986 9.83893 22.241C9.45586 21.8214 9.35081 21.2132 9.30182 20.6355C9.24946 20.0179 9.25006 19.1925 9.25006 18.158V16.4002C9.25006 15.9679 9.24984 15.6878 9.23248 15.4753C9.21583 15.272 9.18691 15.196 9.16803 15.1589C9.09617 15.0182 8.98165 14.9036 8.84088 14.8318C8.80378 14.8129 8.72787 14.784 8.52448 14.7673C8.31197 14.75 8.03207 14.7498 7.59967 14.7498H6.99323C6.20917 14.7498 5.56914 14.7506 5.07623 14.7058C4.59706 14.6623 4.10349 14.5672 3.71686 14.2586C3.24827 13.8844 2.95116 13.3408 2.88483 12.7517L2.87115 12.4978C2.87175 12.0033 3.10492 11.5582 3.37018 11.157C3.64319 10.7441 4.04434 10.244 4.53424 9.6316L6.32819 7.38844L2.46979 3.53004L2.41803 3.4734C2.17783 3.17882 2.19522 2.74406 2.46979 2.46949ZM12.1505 1.05347C12.8966 0.936141 13.6518 1.20096 14.1612 1.75855C14.5443 2.17808 14.6493 2.78634 14.6983 3.36402C14.7507 3.98166 14.7501 4.80704 14.7501 5.84156V7.59937C14.7501 8.03165 14.7503 8.3117 14.7676 8.52418C14.7843 8.72743 14.8132 8.80346 14.8321 8.84058C14.9039 8.98138 15.0185 9.09588 15.1592 9.16773C15.1963 9.18662 15.2721 9.21554 15.4756 9.23219C15.6882 9.24955 15.968 9.24976 16.4005 9.24976H17.1973C17.9004 9.24976 18.4747 9.24953 18.919 9.2859C19.3501 9.32119 19.7948 9.39801 20.1583 9.64918C20.8119 10.101 21.1795 10.8643 21.1241 11.657C21.0932 12.0976 20.8746 12.4927 20.6329 12.8513C20.3837 13.221 20.0252 13.6696 19.586 14.2185L19.3858 14.4685C19.127 14.7919 18.6545 14.8444 18.3311 14.5857C18.0079 14.3269 17.9553 13.8544 18.2139 13.531L18.4141 13.281C18.87 12.7112 19.1831 12.32 19.3897 12.0134C19.6023 11.6979 19.625 11.5793 19.627 11.5525C19.6454 11.2883 19.5236 11.0332 19.3057 10.8826C19.2839 10.8676 19.1773 10.8122 18.7969 10.781C18.4285 10.7509 17.9272 10.7498 17.1973 10.7498H16.4005C15.9928 10.7498 15.6413 10.7508 15.3536 10.7273C15.0571 10.7031 14.7623 10.6492 14.4786 10.5046C14.0553 10.2889 13.7109 9.94458 13.4952 9.52125C13.3507 9.23758 13.2967 8.94263 13.2725 8.64625C13.249 8.35853 13.2501 8.00694 13.2501 7.59937V5.84156C13.2501 4.77831 13.2498 4.02979 13.2042 3.49097C13.1816 3.22461 13.1502 3.04135 13.1143 2.91676C13.0842 2.81221 13.0578 2.77557 13.0538 2.77027C12.884 2.5845 12.6324 2.49595 12.3839 2.53492C12.3895 2.53396 12.3481 2.53934 12.2452 2.61207C12.1393 2.68692 12.0004 2.80988 11.8165 3.00367C11.4442 3.3959 10.976 3.98079 10.3116 4.81129L10.1856 4.96851L9.78619 5.46851C9.52747 5.79192 9.05495 5.84435 8.73151 5.5857C8.40815 5.32693 8.35559 4.85443 8.61432 4.53101L9.01471 4.03101L9.14069 3.87379C9.78693 3.06598 10.3019 2.421 10.7286 1.97144C11.1277 1.55096 11.5892 1.14177 12.1505 1.05347Z" fill="currentColor" />
</svg>