<svg xmlns="http://www.w3.org/2000/svg" width="24" height="24" viewBox="0 0 24 24" fill="none">
<path d="M14.75 1.25C17.55 1.25 18.95 1.25013 20.0195 1.79492C20.9603 2.27429 21.7257 3.03966 22.2051 3.98047C22.7499 5.04998 22.75 6.45005 22.75 9.25V14.75C22.75 17.55 22.7499 18.95 22.2051 20.0195C21.7257 20.9603 20.9603 21.7257 20.0195 22.2051C18.95 22.7499 17.55 22.75 14.75 22.75H9.25C6.45005 22.75 5.04998 22.7499 3.98047 22.2051C3.03966 21.7257 2.27429 20.9603 1.79492 20.0195C1.25013 18.95 1.25 17.55 1.25 14.75V9.25C1.25 6.45005 1.25013 5.04998 1.79492 3.98047C2.27429 3.03966 3.03966 2.27429 3.98047 1.79492C5.04998 1.25013 6.45005 1.25 9.25 1.25H14.75ZM8.53027 5.46973C8.25567 5.19514 7.82094 5.17766 7.52637 5.41797L7.46973 5.46973L5.46973 7.46973C5.17685 7.76262 5.17685 8.23738 5.46973 8.53027C5.76261 8.82316 6.23738 8.82315 6.53027 8.53027L7.25 7.81055V16.1895L6.53027 15.4697L6.47363 15.418C6.17905 15.1777 5.74433 15.1951 5.46973 15.4697C5.17685 15.7626 5.17685 16.2374 5.46973 16.5303L7.46973 18.5303C7.76261 18.8232 8.23738 18.8232 8.53027 18.5303L10.5303 16.5303C10.8232 16.2374 10.8232 15.7626 10.5303 15.4697C10.2374 15.1768 9.76262 15.1768 9.46973 15.4697L8.75 16.1895V7.81055L9.46973 8.53027L9.52637 8.58203C9.82094 8.82234 10.2557 8.80486 10.5303 8.53027C10.8049 8.25567 10.8223 7.82095 10.582 7.52637L10.5303 7.46973L8.53027 5.46973ZM13 16.25C12.5858 16.25 12.25 16.5858 12.25 17C12.25 17.4142 12.5858 17.75 13 17.75H18L18.0771 17.7461C18.4551 17.7075 18.75 17.3882 18.75 17C18.75 16.5858 18.4142 16.25 18 16.25H13ZM13 11.25C12.5858 11.25 12.25 11.5858 12.25 12C12.25 12.4142 12.5858 12.75 13 12.75H18L18.0771 12.7461C18.4551 12.7075 18.75 12.3882 18.75 12C18.75 11.5858 18.4142 11.25 18 11.25H13ZM13 6.25C12.5858 6.25002 12.25 6.5858 12.25 7C12.25 7.4142 12.5858 7.74998 13 7.75H18C18.4142 7.75 18.75 7.41421 18.75 7C18.75 6.58579 18.4142 6.25 18 6.25H13Z" fill="currentColor" />
</svg>