<svg xmlns="http://www.w3.org/2000/svg" width="24" height="24" viewBox="0 0 24 24" fill="none">
<path d="M14.75 1.25C17.55 1.25 18.95 1.25013 20.0195 1.79492C20.9603 2.27429 21.7257 3.03966 22.2051 3.98047C22.7499 5.04998 22.75 6.45005 22.75 9.25V14.75C22.75 17.55 22.7499 18.95 22.2051 20.0195C21.7257 20.9603 20.9603 21.7257 20.0195 22.2051C18.95 22.7499 17.55 22.75 14.75 22.75H9.25C6.45005 22.75 5.04998 22.7499 3.98047 22.2051C3.03966 21.7257 2.27429 20.9603 1.79492 20.0195C1.25013 18.95 1.25 17.55 1.25 14.75V9.25C1.25 6.45005 1.25013 5.04998 1.79492 3.98047C2.27429 3.03966 3.03966 2.27429 3.98047 1.79492C5.04998 1.25013 6.45005 1.25 9.25 1.25H14.75ZM7 17.25C6.58579 17.25 6.25 17.5858 6.25 18C6.25 18.4142 6.58579 18.75 7 18.75H17C17.4142 18.75 17.75 18.4142 17.75 18C17.75 17.5858 17.4142 17.25 17 17.25H7ZM12 8.25C11.7513 8.25 11.5215 8.37312 11.3828 8.57422L11.3291 8.66504L8.3291 14.665C8.14416 15.0354 8.29469 15.4857 8.66504 15.6709C9.03545 15.8558 9.48572 15.7053 9.6709 15.335L10.5088 13.6592C10.8849 13.8181 11.3831 13.9502 12 13.9502C12.6164 13.9502 13.1142 13.8179 13.4902 13.6592L14.3291 15.335C14.5143 15.7053 14.9646 15.8558 15.335 15.6709C15.6822 15.4973 15.8358 15.0907 15.7012 14.7354L15.6709 14.665L12.6709 8.66504C12.5439 8.41095 12.2841 8.25 12 8.25ZM12.8174 12.3125C12.6147 12.3866 12.3434 12.4502 12 12.4502C11.6561 12.4502 11.3844 12.3867 11.1816 12.3125L12 10.6768L12.8174 12.3125ZM7 5.25C6.58579 5.25 6.25 5.58579 6.25 6C6.25 6.41421 6.58579 6.75 7 6.75H17C17.4142 6.75 17.75 6.41421 17.75 6C17.75 5.58579 17.4142 5.25 17 5.25H7Z" fill="currentColor" />
</svg>