<svg xmlns="http://www.w3.org/2000/svg" width="24" height="24" viewBox="0 0 24 24" fill="none">
<path d="M14.75 1.25C17.55 1.25 18.95 1.25013 20.0195 1.79492C20.9603 2.27429 21.7257 3.03966 22.2051 3.98047C22.7499 5.04998 22.75 6.45005 22.75 9.25V14.75C22.75 17.55 22.7499 18.95 22.2051 20.0195C21.7257 20.9603 20.9603 21.7257 20.0195 22.2051C18.95 22.7499 17.55 22.75 14.75 22.75H9.25C6.45005 22.75 5.04998 22.7499 3.98047 22.2051C3.03966 21.7257 2.27429 20.9603 1.79492 20.0195C1.25013 18.95 1.25 17.55 1.25 14.75V9.25C1.25 6.45005 1.25013 5.04998 1.79492 3.98047C2.27429 3.03966 3.03966 2.27429 3.98047 1.79492C5.04998 1.25013 6.45005 1.25 9.25 1.25H14.75ZM9 7.25C6.37665 7.25 4.25 9.37665 4.25 12C4.25 14.6234 6.37665 16.75 9 16.75H10.25C10.6642 16.75 11 16.4142 11 16C11 15.5858 10.6642 15.25 10.25 15.25H9C7.20507 15.25 5.75 13.7949 5.75 12C5.75 10.2051 7.20507 8.75 9 8.75H10.25C10.6642 8.75 11 8.41421 11 8C11 7.58579 10.6642 7.25 10.25 7.25H9ZM13.75 7.25C13.3358 7.25 13 7.58579 13 8C13 8.41421 13.3358 8.75 13.75 8.75H15C16.7949 8.75 18.25 10.2051 18.25 12C18.25 13.7949 16.7949 15.25 15 15.25H13.75C13.3358 15.25 13 15.5858 13 16C13 16.4142 13.3358 16.75 13.75 16.75H15C17.6234 16.75 19.75 14.6234 19.75 12C19.75 9.37665 17.6234 7.25 15 7.25H13.75ZM10 11.25C9.58579 11.25 9.25 11.5858 9.25 12C9.25 12.4142 9.58579 12.75 10 12.75H14C14.4142 12.75 14.75 12.4142 14.75 12C14.75 11.5858 14.4142 11.25 14 11.25H10Z" fill="currentColor" />
</svg>