<svg xmlns="http://www.w3.org/2000/svg" width="24" height="24" viewBox="0 0 24 24" fill="none">
<path d="M14.75 1.25C17.55 1.25 18.95 1.25013 20.0195 1.79492C20.9603 2.27429 21.7257 3.03966 22.2051 3.98047C22.7499 5.04998 22.75 6.45005 22.75 9.25V14.75C22.75 17.55 22.7499 18.95 22.2051 20.0195C21.7257 20.9603 20.9603 21.7257 20.0195 22.2051C18.95 22.7499 17.55 22.75 14.75 22.75H9.25C6.45005 22.75 5.04998 22.7499 3.98047 22.2051C3.03966 21.7257 2.27429 20.9603 1.79492 20.0195C1.25013 18.95 1.25 17.55 1.25 14.75V9.25C1.25 6.45005 1.25013 5.04998 1.79492 3.98047C2.27429 3.03966 3.03966 2.27429 3.98047 1.79492C5.04998 1.25013 6.45005 1.25 9.25 1.25H14.75ZM13.0234 10.4121C11.5211 8.86224 9.07462 8.86226 7.57227 10.4121L6.44238 11.5781C4.85239 13.2187 4.85232 15.8692 6.44238 17.5098C8.04537 19.1635 10.6548 19.1635 12.2578 17.5098L12.7314 17.0205C13.0195 16.7231 13.0122 16.2482 12.7148 15.96C12.4175 15.672 11.9425 15.6794 11.6543 15.9766L11.1807 16.4658C10.167 17.5115 8.53318 17.5115 7.51953 16.4658C6.49329 15.407 6.49336 13.6809 7.51953 12.6221L8.64941 11.4561C9.56244 10.5143 11.0333 10.5142 11.9463 11.4561L12.1279 11.6445C12.4162 11.9419 12.891 11.9492 13.1885 11.6611C13.4859 11.3728 13.4933 10.898 13.2051 10.6006L13.0234 10.4121ZM17.5576 6.49023C15.9546 4.83653 13.3452 4.83653 11.7422 6.49023L11.2686 6.97949L11.8076 7.50098L12.3457 8.02344L12.8193 7.53418C13.833 6.48846 15.4668 6.48848 16.4805 7.53418C17.5068 8.59298 17.5067 10.3191 16.4805 11.3779L15.3506 12.5439C14.4377 13.4855 12.9677 13.4854 12.0547 12.5439L11.8721 12.3555L11.334 12.8779L10.7949 13.3994L10.9775 13.5879C12.4799 15.1374 14.9255 15.1376 16.4277 13.5879L17.5576 12.4219C19.1477 10.7813 19.1478 8.13079 17.5576 6.49023ZM11.8721 12.3555C11.5838 12.0581 11.1089 12.0507 10.8115 12.3389C10.5141 12.6271 10.5067 13.102 10.7949 13.3994L11.8721 12.3555ZM11.2686 6.97949C10.9806 7.27693 10.9878 7.75185 11.2852 8.04004C11.5825 8.32809 12.0574 8.32056 12.3457 8.02344L11.2686 6.97949Z" fill="currentColor" />
</svg>