<svg xmlns="http://www.w3.org/2000/svg" width="24" height="24" viewBox="0 0 24 24" fill="none">
<path d="M9.5 2L9 2C7.13872 2 6.20808 2 5.45492 2.24472C3.93273 2.73931 2.73931 3.93273 2.24472 5.45492C2 6.20808 2 7.13872 2 9L2 14C2 16.8003 2 18.2004 2.54497 19.27C3.02434 20.2108 3.78924 20.9757 4.73005 21.455C5.79961 22 7.19974 22 10 22H14C16.8003 22 18.2004 22 19.27 21.455C20.2108 20.9757 20.9757 20.2108 21.455 19.27C22 18.2004 22 16.8003 22 14V9C22 7.13872 22 6.20808 21.7553 5.45492C21.2607 3.93273 20.0673 2.73931 18.5451 2.24472C17.7919 2 16.8613 2 15 2L14.5 2M12.1929 16.4989L11.7191 16.9877C10.4108 18.3374 8.28956 18.3374 6.98124 16.9877C5.67292 15.638 5.67292 13.4497 6.98124 12.1L8.11104 10.9344C9.31872 9.68853 11.2768 9.68853 12.4844 10.9344L12.6667 11.1224M11.8073 7.50106L12.2811 7.01229C13.5894 5.66257 15.7106 5.66257 17.0189 7.01229C18.3272 8.362 18.3272 10.5503 17.0189 11.9L15.8891 13.0656C14.6814 14.3115 12.7234 14.3115 11.5157 13.0656L11.3335 12.8776" stroke="currentColor" stroke-width={1.5} stroke-linecap="round" stroke-linejoin="round" />
</svg>