<svg xmlns="http://www.w3.org/2000/svg" width="24" height="24" viewBox="0 0 24 24" fill="none">
<path d="M13.9502 1.25C17.0304 1.25 18.5706 1.25016 19.7471 1.84961C20.7818 2.37689 21.6231 3.21816 22.1504 4.25293C22.7498 5.42942 22.75 6.96965 22.75 10.0498V13.9502C22.75 17.0304 22.7498 18.5706 22.1504 19.7471C21.6231 20.7818 20.7818 21.6231 19.7471 22.1504C18.5706 22.7498 17.0304 22.75 13.9502 22.75H10.0498C6.96965 22.75 5.42942 22.7498 4.25293 22.1504C3.21816 21.6231 2.37689 20.7818 1.84961 19.7471C1.25016 18.5706 1.25 17.0304 1.25 13.9502V10.0498C1.25 6.96965 1.25016 5.42942 1.84961 4.25293C2.37689 3.21816 3.21816 2.37689 4.25293 1.84961C5.42942 1.25016 6.96965 1.25 10.0498 1.25H13.9502ZM7.5 10.25C7.08579 10.25 6.75 10.5858 6.75 11V18C6.75 18.4142 7.08579 18.75 7.5 18.75C7.91421 18.75 8.25 18.4142 8.25 18V11C8.25 10.5858 7.91421 10.25 7.5 10.25ZM14.5 10.25C12.4289 10.25 10.75 11.9289 10.75 14V18C10.75 18.4142 11.0858 18.75 11.5 18.75C11.9142 18.75 12.25 18.4142 12.25 18V14C12.25 12.7574 13.2574 11.75 14.5 11.75C15.7426 11.75 16.75 12.7574 16.75 14V18C16.75 18.4142 17.0858 18.75 17.5 18.75C17.9142 18.75 18.25 18.4142 18.25 18V14C18.25 11.9289 16.5711 10.25 14.5 10.25ZM7.5 6.25C6.80964 6.25 6.25 6.80964 6.25 7.5C6.25 8.19036 6.80964 8.75 7.5 8.75C8.19036 8.75 8.75 8.19036 8.75 7.5C8.75 6.80964 8.19036 6.25 7.5 6.25Z" fill="currentColor" />
</svg>