<svg xmlns="http://www.w3.org/2000/svg" width="24" height="24" viewBox="0 0 24 24" fill="none">
<path d="M14.75 1.25C17.55 1.25 18.95 1.25014 20.0195 1.79493C20.9603 2.27429 21.7257 3.03966 22.2051 3.98047C22.7499 5.04999 22.75 6.45005 22.75 9.25L22.75 14.75C22.75 17.55 22.7499 18.95 22.2051 20.0195C21.7257 20.9603 20.9603 21.7257 20.0195 22.2051C18.95 22.7499 17.5499 22.75 14.75 22.75L9.25 22.75C6.45004 22.75 5.04998 22.7499 3.98047 22.2051C3.03965 21.7257 2.27429 20.9603 1.79492 20.0195C1.25013 18.95 1.25 17.55 1.25 14.75L1.25 9.25C1.25 6.45005 1.25013 5.04998 1.79492 3.98047C2.27429 3.03966 3.03966 2.27429 3.98047 1.79492C5.04998 1.25013 6.45005 1.25 9.25 1.25L14.75 1.25ZM6 12.25C5.58593 12.2501 5.25005 12.5859 5.25 13C5.25 13.4141 5.58591 13.7499 6 13.75L7.25 13.75L7.25 14.25L6 14.25C5.58586 14.2501 5.25005 14.5859 5.25 15L5.25 17C5.25 17.4142 5.58583 17.7499 6 17.75L8 17.75C8.41421 17.75 8.75 17.4142 8.75 17C8.74995 16.5858 8.41418 16.25 8 16.25L6.75 16.25L6.75 15.75L8 15.75C8.41411 15.7499 8.74996 15.4141 8.75 15L8.75 13C8.74997 12.8011 8.67089 12.6104 8.53027 12.4697C8.38963 12.3291 8.19887 12.25 8 12.25L6 12.25ZM11 16.25C10.5859 16.2501 10.25 16.5859 10.25 17C10.25 17.4142 10.5858 17.7499 11 17.75L18 17.75L18.0771 17.7461C18.4551 17.7075 18.75 17.3882 18.75 17C18.7499 16.5858 18.4142 16.25 18 16.25L11 16.25ZM11 11.25C10.5859 11.2501 10.25 11.5859 10.25 12C10.25 12.4142 10.5858 12.7499 11 12.75L18 12.75C18.4142 12.75 18.75 12.4142 18.75 12C18.75 11.5858 18.4142 11.25 18 11.25L11 11.25ZM7.32519 5.32422C7.06537 5.19939 6.75635 5.234 6.53125 5.41406L5.53125 6.21387C5.20787 6.47257 5.15548 6.94511 5.41406 7.26856C5.61914 7.52492 5.95714 7.60707 6.25 7.50293L6.25 9.25L6 9.25C5.58586 9.25006 5.25005 9.58586 5.25 10C5.25 10.4142 5.58583 10.7499 6 10.75L8 10.75L8.07715 10.7461C8.45511 10.7075 8.74997 10.3881 8.75 10C8.74994 9.61156 8.45456 9.29208 8.07617 9.25391L8 9.25L7.75 9.25L7.75 6C7.74997 5.71185 7.58483 5.44916 7.32519 5.32422ZM11 6.25C10.5859 6.25006 10.25 6.58586 10.25 7C10.25 7.41418 10.5858 7.74995 11 7.75L18 7.75C18.4142 7.75 18.75 7.41422 18.75 7C18.75 6.58583 18.4142 6.25 18 6.25L11 6.25Z" fill="currentColor" />
</svg>