<svg xmlns="http://www.w3.org/2000/svg" width="24" height="24" viewBox="0 0 24 24" fill="none">
<path d="M22 9.5V9C22 7.13872 22 6.20808 21.7553 5.45492C21.2607 3.93273 20.0673 2.73931 18.5451 2.24472C17.7919 2 16.8613 2 15 2H10C7.19974 2 5.79961 2 4.73005 2.54497C3.78924 3.02433 3.02433 3.78924 2.54497 4.73005C2 5.79961 2 7.19974 2 10V14C2 16.8003 2 18.2004 2.54497 19.27C3.02433 20.2108 3.78924 20.9757 4.73005 21.455C5.79961 22 7.19974 22 10 22H15C16.8613 22 17.7919 22 18.5451 21.7553C20.0673 21.2607 21.2607 20.0673 21.7553 18.5451C22 17.7919 22 16.8613 22 15V14.5M10 17L18 17M10 12L18 12M10 7H18M7 7C7 7.27614 6.77614 7.5 6.5 7.5C6.22386 7.5 6 7.27614 6 7M7 7C7 6.72386 6.77614 6.5 6.5 6.5C6.22386 6.5 6 6.72386 6 7M7 7H6M7 12C7 12.2761 6.77614 12.5 6.5 12.5C6.22386 12.5 6 12.2761 6 12M7 12C7 11.7239 6.77614 11.5 6.5 11.5C6.22386 11.5 6 11.7239 6 12M7 12H6M7 17C7 17.2761 6.77614 17.5 6.5 17.5C6.22386 17.5 6 17.2761 6 17M7 17C7 16.7239 6.77614 16.5 6.5 16.5C6.22386 16.5 6 16.7239 6 17M7 17H6" stroke="currentColor" stroke-width={1.5} stroke-linecap="round" stroke-linejoin="round" />
</svg>