<svg xmlns="http://www.w3.org/2000/svg" width="24" height="24" viewBox="0 0 24 24" fill="none">
<path d="M14.75 1.25C17.55 1.25 18.95 1.25014 20.0195 1.79493C20.9603 2.27429 21.7257 3.03966 22.2051 3.98047C22.7499 5.04999 22.75 6.45005 22.75 9.25L22.75 14.75C22.75 17.55 22.7499 18.95 22.2051 20.0195C21.7257 20.9603 20.9603 21.7257 20.0195 22.2051C18.95 22.7499 17.5499 22.75 14.75 22.75L9.25 22.75C6.45004 22.75 5.04998 22.7499 3.98047 22.2051C3.03965 21.7257 2.27429 20.9603 1.79492 20.0195C1.25013 18.95 1.25 17.55 1.25 14.75L1.25 9.25C1.25 6.45005 1.25013 5.04998 1.79492 3.98047C2.27429 3.03966 3.03966 2.27429 3.98047 1.79492C5.04998 1.25013 6.45005 1.25 9.25 1.25L14.75 1.25ZM8.53027 15.4697C8.23738 15.177 7.76258 15.1769 7.46972 15.4697L7 15.9395L6.53027 15.4697L6.47363 15.418C6.17906 15.1778 5.74429 15.1952 5.46972 15.4697C5.17687 15.7626 5.17694 16.2374 5.46972 16.5303L5.93945 17L5.46972 17.4697C5.17687 17.7626 5.17694 18.2374 5.46972 18.5303C5.76262 18.8232 6.23738 18.8232 6.53027 18.5303L7 18.0605L7.46972 18.5303L7.52636 18.582C7.82095 18.8223 8.25567 18.8049 8.53027 18.5303C8.80484 18.2557 8.82233 17.8209 8.58203 17.5264L8.53027 17.4697L8.06054 17L8.53027 16.5303C8.82313 16.2374 8.82315 15.7626 8.53027 15.4697ZM11 16.25C10.5859 16.25 10.2501 16.5859 10.25 17C10.25 17.4142 10.5858 17.75 11 17.75L18 17.75C18.4142 17.75 18.75 17.4142 18.75 17C18.7499 16.5859 18.4142 16.25 18 16.25L11 16.25ZM8.53027 10.4697C8.23738 10.177 7.76258 10.1769 7.46972 10.4697L7 10.9395L6.53027 10.4697L6.47363 10.418C6.17907 10.1778 5.74429 10.1952 5.46972 10.4697C5.17687 10.7626 5.17694 11.2374 5.46972 11.5303L5.93945 12L5.46972 12.4697C5.17687 12.7626 5.17694 13.2374 5.46972 13.5303C5.76262 13.8232 6.23738 13.8232 6.53027 13.5303L7 13.0605L7.46972 13.5303L7.52637 13.582C7.82095 13.8223 8.25567 13.8049 8.53027 13.5303C8.80484 13.2557 8.82233 12.8209 8.58203 12.5264L8.53027 12.4697L8.06054 12L8.53027 11.5303C8.82313 11.2374 8.82315 10.7626 8.53027 10.4697ZM11 11.25C10.5859 11.25 10.2501 11.5859 10.25 12C10.25 12.4142 10.5858 12.75 11 12.75L18 12.75L18.0771 12.7461C18.4551 12.7075 18.75 12.3882 18.75 12C18.7499 11.5859 18.4142 11.25 18 11.25L11 11.25ZM8.53027 5.46973C8.23738 5.17696 7.76258 5.17691 7.46973 5.46973L7 5.93945L6.53027 5.46973C6.23738 5.17696 5.76258 5.17691 5.46973 5.46973C5.17687 5.76258 5.17695 6.23737 5.46973 6.53027L5.93945 7L5.46973 7.46973C5.17687 7.76258 5.17695 8.23737 5.46973 8.53027C5.76262 8.82317 6.23738 8.82317 6.53027 8.53027L7 8.06055L7.46973 8.53027L7.52637 8.58203C7.82095 8.82234 8.25567 8.80488 8.53027 8.53027C8.80484 8.25567 8.82233 7.82094 8.58203 7.52637L8.53027 7.46973L8.06055 7L8.53027 6.53027C8.82313 6.23738 8.82315 5.76261 8.53027 5.46973ZM11 6.25C10.5859 6.25004 10.2501 6.58588 10.25 7C10.25 7.41419 10.5858 7.74996 11 7.75L18 7.75L18.0771 7.7461C18.4551 7.70748 18.75 7.38817 18.75 7C18.7499 6.6119 18.4551 6.29253 18.0771 6.25391L18 6.25L11 6.25Z" fill="currentColor" />
</svg>