<svg xmlns="http://www.w3.org/2000/svg" width="24" height="24" viewBox="0 0 24 24" fill="none">
<path d="M3.5 5.50012L5 4.00012M5 4.00012L6.5 2.50012M5 4.00012L3.5 2.50012M5 4.00012L6.5 5.50012M3.5 13.5001L5 12.0001M5 12.0001L6.5 10.5001M5 12.0001L3.5 10.5001M5 12.0001L6.5 13.5001M3.5 21.5001L5 20.0001M5 20.0001L6.5 18.5001M5 20.0001L3.5 18.5001M5 20.0001L6.5 21.5001M16 20.0001H11M22 20.0001H20M17 12.0001H22H11H13M16 4.00012H11M22 4.00012H20" stroke="currentColor" stroke-width={1.5} stroke-linecap="round" stroke-linejoin="round" />
</svg>