<svg xmlns="http://www.w3.org/2000/svg" width="24" height="24" viewBox="0 0 24 24" fill="none">
<path d="M11 20L22 20M11 12L22 12M11 4.00003H22M6 4.00003C6 5.1046 5.10457 6.00003 4 6.00003C2.89543 6.00003 2 5.1046 2 4.00003C2 2.89546 2.89543 2.00003 4 2.00003C5.10457 2.00003 6 2.89546 6 4.00003ZM6 12C6 13.1046 5.10457 14 4 14C2.89543 14 2 13.1046 2 12C2 10.8955 2.89543 10 4 10C5.10457 10 6 10.8955 6 12ZM6 20C6 21.1046 5.10457 22 4 22C2.89543 22 2 21.1046 2 20C2 18.8955 2.89543 18 4 18C5.10457 18 6 18.8955 6 20Z" stroke="currentColor" stroke-width={1.5} stroke-linecap="round" stroke-linejoin="round" />
</svg>