<svg xmlns="http://www.w3.org/2000/svg" width="24" height="24" viewBox="0 0 24 24" fill="none">
<path d="M14.75 1.25C17.55 1.25 18.95 1.25014 20.0195 1.79493C20.9603 2.27429 21.7257 3.03966 22.2051 3.98047C22.7499 5.04999 22.75 6.45005 22.75 9.25L22.75 14.75C22.75 17.55 22.7499 18.95 22.2051 20.0195C21.7257 20.9603 20.9603 21.7257 20.0195 22.2051C18.95 22.7499 17.5499 22.75 14.75 22.75L9.25 22.75C6.45004 22.75 5.04998 22.7499 3.98047 22.2051C3.03965 21.7257 2.27429 20.9603 1.79492 20.0195C1.25013 18.95 1.25 17.55 1.25 14.75L1.25 9.25C1.25 6.45005 1.25013 5.04998 1.79492 3.98047C2.27429 3.03966 3.03966 2.27429 3.98047 1.79492C5.04998 1.25013 6.45005 1.25 9.25 1.25L14.75 1.25ZM6 15.75C5.58579 15.75 5.25 16.0858 5.25 16.5L5.25 17.5C5.25 17.9142 5.58579 18.25 6 18.25L7 18.25C7.41421 18.25 7.75 17.9142 7.75 17.5L7.75 16.5C7.75 16.1118 7.45512 15.7925 7.07715 15.7539L7 15.75L6 15.75ZM10 16.25C9.58579 16.25 9.25 16.5858 9.25 17C9.25 17.4142 9.58579 17.75 10 17.75L18 17.75L18.0771 17.7461C18.4551 17.7075 18.75 17.3882 18.75 17C18.75 16.5858 18.4142 16.25 18 16.25L10 16.25ZM6 10.75C5.58579 10.75 5.25 11.0858 5.25 11.5L5.25 12.5C5.25 12.9142 5.58579 13.25 6 13.25L7 13.25C7.41421 13.25 7.75 12.9142 7.75 12.5L7.75 11.5C7.75 11.1118 7.45512 10.7925 7.07715 10.7539L7 10.75L6 10.75ZM10 11.25C9.58579 11.25 9.25 11.5858 9.25 12C9.25 12.4142 9.58579 12.75 10 12.75L18 12.75L18.0771 12.7461C18.4551 12.7075 18.75 12.3882 18.75 12C18.75 11.5858 18.4142 11.25 18 11.25L10 11.25ZM6 5.75C5.58579 5.75 5.25 6.08579 5.25 6.5L5.25 7.5C5.25 7.91421 5.58579 8.25 6 8.25L7 8.25C7.38816 8.25 7.70747 7.95512 7.74609 7.57715L7.75 7.5L7.75 6.5C7.75 6.11183 7.45512 5.79253 7.07715 5.75391L7 5.75L6 5.75ZM10 6.25C9.58579 6.25 9.25 6.58579 9.25 7C9.25 7.41421 9.58579 7.75 10 7.75L18 7.75C18.4142 7.75 18.75 7.41422 18.75 7C18.75 6.58579 18.4142 6.25 18 6.25L10 6.25Z" fill="currentColor" />
</svg>