<svg xmlns="http://www.w3.org/2000/svg" width="24" height="24" viewBox="0 0 24 24" fill="none">
<path d="M9 20.0002H15M19 20.0002H22M16 12H22H9H12M9 4.00018H15M22 4.00018H19M3.5 4.00018C3.5 4.27633 3.27614 4.50018 3 4.50018C2.72386 4.50018 2.5 4.27633 2.5 4.00018M3.5 4.00018C3.5 3.72404 3.27614 3.50018 3 3.50018C2.72386 3.50018 2.5 3.72404 2.5 4.00018M3.5 4.00018H2.5M3.5 12.0002C3.5 12.2763 3.27614 12.5002 3 12.5002C2.72386 12.5002 2.5 12.2763 2.5 12.0002M3.5 12.0002C3.5 11.724 3.27614 11.5002 3 11.5002C2.72386 11.5002 2.5 11.724 2.5 12.0002M3.5 12.0002H2.5M3.5 20.0002C3.5 20.2763 3.27614 20.5002 3 20.5002C2.72386 20.5002 2.5 20.2763 2.5 20.0002M3.5 20.0002C3.5 19.724 3.27614 19.5002 3 19.5002C2.72386 19.5002 2.5 19.724 2.5 20.0002M3.5 20.0002H2.5" stroke="currentColor" stroke-width={1.5} stroke-linecap="round" stroke-linejoin="round" />
</svg>