<svg xmlns="http://www.w3.org/2000/svg" width="24" height="24" viewBox="0 0 24 24" fill="none">
<path d="M11 20.0001L22 20.0001M11 12.0001L22 12.0001M11 4.00009H22M3.6 22.0001H4.4C4.96005 22.0001 5.24008 22.0001 5.45399 21.8911C5.64215 21.7952 5.79513 21.6422 5.89101 21.4541C6 21.2402 6 20.9601 6 20.4001V19.6001C6 19.04 6 18.76 5.89101 18.5461C5.79513 18.3579 5.64215 18.205 5.45399 18.1091C5.24008 18.0001 4.96005 18.0001 4.4 18.0001H3.6C3.03995 18.0001 2.75992 18.0001 2.54601 18.1091C2.35785 18.205 2.20487 18.3579 2.10899 18.5461C2 18.76 2 19.04 2 19.6001V20.4001C2 20.9601 2 21.2402 2.10899 21.4541C2.20487 21.6422 2.35785 21.7952 2.54601 21.8911C2.75992 22.0001 3.03995 22.0001 3.6 22.0001ZM3.6 14.0001H4.4C4.96005 14.0001 5.24008 14.0001 5.45399 13.8911C5.64215 13.7952 5.79513 13.6422 5.89101 13.4541C6 13.2402 6 12.9601 6 12.4001V11.6001C6 11.04 6 10.76 5.89101 10.5461C5.79513 10.3579 5.64215 10.205 5.45399 10.1091C5.24008 10.0001 4.96005 10.0001 4.4 10.0001H3.6C3.03995 10.0001 2.75992 10.0001 2.54601 10.1091C2.35785 10.205 2.20487 10.3579 2.10899 10.5461C2 10.76 2 11.04 2 11.6001V12.4001C2 12.9601 2 13.2402 2.10899 13.4541C2.20487 13.6422 2.35785 13.7952 2.54601 13.8911C2.75992 14.0001 3.03995 14.0001 3.6 14.0001ZM3.6 6.00009H4.4C4.96005 6.00009 5.24008 6.00009 5.45399 5.8911C5.64215 5.79522 5.79513 5.64224 5.89101 5.45408C6 5.24017 6 4.96014 6 4.40009V3.60009C6 3.04004 6 2.76001 5.89101 2.5461C5.79513 2.35794 5.64215 2.20496 5.45399 2.10909C5.24008 2.00009 4.96005 2.00009 4.4 2.00009H3.6C3.03995 2.00009 2.75992 2.00009 2.54601 2.10909C2.35785 2.20496 2.20487 2.35794 2.10899 2.5461C2 2.76001 2 3.04004 2 3.60009V4.40009C2 4.96014 2 5.24017 2.10899 5.45408C2.20487 5.64224 2.35785 5.79522 2.54601 5.8911C2.75992 6.00009 3.03995 6.00009 3.6 6.00009Z" stroke="currentColor" stroke-width={1.5} stroke-linecap="round" stroke-linejoin="round" />
</svg>