<svg xmlns="http://www.w3.org/2000/svg" width="24" height="24" viewBox="0 0 24 24" fill="none">
<path d="M16 20H11M22 20H20M17 12H22H11H13M16 4.00004H11M22 4.00004H20M4 10.0001H3.6C3.03995 10.0001 2.75992 10.0001 2.54601 10.1091C2.35785 10.2049 2.20487 10.3579 2.10899 10.5461C2 10.76 2 11.04 2 11.6001V12.4001C2 12.9601 2 13.2401 2.10899 13.4541C2.20487 13.6422 2.35785 13.7952 2.54601 13.8911C2.75992 14.0001 3.03995 14.0001 3.6 14.0001H4.4C4.96005 14.0001 5.24008 14.0001 5.45399 13.8911C5.64215 13.7952 5.79513 13.6422 5.89101 13.4541C6 13.2401 6 12.9601 6 12.4001V12.0001M4.4 18.0001H3.6C3.03995 18.0001 2.75992 18.0001 2.54601 18.1091C2.35785 18.2049 2.20487 18.3579 2.10899 18.5461C2 18.76 2 19.04 2 19.6001V20.4001C2 20.9601 2 21.2401 2.10899 21.4541C2.20487 21.6422 2.35785 21.7952 2.54601 21.8911C2.75992 22.0001 3.03995 22.0001 3.6 22.0001H4.4C4.96005 22.0001 5.24008 22.0001 5.45399 21.8911C5.64215 21.7952 5.79513 21.6422 5.89101 21.4541C6 21.2401 6 20.9601 6 20.4001V19.6001C6 19.04 6 18.76 5.89101 18.5461C5.79513 18.3579 5.64215 18.2049 5.45399 18.1091C5.24008 18.0001 4.96005 18.0001 4.4 18.0001ZM3.6 6.00006H4.4C4.96005 6.00006 5.24008 6.00006 5.45399 5.89107C5.64215 5.79519 5.79513 5.64221 5.89101 5.45405C6 5.24014 6 4.96011 6 4.40006V3.60006C6 3.04001 6 2.75998 5.89101 2.54607C5.79513 2.35791 5.64215 2.20493 5.45399 2.10905C5.24008 2.00006 4.96005 2.00006 4.4 2.00006H3.6C3.03995 2.00006 2.75992 2.00006 2.54601 2.10905C2.35785 2.20493 2.20487 2.35791 2.10899 2.54607C2 2.75998 2 3.04001 2 3.60006V4.40006C2 4.96011 2 5.24014 2.10899 5.45405C2.20487 5.64221 2.35785 5.79519 2.54601 5.89107C2.75992 6.00006 3.03995 6.00006 3.6 6.00006Z" stroke="currentColor" stroke-width={1.5} stroke-linecap="round" stroke-linejoin="round" />
</svg>