<svg xmlns="http://www.w3.org/2000/svg" width="24" height="24" viewBox="0 0 24 24" fill="none">
<path d="M9 17.25C10.5188 17.25 11.75 18.4812 11.75 20C11.75 21.5188 10.5188 22.75 9 22.75C7.48122 22.75 6.25 21.5188 6.25 20C6.25 18.4812 7.48122 17.25 9 17.25ZM19 17.25C20.5188 17.25 21.75 18.4812 21.75 20C21.75 21.5188 20.5188 22.75 19 22.75C17.4812 22.75 16.25 21.5188 16.25 20C16.25 18.4812 17.4812 17.25 19 17.25ZM1.68066 0.00390625C3.53344 0.0892667 5.07906 1.48116 5.34375 3.33398L6.40137 10.7373C6.5079 11.483 6.57995 11.987 6.66602 12.375C6.74937 12.7508 6.83141 12.9437 6.91895 13.0801C7.12616 13.403 7.42157 13.6599 7.77051 13.8193C7.91793 13.8867 8.12111 13.9394 8.50488 13.9688C8.77683 13.9895 9.10186 13.9947 9.52246 13.9971C9.24969 13.369 9.25 12.5317 9.25 10.9502V9.0498C9.25 7.36978 9.25018 6.52941 9.57715 5.8877C9.86472 5.32347 10.3235 4.86472 10.8877 4.57715C11.5294 4.25018 12.3698 4.25 14.0498 4.25H15.9502C17.6302 4.25 18.4706 4.25018 19.1123 4.57715C19.6765 4.86472 20.1353 5.32347 20.4229 5.8877C20.7498 6.52941 20.75 7.36978 20.75 9.0498V10.9502C20.75 12.5344 20.7497 13.3716 20.4756 14H22L22.1025 14.0049C22.6067 14.0562 23 14.4823 23 15C23 15.5177 22.6067 15.9438 22.1025 15.9951L22 16H10.1631C9.44028 16 8.84181 16.0004 8.35156 15.9629C7.84895 15.9244 7.38589 15.8417 6.93945 15.6377C6.24157 15.3188 5.64978 14.8059 5.23535 14.1602C4.97031 13.7471 4.82303 13.2997 4.71387 12.8076C4.60744 12.3277 4.52308 11.7358 4.4209 11.0205L3.36328 3.61621C3.239 2.74682 2.53347 2.0869 1.67383 2.00781L1.5 2H1C0.447771 2 6.74126e-05 1.55224 0 1C3.15372e-05 0.447799 0.447776 6.74101e-05 1 0H1.5L1.68066 0.00390625Z" fill="currentColor" />
</svg>