<svg xmlns="http://www.w3.org/2000/svg" width="24" height="24" viewBox="0 0 24 24" fill="none">
<path d="M13.1504 1.25C16.5103 1.25 18.1902 1.25042 19.4736 1.9043C20.6026 2.47954 21.5205 3.39739 22.0957 4.52637C22.7496 5.80977 22.75 7.48965 22.75 10.8496V13.1504C22.75 16.5103 22.7496 18.1902 22.0957 19.4736C21.5205 20.6026 20.6026 21.5205 19.4736 22.0957C18.1902 22.7496 16.5103 22.75 13.1504 22.75H10.8496C7.48965 22.75 5.80977 22.7496 4.52637 22.0957C3.39739 21.5205 2.47954 20.6026 1.9043 19.4736C1.25042 18.1902 1.25 16.5103 1.25 13.1504V10.8496C1.25 7.48965 1.25042 5.80977 1.9043 4.52637C2.47954 3.39739 3.39739 2.47954 4.52637 1.9043C5.80977 1.25042 7.48965 1.25 10.8496 1.25H13.1504ZM12 15.2168C11.5705 15.2168 11.2227 15.5647 11.2227 15.9941V18C11.2227 18.4294 11.5706 18.7773 12 18.7773C12.4294 18.7773 12.7773 18.4294 12.7773 18V15.9941C12.7773 15.5647 12.4294 15.2169 12 15.2168ZM9.83398 14.166C9.53033 13.8624 9.03806 13.8624 8.73438 14.166L7.4502 15.4502C7.14654 15.7539 7.14653 16.2461 7.4502 16.5498C7.75387 16.8534 8.24613 16.8534 8.5498 16.5498L9.83398 15.2656C10.1376 14.9619 10.1376 14.4697 9.83398 14.166ZM15.2656 14.166C14.9619 13.8625 14.4696 13.8624 14.166 14.166C13.8624 14.4696 13.8625 14.9619 14.166 15.2656L15.4502 16.5498C15.7539 16.8535 16.2461 16.8534 16.5498 16.5498C16.8535 16.2461 16.8535 15.7539 16.5498 15.4502L15.2656 14.166ZM6 11.2227C5.57054 11.2227 5.22266 11.5705 5.22266 12C5.22269 12.4294 5.57056 12.7773 6 12.7773H8.00586C8.4353 12.7773 8.78316 12.4294 8.7832 12C8.7832 11.5705 8.43532 11.2227 8.00586 11.2227H6ZM15.9941 11.2227C15.5647 11.2227 15.2158 11.5705 15.2158 12C15.2159 12.4294 15.5647 12.7773 15.9941 12.7773H18C18.4294 12.7773 18.7773 12.4294 18.7773 12C18.7773 11.5706 18.4294 11.2227 18 11.2227H15.9941ZM8.49121 7.39648C8.18578 7.14725 7.73494 7.16545 7.4502 7.4502C7.16548 7.73494 7.14725 8.18579 7.39648 8.49121L7.4502 8.5498L8.73438 9.83398L8.79297 9.8877C9.09838 10.1369 9.54926 10.1187 9.83398 9.83398C10.1187 9.54926 10.1369 9.0984 9.8877 8.79297L9.83398 8.73438L8.5498 7.4502L8.49121 7.39648ZM16.5498 7.4502C16.2461 7.14652 15.7539 7.14652 15.4502 7.4502L14.166 8.73438C13.8624 9.03806 13.8624 9.53032 14.166 9.83398C14.4697 10.1376 14.962 10.1376 15.2656 9.83398L16.5498 8.5498C16.8535 8.24614 16.8535 7.75387 16.5498 7.4502ZM12 5.22266C11.5705 5.22266 11.2227 5.57054 11.2227 6V8.00586C11.2227 8.43532 11.5705 8.7832 12 8.7832C12.4294 8.78314 12.7773 8.43528 12.7773 8.00586V6C12.7773 5.57058 12.4294 5.22272 12 5.22266Z" fill="currentColor" />
</svg>