<svg xmlns="http://www.w3.org/2000/svg" width="24" height="24" viewBox="0 0 24 24" fill="none">
<path opacity={0.32} fill-rule="evenodd" clip-rule="evenodd" d="M3.05052 9.36098C3.39707 8.84233 3.84239 8.39701 4.36104 8.05046C4.92251 7.6753 5.56167 7.47992 6.31651 7.3759L20.3283 21.3889C20.117 21.5964 19.8863 21.7841 19.639 21.9494C18.9907 22.3825 18.2497 22.5715 17.3621 22.6618C16.4957 22.75 15.4108 22.75 14.0416 22.7499H9.9584C8.5892 22.75 7.5043 22.75 6.63794 22.6618C5.7503 22.5715 5.00926 22.3825 4.36104 21.9494C3.84239 21.6029 3.39707 21.1576 3.05052 20.6389C2.61739 19.9907 2.42841 19.2496 2.33812 18.362C2.24998 17.4956 2.24999 16.4107 2.25 15.0415V14.9583C2.24999 13.5891 2.24998 12.5042 2.33812 11.6379C2.42841 10.7502 2.61739 10.0092 3.05052 9.36098Z" fill="currentColor" /><path d="M3.46967 3.46973C3.74427 3.19512 4.17899 3.17766 4.47358 3.41797L4.53022 3.46973L22.5302 21.4697L22.582 21.5264C22.8223 21.8209 22.8048 22.2557 22.5302 22.5303C22.2556 22.8049 21.8209 22.8223 21.5263 22.582L21.4697 22.5303L12.7499 13.8105V16C12.7499 16.4142 12.4142 16.75 11.9999 16.75C11.5857 16.75 11.2499 16.4142 11.2499 16V12.3105L3.46967 4.53027C3.17678 4.23738 3.17678 3.76262 3.46967 3.46973ZM11.9999 1.25C12.9207 1.25 13.6617 1.24969 14.2578 1.30371C14.8639 1.35867 15.3938 1.47421 15.8749 1.75195C16.4449 2.08105 16.9179 2.55502 17.247 3.125L17.3447 3.30762C17.5538 3.73965 17.6481 4.21173 17.6962 4.74219C17.7503 5.33822 17.7499 6.07919 17.7499 7V7.38672C18.4687 7.49136 19.0872 7.68238 19.6386 8.05078C20.1573 8.39733 20.6026 8.84268 20.9492 9.36133C21.3822 10.0095 21.5717 10.7502 21.6621 11.6377C21.7511 12.5128 21.7499 13.6111 21.7499 15C21.7499 15.761 21.7501 16.4306 21.7363 17.0176C21.7265 17.4317 21.3828 17.7597 20.9687 17.75C20.5546 17.7402 20.2266 17.3965 20.2363 16.9824C20.2496 16.4167 20.2499 15.7664 20.2499 15C20.2499 13.5801 20.2493 12.5716 20.1699 11.79C20.0916 11.021 19.9431 10.555 19.7021 10.1943C19.465 9.83955 19.1604 9.53493 18.8056 9.29785C18.4449 9.05686 17.9789 8.90831 17.2099 8.83008C16.4284 8.7506 15.4198 8.75 13.9999 8.75H11.9999C11.5857 8.75 11.2499 8.41421 11.2499 8C11.2499 7.58579 11.5857 7.25 11.9999 7.25H13.9999C14.8549 7.25 15.5996 7.25196 16.2499 7.27246V7C16.2499 6.05169 16.2495 5.39053 16.2031 4.87793C16.1689 4.50123 16.1124 4.24628 16.0341 4.05176L15.9482 3.875C15.7507 3.53307 15.4669 3.24921 15.1249 3.05176C14.91 2.92768 14.6243 2.8424 14.122 2.79688C13.6094 2.75042 12.9483 2.75 11.9999 2.75C11.0517 2.75 10.3905 2.75044 9.87787 2.79688C9.37557 2.8424 9.08984 2.92768 8.87494 3.05176C8.53299 3.2492 8.24916 3.53306 8.0517 3.875L7.40229 3.5L6.7519 3.125C7.08103 2.55493 7.55487 2.08108 8.12494 1.75195C8.60608 1.47423 9.13596 1.35866 9.74213 1.30371C10.3382 1.24969 11.0791 1.25 11.9999 1.25ZM8.0517 3.875C7.84466 4.23361 7.38596 4.35626 7.02729 4.14941C6.66862 3.94234 6.54492 3.4837 6.7519 3.125L8.0517 3.875Z" fill="currentColor" />
</svg>