<svg xmlns="http://www.w3.org/2000/svg" width="24" height="24" viewBox="0 0 24 24" fill="none">
<path d="M12.2002 1.25C13.0278 1.25 13.6936 1.24903 14.2314 1.29297C14.7781 1.33763 15.2579 1.43287 15.7021 1.65918C16.4078 2.01871 16.9813 2.59225 17.3408 3.29785C17.5671 3.74205 17.6624 4.22195 17.707 4.76856C17.751 5.30639 17.75 5.97222 17.75 6.79981V7.29102C18.5343 7.33892 19.0914 7.44353 19.5664 7.68555C20.3189 8.06902 20.931 8.68109 21.3145 9.4336C21.7504 10.2892 21.75 11.4102 21.75 13.6504V16.3496C21.75 18.5898 21.7504 19.7108 21.3145 20.5664C20.931 21.3189 20.3189 21.931 19.5664 22.3145C18.7108 22.7504 17.5898 22.75 15.3496 22.75H8.65039C6.41018 22.75 5.28924 22.7504 4.43359 22.3145C3.68109 21.931 3.06902 21.3189 2.68555 20.5664C2.24957 19.7108 2.25 18.5898 2.25 16.3496V13.6504C2.25 11.4102 2.24957 10.2892 2.68555 9.4336C3.06902 8.68109 3.68109 8.06902 4.43359 7.68555C4.90858 7.44353 5.46566 7.33892 6.25 7.29102V6.79981C6.25 5.97222 6.24903 5.30639 6.29297 4.76856C6.33763 4.22195 6.43286 3.74205 6.65918 3.29785C7.0187 2.59225 7.59224 2.01871 8.29785 1.65918C8.74205 1.43287 9.22195 1.33763 9.76855 1.29297C10.3064 1.24903 10.9722 1.25 11.7998 1.25H12.2002ZM12 13.25C11.5858 13.25 11.25 13.5858 11.25 14V16C11.25 16.4142 11.5858 16.75 12 16.75C12.4142 16.75 12.75 16.4142 12.75 16V14C12.75 13.5858 12.4142 13.25 12 13.25ZM11.7998 2.75C10.9475 2.75 10.3532 2.75029 9.89062 2.78809C9.4368 2.82517 9.17602 2.89449 8.97852 2.99512C8.55515 3.21083 8.21083 3.55515 7.99512 3.97852C7.89449 4.17602 7.82517 4.4368 7.78809 4.89063C7.75029 5.35322 7.75 5.94746 7.75 6.79981V7.25391C8.02851 7.25261 8.32805 7.25 8.65039 7.25H15.3496C15.672 7.25 15.9715 7.25261 16.25 7.25391V6.79981C16.25 5.94746 16.2497 5.35322 16.2119 4.89063C16.1748 4.4368 16.1055 4.17602 16.0049 3.97852C15.7892 3.55515 15.4448 3.21083 15.0215 2.99512C14.824 2.89449 14.5632 2.82517 14.1094 2.78809C13.6468 2.75029 13.0525 2.75 12.2002 2.75H11.7998Z" fill="currentColor" />
</svg>