<svg xmlns="http://www.w3.org/2000/svg" width="24" height="24" viewBox="0 0 24 24" fill="none">
<path d="M12.7998 1.25C13.3475 1.25 13.8037 1.24898 14.1748 1.2793C14.5545 1.31033 14.9109 1.3781 15.248 1.54981C15.7655 1.81346 16.1865 2.23451 16.4502 2.75196C16.6219 3.0891 16.6897 3.44547 16.7207 3.8252C16.751 4.19633 16.75 4.65252 16.75 5.2002V6.65235C19.1567 8.21138 20.75 10.919 20.75 14C20.75 18.8325 16.8325 22.75 12 22.75C7.16751 22.75 3.25 18.8325 3.25 14C3.25 10.919 4.84333 8.21138 7.25 6.65235V5.2002C7.25 4.65252 7.24897 4.19633 7.2793 3.8252C7.31033 3.44547 7.37809 3.0891 7.5498 2.75196C7.81346 2.23451 8.23451 1.81346 8.75195 1.54981C9.0891 1.3781 9.44546 1.31033 9.8252 1.2793C10.1963 1.24898 10.6525 1.25 11.2002 1.25H12.7998ZM12 12C11.5858 12 11.25 12.3358 11.25 12.75V15.25C11.25 15.6642 11.5858 16 12 16C12.4142 16 12.75 15.6642 12.75 15.25V12.75C12.75 12.3358 12.4142 12 12 12ZM11.2002 2.75C10.6278 2.75 10.2431 2.75024 9.94727 2.77442C9.66027 2.79788 9.52316 2.84059 9.43262 2.88672C9.1975 3.00655 9.00655 3.19751 8.88672 3.43262C8.84059 3.52316 8.79788 3.66027 8.77441 3.94727C8.75024 4.24315 8.75 4.62777 8.75 5.2002V5.87598C9.75503 5.47356 10.8512 5.25 12 5.25C13.1488 5.25 14.245 5.47356 15.25 5.87598V5.2002C15.25 4.62777 15.2498 4.24315 15.2256 3.94727C15.2021 3.66027 15.1594 3.52316 15.1133 3.43262C14.9935 3.19751 14.8025 3.00655 14.5674 2.88672C14.4768 2.84059 14.3397 2.79788 14.0527 2.77442C13.7569 2.75024 13.3722 2.75 12.7998 2.75H11.2002Z" fill="currentColor" />
</svg>