<svg xmlns="http://www.w3.org/2000/svg" width="24" height="24" viewBox="0 0 24 24" fill="none">
<rect opacity={0.12} x={4} y={6} width={16} height={16} rx={8} fill="currentColor" /><path d="M8 7V5.2C8 4.0799 8 3.51984 8.21799 3.09202C8.40973 2.71569 8.71569 2.40973 9.09202 2.21799C9.51984 2 10.0799 2 11.2 2H12.8C13.9201 2 14.4802 2 14.908 2.21799C15.2843 2.40973 15.5903 2.71569 15.782 3.09202C16 3.51984 16 4.07989 16 5.2V7M12 13V15M12 22C7.58172 22 4 18.4183 4 14C4 9.58172 7.58172 6 12 6C16.4183 6 20 9.58172 20 14C20 18.4183 16.4183 22 12 22Z" stroke="currentColor" stroke-width={1.5} stroke-linecap="round" />
</svg>