<svg xmlns="http://www.w3.org/2000/svg" width="24" height="24" viewBox="0 0 24 24" fill="none">
<path opacity={0.4} d="M12.0002 8H14.0002C16.8092 8 18.2136 8 19.2225 8.67412C19.6593 8.96596 20.0343 9.34096 20.3261 9.77772C21.0002 10.7866 21.0002 12.1911 21.0002 15C21.0002 15.7637 21.0002 16.4236 20.9867 17M17.0004 8V7C17.0004 5.13077 17.0004 4.19615 16.5985 3.5C16.3352 3.04394 15.9565 2.66523 15.5004 2.40192C14.8043 2 13.8697 2 12.0004 2C10.1312 2 9.19657 2 8.50042 2.40192C8.04436 2.66523 7.66565 3.04394 7.40234 3.5" stroke="currentColor" stroke-width={1.5} stroke-linecap="round" /><path d="M4 4L8.01324 8.01324M22 22L20.2839 20.2839M8.01324 8.01324C6.46198 8.04908 5.5144 8.18189 4.77772 8.67412C4.34096 8.96596 3.96596 9.34096 3.67412 9.77772C3 10.7866 3 12.1911 3 15C3 17.8089 3 19.2134 3.67412 20.2223C3.96596 20.659 4.34096 21.034 4.77772 21.3259C5.78661 22 7.19108 22 10 22H14C16.8089 22 18.2134 22 19.2223 21.3259C19.6384 21.0479 19.9984 20.6944 20.2839 20.2839M8.01324 8.01324L20.2839 20.2839" stroke="currentColor" stroke-width={1.5} stroke-linecap="round" />
</svg>