<svg xmlns="http://www.w3.org/2000/svg" width="24" height="24" viewBox="0 0 24 24" fill="none">
<path opacity={0.32} fill-rule="evenodd" clip-rule="evenodd" d="M3.25 14C3.25 9.16751 7.16751 5.25 12 5.25C16.8325 5.25 20.75 9.16751 20.75 14C20.75 18.8325 16.8325 22.75 12 22.75C7.16751 22.75 3.25 18.8325 3.25 14Z" fill="currentColor" /><path d="M12 12.25C12.4142 12.25 12.75 12.5858 12.75 13V15C12.75 15.4142 12.4142 15.75 12 15.75C11.5858 15.75 11.25 15.4142 11.25 15V13C11.25 12.5858 11.5858 12.25 12 12.25ZM12.7998 1.25C13.3475 1.25 13.8037 1.24898 14.1748 1.2793C14.5545 1.31033 14.9109 1.3781 15.2481 1.54981C15.7655 1.81346 16.1865 2.23451 16.4502 2.75196C16.6219 3.0891 16.6897 3.44547 16.7207 3.8252C16.751 4.19633 16.75 4.65252 16.75 5.2002V7C16.75 7.41422 16.4142 7.75 16 7.75C15.5858 7.75 15.25 7.41422 15.25 7V5.2002C15.25 4.62777 15.2498 4.24315 15.2256 3.94727C15.2021 3.66027 15.1594 3.52316 15.1133 3.43262C14.9935 3.19751 14.8025 3.00655 14.5674 2.88672C14.4768 2.84059 14.3397 2.79788 14.0527 2.77442C13.7569 2.75024 13.3722 2.75 12.7998 2.75H11.2002C10.6278 2.75 10.2431 2.75024 9.94727 2.77442C9.66027 2.79788 9.52316 2.84059 9.43262 2.88672C9.19751 3.00655 9.00655 3.19751 8.88672 3.43262C8.84059 3.52316 8.79788 3.66027 8.77442 3.94727C8.75024 4.24315 8.75 4.62777 8.75 5.2002V7C8.75 7.41422 8.41422 7.75 8 7.75C7.58579 7.75 7.25 7.41422 7.25 7V5.2002C7.25 4.65252 7.24898 4.19633 7.2793 3.8252C7.31033 3.44547 7.3781 3.0891 7.54981 2.75196C7.81346 2.23451 8.23451 1.81346 8.75196 1.54981C9.0891 1.3781 9.44547 1.31033 9.8252 1.2793C10.1963 1.24898 10.6525 1.25 11.2002 1.25H12.7998Z" fill="currentColor" />
</svg>