<svg xmlns="http://www.w3.org/2000/svg" width="24" height="24" viewBox="0 0 24 24" fill="none">
<path opacity={0.32} fill-rule="evenodd" clip-rule="evenodd" d="M8.65 22.75C6.40979 22.75 5.28969 22.75 4.43404 22.314C3.68139 21.9305 3.06947 21.3186 2.68597 20.566C2.25 19.7103 2.25 18.5902 2.25 16.35V13.65C2.25 11.4098 2.25 10.2897 2.68597 9.43404C3.06947 8.68139 3.68139 8.06947 4.43404 7.68597C5.28969 7.25 6.40979 7.25 8.65 7.25H15.35C17.5902 7.25 18.7103 7.25 19.566 7.68597C20.3186 8.06947 20.9305 8.68139 21.314 9.43404C21.75 10.2897 21.75 11.4098 21.75 13.65V16.35C21.75 18.5902 21.75 19.7103 21.314 20.566C20.9305 21.3186 20.3186 21.9305 19.566 22.314C18.7103 22.75 17.5902 22.75 15.35 22.75H8.65Z" fill="currentColor" /><path d="M12 13.25C12.4142 13.25 12.75 13.5858 12.75 14V16C12.75 16.4142 12.4142 16.75 12 16.75C11.5858 16.75 11.25 16.4142 11.25 16V14C11.25 13.5858 11.5858 13.25 12 13.25ZM12.2002 1.25C13.0278 1.25 13.6936 1.24903 14.2314 1.29297C14.7781 1.33763 15.258 1.43287 15.7022 1.65918C16.4078 2.01871 16.9813 2.59225 17.3408 3.29785C17.5671 3.74205 17.6624 4.22195 17.707 4.76856C17.751 5.30639 17.75 5.97222 17.75 6.79981V8C17.75 8.41422 17.4142 8.75 17 8.75C16.5858 8.75 16.25 8.41422 16.25 8V6.79981C16.25 5.94746 16.2497 5.35322 16.2119 4.89063C16.1748 4.4368 16.1055 4.17602 16.0049 3.97852C15.7892 3.55515 15.4449 3.21083 15.0215 2.99512C14.824 2.89449 14.5632 2.82517 14.1094 2.78809C13.6468 2.75029 13.0525 2.75 12.2002 2.75H11.7998C10.9475 2.75 10.3532 2.75029 9.89063 2.78809C9.4368 2.82517 9.17602 2.89449 8.97852 2.99512C8.55515 3.21083 8.21083 3.55515 7.99512 3.97852C7.89449 4.17602 7.82517 4.4368 7.78809 4.89063C7.75029 5.35322 7.75 5.94746 7.75 6.79981V8C7.75 8.41422 7.41422 8.75 7 8.75C6.58579 8.75 6.25 8.41422 6.25 8V6.79981C6.25 5.97222 6.24903 5.30639 6.29297 4.76856C6.33763 4.22195 6.43287 3.74205 6.65918 3.29785C7.01871 2.59225 7.59225 2.01871 8.29785 1.65918C8.74205 1.43287 9.22195 1.33763 9.76856 1.29297C10.3064 1.24903 10.9722 1.25 11.7998 1.25H12.2002Z" fill="currentColor" />
</svg>