<svg xmlns="http://www.w3.org/2000/svg" width="24" height="24" viewBox="0 0 24 24" fill="none">
<path opacity={0.32} d="M3.25 13.9999C3.25 18.8324 7.16751 22.7499 12 22.7499C14.6557 22.7499 17.0349 21.5662 18.6387 19.7001L6.30161 7.35968C4.43443 8.96354 3.25 11.3434 3.25 13.9999Z" fill="currentColor" /><path d="M2.46967 2.46973C2.74427 2.19513 3.17899 2.17766 3.47358 2.41797L3.53022 2.46973L22.5302 21.4697L22.582 21.5264C22.8223 21.8209 22.8048 22.2557 22.5302 22.5303C22.2556 22.8049 21.8209 22.8223 21.5263 22.582L21.4697 22.5303L12.7499 13.8105V16C12.7499 16.4142 12.4142 16.75 11.9999 16.75C11.5857 16.75 11.2499 16.4142 11.2499 16V12.3105L2.46967 3.53028C2.17678 3.23738 2.17678 2.76262 2.46967 2.46973ZM11.9999 1.25C12.9215 1.25 13.6886 1.24858 14.2949 1.33008C14.9225 1.41451 15.4889 1.60031 15.9443 2.05567C16.3996 2.51102 16.5854 3.07747 16.6699 3.70508C16.7514 4.3113 16.7499 5.0784 16.7499 6V6.65235C19.1566 8.21137 20.7499 10.919 20.7499 14C20.7499 14.3697 20.7272 14.7345 20.6826 15.0928C20.6596 15.2768 20.6308 15.4592 20.5966 15.6397L20.5781 15.7148C20.4697 16.079 20.101 16.3096 19.7197 16.2373C19.3127 16.1601 19.0458 15.7673 19.123 15.3604L19.1943 14.9072C19.2313 14.6104 19.2499 14.3076 19.2499 14C19.2499 9.99594 16.004 6.75 11.9999 6.75C11.6924 6.75 11.3896 6.76865 11.0927 6.80567C10.9401 6.82469 10.789 6.84862 10.6396 6.87695C10.2327 6.95411 9.83984 6.6872 9.76264 6.28027C9.68544 5.87332 9.95334 5.48052 10.3603 5.40332L10.6328 5.35645C10.7238 5.34215 10.8153 5.32885 10.9072 5.31738C11.2655 5.27271 11.6302 5.25 11.9999 5.25C13.1483 5.25 14.2443 5.47288 15.249 5.875C15.2487 4.97952 15.2456 4.36713 15.1835 3.90528C15.1215 3.44389 15.014 3.24652 14.8837 3.11621C14.7534 2.98591 14.5561 2.87845 14.0947 2.81641C13.6116 2.75147 12.964 2.75 11.9999 2.75C11.036 2.75 10.3882 2.75147 9.90522 2.81641C9.44385 2.87845 9.24646 2.98591 9.11615 3.11621C8.97131 3.26106 8.85429 3.48907 8.79682 4.07324C8.75628 4.48542 8.38965 4.78656 7.97748 4.7461C7.56531 4.70555 7.26417 4.33892 7.30463 3.92676C7.37504 3.21097 7.5473 2.56398 8.05561 2.05567C8.51096 1.60032 9.07742 1.41452 9.70502 1.33008C10.3112 1.24858 11.0784 1.25 11.9999 1.25Z" fill="currentColor" />
</svg>