<svg xmlns="http://www.w3.org/2000/svg" width="24" height="24" viewBox="0 0 24 24" fill="none">
<path d="M3.46973 3.46973C3.74433 3.19512 4.17905 3.17766 4.47363 3.41797L4.53027 3.46973L22.5303 21.4697L22.582 21.5264C22.8223 21.8209 22.8049 22.2557 22.5303 22.5303C22.2557 22.8049 21.8209 22.8223 21.5264 22.582L21.4697 22.5303L20.3271 21.3877C20.1159 21.5952 19.8861 21.7839 19.6387 21.9492C18.9905 22.3823 18.2498 22.5718 17.3623 22.6621C16.4872 22.7511 15.3889 22.75 14 22.75H10C8.61115 22.75 7.51281 22.7511 6.6377 22.6621C5.75019 22.5718 5.00948 22.3823 4.36133 21.9492C3.84268 21.6027 3.39733 21.1573 3.05078 20.6387C2.61773 19.9905 2.42819 19.2498 2.33789 18.3623C2.24887 17.4872 2.25 16.3889 2.25 15C2.25 13.6111 2.24887 12.5128 2.33789 11.6377C2.42819 10.7502 2.61773 10.0095 3.05078 9.36133C3.39733 8.84268 3.84268 8.39733 4.36133 8.05078C4.92292 7.67556 5.56232 7.48192 6.31738 7.37793L3.46973 4.53027L3.41797 4.47363C3.17766 4.17905 3.19512 3.74433 3.46973 3.46973ZM12 1.25C12.9208 1.25 13.6618 1.24969 14.2578 1.30371C14.864 1.35867 15.3939 1.47421 15.875 1.75195C16.445 2.08105 16.9179 2.55502 17.2471 3.125L17.3447 3.30762C17.5538 3.73965 17.6482 4.21173 17.6963 4.74219C17.7503 5.33822 17.75 6.07919 17.75 7V7.38672C18.4688 7.49136 19.0873 7.68238 19.6387 8.05078C20.1573 8.39733 20.6027 8.84268 20.9492 9.36133C21.3823 10.0095 21.5718 10.7502 21.6621 11.6377C21.7511 12.5128 21.75 13.6111 21.75 15C21.75 15.761 21.7501 16.4306 21.7363 17.0176C21.7266 17.4317 21.3829 17.7597 20.9688 17.75C20.5547 17.7402 20.2266 17.3965 20.2363 16.9824C20.2496 16.4167 20.25 15.7664 20.25 15C20.25 13.5801 20.2494 12.5716 20.1699 11.79C20.0917 11.021 19.9431 10.555 19.7021 10.1943C19.4651 9.83955 19.1605 9.53493 18.8057 9.29785C18.445 9.05686 17.979 8.90831 17.21 8.83008C16.4284 8.7506 15.4199 8.75 14 8.75H12C11.5858 8.75 11.25 8.41421 11.25 8C11.25 7.58579 11.5858 7.25 12 7.25H14C14.8549 7.25 15.5996 7.25196 16.25 7.27246V7C16.25 6.05169 16.2496 5.39053 16.2031 4.87793C16.169 4.50123 16.1125 4.24628 16.0342 4.05176L15.9482 3.875C15.7508 3.53307 15.4669 3.24921 15.125 3.05176C14.9101 2.92768 14.6244 2.8424 14.1221 2.79688C13.6095 2.75042 12.9483 2.75 12 2.75C11.0517 2.75 10.3905 2.75044 9.87793 2.79688C9.37562 2.8424 9.0899 2.92768 8.875 3.05176C8.53305 3.2492 8.24922 3.53306 8.05176 3.875L7.40234 3.5L6.75195 3.125C7.08109 2.55493 7.55493 2.08108 8.125 1.75195C8.60614 1.47423 9.13602 1.35866 9.74219 1.30371C10.3382 1.24969 11.0792 1.25 12 1.25ZM11.25 16C11.25 16.4142 11.5858 16.75 12 16.75C12.4142 16.75 12.75 16.4142 12.75 16V13.8105L11.25 12.3105V16ZM8.05176 3.875C7.84471 4.23361 7.38602 4.35626 7.02734 4.14941C6.66868 3.94234 6.54498 3.48369 6.75195 3.125L8.05176 3.875Z" fill="currentColor" />
</svg>