<svg xmlns="http://www.w3.org/2000/svg" width="24" height="24" viewBox="0 0 24 24" fill="none">
<path d="M4.25204 16C4.08751 15.3608 4 14.6906 4 14C4 9.58172 7.58172 6 12 6C16.4183 6 20 9.58172 20 14C20 18.4183 16.4183 22 12 22C9.97111 22 8.11862 21.2447 6.70835 20M12 13V15M8 7V5.2C8 4.0799 8 3.51984 8.21799 3.09202C8.40973 2.71569 8.71569 2.40973 9.09202 2.21799C9.51984 2 10.0799 2 11.2 2H14.5C15.3284 2 16 2.67157 16 3.5V4" stroke="currentColor" stroke-width={1.5} stroke-linecap="round" stroke-linejoin="round" />
</svg>