<svg xmlns="http://www.w3.org/2000/svg" width="24" height="24" viewBox="0 0 24 24" fill="none">
<path d="M12.0001 8H14.0001C16.809 8 18.2135 8 19.2224 8.67412C19.6592 8.96596 20.0342 9.34096 20.326 9.77772C21.0001 10.7866 21.0001 12.1911 21.0001 15C21.0001 15.7637 21.0001 16.4236 20.9866 17M4.00012 4L8.01336 8.01324M22.0001 22L20.284 20.2839M8.01336 8.01324C6.4621 8.04908 5.51452 8.18189 4.77784 8.67412C4.34108 8.96596 3.96608 9.34096 3.67424 9.77772C3.18341 10.5123 3.04996 11.4566 3.01367 13M8.01336 8.01324L20.284 20.2839M20.284 20.2839C19.9985 20.6944 19.6385 21.0479 19.2224 21.3259C18.2135 22 16.809 22 14.0001 22H10.0001C7.1912 22 5.78673 22 4.77784 21.3259C4.34108 21.034 3.96608 20.659 3.67424 20.2223C3.18341 19.4877 3.04996 18.5434 3.01367 17M16.9999 8V7C16.9999 5.13077 16.9999 4.19615 16.598 3.5C16.3347 3.04394 15.956 2.66523 15.4999 2.40192C14.8038 2 13.8692 2 11.9999 2C10.1307 2 9.19608 2 8.49993 2.40192C8.04387 2.66523 7.66516 3.04394 7.40186 3.5" stroke="currentColor" stroke-width={1.5} stroke-linecap="round" stroke-linejoin="round" />
</svg>