<svg xmlns="http://www.w3.org/2000/svg" width="24" height="24" viewBox="0 0 24 24" fill="none">
<path d="M8 1.25C11.7279 1.25 14.75 4.27208 14.75 8V11.25H8C7.5858 11.25 7.25002 11.5858 7.25 12C7.25 12.4142 7.58579 12.75 8 12.75H14.75V16C14.75 19.7279 11.7279 22.75 8 22.75C4.27208 22.75 1.25 19.7279 1.25 16L1.25 8C1.25 4.27208 4.27208 1.25 8 1.25ZM17.4697 7.46973C17.7626 7.17688 18.2374 7.17692 18.5303 7.46973L22.5303 11.4697C22.8232 11.7626 22.8231 12.2374 22.5303 12.5303L18.5303 16.5303C18.2374 16.8231 17.7626 16.8231 17.4697 16.5303C17.1769 16.2374 17.1769 15.7626 17.4697 15.4697L20.1895 12.75L14.75 12.75V11.25L20.1895 11.25L17.4697 8.53027C17.1769 8.23739 17.1769 7.7626 17.4697 7.46973Z" fill="currentColor" />
</svg>