<svg xmlns="http://www.w3.org/2000/svg" width="24" height="24" viewBox="0 0 24 24" fill="none">
<path d="M8.34961 1.25C10.5898 1.25 11.7108 1.24957 12.5664 1.68555C13.3189 2.06902 13.931 2.68108 14.3145 3.43359C14.7504 4.28924 14.75 5.41018 14.75 7.65039V11.25H8C7.5858 11.25 7.25002 11.5858 7.25 12C7.25 12.4142 7.58579 12.75 8 12.75H14.75V16.3496C14.75 18.5898 14.7504 19.7108 14.3145 20.5664C13.931 21.3189 13.3189 21.931 12.5664 22.3145C11.7108 22.7504 10.5898 22.75 8.34961 22.75H7.65039C5.41018 22.75 4.28924 22.7504 3.43359 22.3145C2.68109 21.931 2.06902 21.3189 1.68555 20.5664C1.24957 19.7108 1.25 18.5898 1.25 16.3496L1.25 7.65039C1.25 5.41018 1.24957 4.28924 1.68555 3.43359C2.06901 2.68108 2.68108 2.06902 3.43359 1.68555C4.28924 1.24957 5.41018 1.25 7.65039 1.25L8.34961 1.25ZM17.4697 7.46973C17.7626 7.17688 18.2374 7.17692 18.5303 7.46973L22.5303 11.4697C22.8232 11.7626 22.8231 12.2374 22.5303 12.5303L18.5303 16.5303C18.2374 16.8231 17.7626 16.8231 17.4697 16.5303C17.1769 16.2374 17.1769 15.7626 17.4697 15.4697L20.1895 12.75L14.75 12.75V11.25L20.1895 11.25L17.4697 8.53027C17.1769 8.23739 17.1769 7.7626 17.4697 7.46973Z" fill="currentColor" />
</svg>