<svg xmlns="http://www.w3.org/2000/svg" width="24" height="24" viewBox="0 0 24 24" fill="none">
<path d="M16.3496 1.25C18.5898 1.25 19.7108 1.24957 20.5664 1.68555C21.3189 2.06902 21.931 2.68108 22.3145 3.43359C22.7504 4.28924 22.75 5.41018 22.75 7.65039V16.3496C22.75 18.5898 22.7504 19.7108 22.3145 20.5664C21.931 21.3189 21.3189 21.931 20.5664 22.3145C19.7108 22.7504 18.5898 22.75 16.3496 22.75H13.6504C11.4102 22.75 10.2892 22.7504 9.43359 22.3145C8.68109 21.931 8.06902 21.3189 7.68555 20.5664C7.24957 19.7108 7.25 18.5898 7.25 16.3496V12.75H15.1895L12.4697 15.4697C12.1768 15.7626 12.1769 16.2374 12.4697 16.5303C12.7626 16.8232 13.2374 16.8232 13.5303 16.5303L17.5303 12.5303C17.8231 12.2374 17.8232 11.7626 17.5303 11.4697L13.5303 7.46973C13.2374 7.17686 12.7626 7.17686 12.4697 7.46973C12.1951 7.74432 12.1777 8.17905 12.418 8.47363L12.4697 8.53027L15.1895 11.25H7.25V7.65039C7.25 5.41018 7.24957 4.28924 7.68555 3.43359C8.06901 2.68108 8.68108 2.06902 9.43359 1.68555C10.2892 1.24957 11.4102 1.25 13.6504 1.25H16.3496ZM7.25 12.75H2C1.58579 12.75 1.25 12.4142 1.25 12C1.25002 11.5858 1.5858 11.25 2 11.25H7.25V12.75Z" fill="currentColor" />
</svg>