<svg xmlns="http://www.w3.org/2000/svg" width="24" height="24" viewBox="0 0 24 24" fill="none">
<path d="M15 1.25C19.2802 1.25 22.75 4.71979 22.75 9V15C22.75 19.2802 19.2802 22.75 15 22.75C10.7198 22.75 7.25 19.2802 7.25 15V12.75H15.1895L12.4697 15.4697C12.1768 15.7626 12.1769 16.2374 12.4697 16.5303C12.7626 16.8232 13.2374 16.8232 13.5303 16.5303L17.5303 12.5303C17.8231 12.2374 17.8232 11.7626 17.5303 11.4697L13.5303 7.46973C13.2374 7.17686 12.7626 7.17686 12.4697 7.46973C12.1951 7.74432 12.1777 8.17905 12.418 8.47363L12.4697 8.53027L15.1895 11.25H7.25V9C7.25 4.71979 10.7198 1.25 15 1.25ZM7.25 12.75H2C1.58579 12.75 1.25 12.4142 1.25 12C1.25002 11.5858 1.5858 11.25 2 11.25H7.25V12.75Z" fill="currentColor" />
</svg>