<svg xmlns="http://www.w3.org/2000/svg" width="24" height="24" viewBox="0 0 24 24" fill="none">
<path d="M8 3L8 15M16 9L16 21M10.8165 19.8795L13.1835 20.8478C14.2182 21.2711 14.7356 21.4827 15.2674 21.548C15.7385 21.6057 16.2162 21.5792 16.678 21.4696C17.1993 21.3458 17.69 21.0782 18.6714 20.5428L20.9994 19.2731C21.3634 19.0745 21.5454 18.9752 21.678 18.8329C21.7953 18.707 21.8842 18.5573 21.9385 18.394C22 18.2095 22 18.0021 22 17.5875V5.23432C22 4.16902 22 3.63637 21.7759 3.32319C21.5804 3.0499 21.2792 2.87112 20.9457 2.83033C20.5634 2.78358 20.0958 3.03864 19.1606 3.54876L18.6714 3.81557C17.69 4.3509 17.1993 4.61856 16.678 4.74229C16.2162 4.85191 15.7385 4.87846 15.2674 4.82068C14.7356 4.75547 14.2182 4.54383 13.1835 4.12054L10.8165 3.15219C9.78175 2.7289 9.2644 2.51726 8.73262 2.45204C8.26148 2.39427 7.78382 2.42081 7.32198 2.53043C6.80069 2.65417 6.30998 2.92183 5.32855 3.45716L3.0006 4.72694C2.6366 4.92549 2.45459 5.02477 2.32199 5.16711C2.20468 5.29302 2.11583 5.4427 2.06146 5.60597C2 5.79055 2 5.99787 2 6.4125V18.7657C2 19.831 2 20.3636 2.22407 20.6768C2.41961 20.9501 2.72077 21.1289 3.05432 21.1697C3.43656 21.2164 3.90417 20.9614 4.83939 20.4512L5.32855 20.1844C6.30998 19.6491 6.80069 19.3814 7.32198 19.2577C7.78382 19.1481 8.26148 19.1215 8.73262 19.1793C9.2644 19.2445 9.78175 19.4562 10.8165 19.8795Z" stroke="currentColor" stroke-width={1.5} stroke-linecap="round" stroke-linejoin="round" />
</svg>