<svg xmlns="http://www.w3.org/2000/svg" width="24" height="24" viewBox="0 0 24 24" fill="none">
<path d="M14.75 1.25C17.55 1.25 18.95 1.25013 20.0195 1.79492C20.9603 2.27429 21.7257 3.03966 22.2051 3.98047C22.7499 5.04998 22.75 6.45005 22.75 9.25V14.75C22.75 17.55 22.7499 18.95 22.2051 20.0195C21.7257 20.9603 20.9603 21.7257 20.0195 22.2051C18.95 22.7499 17.55 22.75 14.75 22.75H9.25C6.45005 22.75 5.04998 22.7499 3.98047 22.2051C3.03966 21.7257 2.27429 20.9603 1.79492 20.0195C1.25013 18.95 1.25 17.55 1.25 14.75V9.25C1.25 6.45005 1.25013 5.04998 1.79492 3.98047C2.27429 3.03966 3.03966 2.27429 3.98047 1.79492C5.04998 1.25013 6.45005 1.25 9.25 1.25H14.75ZM6 5.25C5.58579 5.25 5.25 5.58579 5.25 6V10C5.25 10.4142 5.58579 10.75 6 10.75C6.41421 10.75 6.75 10.4142 6.75 10V7.81055L16.1895 17.25H14C13.5858 17.25 13.25 17.5858 13.25 18C13.25 18.4142 13.5858 18.75 14 18.75H18C18.4142 18.75 18.75 18.4142 18.75 18V14C18.75 13.5858 18.4142 13.25 18 13.25C17.5858 13.25 17.25 13.5858 17.25 14V16.1895L7.81055 6.75H10C10.4142 6.75 10.75 6.41421 10.75 6C10.75 5.58579 10.4142 5.25 10 5.25H6Z" fill="currentColor" />
</svg>