<svg xmlns="http://www.w3.org/2000/svg" width="24" height="24" viewBox="0 0 24 24" fill="none">
<path d="M14.75 1.25C17.55 1.25 18.95 1.25013 20.0195 1.79492C20.9603 2.27429 21.7257 3.03966 22.2051 3.98047C22.7499 5.04998 22.75 6.45005 22.75 9.25V14.75C22.75 17.55 22.7499 18.95 22.2051 20.0195C21.7257 20.9603 20.9603 21.7257 20.0195 22.2051C18.95 22.7499 17.55 22.75 14.75 22.75H9.25C6.45005 22.75 5.04998 22.7499 3.98047 22.2051C3.03966 21.7257 2.27429 20.9603 1.79492 20.0195C1.25013 18.95 1.25 17.55 1.25 14.75V9.25C1.25 6.45005 1.25013 5.04998 1.79492 3.98047C2.27429 3.03966 3.03966 2.27429 3.98047 1.79492C5.04998 1.25013 6.45005 1.25 9.25 1.25H14.75ZM6 13.6504C5.58579 13.6504 5.25 13.9862 5.25 14.4004V14.7998C5.25 15.3475 5.24897 15.8037 5.2793 16.1748C5.31033 16.5545 5.37809 16.9109 5.5498 17.248C5.81346 17.7655 6.23451 18.1865 6.75195 18.4502C7.0891 18.6219 7.44546 18.6897 7.8252 18.7207C8.19632 18.751 8.65252 18.75 9.2002 18.75H9.59961C10.0138 18.75 10.3496 18.4142 10.3496 18C10.3496 17.5858 10.0138 17.25 9.59961 17.25H9.2002C8.62777 17.25 8.24314 17.2498 7.94727 17.2256C7.66027 17.2021 7.52316 17.1594 7.43262 17.1133C7.1975 16.9935 7.00655 16.8025 6.88672 16.5674C6.84059 16.4768 6.79788 16.3397 6.77441 16.0527C6.75024 15.7569 6.75 15.3722 6.75 14.7998V14.4004C6.75 13.9862 6.41421 13.6504 6 13.6504ZM18 13.6504C17.5858 13.6504 17.25 13.9862 17.25 14.4004V14.7998C17.25 15.3722 17.2498 15.7569 17.2256 16.0527C17.2021 16.3397 17.1594 16.4768 17.1133 16.5674C16.9935 16.8025 16.8025 16.9935 16.5674 17.1133C16.4768 17.1594 16.3397 17.2021 16.0527 17.2256C15.7569 17.2498 15.3722 17.25 14.7998 17.25H14.4004C13.9862 17.25 13.6504 17.5858 13.6504 18C13.6504 18.4142 13.9862 18.75 14.4004 18.75H14.7998C15.3475 18.75 15.8037 18.751 16.1748 18.7207C16.5545 18.6897 16.9109 18.6219 17.248 18.4502C17.7655 18.1865 18.1865 17.7655 18.4502 17.248C18.6219 16.9109 18.6897 16.5545 18.7207 16.1748C18.751 15.8037 18.75 15.3475 18.75 14.7998V14.4004C18.75 13.9862 18.4142 13.6504 18 13.6504ZM9.2002 5.25C8.65252 5.25 8.19632 5.24897 7.8252 5.2793C7.44546 5.31033 7.0891 5.37809 6.75195 5.5498C6.23451 5.81346 5.81346 6.23451 5.5498 6.75195C5.37809 7.0891 5.31033 7.44546 5.2793 7.8252C5.24897 8.19632 5.25 8.65252 5.25 9.2002V9.59961C5.25 10.0138 5.58579 10.3496 6 10.3496C6.41421 10.3496 6.75 10.0138 6.75 9.59961V9.2002C6.75 8.62777 6.75024 8.24314 6.77441 7.94727C6.79788 7.66027 6.84059 7.52316 6.88672 7.43262C7.00655 7.1975 7.1975 7.00655 7.43262 6.88672C7.52316 6.84059 7.66027 6.79788 7.94727 6.77441C8.24314 6.75024 8.62777 6.75 9.2002 6.75H9.59961C10.0138 6.75 10.3496 6.41421 10.3496 6C10.3496 5.58579 10.0138 5.25 9.59961 5.25H9.2002ZM14.4004 5.25C13.9862 5.25 13.6504 5.58579 13.6504 6C13.6504 6.41421 13.9862 6.75 14.4004 6.75H14.7998C15.3722 6.75 15.7569 6.75024 16.0527 6.77441C16.3397 6.79788 16.4768 6.84059 16.5674 6.88672C16.8025 7.00655 16.9935 7.1975 17.1133 7.43262C17.1594 7.52316 17.2021 7.66027 17.2256 7.94727C17.2498 8.24314 17.25 8.62777 17.25 9.2002V9.59961C17.25 10.0138 17.5858 10.3496 18 10.3496C18.4142 10.3496 18.75 10.0138 18.75 9.59961V9.2002C18.75 8.65252 18.751 8.19632 18.7207 7.8252C18.6897 7.44546 18.6219 7.0891 18.4502 6.75195C18.1865 6.23451 17.7655 5.81346 17.248 5.5498C16.9109 5.37809 16.5545 5.31033 16.1748 5.2793C15.8037 5.24897 15.3475 5.25 14.7998 5.25H14.4004Z" fill="currentColor" />
</svg>