<svg xmlns="http://www.w3.org/2000/svg" width="24" height="24" viewBox="0 0 24 24" fill="none">
<path opacity={0.32} d="M9.25 1.25C6.44974 1.25 5.04961 1.25 3.98005 1.79497C3.03924 2.27433 2.27433 3.03924 1.79497 3.98005C1.25 5.04961 1.25 6.44974 1.25 9.25V14.75C1.25 17.5503 1.25 18.9504 1.79497 20.02C2.27433 20.9608 3.03924 21.7257 3.98005 22.205C5.04961 22.75 6.44974 22.75 9.25 22.75H14.75C17.5503 22.75 18.9504 22.75 20.02 22.205C20.9608 21.7257 21.7257 20.9608 22.205 20.02C22.75 18.9504 22.75 17.5503 22.75 14.75V9.25C22.75 6.44974 22.75 5.04961 22.205 3.98005C21.7257 3.03924 20.9608 2.27433 20.02 1.79497C18.9504 1.25 17.5503 1.25 14.75 1.25H9.25Z" fill="currentColor" /><path d="M6 13.6504C6.41422 13.6504 6.75 13.9862 6.75 14.4004V14.7998C6.75 15.3722 6.75024 15.7569 6.77442 16.0527C6.79788 16.3397 6.84059 16.4768 6.88672 16.5674C7.00655 16.8025 7.19751 16.9935 7.43262 17.1133C7.52316 17.1594 7.66027 17.2021 7.94727 17.2256C8.24315 17.2498 8.62777 17.25 9.2002 17.25H9.59961C10.0138 17.25 10.3496 17.5858 10.3496 18C10.3496 18.4142 10.0138 18.75 9.59961 18.75H9.2002C8.65252 18.75 8.19633 18.751 7.8252 18.7207C7.44547 18.6897 7.0891 18.6219 6.75196 18.4502C6.23451 18.1865 5.81346 17.7655 5.54981 17.2481C5.3781 16.9109 5.31033 16.5545 5.2793 16.1748C5.24898 15.8037 5.25 15.3475 5.25 14.7998V14.4004C5.25 13.9862 5.58579 13.6504 6 13.6504ZM18 13.6504C18.4142 13.6504 18.75 13.9862 18.75 14.4004V14.7998C18.75 15.3475 18.751 15.8037 18.7207 16.1748C18.6897 16.5545 18.6219 16.9109 18.4502 17.2481C18.1865 17.7655 17.7655 18.1865 17.2481 18.4502C16.9109 18.6219 16.5545 18.6897 16.1748 18.7207C15.8037 18.751 15.3475 18.75 14.7998 18.75H14.4004C13.9862 18.75 13.6504 18.4142 13.6504 18C13.6504 17.5858 13.9862 17.25 14.4004 17.25H14.7998C15.3722 17.25 15.7569 17.2498 16.0527 17.2256C16.3397 17.2021 16.4768 17.1594 16.5674 17.1133C16.8025 16.9935 16.9935 16.8025 17.1133 16.5674C17.1594 16.4768 17.2021 16.3397 17.2256 16.0527C17.2498 15.7569 17.25 15.3722 17.25 14.7998V14.4004C17.25 13.9862 17.5858 13.6504 18 13.6504ZM9.59961 5.25C10.0138 5.25 10.3496 5.58579 10.3496 6C10.3496 6.41422 10.0138 6.75 9.59961 6.75H9.2002C8.62777 6.75 8.24315 6.75024 7.94727 6.77442C7.66027 6.79788 7.52316 6.84059 7.43262 6.88672C7.19751 7.00655 7.00655 7.19751 6.88672 7.43262C6.84059 7.52316 6.79788 7.66027 6.77442 7.94727C6.75024 8.24315 6.75 8.62777 6.75 9.2002V9.59961C6.75 10.0138 6.41422 10.3496 6 10.3496C5.58579 10.3496 5.25 10.0138 5.25 9.59961V9.2002C5.25 8.65252 5.24898 8.19633 5.2793 7.8252C5.31033 7.44547 5.3781 7.0891 5.54981 6.75196C5.81346 6.23451 6.23451 5.81346 6.75196 5.54981C7.0891 5.3781 7.44547 5.31033 7.8252 5.2793C8.19633 5.24898 8.65252 5.25 9.2002 5.25H9.59961ZM14.7998 5.25C15.3475 5.25 15.8037 5.24898 16.1748 5.2793C16.5545 5.31033 16.9109 5.3781 17.2481 5.54981C17.7655 5.81346 18.1865 6.23451 18.4502 6.75196C18.6219 7.0891 18.6897 7.44547 18.7207 7.8252C18.751 8.19633 18.75 8.65252 18.75 9.2002V9.59961C18.75 10.0138 18.4142 10.3496 18 10.3496C17.5858 10.3496 17.25 10.0138 17.25 9.59961V9.2002C17.25 8.62777 17.2498 8.24315 17.2256 7.94727C17.2021 7.66027 17.1594 7.52316 17.1133 7.43262C16.9935 7.19751 16.8025 7.00655 16.5674 6.88672C16.4768 6.84059 16.3397 6.79788 16.0527 6.77442C15.7569 6.75024 15.3722 6.75 14.7998 6.75H14.4004C13.9862 6.75 13.6504 6.41422 13.6504 6C13.6504 5.58579 13.9862 5.25 14.4004 5.25H14.7998Z" fill="currentColor" />
</svg>