<svg xmlns="http://www.w3.org/2000/svg" width="24" height="24" viewBox="0 0 24 24" fill="none">
<path opacity={0.4} d="M18 9.6V9.3V9.2C18 8.07989 18 7.51984 17.782 7.09202C17.5903 6.71569 17.2843 6.40973 16.908 6.21799C16.4802 6 15.9201 6 14.8 6H14.7H14.4M18 14.4V14.7V14.8C18 15.9201 18 16.4802 17.782 16.908C17.5903 17.2843 17.2843 17.5903 16.908 17.782C16.4802 18 15.9201 18 14.8 18H14.7H14.4M6 14.4V14.7V14.8C6 15.9201 6 16.4802 6.21799 16.908C6.40973 17.2843 6.71569 17.5903 7.09202 17.782C7.51984 18 8.07989 18 9.2 18H9.3H9.6M6 9.6V9.3V9.2C6 8.07989 6 7.51984 6.21799 7.09202C6.40973 6.71569 6.71569 6.40973 7.09202 6.21799C7.51984 6 8.07989 6 9.2 6H9.3H9.6" stroke="currentColor" stroke-width={1.5} stroke-linecap="round" stroke-linejoin="round" /><rect x={2} y={2} width={20} height={20} rx={5} stroke="currentColor" stroke-width={1.5} stroke-linecap="round" stroke-linejoin="round" />
</svg>