<svg xmlns="http://www.w3.org/2000/svg" width="24" height="24" viewBox="0 0 24 24" fill="none">
<path d="M10 15.0001H6C3.79086 15.0001 2 13.2092 2 11.0001C2 8.79091 3.79086 7.00005 6 7.00005H10L13 4.89977M10 15.0001V10.0001M10 15.0001L13.7061 17.5941C16.4669 19.5266 17.8472 20.4928 18.9236 19.9324C20 19.372 20 17.687 20 14.3171V7.68239C20 4.3125 20 2.62755 18.9236 2.06713C18.1545 1.66666 17.2301 2.04574 15.7578 2.99988M6 15.0001V19.5001C6 20.3285 6.67157 21.0001 7.5 21.0001C8.32843 21.0001 9 20.3285 9 19.5001V17.4999M20 8.00005V14.0001C21.6569 14.0001 23 12.6569 23 11.0001C23 9.3432 21.6569 8.00005 20 8.00005Z" stroke="currentColor" stroke-width={2} stroke-linecap="round" stroke-linejoin="round" />
</svg>