<svg xmlns="http://www.w3.org/2000/svg" width="24" height="24" viewBox="0 0 24 24" fill="none">
<path d="M9 9V11M15 7V11M12 7V11M5.85423 5.77492L6.75377 4.69547C7.48557 3.81732 7.85146 3.37825 8.28496 3.04333C8.86703 2.59362 9.54116 2.27788 10.2593 2.11861C10.7941 2 11.3656 2 12.5087 2C14.8302 2 15.991 2 16.9071 2.37798C18.1373 2.88559 19.1144 3.86269 19.622 5.09292C20 6.009 20 7.16976 20 9.49127V14C20 16.8003 20 18.2004 19.455 19.27C18.9757 20.2108 18.2108 20.9757 17.27 21.455C16.2004 22 14.8003 22 12 22C9.19974 22 7.79961 22 6.73005 21.455C5.78924 20.9757 5.02433 20.2108 4.54497 19.27C4 18.2004 4 16.8003 4 14V10.8964C4 9.82367 4 9.2873 4.10821 8.77567C4.2042 8.3218 4.36288 7.88351 4.5797 7.47339C4.82411 7.01107 5.16748 6.59902 5.85423 5.77492Z" stroke="currentColor" stroke-width={1.5} stroke-linecap="round" stroke-linejoin="round" />
</svg>