<svg xmlns="http://www.w3.org/2000/svg" width="24" height="24" viewBox="0 0 24 24" fill="none">
<path d="M12.5083 1.25C15.5365 1.25 17.051 1.25059 18.187 1.88477C18.9959 2.33645 19.6641 3.00353 20.1157 3.8125C20.7499 4.94853 20.7495 6.46309 20.7495 9.49121V14C20.7495 17.5112 20.7494 19.2672 19.9067 20.5283C19.5421 21.074 19.0735 21.5425 18.5278 21.9072C17.2667 22.7499 15.5107 22.75 11.9995 22.75C8.48836 22.75 6.73231 22.7499 5.47119 21.9072C4.92553 21.5425 4.45695 21.074 4.09229 20.5283C3.24963 19.2672 3.24951 17.5112 3.24951 14V11.3486C3.24951 9.55735 3.24977 8.66167 3.54834 7.83691C3.84697 7.01209 4.42002 6.32352 5.56689 4.94727L6.17725 4.21582C7.13017 3.07231 7.6067 2.50044 8.19971 2.10156C8.62671 1.81436 9.09536 1.59436 9.58936 1.4502C10.2754 1.24999 11.0198 1.25 12.5083 1.25ZM8.99951 8.25C8.58533 8.25 8.24956 8.58583 8.24951 9V11C8.24951 11.4142 8.5853 11.75 8.99951 11.75C9.41372 11.75 9.74951 11.4142 9.74951 11V9C9.74946 8.58584 9.41368 8.25001 8.99951 8.25ZM11.9995 6.25C11.5853 6.25 11.2496 6.58583 11.2495 7V11C11.2495 11.4142 11.5853 11.75 11.9995 11.75C12.4137 11.75 12.7495 11.4142 12.7495 11V7C12.7495 6.58584 12.4137 6.25001 11.9995 6.25ZM14.9995 6.25C14.5853 6.25 14.2496 6.58583 14.2495 7V11C14.2495 11.4142 14.5853 11.75 14.9995 11.75C15.4137 11.75 15.7495 11.4142 15.7495 11V7C15.7495 6.58584 15.4137 6.25001 14.9995 6.25Z" fill="currentColor" />
</svg>