<svg xmlns="http://www.w3.org/2000/svg" width="24" height="24" viewBox="0 0 24 24" fill="none">
<path d="M20 9.99988V9.49988C20 7.17263 20 6.009 19.622 5.09292C19.1144 3.86269 18.1373 2.88559 16.9071 2.37798C15.991 2 14.8302 2 12.5087 2C11.3656 2 10.7941 2 10.2593 2.11861C9.54116 2.27788 8.86703 2.59362 8.28496 3.04333C7.85146 3.37825 7.48557 3.81732 6.75377 4.69547L5.85423 5.77492C5.16748 6.59902 4.82411 7.01107 4.5797 7.47339C4.36288 7.88351 4.2042 8.3218 4.10821 8.77567C4 9.2873 4 9.82367 4 10.8964V14C4 16.8003 4 18.2004 4.54497 19.27C5.02433 20.2108 5.78924 20.9757 6.73005 21.455C7.79961 22 9.19974 22 12 22H12.4999C14.8297 22 15.9946 22 16.9135 21.6194C18.1386 21.1119 19.1119 20.1386 19.6194 18.9135C20 17.9946 20 16.8297 20 14.4999V13.9999M9 9V11M15 7V11M12 7V11" stroke="currentColor" stroke-width={1.5} stroke-linecap="round" stroke-linejoin="round" />
</svg>