<svg xmlns="http://www.w3.org/2000/svg" width="24" height="24" viewBox="0 0 24 24" fill="none">
<path d="M13.1504 1.25C16.5103 1.25 18.1902 1.25042 19.4736 1.9043C20.6026 2.47954 21.5205 3.39739 22.0957 4.52637C22.7496 5.80977 22.75 7.48965 22.75 10.8496V13.1504C22.75 16.5103 22.7496 18.1902 22.0957 19.4736C21.5205 20.6026 20.6026 21.5205 19.4736 22.0957C18.1902 22.7496 16.5103 22.75 13.1504 22.75H10.8496C7.48965 22.75 5.80977 22.7496 4.52637 22.0957C3.39739 21.5205 2.47954 20.6026 1.9043 19.4736C1.25042 18.1902 1.25 16.5103 1.25 13.1504V10.8496C1.25 7.48965 1.25042 5.80977 1.9043 4.52637C2.47954 3.39739 3.39739 2.47954 4.52637 1.9043C5.80977 1.25042 7.48965 1.25 10.8496 1.25H13.1504ZM7 15C6.44772 15 6 15.4477 6 16C6 16.5523 6.44772 17 7 17H15C15.5523 17 16 16.5523 16 16C16 15.4477 15.5523 15 15 15H7ZM7 11C6.44772 11 6 11.4477 6 12C6 12.5523 6.44772 13 7 13H13C13.5523 13 14 12.5523 14 12C14 11.4477 13.5523 11 13 11H7ZM7 7C6.44772 7 6 7.44772 6 8C6 8.55228 6.44772 9 7 9H17C17.5523 9 18 8.55228 18 8C18 7.44772 17.5523 7 17 7H7Z" fill="currentColor" />
</svg>