<svg xmlns="http://www.w3.org/2000/svg" width="24" height="24" viewBox="0 0 24 24" fill="none">
<path d="M12 1.25C17.8481 1.25 22.75 5.58409 22.75 11.126C22.7498 16.6677 17.8479 21.001 12 21.001C11.3275 21.001 10.6713 20.9427 10.0342 20.834L6.33398 22.6719C6.1015 22.7873 5.82511 22.7745 5.60449 22.6377C5.38396 22.5009 5.25 22.2595 5.25 22C5.25 21.4317 5.2494 20.8735 5.24902 20.3467C5.24863 19.7874 5.24887 19.263 5.24902 18.7988C2.83288 17.0059 1.25013 14.2568 1.25 11.126C1.25 5.58409 6.15193 1.25 12 1.25ZM17.3447 9.07812C17.0962 8.74695 16.6262 8.68027 16.2949 8.92871L12.9648 11.4248L11.7617 9.63281C11.6471 9.46223 11.4673 9.34597 11.2646 9.31152C11.0874 9.28148 10.9057 9.31654 10.7529 9.4082L10.6885 9.45117L6.80469 12.3643C6.4736 12.6129 6.40683 13.0828 6.65527 13.4141C6.90378 13.7452 7.37378 13.8127 7.70508 13.5645L10.9561 11.125L12.1602 12.917C12.2748 13.0875 12.4547 13.2038 12.6572 13.2383C12.8598 13.2726 13.068 13.2227 13.2324 13.0996L17.1953 10.1279C17.5262 9.87936 17.593 9.40934 17.3447 9.07812Z" fill="currentColor" />
</svg>