<svg xmlns="http://www.w3.org/2000/svg" width="24" height="24" viewBox="0 0 24 24" fill="none">
<path opacity={0.32} d="M20 10.25C20.4142 10.25 20.75 10.5858 20.75 11C20.75 12.6756 20.28 14.1535 19.5185 15.3926C19.3016 15.7455 18.8392 15.8565 18.4863 15.6396C18.1335 15.4228 18.0234 14.9603 18.2402 14.6074C18.8639 13.5927 19.25 12.3848 19.25 11C19.25 10.5859 19.5859 10.2501 20 10.25ZM12 1.25C15.1756 1.25 17.75 3.82436 17.75 7V11C17.75 11.3619 17.7207 11.7025 17.6103 12.041C17.4983 12.3846 17.3195 12.6766 17.0869 12.9678C16.9537 13.1345 16.755 13.2372 16.542 13.249C16.329 13.2608 16.1206 13.1811 15.9697 13.0303L7.4697 4.53027C7.20562 4.26619 7.17603 3.84742 7.40036 3.54883C8.44816 2.15429 10.1186 1.25 12 1.25Z" fill="currentColor" /><path d="M2.46967 2.46967C2.76256 2.17678 3.23732 2.17678 3.53022 2.46967L21.5302 20.4697L21.582 20.5263C21.8223 20.8209 21.8048 21.2556 21.5302 21.5302C21.2556 21.8048 20.8209 21.8223 20.5263 21.582L20.4697 21.5302L16.9941 18.0546C15.6797 18.9821 14.173 19.5559 12.7499 19.708V21.9999C12.7499 22.4142 12.4142 22.7499 11.9999 22.7499C11.5857 22.7499 11.2499 22.4142 11.2499 21.9999V19.7089C9.53573 19.5258 7.69714 18.7313 6.22065 17.4394C4.5116 15.944 3.24994 13.7475 3.24994 10.9999C3.24994 10.5857 3.58573 10.2499 3.99994 10.2499C4.41416 10.2499 4.74994 10.5857 4.74994 10.9999C4.74994 13.2523 5.7742 15.0559 7.20795 16.3105C8.65616 17.5777 10.4845 18.2499 11.9999 18.2499C13.2216 18.2499 14.6464 17.8104 15.914 16.9746L14.9023 15.9628C14.05 16.4622 13.0581 16.7499 11.9999 16.7499C8.82431 16.7499 6.24994 14.1756 6.24994 10.9999V7.31049L2.46967 3.53022C2.17678 3.23732 2.17678 2.76256 2.46967 2.46967Z" fill="currentColor" />
</svg>