<svg xmlns="http://www.w3.org/2000/svg" width="24" height="24" viewBox="0 0 24 24" fill="none">
<path d="M2.46967 2.46973C2.74427 2.19512 3.17899 2.17766 3.47358 2.41797L3.53022 2.46973L21.5302 20.4697L21.582 20.5264C21.8223 20.8209 21.8048 21.2557 21.5302 21.5303C21.2556 21.8049 20.8209 21.8223 20.5263 21.582L20.4697 21.5303L16.9941 18.0547C15.6797 18.9822 14.173 19.5559 12.7499 19.708V22C12.7499 22.4142 12.4142 22.75 11.9999 22.75C11.5857 22.75 11.2499 22.4142 11.2499 22V19.709C9.53573 19.5258 7.69714 18.7313 6.22065 17.4395C4.5116 15.944 3.24994 13.7476 3.24994 11C3.24994 10.5858 3.58573 10.25 3.99994 10.25C4.41416 10.25 4.74994 10.5858 4.74994 11C4.74994 13.2524 5.7742 15.056 7.20795 16.3105C8.65616 17.5777 10.4845 18.25 11.9999 18.25C13.2216 18.25 14.6464 17.8105 15.914 16.9746L14.9023 15.9629C14.05 16.4623 13.0581 16.75 11.9999 16.75C8.82431 16.75 6.24994 14.1756 6.24994 11V7.31055L2.46967 3.53027C2.17678 3.23738 2.17678 2.76262 2.46967 2.46973ZM19.9999 10.25C20.4142 10.25 20.7499 10.5858 20.7499 11C20.7499 12.6756 20.2799 14.1535 19.5185 15.3926L19.4746 15.4561C19.2438 15.7582 18.8171 15.8429 18.4863 15.6396C18.1334 15.4228 18.0233 14.9603 18.2402 14.6074L18.4628 14.2178C18.9545 13.2879 19.2499 12.2116 19.2499 11C19.2499 10.5858 19.5857 10.25 19.9999 10.25ZM7.74994 11C7.74994 13.3472 9.65273 15.25 11.9999 15.25C12.641 15.25 13.2466 15.1052 13.791 14.8516L7.74994 8.81055V11ZM11.9999 1.25C15.1756 1.25 17.7499 3.82436 17.7499 7V11C17.7499 11.3619 17.7206 11.7025 17.6103 12.041C17.4983 12.3846 17.3194 12.6766 17.0869 12.9678C16.9536 13.1345 16.755 13.2372 16.5419 13.249C16.3289 13.2608 16.1205 13.1811 15.9697 13.0303L7.46967 4.53027C7.20558 4.26618 7.17599 3.84742 7.40033 3.54883C8.44813 2.15429 10.1186 1.25 11.9999 1.25Z" fill="currentColor" />
</svg>