<svg xmlns="http://www.w3.org/2000/svg" width="24" height="24" viewBox="0 0 24 24" fill="none">
<path opacity={0.32} d="M9.25 1.25C6.44974 1.25 5.04961 1.25 3.98005 1.79497C3.03924 2.27433 2.27433 3.03924 1.79497 3.98005C1.25 5.04961 1.25 6.44974 1.25 9.25V14.75C1.25 17.5503 1.25 18.9504 1.79497 20.02C2.27433 20.9608 3.03924 21.7257 3.98005 22.205C5.04961 22.75 6.44974 22.75 9.25 22.75H14.75C17.5503 22.75 18.9504 22.75 20.02 22.205C20.9608 21.7257 21.7257 20.9608 22.205 20.02C22.75 18.9504 22.75 17.5503 22.75 14.75V9.25C22.75 6.44974 22.75 5.04961 22.205 3.98005C21.7257 3.03924 20.9608 2.27433 20.02 1.79497C18.9504 1.25 17.5503 1.25 14.75 1.25H9.25Z" fill="currentColor" /><path d="M7.59961 13.25C8.00727 13.25 8.35873 13.249 8.64648 13.2725C8.94292 13.2967 9.23777 13.3506 9.52148 13.4951C9.94485 13.7108 10.2892 14.0552 10.5049 14.4785C10.6494 14.7622 10.7033 15.0571 10.7275 15.3535C10.751 15.6413 10.75 15.9927 10.75 16.4004V18C10.75 18.4142 10.4142 18.75 10 18.75C9.58579 18.75 9.25 18.4142 9.25 18V16.4004C9.25 15.968 9.24978 15.6881 9.23242 15.4756C9.21577 15.272 9.18686 15.1962 9.16797 15.1592C9.09612 15.0184 8.98164 14.9039 8.84082 14.832C8.80375 14.8131 8.72797 14.7842 8.52441 14.7676C8.31191 14.7502 8.03202 14.75 7.59961 14.75H6C5.58579 14.75 5.25 14.4142 5.25 14C5.25 13.5858 5.58579 13.25 6 13.25H7.59961ZM18 13.25C18.4142 13.25 18.75 13.5858 18.75 14C18.75 14.4142 18.4142 14.75 18 14.75H16.4004C15.968 14.75 15.6881 14.7502 15.4756 14.7676C15.272 14.7842 15.1962 14.8131 15.1592 14.832C15.0184 14.9039 14.9039 15.0184 14.832 15.1592C14.8131 15.1962 14.7842 15.272 14.7676 15.4756C14.7502 15.6881 14.75 15.968 14.75 16.4004V18C14.75 18.4142 14.4142 18.75 14 18.75C13.5858 18.75 13.25 18.4142 13.25 18V16.4004C13.25 15.9927 13.249 15.6413 13.2725 15.3535C13.2967 15.0571 13.3506 14.7622 13.4951 14.4785C13.7108 14.0552 14.0552 13.7108 14.4785 13.4951C14.7622 13.3506 15.0571 13.2967 15.3535 13.2725C15.6413 13.249 15.9927 13.25 16.4004 13.25H18ZM10 5.25C10.4142 5.25 10.75 5.58579 10.75 6V7.59961C10.75 8.00727 10.751 8.35873 10.7275 8.64648C10.7033 8.94292 10.6494 9.23777 10.5049 9.52148C10.2892 9.94485 9.94485 10.2892 9.52148 10.5049C9.23777 10.6494 8.94292 10.7033 8.64648 10.7275C8.35873 10.751 8.00727 10.75 7.59961 10.75H6C5.58579 10.75 5.25 10.4142 5.25 10C5.25 9.58579 5.58579 9.25 6 9.25H7.59961C8.03202 9.25 8.31191 9.24978 8.52441 9.23242C8.72797 9.21577 8.80375 9.18686 8.84082 9.16797C8.98164 9.09612 9.09612 8.98164 9.16797 8.84082C9.18686 8.80375 9.21577 8.72797 9.23242 8.52441C9.24978 8.31191 9.25 8.03202 9.25 7.59961V6C9.25 5.58579 9.58579 5.25 10 5.25ZM14 5.25C14.4142 5.25 14.75 5.58579 14.75 6V7.59961C14.75 8.03202 14.7502 8.31191 14.7676 8.52441C14.7842 8.72797 14.8131 8.80375 14.832 8.84082C14.9039 8.98164 15.0184 9.09612 15.1592 9.16797C15.1962 9.18686 15.272 9.21577 15.4756 9.23242C15.6881 9.24978 15.968 9.25 16.4004 9.25H18C18.4142 9.25 18.75 9.58579 18.75 10C18.75 10.4142 18.4142 10.75 18 10.75H16.4004C15.9927 10.75 15.6413 10.751 15.3535 10.7275C15.0571 10.7033 14.7622 10.6494 14.4785 10.5049C14.0552 10.2892 13.7108 9.94485 13.4951 9.52148C13.3506 9.23777 13.2967 8.94292 13.2725 8.64648C13.249 8.35873 13.25 8.00727 13.25 7.59961V6C13.25 5.58579 13.5858 5.25 14 5.25Z" fill="currentColor" />
</svg>