<svg xmlns="http://www.w3.org/2000/svg" width="24" height="24" viewBox="0 0 24 24" fill="none">
<path d="M14.75 1.25C17.55 1.25 18.95 1.25013 20.0195 1.79492C20.9603 2.27429 21.7257 3.03966 22.2051 3.98047C22.7499 5.04998 22.75 6.45005 22.75 9.25V14.75C22.75 17.55 22.7499 18.95 22.2051 20.0195C21.7257 20.9603 20.9603 21.7257 20.0195 22.2051C18.95 22.7499 17.55 22.75 14.75 22.75H9.25C6.45005 22.75 5.04998 22.7499 3.98047 22.2051C3.03966 21.7257 2.27429 20.9603 1.79492 20.0195C1.25013 18.95 1.25 17.55 1.25 14.75V9.25C1.25 6.45005 1.25013 5.04998 1.79492 3.98047C2.27429 3.03966 3.03966 2.27429 3.98047 1.79492C5.04998 1.25013 6.45005 1.25 9.25 1.25H14.75ZM6 13.25C5.58579 13.25 5.25 13.5858 5.25 14C5.25 14.4142 5.58579 14.75 6 14.75H7.59961C8.03202 14.75 8.31191 14.7502 8.52441 14.7676C8.72797 14.7842 8.80375 14.8131 8.84082 14.832C8.98164 14.9039 9.09612 15.0184 9.16797 15.1592C9.18686 15.1962 9.21577 15.272 9.23242 15.4756C9.24978 15.6881 9.25 15.968 9.25 16.4004V18C9.25 18.4142 9.58579 18.75 10 18.75C10.4142 18.75 10.75 18.4142 10.75 18V16.4004C10.75 15.9927 10.751 15.6413 10.7275 15.3535C10.7033 15.0571 10.6494 14.7622 10.5049 14.4785C10.2892 14.0552 9.94485 13.7108 9.52148 13.4951C9.23777 13.3506 8.94292 13.2967 8.64648 13.2725C8.35873 13.249 8.00727 13.25 7.59961 13.25H6ZM16.4004 13.25C15.9927 13.25 15.6413 13.249 15.3535 13.2725C15.0571 13.2967 14.7622 13.3506 14.4785 13.4951C14.0552 13.7108 13.7108 14.0552 13.4951 14.4785C13.3506 14.7622 13.2967 15.0571 13.2725 15.3535C13.249 15.6413 13.25 15.9927 13.25 16.4004V18C13.25 18.4142 13.5858 18.75 14 18.75C14.4142 18.75 14.75 18.4142 14.75 18V16.4004C14.75 15.968 14.7502 15.6881 14.7676 15.4756C14.7842 15.272 14.8131 15.1962 14.832 15.1592C14.9039 15.0184 15.0184 14.9039 15.1592 14.832C15.1962 14.8131 15.272 14.7842 15.4756 14.7676C15.6881 14.7502 15.968 14.75 16.4004 14.75H18C18.4142 14.75 18.75 14.4142 18.75 14C18.75 13.5858 18.4142 13.25 18 13.25H16.4004ZM10 5.25C9.58579 5.25 9.25 5.58579 9.25 6V7.59961C9.25 8.03202 9.24978 8.31191 9.23242 8.52441C9.21577 8.72797 9.18686 8.80375 9.16797 8.84082C9.09612 8.98164 8.98164 9.09612 8.84082 9.16797C8.80375 9.18686 8.72797 9.21577 8.52441 9.23242C8.31191 9.24978 8.03202 9.25 7.59961 9.25H6C5.58579 9.25 5.25 9.58579 5.25 10C5.25 10.4142 5.58579 10.75 6 10.75H7.59961C8.00727 10.75 8.35873 10.751 8.64648 10.7275C8.94292 10.7033 9.23777 10.6494 9.52148 10.5049C9.94485 10.2892 10.2892 9.94485 10.5049 9.52148C10.6494 9.23777 10.7033 8.94292 10.7275 8.64648C10.751 8.35873 10.75 8.00727 10.75 7.59961V6C10.75 5.58579 10.4142 5.25 10 5.25ZM14 5.25C13.5858 5.25 13.25 5.58579 13.25 6V7.59961C13.25 8.00727 13.249 8.35873 13.2725 8.64648C13.2967 8.94292 13.3506 9.23777 13.4951 9.52148C13.7108 9.94485 14.0552 10.2892 14.4785 10.5049C14.7622 10.6494 15.0571 10.7033 15.3535 10.7275C15.6413 10.751 15.9927 10.75 16.4004 10.75H18C18.4142 10.75 18.75 10.4142 18.75 10C18.75 9.58579 18.4142 9.25 18 9.25H16.4004C15.968 9.25 15.6881 9.24978 15.4756 9.23242C15.272 9.21577 15.1962 9.18686 15.1592 9.16797C15.0184 9.09612 14.9039 8.98164 14.832 8.84082C14.8131 8.80375 14.7842 8.72797 14.7676 8.52441C14.7502 8.31191 14.75 8.03202 14.75 7.59961V6C14.75 5.58579 14.4142 5.25 14 5.25Z" fill="currentColor" />
</svg>