<svg xmlns="http://www.w3.org/2000/svg" width="40" height="40" viewBox="0 0 40 40" fill="none">
<path d="M29.1507 5.8335C28.0839 4.80726 27.3379 4.20609 26.4564 3.84097C25.2312 3.3335 23.8687 3.3335 21.1437 3.3335H18.8561C16.1311 3.3335 14.7686 3.3335 13.5435 3.84097C12.3183 4.34844 11.3549 5.31187 9.42801 7.23874L7.23849 9.42825C5.31163 11.3551 4.34819 12.3186 3.84072 13.5437C3.33325 14.7688 3.33325 16.1313 3.33325 18.8563V21.144C3.33325 23.869 3.33325 25.2315 3.84072 26.4566C4.34819 27.6818 5.31163 28.6452 7.2385 30.5721L9.42801 32.7616C11.3549 34.6885 12.3183 35.6519 13.5435 36.1594C14.7686 36.6668 16.1311 36.6668 18.8561 36.6668H21.1437C23.8687 36.6668 25.2312 36.6668 26.4564 36.1594C27.6815 35.6519 28.645 34.6885 30.5718 32.7616L32.7613 30.5721C34.6882 28.6452 35.6516 27.6818 36.1591 26.4566C36.6666 25.2315 36.6666 23.869 36.6666 21.144V18.8563C36.6666 16.1313 36.6666 14.7688 36.1591 13.5437C35.7922 12.6579 35.1869 11.9088 34.1513 10.8335M13.3333 20.0002H26.6666" stroke="currentColor" stroke-width={2.5} stroke-linecap="round" stroke-linejoin="round" />
</svg>