<svg xmlns="http://www.w3.org/2000/svg" width="40" height="40" viewBox="0 0 40 40" fill="none">
<path d="M13.3335 19.9998H26.6668M6.45769 29.7907L10.2093 33.5423C11.3623 34.6953 11.9388 35.2718 12.6116 35.6841C13.2081 36.0496 13.8584 36.319 14.5386 36.4823C15.3059 36.6665 16.1212 36.6665 17.7518 36.6665H22.2486C23.8792 36.6665 24.6945 36.6665 25.4617 36.4823C26.1419 36.319 26.7922 36.0496 27.3887 35.6841C28.0615 35.2718 28.638 34.6953 29.791 33.5423L33.5426 29.7907C34.6956 28.6376 35.2722 28.0611 35.6844 27.3884C36.05 26.7919 36.3193 26.1416 36.4826 25.4613C36.6668 24.6941 36.6668 23.8788 36.6668 22.2482V17.7514C36.6668 16.1208 36.6668 15.3055 36.4826 14.5383C36.3193 13.858 36.05 13.2077 35.6844 12.6112C35.2722 11.9385 34.6956 11.3619 33.5426 10.2089L29.791 6.45732C28.638 5.30431 28.0615 4.72781 27.3887 4.31553C26.7922 3.95 26.1419 3.68064 25.4617 3.51733C24.6945 3.33313 23.8792 3.33313 22.2486 3.33313H17.7518C16.1212 3.33313 15.3059 3.33313 14.5386 3.51733C13.8584 3.68064 13.2081 3.95 12.6116 4.31553C11.9388 4.72781 11.3623 5.30431 10.2093 6.45733L6.45769 10.2089C5.30468 11.3619 4.72817 11.9385 4.31589 12.6112C3.95037 13.2077 3.68101 13.858 3.5177 14.5383C3.3335 15.3055 3.3335 16.1208 3.3335 17.7514V22.2482C3.3335 23.8788 3.3335 24.6941 3.5177 25.4613C3.68101 26.1416 3.95037 26.7919 4.31589 27.3884C4.72817 28.0611 5.30468 28.6376 6.45769 29.7907Z" stroke="currentColor" stroke-width={2.5} stroke-linecap="round" stroke-linejoin="round" />
</svg>