<svg xmlns="http://www.w3.org/2000/svg" width="40" height="40" viewBox="0 0 40 40" fill="none">
<path d="M21.6616 2.0835C23.6999 2.0835 24.7192 2.08371 25.6782 2.31396C26.5285 2.51811 27.3418 2.85414 28.0874 3.31104C28.9283 3.82635 29.6483 4.54772 31.0894 5.98877L34.0112 8.91064C35.4525 10.3519 36.1736 11.0726 36.689 11.9136C37.1458 12.659 37.4829 13.4716 37.687 14.3218C37.9173 15.2808 37.9165 16.3003 37.9165 18.3384V21.6616C37.9165 23.6998 37.9172 24.7192 37.687 25.6782C37.4829 26.5285 37.1459 27.3418 36.689 28.0874C36.1736 28.9283 35.4523 29.6483 34.0112 31.0894L31.0894 34.0112C29.6483 35.4523 28.9283 36.1736 28.0874 36.689C27.3418 37.1459 26.5285 37.4829 25.6782 37.687C24.7192 37.9172 23.6998 37.9165 21.6616 37.9165H18.3384C16.3003 37.9165 15.2808 37.9173 14.3218 37.687C13.4716 37.4829 12.659 37.1458 11.9136 36.689C11.0726 36.1736 10.3519 35.4525 8.91064 34.0112L5.98877 31.0894C4.54772 29.6483 3.82635 28.9283 3.31104 28.0874C2.85414 27.3418 2.51811 26.5285 2.31396 25.6782C2.08371 24.7192 2.0835 23.6999 2.0835 21.6616V18.3384C2.0835 16.3003 2.08372 15.2808 2.31396 14.3218C2.51808 13.4718 2.85431 12.659 3.31104 11.9136C3.82638 11.0726 4.54755 10.3519 5.98877 8.91064L8.91064 5.98877C10.3519 4.54755 11.0726 3.82638 11.9136 3.31104C12.659 2.85431 13.4718 2.51808 14.3218 2.31396C15.2808 2.08372 16.3003 2.0835 18.3384 2.0835H21.6616ZM13.3335 18.7505C12.6431 18.7505 12.0835 19.3101 12.0835 20.0005C12.0837 20.6907 12.6432 21.2505 13.3335 21.2505H26.6665C27.3568 21.2505 27.9163 20.6907 27.9165 20.0005C27.9165 19.3101 27.3569 18.7505 26.6665 18.7505H13.3335Z" fill="currentColor" />
</svg>