<svg xmlns="http://www.w3.org/2000/svg" width="24" height="24" viewBox="0 0 24 24" fill="none">
<path d="M5 11C5.55228 11 6 11.4477 6 12V15.3857C7.58547 15.8234 8.75 17.2753 8.75 19C8.75 21.0711 7.07107 22.75 5 22.75C2.92893 22.75 1.25 21.0711 1.25 19C1.25 17.2753 2.41453 15.8234 4 15.3857V12C4 11.4477 4.44772 11 5 11ZM19 15.25C21.0711 15.25 22.75 16.9289 22.75 19C22.75 21.0711 21.0711 22.75 19 22.75C17.2753 22.75 15.8234 21.5855 15.3857 20H12C11.4477 20 11 19.5523 11 19C11 18.4477 11.4477 18 12 18H15.3857C15.8234 16.4145 17.2753 15.25 19 15.25ZM19 1.25C21.0711 1.25 22.75 2.92893 22.75 5C22.75 6.72459 21.5853 8.17549 20 8.61328V12C20 12.5523 19.5523 13 19 13C18.4477 13 18 12.5523 18 12V8.61328C16.4147 8.17549 15.25 6.72459 15.25 5C15.25 2.92893 16.9289 1.25 19 1.25ZM5 1.25C6.72468 1.25 8.17656 2.41453 8.61426 4H12C12.5523 4 13 4.44772 13 5C13 5.55228 12.5523 6 12 6H8.61426C8.17656 7.58547 6.72468 8.75 5 8.75C2.92893 8.75 1.25 7.07107 1.25 5C1.25 2.92893 2.92893 1.25 5 1.25Z" fill="currentColor" />
</svg>