<svg xmlns="http://www.w3.org/2000/svg" width="24" height="24" viewBox="0 0 24 24" fill="none">
<path d="M17.2002 1.25C18.0278 1.25 18.6936 1.24903 19.2314 1.29297C19.7781 1.33763 20.2579 1.43287 20.7022 1.65918C21.4078 2.01871 21.9813 2.59225 22.3408 3.29785C22.5671 3.74205 22.6624 4.22195 22.707 4.76856C22.751 5.30639 22.75 5.97222 22.75 6.79981V13.2002C22.75 14.0278 22.751 14.6936 22.707 15.2314C22.6624 15.7781 22.5671 16.258 22.3408 16.7022C21.9813 17.4078 21.4078 17.9813 20.7022 18.3408C20.2579 18.5671 19.7781 18.6624 19.2314 18.707C18.6936 18.751 18.0278 18.75 17.2002 18.75H14.7783C14.8835 20.0989 15.2653 20.7048 15.5303 20.9697C15.6887 21.1281 15.8346 21.1955 15.9248 21.2256C15.9712 21.2411 16.0052 21.2478 16.0205 21.25H17C17.4142 21.25 17.75 21.5858 17.75 22C17.75 22.4142 17.4142 22.75 17 22.75H7C6.58579 22.75 6.25 22.4142 6.25 22C6.25 21.5858 6.58579 21.25 7 21.25H7.86426C7.88853 21.2394 7.91988 21.2271 7.95508 21.208C8.07603 21.1425 8.25457 21.0224 8.43946 20.8145C8.73682 20.4799 9.09726 19.863 9.21192 18.75H6.79981C5.97222 18.75 5.30639 18.751 4.76856 18.707C4.22195 18.6624 3.74205 18.5671 3.29785 18.3408C2.59225 17.9813 2.01871 17.4078 1.65918 16.7022C1.43287 16.258 1.33763 15.7781 1.29297 15.2314C1.24903 14.6936 1.25 14.0278 1.25 13.2002V6.79981C1.25 5.97222 1.24903 5.30639 1.29297 4.76856C1.33763 4.22195 1.43287 3.74205 1.65918 3.29785C2.01871 2.59225 2.59225 2.01871 3.29785 1.65918C3.74205 1.43287 4.22195 1.33763 4.76856 1.29297C5.30639 1.24903 5.97222 1.25 6.79981 1.25H17.2002ZM10.7188 18.75C10.6276 19.8378 10.3397 20.6493 9.97266 21.25H13.9004C13.5791 20.6504 13.3469 19.8399 13.2744 18.75H10.7188ZM2.75195 13.75C2.75366 14.3195 2.759 14.7534 2.78809 15.1094C2.82517 15.5632 2.89449 15.824 2.99512 16.0215C3.21083 16.4449 3.55515 16.7892 3.97852 17.0049C4.17602 17.1055 4.4368 17.1748 4.89063 17.2119C5.35322 17.2497 5.94746 17.25 6.79981 17.25H17.2002C18.0525 17.25 18.6468 17.2497 19.1094 17.2119C19.5632 17.1748 19.824 17.1055 20.0215 17.0049C20.4449 16.7892 20.7892 16.4449 21.0049 16.0215C21.1055 15.824 21.1748 15.5632 21.2119 15.1094C21.241 14.7534 21.2463 14.3195 21.248 13.75H2.75195Z" fill="currentColor" />
</svg>