<svg xmlns="http://www.w3.org/2000/svg" width="24" height="24" viewBox="0 0 24 24" fill="none">
<path d="M13.1504 1.25C16.5103 1.25 18.1902 1.25042 19.4736 1.9043C20.6026 2.47954 21.5205 3.39739 22.0957 4.52637C22.7496 5.80977 22.75 7.48965 22.75 10.8496V13.1504C22.75 16.5103 22.7496 18.1902 22.0957 19.4736C21.5205 20.6026 20.6026 21.5205 19.4736 22.0957C18.1902 22.7496 16.5103 22.75 13.1504 22.75H10.8496C7.48965 22.75 5.80977 22.7496 4.52637 22.0957C3.39739 21.5205 2.47954 20.6026 1.9043 19.4736C1.25042 18.1902 1.25 16.5103 1.25 13.1504V10.8496C1.25 7.48965 1.25042 5.80977 1.9043 4.52637C2.47954 3.39739 3.39739 2.47954 4.52637 1.9043C5.80977 1.25042 7.48965 1.25 10.8496 1.25H13.1504ZM12 15.25C11.0352 15.25 10.25 16.0352 10.25 17C10.25 17.9648 11.0352 18.75 12 18.75C12.9648 18.75 13.75 17.9648 13.75 17C13.75 16.0352 12.9648 15.25 12 15.25ZM12 10.25C11.0352 10.25 10.25 11.0352 10.25 12C10.25 12.9648 11.0352 13.75 12 13.75C12.9648 13.75 13.75 12.9648 13.75 12C13.75 11.0352 12.9648 10.25 12 10.25ZM12 5.75C11.0352 5.75 10.25 6.53522 10.25 7.5C10.25 8.46478 11.0352 9.25 12 9.25C12.9648 9.25 13.75 8.46478 13.75 7.5C13.75 6.53522 12.9648 5.75 12 5.75Z" fill="currentColor" />
</svg>