<svg xmlns="http://www.w3.org/2000/svg" width="24" height="24" viewBox="0 0 24 24" fill="none">
<path d="M13.1504 1.25C16.5103 1.25 18.1902 1.25042 19.4736 1.9043C20.6026 2.47954 21.5205 3.39739 22.0957 4.52637C22.7496 5.80977 22.75 7.48965 22.75 10.8496V13.1504C22.75 16.5103 22.7496 18.1902 22.0957 19.4736C21.5205 20.6026 20.6026 21.5205 19.4736 22.0957C18.1902 22.7496 16.5103 22.75 13.1504 22.75H10.8496C7.48965 22.75 5.80977 22.7496 4.52637 22.0957C3.39739 21.5205 2.47954 20.6026 1.9043 19.4736C1.25042 18.1902 1.25 16.5103 1.25 13.1504V10.8496C1.25 7.48965 1.25042 5.80977 1.9043 4.52637C2.47954 3.39739 3.39739 2.47954 4.52637 1.9043C5.80977 1.25042 7.48965 1.25 10.8496 1.25H13.1504ZM7.25 10.5C6.28522 10.5 5.5 11.2852 5.5 12.25C5.5 13.2148 6.28522 14 7.25 14C8.21478 14 9 13.2148 9 12.25C9 11.2852 8.21478 10.5 7.25 10.5ZM11.75 10.5C10.7852 10.5 10 11.2852 10 12.25C10 13.2148 10.7852 14 11.75 14C12.7148 14 13.5 13.2148 13.5 12.25C13.5 11.2852 12.7148 10.5 11.75 10.5ZM16.75 10.5C15.7852 10.5 15 11.2852 15 12.25C15 13.2148 15.7852 14 16.75 14C17.7148 14 18.5 13.2148 18.5 12.25C18.5 11.2852 17.7148 10.5 16.75 10.5Z" fill="currentColor" />
</svg>