<svg xmlns="http://www.w3.org/2000/svg" width="24" height="24" viewBox="0 0 24 24" fill="none">
<path d="M9.5 2L9 2C8.07116 2 7.60674 2 7.21684 2.05133C4.52444 2.40579 2.40579 4.52444 2.05133 7.21684C2 7.60674 2 8.07116 2 9L2 12.4C2 15.7603 2 17.4405 2.65396 18.7239C3.2292 19.8529 4.14709 20.7708 5.27606 21.346C6.55953 22 8.23969 22 11.6 22H12.4C15.7603 22 17.4405 22 18.7239 21.346C19.8529 20.7708 20.7708 19.8529 21.346 18.7239C22 17.4405 22 15.7603 22 12.4V9C22 8.07116 22 7.60674 21.9487 7.21684C21.5942 4.52444 19.4756 2.40579 16.7832 2.05133C16.3933 2 15.9288 2 15 2L14.5 2M7.25 11.5C7.6625 11.5 8 11.8375 8 12.25C8 12.6625 7.6625 13 7.25 13M7.25 11.5C6.8375 11.5 6.5 11.8375 6.5 12.25C6.5 12.6625 6.8375 13 7.25 13M7.25 11.5V13M11.75 11.5C12.1625 11.5 12.5 11.8375 12.5 12.25C12.5 12.6625 12.1625 13 11.75 13M11.75 11.5C11.3375 11.5 11 11.8375 11 12.25C11 12.6625 11.3375 13 11.75 13M11.75 11.5V13M16.75 11.5C17.1625 11.5 17.5 11.8375 17.5 12.25C17.5 12.6625 17.1625 13 16.75 13M16.75 11.5C16.3375 11.5 16 11.8375 16 12.25C16 12.6625 16.3375 13 16.75 13M16.75 11.5V13" stroke="currentColor" stroke-width={2} stroke-linecap="round" stroke-linejoin="round" />
</svg>