<svg xmlns="http://www.w3.org/2000/svg" width="24" height="24" viewBox="0 0 24 24" fill="none">
<path d="M22 9.5V9C22 8.07116 22 7.60674 21.9487 7.21684C21.5942 4.52444 19.4756 2.40579 16.7832 2.05133C16.3933 2 15.9288 2 15 2H11.6C8.23969 2 6.55953 2 5.27606 2.65396C4.14708 3.2292 3.2292 4.14708 2.65396 5.27606C2 6.55953 2 8.23969 2 11.6V12.4C2 15.7603 2 17.4405 2.65396 18.7239C3.2292 19.8529 4.14708 20.7708 5.27606 21.346C6.55953 22 8.23969 22 11.6 22H15C15.9288 22 16.3933 22 16.7832 21.9487C19.4756 21.5942 21.5942 19.4756 21.9487 16.7832C22 16.3933 22 15.9288 22 15V14.5M12.75 7.5C12.75 7.9125 12.4125 8.25 12 8.25C11.5875 8.25 11.25 7.9125 11.25 7.5M12.75 7.5C12.75 7.0875 12.4125 6.75 12 6.75C11.5875 6.75 11.25 7.0875 11.25 7.5M12.75 7.5H11.25M12.75 12C12.75 12.4125 12.4125 12.75 12 12.75C11.5875 12.75 11.25 12.4125 11.25 12M12.75 12C12.75 11.5875 12.4125 11.25 12 11.25C11.5875 11.25 11.25 11.5875 11.25 12M12.75 12H11.25M12.75 17C12.75 17.4125 12.4125 17.75 12 17.75C11.5875 17.75 11.25 17.4125 11.25 17M12.75 17C12.75 16.5875 12.4125 16.25 12 16.25C11.5875 16.25 11.25 16.5875 11.25 17M12.75 17H11.25" stroke="currentColor" stroke-width={2} stroke-linecap="round" stroke-linejoin="round" />
</svg>