<svg xmlns="http://www.w3.org/2000/svg" width="24" height="24" viewBox="0 0 24 24" fill="none">
<path d="M12.5996 1.25C13.7072 1.25 14.5835 1.24909 15.2881 1.30664C16.0014 1.36492 16.6051 1.48682 17.1562 1.76758C18.05 2.22298 18.777 2.94998 19.2324 3.84375C19.4584 4.28737 19.5797 4.76518 19.6494 5.30664C21.4109 5.61423 22.75 7.15045 22.75 9V15C22.75 16.8495 21.4108 18.3847 19.6494 18.6924C19.5797 19.2342 19.4585 19.7124 19.2324 20.1562C18.777 21.05 18.05 21.777 17.1562 22.2324C16.6051 22.5132 16.0014 22.6351 15.2881 22.6934C14.5835 22.7509 13.7072 22.75 12.5996 22.75H11.4004C10.2928 22.75 9.41651 22.7509 8.71191 22.6934C7.99862 22.6351 7.39487 22.5132 6.84375 22.2324C5.94998 21.777 5.22298 21.05 4.76758 20.1562C4.54143 19.7123 4.41931 19.2343 4.34961 18.6924C2.58867 18.3843 1.25 16.8492 1.25 15V9C1.25 7.15078 2.58858 5.61462 4.34961 5.30664C4.41933 4.76513 4.54157 4.2874 4.76758 3.84375C5.22298 2.94998 5.94998 2.22298 6.84375 1.76758C7.39487 1.48682 7.99862 1.36492 8.71191 1.30664C9.41651 1.24909 10.2928 1.25 11.4004 1.25H12.5996ZM13.416 6.37598C13.1859 6.2226 12.8903 6.20849 12.6465 6.33887C12.4026 6.46938 12.25 6.7234 12.25 7V12.5527C11.8747 12.3606 11.4506 12.25 11 12.25C9.48122 12.25 8.25 13.4812 8.25 15C8.25 16.5188 9.48122 17.75 11 17.75C12.5188 17.75 13.75 16.5188 13.75 15V8.40137L15.584 9.62402L15.6504 9.66309C15.9863 9.84073 16.4087 9.73904 16.624 9.41602C16.8394 9.09291 16.7709 8.66361 16.4775 8.42188L16.416 8.37598L13.416 6.37598ZM4.25684 6.87793C3.37975 7.18507 2.75 8.01805 2.75 9V15C2.75 15.9818 3.37991 16.8139 4.25684 17.1211C4.24936 16.6689 4.25 16.1642 4.25 15.5996V8.40039C4.25 7.83541 4.24935 7.33033 4.25684 6.87793ZM19.75 8.40039V15.5996C19.75 16.1642 19.7497 16.6689 19.7422 17.1211C20.6196 16.8141 21.25 15.9822 21.25 15V9C21.25 8.01773 20.6197 7.18483 19.7422 6.87793C19.7497 7.33034 19.75 7.8354 19.75 8.40039ZM11 13.75C11.6904 13.75 12.25 14.3096 12.25 15C12.25 15.6904 11.6904 16.25 11 16.25C10.3096 16.25 9.75 15.6904 9.75 15C9.75 14.3096 10.3096 13.75 11 13.75Z" fill="currentColor" />
</svg>