<svg xmlns="http://www.w3.org/2000/svg" width="24" height="24" viewBox="0 0 24 24" fill="none">
<path opacity={0.32} d="M18.5371 1.8484C18.9849 1.7839 19.4164 1.77125 19.8379 1.90602C20.4739 2.10948 21.0138 2.53761 21.3574 3.11012C21.5852 3.48961 21.6722 3.91235 21.7119 4.36305C21.7511 4.80783 21.75 5.36406 21.75 6.03981V15.9998C21.75 16.414 21.4142 16.7498 21 16.7498C20.5858 16.7498 20.25 16.414 20.25 15.9998V6.03981C20.25 5.33674 20.2488 4.85839 20.2168 4.49488C20.1853 4.13726 20.1286 3.97715 20.0713 3.8816C19.9151 3.62157 19.6698 3.42718 19.3809 3.33473C19.2747 3.3008 19.1062 3.28161 18.751 3.33277C18.3898 3.38484 17.9238 3.49398 17.2393 3.65504L11.6387 4.97242C11.1877 5.07853 10.8884 5.14958 10.6592 5.22145C10.4393 5.29039 10.3328 5.34637 10.2607 5.39918C10.0797 5.53203 9.93749 5.71204 9.84961 5.91871C9.8147 6.00096 9.78435 6.11764 9.76758 6.34742C9.75014 6.58695 9.75 6.8951 9.75 7.35817V18.9998C9.75 19.414 9.41422 19.7498 9 19.7498C8.58579 19.7498 8.25 19.414 8.25 18.9998V7.35817C8.25 6.9165 8.24913 6.54472 8.27149 6.23805C8.29454 5.92206 8.34448 5.6243 8.46875 5.3318C8.66205 4.8771 8.97472 4.4825 9.37305 4.1902C9.62931 4.00219 9.90766 3.88561 10.21 3.79078C10.5033 3.69878 10.865 3.61362 11.2949 3.51246L16.8955 2.19508C17.5535 2.04026 18.0951 1.91211 18.5371 1.8484Z" fill="currentColor" /><path d="M18 12.2502C15.9289 12.2502 14.25 13.9292 14.25 16.0002C14.25 18.0713 15.9289 19.7502 18 19.7502C20.0711 19.7502 21.75 18.0713 21.75 16.0002C21.75 13.9292 20.0711 12.2502 18 12.2502Z" fill="currentColor" /><path d="M6 15.2502C3.92893 15.2502 2.25 16.9292 2.25 19.0002C2.25 21.0713 3.92893 22.7502 6 22.7502C8.07107 22.7502 9.75 21.0713 9.75 19.0002C9.75 16.9292 8.07107 15.2502 6 15.2502Z" fill="currentColor" />
</svg>