<svg xmlns="http://www.w3.org/2000/svg" width="24" height="24" viewBox="0 0 24 24" fill="none">
<path opacity={0.32} d="M19.126 1.70083C19.4734 1.65077 19.83 1.63696 20.1856 1.75063C20.7058 1.91708 21.1475 2.26764 21.4287 2.73598C21.6208 3.05603 21.6899 3.40593 21.7207 3.75551C21.751 4.09927 21.75 4.52648 21.75 5.02993V6.12563C21.75 6.72581 21.764 7.24784 21.5742 7.69985C21.4193 8.06863 21.1688 8.38975 20.8486 8.62954C20.4562 8.92339 19.9465 9.03574 19.3643 9.18129L9.75001 11.5846V18.9997C9.75001 19.4139 9.41422 19.7497 9.00001 19.7497C8.58579 19.7497 8.25001 19.4139 8.25001 18.9997V6.72426C8.25 6.39588 8.24924 6.10905 8.26661 5.87075C8.28469 5.62308 8.32534 5.37708 8.42969 5.13149C8.58787 4.75951 8.84305 4.43604 9.16895 4.19692C9.38418 4.03906 9.61454 3.94411 9.85157 3.86977C10.0797 3.79825 10.3589 3.73312 10.6787 3.65786L17.8789 1.96352C18.3689 1.84822 18.7844 1.75005 19.126 1.70083Z" fill="currentColor" /><path d="M6 15.25C3.92893 15.25 2.25 16.9289 2.25 19C2.25 21.0711 3.92893 22.75 6 22.75C8.07107 22.75 9.75 21.0711 9.75 19C9.75 16.9289 8.07107 15.25 6 15.25Z" fill="currentColor" />
</svg>