<svg xmlns="http://www.w3.org/2000/svg" width="24" height="24" viewBox="0 0 24 24" fill="none">
<path opacity={0.32} d="M8.45 1.25C5.92976 1.25 4.66965 1.25 3.70704 1.74047C2.86031 2.1719 2.1719 2.86031 1.74047 3.70704C1.25 4.66965 1.25 5.92976 1.25 8.45V15.55C1.25 18.0702 1.25 19.3304 1.74047 20.293C2.1719 21.1397 2.86031 21.8281 3.70704 22.2595C4.66965 22.75 5.92976 22.75 8.45 22.75H9.55C12.0702 22.75 13.3304 22.75 14.293 22.2595C15.1397 21.8281 15.8281 21.1397 16.2595 20.293C16.75 19.3304 16.75 18.0702 16.75 15.55V8.45C16.75 5.92976 16.75 4.66965 16.2595 3.70704C15.8281 2.86031 15.1397 2.1719 14.293 1.74047C13.3304 1.25 12.0702 1.25 9.55 1.25H8.45Z" fill="currentColor" /><path d="M19 5.25C19.4142 5.25 19.75 5.58579 19.75 6V18C19.75 18.4142 19.4142 18.75 19 18.75C18.5858 18.75 18.25 18.4142 18.25 18V6C18.25 5.58579 18.5858 5.25 19 5.25ZM9.64648 6.33887C9.89031 6.20849 10.1859 6.2226 10.416 6.37598L13.416 8.37598L13.4775 8.42188C13.7709 8.66361 13.8394 9.09291 13.624 9.41602C13.4087 9.73904 12.9863 9.84073 12.6504 9.66309L12.584 9.62402L10.75 8.40137V15C10.75 16.5188 9.51878 17.75 8 17.75C6.48122 17.75 5.25 16.5188 5.25 15C5.25 13.4812 6.48122 12.25 8 12.25C8.45058 12.25 8.87468 12.3606 9.25 12.5527V7L9.25684 6.89746C9.28932 6.66175 9.43311 6.45306 9.64648 6.33887ZM22 7.25C22.4142 7.25 22.75 7.58579 22.75 8V16C22.75 16.4142 22.4142 16.75 22 16.75C21.5858 16.75 21.25 16.4142 21.25 16V8C21.25 7.58579 21.5858 7.25 22 7.25ZM8 13.75C7.30964 13.75 6.75 14.3096 6.75 15C6.75 15.6904 7.30964 16.25 8 16.25C8.69036 16.25 9.25 15.6904 9.25 15C9.25 14.3096 8.69036 13.75 8 13.75Z" fill="currentColor" />
</svg>