<svg xmlns="http://www.w3.org/2000/svg" width="24" height="24" viewBox="0 0 24 24" fill="none">
<path opacity={0.32} d="M18.5322 1.84727C18.968 1.78346 19.388 1.76899 19.7998 1.89414C20.4648 2.09633 21.0288 2.54311 21.3779 3.14414C21.5939 3.5162 21.6762 3.92818 21.7139 4.3668C21.7511 4.80014 21.75 5.3419 21.75 5.99961V15.9996C21.75 16.4138 21.4142 16.7496 21 16.7496C20.5858 16.7496 20.25 16.4138 20.25 15.9996V6.95957L9.75 9.58457V18.9996C9.75 19.4138 9.41422 19.7496 9 19.7496C8.58579 19.7496 8.25 19.4138 8.25 18.9996V7.35801C8.25 6.91639 8.24913 6.54454 8.27149 6.23789C8.29455 5.92194 8.34449 5.62412 8.46875 5.33164C8.66206 4.87698 8.97474 4.48233 9.37305 4.19004C9.6293 4.00206 9.90767 3.88545 10.21 3.79063C10.5033 3.69863 10.865 3.61346 11.2949 3.51231L16.9346 2.18614C17.5749 2.03547 18.1018 1.91031 18.5322 1.84727Z" fill="currentColor" /><path d="M18 12.25C15.9289 12.25 14.25 13.9289 14.25 16C14.25 18.0711 15.9289 19.75 18 19.75C20.0711 19.75 21.75 18.0711 21.75 16C21.75 13.9289 20.0711 12.25 18 12.25Z" fill="currentColor" /><path d="M6 15.25C3.92893 15.25 2.25 16.9289 2.25 19C2.25 21.0711 3.92893 22.75 6 22.75C8.07107 22.75 9.75 21.0711 9.75 19C9.75 16.9289 8.07107 15.25 6 15.25Z" fill="currentColor" />
</svg>