<svg xmlns="http://www.w3.org/2000/svg" width="24" height="24" viewBox="0 0 24 24" fill="none">
<path d="M13.5 4H8.4C6.15979 4 5.03968 4 4.18404 4.43597C3.43139 4.81947 2.81947 5.43139 2.43597 6.18404C2 7.03968 2 8.15979 2 10.4V10.5V11M20 10.5V15.6C20 17.8402 20 18.9603 19.564 19.816C19.1805 20.5686 18.5686 21.1805 17.816 21.564C16.9603 22 15.8402 22 13.6 22H8.4C6.15979 22 5.03968 22 4.18404 21.564C3.43139 21.1805 2.81947 20.5686 2.43597 19.816C2 18.9603 2 17.8402 2 15.6V15.5V15M12 16C12 17.1046 11.1046 18 10 18C8.89543 18 8 17.1046 8 16C8 14.8954 8.89543 14 10 14C11.1046 14 12 14.8954 12 16ZM12 16V8L15 10M20 1V4M20 4V7M20 4H17M20 4H23" stroke="currentColor" stroke-width={1.5} stroke-linecap="round" stroke-linejoin="round" />
</svg>