<svg xmlns="http://www.w3.org/2000/svg" width="24" height="24" viewBox="0 0 24 24" fill="none">
<path d="M12 10.25L19.1821 8.45448C19.8321 8.29198 20.1571 8.21073 20.3991 8.02953C20.6126 7.86966 20.7796 7.65575 20.8829 7.40985C21 7.13114 21 6.79614 21 6.12614V5.03025C21 3.99562 21 3.47831 20.7861 3.12197C20.5986 2.80959 20.3039 2.57612 19.9568 2.46516C19.561 2.33859 19.0574 2.45708 18.0503 2.69405L10.8503 4.38816C10.1894 4.54366 9.85901 4.62141 9.61265 4.80217C9.39532 4.96163 9.22497 5.17671 9.11953 5.42478C9 5.70599 9 6.04545 9 6.72437V11V19C9 20.6569 7.65685 22 6 22C4.34315 22 3 20.6569 3 19C3 17.3431 4.34315 16 6 16" stroke="currentColor" stroke-width={1.5} stroke-linecap="round" stroke-linejoin="round" />
</svg>