<svg xmlns="http://www.w3.org/2000/svg" width="24" height="24" viewBox="0 0 24 24" fill="none">
<path d="M9 19V7.35797C9 6.45276 9 6.00015 9.15937 5.6252C9.29996 5.29443 9.52709 5.00766 9.81686 4.79505C10.1453 4.55404 10.5859 4.45037 11.4671 4.24304L12 4.11765L13 3.88235M9 19C9 20.6569 7.65685 22 6 22C4.34315 22 3 20.6569 3 19C3 17.3431 4.34315 16 6 16C7.65685 16 9 17.3431 9 19ZM17 2.94118L18 2.70588C18.4906 2.59045 18.7359 2.53273 18.9351 2.52626C19.9115 2.49455 20.7679 3.17286 20.9607 4.13056C21 4.32592 21 4.57792 21 5.08193V16C21 17.6569 19.6569 19 18 19C16.3431 19 15 17.6569 15 16C15 14.3431 16.3431 13 18 13" stroke="currentColor" stroke-width={1.5} stroke-linecap="round" stroke-linejoin="round" />
</svg>