<svg xmlns="http://www.w3.org/2000/svg" width="24" height="24" viewBox="0 0 24 24" fill="none">
<path opacity={0.32} d="M11.45 1.25C8.92976 1.25 7.66965 1.25 6.70704 1.74047C5.86031 2.1719 5.1719 2.86031 4.74047 3.70704C4.25 4.66965 4.25 5.92976 4.25 8.45V15.55C4.25 18.0702 4.25 19.3304 4.74047 20.293C5.1719 21.1397 5.86031 21.8281 6.70704 22.2595C7.66965 22.75 8.92976 22.75 11.45 22.75H12.55C15.0702 22.75 16.3304 22.75 17.293 22.2595C18.1397 21.8281 18.8281 21.1397 19.2595 20.293C19.75 19.3304 19.75 18.0702 19.75 15.55V8.45C19.75 5.92976 19.75 4.66965 19.2595 3.70704C18.8281 2.86031 18.1397 2.1719 17.293 1.74047C16.3304 1.25 15.0702 1.25 12.55 1.25H11.45Z" fill="currentColor" /><path d="M4.25 18C2.45507 18 1 16.5449 1 14.75V9.25C1 7.45507 2.45507 6 4.25 6V18ZM19.75 6C21.5449 6 23 7.45507 23 9.25V14.75C23 16.5449 21.5449 18 19.75 18V6ZM12.6465 6.33887C12.8903 6.20849 13.1859 6.2226 13.416 6.37598L16.416 8.37598L16.4775 8.42188C16.7709 8.66361 16.8394 9.09291 16.624 9.41602C16.4087 9.73904 15.9863 9.84073 15.6504 9.66309L15.584 9.62402L13.75 8.40137V15C13.75 16.5188 12.5188 17.75 11 17.75C9.48122 17.75 8.25 16.5188 8.25 15C8.25 13.4812 9.48122 12.25 11 12.25C11.4506 12.25 11.8747 12.3606 12.25 12.5527V7C12.25 6.7234 12.4026 6.46938 12.6465 6.33887ZM11 13.75C10.3096 13.75 9.75 14.3096 9.75 15C9.75 15.6904 10.3096 16.25 11 16.25C11.6904 16.25 12.25 15.6904 12.25 15C12.25 14.3096 11.6904 13.75 11 13.75Z" fill="currentColor" />
</svg>