<svg xmlns="http://www.w3.org/2000/svg" width="24" height="24" viewBox="0 0 24 24" fill="none">
<path d="M2 10V9.5V8.4C2 6.15979 2 5.03968 2.43597 4.18404C2.81947 3.43139 3.43139 2.81947 4.18404 2.43597C5.03968 2 6.15979 2 8.4 2H9.6C11.8402 2 12.9603 2 13.816 2.43597C14.5686 2.81947 15.1805 3.43139 15.564 4.18404C16 5.03968 16 6.15979 16 8.4V15.6C16 17.8402 16 18.9603 15.564 19.816C15.1805 20.5686 14.5686 21.1805 13.816 21.564C12.9603 22 11.8402 22 9.6 22H8.4C6.15979 22 5.03968 22 4.18404 21.564C3.43139 21.1805 2.81947 20.5686 2.43597 19.816C2 18.9603 2 17.8402 2 15.6V14.5V14M19 6V18M22 8V16M10 15C10 16.1046 9.10457 17 8 17C6.89543 17 6 16.1046 6 15C6 13.8954 6.89543 13 8 13C9.10457 13 10 13.8954 10 15ZM10 15V7L13 9" stroke="currentColor" stroke-width={1.5} stroke-linecap="round" stroke-linejoin="round" />
</svg>