<svg xmlns="http://www.w3.org/2000/svg" width="24" height="24" viewBox="0 0 24 24" fill="none">
<path opacity={0.32} d="M1.25 9.65V16.35C1.25 18.5902 1.25 19.7103 1.68597 20.566C2.06947 21.3186 2.68139 21.9305 3.43404 22.314C4.28969 22.75 5.40979 22.75 7.65 22.75H14.35C16.5902 22.75 17.7103 22.75 18.566 22.314C19.3186 21.9305 19.9305 21.3186 20.314 20.566C20.75 19.7103 20.75 18.5902 20.75 16.35V9.5V8H16V3.25H14.5H7.65C5.40979 3.25 4.28969 3.25 3.43404 3.68597C2.68139 4.06947 2.06947 4.68139 1.68597 5.43404C1.25 6.28969 1.25 7.40979 1.25 9.65Z" fill="currentColor" /><path d="M9.64648 9.33887C9.89031 9.20849 10.1859 9.2226 10.416 9.37598L13.416 11.376L13.4775 11.4219C13.7709 11.6636 13.8394 12.0929 13.624 12.416C13.4087 12.739 12.9863 12.8407 12.6504 12.6631L12.584 12.624L10.75 11.4014V16C10.75 17.5188 9.51878 18.75 8 18.75C6.48122 18.75 5.25 17.5188 5.25 16C5.25 14.4812 6.48122 13.25 8 13.25C8.45058 13.25 8.87468 13.3606 9.25 13.5527V10C9.25 9.7234 9.40262 9.46938 9.64648 9.33887ZM8 14.75C7.30964 14.75 6.75 15.3096 6.75 16C6.75 16.6904 7.30964 17.25 8 17.25C8.69036 17.25 9.25 16.6904 9.25 16C9.25 15.3096 8.69036 14.75 8 14.75ZM19.7998 1C20.9199 1 21.4804 0.999786 21.9082 1.21777C22.2845 1.40951 22.5905 1.71554 22.7822 2.0918C23.0002 2.51962 23 3.08009 23 4.2002V5.7998C23 6.91991 23.0002 7.48038 22.7822 7.9082C22.5905 8.28446 22.2845 8.59049 21.9082 8.78223C21.4804 9.00021 20.9199 9 19.7998 9H18.2002C17.0801 9 16.5196 9.00021 16.0918 8.78223C15.7155 8.59049 15.4095 8.28446 15.2178 7.9082C14.9998 7.48038 15 6.91991 15 5.7998V4.2002C15 3.08009 14.9998 2.51962 15.2178 2.0918C15.4095 1.71554 15.7155 1.40951 16.0918 1.21777C16.5196 0.999786 17.0801 1 18.2002 1H19.7998ZM19 2.25C18.5858 2.25 18.25 2.58579 18.25 3V4.25H17C16.5858 4.25 16.25 4.58579 16.25 5C16.25 5.41421 16.5858 5.75 17 5.75H18.25V7C18.25 7.41421 18.5858 7.75 19 7.75C19.4142 7.75 19.75 7.41421 19.75 7V5.75H21C21.4142 5.75 21.75 5.41421 21.75 5C21.75 4.58579 21.4142 4.25 21 4.25H19.75V3C19.75 2.58579 19.4142 2.25 19 2.25Z" fill="currentColor" />
</svg>