<svg xmlns="http://www.w3.org/2000/svg" width="24" height="24" viewBox="0 0 24 24" fill="none">
<path d="M9.59961 1.25C10.7072 1.25 11.5835 1.24909 12.2881 1.30664C13.0014 1.36492 13.6051 1.48682 14.1563 1.76758C15.05 2.22298 15.777 2.94998 16.2324 3.84375C16.5132 4.39487 16.6351 4.99862 16.6934 5.71192C16.7509 6.41651 16.75 7.29277 16.75 8.40039V15.5996C16.75 16.7072 16.7509 17.5835 16.6934 18.2881C16.6351 19.0014 16.5132 19.6051 16.2324 20.1562C15.777 21.05 15.05 21.777 14.1563 22.2324C13.6051 22.5132 13.0014 22.6351 12.2881 22.6934C11.5835 22.7509 10.7072 22.75 9.59961 22.75H8.40039C7.29277 22.75 6.41651 22.7509 5.71192 22.6934C4.99862 22.6351 4.39487 22.5132 3.84375 22.2324C2.94998 21.777 2.22298 21.05 1.76758 20.1562C1.48682 19.6051 1.36492 19.0014 1.30664 18.2881C1.24909 17.5835 1.25 16.7072 1.25 15.5996V8.40039C1.25 7.29277 1.24909 6.41651 1.30664 5.71192C1.36492 4.99862 1.48682 4.39487 1.76758 3.84375C2.22298 2.94998 2.94998 2.22298 3.84375 1.76758C4.39487 1.48682 4.99862 1.36492 5.71192 1.30664C6.41651 1.24909 7.29277 1.25 8.40039 1.25H9.59961ZM19 5.25C19.4142 5.25 19.75 5.58579 19.75 6V18C19.75 18.4142 19.4142 18.75 19 18.75C18.5858 18.75 18.25 18.4142 18.25 18V6C18.25 5.58579 18.5858 5.25 19 5.25ZM10.416 6.37598C10.186 6.2226 9.89031 6.20849 9.64649 6.33887C9.40262 6.46938 9.25 6.7234 9.25 7V12.5527C8.87468 12.3606 8.45058 12.25 8 12.25C6.48122 12.25 5.25 13.4812 5.25 15C5.25 16.5188 6.48122 17.75 8 17.75C9.51878 17.75 10.75 16.5188 10.75 15V8.40137L12.584 9.62402L12.6504 9.66309C12.9863 9.84073 13.4087 9.73904 13.624 9.41602C13.8394 9.09291 13.7709 8.66361 13.4775 8.42188L13.416 8.37598L10.416 6.37598ZM22 7.25C22.4142 7.25 22.75 7.58579 22.75 8V16C22.75 16.4142 22.4142 16.75 22 16.75C21.5858 16.75 21.25 16.4142 21.25 16V8C21.25 7.58579 21.5858 7.25 22 7.25ZM8 13.75C8.69036 13.75 9.25 14.3096 9.25 15C9.25 15.6904 8.69036 16.25 8 16.25C7.30965 16.25 6.75 15.6904 6.75 15C6.75 14.3096 7.30965 13.75 8 13.75Z" fill="currentColor" />
</svg>