<svg xmlns="http://www.w3.org/2000/svg" width="24" height="24" viewBox="0 0 24 24" fill="none">
<path d="M12.9375 3.25C13.4622 3.25 13.7247 3.24969 13.9277 3.3457C14.1369 3.44462 14.3054 3.61314 14.4043 3.82227C14.5003 4.02526 14.5 4.2878 14.5 4.8125C14.5 6.38632 14.5002 7.17328 14.7881 7.78223C15.0848 8.40965 15.5903 8.91516 16.2178 9.21191C16.8267 9.49979 17.6137 9.5 19.1875 9.5C19.7122 9.5 19.9747 9.49969 20.1777 9.5957C20.3869 9.69462 20.5554 9.86314 20.6543 10.0723C20.7503 10.2753 20.75 10.5378 20.75 11.0625V16.3496C20.75 18.5898 20.7504 19.7108 20.3145 20.5664C19.931 21.3189 19.3189 21.931 18.5664 22.3145C17.7108 22.7504 16.5898 22.75 14.3496 22.75H7.65039C5.41018 22.75 4.28924 22.7504 3.43359 22.3145C2.68109 21.931 2.06902 21.3189 1.68555 20.5664C1.24957 19.7108 1.25 18.5898 1.25 16.3496V9.65039C1.25 7.41018 1.24957 6.28924 1.68555 5.43359C2.06902 4.68109 2.68109 4.06902 3.43359 3.68555C4.28924 3.24957 5.41018 3.25 7.65039 3.25H12.9375ZM10.416 9.37598C10.1859 9.2226 9.89031 9.20849 9.64648 9.33887C9.40262 9.46938 9.25 9.7234 9.25 10V13.5527C8.87468 13.3606 8.45058 13.25 8 13.25C6.48122 13.25 5.25 14.4812 5.25 16C5.25 17.5188 6.48122 18.75 8 18.75C9.51878 18.75 10.75 17.5188 10.75 16V11.4014L12.584 12.624L12.6504 12.6631C12.9863 12.8407 13.4087 12.739 13.624 12.416C13.8394 12.0929 13.7709 11.6636 13.4775 11.4219L13.416 11.376L10.416 9.37598ZM8 14.75C8.69036 14.75 9.25 15.3096 9.25 16C9.25 16.6904 8.69036 17.25 8 17.25C7.30964 17.25 6.75 16.6904 6.75 16C6.75 15.3096 7.30964 14.75 8 14.75ZM20.7998 8.16361e-10C21.9199 8.16361e-10 22.4804 -0.00021353 22.9082 0.217773C23.2845 0.409508 23.5905 0.715544 23.7822 1.0918C24.0002 1.51962 24 2.08009 24 3.2002V4.7998C24 5.91991 24.0002 6.48038 23.7822 6.9082C23.5905 7.28446 23.2845 7.59049 22.9082 7.78223C22.4804 8.00021 21.9199 8 20.7998 8H19.2002C18.0801 8 17.5196 8.00021 17.0918 7.78223C16.7155 7.59049 16.4095 7.28446 16.2178 6.9082C15.9998 6.48038 16 5.91991 16 4.7998V3.2002C16 2.08009 15.9998 1.51962 16.2178 1.0918C16.4095 0.715544 16.7155 0.409508 17.0918 0.217773C17.5196 -0.00021353 18.0801 8.16361e-10 19.2002 8.16361e-10H20.7998ZM20 1.25C19.5858 1.25 19.25 1.58579 19.25 2V3.25H18C17.5858 3.25 17.25 3.58579 17.25 4C17.25 4.41421 17.5858 4.75 18 4.75H19.25V6C19.25 6.41421 19.5858 6.75 20 6.75C20.4142 6.75 20.75 6.41421 20.75 6V4.75H22C22.4142 4.75 22.75 4.41421 22.75 4C22.75 3.58579 22.4142 3.25 22 3.25H20.75V2C20.75 1.58579 20.4142 1.25 20 1.25Z" fill="currentColor" />
</svg>