<svg xmlns="http://www.w3.org/2000/svg" width="24" height="24" viewBox="0 0 24 24" fill="none">
<path d="M18.5322 1.84751C18.968 1.7837 19.388 1.76923 19.7998 1.89439C20.4648 2.09658 21.0288 2.54335 21.3779 3.14439C21.5939 3.51644 21.6762 3.92842 21.7139 4.36705C21.7511 4.80039 21.75 5.34214 21.75 5.99986V15.9999C21.75 18.0709 20.0711 19.7499 18 19.7499C15.9289 19.7499 14.25 18.0709 14.25 15.9999C14.2501 13.9289 15.929 12.2499 18 12.2499C18.844 12.2499 19.6233 12.5283 20.25 12.9989V6.95982L9.75 9.58482V18.9999C9.75 21.0709 8.07107 22.7499 6 22.7499C3.92893 22.7499 2.25 21.0709 2.25 18.9999C2.25014 16.9289 3.92902 15.2499 6 15.2499C6.844 15.2499 7.62333 15.5283 8.25 15.9989V7.35826C8.25 6.91663 8.24913 6.54479 8.27148 6.23814C8.29454 5.92218 8.34449 5.62436 8.46875 5.33189C8.66205 4.87722 8.97473 4.48257 9.37305 4.19029C9.6293 4.0023 9.90767 3.8857 10.21 3.79087C10.5033 3.69887 10.865 3.6137 11.2949 3.51255L16.9346 2.18638C17.5749 2.03572 18.1018 1.91055 18.5322 1.84751Z" fill="currentColor" />
</svg>