<svg xmlns="http://www.w3.org/2000/svg" width="24" height="24" viewBox="0 0 24 24" fill="none">
<path d="M11.4404 0.726782C11.8057 0.620372 12.1942 0.620372 12.5595 0.726782C12.9738 0.847561 13.3431 1.16474 14.082 1.79807L14.8788 2.48069C15.2113 2.76566 15.3778 2.90846 15.5654 3.00999C15.7318 3.10002 15.9107 3.16538 16.0956 3.2053C16.3041 3.25024 16.5231 3.25022 16.9609 3.25022L17.5497 3.25022C18.6698 3.25022 19.2303 3.25098 19.6581 3.46897C20.0343 3.66073 20.3405 3.96679 20.5322 4.34299C20.75 4.77074 20.7499 5.33079 20.7499 6.45042L20.7499 7.03928C20.7499 7.47748 20.7498 7.69691 20.7949 7.90549C20.8348 8.09048 20.9011 8.26933 20.9911 8.43577C21.0927 8.62325 21.2355 8.78986 21.5204 9.12229L22.2031 9.91819C22.8365 10.6572 23.1526 11.0272 23.2734 11.4416C23.3797 11.8068 23.3797 12.1946 23.2734 12.5598C23.1526 12.9742 22.8365 13.3442 22.2031 14.0832L21.5204 14.8791C21.2355 15.2116 21.0927 15.3782 20.9911 15.5657C20.9011 15.7321 20.8348 15.9109 20.7949 16.0959C20.7498 16.3045 20.7499 16.5239 20.7499 16.9621L20.7499 17.551C20.7499 18.6706 20.75 19.2307 20.5322 19.6584C20.3405 20.0346 20.0343 20.3407 19.6581 20.5324C19.2303 20.7504 18.6698 20.7502 17.5497 20.7502L16.9609 20.7502C16.523 20.7502 16.3041 20.7512 16.0956 20.7961C15.9107 20.836 15.7318 20.9014 15.5654 20.9914C15.3777 21.093 15.2113 21.2357 14.8788 21.5207L14.082 22.2033C13.3431 22.8367 12.9738 23.1539 12.5595 23.2746C12.1942 23.381 11.8057 23.381 11.4404 23.2746C11.0259 23.1539 10.656 22.8368 9.91692 22.2033L9.12102 21.5207C8.7885 21.2357 8.62212 21.093 8.4345 20.9914C8.26806 20.9014 8.08921 20.836 7.90423 20.7961C7.69576 20.7512 7.47681 20.7502 7.03899 20.7502L6.41594 20.7502C5.29584 20.7502 4.73537 20.7504 4.30755 20.5324C3.93132 20.3407 3.62523 20.0347 3.43352 19.6584C3.21568 19.2307 3.21575 18.6707 3.21575 17.551L3.21575 16.9494C3.21575 16.515 3.21611 16.297 3.1718 16.0901C3.13252 15.9067 3.067 15.73 2.97845 15.5647C2.87844 15.3781 2.73785 15.2116 2.45696 14.8801L1.76946 14.0696C1.14682 13.3348 0.835564 12.9671 0.716727 12.5559C0.612 12.1933 0.612 11.8081 0.716727 11.4455C0.835556 11.0343 1.14682 10.6667 1.76946 9.93186L2.45696 9.12131C2.73785 8.78983 2.87844 8.6233 2.97845 8.43674C3.06701 8.27146 3.13252 8.09471 3.17181 7.91135C3.21612 7.70437 3.21575 7.48646 3.21575 7.05198L3.21575 6.45041C3.21575 5.33073 3.2157 4.77075 3.43353 4.34299C3.62523 3.96674 3.93132 3.66072 4.30755 3.46897C4.73537 3.25098 5.29584 3.25022 6.41595 3.25022L7.03899 3.25022C7.47681 3.25022 7.69576 3.25026 7.90423 3.2053C8.08921 3.16537 8.26807 3.10004 8.4345 3.00998C8.62212 2.90845 8.78851 2.7657 9.12103 2.48069L9.91692 1.79807C10.656 1.16459 11.0259 0.847546 11.4404 0.726782ZM11.9999 14.7502C11.3097 14.7504 10.7499 15.31 10.7499 16.0002C10.7499 16.6905 11.3097 17.2501 11.9999 17.2502C12.6903 17.2502 13.2499 16.6906 13.2499 16.0002C13.2499 15.3099 12.6903 14.7502 11.9999 14.7502ZM11.9999 7.25022C11.5858 7.25037 11.2499 7.5861 11.2499 8.00022L11.2499 13.0002C11.2499 13.4143 11.5859 13.7501 11.9999 13.7502C12.4141 13.7502 12.7499 13.4144 12.7499 13.0002L12.7499 8.00022C12.7499 7.58601 12.4141 7.25022 11.9999 7.25022Z" fill="currentColor" />
</svg>