<svg xmlns="http://www.w3.org/2000/svg" width="24" height="24" viewBox="0 0 24 24" fill="none">
<path d="M16 7V11M6 16H4M2 16H4M6 12H4M2 12H4M6 8H4M2 8H4M4 16V14M4 14V12M4 14C4 16.8003 4 18.2004 4.54497 19.27C5.02433 20.2108 5.78924 20.9757 6.73005 21.455C7.79961 22 9.19974 22 12 22C14.8003 22 16.2004 22 17.27 21.455C18.2108 20.9757 18.9757 20.2108 19.455 19.27C20 18.2004 20 16.8003 20 14V10C20 7.19974 20 5.79961 19.455 4.73005C18.9757 3.78924 18.2108 3.02433 17.27 2.54497C16.2004 2 14.8003 2 12 2C9.19974 2 7.79961 2 6.73005 2.54497C5.78924 3.02433 5.02433 3.78924 4.54497 4.73005M4 12V8" stroke="currentColor" stroke-width={1.5} stroke-linecap="round" stroke-linejoin="round" />
</svg>