<svg xmlns="http://www.w3.org/2000/svg" width="24" height="24" viewBox="0 0 24 24" fill="none">
<path d="M13.1504 1.25C16.5103 1.25 18.1902 1.25042 19.4736 1.9043C20.6026 2.47954 21.5205 3.39739 22.0957 4.52637C22.7496 5.80977 22.75 7.48965 22.75 10.8496V15.25H19.2002C18.6525 15.25 18.1963 15.249 17.8252 15.2793C17.4455 15.3103 17.0891 15.3781 16.752 15.5498C16.2345 15.8135 15.8135 16.2345 15.5498 16.752C15.3781 17.0891 15.3103 17.4455 15.2793 17.8252C15.249 18.1963 15.25 18.6525 15.25 19.2002V22.749C15.2245 22.749 15.1985 22.75 15.1719 22.75H10.8496C7.48965 22.75 5.80977 22.7496 4.52637 22.0957C3.39739 21.5205 2.47954 20.6026 1.9043 19.4736C1.25042 18.1902 1.25 16.5103 1.25 13.1504V10.8496C1.25 7.48965 1.25042 5.80977 1.9043 4.52637C2.47954 3.39739 3.39739 2.47954 4.52637 1.9043C5.80977 1.25042 7.48965 1.25 10.8496 1.25H13.1504ZM22.6777 16.75C22.5145 17.7963 22.0771 18.7825 21.4072 19.6074C21.2117 19.8482 20.9847 20.0758 20.5303 20.5303C20.0758 20.9847 19.8482 21.2117 19.6074 21.4072C18.7826 22.0771 17.7963 22.5135 16.75 22.6768V19.2002C16.75 18.6278 16.7502 18.2431 16.7744 17.9473C16.7979 17.6603 16.8406 17.5232 16.8867 17.4326C17.0065 17.1975 17.1975 17.0065 17.4326 16.8867C17.5232 16.8406 17.6603 16.7979 17.9473 16.7744C18.2431 16.7502 18.6278 16.75 19.2002 16.75H22.6777ZM8 15.25C7.58579 15.25 7.25 15.5858 7.25 16C7.25 16.4142 7.58579 16.75 8 16.75H10C10.4142 16.75 10.75 16.4142 10.75 16C10.75 15.5858 10.4142 15.25 10 15.25H8ZM8 11.25C7.58579 11.25 7.25 11.5858 7.25 12C7.25 12.4142 7.58579 12.75 8 12.75H14C14.4142 12.75 14.75 12.4142 14.75 12C14.75 11.5858 14.4142 11.25 14 11.25H8ZM8 7.25C7.58579 7.25 7.25 7.58579 7.25 8C7.25 8.41421 7.58579 8.75 8 8.75H16C16.4142 8.75 16.75 8.41421 16.75 8C16.75 7.58579 16.4142 7.25 16 7.25H8Z" fill="currentColor" />
</svg>