<svg xmlns="http://www.w3.org/2000/svg" width="24" height="24" viewBox="0 0 24 24" fill="none">
<path d="M16 7V11M6 16H2M6 12H2M6 8H2M12 22C9.19974 22 7.79961 22 6.73005 21.455C5.78924 20.9757 5.02433 20.2108 4.54497 19.27C4 18.2004 4 16.8003 4 14V10C4 7.19974 4 5.79961 4.54497 4.73005C5.02433 3.78924 5.78924 3.02433 6.73005 2.54497C7.79961 2 9.19974 2 12 2C14.8003 2 16.2004 2 17.27 2.54497C18.2108 3.02433 18.9757 3.78924 19.455 4.73005C20 5.79961 20 7.19974 20 10V14C20 16.8003 20 18.2004 19.455 19.27C18.9757 20.2108 18.2108 20.9757 17.27 21.455C16.2004 22 14.8003 22 12 22Z" stroke="currentColor" stroke-width={1.5} stroke-linecap="round" stroke-linejoin="round" />
</svg>