<svg xmlns="http://www.w3.org/2000/svg" width="24" height="24" viewBox="0 0 24 24" fill="none">
<path d="M2 10V9.5C2 8.10603 2 7.40905 2.11529 6.82946C2.58873 4.44931 4.44931 2.58873 6.82946 2.11529C7.40905 2 8.10603 2 9.5 2H12.4C15.7603 2 17.4405 2 18.7239 2.65396C19.8529 3.2292 20.7708 4.14708 21.346 5.27606C22 6.55953 22 8.23969 22 11.6V12.4C22 15.7603 22 17.4405 21.346 18.7239C20.7708 19.8529 19.8529 20.7708 18.7239 21.346C17.4405 22 15.7603 22 12.4 22H9.5C8.10603 22 7.40905 22 6.82946 21.8847C4.44931 21.4113 2.58873 19.5507 2.11529 17.1705C2 16.5909 2 15.894 2 14.5V14M7 9H17M7 13H13M7 17H9M8 1V4M12 1V4M16 1V4" stroke="currentColor" stroke-width={1.5} stroke-linecap="round" stroke-linejoin="round" />
</svg>