<svg xmlns="http://www.w3.org/2000/svg" width="40" height="40" viewBox="0 0 40 40" fill="none">
<path d="M19.9999 5.00004H14.1666C11.8424 5.00004 10.6803 5.00004 9.72121 5.23029C6.67413 5.96183 4.29504 8.34092 3.5635 11.388C3.33325 12.3471 3.33325 13.5092 3.33325 15.8334V16.6667M34.9999 20V23.3334C34.9999 28.0005 34.9999 30.334 34.0916 32.1166C33.2927 33.6846 32.0179 34.9595 30.4498 35.7584C28.6672 36.6667 26.3337 36.6667 21.6666 36.6667H14.1666C11.8424 36.6667 10.6803 36.6667 9.72121 36.4365C6.67413 35.7049 4.29504 33.3258 3.5635 30.2788C3.33325 29.3197 3.33325 28.1576 3.33325 25.8334V25M36.6666 8.33337C36.6666 11.0948 34.428 13.3334 31.6666 13.3334C28.9052 13.3334 26.6666 11.0948 26.6666 8.33337C26.6666 5.57195 28.9052 3.33337 31.6666 3.33337C34.428 3.33337 36.6666 5.57195 36.6666 8.33337Z" stroke="currentColor" stroke-width={2.5} stroke-linecap="round" stroke-linejoin="round" />
</svg>