<svg xmlns="http://www.w3.org/2000/svg" width="24" height="24" viewBox="0 0 24 24" fill="none">
<path d="M18.5468 9.49857C18.9602 9.47274 19.2744 9.11666 19.2486 8.70325C19.2227 8.28984 18.8667 7.97566 18.4533 8.0015L16.4533 8.1265C16.0398 8.15233 15.7257 8.50841 15.7515 8.92182C15.7773 9.33523 16.1334 9.64941 16.5468 9.62357L16.75 9.61087V15.7728L10.9511 8.81667C10.7981 8.63311 10.5668 8.53346 10.3283 8.54837L9.07825 8.6265C8.66485 8.65233 8.35066 9.00841 8.3765 9.42182C8.40234 9.83523 8.75841 10.1494 9.17182 10.1236L9.62504 10.0952V17.6236L9.45325 17.6343C9.03985 17.6601 8.72566 18.0162 8.7515 18.4296C8.77734 18.843 9.13341 19.1572 9.54682 19.1314L11.5468 19.0064C11.9602 18.9805 12.2744 18.6245 12.2486 18.2111C12.2227 17.7977 11.8667 17.4835 11.4533 17.5093L11.125 17.5298V11.3679L16.924 18.324C17.1261 18.5665 17.4585 18.6565 17.7554 18.549C18.0523 18.4415 18.25 18.1595 18.25 17.8438V9.51712L18.5468 9.49857Z" fill="currentColor" /><path fill-rule="evenodd" clip-rule="evenodd" d="M15.3149 0.808411C15.063 0.78262 14.8116 0.803035 14.4925 0.828951L4.85313 1.60754C4.35887 1.64745 3.94483 1.68089 3.60691 1.73518C3.25332 1.79199 2.92388 1.87965 2.61539 2.05943C2.13977 2.3366 1.75829 2.75014 1.5203 3.24653C1.36594 3.5685 1.30509 3.90392 1.27693 4.26094C1.25002 4.60214 1.25003 5.01752 1.25004 5.51338L1.25002 16.4621C1.24985 16.811 1.24971 17.0858 1.30394 17.3556C1.35176 17.5936 1.43088 17.8242 1.53924 18.0414C1.66209 18.2877 1.83091 18.5045 2.04526 18.7798L2.90539 19.8857C3.5941 20.7716 4.0376 21.342 4.60732 21.7471C5.1107 22.1051 5.67905 22.3614 6.28055 22.5017C6.96132 22.6606 7.68247 22.6154 8.80236 22.5451L18.5757 21.9343C19.079 21.9028 19.5003 21.8765 19.8442 21.8274C20.2038 21.7761 20.5394 21.6927 20.8543 21.5145C21.3394 21.2401 21.7296 20.8247 21.9733 20.3235C22.1315 19.9981 22.1937 19.6579 22.2225 19.2958C22.2501 18.9495 22.25 18.5274 22.25 18.0232L22.2501 8.54577C22.2503 7.33156 22.2505 6.54994 22.0195 5.83575C21.8156 5.20512 21.4819 4.62416 21.0399 4.13022C20.5394 3.57083 19.8642 3.17716 18.8152 2.56559L16.6987 1.33096C16.4223 1.16953 16.2045 1.04237 15.9662 0.9566C15.7559 0.880928 15.5372 0.831165 15.3149 0.808411ZM14.5586 2.32852C14.9574 2.2963 15.0641 2.29057 15.1622 2.30061C15.2632 2.31096 15.3626 2.33358 15.4582 2.36797C15.551 2.40137 15.6447 2.45268 15.9903 2.65431L17.9469 3.79566C18.2203 3.95514 18.357 4.03488 18.3888 4.11569C18.4265 4.21181 18.3998 4.32429 18.3229 4.39322C18.2583 4.45118 18.0994 4.46111 17.7815 4.48098L7.23229 5.14031C6.70183 5.17346 6.4366 5.19004 6.18557 5.14126C5.9631 5.09803 5.7496 5.0173 5.55419 4.90253C5.33368 4.77302 5.14577 4.58511 4.76994 4.20928L4.32925 3.76859C4.1653 3.60464 4.08333 3.52267 4.07409 3.43459C4.06638 3.36114 4.09599 3.27987 4.14915 3.22859C4.21288 3.1671 4.32478 3.15739 4.54858 3.13796C4.68475 3.12614 4.83541 3.11386 5.00279 3.10034L14.5586 2.32852ZM19.3472 5.88605C19.6882 5.86474 19.8587 5.85408 20.0692 5.93917C20.2134 5.99747 20.4379 6.17972 20.5246 6.30887C20.6512 6.49738 20.6669 6.60519 20.6984 6.8208C20.7872 7.43038 20.75 8.06853 20.75 8.676V17.9938C20.75 18.535 20.7495 18.8971 20.7272 19.1769C20.7057 19.4475 20.6673 19.5791 20.6242 19.6677C20.5135 19.8955 20.3361 20.0843 20.1156 20.209C20.0299 20.2576 19.901 20.3041 19.6322 20.3425C19.3544 20.3821 18.993 20.4053 18.4529 20.439L8.82824 21.0406C8.34582 21.0707 7.84417 21.1272 7.35055 21.1159C7.11062 21.1103 6.99066 21.1076 6.78175 20.9969C6.63703 20.9202 6.42927 20.7076 6.35592 20.5611C6.25004 20.3497 6.25004 20.1697 6.25004 19.8096V8.20775C6.25004 7.6785 6.25004 7.41388 6.35069 7.20685C6.43929 7.02459 6.58119 6.87355 6.75756 6.77375C6.95791 6.66038 7.22202 6.64387 7.75023 6.61086L19.3472 5.88605Z" fill="currentColor" />
</svg>