<svg xmlns="http://www.w3.org/2000/svg" width="40" height="40" viewBox="0 0 40 40" fill="none">
<path d="M20.0002 5.00016H16.6668C11.9997 5.00016 9.66617 5.00016 7.88357 5.90844C6.31556 6.70739 5.04072 7.98222 4.24178 9.55024C3.3335 11.3328 3.3335 13.6664 3.3335 18.3335V23.3335C3.3335 28.0006 3.3335 30.3342 4.24178 32.1167C5.04072 33.6848 6.31556 34.9596 7.88357 35.7585C9.66617 36.6668 11.9997 36.6668 16.6668 36.6668H21.6668C26.3339 36.6668 28.6675 36.6668 30.4501 35.7585C32.0181 34.9596 33.2929 33.6848 34.0919 32.1167C35.0002 30.3342 35.0002 28.0006 35.0002 23.3335V20.0002M36.6668 8.3335C36.6668 11.0949 34.4283 13.3335 31.6668 13.3335C28.9054 13.3335 26.6668 11.0949 26.6668 8.3335C26.6668 5.57207 28.9054 3.3335 31.6668 3.3335C34.4283 3.3335 36.6668 5.57207 36.6668 8.3335Z" stroke="currentColor" stroke-width={2.5} stroke-linecap="round" stroke-linejoin="round" />
</svg>