<svg xmlns="http://www.w3.org/2000/svg" width="40" height="40" viewBox="0 0 40 40" fill="none">
<path d="M19.1067 3.75037C19.5493 3.75037 19.7713 3.7496 19.9543 3.79138C20.5784 3.93388 21.0658 4.42214 21.2083 5.04626C21.2499 5.22926 21.2502 5.45064 21.2502 5.89294C21.2502 8.54855 21.2496 9.87657 21.5002 10.975C22.355 14.7199 25.2797 17.6446 29.0247 18.4994C30.1231 18.7501 31.451 18.7504 34.1067 18.7504C34.5493 18.7504 34.7713 18.7496 34.9543 18.7914C35.5784 18.9339 36.0658 19.4221 36.2083 20.0463C36.2499 20.2293 36.2502 20.4506 36.2502 20.8929V24.5834C36.2502 29.2503 36.2502 31.584 35.342 33.3666C34.5431 34.9346 33.2675 36.2092 31.6995 37.0082C29.9169 37.9164 27.5832 37.9164 22.9163 37.9164H15.4163C10.7494 37.9164 8.41561 37.9164 6.63306 37.0082C5.06519 36.2092 3.79035 34.9345 2.99146 33.3666C2.08321 31.584 2.08325 29.2504 2.08325 24.5834V17.0834C2.08325 12.4163 2.08321 10.0828 2.99146 8.30017C3.79035 6.73226 5.06519 5.45752 6.63306 4.65857C8.41561 3.75031 10.7494 3.75037 15.4163 3.75037H19.1067ZM31.6663 2.08337C35.118 2.08337 37.9163 4.88159 37.9163 8.33337C37.9163 11.7852 35.118 14.5834 31.6663 14.5834C28.2146 14.5832 25.4163 11.785 25.4163 8.33337C25.4163 4.8817 28.2146 2.08355 31.6663 2.08337Z" fill="currentColor" />
</svg>