<svg xmlns="http://www.w3.org/2000/svg" width="24" height="24" viewBox="0 0 24 24" fill="none">
<path d="M19.0001 5.20295C20.3216 6.01028 21.0492 6.53198 21.4806 7.29376C21.9998 8.21076 21.9998 9.31695 21.9998 11.5293V12.4703C21.9998 14.6826 21.9998 15.7888 21.4806 16.7058C20.9614 17.6228 20.0128 18.192 18.1157 19.3302L16.1157 20.5302C14.1104 21.7334 13.1077 22.335 11.9998 22.335C10.8918 22.335 9.88915 21.7334 7.88379 20.5302L5.88379 19.3302C3.9867 18.192 3.03816 17.6228 2.51896 16.7058C1.99976 15.7888 1.99976 14.6826 1.99976 12.4703L1.99976 11.5293C1.99976 9.31695 1.99976 8.21076 2.51896 7.29376C3.03816 6.37675 3.9867 5.80762 5.88379 4.66937L7.88379 3.46937C9.88914 2.26616 10.8918 1.66455 11.9998 1.66455C13.0862 1.66455 14.0714 2.24304 16.0001 3.40001M12.0001 9C13.657 9 15.0001 10.3431 15.0001 12C15.0001 13.6569 13.657 15 12.0001 15C10.3433 15 9.00012 13.6569 9.00012 12C9.00012 11.6494 9.06028 11.3128 9.17083 11" stroke="currentColor" stroke-width={2} stroke-linecap="round" stroke-linejoin="round" />
</svg>