<svg xmlns="http://www.w3.org/2000/svg" width="24" height="24" viewBox="0 0 24 24" fill="none">
<path d="M5.10674 18.8643C3.97368 18.1845 3.40714 17.8446 2.99563 17.3766C2.63146 16.9624 2.35687 16.4774 2.1891 15.9521C1.99951 15.3584 1.99951 14.6978 1.99951 13.3764L1.99951 10.6236C1.99951 9.30225 1.99951 8.64157 2.1891 8.04791C2.35687 7.52256 2.63146 7.03758 2.99562 6.62342C3.40714 6.15542 3.97367 5.8155 5.10674 5.13566L8.70674 2.97566C9.90394 2.25734 10.5025 1.89818 11.1416 1.75786C11.7068 1.63373 12.2922 1.63373 12.8575 1.75786C13.4965 1.89818 14.0951 2.25734 15.2923 2.97566L18.8923 5.13566C20.0253 5.8155 20.5919 6.15542 21.0034 6.62342C21.3676 7.03758 21.6422 7.52256 21.8099 8.04791C21.9995 8.64156 21.9995 9.30225 21.9995 10.6236V13.3764C21.9995 14.6978 21.9995 15.3584 21.8099 15.9521C21.6422 16.4774 21.3676 16.9624 21.0034 17.3766C20.5919 17.8446 20.0253 18.1845 18.8923 18.8643L15.2923 21.0243C14.0951 21.7427 13.4965 22.1018 12.8575 22.2421C12.2922 22.3663 11.7068 22.3663 11.1416 22.2421C10.5025 22.1018 9.90394 21.7427 8.70674 21.0243L5.10674 18.8643Z" stroke="currentColor" stroke-width={2} stroke-linecap="round" stroke-linejoin="round" /><path d="M8.99988 12C8.99988 10.3431 10.343 9 11.9999 9C13.6567 9 14.9999 10.3431 14.9999 12C14.9999 13.6569 13.6567 15 11.9999 15C10.343 15 8.99988 13.6569 8.99988 12Z" stroke="currentColor" stroke-width={2} stroke-linecap="round" stroke-linejoin="round" />
</svg>