<svg xmlns="http://www.w3.org/2000/svg" width="24" height="24" viewBox="0 0 24 24" fill="none">
<path fill-rule="evenodd" clip-rule="evenodd" d="M1.24976 11.105C1.24976 9.4533 1.24976 8.62745 1.48674 7.88537C1.69645 7.22868 2.03969 6.62246 2.4949 6.10477C3.00929 5.51977 3.71746 5.09487 5.13379 4.24507L7.88379 2.59507C9.38029 1.69717 10.1285 1.24822 10.9273 1.07281C11.6339 0.917651 12.3657 0.917651 13.0722 1.07281C13.871 1.24822 14.6192 1.69717 16.1157 2.59507L18.8657 4.24507C20.2821 5.09487 20.9902 5.51976 21.5046 6.10477C21.9598 6.62246 22.3031 7.22868 22.5128 7.88537C22.7498 8.62744 22.7498 9.4533 22.7498 11.105V12.8953C22.7498 14.547 22.7498 15.3728 22.5128 16.1149C22.3031 16.7716 21.9598 17.3778 21.5046 17.8955C20.9902 18.4805 20.2821 18.9054 18.8657 19.7552L16.1157 21.4052C14.6192 22.3031 13.871 22.752 13.0722 22.9275C12.3657 23.0826 11.6339 23.0826 10.9273 22.9275C10.1285 22.752 9.38029 22.3031 7.8838 21.4052L5.13379 19.7552C3.71746 18.9054 3.00929 18.4805 2.4949 17.8955C2.03969 17.3778 1.69645 16.7716 1.48674 16.1149C1.24976 15.3728 1.24976 14.547 1.24976 12.8952V11.105ZM12 8.99999C10.3432 8.99999 9.00004 10.3431 9.00004 12C9.00004 13.6568 10.3432 15 12 15C13.6569 15 15 13.6568 15 12C15 10.3431 13.6569 8.99999 12 8.99999Z" fill="currentColor" />
</svg>