<svg xmlns="http://www.w3.org/2000/svg" width="24" height="24" viewBox="0 0 24 24" fill="none">
<path d="M16.9502 16.25C18.6302 16.25 19.4706 16.2502 20.1123 16.5771C20.6765 16.8647 21.1353 17.3235 21.4229 17.8877C21.7498 18.5294 21.75 19.3698 21.75 21.0498V21.1504C21.75 21.7102 21.7496 21.9902 21.6406 22.2041C21.5448 22.3921 21.3921 22.5448 21.2041 22.6406C20.9902 22.7496 20.7102 22.75 20.1504 22.75H3.84961C3.28982 22.75 3.00976 22.7496 2.7959 22.6406C2.60793 22.5448 2.45522 22.3921 2.35938 22.2041C2.25041 21.9902 2.25 21.7102 2.25 21.1504V21.0498C2.25 19.3698 2.25018 18.5294 2.57715 17.8877C2.86472 17.3235 3.32347 16.8647 3.8877 16.5771C4.52941 16.2502 5.36978 16.25 7.0498 16.25H16.9502ZM4.5 11.25C4.91421 11.25 5.25 11.5858 5.25 12C5.25 12.4142 4.91421 12.75 4.5 12.75H3.5C3.08579 12.75 2.75 12.4142 2.75 12C2.75 11.5858 3.08579 11.25 3.5 11.25H4.5ZM8.5 11.25C8.91421 11.25 9.25 11.5858 9.25 12C9.25 12.4142 8.91421 12.75 8.5 12.75H7.5C7.08579 12.75 6.75 12.4142 6.75 12C6.75 11.5858 7.08579 11.25 7.5 11.25H8.5ZM12.5 11.25C12.9142 11.25 13.25 11.5858 13.25 12C13.25 12.4142 12.9142 12.75 12.5 12.75H11.5C11.0858 12.75 10.75 12.4142 10.75 12C10.75 11.5858 11.0858 11.25 11.5 11.25H12.5ZM16.5 11.25C16.9142 11.25 17.25 11.5858 17.25 12C17.25 12.4142 16.9142 12.75 16.5 12.75H15.5C15.0858 12.75 14.75 12.4142 14.75 12C14.75 11.5858 15.0858 11.25 15.5 11.25H16.5ZM20.5 11.25C20.9142 11.25 21.25 11.5858 21.25 12C21.25 12.4142 20.9142 12.75 20.5 12.75H19.5C19.0858 12.75 18.75 12.4142 18.75 12C18.75 11.5858 19.0858 11.25 19.5 11.25H20.5ZM20.1504 1.25C20.7102 1.25 20.9902 1.25041 21.2041 1.35938C21.3921 1.45522 21.5448 1.60793 21.6406 1.7959C21.7496 2.00976 21.75 2.28982 21.75 2.84961V2.9502C21.75 4.63022 21.7498 5.47059 21.4229 6.1123C21.1353 6.67653 20.6765 7.13528 20.1123 7.42285C19.4706 7.74982 18.6302 7.75 16.9502 7.75H7.0498C5.36978 7.75 4.52941 7.74982 3.8877 7.42285C3.32347 7.13528 2.86472 6.67653 2.57715 6.1123C2.25018 5.47059 2.25 4.63022 2.25 2.9502V2.84961C2.25 2.28982 2.25041 2.00976 2.35938 1.7959C2.45522 1.60793 2.60793 1.45522 2.7959 1.35938C3.00976 1.25041 3.28982 1.25 3.84961 1.25H20.1504Z" fill="currentColor" />
</svg>