<svg xmlns="http://www.w3.org/2000/svg" width="24" height="24" viewBox="0 0 24 24" fill="none">
<path d="M9 2H8C7.06812 2 6.60218 2 6.23463 2.15224C5.74458 2.35523 5.35523 2.74458 5.15224 3.23463C5 3.60218 5 4.06812 5 5C5 5.93188 5 6.39782 5.15224 6.76537C5.35523 7.25542 5.74458 7.64477 6.23463 7.84776C6.60218 8 7.06812 8 8 8H14C14.9319 8 15.3978 8 15.7654 7.84776C16.2554 7.64477 16.6448 7.25542 16.8478 6.76537C17 6.39782 17 5.93188 17 5M13 2H14C14.9319 2 15.3978 2 15.7654 2.15224C16.2554 2.35523 16.6448 2.74458 16.8478 3.23463C17 3.60218 17 4.06812 17 5M13 18V20C13 21.1046 12.1046 22 11 22C9.89543 22 9 21.1046 9 20V18C9 16.8954 9.89543 16 11 16V15.2C11 14.0799 11 13.5198 11.218 13.092C11.4097 12.7157 11.7157 12.4097 12.092 12.218C12.5198 12 13.0799 12 14.2 12H17.8C18.9201 12 19.4802 12 19.908 11.782C20.2843 11.5903 20.5903 11.2843 20.782 10.908C21 10.4802 21 9.9201 21 8.8V8.2C21 7.07989 21 6.51984 20.782 6.09202C20.5903 5.71569 20.2843 5.40973 19.908 5.21799C19.4802 5 18.9201 5 17.8 5H17" stroke="currentColor" stroke-width={1.5} stroke-linecap="round" stroke-linejoin="round" />
</svg>