<svg xmlns="http://www.w3.org/2000/svg" width="24" height="24" viewBox="0 0 24 24" fill="none">
<path d="M14 1.25C14.4557 1.25 14.8351 1.24933 15.1455 1.27051C15.4626 1.29215 15.7624 1.33872 16.0527 1.45899C16.7264 1.73809 17.2619 2.27359 17.541 2.94727C17.6613 3.23762 17.7079 3.53744 17.7295 3.85449C17.7378 3.97562 17.7402 4.10743 17.7432 4.25H17.7998C18.3475 4.25 18.8037 4.24898 19.1748 4.2793C19.5545 4.31033 19.9109 4.37809 20.248 4.54981C20.7655 4.81346 21.1865 5.23451 21.4502 5.75196C21.6219 6.0891 21.6897 6.44547 21.7207 6.8252C21.751 7.19633 21.75 7.65252 21.75 8.2002V8.79981C21.75 9.34748 21.751 9.80368 21.7207 10.1748C21.6897 10.5545 21.6219 10.9109 21.4502 11.248C21.1865 11.7655 20.7655 12.1865 20.248 12.4502C19.9109 12.6219 19.5545 12.6897 19.1748 12.7207C18.8037 12.751 18.3475 12.75 17.7998 12.75H14.2002C13.6278 12.75 13.2431 12.7502 12.9473 12.7744C12.6603 12.7979 12.5232 12.8406 12.4326 12.8867C12.1975 13.0065 12.0065 13.1975 11.8867 13.4326C11.8406 13.5232 11.7979 13.6603 11.7744 13.9473C11.7502 14.2431 11.75 14.6278 11.75 15.2002V15.3564C12.9039 15.6832 13.75 16.7415 13.75 18V20C13.75 21.5188 12.5188 22.75 11 22.75C9.48122 22.75 8.25 21.5188 8.25 20V18C8.25 16.7415 9.09614 15.6832 10.25 15.3564V15.2002C10.25 14.6525 10.249 14.1963 10.2793 13.8252C10.3103 13.4455 10.3781 13.0891 10.5498 12.752C10.8135 12.2345 11.2345 11.8135 11.752 11.5498C12.0891 11.3781 12.4455 11.3103 12.8252 11.2793C13.1963 11.249 13.6525 11.25 14.2002 11.25H17.7998C18.3722 11.25 18.7569 11.2498 19.0527 11.2256C19.3397 11.2021 19.4768 11.1594 19.5674 11.1133C19.8025 10.9935 19.9935 10.8025 20.1133 10.5674C20.1594 10.4768 20.2021 10.3397 20.2256 10.0527C20.2498 9.75686 20.25 9.37224 20.25 8.79981V8.2002C20.25 7.62777 20.2498 7.24315 20.2256 6.94727C20.2021 6.66027 20.1594 6.52316 20.1133 6.43262C19.9935 6.1975 19.8025 6.00655 19.5674 5.88672C19.4768 5.84059 19.3397 5.79788 19.0527 5.77442C18.7569 5.75024 18.3722 5.75 17.7998 5.75H17.7432C17.7402 5.89257 17.7378 6.02439 17.7295 6.14551C17.7079 6.46256 17.6613 6.76239 17.541 7.05274C17.2619 7.72642 16.7264 8.26191 16.0527 8.54102C15.7624 8.66129 15.4626 8.70786 15.1455 8.72949C14.8351 8.75067 14.4557 8.75 14 8.75H8C7.54432 8.75 7.16486 8.75067 6.85449 8.72949C6.53744 8.70786 6.23762 8.66129 5.94727 8.54102C5.27359 8.26191 4.73809 7.72642 4.45899 7.05274C4.33872 6.76239 4.29215 6.46256 4.27051 6.14551C4.24933 5.83515 4.25 5.45568 4.25 5C4.25 4.54432 4.24933 4.16486 4.27051 3.85449C4.29215 3.53744 4.33872 3.23762 4.45899 2.94727C4.73809 2.27359 5.27359 1.73809 5.94727 1.45899C6.23762 1.33872 6.53744 1.29215 6.85449 1.27051C7.16486 1.24933 7.54432 1.25 8 1.25H14Z" fill="currentColor" />
</svg>