<svg xmlns="http://www.w3.org/2000/svg" width="24" height="24" viewBox="0 0 24 24" fill="none">
<path d="M17 5H17.8C18.9201 5 19.4802 5 19.908 5.21799C20.2843 5.40973 20.5903 5.71569 20.782 6.09202C21 6.51984 21 7.07989 21 8.2V8.8C21 9.9201 21 10.4802 20.782 10.908C20.5903 11.2843 20.2843 11.5903 19.908 11.782C19.4802 12 18.9201 12 17.8 12H14.2C13.0799 12 12.5198 12 12.092 12.218C11.7157 12.4097 11.4097 12.7157 11.218 13.092C11 13.5198 11 14.0799 11 15.2V16M17 5C17 5.93188 17 6.39782 16.8478 6.76537C16.6448 7.25542 16.2554 7.64477 15.7654 7.84776C15.3978 8 14.9319 8 14 8H8C7.06812 8 6.60218 8 6.23463 7.84776C5.74458 7.64477 5.35523 7.25542 5.15224 6.76537C5 6.39782 5 5.93188 5 5C5 4.06812 5 3.60218 5.15224 3.23463C5.35523 2.74458 5.74458 2.35523 6.23463 2.15224C6.60218 2 7.06812 2 8 2H14C14.9319 2 15.3978 2 15.7654 2.15224C16.2554 2.35523 16.6448 2.74458 16.8478 3.23463C17 3.60218 17 4.06812 17 5ZM11 16C12.1046 16 13 16.8954 13 18V20C13 21.1046 12.1046 22 11 22C9.89543 22 9 21.1046 9 20V18C9 16.8954 9.89543 16 11 16Z" stroke="currentColor" stroke-width={1.5} stroke-linecap="round" stroke-linejoin="round" />
</svg>