<svg xmlns="http://www.w3.org/2000/svg" width="24" height="24" viewBox="0 0 24 24" fill="none">
<path d="M19.7304 12.0002C20.0181 11.5651 20.1969 11.1583 20.2767 10.7257C20.3651 10.246 20.3651 9.75424 20.2767 9.27459C20.051 8.05129 19.034 7.03424 16.9999 5.00013C14.9658 2.96602 13.9487 1.94896 12.7254 1.72333C12.2458 1.63487 11.754 1.63487 11.2743 1.72333C10.5315 1.86036 9.86462 2.28925 8.99988 3.06056M5.99988 6.00013L4.99989 7.00013C2.96578 9.03424 1.94872 10.0513 1.72309 11.2746C1.63462 11.7542 1.63462 12.246 1.72309 12.7257C1.94872 13.949 2.96577 14.966 4.99988 17.0001C7.03399 19.0342 8.05105 20.0513 9.27434 20.2769C9.75399 20.3654 10.2458 20.3654 10.7254 20.2769C11.9487 20.0513 12.9658 19.0342 14.9999 17.0001L16.9999 15.0001C12.4999 19.5004 7.17468 7.70692 2 10.9999M18 19.5553C18 18.4154 18.6041 17.4545 19.1482 16.8202C19.3248 16.6143 19.4131 16.5114 19.662 16.422C19.8229 16.3642 20.177 16.3642 20.3379 16.422C20.5868 16.5114 20.6751 16.6143 20.8517 16.8202C21.3959 17.4545 22 18.4154 22 19.5553C22 22.8146 18 22.8146 18 19.5553Z" stroke="currentColor" stroke-width={1.5} stroke-linecap="round" stroke-linejoin="round" />
</svg>