<svg xmlns="http://www.w3.org/2000/svg" width="24" height="24" viewBox="0 0 24 24" fill="none">
<path d="M19.9995 15.6284C20.1179 15.6284 20.2777 15.6367 20.435 15.6714L20.5903 15.7163L20.73 15.772C20.8643 15.8317 20.9861 15.9049 21.1011 16.0005C21.2342 16.1113 21.3434 16.2418 21.4204 16.3315C22.0127 17.022 22.7494 18.1535 22.7495 19.5552C22.7495 20.5266 22.4484 21.3286 21.9263 21.896C21.4067 22.4604 20.7054 22.7495 19.9995 22.7495C19.2937 22.7494 18.5922 22.4603 18.0727 21.896C17.5508 21.3287 17.2495 20.5264 17.2495 19.5552C17.2496 18.1536 17.9863 17.022 18.5786 16.3315C18.6556 16.2418 18.7646 16.1114 18.8979 16.0005C19.0513 15.8729 19.2158 15.7853 19.4077 15.7163L19.564 15.6714C19.7213 15.6367 19.881 15.6284 19.9995 15.6284ZM10.5317 1.13915C11.4856 0.82922 12.5134 0.829317 13.4673 1.13915C14.0554 1.33025 14.5683 1.67127 15.1138 2.13426C15.6526 2.59172 16.2721 3.21155 17.0552 3.99462L18.0044 4.94383C18.7874 5.72688 19.4072 6.3464 19.8647 6.88524C20.3278 7.43071 20.6687 7.94365 20.8598 8.53173C21.1698 9.48566 21.1698 10.5133 20.8598 11.4673C20.6687 12.0555 20.3279 12.5682 19.8647 13.1138C19.647 13.3702 19.3914 13.644 19.1001 13.9458C19.0785 13.9747 19.056 14.0035 19.0298 14.0298L15.0552 18.0044C14.2719 18.7876 13.6527 19.4072 13.1138 19.8647C12.5682 20.3279 12.0555 20.6687 11.4673 20.8598C10.5133 21.1698 9.48566 21.1698 8.53173 20.8598C7.94365 20.6687 7.43071 20.3278 6.88524 19.8647C6.3464 19.4072 5.72688 18.7874 4.94383 18.0044L3.99462 17.0552C3.21155 16.2721 2.59172 15.6526 2.13426 15.1138C1.67127 14.5683 1.33025 14.0554 1.13915 13.4673C0.829317 12.5134 0.82922 11.4856 1.13915 10.5317C1.33031 9.94356 1.67116 9.43077 2.13426 8.88524C2.59179 8.34631 3.21139 7.72706 3.99462 6.94383L6.94383 3.99462C7.72706 3.21139 8.34631 2.59179 8.88524 2.13426C9.43077 1.67116 9.94356 1.33031 10.5317 1.13915ZM13.0034 2.56591C12.3509 2.35406 11.6481 2.35396 10.9956 2.56591C10.6707 2.67152 10.3305 2.87495 9.85594 3.27782C9.37457 3.68648 8.8051 4.25445 8.00438 5.05516L5.05516 8.00438C4.34294 8.7166 3.81606 9.24685 3.4204 9.69384C4.3741 9.57453 5.31103 9.79196 6.19579 10.1821C7.5963 10.7999 8.96926 11.8939 10.2124 12.8599C11.5078 13.8664 12.6573 14.7279 13.7309 15.1011C14.2486 15.2809 14.7085 15.3311 15.1313 15.2485C15.5486 15.1669 15.9946 14.9439 16.4692 14.4692L16.9653 13.9731C17.7547 13.1837 18.3162 12.6201 18.7212 12.1431C19.1241 11.6684 19.3275 11.3284 19.4331 11.0034C19.645 10.3509 19.6451 9.64812 19.4331 8.99559C19.3275 8.67075 19.124 8.3304 18.7212 7.85594C18.3125 7.37464 17.7444 6.8049 16.9438 6.00438L15.9946 5.05516C15.1941 4.25462 14.6244 3.68642 14.1431 3.27782C13.6686 2.87508 13.3283 2.67147 13.0034 2.56591Z" fill="currentColor" />
</svg>