<svg xmlns="http://www.w3.org/2000/svg" width="24" height="24" viewBox="0 0 24 24" fill="none">
<path d="M9.5 2L9 2C7.13872 2 6.20808 2 5.45492 2.24472C3.93273 2.73931 2.73931 3.93273 2.24472 5.45492C2 6.20808 2 7.13872 2 9L2 14C2 16.8003 2 18.2004 2.54497 19.27C3.02434 20.2108 3.78924 20.9757 4.73005 21.455C5.79961 22 7.19974 22 10 22H14C16.8003 22 18.2004 22 19.27 21.455C20.2108 20.9757 20.9757 20.2108 21.455 19.27C22 18.2004 22 16.8003 22 14V9C22 7.13872 22 6.20808 21.7553 5.45492C21.2607 3.93273 20.0673 2.73931 18.5451 2.24472C17.7919 2 16.8613 2 15 2L14.5 2M17 8V13.5M16.1427 16.1427L18 18M16.1427 16.1427C15.3247 17.2682 13.9978 18 12.5 18C10.0147 18 8 15.9853 8 13.5V9C8 8.69691 8.04495 8.40432 8.12854 8.12854M16.1427 16.1427L13.9357 13.9357M13.9357 13.9357C13.7491 14.5517 13.1769 15 12.5 15C11.6716 15 11 14.3284 11 13.5V12.25V11M13.9357 13.9357L11 11M11 11L8.12854 8.12854M6 6L8.12854 8.12854M10 6.17071C10.3128 6.06015 10.6494 6 11 6C12.6569 6 14 7.34315 14 9V10.5" stroke="currentColor" stroke-width={1.5} stroke-linecap="round" stroke-linejoin="round" />
</svg>