<svg xmlns="http://www.w3.org/2000/svg" width="24" height="24" viewBox="0 0 24 24" fill="none">
<path d="M9.5 2L9 2C7.13872 2 6.20808 2 5.45492 2.24472C3.93273 2.73931 2.73931 3.93273 2.24472 5.45492C2 6.20808 2 7.13872 2 9L2 14C2 16.8003 2 18.2004 2.54497 19.27C3.02434 20.2108 3.78924 20.9757 4.73005 21.455C5.79961 22 7.19974 22 10 22H14C16.8003 22 18.2004 22 19.27 21.455C20.2108 20.9757 20.9757 20.2108 21.455 19.27C22 18.2004 22 16.8003 22 14V9C22 7.13872 22 6.20808 21.7553 5.45492C21.2607 3.93273 20.0673 2.73931 18.5451 2.24472C17.7919 2 16.8613 2 15 2L14.5 2M19 12L14.5 16.5C12.567 18.433 9.433 18.433 7.5 16.5C5.567 14.567 5.567 11.433 7.5 9.5L10.7083 6.29165C11.974 5.02601 14.026 5.02601 15.2917 6.29165C16.5243 7.52429 16.5611 9.51115 15.3749 10.7886L12.2251 14.1806C11.556 14.9013 10.4222 14.9222 9.72686 14.2269C9.04928 13.5493 9.04928 12.4507 9.72686 11.7731L13 8.5" stroke="currentColor" stroke-width={1.5} stroke-linecap="round" stroke-linejoin="round" />
</svg>