<svg xmlns="http://www.w3.org/2000/svg" width="24" height="24" viewBox="0 0 24 24" fill="none">
<path d="M16 14.9999L14.5 16.4999C12.567 18.4329 9.43304 18.4329 7.50004 16.4999C5.56704 14.5669 5.56704 11.4329 7.50004 9.49987L9.00004 7.99987M16 14.9999L13.6482 12.648M16 14.9999L18 16.9999M9.00004 7.99987L7.00004 5.99987M9.00004 7.99987L11.25 10.2499M13.6482 12.648L12.2252 14.1805C11.556 14.9011 10.4223 14.9221 9.7269 14.2267C9.04932 13.5492 9.04932 12.4506 9.7269 11.773L11.25 10.2499M13.6482 12.648L11.25 10.2499M19 11.9999L17.9999 13M15.5647 10.5648C16.5531 9.28837 16.4545 7.45434 15.2917 6.29152C14.1248 5.12463 12.2895 5.03358 11.0183 6.01837M10 22H14C16.8003 22 18.2004 22 19.27 21.455C20.2108 20.9757 20.9757 20.2108 21.455 19.27C22 18.2004 22 16.8003 22 14V10C22 7.19974 22 5.79961 21.455 4.73005C20.9757 3.78924 20.2108 3.02433 19.27 2.54497C18.2004 2 16.8003 2 14 2H10C7.19974 2 5.79961 2 4.73005 2.54497C3.78924 3.02433 3.02433 3.78924 2.54497 4.73005C2 5.79961 2 7.19974 2 10V14C2 16.8003 2 18.2004 2.54497 19.27C3.02433 20.2108 3.78924 20.9757 4.73005 21.455C5.79961 22 7.19974 22 10 22Z" stroke="currentColor" stroke-width={1.5} stroke-linecap="round" stroke-linejoin="round" />
</svg>