<svg xmlns="http://www.w3.org/2000/svg" width="24" height="24" viewBox="0 0 24 24" fill="none">
<path d="M14.75 1.25C17.55 1.25 18.95 1.25013 20.0195 1.79492C20.9603 2.27429 21.7257 3.03966 22.2051 3.98047C22.7499 5.04998 22.75 6.45005 22.75 9.25V14.75C22.75 17.55 22.7499 18.95 22.2051 20.0195C21.7257 20.9603 20.9603 21.7257 20.0195 22.2051C18.95 22.7499 17.55 22.75 14.75 22.75H9.25C6.45005 22.75 5.04998 22.7499 3.98047 22.2051C3.03966 21.7257 2.27429 20.9603 1.79492 20.0195C1.25013 18.95 1.25 17.55 1.25 14.75V9.25C1.25 6.45005 1.25013 5.04998 1.79492 3.98047C2.27429 3.03966 3.03966 2.27429 3.98047 1.79492C5.04998 1.25013 6.45005 1.25 9.25 1.25H14.75ZM15.8223 5.76172C14.2637 4.20318 11.7363 4.20318 10.1777 5.76172L6.96973 8.96973C4.74384 11.1956 4.74384 14.8044 6.96973 17.0303C9.19562 19.2562 12.8044 19.2562 15.0303 17.0303L19.5303 12.5303C19.8232 12.2374 19.8232 11.7626 19.5303 11.4697C19.2374 11.1768 18.7626 11.1768 18.4697 11.4697L13.9697 15.9697C12.3296 17.6098 9.67038 17.6098 8.03027 15.9697C6.39017 14.3296 6.39017 11.6704 8.03027 10.0303L11.2383 6.82227C12.211 5.84951 13.789 5.84951 14.7617 6.82227C15.7088 7.76968 15.7368 9.29664 14.8252 10.2783L11.6758 13.6699C11.2959 14.0791 10.6516 14.0911 10.2568 13.6963C9.87255 13.3117 9.87255 12.6883 10.2568 12.3037L13.5303 9.03027C13.8232 8.73738 13.8232 8.26262 13.5303 7.96973C13.2374 7.67683 12.7626 7.67683 12.4697 7.96973L9.19629 11.2432C8.22622 12.2136 8.22622 13.7864 9.19629 14.7568C10.1921 15.7527 11.8159 15.7232 12.7744 14.6914L15.9248 11.2988C17.3852 9.7259 17.3398 7.27958 15.8223 5.76172Z" fill="currentColor" />
</svg>