<svg xmlns="http://www.w3.org/2000/svg" width="24" height="24" viewBox="0 0 24 24" fill="none">
<path d="M14.75 1.25C17.55 1.25 18.95 1.25013 20.0195 1.79492C20.9603 2.27429 21.7257 3.03966 22.2051 3.98047C22.7499 5.04998 22.75 6.45005 22.75 9.25V14.75C22.75 17.55 22.7499 18.95 22.2051 20.0195C21.7257 20.9603 20.9603 21.7257 20.0195 22.2051C18.95 22.7499 17.55 22.75 14.75 22.75H9.25C6.45005 22.75 5.04998 22.7499 3.98047 22.2051C3.03966 21.7257 2.27429 20.9603 1.79492 20.0195C1.25013 18.95 1.25 17.55 1.25 14.75V9.25C1.25 6.45005 1.25013 5.04998 1.79492 3.98047C2.27429 3.03966 3.03966 2.27429 3.98047 1.79492C5.04998 1.25013 6.45005 1.25 9.25 1.25H14.75ZM7.53027 5.46973C7.23738 5.17686 6.76163 5.17684 6.46875 5.46973C6.17652 5.76251 6.17649 6.23751 6.46875 6.53027L7.93848 8L6.96875 8.96973C4.74353 11.1955 4.7435 14.8045 6.96875 17.0303C9.1945 19.256 12.8043 19.2557 15.0303 17.0303L15.999 16.0605L17.4688 17.5303C17.7615 17.823 18.2373 17.8227 18.5303 17.5303C18.8045 17.2557 18.8211 16.8218 18.5811 16.5273L18.5303 16.4697L16.5303 14.4697L14.1777 12.1182L11.7803 9.71973L7.53027 5.46973ZM10.1885 10.25L9.19629 11.2432C8.22625 12.2137 8.22599 13.7875 9.19629 14.7578C10.1921 15.7534 11.816 15.723 12.7744 14.6914L13.667 13.7285L14.9385 15L13.9688 15.9697C12.3286 17.6093 9.67021 17.6096 8.03027 15.9697C6.39034 14.3298 6.3906 11.6704 8.03027 10.0303L8.99902 9.06055L10.1885 10.25ZM12.6055 12.667L11.6748 13.6709C11.2949 14.0792 10.6514 14.0916 10.2568 13.6973C9.87232 13.3127 9.87258 12.6884 10.2568 12.3037L11.249 11.3105L12.6055 12.667ZM19.5303 11.4697C19.2374 11.1769 18.7616 11.1768 18.4688 11.4697L17.4688 12.4697C17.1763 12.7626 17.176 13.2385 17.4688 13.5312C17.7432 13.8057 18.1781 13.8219 18.4727 13.582L18.5293 13.5312L19.5303 12.5303C19.8228 12.2374 19.823 11.7625 19.5303 11.4697ZM15.8213 5.76172C14.4288 4.36933 12.2646 4.22117 10.707 5.31641L10.5586 5.42578C10.2316 5.67954 10.1713 6.15122 10.4248 6.47852C10.6626 6.78521 11.0917 6.8562 11.4141 6.65527L11.4775 6.61133C12.4539 5.85534 13.8644 5.92609 14.7607 6.82227C15.6542 7.71573 15.7309 9.12596 14.9717 10.1064C14.7185 10.4339 14.7782 10.9047 15.1055 11.1582C15.4328 11.4115 15.9036 11.3514 16.1572 11.0244C17.3748 9.45201 17.2535 7.19389 15.8213 5.76172Z" fill="currentColor" />
</svg>