<svg xmlns="http://www.w3.org/2000/svg" width="24" height="24" viewBox="0 0 24 24" fill="none">
<path d="M14.75 1.25C17.55 1.25 18.95 1.25013 20.0195 1.79492C20.9603 2.27429 21.7257 3.03966 22.2051 3.98047C22.7499 5.04998 22.75 6.45005 22.75 9.25V14.75C22.75 17.55 22.7499 18.95 22.2051 20.0195C21.7257 20.9603 20.9603 21.7257 20.0195 22.2051C18.95 22.7499 17.55 22.75 14.75 22.75H9.25C6.45005 22.75 5.04998 22.7499 3.98047 22.2051C3.03966 21.7257 2.27429 20.9603 1.79492 20.0195C1.25013 18.95 1.25 17.55 1.25 14.75V9.25C1.25 6.45005 1.25013 5.04998 1.79492 3.98047C2.27429 3.03966 3.03966 2.27429 3.98047 1.79492C5.04998 1.25013 6.45005 1.25 9.25 1.25H14.75ZM6.53027 5.46973C6.23738 5.17683 5.76262 5.17683 5.46973 5.46973C5.17683 5.76262 5.17683 6.23738 5.46973 6.53027L7.30469 8.36523C7.26938 8.57197 7.25 8.78398 7.25 9V13.5C7.25 16.3995 9.6005 18.75 12.5 18.75C13.9347 18.75 15.2337 18.1728 16.1807 17.2412L17.4697 18.5303L17.5264 18.582C17.8209 18.8223 18.2557 18.8049 18.5303 18.5303C18.8049 18.2557 18.8223 17.8209 18.582 17.5264L18.5303 17.4697L6.53027 5.46973ZM10.25 11.3105V13.5C10.25 14.7426 11.2574 15.75 12.5 15.75C13.1064 15.75 13.6543 15.5085 14.0586 15.1191L15.1201 16.1807C14.4434 16.8423 13.5198 17.25 12.5 17.25C10.4289 17.25 8.75 15.5711 8.75 13.5V9.81055L10.25 11.3105ZM12.9971 14.0576C12.8642 14.176 12.6912 14.25 12.5 14.25C12.0858 14.25 11.75 13.9142 11.75 13.5V12.8105L12.9971 14.0576ZM17 7.25C16.5858 7.25 16.25 7.58579 16.25 8V13.5C16.25 13.9142 16.5858 14.25 17 14.25C17.4142 14.25 17.75 13.9142 17.75 13.5V8C17.75 7.58579 17.4142 7.25 17 7.25ZM11 5.25C10.563 5.25 10.1419 5.32534 9.75 5.46387C9.35956 5.60196 9.15495 6.03041 9.29297 6.4209C9.4311 6.81127 9.85955 7.01593 10.25 6.87793C10.4836 6.79536 10.7357 6.75 11 6.75C12.2426 6.75 13.25 7.75736 13.25 9V10.5C13.25 10.9142 13.5858 11.25 14 11.25C14.4142 11.25 14.75 10.9142 14.75 10.5V9C14.75 6.92893 13.0711 5.25 11 5.25Z" fill="currentColor" />
</svg>