<svg xmlns="http://www.w3.org/2000/svg" width="24" height="24" viewBox="0 0 24 24" fill="none">
<path d="M14.75 1.25C17.55 1.25 18.95 1.25013 20.0195 1.79492C20.9603 2.27429 21.7257 3.03966 22.2051 3.98047C22.7499 5.04998 22.75 6.45005 22.75 9.25V14.75C22.75 17.55 22.7499 18.95 22.2051 20.0195C21.7257 20.9603 20.9603 21.7257 20.0195 22.2051C18.95 22.7499 17.55 22.75 14.75 22.75H9.25C6.45005 22.75 5.04998 22.7499 3.98047 22.2051C3.03966 21.7257 2.27429 20.9603 1.79492 20.0195C1.25013 18.95 1.25 17.55 1.25 14.75V9.25C1.25 6.45005 1.25013 5.04998 1.79492 3.98047C2.27429 3.03966 3.03966 2.27429 3.98047 1.79492C5.04998 1.25013 6.45005 1.25 9.25 1.25H14.75ZM11 5.25C8.92893 5.25 7.25 6.92893 7.25 9V13.5C7.25 16.3995 9.6005 18.75 12.5 18.75C15.3995 18.75 17.75 16.3995 17.75 13.5V8C17.75 7.58579 17.4142 7.25 17 7.25C16.5858 7.25 16.25 7.58579 16.25 8V13.5C16.25 15.5711 14.5711 17.25 12.5 17.25C10.4289 17.25 8.75 15.5711 8.75 13.5V9C8.75 7.75736 9.75736 6.75 11 6.75C12.2426 6.75 13.25 7.75736 13.25 9V13.5C13.25 13.9142 12.9142 14.25 12.5 14.25C12.0858 14.25 11.75 13.9142 11.75 13.5V9C11.75 8.58579 11.4142 8.25 11 8.25C10.5858 8.25 10.25 8.58579 10.25 9V13.5C10.25 14.7426 11.2574 15.75 12.5 15.75C13.7426 15.75 14.75 14.7426 14.75 13.5V9C14.75 6.92893 13.0711 5.25 11 5.25Z" fill="currentColor" />
</svg>