<svg xmlns="http://www.w3.org/2000/svg" width="24" height="24" viewBox="0 0 24 24" fill="none">
<path d="M10 10V6.2C10 5.07989 10 4.51984 9.78201 4.09202C9.59027 3.71569 9.28431 3.40973 8.90798 3.21799C8.48016 3 7.9201 3 6.8 3H6.2C5.07989 3 4.51984 3 4.09202 3.21799C3.71569 3.40973 3.40973 3.71569 3.21799 4.09202C3 4.51984 3 5.07989 3 6.2V17.8C3 18.9201 3 19.4802 3.21799 19.908C3.40973 20.2843 3.71569 20.5903 4.09202 20.782C4.51984 21 5.0799 21 6.2 21H6.8C7.92011 21 8.48016 21 8.90798 20.782C9.28431 20.5903 9.59027 20.2843 9.78201 19.908C10 19.4802 10 18.9201 10 17.8V14M14 10V6.2C14 5.0799 14 4.51984 14.218 4.09202C14.4097 3.71569 14.7157 3.40973 15.092 3.21799C15.5198 3 16.0799 3 17.2 3H17.8C18.9201 3 19.4802 3 19.908 3.21799C20.2843 3.40973 20.5903 3.71569 20.782 4.09202C21 4.51984 21 5.0799 21 6.2V17.8C21 18.9201 21 19.4802 20.782 19.908C20.5903 20.2843 20.2843 20.5903 19.908 20.782C19.4802 21 18.9201 21 17.8 21H17.2C16.0799 21 15.5198 21 15.092 20.782C14.7157 20.5903 14.4097 20.2843 14.218 19.908C14 19.4802 14 18.9201 14 17.8V14" stroke="currentColor" stroke-width={1.5} stroke-linecap="round" stroke-linejoin="round" />
</svg>