<svg xmlns="http://www.w3.org/2000/svg" width="24" height="24" viewBox="0 0 24 24" fill="none">
<g clipPath="url(#clip0_9_4084)"><path fill-rule="evenodd" clip-rule="evenodd" d="M11.2499 2.56763C11.2499 1.70553 11.2499 1.27448 11.0906 1.10207C10.9528 0.952898 10.7489 0.883549 10.5488 0.917772C10.3174 0.957326 10.0546 1.29899 9.52897 1.98231L4.24995 8.84503C3.71438 9.54128 3.44659 9.8894 3.26173 10.2258C2.32585 11.929 2.46166 14.0202 3.60997 15.5881C3.83679 15.8978 4.14735 16.2083 4.76848 16.8295C5.01338 17.0744 5.13584 17.1968 5.26347 17.3047C5.89813 17.8413 6.68417 18.1669 7.51238 18.2363C7.67894 18.2502 7.85212 18.2502 8.19847 18.2502H15.8013C16.1477 18.2502 16.3208 18.2502 16.4874 18.2363C17.3156 18.1669 18.1016 17.8413 18.7363 17.3047C18.8639 17.1968 18.9864 17.0744 19.2313 16.8295C19.8524 16.2083 20.163 15.8978 20.3898 15.5881C21.5381 14.0202 21.6739 11.929 20.738 10.2258C20.5532 9.8894 20.2854 9.54128 19.7498 8.84503L14.4708 1.98231C13.9452 1.29899 13.6824 0.957326 13.451 0.917772C13.2508 0.883549 13.0469 0.952898 12.9091 1.10207C12.7499 1.27448 12.7499 1.70553 12.7499 2.56764V7.0002C12.7499 7.41442 12.4141 7.7502 11.9999 7.7502C11.5857 7.7502 11.2499 7.41442 11.2499 7.0002V2.56763ZM13.9999 12.0002C13.9999 13.1048 13.1045 14.0002 11.9999 14.0002C10.8953 14.0002 9.99989 13.1048 9.99989 12.0002C9.99989 10.8956 10.8953 10.0002 11.9999 10.0002C13.1045 10.0002 13.9999 10.8956 13.9999 12.0002Z" fill="currentColor" /><path d="M5.24989 21.0002C5.24989 20.0337 6.03339 19.2502 6.99989 19.2502H16.9999C17.9664 19.2502 18.7499 20.0337 18.7499 21.0002C18.7499 21.9667 17.9664 22.7502 16.9999 22.7502H6.99989C6.03339 22.7502 5.24989 21.9667 5.24989 21.0002Z" fill="currentColor" /></g><defs><clipPath id="clip0_9_4084"><rect width={24} height={24} fill="white" /></clipPath></defs>
</svg>