<svg xmlns="http://www.w3.org/2000/svg" width="24" height="24" viewBox="0 0 24 24" fill="none">
<path d="M18.5 16.5L19 16C19.4859 15.5141 19.7289 15.2711 19.9071 15.0295C20.8358 13.7704 20.9453 12.0855 20.1872 10.7169C20.0417 10.4542 19.8322 10.1819 19.4132 9.63718L14.5364 3.29732C13.6733 2.17534 13.2418 1.61435 12.7158 1.41274C12.255 1.23608 11.745 1.23608 11.2842 1.41274C10.7582 1.61435 10.3267 2.17534 9.4636 3.29732L5.42623 8.5459C4.21263 10.1236 3.60583 10.9124 3.41126 11.769C3.23982 12.5237 3.29101 13.3119 3.55863 14.0382C3.86235 14.8624 4.56608 15.5661 5.97354 16.9735L6.59411 17.5941C7.11297 18.113 7.3724 18.3724 7.67515 18.5579C7.94356 18.7224 8.2362 18.8436 8.5423 18.9171C8.88757 19 9.25445 19 9.98823 19H16.5C17.3284 19 18 19.6716 18 20.5C18 21.3284 17.3284 22 16.5 22H8M12 2V7M12 14C13.1046 14 14 13.1046 14 12C14 10.8954 13.1046 10 12 10C10.8954 10 10 10.8954 10 12" stroke="currentColor" stroke-width={1.5} stroke-linecap="round" stroke-linejoin="round" />
</svg>