<svg xmlns="http://www.w3.org/2000/svg" width="24" height="24" viewBox="0 0 24 24" fill="none">
<g clipPath="url(#clip0_9_4091)"><path fill-rule="evenodd" clip-rule="evenodd" d="M1.79006 5.13244C1.66305 4.41271 1.59955 4.05284 1.67749 3.88278C1.79185 3.63329 2.06092 3.4932 2.33089 3.54259C2.51491 3.57625 2.77331 3.83465 3.2901 4.35144L6.93927 8.00061C7.23216 8.2935 7.70703 8.2935 7.99993 8.00061C8.29282 7.70771 8.29282 7.23284 7.99993 6.93995L4.35129 3.29131C3.83471 2.77473 3.57641 2.51643 3.54272 2.3325C3.49325 2.06243 3.6334 1.79324 3.88302 1.6789C4.05302 1.60102 4.41275 1.6645 5.1322 1.79147L14.4965 3.444C15.556 3.63096 16.0857 3.72444 16.5296 3.89364C18.1488 4.51078 19.333 5.92228 19.6594 7.62409C19.7489 8.09069 19.7489 8.62859 19.7489 9.70439C19.7489 10.1464 19.7489 10.3674 19.7262 10.5796C19.6445 11.3433 19.3446 12.0675 18.8623 12.6653C18.7284 12.8314 18.5721 12.9877 18.2596 13.3003L13.3004 18.2602C12.9876 18.5729 12.8313 18.7293 12.6651 18.8634C12.0673 19.3457 11.3432 19.6456 10.5794 19.7274C10.3671 19.7501 10.1459 19.7501 9.70365 19.7501C8.62738 19.7501 8.08925 19.7501 7.62246 19.6606C5.92096 19.3341 4.50973 18.1501 3.89256 16.5312C3.72324 16.0871 3.62972 15.5572 3.44268 14.4973L1.79006 5.13244ZM12.9999 11.0001C12.9999 12.1047 12.1044 13.0001 10.9999 13.0001C9.8953 13.0001 8.99987 12.1047 8.99987 11.0001C8.99987 9.89555 9.8953 9.00012 10.9999 9.00012C12.1044 9.00012 12.9999 9.89555 12.9999 11.0001Z" fill="currentColor" /><path d="M19.7186 13.2198C20.4257 12.5127 21.5721 12.5127 22.2792 13.2198C22.9863 13.9269 22.9863 15.0733 22.2792 15.7804L15.2792 22.7805C14.5721 23.4876 13.4257 23.4876 12.7186 22.7805C12.0115 22.0734 12.0115 20.927 12.7186 20.2199L19.7186 13.2198Z" fill="currentColor" /></g><defs><clipPath id="clip0_9_4091"><rect width={24} height={24} fill="white" /></clipPath></defs>
</svg>