<svg xmlns="http://www.w3.org/2000/svg" width="24" height="24" viewBox="0 0 24 24" fill="none">
<path d="M14.75 1.25C17.55 1.25 18.95 1.25013 20.0195 1.79492C20.9603 2.27429 21.7257 3.03966 22.2051 3.98047C22.7499 5.04998 22.75 6.45005 22.75 9.25V14.75C22.75 17.55 22.7499 18.95 22.2051 20.0195C21.7257 20.9603 20.9603 21.7257 20.0195 22.2051C18.95 22.7499 17.55 22.75 14.75 22.75H9.25C6.45005 22.75 5.04998 22.7499 3.98047 22.2051C3.03966 21.7257 2.27429 20.9603 1.79492 20.0195C1.25013 18.95 1.25 17.55 1.25 14.75V9.25C1.25 6.45005 1.25013 5.04998 1.79492 3.98047C2.27429 3.03966 3.03966 2.27429 3.98047 1.79492C5.04998 1.25013 6.45005 1.25 9.25 1.25H14.75ZM7 17.25C6.58579 17.25 6.25 17.5858 6.25 18C6.25 18.4142 6.58579 18.75 7 18.75H17C17.4142 18.75 17.75 18.4142 17.75 18C17.75 17.5858 17.4142 17.25 17 17.25H7ZM12.5303 7.96973C12.2557 7.69511 11.8209 7.67761 11.5264 7.91797L11.4697 7.96973L9.96973 9.46973C9.67689 9.76262 9.67685 10.2374 9.96973 10.5303C10.2626 10.8231 10.7374 10.8231 11.0303 10.5303L11.25 10.3105V13.6895L11.0303 13.4697L10.9736 13.418C10.6791 13.1776 10.2444 13.1951 9.96973 13.4697C9.69515 13.7444 9.6776 14.1791 9.91797 14.4736L9.96973 14.5303L11.4697 16.0303C11.7626 16.3231 12.2374 16.3231 12.5303 16.0303L14.0303 14.5303C14.3231 14.2374 14.3231 13.7626 14.0303 13.4697C13.7374 13.1768 13.2626 13.1768 12.9697 13.4697L12.75 13.6895V10.3105L12.9697 10.5303L13.0264 10.582C13.3209 10.8223 13.7557 10.8048 14.0303 10.5303C14.3049 10.2557 14.3223 9.82095 14.082 9.52637L14.0303 9.46973L12.5303 7.96973ZM7 5.25C6.58579 5.25 6.25 5.58579 6.25 6C6.25 6.41421 6.58579 6.75 7 6.75H17C17.4142 6.75 17.75 6.41421 17.75 6C17.75 5.58579 17.4142 5.25 17 5.25H7Z" fill="currentColor" />
</svg>