<svg xmlns="http://www.w3.org/2000/svg" width="24" height="24" viewBox="0 0 24 24" fill="none">
<path d="M13.9502 1.25C17.0304 1.25 18.5706 1.25016 19.7471 1.84961C20.7818 2.37689 21.6231 3.21816 22.1504 4.25293C22.7498 5.42942 22.75 6.96965 22.75 10.0498V13.9502C22.75 17.0304 22.7498 18.5706 22.1504 19.7471C21.6231 20.7818 20.7818 21.6231 19.7471 22.1504C18.5706 22.7498 17.0304 22.75 13.9502 22.75H10.0498C6.96965 22.75 5.42942 22.7498 4.25293 22.1504C3.21816 21.6231 2.37689 20.7818 1.84961 19.7471C1.25016 18.5706 1.25 17.0304 1.25 13.9502V10.0498C1.25 6.96965 1.25016 5.42942 1.84961 4.25293C2.37689 3.21816 3.21816 2.37689 4.25293 1.84961C5.42942 1.25016 6.96965 1.25 10.0498 1.25H13.9502ZM7 7.25C6.58579 7.25 6.25 7.58579 6.25 8V16C6.25 16.4142 6.58579 16.75 7 16.75C7.41421 16.75 7.75 16.4142 7.75 16V13.75H9.5C11.2949 13.75 12.75 12.2949 12.75 10.5C12.75 8.70507 11.2949 7.25 9.5 7.25H7ZM15.6924 10.25C14.6353 10.25 13.6943 11.0647 13.6943 12.1699C13.6943 13.0854 14.3546 13.8326 15.2188 14.0352L16.8838 14.4258C17.1305 14.4837 17.25 14.6719 17.25 14.8301C17.25 15.0171 17.0733 15.25 16.752 15.25H15.4385C15.0883 15.25 14.7959 15.0643 14.6621 14.8135L14 15.167L13.3379 15.5195C13.7489 16.2902 14.5705 16.75 15.4385 16.75H16.752C17.809 16.75 18.75 15.9353 18.75 14.8301C18.75 13.9146 18.0897 13.1674 17.2256 12.9648L15.5605 12.5742C15.3139 12.5163 15.1943 12.328 15.1943 12.1699C15.1943 11.9829 15.3711 11.75 15.6924 11.75H16.4824C16.6465 11.75 16.8006 11.7962 16.9268 11.875L17.043 11.9639L17.1016 12.0137C17.4037 12.244 17.837 12.2128 18.1025 11.9297C18.3858 11.6275 18.3705 11.1524 18.0684 10.8691C17.64 10.4677 17.0686 10.25 16.4824 10.25H15.6924ZM14.6621 14.8135C14.4672 14.4481 14.0129 14.3102 13.6475 14.5049C13.282 14.6998 13.1431 15.1541 13.3379 15.5195L14.6621 14.8135ZM9.5 8.75C10.4665 8.75 11.25 9.5335 11.25 10.5C11.25 11.4665 10.4665 12.25 9.5 12.25H7.75V8.75H9.5Z" fill="currentColor" />
</svg>