<svg xmlns="http://www.w3.org/2000/svg" width="24" height="24" viewBox="0 0 24 24" fill="none">
<path d="M17 14C20.2927 14.6904 22 16.1241 22 17.7807C22 20.111 17.5228 22 12 22C6.47715 22 2 20.111 2 17.7807C2 16.1241 3.70729 14.6904 7 14M12 12C14.7614 12 17 9.76142 17 7C17 6.65753 16.9656 6.32311 16.9 6M12 12C9.23858 12 7 9.76142 7 7C7 4.23858 9.23858 2 12 2C12.7111 2 13.3875 2.14845 14 2.41604M12 12V18" stroke="currentColor" stroke-width={1.5} stroke-linecap="round" stroke-linejoin="round" />
</svg>