<svg xmlns="http://www.w3.org/2000/svg" width="24" height="24" viewBox="0 0 24 24" fill="none">
<path d="M6.8457 13.2656C7.251 13.1806 7.64924 13.4405 7.73438 13.8457C7.81936 14.251 7.55952 14.6492 7.1543 14.7344C5.57351 15.0658 4.44303 15.5624 3.72559 16.1201C3.01913 16.6693 2.75014 17.2413 2.75 17.7803C2.75 18.1049 2.90291 18.48 3.31543 18.8916C3.73107 19.3062 4.37072 19.7146 5.2207 20.0732C6.91765 20.7892 9.314 21.25 12 21.25C14.686 21.25 17.0824 20.7892 18.7793 20.0732C19.6293 19.7146 20.2689 19.3062 20.6846 18.8916C21.0971 18.48 21.25 18.1049 21.25 17.7803C21.2499 17.2413 20.9809 16.6693 20.2744 16.1201C19.6467 15.6321 18.703 15.191 17.418 14.8662L16.8457 14.7344L16.7715 14.7148C16.4094 14.5996 16.1859 14.2257 16.2656 13.8457C16.3454 13.4658 16.7002 13.2139 17.0781 13.2539L17.1543 13.2656L17.7793 13.4102C19.2016 13.769 20.3558 14.2829 21.1953 14.9355C22.1654 15.6897 22.7498 16.6629 22.75 17.7803C22.75 18.6206 22.3434 19.3563 21.7441 19.9541C21.1477 20.5491 20.322 21.0502 19.3623 21.4551C17.44 22.2661 14.8366 22.75 12 22.75C9.16337 22.75 6.56001 22.2661 4.6377 21.4551C3.67803 21.0502 2.85228 20.5491 2.25586 19.9541C1.65661 19.3563 1.25 18.6206 1.25 17.7803C1.25015 16.6629 1.83464 15.6897 2.80469 14.9355C3.76401 14.1898 5.13396 13.6246 6.8457 13.2656ZM12 2C14.7614 2 17 4.23858 17 7C17 9.50747 15.154 11.5827 12.7471 11.9434C12.7485 11.9621 12.75 11.9809 12.75 12V18C12.75 18.4142 12.4142 18.75 12 18.75C11.5858 18.75 11.25 18.4142 11.25 18V12C11.25 11.9809 11.2506 11.9621 11.252 11.9434C8.84544 11.5823 7 9.50714 7 7C7 4.23858 9.23858 2 12 2Z" fill="currentColor" />
</svg>