<svg xmlns="http://www.w3.org/2000/svg" width="24" height="24" viewBox="0 0 24 24" fill="none">
<path d="M19.7778 17C21.1676 17.5273 22 18.1987 22 18.9299C22 20.6255 17.5228 22 12 22C6.47715 22 2 20.6255 2 18.9299C2 18.1987 2.83244 17.5273 4.22222 17M10 8C10 9.10457 10.8954 10 12 10C13.1046 10 14 9.10457 14 8C14 6.89543 13.1046 6 12 6M17.8852 5C18.5914 6.05829 19 7.35037 19 8.80006C19 15.0816 13.5556 18 12 18C10.4444 18 5 15.0816 5 8.80006C5 4.80003 8.11111 2 12 2C13.076 2 14.0925 2.21436 15 2.6092" stroke="currentColor" stroke-width={1.5} stroke-linecap="round" stroke-linejoin="round" />
</svg>