<svg xmlns="http://www.w3.org/2000/svg" width="24" height="24" viewBox="0 0 24 24" fill="none">
<path opacity={0.32} fill-rule="evenodd" clip-rule="evenodd" d="M4.25 8.80006C4.25 4.34964 7.73402 1.25 12 1.25C16.266 1.25 19.75 4.34964 19.75 8.80006C19.75 12.1782 18.2799 14.6634 16.6066 16.2929C15.7729 17.1048 14.8844 17.7093 14.0907 18.114C13.3226 18.5056 12.5644 18.75 12 18.75C11.4356 18.75 10.6774 18.5056 9.90935 18.114C9.11557 17.7093 8.22711 17.1048 7.39342 16.2929C5.72005 14.6634 4.25 12.1782 4.25 8.80006Z" fill="currentColor" /><path d="M3.95605 16.2988C4.34333 16.1519 4.77689 16.3471 4.92383 16.7344C5.07038 17.1215 4.87536 17.5543 4.48828 17.7012L4.25195 17.7949C3.72114 18.0145 3.33094 18.243 3.07617 18.46C2.78162 18.7109 2.75006 18.8712 2.75 18.9297C2.75002 18.9979 2.79748 19.2061 3.22656 19.5176C3.63912 19.817 4.2846 20.1183 5.14941 20.3838C6.86983 20.9119 9.29201 21.25 12 21.25C14.708 21.25 17.1302 20.9119 18.8506 20.3838C19.7154 20.1183 20.3609 19.817 20.7734 19.5176C21.2025 19.2061 21.25 18.9979 21.25 18.9297C21.2499 18.8712 21.2184 18.7109 20.9238 18.46C20.6326 18.212 20.1646 17.9489 19.5117 17.7012C19.1246 17.5543 18.9296 17.1215 19.0762 16.7344C19.2139 16.3713 19.6035 16.1771 19.9707 16.2754L20.0439 16.2988L20.3154 16.4062C20.9387 16.6635 21.483 16.9653 21.8965 17.3174C22.365 17.7164 22.7499 18.257 22.75 18.9297C22.75 19.7093 22.2371 20.3084 21.6543 20.7314C21.0548 21.1666 20.2358 21.5273 19.291 21.8174C17.3922 22.4003 14.8147 22.75 12 22.75C9.18535 22.75 6.60783 22.4003 4.70898 21.8174C3.76422 21.5273 2.94519 21.1666 2.3457 20.7314C1.76289 20.3084 1.25002 19.7093 1.25 18.9297C1.25007 18.257 1.63502 17.7164 2.10352 17.3174C2.57595 16.9151 3.21918 16.5784 3.95605 16.2988ZM12 6C13.1046 6 14 6.89543 14 8C14 9.10457 13.1046 10 12 10C10.8954 10 10 9.10457 10 8C10 6.89543 10.8954 6 12 6Z" fill="currentColor" />
</svg>