<svg xmlns="http://www.w3.org/2000/svg" width="24" height="24" viewBox="0 0 24 24" fill="none">
<path opacity={0.12} fill-rule="evenodd" clip-rule="evenodd" d="M12 2C8.11111 2 5 4.80003 5 8.80006C5 15.0816 10.4444 18 12 18C13.5556 18 19 15.0816 19 8.80006C19 4.80003 15.8889 2 12 2ZM12 10C13.1046 10 14 9.10457 14 8C14 6.89543 13.1046 6 12 6C10.8954 6 10 6.89543 10 8C10 9.10457 10.8954 10 12 10Z" fill="currentColor" /><path d="M19.7778 17C21.1676 17.5273 22 18.1987 22 18.9299C22 20.6255 17.5228 22 12 22C6.47715 22 2 20.6255 2 18.9299C2 18.1987 2.83244 17.5273 4.22222 17M14 8C14 9.10457 13.1046 10 12 10C10.8954 10 10 9.10457 10 8C10 6.89543 10.8954 6 12 6C13.1046 6 14 6.89543 14 8ZM12 18C13.5556 18 19 15.0816 19 8.80006C19 4.80003 15.8889 2 12 2C8.11111 2 5 4.80003 5 8.80006C5 15.0816 10.4444 18 12 18Z" stroke="currentColor" stroke-width={1.5} stroke-linecap="round" stroke-linejoin="round" />
</svg>