<svg xmlns="http://www.w3.org/2000/svg" width="24" height="24" viewBox="0 0 24 24" fill="none">
<path opacity={0.12} d="M3 10.5C3 5.5 7 2 12 2C17 2 21 5.5 21 10.5C21 18.3518 14 21.9998 12 21.9998C10 21.9998 3 18.3518 3 10.5Z" fill="currentColor" /><path d="M9.5 9.5L12 12M12 12L14.5 14.5M12 12L9.5 14.5M12 12L14.5 9.5M12 21.9998C14 21.9998 21 18.3518 21 10.5C21 5.5 17 2 12 2C7 2 3 5.5 3 10.5C3 18.3518 10 21.9998 12 21.9998Z" stroke="currentColor" stroke-width={1.5} stroke-linecap="round" stroke-linejoin="round" />
</svg>