<svg xmlns="http://www.w3.org/2000/svg" width="24" height="24" viewBox="0 0 24 24" fill="none">
<path d="M1.46967 1.46973C1.76256 1.17683 2.23732 1.17683 2.53022 1.46973L22.5302 21.4697L22.582 21.5264C22.8223 21.8209 22.8048 22.2557 22.5302 22.5303C22.2556 22.8049 21.8209 22.8223 21.5263 22.582L21.4697 22.5303L18.2226 19.2832C17.2046 20.3436 16.0954 21.1521 15.079 21.7178C13.9076 22.3698 12.7705 22.75 11.9999 22.75C11.3293 22.75 10.3934 22.4635 9.41694 21.9795C8.41565 21.4832 7.29084 20.7395 6.23432 19.7393C4.11554 17.7333 2.24994 14.6709 2.24994 10.5C2.24994 8.41602 2.89399 6.55841 4.00287 5.06348L1.46967 2.53027C1.17678 2.23738 1.17678 1.76262 1.46967 1.46973ZM20.8378 15.2822C20.682 15.6658 20.2449 15.8509 19.8613 15.6953C19.4775 15.5395 19.2924 15.1016 19.4482 14.7178L20.8378 15.2822ZM11.9999 1.25C17.3565 1.25 21.7499 5.03039 21.7499 10.5C21.7499 12.2923 21.4045 13.8863 20.8378 15.2822L20.1435 15L19.4482 14.7178C19.9435 13.4975 20.2499 12.0952 20.2499 10.5C20.2499 5.96961 16.6434 2.75 11.9999 2.75C10.5196 2.75 9.14418 3.07979 7.9599 3.6709C7.58934 3.85587 7.13908 3.70547 6.95404 3.33496C6.76905 2.96435 6.91937 2.5141 7.28998 2.3291C8.69052 1.63002 10.2963 1.25 11.9999 1.25ZM11.9999 7.25C14.071 7.25 15.7499 8.92893 15.7499 11C15.7499 11.4142 15.4142 11.75 14.9999 11.75C14.5857 11.75 14.2499 11.4142 14.2499 11C14.2499 9.75736 13.2426 8.75 11.9999 8.75C11.5857 8.75 11.2499 8.41421 11.2499 8C11.2499 7.58579 11.5857 7.25 11.9999 7.25Z" fill="currentColor" />
</svg>