<svg xmlns="http://www.w3.org/2000/svg" width="24" height="24" viewBox="0 0 24 24" fill="none">
<path opacity={0.32} d="M12 1.25C6.64344 1.25 2.25 5.03039 2.25 10.5C2.25 14.6709 4.1156 17.7331 6.23437 19.739C7.29094 20.7393 8.41559 21.4828 9.41692 21.9791C10.3934 22.4631 11.3293 22.7498 12 22.7498C12.6707 22.7498 13.6066 22.4631 14.5831 21.9791C15.5844 21.4828 16.7091 20.7393 17.7656 19.739C19.8844 17.7331 21.75 14.6709 21.75 10.5C21.75 5.03039 17.3566 1.25 12 1.25Z" fill="currentColor" /><path d="M13.9697 8.96967C14.2626 8.67678 14.7373 8.67678 15.0302 8.96967C15.3231 9.26256 15.3231 9.73732 15.0302 10.0302L13.0605 11.9999L15.0302 13.9697L15.082 14.0263C15.3223 14.3209 15.3048 14.7556 15.0302 15.0302C14.7556 15.3048 14.3209 15.3223 14.0263 15.082L13.9697 15.0302L11.9999 13.0605L10.0302 15.0302C9.73732 15.3231 9.26256 15.3231 8.96967 15.0302C8.67678 14.7373 8.67678 14.2626 8.96967 13.9697L10.9394 11.9999L8.96967 10.0302C8.67678 9.73732 8.67678 9.26256 8.96967 8.96967C9.26256 8.67678 9.73732 8.67678 10.0302 8.96967L11.9999 10.9394L13.9697 8.96967Z" fill="currentColor" />
</svg>