<svg xmlns="http://www.w3.org/2000/svg" width="24" height="24" viewBox="0 0 24 24" fill="none">
<path d="M12 1.25C17.3566 1.25 21.75 5.03039 21.75 10.5C21.75 14.6709 19.8844 17.7333 17.7656 19.7393C16.7091 20.7395 15.5843 21.4832 14.583 21.9795C13.6066 22.4635 12.6707 22.75 12 22.75C11.3293 22.75 10.3934 22.4635 9.41699 21.9795C8.4157 21.4832 7.2909 20.7395 6.23438 19.7393C4.1156 17.7333 2.25 14.6709 2.25 10.5C2.25 5.03039 6.64344 1.25 12 1.25ZM15.0303 8.96973C14.7374 8.67683 14.2626 8.67683 13.9697 8.96973L12 10.9395L10.0303 8.96973C9.73738 8.67683 9.26262 8.67683 8.96973 8.96973C8.67683 9.26262 8.67683 9.73738 8.96973 10.0303L10.9395 12L8.96973 13.9697C8.67683 14.2626 8.67683 14.7374 8.96973 15.0303C9.26262 15.3232 9.73738 15.3232 10.0303 15.0303L12 13.0605L13.9697 15.0303L14.0264 15.082C14.3209 15.3223 14.7557 15.3049 15.0303 15.0303C15.3049 14.7557 15.3223 14.3209 15.082 14.0264L15.0303 13.9697L13.0605 12L15.0303 10.0303C15.3232 9.73738 15.3232 9.26262 15.0303 8.96973Z" fill="currentColor" />
</svg>