<svg xmlns="http://www.w3.org/2000/svg" width="24" height="24" viewBox="0 0 24 24" fill="none">
<path d="M2 2L5.00853 5.00853M22 22L18.1962 18.1962L5.00853 5.00853M5.00853 5.00853C3.75084 6.44902 3 8.33373 3 10.5C3 18.3518 10 21.9998 12 21.9998C12.6294 21.9998 13.7541 21.6385 15 20.8985C15.1648 20.8006 15.3318 20.6961 15.5 20.5849M7.62481 3C8.91725 2.35486 10.4079 2 12 2C17 2 21 5.5 21 10.5C21 12.1938 20.6743 13.6919 20.1433 15M12 8C13.6569 8 15 9.34315 15 11" stroke="currentColor" stroke-width={1.5} stroke-linecap="round" stroke-linejoin="round" />
</svg>