<svg xmlns="http://www.w3.org/2000/svg" width="24" height="24" viewBox="0 0 24 24" fill="none">
<path d="M12 1.25C17.3566 1.25 21.75 5.03039 21.75 10.5C21.75 14.6709 19.8844 17.7333 17.7656 19.7393C16.7091 20.7395 15.5843 21.4832 14.583 21.9795C13.6066 22.4635 12.6707 22.75 12 22.75C11.3293 22.75 10.3934 22.4635 9.41699 21.9795C8.4157 21.4832 7.2909 20.7395 6.23438 19.7393C4.1156 17.7333 2.25 14.6709 2.25 10.5C2.25 5.03039 6.64344 1.25 12 1.25ZM16.5303 8.46973C16.2374 8.17683 15.7626 8.17683 15.4697 8.46973L11 12.9395L9.53027 11.4697L9.47363 11.418C9.17905 11.1777 8.74433 11.1951 8.46973 11.4697C8.17683 11.7626 8.17683 12.2374 8.46973 12.5303L10.4697 14.5303C10.7626 14.8232 11.2374 14.8232 11.5303 14.5303L16.5303 9.53027C16.8232 9.23738 16.8232 8.76262 16.5303 8.46973Z" fill="currentColor" />
</svg>