<svg xmlns="http://www.w3.org/2000/svg" width="24" height="24" viewBox="0 0 24 24" fill="none">
<path d="M12 1.25C17.3566 1.25 21.75 5.03039 21.75 10.5C21.75 14.6709 19.8844 17.7333 17.7656 19.7393C16.7091 20.7395 15.5843 21.4832 14.583 21.9795C13.6066 22.4635 12.6707 22.75 12 22.75C11.3293 22.75 10.3934 22.4635 9.41699 21.9795C8.4157 21.4832 7.2909 20.7395 6.23438 19.7393C4.1156 17.7333 2.25 14.6709 2.25 10.5C2.25 5.03039 6.64344 1.25 12 1.25ZM9 11.25C8.58579 11.25 8.25 11.5858 8.25 12C8.25 12.4142 8.58579 12.75 9 12.75H15C15.4142 12.75 15.75 12.4142 15.75 12C15.75 11.5858 15.4142 11.25 15 11.25H9Z" fill="currentColor" />
</svg>