<svg xmlns="http://www.w3.org/2000/svg" width="24" height="24" viewBox="0 0 24 24" fill="none">
<path opacity={0.32} d="M12 1.25C6.64344 1.25 2.25 5.03039 2.25 10.5C2.25 14.6709 4.1156 17.7331 6.23437 19.739C7.29094 20.7393 8.41559 21.4828 9.41692 21.9791C10.3934 22.4631 11.3293 22.7498 12 22.7498C12.6707 22.7498 13.6066 22.4631 14.5831 21.9791C15.5844 21.4828 16.7091 20.7393 17.7656 19.739C19.8844 17.7331 21.75 14.6709 21.75 10.5C21.75 5.03039 17.3566 1.25 12 1.25Z" fill="currentColor" /><path d="M15.4697 8.46967C15.7626 8.17678 16.2373 8.17678 16.5302 8.46967C16.8231 8.76256 16.8231 9.23732 16.5302 9.53022L11.5302 14.5302C11.2373 14.8231 10.7626 14.8231 10.4697 14.5302L8.46967 12.5302C8.17678 12.2373 8.17678 11.7626 8.46967 11.4697C8.74427 11.1951 9.17899 11.1776 9.47358 11.4179L9.53022 11.4697L10.9999 12.9394L15.4697 8.46967Z" fill="currentColor" />
</svg>