<svg xmlns="http://www.w3.org/2000/svg" width="24" height="24" viewBox="0 0 24 24" fill="none">
<path opacity={0.32} d="M4.44357 4.51526C3.06594 6.09311 2.25 8.1533 2.25 10.5C2.25 14.6709 4.1156 17.733 6.23437 19.739C7.29094 20.7393 8.41559 21.4828 9.41692 21.9791C10.3934 22.4631 11.3293 22.7498 12 22.7498C12.7706 22.7498 13.908 22.37 15.0796 21.7179C16.2804 21.0495 17.6116 20.0433 18.7679 18.6817L4.44357 4.51526Z" fill="currentColor" /><path d="M1.46967 1.46973C1.76256 1.17683 2.23732 1.17683 2.53022 1.46973L22.5302 21.4697L22.582 21.5264C22.8223 21.8209 22.8048 22.2557 22.5302 22.5303C22.2556 22.8049 21.8209 22.8223 21.5263 22.582L21.4697 22.5303L1.46967 2.53027C1.17678 2.23738 1.17678 1.76262 1.46967 1.46973ZM11.9999 1.25C17.3565 1.25 21.7499 5.03039 21.7499 10.5C21.7499 12.2923 21.4055 13.8863 20.8388 15.2822C20.683 15.666 20.245 15.851 19.8613 15.6953C19.4775 15.5395 19.2924 15.1016 19.4482 14.7178C19.9435 13.4975 20.2499 12.0952 20.2499 10.5C20.2499 5.96961 16.6434 2.75 11.9999 2.75C10.5196 2.75003 9.14416 3.07977 7.9599 3.6709C7.58932 3.85588 7.13906 3.70553 6.95404 3.33496C6.76906 2.96437 6.91942 2.51411 7.28998 2.3291C8.69049 1.63001 10.2963 1.25003 11.9999 1.25ZM11.9999 7.25C14.071 7.25 15.7499 8.92893 15.7499 11C15.7499 11.4142 15.4142 11.75 14.9999 11.75C14.5858 11.7499 14.2499 11.4141 14.2499 11C14.2499 9.75736 13.2426 8.75 11.9999 8.75C11.5858 8.7499 11.2499 8.41415 11.2499 8C11.2499 7.58585 11.5858 7.2501 11.9999 7.25Z" fill="currentColor" />
</svg>