<svg xmlns="http://www.w3.org/2000/svg" width="24" height="24" viewBox="0 0 24 24" fill="none">
<path d="M11 11L9.80756 15.6057M6.7766 13.0878C5.5 9.5 8.5 6.44445 11.9999 6.44445C15.0677 6.44445 17.5 8.73889 17.5 11.5C17.5 15.4708 12.9896 17.7157 9.80756 15.6057M9.80756 15.6057L8.3285 21.3043M8.3285 21.3043C11.9207 22.7197 16.1668 21.9753 19.0711 19.0711C22.9763 15.1658 22.9763 8.83418 19.0711 4.92894C15.1658 1.02369 8.83418 1.02369 4.92894 4.92894C1.02369 8.83416 1.02369 15.1658 4.92894 19.0711C5.92994 20.0721 7.09037 20.8165 8.3285 21.3043Z" stroke="currentColor" stroke-width={1.5} stroke-linecap="round" stroke-linejoin="round" />
</svg>