<svg xmlns="http://www.w3.org/2000/svg" width="24" height="24" viewBox="0 0 24 24" fill="none">
<path d="M12 1.25C17.9371 1.25 22.75 6.06294 22.75 12C22.75 17.9371 17.9371 22.75 12 22.75C10.8979 22.75 9.83502 22.5825 8.83398 22.2744L10.292 16.7129C13.8455 18.2334 18.2499 15.7306 18.25 11.5C18.2499 8.272 15.4269 5.69449 12 5.69434C10.0377 5.69441 8.19982 6.54923 7.02441 7.93555C5.9091 9.25112 5.40121 11.0376 5.94629 12.9541L6.06934 13.3389L6.09863 13.4102C6.2615 13.7535 6.66158 13.9238 7.02734 13.7939C7.3931 13.6638 7.59529 13.2792 7.50488 12.9102L7.4834 12.8359L7.3916 12.5518C6.98725 11.1385 7.35717 9.86274 8.16895 8.90527C9.04929 7.8671 10.4627 7.19441 12 7.19434C14.7082 7.19448 16.7499 9.20606 16.75 11.5C16.7499 14.6628 13.3353 16.5574 10.6758 15.2393L11.7256 11.1875C11.8292 10.7866 11.5884 10.3772 11.1875 10.2734C10.7868 10.17 10.3774 10.4109 10.2734 10.8115L9.08203 15.415L7.42578 21.7285C3.77669 20.0098 1.25 16.3009 1.25 12C1.25 6.06294 6.06294 1.25 12 1.25Z" fill="currentColor" />
</svg>