<svg xmlns="http://www.w3.org/2000/svg" width="24" height="24" viewBox="0 0 24 24" fill="none">
<path d="M21.7449 12.3252C21.5734 17.5594 17.2758 21.75 11.9998 21.75C10.2239 21.75 8.55893 21.275 7.12482 20.4453C7.15504 20.4393 7.18529 20.433 7.21564 20.4268C9.55651 19.9477 12.4547 18.7992 15.3748 17.1133C17.9595 15.621 20.1714 13.9334 21.7449 12.3252ZM11.9998 2.25C14.2451 2.25 16.3135 3.0088 17.9617 4.28418C19.0673 4.0751 20.0982 4.00689 20.9686 4.1377C21.8666 4.27277 22.7686 4.65163 23.2586 5.5C23.748 6.34805 23.6253 7.31727 23.2938 8.16211C22.9572 9.01927 22.3444 9.92078 21.5613 10.8125C19.9549 12.6419 17.4671 14.6169 14.4998 16.3301C11.563 18.0256 8.63998 19.1871 6.26642 19.6729C5.08508 19.9146 3.98231 20.0009 3.05939 19.8672C2.15076 19.7356 1.23609 19.3581 0.741032 18.501C0.251309 17.6528 0.374171 16.6829 0.705876 15.8379C1.02803 15.0174 1.60429 14.157 2.33967 13.3027C2.28273 12.8764 2.24982 12.4419 2.24982 12C2.24982 6.61529 6.61514 2.25011 11.9998 2.25ZM2.99884 15.7451C2.80876 16.0449 2.66458 16.3204 2.5672 16.5684C2.34286 17.14 2.4168 17.4029 2.47345 17.501C2.53112 17.6004 2.72608 17.7978 3.3465 17.8877C3.60651 17.9253 3.91107 17.9362 4.25763 17.9219C3.7492 17.2581 3.32483 16.5277 2.99884 15.7451ZM19.7449 6.07813C20.2524 6.74075 20.6771 7.46992 21.0028 8.25098C21.1916 7.95254 21.3355 7.67853 21.4324 7.43164C21.6566 6.86056 21.5828 6.59835 21.5262 6.5C21.4692 6.4017 21.2788 6.20657 20.6717 6.11524C20.4087 6.0757 20.0989 6.06368 19.7449 6.07813Z" fill="currentColor" />
</svg>