<svg xmlns="http://www.w3.org/2000/svg" width="24" height="24" viewBox="0 0 24 24" fill="none">
<path d="M20.8103 10.1529C22.2952 8.46192 22.9388 6.94653 22.3923 6.00001C21.8457 5.05317 20.2106 4.85301 18.0027 5.29404M20.8103 10.1529C19.2938 11.8798 16.8999 13.7898 14 15.4641C13.6658 15.6571 13.3322 15.8427 13.0001 16.0207M20.8103 10.1529C20.9347 10.7491 21 11.3669 21 12C21 16.9706 16.9706 21 12 21C7.66255 21 4.04173 17.9316 3.18975 13.8471M20.8103 10.1529C20.4113 8.2402 19.4052 6.55034 18.0027 5.29404M18.0027 5.29404C16.4101 3.86752 14.3064 3 12 3C7.02947 3 3.00003 7.02944 3.00003 12C3.00003 12.6331 3.0654 13.2509 3.18975 13.8471M3.18975 13.8471C1.70481 15.5381 1.06121 17.0535 1.6077 18C2.38084 19.3391 5.33103 19.1847 9.00005 17.8351" stroke="currentColor" stroke-width={2} stroke-linecap="round" stroke-linejoin="round" />
</svg>