<svg xmlns="http://www.w3.org/2000/svg" width="24" height="24" viewBox="0 0 24 24" fill="none">
<path d="M4 5L4 19M21 14V14.5V15.1387C21 17.0478 21 18.0024 20.601 18.5353C20.2534 18.9997 19.7211 19.2903 19.1425 19.3316C18.4785 19.379 17.6755 18.8628 16.0696 17.8304L11.1872 14.6918C9.79366 13.7959 9.09688 13.348 8.85622 12.7784C8.64595 12.2808 8.64595 11.7192 8.85622 11.2216C9.09688 10.652 9.79366 10.2041 11.1872 9.30823L11.6667 9L12 8.78571M21 10V9.5V8.86133C21 6.95219 21 5.99762 20.601 5.46471C20.2534 5.0003 19.7211 4.70974 19.1425 4.66841C18.4785 4.62099 17.6755 5.13718 16.0696 6.16956L15.5556 6.5L15 6.85714" stroke="currentColor" stroke-width={1.5} stroke-linecap="round" stroke-linejoin="round" />
</svg>