<svg xmlns="http://www.w3.org/2000/svg" width="24" height="24" viewBox="0 0 24 24" fill="none">
<path d="M16.3789 12.6426C16.7809 12.6188 17.266 12.9427 18.2354 13.5889L20.9561 15.4023C21.7569 15.9362 22.1571 16.2036 22.2969 16.54C22.4189 16.8343 22.4189 17.1657 22.2969 17.46C22.1571 17.7964 21.7569 18.0638 20.9561 18.5977L18.2354 20.4111C17.266 21.0573 16.7809 21.3812 16.3789 21.3574C16.0287 21.3365 15.7048 21.1626 15.4932 20.8828C15.2503 20.5616 15.25 19.9787 15.25 18.8135V15.1865C15.25 14.0213 15.2503 13.4384 15.4932 13.1172C15.7048 12.8374 16.0287 12.6635 16.3789 12.6426ZM9 18.25C9.41421 18.25 9.75 18.5858 9.75 19C9.75 19.4142 9.41421 19.75 9 19.75H2C1.58579 19.75 1.25 19.4142 1.25 19C1.25 18.5858 1.58579 18.25 2 18.25H9ZM11 13.25C11.4142 13.25 11.75 13.5858 11.75 14C11.75 14.4142 11.4142 14.75 11 14.75H2C1.58579 14.75 1.25 14.4142 1.25 14C1.25 13.5858 1.58579 13.25 2 13.25H11ZM16 8.25C16.4142 8.25 16.75 8.58579 16.75 9C16.75 9.41421 16.4142 9.75 16 9.75H2C1.58579 9.75 1.25 9.41421 1.25 9C1.25 8.58579 1.58579 8.25 2 8.25H16ZM20 3.25C20.4142 3.25 20.75 3.58579 20.75 4C20.75 4.41421 20.4142 4.75 20 4.75H2C1.58579 4.75 1.25 4.41421 1.25 4C1.25 3.58579 1.58579 3.25 2 3.25H20Z" fill="currentColor" />
</svg>