<svg xmlns="http://www.w3.org/2000/svg" width="24" height="24" viewBox="0 0 24 24" fill="none">
<path opacity={0.4} d="M15 6.5L10.8686 3.97528C9.2771 3.00267 8.48133 2.51637 7.82571 2.57372C7.25412 2.62372 6.73153 2.91681 6.39081 3.37846C6 3.90799 6 4.84059 6 6.70578V12" stroke="currentColor" stroke-width={1.5} stroke-linecap="round" stroke-linejoin="round" /><path d="M6 12V17.2942C6 19.1594 6 20.092 6.39081 20.6215C6.73153 21.0832 7.25412 21.3763 7.82571 21.4263C8.48133 21.4836 9.2771 20.9973 10.8686 20.0247L19.5319 14.7305C21.0092 13.8277 21.7478 13.3763 21.9997 12.7952C22.2195 12.2879 22.2195 11.7121 21.9997 11.2048C21.7478 10.6237 21.0092 10.1723 19.5319 9.2695L15 6.5" stroke="currentColor" stroke-width={1.5} stroke-linecap="round" stroke-linejoin="round" />
</svg>