<svg xmlns="http://www.w3.org/2000/svg" width="24" height="24" viewBox="0 0 24 24" fill="none">
<path d="M12 1.25C17.9371 1.25 22.75 6.06294 22.75 12C22.75 17.9371 17.9371 22.75 12 22.75C6.06294 22.75 1.25 17.9371 1.25 12C1.25 6.06294 6.06294 1.25 12 1.25ZM10.6494 8.00977C10.2904 8.03876 9.96087 8.22059 9.74609 8.50977C9.49963 8.84166 9.5 9.43078 9.5 10.6084V13.3916C9.5 14.5692 9.49963 15.1583 9.74609 15.4902C9.96087 15.7794 10.2904 15.9612 10.6494 15.9902C11.0614 16.0234 11.5612 15.7119 12.5596 15.0879L14.7861 13.6963C15.686 13.1339 16.1358 12.8522 16.29 12.4922C16.4248 12.1778 16.4248 11.8222 16.29 11.5078C16.1358 11.1478 15.686 10.8661 14.7861 10.3037L12.5596 8.91211C11.5612 8.28811 11.0614 7.97664 10.6494 8.00977Z" fill="currentColor" />
</svg>