<svg xmlns="http://www.w3.org/2000/svg" width="24" height="24" viewBox="0 0 24 24" fill="none">
<path opacity={0.32} fill-rule="evenodd" clip-rule="evenodd" d="M10.1186 2.638C8.5271 1.66539 7.73133 1.17909 7.07571 1.23644C6.50412 1.28644 5.98153 1.57953 5.64081 2.04118C5.25 2.57071 5.25 3.50331 5.25 5.36851V18.6315C5.25 20.4967 5.25 21.4293 5.64081 21.9588C5.98153 22.4205 6.50412 22.7136 7.07571 22.7636C7.73133 22.8209 8.5271 22.3346 10.1186 21.362L20.9702 14.7305C22.4475 13.8277 23.1861 13.3763 23.438 12.7952C23.6578 12.2879 23.6578 11.7122 23.438 11.2048C23.1861 10.6237 22.4475 10.1723 20.9702 9.26951L10.1186 2.638Z" fill="currentColor" /><path d="M5.25 12V5.36838C5.25 3.50318 5.25 2.57059 5.64081 2.04106C5.98153 1.57941 6.50412 1.28632 7.07571 1.23632C7.73133 1.17897 8.5271 1.66527 10.1186 2.63788L20.9702 9.26939C22.4475 10.1722 23.1861 10.6236 23.438 11.2047C23.5479 11.4584 23.6029 11.7292 23.6028 12H5.25Z" fill="currentColor" />
</svg>