<svg xmlns="http://www.w3.org/2000/svg" width="24" height="24" viewBox="0 0 24 24" fill="none">
<path opacity={0.32} d="M9 18.25C9.41421 18.25 9.75 18.5858 9.75 19C9.75 19.4142 9.41421 19.75 9 19.75H2C1.58579 19.75 1.25 19.4142 1.25 19C1.25 18.5858 1.58579 18.25 2 18.25H9ZM12 13.25C12.4142 13.25 12.75 13.5858 12.75 14C12.75 14.4142 12.4142 14.75 12 14.75H2C1.58579 14.75 1.25 14.4142 1.25 14C1.25 13.5858 1.58579 13.25 2 13.25H12ZM16 8.25C16.4142 8.25 16.75 8.58579 16.75 9C16.75 9.41421 16.4142 9.75 16 9.75H2C1.58579 9.75 1.25 9.41421 1.25 9C1.25 8.58579 1.58579 8.25 2 8.25H16ZM20 3.25C20.4142 3.25 20.75 3.58579 20.75 4C20.75 4.41421 20.4142 4.75 20 4.75H2C1.58579 4.75 1.25 4.41421 1.25 4C1.25 3.58579 1.58579 3.25 2 3.25H20Z" fill="currentColor" /><path d="M18.6465 10.3387C18.8903 10.2083 19.1859 10.2225 19.416 10.3758L22.416 12.3758L22.4775 12.4217C22.7709 12.6635 22.8394 13.0928 22.624 13.4159C22.4087 13.7389 21.9863 13.8406 21.6504 13.6629L21.584 13.6239L19.75 12.4012V18.9999C19.75 20.5186 18.5188 21.7499 17 21.7499C15.4812 21.7499 14.25 20.5186 14.25 18.9999C14.25 17.4811 15.4812 16.2499 17 16.2499C17.4506 16.2499 17.8747 16.3605 18.25 16.5526V10.9999C18.25 10.7233 18.4026 10.4692 18.6465 10.3387Z" fill="currentColor" />
</svg>