<svg xmlns="http://www.w3.org/2000/svg" width="24" height="24" viewBox="0 0 24 24" fill="none">
<path d="M21 5V19M13 8.78571L13.8128 9.30823C15.2063 10.2041 15.9031 10.652 16.1438 11.2216C16.3541 11.7192 16.3541 12.2808 16.1438 12.7784C15.9031 13.348 15.2063 13.7959 13.8128 14.6918L8.93042 17.8304C7.3245 18.8628 6.52153 19.379 5.85752 19.3316C5.27885 19.2903 4.74665 18.9997 4.39897 18.5353C4 18.0024 4 17.0478 4 15.1387V14M10 6.85714L8.93043 6.16956C7.3245 5.13718 6.52153 4.62099 5.85752 4.66841C5.27885 4.70974 4.74665 5.0003 4.39897 5.46471C4 5.99762 4 6.95219 4 8.86133V10" stroke="currentColor" stroke-width={1.5} stroke-linecap="round" stroke-linejoin="round" />
</svg>