<svg xmlns="http://www.w3.org/2000/svg" width="24" height="24" viewBox="0 0 24 24" fill="none">
<path d="M19.1963 3.92029C19.9918 3.97722 20.7232 4.37753 21.2012 5.01599C21.5288 5.45384 21.6441 5.99903 21.6973 6.57849C21.751 7.16474 21.75 7.92221 21.75 8.8617V15.139C21.75 16.0786 21.751 16.836 21.6973 17.4222C21.6441 18.0017 21.5289 18.547 21.2012 18.9847C20.7232 19.6231 19.9917 20.0235 19.1963 20.0804C18.6507 20.1194 18.1295 19.9204 17.6133 19.6517C17.0911 19.3799 16.4544 18.9694 15.6641 18.4613L10.7812 15.3226C10.097 14.8828 9.53966 14.5255 9.12793 14.2045C8.71598 13.8832 8.36018 13.5323 8.16504 13.0707C7.87604 12.3866 7.87613 11.6142 8.16504 10.9301C8.36012 10.4684 8.71596 10.1176 9.12793 9.79627C9.53964 9.47518 10.097 9.11799 10.7812 8.6781L15.6641 5.53943C16.4544 5.03133 17.0911 4.62083 17.6133 4.349C18.1296 4.08029 18.6507 3.88132 19.1963 3.92029ZM4 4.25037C4.41421 4.25037 4.75 4.58615 4.75 5.00037V19.0004C4.74979 19.4144 4.41408 19.7504 4 19.7504C3.58592 19.7504 3.25021 19.4144 3.25 19.0004V5.00037C3.25 4.58615 3.58579 4.25037 4 4.25037Z" fill="currentColor" />
</svg>