<svg xmlns="http://www.w3.org/2000/svg" width="24" height="24" viewBox="0 0 24 24" fill="none">
<path opacity={0.32} d="M9.41303 5.58817C7.40562 4.29769 6.40192 3.65245 5.57189 3.71174C4.84857 3.7634 4.18331 4.1266 3.74871 4.70711C3.25 5.37325 3.25 6.56646 3.25 8.95288V15.0471C3.25 17.4335 3.25 18.6267 3.74871 19.2928C4.18331 19.8733 4.84857 20.2365 5.57189 20.2882C6.40192 20.3475 7.40562 19.7022 9.41303 18.4118L14.1529 15.3647C15.8949 14.2449 16.7658 13.685 17.0667 12.973C17.3295 12.3509 17.3295 11.649 17.0667 11.0269C16.7658 10.315 15.8949 9.75507 14.1529 8.63525L9.41303 5.58817Z" fill="currentColor" /><path d="M21 4.25C21.4142 4.25 21.75 4.58579 21.75 5V19C21.75 19.4142 21.4142 19.75 21 19.75C20.5858 19.75 20.25 19.4142 20.25 19V5C20.25 4.58579 20.5858 4.25 21 4.25Z" fill="currentColor" />
</svg>