<svg xmlns="http://www.w3.org/2000/svg" width="24" height="24" viewBox="0 0 24 24" fill="none">
<path d="M5.80371 3.92041C6.34935 3.88144 6.8704 4.08041 7.38672 4.34912C7.90894 4.62095 8.54557 5.03145 9.33594 5.53955L14.2188 8.67822C14.903 9.11811 15.4604 9.47531 15.8721 9.79639C16.284 10.1177 16.6399 10.4685 16.835 10.9302C17.1239 11.6143 17.124 12.3867 16.835 13.0708C16.6398 13.5324 16.284 13.8833 15.8721 14.2046C15.4603 14.5257 14.903 14.8829 14.2188 15.3228L9.33594 18.4614C8.54557 18.9695 7.90893 19.3801 7.38672 19.6519C6.87046 19.9205 6.34928 20.1195 5.80371 20.0806C5.00829 20.0237 4.27683 19.6232 3.79883 18.9849C3.47114 18.5471 3.35592 18.0018 3.30274 17.4224C3.24898 16.8361 3.25 16.0787 3.25 15.1392V8.86182C3.25 7.92233 3.24901 7.16486 3.30274 6.57861C3.35589 5.99915 3.47121 5.45396 3.79883 5.01611C4.27682 4.37765 5.0082 3.97734 5.80371 3.92041ZM21 4.25049C21.4142 4.25049 21.75 4.58628 21.75 5.00049V19.0005C21.7498 19.4145 21.4141 19.7505 21 19.7505C20.5859 19.7505 20.2502 19.4145 20.25 19.0005V5.00049C20.25 4.58628 20.5858 4.25049 21 4.25049Z" fill="currentColor" />
</svg>