<svg xmlns="http://www.w3.org/2000/svg" width="24" height="24" viewBox="0 0 24 24" fill="none">
<path d="M13 5.27782L10.8686 3.97532C9.2771 3.00271 8.48133 2.51641 7.82571 2.57376C7.25412 2.62376 6.73153 2.91685 6.39081 3.3785C6 3.90803 6 4.84062 6 6.70582V7.99988M6 11.9999V17.2943C6 19.1595 6 20.092 6.39081 20.6216C6.73153 21.0832 7.25412 21.3763 7.82571 21.4263C8.48133 21.4837 9.2771 20.9974 10.8686 20.0248L19.5319 14.7305C21.0092 13.8277 21.7478 13.3764 21.9997 12.7952C22.2195 12.2879 22.2195 11.7122 21.9997 11.2048C21.7478 10.6237 21.0092 10.1723 19.5319 9.26954L16 7.11115" stroke="currentColor" stroke-width={1.5} stroke-linecap="round" stroke-linejoin="round" />
</svg>