<svg xmlns="http://www.w3.org/2000/svg" width="24" height="24" viewBox="0 0 24 24" fill="none">
<path opacity={0.32} d="M12 1.25C17.9371 1.25 22.75 6.06294 22.75 12C22.75 17.9371 17.9371 22.75 12 22.75C11.819 22.75 11.6389 22.7452 11.46 22.7363L10.9258 22.6973L10.8496 22.6855C10.4774 22.6098 10.2158 22.2631 10.2539 21.877C10.2923 21.4906 10.6171 21.2012 10.9971 21.2002L11.0742 21.2041L11.5342 21.2383C11.6884 21.2459 11.8437 21.25 12 21.25C17.1086 21.25 21.25 17.1086 21.25 12C21.25 6.89137 17.1086 2.75 12 2.75C11.6873 2.75 11.3785 2.76569 11.0742 2.7959L10.9971 2.7998C10.6171 2.79878 10.2923 2.50936 10.2539 2.12305C10.2132 1.71105 10.5138 1.34369 10.9258 1.30273L11.46 1.26367C11.6389 1.25481 11.819 1.25 12 1.25ZM5.39941 19.5498C5.63265 19.2394 6.06032 19.161 6.38574 19.3574L6.44922 19.4004L6.66602 19.5576C7.1753 19.9178 7.72213 20.228 8.2998 20.4805C8.67922 20.6462 8.85301 21.0883 8.6875 21.4678C8.53204 21.8236 8.1334 21.999 7.77148 21.8828L7.7002 21.8555L7.41406 21.7256C6.84675 21.4576 6.30716 21.141 5.7998 20.7822L5.54883 20.5996L5.48926 20.5508C5.21002 20.293 5.16632 19.8603 5.39941 19.5498ZM2.53223 15.3125C2.88797 15.1573 3.29882 15.2998 3.48535 15.6309L3.51953 15.7002L3.63086 15.9453C3.86115 16.4329 4.13271 16.8974 4.44141 17.334L4.59863 17.5498L4.6416 17.6133C4.83808 17.9387 4.75974 18.3664 4.44922 18.5996C4.11804 18.8481 3.64811 18.7813 3.39941 18.4502C2.90267 17.7888 2.47999 17.0676 2.14453 16.2998C1.97907 15.9204 2.15283 15.4783 2.53223 15.3125ZM2.12305 10.2539C2.53523 10.2948 2.83682 10.662 2.7959 11.0742L2.76172 11.5342C2.75408 11.6884 2.75 11.8437 2.75 12C2.75 12.1563 2.75408 12.3116 2.76172 12.4658L2.7959 12.9258L2.7998 13.0029C2.79878 13.3829 2.50936 13.7077 2.12305 13.7461C1.7369 13.7842 1.39016 13.5226 1.31445 13.1504L1.30273 13.0742L1.26367 12.54C1.25481 12.3611 1.25 12.181 1.25 12C1.25 11.6377 1.26764 11.2793 1.30273 10.9258L1.31445 10.8496C1.39016 10.4774 1.7369 10.2158 2.12305 10.2539ZM3.39941 5.5498C3.64811 5.21871 4.11804 5.15187 4.44922 5.40039C4.78041 5.64916 4.8474 6.119 4.59863 6.4502C4.17097 7.01955 3.80792 7.63984 3.51953 8.2998C3.35376 8.67922 2.91169 8.85302 2.53223 8.6875C2.15283 8.52173 1.97907 8.07965 2.14453 7.7002C2.47999 6.93241 2.90267 6.21117 3.39941 5.5498ZM7.7002 2.14453C8.07965 1.97907 8.52173 2.15283 8.6875 2.53223C8.85302 2.91169 8.67922 3.35376 8.2998 3.51953C7.63984 3.80792 7.01955 4.17097 6.4502 4.59863C6.119 4.8474 5.64916 4.78041 5.40039 4.44922C5.15187 4.11804 5.21871 3.64811 5.5498 3.39941C6.21117 2.90267 6.93241 2.47999 7.7002 2.14453Z" fill="currentColor" /><path d="M13.172 9.295C11.9735 8.54596 11.3743 8.17144 10.8798 8.2112C10.4488 8.24585 10.0536 8.46484 9.7958 8.812C9.5 9.21027 9.5 9.91691 9.5 11.3302V12.6698C9.5 14.0831 9.5 14.7897 9.7958 15.188C10.0536 15.5352 10.4488 15.7542 10.8798 15.7888C11.3743 15.8286 11.9735 15.454 13.172 14.705L14.2437 14.0352C15.3235 13.3603 15.8634 13.0229 16.0485 12.5909C16.2102 12.2135 16.2102 11.7865 16.0485 11.4091C15.8634 10.9771 15.3235 10.6397 14.2437 9.9648L13.172 9.295Z" fill="currentColor" />
</svg>