<svg xmlns="http://www.w3.org/2000/svg" width="24" height="24" viewBox="0 0 24 24" fill="none">
<path opacity={0.32} d="M9 18.25C9.41421 18.25 9.75 18.5858 9.75 19C9.75 19.4142 9.41421 19.75 9 19.75H2C1.58579 19.75 1.25 19.4142 1.25 19C1.25 18.5858 1.58579 18.25 2 18.25H9ZM11 13.25C11.4142 13.25 11.75 13.5858 11.75 14C11.75 14.4142 11.4142 14.75 11 14.75H2C1.58579 14.75 1.25 14.4142 1.25 14C1.25 13.5858 1.58579 13.25 2 13.25H11ZM16 8.25C16.4142 8.25 16.75 8.58579 16.75 9C16.75 9.41421 16.4142 9.75 16 9.75H2C1.58579 9.75 1.25 9.41421 1.25 9C1.25 8.58579 1.58579 8.25 2 8.25H16ZM20 3.25C20.4142 3.25 20.75 3.58579 20.75 4C20.75 4.41421 20.4142 4.75 20 4.75H2C1.58579 4.75 1.25 4.41421 1.25 4C1.25 3.58579 1.58579 3.25 2 3.25H20Z" fill="currentColor" /><path d="M18.235 13.5886C17.2654 12.9422 16.7805 12.619 16.3785 12.643C16.0282 12.6639 15.7047 12.8371 15.493 13.1169C15.25 13.4381 15.25 14.0208 15.25 15.1862V18.8139C15.25 19.9793 15.25 20.5619 15.493 20.8832C15.7047 21.163 16.0282 21.3361 16.3785 21.3571C16.7805 21.3811 17.2654 21.0578 18.235 20.4114L20.9558 18.5976C21.757 18.0634 22.1576 17.7963 22.2972 17.4597C22.4193 17.1654 22.4193 16.8346 22.2972 16.5403C22.1576 16.2037 21.757 15.9366 20.9558 15.4025L18.235 13.5886Z" fill="currentColor" />
</svg>