<svg xmlns="http://www.w3.org/2000/svg" width="24" height="24" viewBox="0 0 24 24" fill="none">
<path opacity={0.32} d="M21.7502 8.95288C21.7502 6.56646 21.7502 5.37325 21.2515 4.70711C20.8169 4.1266 20.1517 3.7634 19.4283 3.71174C18.5983 3.65245 17.5946 4.29769 15.5872 5.58817L10.8473 8.63526C9.10535 9.75507 8.23439 10.315 7.93356 11.0269C7.67071 11.649 7.67071 12.3509 7.93356 12.973C8.23439 13.685 9.10535 14.2449 10.8473 15.3647L15.5872 18.4118C17.5946 19.7022 18.5983 20.3475 19.4283 20.2882C20.1517 20.2365 20.8169 19.8733 21.2515 19.2928C21.7502 18.6267 21.7502 17.4335 21.7502 15.0471V8.95288Z" fill="currentColor" /><path d="M4 4.25012C4.41421 4.25012 4.75 4.58591 4.75 5.00012V19.0001C4.75 19.4143 4.41421 19.7501 4 19.7501C3.58579 19.7501 3.25 19.4143 3.25 19.0001V5.00012C3.25 4.58591 3.58579 4.25012 4 4.25012Z" fill="currentColor" />
</svg>