<svg xmlns="http://www.w3.org/2000/svg" width="24" height="24" viewBox="0 0 24 24" fill="none">
<path d="M16 1.25C16.4142 1.25 16.75 1.58579 16.75 2V6.25586C18.1002 6.27405 18.9111 6.35165 19.5664 6.68555C20.3189 7.06902 20.931 7.68109 21.3145 8.43359C21.7504 9.28924 21.75 10.4102 21.75 12.6504V13.1504C21.75 16.5103 21.7496 18.1902 21.0957 19.4736C20.5205 20.6026 19.6026 21.5205 18.4736 22.0957C17.1902 22.7496 15.5103 22.75 12.1504 22.75H11.8496C8.48965 22.75 6.80977 22.7496 5.52637 22.0957C4.39739 21.5205 3.47954 20.6026 2.9043 19.4736C2.25042 18.1902 2.25 16.5103 2.25 13.1504V12.6504C2.25 10.4102 2.24957 9.28924 2.68555 8.43359C3.06902 7.68109 3.68109 7.06902 4.43359 6.68555C5.08891 6.35165 5.89984 6.27405 7.25 6.25586V2C7.25 1.58579 7.58579 1.25 8 1.25C8.41421 1.25 8.75 1.58579 8.75 2V6.25H15.25V2C15.25 1.58579 15.5858 1.25 16 1.25ZM12.335 9.8291C11.9646 9.64416 11.5143 9.79469 11.3291 10.165L9.3291 14.165C9.21307 14.3974 9.22573 14.6735 9.3623 14.8945C9.49899 15.1155 9.74018 15.25 10 15.25H12.7861L11.3291 18.165C11.1442 18.5354 11.2947 18.9857 11.665 19.1709C12.0354 19.3558 12.4857 19.2053 12.6709 18.835L14.6709 14.835C14.7869 14.6026 14.7743 14.3265 14.6377 14.1055C14.501 13.8845 14.2598 13.75 14 13.75H11.2139L12.6709 10.835C12.8558 10.4646 12.7053 10.0143 12.335 9.8291Z" fill="currentColor" />
</svg>