<svg xmlns="http://www.w3.org/2000/svg" width="24" height="24" viewBox="0 0 24 24" fill="none">
<path d="M8 7V2M16 7V2M12 10.5L10 14.5H14L12 18.5M12 22C14.7956 22 16.1935 22 17.2961 21.5433C18.7663 20.9343 19.9343 19.7663 20.5433 18.2961C21 17.1935 21 15.7956 21 13C21 11.1362 21 10.2044 20.6955 9.46927C20.2895 8.48915 19.5108 7.71046 18.5307 7.30448C17.7956 7 16.8638 7 15 7H9C7.13623 7 6.20435 7 5.46927 7.30448C4.48915 7.71046 3.71046 8.48915 3.30448 9.46927C3 10.2044 3 11.1362 3 13C3 15.7956 3 17.1935 3.45672 18.2961C4.06569 19.7663 5.23373 20.9343 6.7039 21.5433C7.80653 22 9.20435 22 12 22Z" stroke="currentColor" stroke-width={1.5} stroke-linecap="round" stroke-linejoin="round" />
</svg>