<svg xmlns="http://www.w3.org/2000/svg" width="24" height="24" viewBox="0 0 24 24" fill="none">
<path d="M2.46973 2.46973C2.74433 2.19512 3.17905 2.17766 3.47363 2.41797L3.53027 2.46973L20.1807 19.1201C20.204 19.1385 20.2269 19.1584 20.248 19.1797L22.5312 21.4707L22.583 21.5273C22.8227 21.8223 22.8043 22.2571 22.5293 22.5312C22.2359 22.8236 21.7611 22.8226 21.4688 22.5293L19.7441 20.7988C19.1289 21.4071 18.3978 21.8988 17.583 22.2363C16.9251 22.5088 16.2088 22.6317 15.334 22.6914C14.4658 22.7506 13.3876 22.75 12 22.75C10.6124 22.75 9.5342 22.7506 8.66602 22.6914C7.79115 22.6317 7.07489 22.5088 6.41699 22.2363C4.76305 21.5512 3.44876 20.2369 2.76367 18.583C2.49119 17.9251 2.36829 17.2088 2.30859 16.334C2.24936 15.4658 2.25 14.3876 2.25 13C2.25 12.0786 2.24986 11.3499 2.29004 10.7607C2.33069 10.1649 2.41504 9.65666 2.61133 9.18262C3.09342 8.01873 4.01873 7.09342 5.18262 6.61133C5.27108 6.5747 5.36084 6.54202 5.45215 6.5127L2.46973 3.53027C2.17683 3.23738 2.17683 2.76262 2.46973 2.46973ZM16 1.25C16.4142 1.25 16.75 1.58579 16.75 2V6.26562C16.9232 6.27131 17.0859 6.27958 17.2393 6.29004C17.8351 6.33069 18.3433 6.41504 18.8174 6.61133C19.9813 7.09342 20.9066 8.01873 21.3887 9.18262C21.585 9.65666 21.6693 10.1649 21.71 10.7607C21.7501 11.3499 21.75 12.0786 21.75 13C21.75 14.8051 21.7515 16.097 21.6152 17.1006C21.5595 17.511 21.1819 17.7988 20.7715 17.7432C20.3611 17.6875 20.0734 17.3097 20.1289 16.8994C20.2482 16.0209 20.25 14.8516 20.25 13C20.25 12.0579 20.2498 11.3887 20.2139 10.8623C20.1784 10.3427 20.111 10.0168 20.0029 9.75586C19.6731 8.95971 19.0403 8.32692 18.2441 7.99707C17.9832 7.889 17.6573 7.82159 17.1377 7.78613C16.6113 7.75022 15.9421 7.75 15 7.75H11C10.5858 7.75 10.25 7.41421 10.25 7C10.25 6.58579 10.5858 6.25 11 6.25H15C15.085 6.25 15.1683 6.25095 15.25 6.25098V2C15.25 1.58579 15.5858 1.25 16 1.25ZM8 1.25C8.41421 1.25 8.75 1.58579 8.75 2V4C8.75 4.41421 8.41421 4.75 8 4.75C7.58579 4.75 7.25 4.41421 7.25 4V2C7.25 1.58579 7.58579 1.25 8 1.25Z" fill="currentColor" />
</svg>