<svg xmlns="http://www.w3.org/2000/svg" width="24" height="24" viewBox="0 0 24 24" fill="none">
<path d="M13.1504 1.25C15.1103 1.25 16.0902 1.25039 16.8389 1.63184C17.4974 1.96737 18.0326 2.50265 18.3682 3.16114C18.7086 3.8292 18.7431 4.68154 18.7471 6.25L18.7998 6.25C19.3475 6.25 19.8037 6.24898 20.1748 6.2793C20.5545 6.31033 20.9109 6.3781 21.248 6.54981C21.7655 6.81346 22.1865 7.23451 22.4502 7.75196C22.6219 8.0891 22.6897 8.44547 22.7207 8.8252C22.7468 9.14465 22.7477 9.52703 22.748 9.97657C22.7483 9.98436 22.75 9.99215 22.75 10C22.75 10.0062 22.7492 10.0124 22.749 10.0186C22.7491 10.0779 22.75 10.1386 22.75 10.2002L22.75 13.7998C22.75 14.3475 22.751 14.8037 22.7207 15.1748C22.6897 15.5545 22.6219 15.9109 22.4502 16.2481C22.1865 16.7655 21.7655 17.1865 21.248 17.4502C20.9109 17.6219 20.5545 17.6897 20.1748 17.7207C19.8037 17.751 19.3475 17.75 18.7998 17.75L18.7471 17.75C18.7431 19.3186 18.7086 20.1708 18.3682 20.8389C18.0326 21.4974 17.4974 22.0336 16.8389 22.3691C16.0903 22.7505 15.1101 22.75 13.1504 22.75L6.84961 22.75C4.88992 22.75 3.90974 22.7505 3.16113 22.3691C2.50256 22.0336 1.96739 21.4974 1.63183 20.8389C1.25039 20.0902 1.25 19.1104 1.25 17.1504L1.25 6.85059C1.25 4.8904 1.25036 3.90982 1.63184 3.16113C1.9674 2.50265 2.50263 1.96736 3.16113 1.63184C3.90977 1.25038 4.88968 1.25 6.84961 1.25L13.1504 1.25ZM6 17C5.44774 17 5.00004 17.4477 5 18C5 18.5523 5.44771 19 6 19C6.55228 19 7 18.5523 7 18C6.99996 17.4477 6.55226 17 6 17ZM10 17C9.44774 17 9.00003 17.4477 9 18C9 18.5523 9.44771 19 10 19C10.5523 19 11 18.5523 11 18C11 17.4477 10.5523 17 10 17ZM14 17C13.4477 17 13 17.4478 13 18C13 18.5523 13.4477 19 14 19C14.5523 19 15 18.5523 15 18C15 17.4478 14.5523 17 14 17ZM18.75 16.25L18.7998 16.25C19.3722 16.25 19.7569 16.2498 20.0527 16.2256C20.3397 16.2021 20.4768 16.1594 20.5674 16.1133C20.8025 15.9935 20.9935 15.8025 21.1133 15.5674C21.1594 15.4768 21.2021 15.3397 21.2256 15.0527C21.2498 14.7569 21.25 14.3722 21.25 13.7998L21.25 10.75L18.75 10.75L18.75 16.25ZM6 13C5.44774 13 5.00004 13.4477 5 14C5 14.5523 5.44771 15 6 15C6.55228 15 7 14.5523 7 14C6.99996 13.4477 6.55226 13 6 13ZM10 13C9.44774 13 9.00004 13.4477 9 14C9 14.5523 9.44771 15 10 15C10.5523 15 11 14.5523 11 14C11 13.4477 10.5523 13 10 13ZM14 13C13.4477 13 13 13.4477 13 14C13 14.5523 13.4477 15 14 15C14.5523 15 15 14.5523 15 14C15 13.4477 14.5523 13 14 13ZM6.59961 5C6.03981 5 5.75976 5.00041 5.5459 5.10938C5.35793 5.2052 5.20522 5.35795 5.10937 5.5459C5.00041 5.75975 5 6.03987 5 6.59961L5 8.40039C5 8.96023 5.0004 9.24023 5.10937 9.4541C5.20521 9.64209 5.35792 9.79478 5.5459 9.89063C5.75976 9.99959 6.03981 10 6.59961 10L13.4004 10C13.9602 10 14.2402 9.9996 14.4541 9.89063C14.6421 9.79478 14.7948 9.64209 14.8906 9.4541C14.9996 9.24023 15 8.96023 15 8.40039L15 6.59961C15 6.03987 14.9996 5.75975 14.8906 5.5459C14.7948 5.35795 14.6421 5.20521 14.4541 5.10938C14.2402 5.00041 13.9602 5 13.4004 5L6.59961 5ZM18.75 9.25L21.2412 9.25C21.2376 9.13877 21.2331 9.03869 21.2256 8.94727C21.2021 8.66027 21.1594 8.52316 21.1133 8.43262C20.9935 8.19751 20.8025 8.00655 20.5674 7.88672C20.4768 7.84059 20.3397 7.79788 20.0527 7.77442C19.7569 7.75024 19.3722 7.75 18.7998 7.75L18.75 7.75L18.75 9.25Z" fill="currentColor" />
</svg>