<svg xmlns="http://www.w3.org/2000/svg" width="24" height="24" viewBox="0 0 24 24" fill="none">
<path d="M13.1504 1.25C16.5103 1.25 18.1902 1.25042 19.4736 1.9043C20.6026 2.47954 21.5205 3.39739 22.0957 4.52637C22.7496 5.80977 22.75 7.48965 22.75 10.8496V13.1504C22.75 16.5103 22.7496 18.1902 22.0957 19.4736C21.5205 20.6026 20.6026 21.5205 19.4736 22.0957C18.1902 22.7496 16.5103 22.75 13.1504 22.75H10.8496C7.48965 22.75 5.80977 22.7496 4.52637 22.0957C3.39739 21.5205 2.47954 20.6026 1.9043 19.4736C1.25042 18.1902 1.25 16.5103 1.25 13.1504V10.8496C1.25 7.48965 1.25042 5.80977 1.9043 4.52637C2.47954 3.39739 3.39739 2.47954 4.52637 1.9043C5.80977 1.25042 7.48965 1.25 10.8496 1.25H13.1504ZM15.4092 5.89062C14.9472 5.6827 14.3941 5.85391 14.1348 6.30176C13.8583 6.77971 14.0212 7.39133 14.499 7.66797C15.9961 8.534 17 10.1506 17 12C17 14.7614 14.7614 17 12 17C9.23858 17 7 14.7614 7 12C7 10.1506 8.00386 8.534 9.50098 7.66797C9.97878 7.39133 10.1417 6.77971 9.86523 6.30176C9.5886 5.82394 8.97698 5.66102 8.49902 5.9375C6.40953 7.14638 5 9.40791 5 12C5 15.866 8.13401 19 12 19C15.866 19 19 15.866 19 12C19 9.56985 17.7614 7.42983 15.8848 6.17578L15.501 5.9375L15.4092 5.89062ZM12 4C11.4477 4 11 4.44772 11 5V12C11 12.5523 11.4477 13 12 13C12.5523 13 13 12.5523 13 12V5C13 4.44772 12.5523 4 12 4Z" fill="currentColor" />
</svg>