<svg xmlns="http://www.w3.org/2000/svg" width="24" height="24" viewBox="0 0 24 24" fill="none">
<path d="M22 1C22.5523 1 23 1.44772 23 2C23 2.55228 22.5523 3 22 3H21V9.59961C21 11.8398 21.0004 12.9608 20.5645 13.8164C20.181 14.5689 19.5689 15.181 18.8164 15.5645C17.9608 16.0004 16.8398 16 14.5996 16H13V18.4336L17.5146 21.1426L17.5996 21.1992C18.0057 21.5026 18.1238 22.0706 17.8574 22.5146C17.5732 22.9881 16.9589 23.1415 16.4854 22.8574L13 20.7656V22C13 22.5523 12.5523 23 12 23C11.4477 23 11 22.5523 11 22V20.7656L7.51465 22.8574C7.04112 23.1415 6.42676 22.9881 6.14258 22.5146C5.85846 22.0411 6.01188 21.4268 6.48535 21.1426L11 18.4336V16H9.40039C7.16018 16 6.03924 16.0004 5.18359 15.5645C4.43109 15.181 3.81902 14.5689 3.43555 13.8164C2.99957 12.9608 3 11.8398 3 9.59961V3H2C1.44772 3 1 2.55228 1 2C1 1.44772 1.44772 1 2 1H22ZM8 8C7.44772 8 7 8.44772 7 9V11C7 11.5523 7.44772 12 8 12C8.55228 12 9 11.5523 9 11V9C9 8.44772 8.55228 8 8 8ZM12 6C11.4477 6 11 6.44772 11 7V11C11 11.5523 11.4477 12 12 12C12.5523 12 13 11.5523 13 11V7C13 6.44772 12.5523 6 12 6ZM16 7C15.4477 7 15 7.44772 15 8V11C15 11.5523 15.4477 12 16 12C16.5523 12 17 11.5523 17 11V8C17 7.44772 16.5523 7 16 7Z" fill="currentColor" />
</svg>