<svg xmlns="http://www.w3.org/2000/svg" width="24" height="24" viewBox="0 0 24 24" fill="none">
<path d="M22 1C22.5523 1 23 1.44772 23 2C23 2.55228 22.5523 3 22 3H21V9.59961C21 11.8398 21.0004 12.9608 20.5645 13.8164C20.181 14.5689 19.5689 15.181 18.8164 15.5645C17.9608 16.0004 16.8398 16 14.5996 16H13V18.4336L17.5146 21.1426L17.5996 21.1992C18.0057 21.5026 18.1238 22.0706 17.8574 22.5146C17.5732 22.9881 16.9589 23.1415 16.4854 22.8574L13 20.7656V22C13 22.5523 12.5523 23 12 23C11.4477 23 11 22.5523 11 22V20.7656L7.51465 22.8574C7.04112 23.1415 6.42676 22.9881 6.14258 22.5146C5.85846 22.0411 6.01188 21.4268 6.48535 21.1426L11 18.4336V16H9.40039C7.16018 16 6.03924 16.0004 5.18359 15.5645C4.43109 15.181 3.81902 14.5689 3.43555 13.8164C2.99957 12.9608 3 11.8398 3 9.59961V3H2C1.44772 3 1 2.55228 1 2C1 1.44772 1.44772 1 2 1H22ZM16.832 7.44531C16.5257 6.98584 15.9048 6.86164 15.4453 7.16797L13.127 8.71289L11.707 7.29297C11.37 6.95593 10.8419 6.90356 10.4453 7.16797L7.44531 9.16797C6.98579 9.47432 6.86162 10.0952 7.16797 10.5547C7.47432 11.0142 8.09516 11.1384 8.55469 10.832L10.8721 9.28613L12.293 10.707C12.63 11.0441 13.1581 11.0964 13.5547 10.832L16.5547 8.83203C17.0142 8.52569 17.1384 7.90485 16.832 7.44531Z" fill="currentColor" />
</svg>