<svg xmlns="http://www.w3.org/2000/svg" width="24" height="24" viewBox="0 0 24 24" fill="none">
<path d="M18 18C18.93 18 19.395 18 19.7765 17.8978C20.8117 17.6204 21.6204 16.8117 21.8978 15.7765C22 15.395 22 14.93 22 14V12.8C22 11.1198 22 10.2798 21.673 9.63803C21.3854 9.07354 20.9265 8.6146 20.362 8.32698C19.7202 8 18.8802 8 17.2 8H10M6 18C5.07003 18 4.60504 18 4.22354 17.8978C3.18827 17.6204 2.37962 16.8117 2.10222 15.7765C2 15.395 2 14.93 2 14V11.4286C2 11.0305 2 10.8315 2.01886 10.6641C2.17558 9.27325 3.27325 8.17558 4.66411 8.01886C4.83152 8 5.03054 8 5.42857 8C5.49491 8 5.52808 8 5.55598 7.99686C5.78779 7.97074 5.97074 7.78779 5.99686 7.55598C6 7.52808 6 7.49491 6 7.42857V5.2C6 4.07989 6 3.51984 6.21799 3.09202C6.40973 2.71569 6.71569 2.40973 7.09202 2.21799C7.51984 2 8.0799 2 9.2 2H15.5C15.9647 2 16.197 2 16.3902 2.03843C17.1836 2.19624 17.8038 2.81644 17.9616 3.60982C18 3.80302 18 4.03534 18 4.5V5M14 22H14.5H15C15.9319 22 16.3978 22 16.7654 21.8478C17.2554 21.6448 17.6448 21.2554 17.8478 20.7654C18 20.3978 18 19.9319 18 19C18 18.0681 18 17.6022 17.8478 17.2346C17.6448 16.7446 17.2554 16.3552 16.7654 16.1522C16.3978 16 15.9319 16 15 16H9C8.06812 16 7.60218 16 7.23463 16.1522C6.74458 16.3552 6.35523 16.7446 6.15224 17.2346C6 17.6022 6 18.0681 6 19C6 19.9319 6 20.3978 6.15224 20.7654C6.35523 21.2554 6.74458 21.6448 7.23463 21.8478C7.60218 22 8.06812 22 9 22H9.5H10M5 11H6" stroke="currentColor" stroke-width={1.5} stroke-linecap="round" stroke-linejoin="round" />
</svg>