<svg xmlns="http://www.w3.org/2000/svg" width="24" height="24" viewBox="0 0 24 24" fill="none">
<path d="M17.376 2.58387C17.6057 2.23927 18.0714 2.1462 18.416 2.37587C18.7607 2.60563 18.8538 3.07126 18.624 3.4159L6.62402 21.4159C6.39426 21.7605 5.92863 21.8537 5.58398 21.6239C5.23944 21.3941 5.14624 20.9285 5.37598 20.5839L17.376 2.58387ZM18 14.2499C20.071 14.25 21.75 15.9289 21.75 17.9999C21.75 20.0709 20.071 21.7498 18 21.7499C15.929 21.7499 14.25 20.0709 14.25 17.9999C14.25 15.9288 15.9289 14.2499 18 14.2499ZM6 2.24989C8.07101 2.24996 9.75 3.92886 9.75 5.99989C9.74996 8.07088 8.07099 9.74982 6 9.74989C3.92896 9.74989 2.25004 8.07092 2.25 5.99989C2.25 3.92882 3.92893 2.24989 6 2.24989Z" fill="currentColor" />
</svg>