<svg xmlns="http://www.w3.org/2000/svg" width="24" height="24" viewBox="0 0 24 24" fill="none">
<path d="M16 1.25C16.4142 1.25 16.75 1.58579 16.75 2V3.29102C17.5343 3.33892 18.0914 3.44353 18.5664 3.68555C19.3189 4.06902 19.931 4.68109 20.3145 5.43359C20.5565 5.90858 20.6611 6.46566 20.709 7.25H22C22.4142 7.25 22.75 7.58579 22.75 8C22.75 8.41421 22.4142 8.75 22 8.75H20.7461C20.7474 9.02851 20.75 9.32804 20.75 9.65039V11.25H22C22.4142 11.25 22.75 11.5858 22.75 12C22.75 12.4142 22.4142 12.75 22 12.75H20.75V14.3496C20.75 14.672 20.7474 14.9715 20.7461 15.25H22C22.4142 15.25 22.75 15.5858 22.75 16C22.75 16.4142 22.4142 16.75 22 16.75H20.709C20.6611 17.5343 20.5565 18.0914 20.3145 18.5664C19.931 19.3189 19.3189 19.931 18.5664 20.3145C18.0914 20.5565 17.5343 20.6601 16.75 20.708V22C16.75 22.4142 16.4142 22.75 16 22.75C15.5858 22.75 15.25 22.4142 15.25 22V20.7451C14.9715 20.7464 14.672 20.75 14.3496 20.75H12.75V22C12.75 22.4142 12.4142 22.75 12 22.75C11.5858 22.75 11.25 22.4142 11.25 22V20.75H9.65039C9.32804 20.75 9.02851 20.7464 8.75 20.7451V22C8.75 22.4142 8.41421 22.75 8 22.75C7.58579 22.75 7.25 22.4142 7.25 22V20.708C6.46569 20.6601 5.90857 20.5565 5.43359 20.3145C4.68109 19.931 4.06902 19.3189 3.68555 18.5664C3.44353 18.0914 3.33892 17.5343 3.29102 16.75H2C1.58579 16.75 1.25 16.4142 1.25 16C1.25 15.5858 1.58579 15.25 2 15.25H3.25391C3.25261 14.9715 3.25 14.672 3.25 14.3496V12.75H2C1.58579 12.75 1.25 12.4142 1.25 12C1.25 11.5858 1.58579 11.25 2 11.25H3.25V9.65039C3.25 9.32804 3.25261 9.02851 3.25391 8.75H2C1.58579 8.75 1.25 8.41421 1.25 8C1.25 7.58579 1.58579 7.25 2 7.25H3.29102C3.33892 6.46566 3.44353 5.90858 3.68555 5.43359C4.06902 4.68109 4.68109 4.06902 5.43359 3.68555C5.90858 3.44353 6.46566 3.33892 7.25 3.29102V2C7.25 1.58579 7.58579 1.25 8 1.25C8.41421 1.25 8.75 1.58579 8.75 2V3.25391C9.02851 3.25261 9.32804 3.25 9.65039 3.25H11.25V2C11.25 1.58579 11.5858 1.25 12 1.25C12.4142 1.25 12.75 1.58579 12.75 2V3.25H14.3496C14.672 3.25 14.9715 3.25261 15.25 3.25391V2C15.25 1.58579 15.5858 1.25 16 1.25ZM11.4004 9C10.5607 9 10.1402 8.99981 9.81934 9.16309C9.53709 9.3069 9.3069 9.53709 9.16309 9.81934C8.99981 10.1402 9 10.5607 9 11.4004V12.5996C9 13.4393 8.99981 13.8598 9.16309 14.1807C9.3069 14.4629 9.53709 14.6931 9.81934 14.8369C10.1402 15.0002 10.5607 15 11.4004 15H12.5996C13.4393 15 13.8598 15.0002 14.1807 14.8369C14.4629 14.6931 14.6931 14.4629 14.8369 14.1807C15.0002 13.8598 15 13.4393 15 12.5996V11.4004C15 10.5607 15.0002 10.1402 14.8369 9.81934C14.6931 9.53709 14.4629 9.3069 14.1807 9.16309C13.8598 8.99981 13.4393 9 12.5996 9H11.4004Z" fill="currentColor" />
</svg>