<svg xmlns="http://www.w3.org/2000/svg" width="40" height="40" viewBox="0 0 40 40" fill="none">
<path d="M20.001 2.08337C29.8959 2.08355 37.917 10.1054 37.917 20.0004C37.9168 29.8952 29.8958 37.9162 20.001 37.9164C10.106 37.9164 2.08416 29.8953 2.08398 20.0004C2.08398 10.1053 10.1059 2.08337 20.001 2.08337ZM25.6436 10.5941C25.0518 10.2394 24.2839 10.4314 23.9287 11.0228L13.9287 27.6898C13.5736 28.2817 13.7657 29.0494 14.3574 29.4047C14.9124 29.7376 15.6218 29.59 16.001 29.0824L16.0723 28.976L26.0723 12.3099C26.4274 11.718 26.2355 10.9493 25.6436 10.5941ZM25.834 20.4164C23.7632 20.4166 22.0842 22.0956 22.084 24.1664C22.084 26.2373 23.7631 27.9162 25.834 27.9164C27.9049 27.9162 29.584 26.2373 29.584 24.1664C29.5838 22.0956 27.9048 20.4166 25.834 20.4164ZM25.834 22.9164C26.5241 22.9166 27.0838 23.4763 27.084 24.1664C27.084 24.8566 26.5242 25.4162 25.834 25.4164C25.1438 25.4162 24.584 24.8566 24.584 24.1664C24.5842 23.4763 25.1439 22.9166 25.834 22.9164ZM14.167 12.0834C12.0962 12.0836 10.4172 13.7626 10.417 15.8334C10.4172 17.9042 12.0962 19.5832 14.167 19.5834C16.238 19.5834 17.9168 17.9043 17.917 15.8334C17.9168 13.7625 16.238 12.0834 14.167 12.0834ZM14.167 14.5834C14.8572 14.5834 15.4168 15.1432 15.417 15.8334C15.4168 16.5236 14.8572 17.0834 14.167 17.0834C13.4769 17.0832 12.9172 16.5235 12.917 15.8334C12.9172 15.1433 13.4769 14.5836 14.167 14.5834Z" fill="currentColor" />
</svg>