<svg xmlns="http://www.w3.org/2000/svg" width="40" height="40" viewBox="0 0 40 40" fill="none">
<path d="M24.9995 11.6665L14.9995 28.3331M36.6663 19.9998C36.6663 29.2045 29.2044 36.6665 19.9997 36.6665C10.7949 36.6665 3.33301 29.2045 3.33301 19.9998C3.33301 10.7951 10.7949 3.33313 19.9997 3.33313C29.2044 3.33313 36.6663 10.7951 36.6663 19.9998ZM16.6661 15.8331C16.6661 17.2138 15.5468 18.3331 14.1661 18.3331C12.7854 18.3331 11.6661 17.2138 11.6661 15.8331C11.6661 14.4524 12.7854 13.3331 14.1661 13.3331C15.5468 13.3331 16.6661 14.4524 16.6661 15.8331ZM28.3328 24.1665C28.3328 25.5472 27.2135 26.6665 25.8328 26.6665C24.4521 26.6665 23.3328 25.5472 23.3328 24.1665C23.3328 22.7858 24.4521 21.6665 25.8328 21.6665C27.2135 21.6665 28.3328 22.7858 28.3328 24.1665Z" stroke="currentColor" stroke-width={3} stroke-linecap="round" stroke-linejoin="round" />
</svg>