<svg xmlns="http://www.w3.org/2000/svg" width="40" height="40" viewBox="0 0 40 40" fill="none">
<path d="M29.1666 6.07838C26.5368 4.34328 23.3863 3.33334 19.9999 3.33334C10.7952 3.33334 3.33325 10.7953 3.33325 20C3.33325 29.2048 10.7952 36.6667 19.9999 36.6667C29.2047 36.6667 36.6666 29.2048 36.6666 20C36.6666 17.3023 36.0257 14.7543 34.8878 12.5M16.6666 17.5V16.6667C16.6666 14.8257 18.159 13.3333 19.9999 13.3333C21.8409 13.3333 23.3333 14.8257 23.3333 16.6667V16.8689C23.3333 17.8066 22.9608 18.7058 22.2977 19.3689L19.9999 21.6667M20.8333 26.6667C20.8333 27.1269 20.4602 27.5 19.9999 27.5C19.5397 27.5 19.1666 27.1269 19.1666 26.6667M20.8333 26.6667C20.8333 26.2064 20.4602 25.8333 19.9999 25.8333C19.5397 25.8333 19.1666 26.2064 19.1666 26.6667M20.8333 26.6667H19.1666" stroke="currentColor" stroke-width={2.5} stroke-linecap="round" stroke-linejoin="round" />
</svg>