<svg xmlns="http://www.w3.org/2000/svg" width="40" height="40" viewBox="0 0 40 40" fill="none">
<path d="M20.0002 2.08334C29.8952 2.08352 37.9163 10.1053 37.9163 20.0003C37.9161 29.8952 29.8951 37.9162 20.0002 37.9164C10.1053 37.9164 2.08343 29.8953 2.08325 20.0003C2.08325 10.1052 10.1051 2.08334 20.0002 2.08334ZM19.9993 24.5833C18.9209 24.5837 18.0338 25.4032 17.927 26.4535L17.9163 26.6664L17.927 26.8792C18.0335 27.9298 18.9207 28.75 19.9993 28.7503C21.1499 28.7503 22.0833 27.8169 22.0833 26.6664C22.083 25.5159 21.1497 24.5833 19.9993 24.5833ZM19.9993 12.0833C17.4684 12.0837 15.4165 14.1354 15.4163 16.6664V17.5003C15.4164 18.1904 15.9761 18.7502 16.6663 18.7503C17.3565 18.7503 17.9161 18.1905 17.9163 17.5003V16.6664C17.9165 15.5161 18.8491 14.5837 19.9993 14.5833C21.1497 14.5833 22.083 15.5159 22.0833 16.6664V16.8685C22.0833 17.4746 21.8419 18.0561 21.4133 18.4847L19.1155 20.7826C18.6276 21.2706 18.6279 22.062 19.1155 22.5501C19.6036 23.0383 20.3949 23.0382 20.8831 22.5501L23.1809 20.2523C24.0783 19.3548 24.5833 18.1377 24.5833 16.8685V16.6664C24.583 14.1352 22.5304 12.0833 19.9993 12.0833Z" fill="currentColor" />
</svg>