<svg xmlns="http://www.w3.org/2000/svg" width="24" height="24" viewBox="0 0 24 24" fill="none">
<path d="M5.46974 3.46967C5.76263 3.17678 6.23739 3.17678 6.53028 3.46967C6.82318 3.76256 6.82318 4.23732 6.53028 4.53021L5.34181 5.71869C4.27904 6.78146 3.8373 7.22996 3.52345 7.74213C3.23564 8.21182 3.02412 8.72407 2.89552 9.25971C2.76934 9.78527 2.75304 10.3474 2.75099 11.5497H2.75196C3.0891 11.378 3.44548 11.3103 3.82521 11.2792C4.19633 11.2489 4.65253 11.2499 5.20021 11.2499H6.79982C7.34749 11.2499 7.80369 11.2489 8.17482 11.2792C8.55454 11.3103 8.91092 11.378 9.24806 11.5497C9.7655 11.8134 10.1866 12.2345 10.4502 12.7519C10.6219 13.089 10.6897 13.4454 10.7207 13.8251C10.751 14.1963 10.75 14.6525 10.75 15.2001V16.7997C10.75 17.3474 10.751 17.8036 10.7207 18.1747C10.6897 18.5545 10.6219 18.9108 10.4502 19.248C10.1866 19.7654 9.7655 20.1865 9.24806 20.4501C8.91092 20.6218 8.55454 20.6896 8.17482 20.7206C7.80369 20.751 7.34749 20.7499 6.79982 20.7499H5.20021C4.65253 20.7499 4.19633 20.751 3.82521 20.7206C3.44548 20.6896 3.0891 20.6218 2.75196 20.4501C2.23452 20.1865 1.81347 19.7654 1.54982 19.248C1.3781 18.9108 1.31034 18.5545 1.27931 18.1747C1.24899 17.8036 1.25001 17.3474 1.25001 16.7997L1.25001 11.9765C1.25001 10.5447 1.24521 9.70604 1.43653 8.90912C1.60189 8.2205 1.8751 7.56179 2.24513 6.95795C2.67329 6.25943 3.26919 5.67022 4.28126 4.65814L5.46974 3.46967ZM17.4697 3.46967C17.7626 3.17678 18.2374 3.17678 18.5303 3.46967C18.8232 3.76256 18.8232 4.23732 18.5303 4.53021L17.3418 5.71869C16.279 6.78146 15.8373 7.22996 15.5234 7.74213C15.2356 8.21182 15.0241 8.72407 14.8955 9.25971C14.7693 9.78527 14.753 10.3474 14.751 11.5497H14.752C15.0891 11.378 15.4455 11.3103 15.8252 11.2792C16.1963 11.2489 16.6525 11.2499 17.2002 11.2499H18.7998C19.3475 11.2499 19.8037 11.2489 20.1748 11.2792C20.5545 11.3103 20.9109 11.378 21.2481 11.5497C21.7655 11.8134 22.1866 12.2345 22.4502 12.7519C22.6219 13.089 22.6897 13.4454 22.7207 13.8251C22.751 14.1963 22.75 14.6525 22.75 15.2001V16.7997C22.75 17.3474 22.751 17.8036 22.7207 18.1747C22.6897 18.5545 22.6219 18.9108 22.4502 19.248C22.1866 19.7654 21.7655 20.1865 21.2481 20.4501C20.9109 20.6218 20.5545 20.6896 20.1748 20.7206C19.8037 20.751 19.3475 20.7499 18.7998 20.7499H17.2002C16.6525 20.7499 16.1963 20.751 15.8252 20.7206C15.4455 20.6896 15.0891 20.6218 14.752 20.4501C14.2345 20.1865 13.8135 19.7654 13.5498 19.248C13.3781 18.9108 13.3103 18.5545 13.2793 18.1747C13.249 17.8036 13.25 17.3474 13.25 16.7997V11.9765C13.25 10.5447 13.2452 9.70604 13.4365 8.90912C13.6019 8.2205 13.8751 7.56179 14.2451 6.95795C14.6733 6.25943 15.2692 5.67022 16.2813 4.65814L17.4697 3.46967Z" fill="currentColor" />
</svg>