<svg xmlns="http://www.w3.org/2000/svg" width="24" height="24" viewBox="0 0 24 24" fill="none">
<path d="M6.79981 3.25C7.34749 3.25 7.80368 3.24898 8.17481 3.2793C8.55454 3.31033 8.91091 3.3781 9.24805 3.54981C9.7655 3.81346 10.1865 4.23451 10.4502 4.75196C10.6219 5.0891 10.6897 5.44547 10.7207 5.8252C10.751 6.19633 10.75 6.65252 10.75 7.2002V13.25C10.75 13.964 10.7515 14.3812 10.7051 14.7803C10.5223 16.3504 9.7939 17.8072 8.64747 18.8955C8.35607 19.1721 8.02144 19.4212 7.4502 19.8496L6.4502 20.5996C6.11893 20.8481 5.64898 20.7813 5.40039 20.4502C5.15195 20.1189 5.21871 19.649 5.54981 19.4004L6.54981 18.6504C7.14949 18.2006 7.40082 18.0102 7.61426 17.8076C8.50588 16.9612 9.07261 15.8286 9.21485 14.6074C9.24889 14.315 9.25 13.9999 9.25 13.25V12.4482L9.24805 12.4502C8.91091 12.6219 8.55454 12.6897 8.17481 12.7207C7.80368 12.751 7.34749 12.75 6.79981 12.75H5.2002C4.65252 12.75 4.19633 12.751 3.8252 12.7207C3.44547 12.6897 3.0891 12.6219 2.75196 12.4502C2.23451 12.1865 1.81346 11.7655 1.54981 11.2481C1.3781 10.9109 1.31033 10.5545 1.2793 10.1748C1.24898 9.80368 1.25 9.34749 1.25 8.79981V7.2002C1.25 6.65252 1.24898 6.19633 1.2793 5.8252C1.31033 5.44547 1.3781 5.0891 1.54981 4.75196C1.81346 4.23451 2.23451 3.81346 2.75196 3.54981C3.0891 3.3781 3.44547 3.31033 3.8252 3.2793C4.19633 3.24898 4.65252 3.25 5.2002 3.25H6.79981ZM18.7998 3.25C19.3475 3.25 19.8037 3.24898 20.1748 3.2793C20.5545 3.31033 20.9109 3.3781 21.2481 3.54981C21.7655 3.81346 22.1865 4.23451 22.4502 4.75196C22.6219 5.0891 22.6897 5.44547 22.7207 5.8252C22.751 6.19633 22.75 6.65252 22.75 7.2002V13.25C22.75 13.964 22.7515 14.3812 22.7051 14.7803C22.5223 16.3504 21.7939 17.8072 20.6475 18.8955C20.3561 19.1721 20.0214 19.4212 19.4502 19.8496L18.4502 20.5996C18.1189 20.8481 17.649 20.7813 17.4004 20.4502C17.1519 20.1189 17.2187 19.649 17.5498 19.4004L18.5498 18.6504C19.1495 18.2006 19.4008 18.0102 19.6143 17.8076C20.5059 16.9612 21.0726 15.8286 21.2148 14.6074C21.2489 14.315 21.25 13.9999 21.25 13.25V12.4482L21.2481 12.4502C20.9109 12.6219 20.5545 12.6897 20.1748 12.7207C19.8037 12.751 19.3475 12.75 18.7998 12.75H17.2002C16.6525 12.75 16.1963 12.751 15.8252 12.7207C15.4455 12.6897 15.0891 12.6219 14.752 12.4502C14.2345 12.1865 13.8135 11.7655 13.5498 11.2481C13.3781 10.9109 13.3103 10.5545 13.2793 10.1748C13.249 9.80368 13.25 9.34749 13.25 8.79981V7.2002C13.25 6.65252 13.249 6.19633 13.2793 5.8252C13.3103 5.44547 13.3781 5.0891 13.5498 4.75196C13.8135 4.23451 14.2345 3.81346 14.752 3.54981C15.0891 3.3781 15.4455 3.31033 15.8252 3.2793C16.1963 3.24898 16.6525 3.25 17.2002 3.25H18.7998Z" fill="currentColor" />
</svg>