<svg xmlns="http://www.w3.org/2000/svg" width="24" height="24" viewBox="0 0 24 24" fill="none">
<path d="M2 12V16.8C2 17.9201 2 18.4802 2.21799 18.908C2.40973 19.2843 2.71569 19.5903 3.09202 19.782C3.51984 20 4.07989 20 5.2 20H6.8C7.92011 20 8.48016 20 8.90798 19.782C9.28431 19.5903 9.59027 19.2843 9.78201 18.908C10 18.4802 10 17.9201 10 16.8V15.2C10 14.0799 10 13.5198 9.78201 13.092C9.59027 12.7157 9.28431 12.4097 8.90798 12.218C8.48016 12 7.9201 12 6.8 12H5M2 16V11.9765C2 10.5089 2 9.77513 2.16578 9.08461C2.31276 8.47239 2.55519 7.88712 2.88416 7.35029C3.25521 6.74479 3.77407 6.22593 4.81178 5.18822L6 4M14 16V11.9765C14 10.5089 14 9.77513 14.1658 9.08461C14.3128 8.47239 14.5552 7.88712 14.8842 7.35029C15.2552 6.74479 15.7741 6.22593 16.8118 5.18822L18 4M14 12V16.8C14 17.9201 14 18.4802 14.218 18.908C14.4097 19.2843 14.7157 19.5903 15.092 19.782C15.5198 20 16.0799 20 17.2 20H18.8C19.9201 20 20.4802 20 20.908 19.782C21.2843 19.5903 21.5903 19.2843 21.782 18.908C22 18.4802 22 17.9201 22 16.8V15.2C22 14.0799 22 13.5198 21.782 13.092C21.5903 12.7157 21.2843 12.4097 20.908 12.218C20.4802 12 19.9201 12 18.8 12H17" stroke="currentColor" stroke-width={1.5} stroke-linecap="round" stroke-linejoin="round" />
</svg>