<svg xmlns="http://www.w3.org/2000/svg" width="24" height="24" viewBox="0 0 24 24" fill="none">
<path d="M17 0.250003C17.4142 0.250004 17.75 0.58579 17.75 1C17.75 1.41422 17.4142 1.75 17 1.75L9 1.75C8.0125 1.75 7.17493 2.38663 6.87207 3.27149C7.535 3.25113 8.31431 3.25 9.25 3.25L14.75 3.25C17.55 3.25 18.95 3.25014 20.0195 3.79493C20.9603 4.27429 21.7257 5.03966 22.2051 5.98047C22.7499 7.04999 22.75 8.45005 22.75 11.25L22.75 14.75C22.75 17.55 22.7499 18.95 22.2051 20.0195C21.7257 20.9603 20.9603 21.7257 20.0195 22.2051C18.95 22.7499 17.5499 22.75 14.75 22.75L9.25 22.75C6.45004 22.75 5.04998 22.7499 3.98046 22.2051C3.03966 21.7257 2.27429 20.9603 1.79492 20.0195C1.25013 18.95 1.25 17.5499 1.25 14.75L1.25 11.25C1.25 8.45005 1.25013 7.04998 1.79492 5.98047C2.27429 5.03966 3.03966 4.27429 3.98047 3.79492C4.36175 3.60071 4.78508 3.47595 5.29883 3.39551C5.58791 1.61189 7.13474 0.250001 9 0.250001L17 0.250003ZM8 8.25C6.48122 8.25 5.25 9.48122 5.25 11C5.25 12.5188 6.48122 13.75 8 13.75C9.51878 13.75 10.75 12.5188 10.75 11C10.75 9.48122 9.51878 8.25 8 8.25ZM14 12.25C13.5858 12.25 13.25 12.5858 13.25 13C13.25 13.4142 13.5858 13.75 14 13.75L18 13.75C18.4142 13.75 18.75 13.4142 18.75 13C18.75 12.5858 18.4142 12.25 18 12.25L14 12.25ZM14 8.25C13.5858 8.25 13.25 8.58579 13.25 9C13.25 9.41421 13.5858 9.75 14 9.75L18 9.75C18.4142 9.75 18.75 9.41422 18.75 9C18.75 8.61184 18.4551 8.29253 18.0771 8.25391L18 8.25L14 8.25Z" fill="currentColor" />
</svg>