<svg xmlns="http://www.w3.org/2000/svg" width="24" height="24" viewBox="0 0 24 24" fill="none">
<path d="M22 10.75V10.3C22 9.09181 22 8.48771 21.8961 7.98606C21.4918 6.03373 19.9663 4.50819 18.0139 4.10389C17.5123 4 16.9082 4 15.7 4H10C7.19974 4 5.79961 4 4.73005 4.54497C3.78924 5.02433 3.02433 5.78924 2.54497 6.73005C2 7.79961 2 9.19974 2 12V14C2 16.8003 2 18.2004 2.54497 19.27C3.02433 20.2108 3.78924 20.9757 4.73005 21.455C5.79961 22 7.19974 22 10 22H15.7C16.9082 22 17.5123 22 18.0139 21.8961C19.9663 21.4918 21.4918 19.9663 21.8961 18.0139C22 17.5123 22 16.9082 22 15.7V15.25M6 4C6 2.34315 7.34315 1 9 1H17M14 9H18M14 13H18M10 11C10 12.1046 9.10457 13 8 13C6.89543 13 6 12.1046 6 11C6 9.89543 6.89543 9 8 9" stroke="currentColor" stroke-width={1.5} stroke-linecap="round" stroke-linejoin="round" />
</svg>