<svg xmlns="http://www.w3.org/2000/svg" width="24" height="24" viewBox="0 0 24 24" fill="none">
<path opacity={0.32} d="M9.25 3.25C6.44974 3.25 5.04961 3.25 3.98005 3.79497C3.03924 4.27433 2.27434 5.03924 1.79497 5.98005C1.25 7.04961 1.25 8.44974 1.25 11.25L1.25 14.75C1.25 17.5503 1.25 18.9504 1.79497 20.02C2.27433 20.9608 3.03924 21.7257 3.98005 22.205C5.04961 22.75 6.44974 22.75 9.25 22.75H14.75C17.5503 22.75 18.9504 22.75 20.02 22.205C20.9608 21.7257 21.7257 20.9608 22.205 20.02C22.75 18.9504 22.75 17.5503 22.75 14.75V11.25C22.75 8.44974 22.75 7.04961 22.205 5.98005C21.7257 5.03924 20.9608 4.27434 20.02 3.79497C18.9504 3.25 17.5503 3.25 14.75 3.25L9.25 3.25Z" fill="currentColor" /><path d="M8 8.25C9.51878 8.25 10.75 9.48122 10.75 11C10.75 12.5188 9.51878 13.75 8 13.75C6.48122 13.75 5.25 12.5188 5.25 11C5.25 9.48122 6.48122 8.25 8 8.25ZM18 12.25C18.4142 12.25 18.75 12.5858 18.75 13C18.75 13.4142 18.4142 13.75 18 13.75L14 13.75C13.5858 13.75 13.25 13.4142 13.25 13C13.25 12.5858 13.5858 12.25 14 12.25L18 12.25ZM18.0771 8.25391C18.4551 8.29253 18.75 8.61184 18.75 9C18.75 9.41422 18.4142 9.75 18 9.75L14 9.75C13.5858 9.75 13.25 9.41421 13.25 9C13.25 8.58579 13.5858 8.25 14 8.25L18 8.25L18.0771 8.25391ZM17 0.250002C17.4142 0.250002 17.75 0.585789 17.75 1C17.75 1.41422 17.4142 1.75 17 1.75L8.5 1.75C7.5335 1.75 6.75 2.5335 6.75 3.5L6.75 4C6.75 4.41421 6.41421 4.75 6 4.75C5.58579 4.75 5.25 4.41421 5.25 4L5.25 3.5C5.25 1.70508 6.70508 0.250001 8.5 0.250001L17 0.250002Z" fill="currentColor" />
</svg>