<svg xmlns="http://www.w3.org/2000/svg" width="24" height="24" viewBox="0 0 24 24" fill="none">
<path d="M2 14.5L2 15C2 16.8613 2 17.7919 2.24472 18.5451C2.73931 20.0673 3.93273 21.2607 5.45491 21.7553C6.20808 22 7.13872 22 9 22H14C16.8003 22 18.2004 22 19.27 21.455C20.2108 20.9757 20.9757 20.2108 21.455 19.27C22 18.2004 22 16.8003 22 14V10C22 7.19974 22 5.79961 21.455 4.73005C20.9757 3.78924 20.2108 3.02433 19.27 2.54497C18.2004 2 16.8003 2 14 2L9 2C7.13872 2 6.20808 2 5.45491 2.24472C3.93273 2.73931 2.73931 3.93273 2.24472 5.45492C2 6.20808 2 7.13872 2 9L2 9.5M18 7.99999H10.5C8.01473 7.99999 6 10.0147 6 12.5C6 14.9853 8.01473 17 10.5 17H13M18 7.99999L16 6M18 7.99999L16 9.99999" stroke="currentColor" stroke-width={1.5} stroke-linecap="round" stroke-linejoin="round" />
</svg>