<svg xmlns="http://www.w3.org/2000/svg" width="24" height="24" viewBox="0 0 24 24" fill="none">
<path d="M14.75 1.25C17.55 1.25 18.95 1.25013 20.0195 1.79492C20.9603 2.27429 21.7257 3.03966 22.2051 3.98047C22.7499 5.04998 22.75 6.45005 22.75 9.25V14.75C22.75 17.55 22.7499 18.95 22.2051 20.0195C21.7257 20.9603 20.9603 21.7257 20.0195 22.2051C18.95 22.7499 17.55 22.75 14.75 22.75H9.25C6.45005 22.75 5.04998 22.7499 3.98047 22.2051C3.03966 21.7257 2.27429 20.9603 1.79492 20.0195C1.25013 18.95 1.25 17.55 1.25 14.75V9.25C1.25 6.45005 1.25013 5.04998 1.79492 3.98047C2.27429 3.03966 3.03966 2.27429 3.98047 1.79492C5.04998 1.25013 6.45005 1.25 9.25 1.25H14.75ZM16.5303 5.46973C16.2374 5.17683 15.7626 5.17683 15.4697 5.46973C15.1951 5.74433 15.1777 6.17905 15.418 6.47363L15.4697 6.53027L16.1895 7.25H10.5C7.60051 7.25001 5.25 9.60051 5.25 12.5C5.25 15.3995 7.6005 17.75 10.5 17.75H13C13.4142 17.75 13.75 17.4142 13.75 17C13.75 16.5858 13.4142 16.25 13 16.25H10.5C8.42893 16.25 6.75 14.5711 6.75 12.5C6.75 10.4289 8.42893 8.75001 10.5 8.75H16.1895L15.4697 9.46973C15.1768 9.76262 15.1768 10.2374 15.4697 10.5303C15.7626 10.8232 16.2374 10.8232 16.5303 10.5303L18.5303 8.53027C18.6709 8.38962 18.75 8.19891 18.75 8C18.75 7.80109 18.6709 7.61038 18.5303 7.46973L16.5303 5.46973Z" fill="currentColor" />
</svg>