<svg xmlns="http://www.w3.org/2000/svg" width="24" height="24" viewBox="0 0 24 24" fill="none">
<path d="M14.75 1.25C17.55 1.25 18.95 1.25013 20.0195 1.79492C20.9603 2.27429 21.7257 3.03966 22.2051 3.98047C22.7499 5.04998 22.75 6.45005 22.75 9.25V14.75C22.75 17.55 22.7499 18.95 22.2051 20.0195C21.7257 20.9603 20.9603 21.7257 20.0195 22.2051C18.95 22.7499 17.55 22.75 14.75 22.75H9.25C6.45005 22.75 5.04998 22.7499 3.98047 22.2051C3.03966 21.7257 2.27429 20.9603 1.79492 20.0195C1.25013 18.95 1.25 17.55 1.25 14.75V9.25C1.25 6.45005 1.25013 5.04998 1.79492 3.98047C2.27429 3.03966 3.03966 2.27429 3.98047 1.79492C5.04998 1.25013 6.45005 1.25 9.25 1.25H14.75ZM18 9.25C17.5858 9.25003 17.25 9.58581 17.25 10V12.0645C17.0361 11.8586 16.8015 11.642 16.5459 11.4268C15.3172 10.392 13.5196 9.25 11.5 9.25C8.98971 9.25002 7.41211 10.3807 6.48047 11.5273C6.022 12.0917 5.72326 12.6532 5.53906 13.0742C5.44664 13.2855 5.3824 13.464 5.33984 13.5928C5.31854 13.6573 5.30296 13.7099 5.29199 13.748C5.28655 13.767 5.28147 13.7822 5.27832 13.7939C5.27674 13.7998 5.27544 13.8056 5.27441 13.8096C5.27396 13.8113 5.27379 13.8131 5.27344 13.8145L5.27246 13.8164V13.8174C5.27266 13.8179 5.28747 13.8219 6 14L5.27246 13.8184C5.17216 14.2201 5.41663 14.6271 5.81836 14.7275C6.2189 14.8275 6.62456 14.5851 6.72656 14.1855C6.72656 14.1855 6.72712 14.1842 6.72754 14.1826C6.72846 14.1792 6.73052 14.1721 6.7334 14.1621C6.73928 14.1417 6.74894 14.1081 6.76367 14.0635C6.79338 13.9736 6.84247 13.8394 6.91406 13.6758C7.05797 13.3468 7.2906 12.9083 7.64453 12.4727C8.33789 11.6194 9.51048 10.75 11.5 10.75C12.9802 10.75 14.4329 11.6081 15.5791 12.5732C15.8516 12.8027 16.1002 13.0334 16.3203 13.25H14C13.5858 13.25 13.25 13.5858 13.25 14C13.25 14.4142 13.5858 14.75 14 14.75H18C18.4142 14.75 18.75 14.4142 18.75 14V10C18.75 9.58579 18.4142 9.25 18 9.25ZM6.72754 14.1826V14.1836H6.72656V14.1816C6.72755 14.1819 6.72754 14.1826 6.72754 14.1826Z" fill="currentColor" />
</svg>