<svg xmlns="http://www.w3.org/2000/svg" width="24" height="24" viewBox="0 0 24 24" fill="none">
<path d="M14.75 1.25C17.55 1.25 18.95 1.25013 20.0195 1.79492C20.9603 2.27429 21.7257 3.03966 22.2051 3.98047C22.7499 5.04998 22.75 6.45005 22.75 9.25V14.75C22.75 17.55 22.7499 18.95 22.2051 20.0195C21.7257 20.9603 20.9603 21.7257 20.0195 22.2051C18.95 22.7499 17.55 22.75 14.75 22.75H9.25C6.45005 22.75 5.04998 22.7499 3.98047 22.2051C3.03966 21.7257 2.27429 20.9603 1.79492 20.0195C1.25013 18.95 1.25 17.55 1.25 14.75V9.25C1.25 6.45005 1.25013 5.04998 1.79492 3.98047C2.27429 3.03966 3.03966 2.27429 3.98047 1.79492C5.04998 1.25013 6.45005 1.25 9.25 1.25H14.75ZM18 11.25C17.5858 11.25 17.25 11.5858 17.25 12C17.25 14.8995 14.8995 17.25 12 17.25C10.5731 17.25 9.35748 16.6029 8.46875 15.9092C8.40157 15.8567 8.33813 15.8022 8.27539 15.75H9C9.41421 15.75 9.75 15.4142 9.75 15C9.75 14.5858 9.41421 14.25 9 14.25H6.5C6.08579 14.25 5.75 14.5858 5.75 15V17.5C5.75 17.9142 6.08579 18.25 6.5 18.25C6.91421 18.25 7.25 17.9142 7.25 17.5V16.8477C7.34449 16.9277 7.44232 17.01 7.5459 17.0908C8.57873 17.8971 10.1133 18.75 12 18.75C15.7279 18.75 18.75 15.7279 18.75 12C18.75 11.5858 18.4142 11.25 18 11.25ZM12 5.25C8.25085 5.25 5.25 8.27368 5.25 12C5.25 12.4142 5.58579 12.75 6 12.75C6.41421 12.75 6.75 12.4142 6.75 12C6.75 9.0989 9.08248 6.75 12 6.75C13.7939 6.75 15.0007 7.41708 15.7617 8.06934C15.8314 8.12903 15.8956 8.19087 15.958 8.25H15C14.5858 8.25 14.25 8.58579 14.25 9C14.25 9.41421 14.5858 9.75 15 9.75H17.5C17.9142 9.75 18.25 9.41421 18.25 9V6.5C18.25 6.08579 17.9142 5.75 17.5 5.75C17.0858 5.75 16.75 6.08579 16.75 6.5V6.94043C16.7462 6.93712 16.7421 6.93398 16.7383 6.93066C15.7493 6.08297 14.206 5.25 12 5.25ZM16.8311 9.33789V9.33887L16.8301 9.33789L16.8291 9.33594V9.33496C16.8298 9.33635 16.8307 9.33721 16.8311 9.33789Z" fill="currentColor" />
</svg>