<svg xmlns="http://www.w3.org/2000/svg" width="24" height="24" viewBox="0 0 24 24" fill="none">
<path d="M22 7.5V4M22 7.5C22 7.5 18.6667 2 12 2C10.1738 2 8.46768 2.48377 7 3.32943M22 7.5H18.5M3 16.5C3 16.5 6.47715 22 12 22C13.8214 22 15.5291 21.513 17 20.6622M3 16.5H6.5M3 16.5V20M20 18.001C21.2558 16.3295 22 14.2516 22 12M3.98961 6C2.73845 7.67132 2 9.74879 2 12M12 12V8M12.5 15C12.5 15.2761 12.2761 15.5 12 15.5C11.7239 15.5 11.5 15.2761 11.5 15M12.5 15C12.5 14.7239 12.2761 14.5 12 14.5C11.7239 14.5 11.5 14.7239 11.5 15M12.5 15H11.5" stroke="currentColor" stroke-width={1.5} stroke-linecap="round" stroke-linejoin="round" />
</svg>