<svg xmlns="http://www.w3.org/2000/svg" width="24" height="24" viewBox="0 0 24 24" fill="none">
<path d="M14.75 1.25C17.55 1.25 18.95 1.25013 20.0195 1.79492C20.9603 2.27429 21.7257 3.03966 22.2051 3.98047C22.7499 5.04998 22.75 6.45005 22.75 9.25V14.75C22.75 17.55 22.7499 18.95 22.2051 20.0195C21.7257 20.9603 20.9603 21.7257 20.0195 22.2051C18.95 22.7499 17.55 22.75 14.75 22.75H9.25C6.45005 22.75 5.04998 22.7499 3.98047 22.2051C3.03966 21.7257 2.27429 20.9603 1.79492 20.0195C1.25013 18.95 1.25 17.55 1.25 14.75V9.25C1.25 6.45005 1.25013 5.04998 1.79492 3.98047C2.27429 3.03966 3.03966 2.27429 3.98047 1.79492C5.04998 1.25013 6.45005 1.25 9.25 1.25H14.75ZM6 11.25C5.58579 11.25 5.25 11.5858 5.25 12C5.25 15.7279 8.27208 18.75 12 18.75C13.8867 18.75 15.4213 17.8971 16.4541 17.0908C16.5577 17.01 16.6555 16.9277 16.75 16.8477V17.5C16.75 17.9142 17.0858 18.25 17.5 18.25C17.9142 18.25 18.25 17.9142 18.25 17.5V15C18.25 14.5858 17.9142 14.25 17.5 14.25H15C14.5858 14.25 14.25 14.5858 14.25 15C14.25 15.4142 14.5858 15.75 15 15.75H15.7246C15.6619 15.8022 15.5984 15.8567 15.5312 15.9092C14.6425 16.6029 13.4269 17.25 12 17.25C9.1005 17.25 6.75 14.8995 6.75 12C6.75 11.5858 6.41421 11.25 6 11.25ZM12 5.25C9.79403 5.25 8.2507 6.08297 7.26172 6.93066C7.25785 6.93398 7.25385 6.93712 7.25 6.94043V6.5C7.25 6.08579 6.91421 5.75 6.5 5.75C6.08579 5.75 5.75 6.08579 5.75 6.5V9C5.75 9.41421 6.08579 9.75 6.5 9.75H9C9.41421 9.75 9.75 9.41421 9.75 9C9.75 8.58579 9.41421 8.25 9 8.25H8.04199C8.10442 8.19087 8.16864 8.12903 8.23828 8.06934C8.99931 7.41708 10.2061 6.75 12 6.75C14.9175 6.75 17.25 9.0989 17.25 12C17.25 12.4142 17.5858 12.75 18 12.75C18.4142 12.75 18.75 12.4142 18.75 12C18.75 8.27368 15.7491 5.25 12 5.25ZM7.16992 9.33789L7.16895 9.33887V9.33789C7.16926 9.33728 7.1693 9.33614 7.16992 9.33496V9.33789Z" fill="currentColor" />
</svg>