<svg xmlns="http://www.w3.org/2000/svg" width="24" height="24" viewBox="0 0 24 24" fill="none">
<path d="M14.75 1.25C17.55 1.25 18.95 1.25013 20.0195 1.79492C20.9603 2.27429 21.7257 3.03966 22.2051 3.98047C22.7499 5.04998 22.75 6.45005 22.75 9.25V14.75C22.75 17.55 22.7499 18.95 22.2051 20.0195C21.7257 20.9603 20.9603 21.7257 20.0195 22.2051C18.95 22.7499 17.55 22.75 14.75 22.75H9.25C6.45005 22.75 5.04998 22.7499 3.98047 22.2051C3.03966 21.7257 2.27429 20.9603 1.79492 20.0195C1.25013 18.95 1.25 17.55 1.25 14.75V9.25C1.25 6.45005 1.25013 5.04998 1.79492 3.98047C2.27429 3.03966 3.03966 2.27429 3.98047 1.79492C5.04998 1.25013 6.45005 1.25 9.25 1.25H14.75ZM17 13.25C16.5858 13.25 16.25 13.5858 16.25 14V14.5C16.25 15.0006 16.246 15.1417 16.2256 15.2441C16.1269 15.7397 15.7397 16.1269 15.2441 16.2256C15.1417 16.246 15.0006 16.25 14.5 16.25H8.81055L9.03027 16.0303C9.32317 15.7374 9.32317 15.2626 9.03027 14.9697C8.73738 14.6768 8.26262 14.6768 7.96973 14.9697L6.46973 16.4697C6.17683 16.7626 6.17683 17.2374 6.46973 17.5303L7.96973 19.0303L8.02637 19.082C8.32095 19.3223 8.75567 19.3049 9.03027 19.0303C9.30488 18.7557 9.32234 18.3209 9.08203 18.0264L9.03027 17.9697L8.81055 17.75H14.5C14.9285 17.75 15.2523 17.7537 15.5361 17.6973C16.627 17.4803 17.4803 16.627 17.6973 15.5361C17.7537 15.2523 17.75 14.9285 17.75 14.5V14C17.75 13.5858 17.4142 13.25 17 13.25ZM12.7871 9.30664C12.5069 9.1906 12.1842 9.25525 11.9697 9.46973L10.4697 10.9697C10.1768 11.2626 10.1768 11.7374 10.4697 12.0303C10.7626 12.3232 11.2374 12.3232 11.5303 12.0303L11.75 11.8105V14C11.75 14.4142 12.0858 14.75 12.5 14.75C12.9142 14.75 13.25 14.4142 13.25 14V10C13.25 9.69665 13.0674 9.42273 12.7871 9.30664ZM16.0303 4.96973C15.7374 4.67683 15.2626 4.67683 14.9697 4.96973C14.6951 5.24433 14.6777 5.67905 14.918 5.97363L14.9697 6.03027L15.1895 6.25H9.5C9.07148 6.25 8.74769 6.24634 8.46387 6.30273C7.37297 6.51973 6.51973 7.37297 6.30273 8.46387C6.24634 8.74769 6.25 9.07148 6.25 9.5V10C6.25 10.4142 6.58579 10.75 7 10.75C7.41421 10.75 7.75 10.4142 7.75 10V9.5C7.75 8.9994 7.75403 8.85835 7.77441 8.75586C7.87314 8.26027 8.26027 7.87314 8.75586 7.77441C8.85835 7.75403 8.9994 7.75 9.5 7.75H15.1895L14.9697 7.96973C14.6768 8.26262 14.6768 8.73738 14.9697 9.03027C15.2626 9.32317 15.7374 9.32317 16.0303 9.03027L17.5303 7.53027C17.8232 7.23738 17.8232 6.76262 17.5303 6.46973L16.0303 4.96973Z" fill="currentColor" />
</svg>