<svg xmlns="http://www.w3.org/2000/svg" width="24" height="24" viewBox="0 0 24 24" fill="none">
<path opacity={0.32} d="M9.25 1.25C6.44974 1.25 5.04961 1.25 3.98005 1.79497C3.03924 2.27433 2.27433 3.03924 1.79497 3.98005C1.25 5.04961 1.25 6.44974 1.25 9.25V14.75C1.25 17.5503 1.25 18.9504 1.79497 20.02C2.27433 20.9608 3.03924 21.7257 3.98005 22.205C5.04961 22.75 6.44974 22.75 9.25 22.75H14.75C17.5503 22.75 18.9504 22.75 20.02 22.205C20.9608 21.7257 21.7257 20.9608 22.205 20.02C22.75 18.9504 22.75 17.5503 22.75 14.75V9.25C22.75 6.44974 22.75 5.04961 22.205 3.98005C21.7257 3.03924 20.9608 2.27433 20.02 1.79497C18.9504 1.25 17.5503 1.25 14.75 1.25H9.25Z" fill="currentColor" /><path d="M17 13.2499C17.4143 13.2499 17.75 13.5857 17.75 13.9999V14.4999C17.75 14.9285 17.7537 15.2522 17.6973 15.5361C17.4803 16.627 16.6271 17.4802 15.5362 17.6972C15.2524 17.7536 14.9285 17.7499 14.5 17.7499H8.8106L9.03032 17.9697L9.08208 18.0263C9.32239 18.3209 9.30493 18.7556 9.03032 19.0302C8.75572 19.3048 8.32099 19.3223 8.02642 19.082L7.96977 19.0302L6.46977 17.5302C6.17691 17.2373 6.17691 16.7625 6.46977 16.4697L7.96977 14.9697C8.26266 14.6768 8.73743 14.6768 9.03032 14.9697C9.32322 15.2626 9.32322 15.7373 9.03032 16.0302L8.8106 16.2499H14.5C15.0006 16.2499 15.1417 16.2459 15.2442 16.2255C15.7398 16.1268 16.1269 15.7397 16.2256 15.2441C16.246 15.1416 16.25 15.0005 16.25 14.4999V13.9999C16.25 13.5857 16.5859 13.25 17 13.2499ZM11.9698 9.46966C12.1842 9.25519 12.5069 9.19055 12.7872 9.30657C13.0674 9.42266 13.25 9.69658 13.25 9.99993V13.9999C13.25 14.4141 12.9143 14.7499 12.5 14.7499C12.0859 14.7499 11.75 14.4141 11.75 13.9999V11.8105L11.5303 12.0302C11.2374 12.3231 10.7627 12.3231 10.4698 12.0302C10.1769 11.7373 10.1769 11.2625 10.4698 10.9697L11.9698 9.46966ZM14.9698 4.96966C15.2627 4.67677 15.7374 4.67679 16.0303 4.96966L17.5303 6.46966C17.8232 6.76255 17.8232 7.23731 17.5303 7.53021L16.0303 9.0302C15.7374 9.32307 15.2627 9.32309 14.9698 9.0302C14.6769 8.73732 14.6769 8.26255 14.9698 7.96966L15.1895 7.74993H9.50005C8.99948 7.74993 8.85839 7.75396 8.75591 7.77435C8.26034 7.87308 7.87318 8.26022 7.77446 8.75579C7.75408 8.85828 7.75005 8.99934 7.75005 9.49993V9.99993C7.75005 10.4141 7.41426 10.7499 7.00005 10.7499C6.58586 10.7499 6.25005 10.4141 6.25005 9.99993V9.49993C6.25005 9.07142 6.24639 8.74762 6.30278 8.4638C6.51977 7.37291 7.37304 6.51967 8.46392 6.30267C8.74773 6.24627 9.07155 6.24993 9.50005 6.24993H15.1895L14.9698 6.03021L14.918 5.97356C14.6777 5.67899 14.6952 5.24426 14.9698 4.96966Z" fill="currentColor" />
</svg>