<svg xmlns="http://www.w3.org/2000/svg" width="24" height="24" viewBox="0 0 24 24" fill="none">
<path opacity={0.32} d="M9.25 1.25C6.44974 1.25 5.04961 1.25 3.98005 1.79497C3.03924 2.27433 2.27433 3.03924 1.79497 3.98005C1.25 5.04961 1.25 6.44974 1.25 9.25V14.75C1.25 17.5503 1.25 18.9504 1.79497 20.02C2.27433 20.9608 3.03924 21.7257 3.98005 22.205C5.04961 22.75 6.44974 22.75 9.25 22.75H14.75C17.5503 22.75 18.9504 22.75 20.02 22.205C20.9608 21.7257 21.7257 20.9608 22.205 20.02C22.75 18.9504 22.75 17.5503 22.75 14.75V9.25C22.75 6.44974 22.75 5.04961 22.205 3.98005C21.7257 3.03924 20.9608 2.27433 20.02 1.79497C18.9504 1.25 17.5503 1.25 14.75 1.25H9.25Z" fill="currentColor" /><path d="M7.28613 3.76976C7.41342 3.37582 7.8364 3.15932 8.23047 3.28636C8.62448 3.41356 8.84084 3.83661 8.71387 4.2307L8.4248 5.12425C9.49465 4.56692 10.7104 4.25023 12 4.25023C16.2801 4.25023 19.7499 7.72011 19.75 12.0002C19.75 16.2804 16.2802 19.7502 12 19.7502C7.71979 19.7502 4.25 16.2804 4.25 12.0002C4.25002 11.2321 4.36226 10.4887 4.57129 9.78636C4.68951 9.38949 5.10698 9.16338 5.50391 9.28148C5.90075 9.39965 6.12675 9.81721 6.00879 10.2141C5.84065 10.7791 5.75002 11.3785 5.75 12.0002C5.75 15.452 8.54822 18.2502 12 18.2502C15.4518 18.2502 18.25 15.452 18.25 12.0002C18.2499 8.54854 15.4517 5.75023 12 5.75023C10.2512 5.75023 8.67137 6.46786 7.53613 7.62621C7.29273 7.8746 6.91 7.92313 6.6123 7.74339C6.31471 7.56349 6.17953 7.20231 6.28613 6.87132L7.28613 3.76976ZM9.5 8.75023C9.91415 8.75023 10.2499 9.08611 10.25 9.50023V14.5002C10.25 14.9144 9.91421 15.2502 9.5 15.2502C9.08579 15.2502 8.75 14.9144 8.75 14.5002V9.50023C8.75011 9.08611 9.08585 8.75023 9.5 8.75023ZM14.5 8.75023C14.9141 8.75023 15.2499 9.08611 15.25 9.50023C15.25 9.91444 14.9142 10.2502 14.5 10.2502H12.25V11.2502H14.5C14.9141 11.2502 15.2499 11.5861 15.25 12.0002V14.5002C15.25 14.9144 14.9142 15.2502 14.5 15.2502H11.5C11.0858 15.2502 10.75 14.9144 10.75 14.5002C10.7501 14.0861 11.0859 13.7502 11.5 13.7502H13.75V12.7502H11.5C11.0858 12.7502 10.75 12.4144 10.75 12.0002V9.50023C10.7501 9.08611 11.0859 8.75023 11.5 8.75023H14.5Z" fill="currentColor" />
</svg>