<svg xmlns="http://www.w3.org/2000/svg" width="24" height="24" viewBox="0 0 24 24" fill="none">
<path d="M14.75 1.25C17.55 1.25 18.95 1.25013 20.0195 1.79492C20.9603 2.27429 21.7257 3.03966 22.2051 3.98047C22.7499 5.04998 22.75 6.45005 22.75 9.25V14.75C22.75 17.55 22.7499 18.95 22.2051 20.0195C21.7257 20.9603 20.9603 21.7257 20.0195 22.2051C18.95 22.7499 17.55 22.75 14.75 22.75H9.25C6.45005 22.75 5.04998 22.7499 3.98047 22.2051C3.03966 21.7257 2.27429 20.9603 1.79492 20.0195C1.25013 18.95 1.25 17.55 1.25 14.75V9.25C1.25 6.45005 1.25013 5.04998 1.79492 3.98047C2.27429 3.03966 3.03966 2.27429 3.98047 1.79492C5.04998 1.25013 6.45005 1.25 9.25 1.25H14.75ZM8.23047 3.28613C7.83633 3.15903 7.41335 3.37546 7.28613 3.76953L6.28613 6.87109C6.17952 7.20212 6.31465 7.56328 6.6123 7.74316C6.91 7.9229 7.29273 7.87437 7.53613 7.62598C8.67138 6.46757 10.2511 5.75 12 5.75C15.4518 5.75 18.25 8.54822 18.25 12C18.25 15.4518 15.4518 18.25 12 18.25C8.54822 18.25 5.75 15.4518 5.75 12C5.75 11.3782 5.84063 10.7789 6.00879 10.2139C6.12688 9.81692 5.90082 9.39944 5.50391 9.28125C5.1069 9.1631 4.68945 9.38913 4.57129 9.78613C4.36224 10.4885 4.25 11.2318 4.25 12C4.25 16.2802 7.71979 19.75 12 19.75C16.2802 19.75 19.75 16.2802 19.75 12C19.75 7.71979 16.2802 4.25 12 4.25C10.7104 4.25 9.49467 4.56667 8.4248 5.12402L8.71387 4.23047C8.84097 3.83633 8.62454 3.41335 8.23047 3.28613ZM9.5 8.75C9.08579 8.75 8.75 9.08579 8.75 9.5V14.5C8.75 14.9142 9.08579 15.25 9.5 15.25C9.91421 15.25 10.25 14.9142 10.25 14.5V9.5C10.25 9.08579 9.91421 8.75 9.5 8.75ZM13 8.75C11.7574 8.75 10.75 9.75736 10.75 11V13C10.75 14.2426 11.7574 15.25 13 15.25C14.2426 15.25 15.25 14.2426 15.25 13V11C15.25 9.75736 14.2426 8.75 13 8.75ZM13 10.25C13.4142 10.25 13.75 10.5858 13.75 11V13C13.75 13.4142 13.4142 13.75 13 13.75C12.5858 13.75 12.25 13.4142 12.25 13V11C12.25 10.5858 12.5858 10.25 13 10.25Z" fill="currentColor" />
</svg>