<svg xmlns="http://www.w3.org/2000/svg" width="24" height="24" viewBox="0 0 24 24" fill="none">
<path opacity={0.32} d="M9.25 1.25C6.44974 1.25 5.04961 1.25 3.98005 1.79497C3.03924 2.27433 2.27433 3.03924 1.79497 3.98005C1.25 5.04961 1.25 6.44974 1.25 9.25V14.75C1.25 17.5503 1.25 18.9504 1.79497 20.02C2.27433 20.9608 3.03924 21.7257 3.98005 22.205C5.04961 22.75 6.44974 22.75 9.25 22.75H14.75C17.5503 22.75 18.9504 22.75 20.02 22.205C20.9608 21.7257 21.7257 20.9608 22.205 20.02C22.75 18.9504 22.75 17.5503 22.75 14.75V9.25C22.75 6.44974 22.75 5.04961 22.205 3.98005C21.7257 3.03924 20.9608 2.27433 20.02 1.79497C18.9504 1.25 17.5503 1.25 14.75 1.25H9.25Z" fill="currentColor" /><path d="M11.3701 3.45125C11.6733 3.10327 12.2008 3.067 12.5488 3.3702C12.8966 3.67343 12.933 4.20099 12.6299 4.54891L12.0918 5.16609C15.8246 5.21535 18.8359 8.25554 18.8359 12.0001C18.8358 15.7752 15.7751 18.8359 12 18.836C8.22482 18.836 5.1642 15.7752 5.16406 12.0001C5.16406 10.5963 5.58826 9.28878 6.31543 8.20223L6.36719 8.13289C6.63722 7.80676 7.11612 7.73211 7.47559 7.97273C7.85855 8.22965 7.96166 8.7486 7.70508 9.13191L7.50977 9.44637C7.08066 10.199 6.83594 11.0701 6.83594 12.0001C6.83607 14.8521 9.14793 17.1641 12 17.1641C14.852 17.164 17.1639 14.852 17.1641 12.0001C17.1641 9.20193 14.9386 6.92519 12.1611 6.83992L12.8262 7.32527C13.1987 7.59759 13.28 8.12062 13.0078 8.49324C12.7356 8.86546 12.2134 8.94659 11.8408 8.67488L9.50684 6.97078C9.31792 6.83278 9.19609 6.62123 9.16992 6.38875C9.14385 6.15612 9.21636 5.92267 9.37012 5.74617L11.3701 3.45125Z" fill="currentColor" />
</svg>