<svg xmlns="http://www.w3.org/2000/svg" width="24" height="24" viewBox="0 0 24 24" fill="none">
<path d="M14.75 1.25C17.55 1.25 18.95 1.25013 20.0195 1.79492C20.9603 2.27429 21.7257 3.03966 22.2051 3.98047C22.7499 5.04998 22.75 6.45005 22.75 9.25V14.75C22.75 17.55 22.7499 18.95 22.2051 20.0195C21.7257 20.9603 20.9603 21.7257 20.0195 22.2051C18.95 22.7499 17.55 22.75 14.75 22.75H9.25C6.45005 22.75 5.04998 22.7499 3.98047 22.2051C3.03966 21.7257 2.27429 20.9603 1.79492 20.0195C1.25013 18.95 1.25 17.55 1.25 14.75V9.25C1.25 6.45005 1.25013 5.04998 1.79492 3.98047C2.27429 3.03966 3.03966 2.27429 3.98047 1.79492C5.04998 1.25013 6.45005 1.25 9.25 1.25H14.75ZM9.53027 7.46973C9.23738 7.17683 8.76262 7.17683 8.46973 7.46973L5.46973 10.4697C5.17687 10.7626 5.17685 11.2374 5.46973 11.5303L8.46973 14.5303L8.52637 14.582C8.82093 14.8223 9.25568 14.8048 9.53027 14.5303C9.80486 14.2557 9.8223 13.8209 9.58203 13.5264L9.53027 13.4697L7.81055 11.75H13.2002C14.0525 11.75 14.6468 11.7503 15.1094 11.7881C15.5632 11.8252 15.824 11.8945 16.0215 11.9951C16.4448 12.2108 16.7892 12.5552 17.0049 12.9785C17.1055 13.176 17.1748 13.4369 17.2119 13.8906C17.2497 14.3532 17.25 14.9475 17.25 15.7998V16C17.25 16.4142 17.5858 16.75 18 16.75C18.4142 16.75 18.75 16.4142 18.75 16V15.7998C18.75 14.9723 18.751 14.3064 18.707 13.7686C18.6624 13.222 18.5671 12.742 18.3408 12.2979C17.9813 11.5923 17.4077 11.0187 16.7021 10.6592C16.258 10.4329 15.7781 10.3376 15.2314 10.293C14.6936 10.249 14.0278 10.25 13.2002 10.25H7.81055L9.53027 8.53027C9.82315 8.23739 9.82313 7.76262 9.53027 7.46973Z" fill="currentColor" />
</svg>