<svg xmlns="http://www.w3.org/2000/svg" width="24" height="24" viewBox="0 0 24 24" fill="none">
<path d="M5.28988 10C5.10128 10.6337 5 11.305 5 12C5 15.866 8.13401 19 12 19C15.866 19 19 15.866 19 12C19 8.13401 15.866 5 12 5C10.0413 5 8.27052 5.80447 7 7.10102L8 4M9.5 9.5V14.5M22 10V9.5C22 7.17029 22 6.00544 21.6194 5.08658C21.1119 3.86144 20.1386 2.88807 18.9134 2.3806C17.9946 2 16.8297 2 14.5 2H10C7.19974 2 5.79961 2 4.73005 2.54497C3.78924 3.02433 3.02433 3.78924 2.54497 4.73005C2 5.79961 2 7.19974 2 10V14C2 16.8003 2 18.2004 2.54497 19.27C3.02433 20.2108 3.78924 20.9757 4.73005 21.455C5.79961 22 7.19974 22 10 22H14.5C16.8297 22 17.9946 22 18.9134 21.6194C20.1386 21.1119 21.1119 20.1386 21.6194 18.9134C22 17.9946 22 16.8297 22 14.5V14M13 14.5C12.1716 14.5 11.5 13.8284 11.5 13V11C11.5 10.1716 12.1716 9.5 13 9.5C13.8284 9.5 14.5 10.1716 14.5 11V13C14.5 13.8284 13.8284 14.5 13 14.5Z" stroke="currentColor" stroke-width={1.5} stroke-linecap="round" stroke-linejoin="round" />
</svg>