<svg xmlns="http://www.w3.org/2000/svg" width="24" height="24" viewBox="0 0 24 24" fill="none">
<path d="M14.75 1.25C17.55 1.25 18.95 1.25013 20.0195 1.79492C20.9603 2.27429 21.7257 3.03966 22.2051 3.98047C22.7499 5.04998 22.75 6.45005 22.75 9.25V14.75C22.75 17.55 22.7499 18.95 22.2051 20.0195C21.7257 20.9603 20.9603 21.7257 20.0195 22.2051C18.95 22.7499 17.55 22.75 14.75 22.75H9.25C6.45005 22.75 5.04998 22.7499 3.98047 22.2051C3.03966 21.7257 2.27429 20.9603 1.79492 20.0195C1.25013 18.95 1.25 17.55 1.25 14.75V9.25C1.25 6.45005 1.25013 5.04998 1.79492 3.98047C2.27429 3.03966 3.03966 2.27429 3.98047 1.79492C5.04998 1.25013 6.45005 1.25 9.25 1.25H14.75ZM13.5303 7.46973C13.2374 7.17683 12.7626 7.17683 12.4697 7.46973L9.46973 10.4697C9.17683 10.7626 9.17683 11.2374 9.46973 11.5303L12.4697 14.5303L12.5264 14.582C12.8209 14.8223 13.2557 14.8049 13.5303 14.5303C13.8049 14.2557 13.8223 13.8209 13.582 13.5264L13.5303 13.4697L11.8105 11.75H14.7998C15.3722 11.75 15.7569 11.7502 16.0527 11.7744C16.3397 11.7979 16.4768 11.8406 16.5674 11.8867C16.8025 12.0065 16.9935 12.1975 17.1133 12.4326C17.1594 12.5232 17.2021 12.6603 17.2256 12.9473C17.2498 13.2431 17.25 13.6278 17.25 14.2002V16C17.25 16.4142 17.5858 16.75 18 16.75C18.4142 16.75 18.75 16.4142 18.75 16V14.2002C18.75 13.6525 18.751 13.1963 18.7207 12.8252C18.6897 12.4455 18.6219 12.0891 18.4502 11.752C18.1865 11.2345 17.7655 10.8135 17.248 10.5498C16.9109 10.3781 16.5545 10.3103 16.1748 10.2793C15.8037 10.249 15.3475 10.25 14.7998 10.25H11.8105L13.5303 8.53027C13.8232 8.23738 13.8232 7.76262 13.5303 7.46973ZM9.53027 7.46973C9.23738 7.17683 8.76262 7.17683 8.46973 7.46973L5.46973 10.4697C5.17683 10.7626 5.17683 11.2374 5.46973 11.5303L8.46973 14.5303L8.52637 14.582C8.82095 14.8223 9.25567 14.8049 9.53027 14.5303C9.80488 14.2557 9.82234 13.8209 9.58203 13.5264L9.53027 13.4697L7.06055 11L9.53027 8.53027C9.82317 8.23738 9.82317 7.76262 9.53027 7.46973Z" fill="currentColor" />
</svg>