<svg xmlns="http://www.w3.org/2000/svg" width="24" height="24" viewBox="0 0 24 24" fill="none">
<path d="M14.75 1.25C17.55 1.25 18.95 1.25013 20.0195 1.79492C20.9603 2.27429 21.7257 3.03966 22.2051 3.98047C22.7499 5.04998 22.75 6.45005 22.75 9.25V14.75C22.75 17.55 22.7499 18.95 22.2051 20.0195C21.7257 20.9603 20.9603 21.7257 20.0195 22.2051C18.95 22.7499 17.55 22.75 14.75 22.75H9.25C6.45005 22.75 5.04998 22.7499 3.98047 22.2051C3.03966 21.7257 2.27429 20.9603 1.79492 20.0195C1.25013 18.95 1.25 17.55 1.25 14.75V9.25C1.25 6.45005 1.25013 5.04998 1.79492 3.98047C2.27429 3.03966 3.03966 2.27429 3.98047 1.79492C5.04998 1.25013 6.45005 1.25 9.25 1.25H14.75ZM12.5488 3.37012C12.2008 3.06692 11.6733 3.10319 11.3701 3.45117L9.37012 5.74609C9.21633 5.9226 9.14385 6.15603 9.16992 6.38867C9.19603 6.62125 9.31784 6.83264 9.50684 6.9707L11.8408 8.6748C12.2134 8.94675 12.7356 8.86552 13.0078 8.49316C13.2801 8.12046 13.1989 7.59746 12.8262 7.3252L12.1611 6.83984C14.9387 6.925 17.1641 9.20177 17.1641 12C17.1641 14.8522 14.8522 17.1641 12 17.1641C9.14785 17.1641 6.83594 14.8522 6.83594 12C6.83594 11.0699 7.08063 10.1989 7.50977 9.44629L7.70508 9.13184C7.96172 8.74843 7.85877 8.22951 7.47559 7.97266C7.11612 7.73203 6.63722 7.80668 6.36719 8.13281L6.31543 8.20215C5.58823 9.28872 5.16406 10.5961 5.16406 12C5.16406 15.7753 8.22473 18.8359 12 18.8359C15.7753 18.8359 18.8359 15.7753 18.8359 12C18.8359 8.25538 15.8247 5.21515 12.0918 5.16602L12.6299 4.54883C12.9331 4.20083 12.8968 3.67332 12.5488 3.37012Z" fill="currentColor" />
</svg>