<svg xmlns="http://www.w3.org/2000/svg" width="24" height="24" viewBox="0 0 24 24" fill="none">
<path d="M6 10.9995L3.92 12.5595C3.216 13.0875 2.864 13.3515 2.61013 13.6861C2.38527 13.9824 2.21749 14.318 2.11534 14.6757C2 15.0795 2 15.5195 2 16.3995L2 19.9995L6 18.9995M18 10.9995L20.08 12.5595C20.784 13.0875 21.136 13.3515 21.3899 13.6861C21.6147 13.9824 21.7825 14.318 21.8847 14.6757C22 15.0795 22 15.5195 22 16.3995L22 19.9995L18 18.9995M12 21.9995L12 18.9995M14 11C14 12.1046 13.1046 13 12 13C10.8954 13 10 12.1046 10 11C10 9.89543 10.8954 9 12 9C13.1046 9 14 9.89543 14 11ZM8.73884 4.01959L8.05179 4.65575C7.2958 5.35574 6.91781 5.70573 6.64691 6.12222C6.40679 6.49137 6.22928 6.89765 6.12155 7.32465C6 7.80638 6 8.32153 6 9.35182L6 16C6 17.8638 6 18.7956 6.30448 19.5307C6.71046 20.5108 7.48915 21.2895 8.46927 21.6955C9.20435 22 10.1362 22 12 22C13.8638 22 14.7956 22 15.5307 21.6955C16.5108 21.2895 17.2895 20.5108 17.6955 19.5307C18 18.7956 18 17.8638 18 16L18 9.35182C18 8.32153 18 7.80638 17.8785 7.32465C17.7707 6.89765 17.5932 6.49137 17.3531 6.12222C17.0822 5.70573 16.7042 5.35574 15.9482 4.65575L15.2612 4.01959C14.1114 2.955 13.5365 2.4227 12.8831 2.22144C12.3077 2.04422 11.6923 2.04422 11.1169 2.22144C10.4635 2.4227 9.8886 2.955 8.73884 4.01959Z" stroke="currentColor" stroke-width={2} stroke-linecap="round" stroke-linejoin="round" />
</svg>