<svg xmlns="http://www.w3.org/2000/svg" width="24" height="24" viewBox="0 0 24 24" fill="none">
<path fill-rule="evenodd" clip-rule="evenodd" d="M16.4306 1.85803C15.5315 1.91055 15.0819 1.93681 14.6606 2.05635C14.2869 2.16238 13.9306 2.32227 13.603 2.531C13.2336 2.76634 12.9152 3.08478 12.2783 3.72166L5.57814 10.4218C5.32312 10.6768 5.19561 10.8043 5.09604 10.9204C3.81952 12.4087 3.80993 14.6028 5.07338 16.1022C5.17193 16.2191 5.29832 16.3477 5.55109 16.605C5.58319 16.6376 5.59924 16.654 5.61381 16.6667C5.80083 16.8297 6.07908 16.8309 6.26752 16.6695C6.2822 16.657 6.29839 16.6408 6.33078 16.6084L8.93915 14C9.23205 13.7071 9.70692 13.7071 9.99981 14C10.2927 14.2929 10.2927 14.7678 9.99981 15.0607L7.39145 17.669C7.35906 17.7014 7.34286 17.7176 7.33028 17.7323C7.16894 17.9208 7.17016 18.199 7.33314 18.386C7.34585 18.4006 7.36218 18.4166 7.39486 18.4488C7.65221 18.7016 7.78088 18.8281 7.89789 18.9267C9.39721 20.19 11.5912 20.1804 13.0794 18.904C13.1956 18.8044 13.3231 18.6768 13.5783 18.4217L20.2978 11.7022C20.9276 11.0723 21.2426 10.7574 21.4763 10.3924C21.6836 10.0687 21.8431 9.71676 21.95 9.3475C22.0705 8.93118 22.0998 8.48677 22.1584 7.59795L22.2028 6.92476C22.3265 5.04994 22.3883 4.11254 22.0544 3.40805C21.7612 2.78946 21.2652 2.28975 20.6488 1.99188C19.9469 1.65266 19.009 1.70744 17.1333 1.81699L16.4306 1.85803ZM17.0024 8.99953C17.0024 10.1041 16.1069 10.9995 15.0024 10.9995C13.8978 10.9995 13.0024 10.1041 13.0024 8.99953C13.0024 7.89496 13.8978 6.99953 15.0024 6.99953C16.1069 6.99953 17.0024 7.89496 17.0024 8.99953Z" fill="currentColor" /><path d="M1.95814 9.154C1.403 8.78252 1.12543 8.59677 1.00713 8.35257C0.903363 8.13837 0.879399 7.89418 0.939544 7.6639C1.00812 7.40135 1.24428 7.16519 1.71661 6.69287L2.22037 6.18913C3.0713 5.33823 3.49676 4.91277 3.99048 4.63975C4.5841 4.31148 5.25145 4.13957 5.92979 4.14018C6.49398 4.14068 7.07204 4.30762 8.22818 4.6415C8.60281 4.74969 8.79013 4.80378 8.88484 4.9066C8.99832 5.02979 9.04259 5.20161 9.00275 5.36429C8.9695 5.50007 8.83163 5.63794 8.5559 5.91367L4.43415 10.0354C4.26868 10.2009 4.18595 10.2836 4.08852 10.3217C4.0026 10.3553 3.90906 10.3645 3.81824 10.3483C3.71526 10.3298 3.61802 10.2647 3.42355 10.1346L1.95814 9.154Z" fill="currentColor" /><path d="M14.3654 20.046C14.2352 19.8516 14.1701 19.7543 14.1517 19.6513C14.1354 19.5605 14.1446 19.467 14.1782 19.381C14.2163 19.2836 14.299 19.2009 14.4645 19.0354L18.5863 14.9136C18.8621 14.6378 19 14.5 19.1358 14.4667C19.2984 14.4269 19.4702 14.4711 19.5933 14.5846C19.6962 14.6793 19.7503 14.8666 19.8586 15.2412C20.1927 16.3978 20.3598 16.976 20.3604 17.5404C20.361 18.2187 20.1892 18.886 19.861 19.4796C19.5879 19.9735 19.1623 20.3992 18.311 21.2504L17.8077 21.7537C17.3354 22.226 17.0993 22.4621 16.8368 22.5307C16.6065 22.5909 16.3623 22.5669 16.1481 22.4631C15.9039 22.3449 15.7182 22.0673 15.3467 21.5123L14.3654 20.046Z" fill="currentColor" />
</svg>