<svg xmlns="http://www.w3.org/2000/svg" width="24" height="24" viewBox="0 0 24 24" fill="none">
<path d="M12.0002 21.9999C10.1365 21.9999 9.20459 21.9999 8.46951 21.6954C7.4894 21.2894 6.7107 20.5107 6.30473 19.5306C6.00024 18.7955 6.00024 17.8636 6.00024 15.9999V9.71327C6.00024 8.32584 6.00024 7.63212 6.21917 6.99789C6.28842 6.79729 6.37352 6.60252 6.47366 6.41542C6.79029 5.82388 7.29932 5.35256 8.31736 4.40993C9.86995 2.97235 10.6462 2.25356 11.569 2.11953C11.855 2.078 12.1455 2.078 12.4314 2.11953C13.2081 2.23233 13.8809 2.75931 15.0001 3.78038M12.0002 21.9999C13.864 21.9999 14.7959 21.9999 15.531 21.6954C16.5111 21.2894 17.2898 20.5107 17.6958 19.5306C18.0002 18.7955 18.0002 17.8636 18.0002 15.9999V9.71327C18.0002 8.32584 18.0002 7.63212 17.7813 6.99789C17.7121 6.79729 17.627 6.60252 17.5268 6.41542C17.4504 6.27268 17.3628 6.13693 17.2595 5.99988M12.0002 21.9999L12.0002 18.9996M6.00024 10.9996L3.92024 12.5596C3.21625 13.0876 2.86425 13.3516 2.61037 13.6862C2.38552 13.9825 2.21773 14.3181 2.11558 14.6758C2.00024 15.0796 2.00024 15.5196 2.00024 16.3996L2.00024 19.9996L4.00024 19.4996M18.0002 10.9996L20.0802 12.5596C20.7842 13.0876 21.1362 13.3516 21.3901 13.6861C21.615 13.9825 21.7828 14.318 21.8849 14.6757C22.0002 15.0796 22.0002 15.5196 22.0002 16.3996V19.9996L18.0002 18.9996V10.9996ZM14.0002 11.0001C14.0002 12.1046 13.1048 13.0001 12.0002 13.0001C10.8957 13.0001 10.0002 12.1046 10.0002 11.0001C10.0002 9.89549 10.8957 9.00006 12.0002 9.00006C13.1048 9.00006 14.0002 9.89549 14.0002 11.0001Z" stroke="currentColor" stroke-width={2} stroke-linecap="round" stroke-linejoin="round" />
</svg>