<svg xmlns="http://www.w3.org/2000/svg" width="24" height="24" viewBox="0 0 24 24" fill="none">
<g clipPath="url(#clip0_48_4045)"><path d="M3.16403 20.5775C2.50801 20.7087 2.18001 20.7743 1.92331 20.6855C1.69815 20.6076 1.5082 20.4519 1.38767 20.2464C1.25024 20.0121 1.25024 19.6776 1.25024 19.0086L1.25024 16.7574C1.25025 15.7331 1.25025 15.221 1.36683 14.7487C1.51968 14.1295 1.81837 13.5559 2.23799 13.0756C2.55803 12.7093 2.97761 12.4156 3.81678 11.8283C4.15824 11.5893 4.32896 11.4698 4.46975 11.4612C4.65422 11.45 4.82983 11.5414 4.92641 11.699C5.00012 11.8192 5.00012 12.0276 5.00012 12.4444V19.5544C5.00012 19.7881 5.00012 19.9049 4.95828 20.0006C4.92138 20.085 4.86187 20.1576 4.78632 20.2104C4.70064 20.2702 4.5861 20.2931 4.35701 20.3389L3.16403 20.5775Z" fill="currentColor" /><path d="M20.1835 11.8282C21.0228 12.4156 21.4424 12.7093 21.7625 13.0757C22.1821 13.5559 22.4808 14.1296 22.6336 14.7487C22.7502 15.221 22.7502 15.7332 22.7502 16.7576V19.0086C22.7502 19.6776 22.7502 20.0121 22.6128 20.2464C22.4923 20.4519 22.3023 20.6076 22.0772 20.6855C21.8205 20.7743 21.4925 20.7087 20.8365 20.5775L19.6432 20.3389C19.4141 20.293 19.2996 20.2701 19.2139 20.2103C19.1384 20.1576 19.0789 20.085 19.042 20.0006C19.0001 19.9048 19.0001 19.788 19.0001 19.5544V12.4444C19.0001 12.0276 19.0001 11.8192 19.0738 11.6989C19.1704 11.5414 19.346 11.45 19.5305 11.4612C19.6713 11.4697 19.842 11.5892 20.1835 11.8282Z" fill="currentColor" /><path fill-rule="evenodd" clip-rule="evenodd" d="M8.03317 3.95955C9.42129 2.56638 10.1153 1.86979 10.9162 1.60893C11.6207 1.37948 12.3798 1.37949 13.0842 1.60895C13.8851 1.86983 14.5791 2.56643 15.9672 3.95963L16.1339 4.12692C16.8227 4.81825 17.1671 5.16392 17.4134 5.56695C17.6317 5.92427 17.7926 6.31367 17.8901 6.72091C18.0001 7.18023 18.0001 7.66818 18.0001 8.64408V9.62467V18.5502C18.0001 18.7359 18.0001 18.8287 17.997 18.9072C17.9151 20.993 16.243 22.6651 14.1572 22.7471C14.0787 22.7502 13.9858 22.7502 13.8001 22.7502H13.5002C13.0859 22.7502 12.7501 22.4144 12.7501 22.0001V19.75C12.7501 19.3358 12.4143 19 12.0001 19C11.5859 19 11.2501 19.3358 11.2501 19.75V22.0001C11.2501 22.4144 10.9143 22.7502 10.5001 22.7502H10.2001C10.0144 22.7502 9.92157 22.7502 9.84308 22.7471C7.75727 22.6651 6.08516 20.993 6.00321 18.9072C6.00012 18.8287 6.00012 18.7359 6.00012 18.5502L6.00012 8.64416C6.00012 7.66823 6.00012 7.18027 6.11013 6.72094C6.20767 6.31369 6.36855 5.92428 6.58691 5.56694C6.83318 5.16391 7.1776 4.81824 7.86642 4.1269L8.03317 3.95955ZM12.0001 11C13.1047 11 14.0001 10.1046 14.0001 9C14.0001 7.89543 13.1047 7 12.0001 7C10.8956 7 10.0001 7.89543 10.0001 9C10.0001 10.1046 10.8956 11 12.0001 11Z" fill="currentColor" /></g><defs><clipPath id="clip0_48_4045"><rect width={24} height={24} fill="white" /></clipPath></defs>
</svg>