<svg xmlns="http://www.w3.org/2000/svg" width="24" height="24" viewBox="0 0 24 24" fill="none">
<path d="M18.5 13.5003L18.9965 15.9809C19.1809 16.902 19.2731 17.3625 19.2298 17.806C19.1915 18.1986 19.0761 18.5797 18.8903 18.9277C18.6804 19.3207 18.3482 19.6528 17.684 20.3171L16.0008 22.0003L13.5008 18.5003M9.22387 18.9276C10.343 19.4822 11.657 19.4822 12.7761 18.9275C13.3643 18.636 13.9095 18.0908 15 17.0002L19.9867 12.0131C20.8149 11.1848 21.229 10.7707 21.5029 10.2735C21.6455 10.0145 21.759 9.74051 21.8412 9.45652C21.9992 8.91132 21.9992 8.32562 21.9992 7.15421C21.9992 5.13916 21.9992 4.13164 21.5348 3.39726C21.297 3.02113 20.9785 2.70262 20.6024 2.46481C19.868 2.00049 18.8605 2.00049 16.8456 2.00049C15.6742 2.00049 15.0885 2.00049 14.5433 2.15839C14.2592 2.24068 13.9851 2.35422 13.7261 2.49693C13.2289 2.7708 12.8148 3.18496 11.9865 4.01328L6.9997 9.00049C5.90928 10.091 5.36407 10.6362 5.07262 11.2244C4.51811 12.3435 4.51813 13.6574 5.07269 14.7765C5.20699 15.0475 5.39517 15.3094 5.66574 15.6197C6.07771 16.0922 6.2837 16.3284 6.56532 16.4351C6.80231 16.5248 7.09506 16.5348 7.33763 16.4615C7.62587 16.3743 7.86975 16.1304 8.3575 15.6427L9.5 14.5002M10.5 5.50049L8.64922 5.13031C7.10785 4.82201 6.33717 4.66787 5.61715 4.88586C4.89714 5.10385 4.34138 5.65959 3.22987 6.77107L2.00049 8.00042L3.40045 9.00043M17.0024 9C17.0024 10.1046 16.107 11 15.0024 11C13.8979 11 13.0024 10.1046 13.0024 9C13.0024 7.89543 13.8979 7 15.0024 7C16.107 7 17.0024 7.89543 17.0024 9Z" stroke="currentColor" stroke-width={2} stroke-linecap="round" stroke-linejoin="round" />
</svg>