<svg xmlns="http://www.w3.org/2000/svg" width="24" height="24" viewBox="0 0 24 24" fill="none">
<path d="M14.75 1.25C17.55 1.25 18.95 1.25013 20.0195 1.79492C20.9603 2.27429 21.7257 3.03966 22.2051 3.98047C22.7499 5.04998 22.75 6.45005 22.75 9.25V14.75C22.75 17.55 22.7499 18.95 22.2051 20.0195C21.7257 20.9603 20.9603 21.7257 20.0195 22.2051C18.95 22.7499 17.55 22.75 14.75 22.75H9.25C6.45005 22.75 5.04998 22.7499 3.98047 22.2051C3.03966 21.7257 2.27429 20.9603 1.79492 20.0195C1.25013 18.95 1.25 17.55 1.25 14.75V9.25C1.25 6.45005 1.25013 5.04998 1.79492 3.98047C2.27429 3.03966 3.03966 2.27429 3.98047 1.79492C5.04998 1.25013 6.45005 1.25 9.25 1.25H14.75ZM12 5.25C9.79534 5.25 8.23023 6.08174 7.21973 6.92383C7.19614 6.94349 7.17337 6.96375 7.15039 6.9834V6.5C7.15039 6.08592 6.81442 5.75021 6.40039 5.75C5.98618 5.75 5.65039 6.08579 5.65039 6.5V9C5.65039 9.41421 5.98618 9.75 6.40039 9.75H8.5C8.91421 9.75 9.25 9.41421 9.25 9C9.25 8.58579 8.91421 8.25 8.5 8.25H7.98438C8.04671 8.19299 8.11069 8.13368 8.17969 8.07617C8.96918 7.41826 10.2047 6.75 12 6.75C14.9175 6.75 17.25 9.0989 17.25 12C17.25 14.8995 14.8995 17.25 12 17.25C9.1005 17.25 6.75 14.8995 6.75 12C6.75 11.5858 6.41421 11.25 6 11.25C5.58579 11.25 5.25 11.5858 5.25 12C5.25 15.7279 8.27208 18.75 12 18.75C15.7279 18.75 18.75 15.7279 18.75 12C18.75 8.27368 15.7491 5.25 12 5.25Z" fill="currentColor" />
</svg>