<svg xmlns="http://www.w3.org/2000/svg" width="24" height="24" viewBox="0 0 24 24" fill="none">
<path d="M14.75 1.25C17.55 1.25 18.95 1.25013 20.0195 1.79492C20.9603 2.27429 21.7257 3.03966 22.2051 3.98047C22.7499 5.04998 22.75 6.45005 22.75 9.25V14.75C22.75 17.55 22.7499 18.95 22.2051 20.0195C21.7257 20.9603 20.9603 21.7257 20.0195 22.2051C18.95 22.7499 17.55 22.75 14.75 22.75H9.25C6.45005 22.75 5.04998 22.7499 3.98047 22.2051C3.03966 21.7257 2.27429 20.9603 1.79492 20.0195C1.25013 18.95 1.25 17.55 1.25 14.75V9.25C1.25 6.45005 1.25013 5.04998 1.79492 3.98047C2.27429 3.03966 3.03966 2.27429 3.98047 1.79492C5.04998 1.25013 6.45005 1.25 9.25 1.25H14.75ZM12 5.25C8.25085 5.25 5.25 8.27368 5.25 12C5.25 15.7279 8.27208 18.75 12 18.75C15.7279 18.75 18.75 15.7279 18.75 12C18.75 11.5858 18.4142 11.25 18 11.25C17.5858 11.25 17.25 11.5858 17.25 12C17.25 14.8995 14.8995 17.25 12 17.25C9.10051 17.25 6.75 14.8995 6.75 12C6.75 9.0989 9.08248 6.75 12 6.75C13.7953 6.75 15.0308 7.41826 15.8203 8.07617C15.8893 8.13368 15.9533 8.19299 16.0156 8.25H15.5C15.0858 8.25 14.75 8.58579 14.75 9C14.75 9.41421 15.0858 9.75 15.5 9.75H17.5996C18.0138 9.75 18.3496 9.41421 18.3496 9V6.5C18.3496 6.08579 18.0138 5.75 17.5996 5.75C17.1856 5.75021 16.8496 6.08592 16.8496 6.5V6.9834C16.8266 6.96375 16.8039 6.94349 16.7803 6.92383C15.7698 6.08174 14.2047 5.25 12 5.25Z" fill="currentColor" />
</svg>