<svg xmlns="http://www.w3.org/2000/svg" width="24" height="24" viewBox="0 0 24 24" fill="none">
<path d="M8.96973 1.96967C9.26262 1.67678 9.73738 1.67678 10.0303 1.96967L12.5303 4.46967C12.8232 4.76256 12.8232 5.23732 12.5303 5.53022L10.0303 8.03022C9.73738 8.32311 9.26262 8.32311 8.96973 8.03022C8.67683 7.73732 8.67683 7.26256 8.96973 6.96967L10.1895 5.74994H6.5C4.98122 5.74994 3.75 6.98116 3.75 8.49994C3.75 10.0187 4.98122 11.2499 6.5 11.2499H16.5C18.8472 11.2499 20.75 13.1527 20.75 15.4999C20.75 17.8472 18.8472 19.7499 16.5 19.7499H8C7.96717 19.7499 7.93504 19.7462 7.90332 19.7421C7.57266 21.0395 6.40033 21.9999 5 21.9999C3.34315 21.9999 2 20.6568 2 18.9999C2 17.3431 3.34315 15.9999 5 15.9999C6.4 15.9999 7.57234 16.9599 7.90332 18.2568C7.935 18.2527 7.96721 18.2499 8 18.2499H16.5C18.0188 18.2499 19.25 17.0187 19.25 15.4999C19.25 13.9812 18.0188 12.7499 16.5 12.7499H6.5C4.15279 12.7499 2.25 10.8472 2.25 8.49994C2.25 6.15273 4.15279 4.24994 6.5 4.24994H10.1895L8.96973 3.03022L8.91797 2.97358C8.67766 2.67899 8.69512 2.24427 8.96973 1.96967ZM18 1.99994C19.6569 1.99994 21 3.34309 21 4.99994C21 6.6568 19.6569 7.99994 18 7.99994C16.3431 7.99994 15 6.6568 15 4.99994C15 3.34309 16.3431 1.99994 18 1.99994Z" fill="currentColor" />
</svg>