<svg xmlns="http://www.w3.org/2000/svg" width="24" height="24" viewBox="0 0 24 24" fill="none">
<path opacity={0.32} d="M8.96973 1.96967C9.26262 1.67678 9.73738 1.67678 10.0303 1.96967L12.5303 4.46967C12.8232 4.76256 12.8232 5.23732 12.5303 5.53022L10.0303 8.03022C9.73738 8.32311 9.26262 8.32311 8.96973 8.03022C8.67683 7.73732 8.67683 7.26256 8.96973 6.96967L10.1895 5.74994H6.5C4.98122 5.74994 3.75 6.98116 3.75 8.49994C3.75 10.0187 4.98122 11.2499 6.5 11.2499H16.5C18.8472 11.2499 20.75 13.1527 20.75 15.4999C20.75 17.8472 18.8472 19.7499 16.5 19.7499H8C7.58579 19.7499 7.25 19.4142 7.25 18.9999C7.25 18.5857 7.58579 18.2499 8 18.2499H16.5C18.0188 18.2499 19.25 17.0187 19.25 15.4999C19.25 13.9812 18.0188 12.7499 16.5 12.7499H6.5C4.15279 12.7499 2.25 10.8472 2.25 8.49994C2.25 6.15273 4.15279 4.24994 6.5 4.24994H10.1895L8.96973 3.03022L8.91797 2.97358C8.67766 2.67899 8.69512 2.24427 8.96973 1.96967Z" fill="currentColor" /><path d="M21 5C21 6.65685 19.6569 8 18 8C16.3431 8 15 6.65685 15 5C15 3.34315 16.3431 2 18 2C19.6569 2 21 3.34315 21 5Z" fill="currentColor" /><path d="M8 19C8 20.6569 6.65685 22 5 22C3.34315 22 2 20.6569 2 19C2 17.3431 3.34315 16 5 16C6.65685 16 8 17.3431 8 19Z" fill="currentColor" />
</svg>