<svg xmlns="http://www.w3.org/2000/svg" width="24" height="24" viewBox="0 0 24 24" fill="none">
<path d="M14.4188 1.56042C15.1217 1.3321 15.879 1.33205 16.5819 1.56042C17.381 1.82011 18.0739 2.51335 19.4598 3.89929L20.1014 4.53992C21.4875 5.92598 22.1797 6.61967 22.4393 7.41882C22.6677 8.12176 22.6677 8.87898 22.4393 9.58191C22.2693 10.105 21.9129 10.5818 21.2987 11.2382L17.0302 6.9696C16.7372 6.67698 16.2624 6.67683 15.9696 6.9696C15.6951 7.24412 15.6778 7.67893 15.9178 7.97351L15.9696 8.03015L20.2489 12.3094C20.2002 12.3582 20.152 12.4093 20.1014 12.4598L18.3104 14.2499L15.5302 11.4696L15.4735 11.4178C15.1789 11.1778 14.7441 11.1951 14.4696 11.4696C14.1951 11.7441 14.1778 12.1789 14.4178 12.4735L14.4696 12.5302L17.2499 15.3104L15.3104 17.2499L11.0302 12.9696L10.9735 12.9178C10.6789 12.6778 10.2441 12.6951 9.9696 12.9696C9.69509 13.2441 9.67778 13.6789 9.91785 13.9735L9.9696 14.0302L14.2499 18.3104L12.4598 20.1014C12.4093 20.152 12.3582 20.2002 12.3094 20.2489L9.53015 17.4696L9.47351 17.4178C9.17895 17.1778 8.74412 17.1951 8.4696 17.4696C8.1768 17.7624 8.17697 18.2372 8.4696 18.5302L11.2382 21.2987C10.5818 21.9129 10.105 22.2693 9.58191 22.4393C8.87898 22.6677 8.12176 22.6677 7.41882 22.4393C6.61967 22.1797 5.92598 21.4875 4.53992 20.1014L3.89929 19.4598C2.51335 18.0739 1.82011 17.381 1.56042 16.5819C1.33205 15.879 1.3321 15.1217 1.56042 14.4188C1.82008 13.6197 2.51323 12.926 3.89929 11.5399L11.5399 3.89929C12.926 2.51323 13.6197 1.82008 14.4188 1.56042Z" fill="currentColor" />
</svg>