<svg xmlns="http://www.w3.org/2000/svg" width="24" height="24" viewBox="0 0 24 24" fill="none">
<path d="M10.75 5.25C13.55 5.25 14.95 5.25013 16.0195 5.79492C16.2636 5.91928 16.4964 6.06275 16.7148 6.22363L10.75 12.1895V9C10.75 8.58579 10.4142 8.25 10 8.25C9.58579 8.25 9.25 8.58579 9.25 9V14C9.25 14.4142 9.58579 14.75 10 14.75H15C15.4142 14.75 15.75 14.4142 15.75 14C15.75 13.5858 15.4142 13.25 15 13.25H11.8105L17.7754 7.28418C17.9366 7.50298 18.0805 7.73599 18.2051 7.98047C18.7499 9.04998 18.75 10.45 18.75 13.25V14.75C18.75 17.55 18.7499 18.95 18.2051 20.0195C17.7257 20.9603 16.9603 21.7257 16.0195 22.2051C14.95 22.7499 13.55 22.75 10.75 22.75H9.25C6.45005 22.75 5.04998 22.7499 3.98047 22.2051C3.03966 21.7257 2.27429 20.9603 1.79492 20.0195C1.25013 18.95 1.25 17.55 1.25 14.75V13.25C1.25 10.45 1.25013 9.04998 1.79492 7.98047C2.27429 7.03966 3.03966 6.27429 3.98047 5.79492C5.04998 5.25013 6.45005 5.25 9.25 5.25H10.75ZM22 1.25C22.4142 1.25 22.75 1.58579 22.75 2V7C22.75 7.41421 22.4142 7.75 22 7.75C21.5858 7.75 21.25 7.41421 21.25 7V3.81055L17.7754 7.28418C17.4772 6.87943 17.1197 6.52174 16.7148 6.22363L20.1895 2.75H17C16.5858 2.75 16.25 2.41421 16.25 2C16.25 1.58579 16.5858 1.25 17 1.25H22Z" fill="currentColor" />
</svg>