<svg xmlns="http://www.w3.org/2000/svg" width="24" height="24" viewBox="0 0 24 24" fill="none">
<path d="M11 2H10.5H9.5C7.17029 2 6.00544 2 5.08658 2.3806C3.86144 2.88807 2.88807 3.86144 2.3806 5.08658C2 6.00544 2 7.17029 2 9.5V10M22 13V13.5V14C22 16.8003 22 18.2004 21.455 19.27C20.9757 20.2108 20.2108 20.9757 19.27 21.455C18.2004 22 16.8003 22 14 22H9.5C7.17029 22 6.00544 22 5.08658 21.6194C3.86144 21.1119 2.88807 20.1386 2.3806 18.9134C2 17.9946 2 16.8297 2 14.5V14M22 2H17M22 2V7M22 2L17.5 6.5M10 14V9M10 14H15M10 14L14.5 9.5" stroke="currentColor" stroke-width={1.5} stroke-linecap="round" stroke-linejoin="round" />
</svg>