<svg xmlns="http://www.w3.org/2000/svg" width="24" height="24" viewBox="0 0 24 24" fill="none">
<path opacity={0.32} d="M9.25 1.25C6.44974 1.25 5.04961 1.25 3.98005 1.79497C3.03924 2.27433 2.27433 3.03924 1.79497 3.98005C1.25 5.04961 1.25 6.44974 1.25 9.25V14.75C1.25 17.5503 1.25 18.9504 1.79497 20.02C2.27433 20.9608 3.03924 21.7257 3.98005 22.205C5.04961 22.75 6.44974 22.75 9.25 22.75H14.75C17.5503 22.75 18.9504 22.75 20.02 22.205C20.9608 21.7257 21.7257 20.9608 22.205 20.02C22.75 18.9504 22.75 17.5503 22.75 14.75V9.25C22.75 6.44974 22.75 5.04961 22.205 3.98005C21.7257 3.03924 20.9608 2.27433 20.02 1.79497C18.9504 1.25 17.5503 1.25 14.75 1.25H9.25Z" fill="currentColor" /><path d="M6.00008 14.25C6.41426 14.25 6.75003 14.5858 6.75008 15V15.2998L6.75887 16.0302C6.76561 16.184 6.77715 16.2684 6.79695 16.3388C6.915 16.7574 7.24269 17.085 7.66121 17.2031C7.80241 17.2428 7.99916 17.25 8.70027 17.25H9.79988C10.2141 17.25 10.5498 17.5858 10.5499 18C10.5499 18.4142 10.2141 18.75 9.79988 18.75H8.70027C8.10015 18.75 7.64517 18.7567 7.25399 18.6464C6.33317 18.3867 5.6133 17.6669 5.3536 16.7461C5.27096 16.4528 5.25424 16.1238 5.25106 15.7246L5.25008 15.2998V15C5.25013 14.5858 5.58594 14.25 6.00008 14.25ZM18.0001 14.25C18.4143 14.25 18.75 14.5858 18.7501 15V15.2998C18.7501 15.8999 18.7568 16.3549 18.6466 16.7461C18.3868 17.6669 17.6671 18.3867 16.7462 18.6464C16.355 18.7567 15.9 18.75 15.2999 18.75H14.0001C13.5859 18.7499 13.2501 18.4141 13.2501 18C13.2501 17.5858 13.5859 17.25 14.0001 17.25H15.2999C16.001 17.25 16.1977 17.2428 16.3389 17.2031C16.7575 17.085 17.0852 16.7574 17.2032 16.3388C17.2429 16.1976 17.2501 16.0009 17.2501 15.2998V15C17.2501 14.5858 17.5859 14.25 18.0001 14.25ZM18.0001 11.25C18.4143 11.25 18.75 11.5858 18.7501 12C18.7501 12.4142 18.4143 12.75 18.0001 12.75H6.00008C5.58591 12.7499 5.25008 12.4141 5.25008 12C5.25013 11.5858 5.58594 11.25 6.00008 11.25H18.0001ZM10.0001 5.24996C10.4143 5.24996 10.75 5.58579 10.7501 5.99996C10.7501 6.41417 10.4143 6.74996 10.0001 6.74996H8.70027C7.99916 6.74996 7.80241 6.7571 7.66121 6.79683C7.24268 6.91489 6.91502 7.24256 6.79695 7.66109C6.75723 7.80229 6.75008 7.99905 6.75008 8.70015V8.99996C6.75008 9.41417 6.41429 9.74996 6.00008 9.74996C5.58591 9.74991 5.25008 9.41414 5.25008 8.99996V8.70015C5.25008 8.10004 5.24334 7.64504 5.3536 7.25386C5.61332 6.33305 6.33317 5.6132 7.25399 5.35347C7.64517 5.24321 8.10015 5.24996 8.70027 5.24996H10.0001ZM15.2999 5.24996C15.9 5.24996 16.355 5.24324 16.7462 5.35347C17.667 5.61318 18.3868 6.33304 18.6466 7.25386C18.7568 7.64504 18.7501 8.10003 18.7501 8.70015V8.99996C18.7501 9.41417 18.4143 9.74996 18.0001 9.74996C17.5859 9.7499 17.2501 9.41414 17.2501 8.99996V8.70015C17.2501 7.99904 17.2429 7.80229 17.2032 7.66109C17.0851 7.24256 16.7575 6.91488 16.3389 6.79683C16.1977 6.75713 16.0009 6.74996 15.2999 6.74996H14.0001C13.5859 6.74991 13.2501 6.41414 13.2501 5.99996C13.2501 5.58582 13.5859 5.25001 14.0001 5.24996H15.2999Z" fill="currentColor" />
</svg>