<svg xmlns="http://www.w3.org/2000/svg" width="24" height="24" viewBox="0 0 24 24" fill="none">
<path d="M14.75 1.25C17.55 1.25 18.95 1.25013 20.0195 1.79492C20.9603 2.27429 21.7257 3.03966 22.2051 3.98047C22.7499 5.04998 22.75 6.45005 22.75 9.25V14.75C22.75 17.55 22.7499 18.95 22.2051 20.0195C21.7257 20.9603 20.9603 21.7257 20.0195 22.2051C18.95 22.7499 17.55 22.75 14.75 22.75H9.25C6.45005 22.75 5.04998 22.7499 3.98047 22.2051C3.03966 21.7257 2.27429 20.9603 1.79492 20.0195C1.25013 18.95 1.25 17.55 1.25 14.75V9.25C1.25 6.45005 1.25013 5.04998 1.79492 3.98047C2.27429 3.03966 3.03966 2.27429 3.98047 1.79492C5.04998 1.25013 6.45005 1.25 9.25 1.25H14.75ZM6 14.25C5.5858 14.25 5.25 14.5858 5.25 15V15.2998L5.25098 15.7246C5.25416 16.1238 5.27085 16.4528 5.35352 16.7461C5.61323 17.667 6.33305 18.3868 7.25391 18.6465C7.6451 18.7568 8.10005 18.75 8.7002 18.75H9.7998C10.214 18.75 10.5498 18.4142 10.5498 18C10.5498 17.5858 10.214 17.25 9.7998 17.25H8.7002C7.99903 17.25 7.80234 17.2429 7.66113 17.2031C7.24257 17.0851 6.91493 16.7574 6.79688 16.3389C6.77705 16.2684 6.76553 16.1841 6.75879 16.0303L6.75 15.2998V15C6.75 14.5858 6.41421 14.25 6 14.25ZM18 14.25C17.5858 14.25 17.25 14.5858 17.25 15V15.2998C17.25 16.001 17.2429 16.1977 17.2031 16.3389C17.0851 16.7574 16.7574 17.0851 16.3389 17.2031C16.1977 17.2428 16.0009 17.25 15.2998 17.25H14C13.5858 17.25 13.25 17.5858 13.25 18C13.25 18.4142 13.5858 18.75 14 18.75H15.2998C15.8999 18.75 16.3549 18.7567 16.7461 18.6465C17.667 18.3868 18.3868 17.667 18.6465 16.7461C18.7568 16.3549 18.75 15.9 18.75 15.2998V15C18.75 14.5858 18.4142 14.25 18 14.25ZM6 11.25C5.5858 11.25 5.25 11.5858 5.25 12C5.25 12.4142 5.5858 12.75 6 12.75H18C18.4142 12.75 18.75 12.4142 18.75 12C18.75 11.5858 18.4142 11.25 18 11.25H6ZM8.7002 5.25C8.10005 5.25 7.6451 5.24325 7.25391 5.35352C6.33305 5.61324 5.61323 6.33305 5.35352 7.25391C5.24325 7.6451 5.25 8.10004 5.25 8.7002V9C5.25 9.4142 5.5858 9.74998 6 9.75C6.41421 9.75 6.75 9.41421 6.75 9V8.7002C6.75 7.99903 6.75715 7.80234 6.79688 7.66113C6.91493 7.24257 7.24257 6.91494 7.66113 6.79688C7.80234 6.75715 7.99903 6.75 8.7002 6.75H10C10.4142 6.75 10.75 6.41421 10.75 6C10.75 5.58579 10.4142 5.25 10 5.25H8.7002ZM14 5.25C13.5858 5.25002 13.25 5.5858 13.25 6C13.25 6.4142 13.5858 6.74998 14 6.75H15.2998C16.0009 6.75 16.1977 6.75716 16.3389 6.79688C16.7574 6.91493 17.0851 7.24256 17.2031 7.66113C17.2429 7.80234 17.25 7.999 17.25 8.7002V9C17.25 9.4142 17.5858 9.74997 18 9.75C18.4142 9.75 18.75 9.41421 18.75 9V8.7002C18.75 8.10003 18.7568 7.6451 18.6465 7.25391C18.3868 6.33303 17.667 5.61323 16.7461 5.35352C16.3549 5.24326 15.8999 5.25 15.2998 5.25H14Z" fill="currentColor" />
</svg>