<svg xmlns="http://www.w3.org/2000/svg" width="24" height="24" viewBox="0 0 24 24" fill="none">
<path d="M9.5 2L9 2C8.07116 2 7.60674 2 7.21684 2.05133C4.52444 2.40579 2.40579 4.52444 2.05133 7.21684C2 7.60674 2 8.07116 2 9L2 12.4C2 15.7603 2 17.4405 2.65396 18.7239C3.2292 19.8529 4.14709 20.7708 5.27606 21.346C6.55953 22 8.23969 22 11.6 22H12.4C15.7603 22 17.4405 22 18.7239 21.346C19.8529 20.7708 20.7708 19.8529 21.346 18.7239C22 17.4405 22 15.7603 22 12.4V9C22 8.07116 22 7.60674 21.9487 7.21684C21.5942 4.52444 19.4756 2.40579 16.7832 2.05133C16.3933 2 15.9288 2 15 2L14.5 2M6 9V8.7C6 8.0489 6 7.72336 6.0751 7.45711C6.26398 6.78738 6.78739 6.26398 7.45712 6.07509C7.72337 6 8.04891 6 8.70001 6H9.7H10M14 6H14.3H15.3C15.9511 6 16.2766 6 16.5429 6.07509C17.2126 6.26397 17.736 6.78739 17.9249 7.45712C18 7.72337 18 8.04891 18 8.7V9M18 15V15.3C18 15.9511 18 16.2766 17.9249 16.5429C17.736 17.2126 17.2126 17.736 16.5429 17.9249C16.2766 18 15.9511 18 15.3 18H14.3H14M9.8 18H9.5H8.70001C8.04891 18 7.72337 18 7.45712 17.9249C6.78739 17.736 6.26398 17.2126 6.0751 16.5429C6 16.2766 6 15.9511 6 15.3V15M6 12H18" stroke="currentColor" stroke-width={1.5} stroke-linecap="round" stroke-linejoin="round" />
</svg>