<svg xmlns="http://www.w3.org/2000/svg" width="24" height="24" viewBox="0 0 24 24" fill="none">
<path d="M4 15C4.55227 15 4.99998 15.4477 5 16V21C5 21.5523 4.55228 22 4 22C3.44772 22 3 21.5523 3 21V16C3.00002 15.4477 3.44773 15 4 15ZM9 15C9.55229 15 10 15.4477 10 16V21C10 21.5523 9.55229 22 9 22H8C7.44772 22 7 21.5523 7 21V16C7 15.4477 7.44772 15 8 15H9ZM12.5 15C12.7761 15 13 15.2239 13 15.5V21.5C13 21.7761 12.7761 22 12.5 22C12.2239 22 12 21.7761 12 21.5V15.5C12 15.2239 12.2239 15 12.5 15ZM16 15C16.5523 15 17 15.4477 17 16V21C17 21.5523 16.5523 22 16 22H15C14.4477 22 14 21.5523 14 21V16C14 15.4477 14.4477 15 15 15H16ZM20 15C20.5523 15 21 15.4477 21 16V21C21 21.5523 20.5523 22 20 22C19.4477 22 19 21.5523 19 21V16C19 15.4477 19.4477 15 20 15ZM9 2C9.55229 2 10 2.44772 10 3V11.25H12V2.5C12 2.22386 12.2239 2 12.5 2C12.7761 2 13 2.22386 13 2.5V11.25H14.0332C14.0126 11.17 14 11.0865 14 11V3C14 2.44772 14.4477 2 15 2H16C16.5523 2 17 2.44772 17 3V11C17 11.0865 16.9874 11.17 16.9668 11.25H19.0332C19.0126 11.17 19 11.0865 19 11V3C19 2.44772 19.4477 2 20 2C20.5523 2 21 2.44772 21 3V11C21 11.0865 20.9874 11.17 20.9668 11.25H22C22.4142 11.25 22.75 11.5858 22.75 12C22.75 12.4142 22.4142 12.75 22 12.75H2C1.58579 12.75 1.25 12.4142 1.25 12C1.25002 11.5858 1.5858 11.25 2 11.25H3.0332C3.01257 11.17 3 11.0865 3 11V3C3.00002 2.44773 3.44773 2 4 2C4.55227 2 4.99998 2.44773 5 3V11C5 11.0865 4.98743 11.17 4.9668 11.25H7V3C7 2.44772 7.44772 2 8 2H9Z" fill="currentColor" />
</svg>