<svg xmlns="http://www.w3.org/2000/svg" width="24" height="24" viewBox="0 0 24 24" fill="none">
<path d="M14.75 1.25C17.55 1.25 18.95 1.25013 20.0195 1.79492C20.9603 2.27429 21.7257 3.03966 22.2051 3.98047C22.7499 5.04998 22.75 6.45005 22.75 9.25V14.75C22.75 17.55 22.7499 18.95 22.2051 20.0195C21.7257 20.9603 20.9603 21.7257 20.0195 22.2051C18.95 22.7499 17.55 22.75 14.75 22.75H9.25C6.45005 22.75 5.04998 22.7499 3.98047 22.2051C3.03966 21.7257 2.27429 20.9603 1.79492 20.0195C1.25013 18.95 1.25 17.55 1.25 14.75V9.25C1.25 6.45005 1.25013 5.04998 1.79492 3.98047C2.27429 3.03966 3.03966 2.27429 3.98047 1.79492C5.04998 1.25013 6.45005 1.25 9.25 1.25H14.75ZM13.1475 6.26465C12.7414 6.18345 12.3461 6.44663 12.2646 6.85254L10.2646 16.8525C10.1834 17.2586 10.4466 17.6539 10.8525 17.7354C11.2586 17.8166 11.6539 17.5534 11.7354 17.1475L13.7354 7.14746C13.8165 6.74144 13.5534 6.34605 13.1475 6.26465ZM15.9736 8.91797C15.6791 8.67764 15.2443 8.69515 14.9697 8.96973C14.6951 9.24434 14.6776 9.67906 14.918 9.97363L14.9697 10.0303L16.9395 12L14.9697 13.9697C14.6768 14.2626 14.6769 14.7374 14.9697 15.0303C15.2626 15.3232 15.7374 15.3232 16.0303 15.0303L18.5303 12.5303C18.8231 12.2374 18.8231 11.7626 18.5303 11.4697L16.0303 8.96973L15.9736 8.91797ZM9.03027 8.96973C8.73739 8.67689 8.26261 8.67689 7.96973 8.96973L5.46973 11.4697C5.32911 11.6103 5.25003 11.8011 5.25 12C5.25 12.1989 5.32912 12.3896 5.46973 12.5303L7.96973 15.0303L8.02637 15.082C8.32095 15.3223 8.75567 15.3049 9.03027 15.0303C9.30483 14.7557 9.32233 14.3209 9.08203 14.0264L9.03027 13.9697L7.06055 12L9.03027 10.0303C9.32312 9.73738 9.32315 9.2626 9.03027 8.96973Z" fill="currentColor" />
</svg>