<svg xmlns="http://www.w3.org/2000/svg" width="40" height="40" viewBox="0 0 40 40" fill="none">
<path d="M30.7825 30.7829C31.2705 30.295 32.0619 30.2951 32.55 30.7829L35.884 34.1169L35.97 34.2116C36.3701 34.7025 36.3414 35.4269 35.884 35.8845C35.4265 36.342 34.7021 36.3706 34.2112 35.9704L34.1165 35.8845L30.7825 32.5505C30.2946 32.0623 30.2944 31.2709 30.7825 30.7829ZM18.3333 2.08368C27.3078 2.08377 34.5832 9.35918 34.5833 18.3337C34.5833 22.8206 32.7627 26.8846 29.8235 29.8239C26.8842 32.7632 22.8202 34.5836 18.3333 34.5837C9.35862 34.5837 2.08325 27.3083 2.08325 18.3337C2.08334 9.35913 9.35868 2.08368 18.3333 2.08368Z" fill="currentColor" />
</svg>