<svg xmlns="http://www.w3.org/2000/svg" width="24" height="24" viewBox="0 0 24 24" fill="none">
<path d="M14.75 1.25C17.55 1.25 18.95 1.25013 20.0195 1.79492C20.9603 2.27429 21.7257 3.03966 22.2051 3.98047C22.7499 5.04998 22.75 6.45005 22.75 9.25V14.75C22.75 17.55 22.7499 18.95 22.2051 20.0195C21.7257 20.9603 20.9603 21.7257 20.0195 22.2051C18.95 22.7499 17.55 22.75 14.75 22.75H9.25C6.45005 22.75 5.04998 22.7499 3.98047 22.2051C3.03966 21.7257 2.27429 20.9603 1.79492 20.0195C1.25013 18.95 1.25 17.55 1.25 14.75V9.25C1.25 6.45005 1.25013 5.04998 1.79492 3.98047C2.27429 3.03966 3.03966 2.27429 3.98047 1.79492C5.04998 1.25013 6.45005 1.25 9.25 1.25H14.75ZM6 14.8496C5.58592 14.8496 5.25021 15.1856 5.25 15.5996V16C5.25 17.4923 6.43875 18.7032 7.9209 18.7451C7.94692 18.7478 7.97326 18.75 8 18.75H8.5C8.91421 18.75 9.25 18.4142 9.25 18C9.25 17.5858 8.91421 17.25 8.5 17.25H8C7.30964 17.25 6.75 16.6904 6.75 16V15.5996C6.74979 15.1856 6.41408 14.8496 6 14.8496ZM11 17.25C10.5858 17.25 10.25 17.5858 10.25 18C10.25 18.4142 10.5858 18.75 11 18.75H13C13.4142 18.75 13.75 18.4142 13.75 18C13.75 17.5858 13.4142 17.25 13 17.25H11ZM18 14.75C17.5858 14.75 17.25 15.0858 17.25 15.5V16C17.25 16.6904 16.6904 17.25 16 17.25H15.5C15.0858 17.25 14.75 17.5858 14.75 18C14.75 18.4142 15.0858 18.75 15.5 18.75H16C17.5188 18.75 18.75 17.5188 18.75 16V15.5C18.75 15.0858 18.4142 14.75 18 14.75ZM6 10.25C5.58579 10.25 5.25 10.5858 5.25 11V13C5.25 13.4142 5.58579 13.75 6 13.75C6.41421 13.75 6.75 13.4142 6.75 13V11C6.75 10.5858 6.41421 10.25 6 10.25ZM18 10.25C17.5858 10.25 17.25 10.5858 17.25 11V13C17.25 13.4142 17.5858 13.75 18 13.75C18.4142 13.75 18.75 13.4142 18.75 13V11C18.75 10.5858 18.4142 10.25 18 10.25ZM8 5.25C6.48122 5.25 5.25 6.48122 5.25 8V8.5C5.25 8.91421 5.58579 9.25 6 9.25C6.41421 9.25 6.75 8.91421 6.75 8.5V8C6.75 7.30964 7.30964 6.75 8 6.75H8.5C8.91421 6.75 9.25 6.41421 9.25 6C9.25 5.58579 8.91421 5.25 8.5 5.25H8ZM15.5 5.25C15.0858 5.25 14.75 5.58579 14.75 6C14.75 6.41421 15.0858 6.75 15.5 6.75H16C16.6904 6.75 17.25 7.30964 17.25 8V8.5C17.25 8.91421 17.5858 9.25 18 9.25C18.4142 9.25 18.75 8.91421 18.75 8.5V8C18.75 6.48122 17.5188 5.25 16 5.25H15.5ZM11 5.25C10.5858 5.25 10.25 5.58579 10.25 6C10.25 6.41421 10.5858 6.75 11 6.75H13C13.4142 6.75 13.75 6.41421 13.75 6C13.75 5.58579 13.4142 5.25 13 5.25H11Z" fill="currentColor" />
</svg>