<svg xmlns="http://www.w3.org/2000/svg" width="24" height="24" viewBox="0 0 24 24" fill="none">
<path opacity={0.32} d="M9.25 1.25C6.44974 1.25 5.04961 1.25 3.98005 1.79497C3.03924 2.27433 2.27433 3.03924 1.79497 3.98005C1.25 5.04961 1.25 6.44974 1.25 9.25V14.75C1.25 17.5503 1.25 18.9504 1.79497 20.02C2.27433 20.9608 3.03924 21.7257 3.98005 22.205C5.04961 22.75 6.44974 22.75 9.25 22.75H14.75C17.5503 22.75 18.9504 22.75 20.02 22.205C20.9608 21.7257 21.7257 20.9608 22.205 20.02C22.75 18.9504 22.75 17.5503 22.75 14.75V9.25C22.75 6.44974 22.75 5.04961 22.205 3.98005C21.7257 3.03924 20.9608 2.27433 20.02 1.79497C18.9504 1.25 17.5503 1.25 14.75 1.25H9.25Z" fill="currentColor" /><path d="M6 14.8496C6.41408 14.8496 6.74979 15.1856 6.75 15.5996V16C6.75 16.6904 7.30964 17.25 8 17.25H8.5C8.91421 17.25 9.25 17.5858 9.25 18C9.25 18.4142 8.91421 18.75 8.5 18.75H8C7.97326 18.75 7.94692 18.7478 7.9209 18.7451C6.43875 18.7032 5.25 17.4923 5.25 16V15.5996C5.25021 15.1856 5.58592 14.8496 6 14.8496ZM13 17.25C13.4142 17.25 13.75 17.5858 13.75 18C13.75 18.4142 13.4142 18.75 13 18.75H11C10.5858 18.75 10.25 18.4142 10.25 18C10.25 17.5858 10.5858 17.25 11 17.25H13ZM18 14.75C18.4142 14.75 18.75 15.0858 18.75 15.5V16C18.75 17.5188 17.5188 18.75 16 18.75H15.5C15.0858 18.75 14.75 18.4142 14.75 18C14.75 17.5858 15.0858 17.25 15.5 17.25H16C16.6904 17.25 17.25 16.6904 17.25 16V15.5C17.25 15.0858 17.5858 14.75 18 14.75ZM6 10.25C6.41421 10.25 6.75 10.5858 6.75 11V13C6.75 13.4142 6.41421 13.75 6 13.75C5.58579 13.75 5.25 13.4142 5.25 13V11C5.25 10.5858 5.58579 10.25 6 10.25ZM18 10.25C18.4142 10.25 18.75 10.5858 18.75 11V13C18.75 13.4142 18.4142 13.75 18 13.75C17.5858 13.75 17.25 13.4142 17.25 13V11C17.25 10.5858 17.5858 10.25 18 10.25ZM8.5 5.25C8.91421 5.25 9.25 5.58579 9.25 6C9.25 6.41421 8.91421 6.75 8.5 6.75H8C7.30964 6.75 6.75 7.30964 6.75 8V8.5C6.75 8.91421 6.41421 9.25 6 9.25C5.58579 9.25 5.25 8.91421 5.25 8.5V8C5.25 6.48122 6.48122 5.25 8 5.25H8.5ZM16 5.25C17.5188 5.25 18.75 6.48122 18.75 8V8.5C18.75 8.91421 18.4142 9.25 18 9.25C17.5858 9.25 17.25 8.91421 17.25 8.5V8C17.25 7.30964 16.6904 6.75 16 6.75H15.5C15.0858 6.75 14.75 6.41421 14.75 6C14.75 5.58579 15.0858 5.25 15.5 5.25H16ZM13 5.25C13.4142 5.25 13.75 5.58579 13.75 6C13.75 6.41421 13.4142 6.75 13 6.75H11C10.5858 6.75 10.25 6.41421 10.25 6C10.25 5.58579 10.5858 5.25 11 5.25H13Z" fill="currentColor" />
</svg>