<svg xmlns="http://www.w3.org/2000/svg" width="24" height="24" viewBox="0 0 24 24" fill="none">
<path d="M17 12.25C18.633 12.25 19.4498 12.2502 20.0771 12.5596C20.6692 12.8516 21.1484 13.3308 21.4404 13.9229C21.7498 14.5502 21.75 15.367 21.75 17C21.75 18.633 21.7498 19.4498 21.4404 20.0771C21.1484 20.6692 20.6692 21.1484 20.0771 21.4404C19.4498 21.7498 18.633 21.75 17 21.75H7C5.367 21.75 4.55022 21.7498 3.92285 21.4404C3.33079 21.1484 2.85162 20.6692 2.55957 20.0771C2.25019 19.4498 2.25 18.633 2.25 17C2.25 15.367 2.25019 14.5502 2.55957 13.9229C2.85162 13.3308 3.33079 12.8516 3.92285 12.5596C4.55022 12.2502 5.367 12.25 7 12.25H17ZM17 16C16.4477 16 16 16.4477 16 17C16 17.5523 16.4477 18 17 18C17.5523 18 18 17.5523 18 17C18 16.4477 17.5523 16 17 16ZM17 1.25C18.633 1.25 19.4498 1.25019 20.0771 1.55957C20.6692 1.85162 21.1484 2.33079 21.4404 2.92285C21.7498 3.55022 21.75 4.367 21.75 6C21.75 7.633 21.7498 8.44978 21.4404 9.07715C21.1484 9.66921 20.6692 10.1484 20.0771 10.4404C19.4498 10.7498 18.633 10.75 17 10.75H7C5.367 10.75 4.55022 10.7498 3.92285 10.4404C3.33079 10.1484 2.85162 9.66921 2.55957 9.07715C2.25019 8.44978 2.25 7.633 2.25 6C2.25 4.367 2.25019 3.55022 2.55957 2.92285C2.85162 2.33079 3.33079 1.85162 3.92285 1.55957C4.55022 1.25019 5.367 1.25 7 1.25H17ZM17 5C16.4477 5 16 5.44772 16 6C16 6.55228 16.4477 7 17 7C17.5523 7 18 6.55228 18 6C18 5.44772 17.5523 5 17 5Z" fill="currentColor" />
</svg>