<svg xmlns="http://www.w3.org/2000/svg" width="24" height="24" viewBox="0 0 24 24" fill="none">
<g opacity={0.32}><path d="M7 1.25C5.367 1.25 4.5505 1.25 3.92313 1.55938C3.33084 1.85147 2.85147 2.33084 2.55938 2.92313C2.25 3.5505 2.25 4.367 2.25 6C2.25 7.633 2.25 8.4495 2.55938 9.07687C2.85147 9.66916 3.33084 10.1485 3.92313 10.4406C4.5505 10.75 5.367 10.75 7 10.75H17C18.633 10.75 19.4495 10.75 20.0769 10.4406C20.6692 10.1485 21.1485 9.66916 21.4406 9.07687C21.75 8.4495 21.75 7.633 21.75 6C21.75 4.367 21.75 3.5505 21.4406 2.92313C21.1485 2.33084 20.6692 1.85147 20.0769 1.55938C19.4495 1.25 18.633 1.25 17 1.25H7Z" fill="currentColor" /><path d="M7 12.25C5.367 12.25 4.5505 12.25 3.92313 12.5594C3.33084 12.8515 2.85147 13.3308 2.55938 13.9231C2.25 14.5505 2.25 15.367 2.25 17C2.25 18.633 2.25 19.4495 2.55938 20.0769C2.85147 20.6692 3.33084 21.1485 3.92313 21.4406C4.5505 21.75 5.367 21.75 7 21.75H17C18.633 21.75 19.4495 21.75 20.0769 21.4406C20.6692 21.1485 21.1485 20.6692 21.4406 20.0769C21.75 19.4495 21.75 18.633 21.75 17C21.75 15.367 21.75 14.5505 21.4406 13.9231C21.1485 13.3308 20.6692 12.8515 20.0769 12.5594C19.4495 12.25 18.633 12.25 17 12.25H7Z" fill="currentColor" /></g><path d="M17 15.75C17.6904 15.75 18.25 16.3096 18.25 17C18.25 17.6904 17.6904 18.25 17 18.25C16.3096 18.25 15.75 17.6904 15.75 17C15.75 16.3096 16.3096 15.75 17 15.75ZM17 4.75C17.6904 4.75 18.25 5.30964 18.25 6C18.25 6.69036 17.6904 7.25 17 7.25C16.3096 7.25 15.75 6.69036 15.75 6C15.75 5.30964 16.3096 4.75 17 4.75Z" fill="currentColor" />
</svg>