<svg xmlns="http://www.w3.org/2000/svg" width="24" height="24" viewBox="0 0 24 24" fill="none">
<path d="M19 1.25C21.071 1.25 22.7499 2.92904 22.75 5C22.75 7.07107 21.0711 8.75 19 8.75C17.2753 8.74999 15.8234 7.58558 15.3857 6L11 6C9.10379 6.00001 7.45404 7.05576 6.60644 8.61133C7.87359 9.21305 8.74991 10.504 8.75 12C8.75 13.4961 7.87356 14.7869 6.60644 15.3887C7.45398 16.9444 9.10364 18 11 18L15.3857 18C15.8235 16.4146 17.2754 15.25 19 15.25C21.071 15.25 22.7499 16.929 22.75 19C22.75 21.0711 21.0711 22.75 19 22.75C17.2753 22.75 15.8234 21.5856 15.3857 20L11 20C8.09913 20 5.60965 18.236 4.54785 15.7217C2.69009 15.4983 1.25 13.918 1.25 12C1.25012 10.0821 2.69008 8.50063 4.54785 8.27734C5.60994 5.76369 8.09961 4.00001 11 4L15.3857 4C15.8235 2.41465 17.2754 1.25002 19 1.25Z" fill="currentColor" />
</svg>