<svg xmlns="http://www.w3.org/2000/svg" width="24" height="24" viewBox="0 0 24 24" fill="none">
<path d="M5 15C3.34315 15 2 13.6569 2 12C2 10.3431 3.34315 9 5 9M5 15C6.65685 15 8 13.6569 8 12C8 10.3431 6.65685 9 5 9M5 15C5 17.2091 6.79086 19 9 19H13M5 9C5 6.79086 6.79086 5 9 5H13M19 8C17.3431 8 16 6.65685 16 5C16 3.34315 17.3431 2 19 2C20.6569 2 22 3.34315 22 5C22 6.65685 20.6569 8 19 8ZM19 22C17.3431 22 16 20.6569 16 19C16 17.3431 17.3431 16 19 16C20.6569 16 22 17.3431 22 19C22 20.6569 20.6569 22 19 22Z" stroke="currentColor" stroke-width={2} stroke-linecap="round" stroke-linejoin="round" />
</svg>