<svg xmlns="http://www.w3.org/2000/svg" width="24" height="24" viewBox="0 0 24 24" fill="none">
<path opacity={0.32} d="M12 0.556396C11.7772 0.556397 11.5544 0.57501 11.334 0.612237C10.8365 0.696244 10.3579 0.908947 9.40074 1.33435L6.05073 2.82323C4.675 3.43466 3.98714 3.74038 3.48276 4.22362C3.03692 4.65077 2.69601 5.17534 2.48675 5.75624C2.25 6.41342 2.25 7.16615 2.25 8.67163L2.25 13.9761C2.25 15.2283 2.25 15.8545 2.4226 16.4228C2.57541 16.926 2.82592 17.3941 3.15982 17.8003C3.53697 18.2592 4.05796 18.6065 5.09992 19.3012L7.5624 20.9428C9.16619 22.012 9.96808 22.5466 10.8348 22.7543C11.2178 22.8461 11.6089 22.892 12 22.892V0.556396Z" fill="currentColor" /><path d="M12 22.892L12 0.556458C12.2228 0.556457 12.4456 0.575071 12.666 0.612298C13.1635 0.696305 13.6421 0.909009 14.5993 1.33442L17.9493 2.8233C19.325 3.43472 20.0129 3.74044 20.5172 4.22368C20.9631 4.65084 21.304 5.1754 21.5133 5.7563C21.75 6.41348 21.75 7.16622 21.75 8.67169V13.9761C21.75 15.2284 21.75 15.8545 21.5774 16.4229C21.4246 16.9261 21.1741 17.3941 20.8402 17.8004C20.463 18.2593 19.942 18.6066 18.9001 19.3012L16.4376 20.9429C14.8338 22.0121 14.0319 22.5467 13.1652 22.7544C12.7822 22.8462 12.3911 22.892 12 22.892Z" fill="currentColor" />
</svg>