<svg xmlns="http://www.w3.org/2000/svg" width="24" height="24" viewBox="0 0 24 24" fill="none">
<path opacity={0.32} d="M4.41695 3.35626L3.89071 3.79551C3.63519 4.0088 3.40802 4.25038 3.19642 4.53328C3.13043 4.6215 3.04191 4.75018 2.98311 4.84334C2.24884 6.00686 2.24932 7.26949 2.25004 9.19505L2.25008 9.57388C2.24973 13.2153 2.24953 15.319 3.39426 17.3317C3.4826 17.487 3.62966 17.725 3.72906 17.8734C5.01681 19.797 6.46635 20.5218 8.96016 21.7687L9.05011 21.8137C10.0705 22.324 11.1476 22.75 12.0001 22.75C12.8526 22.75 13.9297 22.324 14.9501 21.8137L15.0365 21.7705C16.8442 20.8666 18.1325 20.2224 19.1835 19.196L19.7265 18.6658L4.41695 3.35626Z" fill="currentColor" /><path d="M1.46967 1.46973C1.76256 1.17684 2.23732 1.17684 2.53021 1.46973L21.5302 20.4697L21.582 20.5264C21.8223 20.821 21.8048 21.2557 21.5302 21.5303C21.2556 21.8049 20.8209 21.8223 20.5263 21.582L20.4697 21.5303L1.46967 2.53027C1.17678 2.23738 1.17678 1.76262 1.46967 1.46973ZM11.9999 1.25C13.7894 1.25 15.7153 1.80002 17.3193 2.41407C18.9154 3.02512 19.9586 3.40344 20.8037 4.53321C20.8696 4.62142 20.9577 4.75059 21.0165 4.84375C21.774 6.0442 21.7499 7.35015 21.7499 9.38086C21.7499 11.882 21.7536 13.6725 21.4286 15.1602C21.3402 15.5647 20.9407 15.8208 20.5361 15.7324C20.1315 15.6439 19.8754 15.2444 19.9638 14.8398C20.2461 13.5474 20.2499 11.9476 20.2499 9.38086C20.2499 7.1998 20.2249 6.39934 19.748 5.64356C19.7103 5.58388 19.6446 5.48801 19.6025 5.43164C19.062 4.70903 18.4656 4.45954 16.7831 3.81543C15.2434 3.22595 13.5188 2.75 11.9999 2.75C10.8144 2.75 9.49763 3.04054 8.23334 3.4541C7.83975 3.58285 7.41595 3.3681 7.28705 2.97461C7.1583 2.581 7.373 2.15719 7.76654 2.02832C9.10661 1.58997 10.5928 1.25 11.9999 1.25Z" fill="currentColor" />
</svg>