<svg xmlns="http://www.w3.org/2000/svg" width="24" height="24" viewBox="0 0 24 24" fill="none">
<path d="M11.334 0.612291C11.7749 0.537849 12.2251 0.537849 12.666 0.612291C13.1635 0.696298 13.6424 0.909541 14.5996 1.33495L17.9492 2.82323C19.3249 3.43466 20.0132 3.74038 20.5176 4.22362C20.9634 4.65076 21.3044 5.17595 21.5137 5.75682C21.7503 6.41389 21.75 7.16673 21.75 8.67186L21.75 13.9766C21.75 15.2286 21.7497 15.8546 21.5771 16.4228C21.4243 16.926 21.1737 17.3945 20.8398 17.8008C20.4627 18.2595 19.9421 18.6073 18.9004 19.3017L16.4375 20.9433C14.8338 22.0124 14.0317 22.5472 13.165 22.7549C12.3992 22.9383 11.6008 22.9384 10.835 22.7549C9.96826 22.5472 9.16615 22.0124 7.5625 20.9433L5.09961 19.3017C4.0579 18.6073 3.53728 18.2595 3.16015 17.8008C2.82626 17.3945 2.57565 16.926 2.42285 16.4228C2.2503 15.8546 2.25 15.2286 2.25 13.9765L2.25 8.67186C2.25 7.16672 2.24974 6.41389 2.48633 5.75682C2.69558 5.17595 3.03661 4.65076 3.48242 4.22362C3.98681 3.74038 4.67506 3.43466 6.05078 2.82323L9.40039 1.33495C10.3576 0.90954 10.8365 0.696298 11.334 0.612291ZM16.0303 8.96971C15.7374 8.67694 15.2626 8.67694 14.9697 8.96971L11 12.9394L9.53027 11.4697L9.47363 11.418C9.17908 11.1777 8.74431 11.1952 8.46972 11.4697C8.17686 11.7626 8.17692 12.2374 8.46972 12.5303L10.4697 14.5303C10.7626 14.8232 11.2374 14.8232 11.5303 14.5303L16.0303 10.0303C16.3231 9.73736 16.3231 9.26258 16.0303 8.96971Z" fill="currentColor" />
</svg>