<svg xmlns="http://www.w3.org/2000/svg" width="24" height="24" viewBox="0 0 24 24" fill="none">
<path opacity={0.4} d="M21 11V8.11937C21 6.99026 21 6.42571 20.8224 5.93283C20.6655 5.49715 20.4098 5.10373 20.0754 4.78336C19.6971 4.42093 19.1812 4.19164 18.1494 3.73307L14.25 2" stroke="currentColor" stroke-width={1.5} stroke-linecap="round" stroke-linejoin="round" /><path d="M21 11V12V13.5748C21 14.8271 21 15.4532 20.8274 16.0216C20.6746 16.5247 20.4241 16.9928 20.0902 17.3991C19.713 17.858 19.192 18.2053 18.1501 18.8999L14.6626 21.2249C13.7003 21.8664 13.2192 22.1872 12.6991 22.3118C12.2395 22.422 11.7605 22.422 11.3009 22.3118C10.7808 22.1872 10.2997 21.8664 9.33744 21.2249L5.84992 18.8999C4.80796 18.2053 4.28697 17.858 3.90982 17.3991C3.57592 16.9928 3.32541 16.5247 3.1726 16.0216C3 15.4532 3 14.8271 3 13.5748V8.11937C3 6.99026 3 6.42571 3.17756 5.93283C3.33451 5.49715 3.59019 5.10373 3.92457 4.78336C4.30286 4.42093 4.81875 4.19164 5.85055 3.73307L9.74998 2C10.3636 1.72729 10.6704 1.59094 10.9825 1.50884C11.6495 1.33341 12.3505 1.33341 13.0175 1.50884C13.3296 1.59094 13.6364 1.72729 14.25 2L15 2.33332" stroke="currentColor" stroke-width={1.5} stroke-linecap="round" stroke-linejoin="round" />
</svg>