<svg xmlns="http://www.w3.org/2000/svg" width="24" height="24" viewBox="0 0 24 24" fill="none">
<path opacity={0.32} fill-rule="evenodd" clip-rule="evenodd" d="M2.25 8.6717C2.25 7.16622 2.25 6.41348 2.48675 5.75631C2.69601 5.17541 3.03692 4.65084 3.48276 4.22369C3.98714 3.74045 4.675 3.43473 6.05073 2.8233L9.40073 1.33442C10.3579 0.909015 10.8365 0.696312 11.334 0.612305C11.7749 0.537851 12.2251 0.537851 12.666 0.612305C13.1635 0.696312 13.6421 0.909016 14.5993 1.33442L17.9493 2.8233C19.325 3.43473 20.0129 3.74045 20.5172 4.22369C20.9631 4.65084 21.304 5.17541 21.5133 5.75631C21.75 6.41348 21.75 7.16622 21.75 8.6717V13.9761C21.75 15.2284 21.75 15.8545 21.5774 16.4229C21.4246 16.9261 21.1741 17.3942 20.8402 17.8004C20.463 18.2593 19.942 18.6066 18.9001 19.3012L16.4376 20.9429C14.8338 22.0121 14.0319 22.5467 13.1652 22.7544C12.3992 22.9379 11.6008 22.9379 10.8348 22.7544C9.96808 22.5467 9.16619 22.0121 7.5624 20.9429L5.09992 19.3012C4.05796 18.6066 3.53697 18.2593 3.15982 17.8004C2.82592 17.3942 2.57541 16.9261 2.4226 16.4229C2.25 15.8545 2.25 15.2284 2.25 13.9761L2.25 8.6717Z" fill="currentColor" /><path d="M14.9697 8.96961C15.2626 8.67672 15.7373 8.67672 16.0302 8.96961C16.3231 9.2625 16.3231 9.73726 16.0302 10.0302L11.5302 14.5302C11.2373 14.823 10.7626 14.823 10.4697 14.5302L8.46967 12.5302C8.17678 12.2373 8.17678 11.7625 8.46967 11.4696C8.74427 11.195 9.17899 11.1775 9.47358 11.4179L9.53022 11.4696L10.9999 12.9393L14.9697 8.96961Z" fill="currentColor" />
</svg>