<svg xmlns="http://www.w3.org/2000/svg" width="24" height="24" viewBox="0 0 24 24" fill="none">
<path d="M14.614 1.35673C14.9471 1.15708 15.373 1.24631 15.6004 1.55107L15.6433 1.61455L18.4724 6.33037C19.2673 6.40609 19.9375 6.55853 20.5242 6.90263C21.5002 7.47518 22.2392 8.37816 22.6092 9.44755C22.8394 10.1134 22.8525 10.8267 22.7605 11.6575C22.6693 12.4819 22.4636 13.5037 22.2039 14.802L21.7644 17.0022C21.5834 17.9076 21.4397 18.6276 21.2791 19.2044C21.1159 19.7901 20.9215 20.28 20.615 20.719C20.114 21.4366 19.4247 22.0024 18.6228 22.3528C18.1321 22.5673 17.6132 22.6613 17.0066 22.7063C16.4095 22.7507 15.6759 22.7503 14.7527 22.7503H9.24685C8.32364 22.7503 7.59006 22.7507 6.99295 22.7063C6.38638 22.6613 5.86749 22.5673 5.37674 22.3528C4.57481 22.0023 3.88555 21.4366 3.38455 20.719C3.07808 20.28 2.88363 19.7901 2.72049 19.2044C2.55986 18.6276 2.4162 17.9076 2.23514 17.0022L1.79568 14.802C1.536 13.5036 1.3303 12.4819 1.23904 11.6575C1.1471 10.8267 1.16017 10.1134 1.39041 9.44755C1.76035 8.37822 2.49941 7.47519 3.47537 6.90263C4.06177 6.55869 4.73178 6.40613 5.52615 6.33037L8.35623 1.61455C8.56928 1.25946 9.03038 1.14386 9.38553 1.35673C9.74055 1.56981 9.8562 2.03091 9.64334 2.38603L7.3201 6.25712C7.77142 6.25233 8.2654 6.25029 8.80642 6.25029H15.1931C15.7338 6.25029 16.2274 6.25234 16.6785 6.25712L14.3562 2.38603C14.1434 2.03096 14.2591 1.56985 14.614 1.35673Z" fill="currentColor" />
</svg>