<svg xmlns="http://www.w3.org/2000/svg" width="24" height="24" viewBox="0 0 24 24" fill="none">
<path d="M1.7334 0.251953C3.3894 0.30495 4.81413 1.43844 5.23828 3.04004C5.25342 3.09722 5.26827 3.15987 5.28906 3.25H18.6992C19.414 3.25 20.0004 3.24932 20.4668 3.29102C20.9377 3.33312 21.3794 3.42414 21.7695 3.66797C22.3552 4.03405 22.7814 4.60737 22.9639 5.27344C23.0854 5.71731 23.0462 6.16762 22.9512 6.63086C22.8571 7.08952 22.6878 7.65052 22.4824 8.33496L21.7441 10.7949C21.3951 11.9585 21.1726 12.7475 20.6953 13.3438C20.2933 13.8458 19.7683 14.2367 19.1719 14.4775C18.4635 14.7635 17.6438 14.75 16.4287 14.75H6C5.30964 14.75 4.75 15.3096 4.75 16C4.75 16.6904 5.30964 17.25 6 17.25H21C21.4142 17.25 21.75 17.5858 21.75 18C21.75 18.4142 21.4142 18.75 21 18.75H19.4473C19.6394 19.1253 19.75 19.5494 19.75 20C19.75 21.5188 18.5188 22.75 17 22.75C15.4812 22.75 14.25 21.5188 14.25 20C14.25 19.5494 14.3606 19.1253 14.5527 18.75H11.4473C11.6394 19.1253 11.75 19.5494 11.75 20C11.75 21.5188 10.5188 22.75 9 22.75C7.48122 22.75 6.25 21.5188 6.25 20C6.25 19.5494 6.36065 19.1253 6.55273 18.75H6C4.48122 18.75 3.25 17.5188 3.25 16C3.25 14.4812 4.48122 13.25 6 13.25H6.38867C6.3783 13.2362 6.36664 13.223 6.35645 13.209C6.10838 12.8687 5.94896 12.4928 5.81445 12.0576C5.6827 11.6314 5.56099 11.1019 5.41016 10.4482L3.96191 4.16895L3.83105 3.60449C3.80568 3.49453 3.79653 3.45573 3.78809 3.42383C3.53352 2.46304 2.67901 1.78282 1.68555 1.75098L1.5 1.75H1C0.585829 1.75 0.250051 1.41418 0.25 1C0.250032 0.585857 0.585837 0.250051 1 0.25H1.5L1.7334 0.251953Z" fill="currentColor" />
</svg>