<svg xmlns="http://www.w3.org/2000/svg" width="24" height="24" viewBox="0 0 24 24" fill="none">
<path d="M10 17.25C11.5188 17.25 12.75 18.4812 12.75 20C12.75 21.5188 11.5188 22.75 10 22.75C8.48122 22.75 7.25 21.5188 7.25 20C7.25 18.4812 8.48122 17.25 10 17.25ZM18 17.25C19.5188 17.25 20.75 18.4812 20.75 20C20.75 21.5188 19.5188 22.75 18 22.75C16.4812 22.75 15.25 21.5188 15.25 20C15.25 18.4812 16.4812 17.25 18 17.25ZM1.77637 0.250977C1.85556 0.252002 1.92483 0.254284 1.99121 0.258789C3.47569 0.359625 4.76 1.32879 5.26465 2.72852C5.30979 2.85377 5.3493 2.99208 5.4082 3.19824L5.42285 3.25H16.7158C17.7702 3.25 18.6109 3.24943 19.2764 3.30859C19.9468 3.36823 20.53 3.49456 21.0361 3.80566C21.8274 4.29213 22.4099 5.05486 22.6709 5.94629C22.8379 6.51645 22.8064 7.11189 22.6875 7.77441C22.5695 8.43202 22.3478 9.24346 22.0703 10.2607L22.0098 10.4814C21.5671 12.1047 21.3017 13.1295 20.7041 13.9033C20.1963 14.5609 19.5248 15.0737 18.7568 15.3906C17.853 15.7636 16.7939 15.75 15.1113 15.75H12.8271C11.1643 15.75 10.1181 15.7634 9.22168 15.3975C8.45962 15.0862 7.79085 14.5818 7.28223 13.9346C6.68403 13.1731 6.40902 12.1635 5.95215 10.5645L4.13574 4.20605L3.96582 3.61035C3.90077 3.38268 3.87723 3.30313 3.85352 3.2373C3.55073 2.39749 2.78031 1.81541 1.88965 1.75488L1.5 1.75H1C0.585829 1.75 0.250051 1.41418 0.25 1C0.250033 0.585857 0.585838 0.250051 1 0.25H1.5L1.77637 0.250977Z" fill="currentColor" />
</svg>