<svg xmlns="http://www.w3.org/2000/svg" width="24" height="24" viewBox="0 0 24 24" fill="none">
<path d="M13.0001 6H10.5823C8.83662 6 7.96378 6 7.23301 6.18667C5.253 6.69246 3.66658 8.17126 3.02316 10.1109C2.78569 10.8268 2.72447 11.6975 2.60203 13.4389C2.46309 15.4148 2.39363 16.4028 2.56033 17.2114C3.01345 19.4094 4.65533 21.1708 6.81615 21.777C7.61111 22 8.60151 22 10.5823 22H13.4178C15.3986 22 16.389 22 17.184 21.777C19.3448 21.1708 20.9867 19.4094 21.4398 17.2114C21.5117 16.8626 21.5397 16.4804 21.5371 16M16.0001 6.0589C16.2861 6.08651 16.5339 6.12708 16.7671 6.18667C18.7471 6.69246 20.3336 8.17126 20.977 10.1109C21.1378 10.5956 21.2177 11.1512 21.2906 12M8.00012 8V6C8.00012 3.79086 9.79098 2 12.0001 2C14.2093 2 16.0001 3.79086 16.0001 6V8M8.50012 11.5C8.50012 11.7761 8.27626 12 8.00012 12C7.72398 12 7.50012 11.7761 7.50012 11.5M8.50012 11.5C8.50012 11.2239 8.27626 11 8.00012 11C7.72398 11 7.50012 11.2239 7.50012 11.5M8.50012 11.5H7.50012M16.5001 11.5C16.5001 11.7761 16.2763 12 16.0001 12C15.724 12 15.5001 11.7761 15.5001 11.5M16.5001 11.5C16.5001 11.2239 16.2763 11 16.0001 11C15.724 11 15.5001 11.2239 15.5001 11.5M16.5001 11.5H15.5001" stroke="currentColor" stroke-width={2} stroke-linecap="round" stroke-linejoin="round" />
</svg>