<svg xmlns="http://www.w3.org/2000/svg" width="24" height="24" viewBox="0 0 24 24" fill="none">
<path d="M14 7H14.5H15.1933C17.8693 7 19.2073 7 20.1445 7.5497C20.9665 8.03184 21.5894 8.79163 21.901 9.69225C22.2562 10.7191 21.9938 12.0311 21.469 14.6551L21.029 16.8551C20.6624 18.6878 20.4792 19.6041 20.0007 20.2896C19.5788 20.894 18.9981 21.3701 18.3226 21.6653C17.5567 22 16.6222 22 14.7533 22H9.24675C7.37779 22 6.44332 22 5.67737 21.6653C5.00194 21.3701 4.4212 20.894 3.99929 20.2896C3.52083 19.6041 3.33756 18.6878 2.97103 16.8551L2.53103 14.6551C2.00622 12.0311 1.74381 10.7191 2.09903 9.69225C2.4106 8.79163 3.03348 8.03184 3.8555 7.5497C4.7927 7 6.13072 7 8.80674 7H9.5H10M6 7L9 2M15 2L18 7" stroke="currentColor" stroke-width={2} stroke-linecap="round" stroke-linejoin="round" />
</svg>