<svg xmlns="http://www.w3.org/2000/svg" width="24" height="24" viewBox="0 0 24 24" fill="none">
<path d="M9 4.00006H16.7156C18.8522 4.00006 19.9205 4.00006 20.6432 4.44424C21.2763 4.8334 21.7425 5.44374 21.9513 6.15698C22.1897 6.97105 21.9086 8.00171 21.3465 10.063L21.2862 10.284C20.8256 11.973 20.5953 12.8175 20.1106 13.445C19.6829 13.9988 19.1174 14.4307 18.4706 14.6976C17.7377 15.0001 16.8624 15.0001 15.1117 15.0001H12.8275C11.0971 15.0001 10.2318 15.0001 9.50478 14.7031C8.86305 14.441 8.30044 14.0166 7.87213 13.4716C7.38687 12.8541 7.14917 12.0222 6.67378 10.3583L4.6868 3.40387C4.62476 3.18671 4.59373 3.07812 4.55926 2.98252C4.15552 1.86267 3.12785 1.08748 1.94018 1.00689C1.83878 1.00001 1.72586 1.00001 1.5 1L1 1.00006M20 20C20 21.1046 19.1046 22 18 22C16.8954 22 16 21.1046 16 20C16 18.8954 16.8954 18 18 18M12 20C12 21.1046 11.1046 22 10 22C8.89543 22 8 21.1046 8 20C8 18.8954 8.89543 18 10 18C11.1046 18 12 18.8954 12 20Z" stroke="currentColor" stroke-width={2} stroke-linecap="round" stroke-linejoin="round" />
</svg>