<svg xmlns="http://www.w3.org/2000/svg" width="24" height="24" viewBox="0 0 24 24" fill="none">
<path d="M11.9994 1.25C14.1174 1.25 15.1772 1.24996 16.0687 1.48926C18.228 2.06894 19.9801 3.6455 20.7846 5.73145C21.1167 6.59269 21.2288 7.64591 21.4525 9.75195L21.6889 11.9766C21.9855 14.7681 22.1336 16.1641 21.8773 17.2959C21.3402 19.6673 19.6112 21.5902 17.31 22.375C16.2115 22.7495 14.8069 22.75 11.9994 22.75C9.19214 22.75 7.78824 22.7495 6.68983 22.375C4.3885 21.5902 2.65958 19.6673 2.12245 17.2959C1.86618 16.1641 2.01433 14.7681 2.31093 11.9766L2.54726 9.75195C2.77103 7.64587 2.88309 6.5927 3.21522 5.73145C4.0197 3.64546 5.77177 2.06891 7.93105 1.48926C8.82253 1.24997 9.8817 1.25 11.9994 1.25ZM15.0004 6C14.4481 6 14.0004 6.44773 14.0004 7V9C14.0004 10.1044 13.1048 10.9998 12.0004 11C10.8958 11 10.0004 10.1046 10.0004 9V7C10.0004 6.44785 9.55248 6.0002 9.00038 6C8.4481 6 8.0004 6.44773 8.00038 7V9C8.00038 11.2091 9.79124 13 12.0004 13C14.2093 12.9998 16.0004 11.209 16.0004 9V7C16.0004 6.44785 15.5525 6.0002 15.0004 6Z" fill="currentColor" />
</svg>