<svg xmlns="http://www.w3.org/2000/svg" width="24" height="24" viewBox="0 0 24 24" fill="none">
<path d="M12.0002 1C14.5458 1 16.6454 2.90263 16.9582 5.36328C17.3511 5.41526 17.6892 5.4888 18.0041 5.60156C19.556 6.15732 20.8116 7.32685 21.4748 8.83594C21.894 9.7898 21.9781 10.9892 22.1467 13.3867C22.338 16.1075 22.4338 17.468 22.0901 18.5566C21.5458 20.2803 20.2528 21.6672 18.5715 22.3311C17.5097 22.7502 16.1457 22.75 13.4182 22.75H10.5822C7.85472 22.75 6.49074 22.7503 5.42892 22.3311C3.74766 21.6672 2.45565 20.2803 1.91134 18.5566C1.56758 17.468 1.66241 16.1076 1.85372 13.3867C2.02231 10.989 2.10734 9.78983 2.52657 8.83594C3.18981 7.32691 4.44446 6.15732 5.9963 5.60156C6.31122 5.48878 6.6493 5.41527 7.0422 5.36328C7.35504 2.90265 9.45461 1.00006 12.0002 1ZM8.00021 9C7.44797 9.00006 7.00021 9.44775 7.00021 10C7.00021 10.5522 7.44797 10.9999 8.00021 11C8.55249 11 9.00021 10.5523 9.00021 10C9.00021 9.44771 8.55249 9 8.00021 9ZM16.0002 9C15.448 9.00006 15.0002 9.44775 15.0002 10C15.0002 10.5522 15.448 10.9999 16.0002 11C16.5525 11 17.0002 10.5523 17.0002 10C17.0002 9.44771 16.5525 9 16.0002 9ZM12.0002 3C10.6009 3.00005 9.42849 3.95892 9.09689 5.25488C9.53594 5.25055 10.027 5.25 10.5822 5.25H13.4182C13.9734 5.25 14.4645 5.25055 14.9035 5.25488C14.5719 3.95892 13.3995 3 12.0002 3Z" fill="currentColor" />
</svg>