<svg xmlns="http://www.w3.org/2000/svg" width="24" height="24" viewBox="0 0 24 24" fill="none">
<path d="M14.75 1.25C17.55 1.25 18.95 1.25013 20.0195 1.79492C20.9603 2.27429 21.7257 3.03966 22.2051 3.98047C22.7499 5.04998 22.75 6.45005 22.75 9.25V14.75C22.75 17.55 22.7499 18.95 22.2051 20.0195C21.7257 20.9603 20.9603 21.7257 20.0195 22.2051C18.95 22.7499 17.55 22.75 14.75 22.75H9.25C6.45005 22.75 5.04998 22.7499 3.98047 22.2051C3.03966 21.7257 2.27429 20.9603 1.79492 20.0195C1.25013 18.95 1.25 17.55 1.25 14.75V9.25C1.25 6.45005 1.25013 5.04998 1.79492 3.98047C2.27429 3.03966 3.03966 2.27429 3.98047 1.79492C5.04998 1.25013 6.45005 1.25 9.25 1.25H14.75ZM16.0303 14.9697C15.7374 14.6769 15.2626 14.6769 14.9697 14.9697C14.6952 15.2443 14.6777 15.6791 14.918 15.9736L14.9697 16.0303L15.1895 16.25H13C12.5858 16.25 12.2501 16.5858 12.25 17C12.25 17.4142 12.5858 17.75 13 17.75H15.1895L14.9697 17.9697C14.6769 18.2626 14.6769 18.7374 14.9697 19.0303C15.2626 19.3232 15.7374 19.3232 16.0303 19.0303L17.5303 17.5303C17.8231 17.2374 17.8231 16.7626 17.5303 16.4697L16.0303 14.9697ZM16.0303 4.96973C15.7374 4.67683 15.2626 4.67683 14.9697 4.96973C14.6951 5.24433 14.6777 5.67906 14.918 5.97363L14.9697 6.03027L15.1895 6.25H14.623C14.1671 6.24999 13.7843 6.24902 13.4688 6.27246C13.1436 6.29662 12.8374 6.34967 12.5381 6.48047C12.0739 6.6834 11.6748 7.0104 11.3848 7.42578C11.1978 7.69362 11.0865 7.98378 10.999 8.29785C10.9141 8.60276 10.8394 8.97863 10.75 9.42578L9.75488 14.4014C9.58243 15.2637 9.52352 15.4965 9.4209 15.6611C9.27566 15.894 9.05757 16.0732 8.80078 16.1699C8.66459 16.2212 8.49564 16.2405 8.04883 16.2471L7.5 16.25H7C6.58582 16.25 6.25002 16.5858 6.25 17C6.25004 17.4142 6.58582 17.75 7 17.75H7.5L8.0332 17.749C8.53657 17.7435 8.95497 17.7146 9.33008 17.5732C9.89496 17.3604 10.3739 16.9673 10.6934 16.4551C10.9762 16.0016 11.0779 15.4336 11.2256 14.6953L12.2207 9.71973C12.3145 9.25089 12.3778 8.93904 12.4443 8.7002C12.5083 8.47044 12.562 8.35905 12.6143 8.28418C12.746 8.09539 12.9277 7.94674 13.1387 7.85449C13.2223 7.81793 13.3422 7.78623 13.5801 7.76855C13.8273 7.7502 14.1451 7.74999 14.623 7.75H15.1895L14.9697 7.96973C14.6768 8.26262 14.6768 8.73738 14.9697 9.03027C15.2626 9.32316 15.7374 9.32315 16.0303 9.03027L17.5303 7.53027C17.8232 7.23738 17.8232 6.76262 17.5303 6.46973L16.0303 4.96973ZM7.04297 6.25C6.6288 6.25001 6.29303 6.58584 6.29297 7C6.29298 7.4142 6.62877 7.74999 7.04297 7.75H9C9.41421 7.75 9.74999 7.41421 9.75 7C9.74994 6.58584 9.41418 6.25 9 6.25H7.04297Z" fill="currentColor" />
</svg>