<svg xmlns="http://www.w3.org/2000/svg" width="24" height="24" viewBox="0 0 24 24" fill="none">
<path opacity={0.32} d="M9.25 1.25C6.44974 1.25 5.04961 1.25 3.98005 1.79497C3.03924 2.27433 2.27433 3.03924 1.79497 3.98005C1.25 5.04961 1.25 6.44974 1.25 9.25V14.75C1.25 17.5503 1.25 18.9504 1.79497 20.02C2.27433 20.9608 3.03924 21.7257 3.98005 22.205C5.04961 22.75 6.44974 22.75 9.25 22.75H14.75C17.5503 22.75 18.9504 22.75 20.02 22.205C20.9608 21.7257 21.7257 20.9608 22.205 20.02C22.75 18.9504 22.75 17.5503 22.75 14.75V9.25C22.75 6.44974 22.75 5.04961 22.205 3.98005C21.7257 3.03924 20.9608 2.27433 20.02 1.79497C18.9504 1.25 17.5503 1.25 14.75 1.25H9.25Z" fill="currentColor" /><path d="M14.9697 14.9697C15.2626 14.6768 15.7374 14.6768 16.0303 14.9697L17.5303 16.4697C17.8231 16.7625 17.8231 17.2373 17.5303 17.5302L16.0303 19.0302C15.7374 19.3231 15.2626 19.3231 14.9697 19.0302C14.6769 18.7373 14.6769 18.2625 14.9697 17.9697L15.1895 17.7499H13C12.5858 17.7499 12.25 17.4142 12.25 16.9999C12.2501 16.5858 12.5858 16.2499 13 16.2499H15.1895L14.9697 16.0302L14.918 15.9736C14.6777 15.679 14.6951 15.2443 14.9697 14.9697ZM14.9697 4.96967C15.2626 4.67678 15.7374 4.67678 16.0303 4.96967L17.5303 6.46967C17.8232 6.76256 17.8232 7.23732 17.5303 7.53022L16.0303 9.03022C15.7374 9.32311 15.2626 9.32311 14.9697 9.03022C14.6768 8.73732 14.6768 8.26256 14.9697 7.96967L15.1895 7.74994H14.623C14.1451 7.74994 13.8273 7.75015 13.5801 7.7685C13.3422 7.78617 13.2223 7.81787 13.1387 7.85444C12.9277 7.94669 12.7461 8.09533 12.6143 8.28412C12.562 8.359 12.5083 8.47037 12.4443 8.70014C12.3778 8.93899 12.3145 9.25082 12.2207 9.71967L11.2256 14.6953C11.0779 15.4335 10.9762 16.0016 10.6934 16.455C10.3739 16.9672 9.89496 17.3603 9.33008 17.5732C8.95497 17.7145 8.53657 17.7435 8.0332 17.749L7.5 17.7499H7C6.58581 17.7499 6.25003 17.4141 6.25 16.9999C6.25002 16.5858 6.58582 16.25 7 16.2499H7.5L8.04883 16.247C8.49565 16.2405 8.66459 16.2211 8.80078 16.1699C9.05758 16.0731 9.27566 15.8939 9.4209 15.6611C9.52352 15.4964 9.58243 15.2636 9.75488 14.4013L10.75 9.42572C10.8394 8.97856 10.9141 8.6027 10.999 8.29779C11.0865 7.98371 11.1978 7.69357 11.3848 7.42572C11.6748 7.01034 12.0739 6.68335 12.5381 6.48041C12.8374 6.34961 13.1436 6.29656 13.4688 6.2724C13.7843 6.24896 14.1671 6.24994 14.623 6.24994H15.1895L14.9697 6.03022L14.918 5.97358C14.6777 5.67899 14.6951 5.24427 14.9697 4.96967ZM9 6.24994C9.41418 6.24994 9.74994 6.58578 9.75 6.99994C9.75 7.41416 9.41421 7.74994 9 7.74994H7.04297C6.62876 7.74994 6.29297 7.41416 6.29297 6.99994C6.29303 6.58578 6.62879 6.24994 7.04297 6.24994H9Z" fill="currentColor" />
</svg>