<svg xmlns="http://www.w3.org/2000/svg" width="24" height="24" viewBox="0 0 24 24" fill="none">
<path d="M2 20H4.25227C5.59228 20 6.26228 20 6.81969 19.7658C7.31151 19.5592 7.73933 19.2251 8.05907 18.7981C8.42146 18.3142 8.58396 17.6642 8.90896 16.3642L9.375 14.5L9.5 14M22 4L19 1M22 4L19 7M22 4H15.7477C14.4077 4 13.7377 4 13.1803 4.23419C12.6885 4.44082 12.2607 4.77485 11.9409 5.20187C11.5785 5.68584 11.416 6.33583 11.091 7.63583L10.625 9.5L10.5 10M2 4H8M22 20L19 23M22 20L19 17M22 20H12" stroke="currentColor" stroke-width={1.5} stroke-linecap="round" stroke-linejoin="round" />
</svg>