<svg xmlns="http://www.w3.org/2000/svg" width="24" height="24" viewBox="0 0 24 24" fill="none">
<path d="M7.45947 9.75L11.1831 20.9209C10.7506 20.7072 10.3375 20.2395 9.59131 19.3867L3.09717 11.9648C2.18379 10.921 1.72738 10.3986 1.5376 9.80664C1.53164 9.78804 1.52756 9.76869 1.52197 9.75H7.45947ZM22.4624 9.80664C22.2726 10.3986 21.8162 10.921 20.9028 11.9648L14.4087 19.3867C13.6625 20.2395 13.2495 20.7072 12.8169 20.9209L16.5415 9.75H22.478C22.4724 9.76868 22.4684 9.78804 22.4624 9.80664ZM14.9595 9.75L12.0005 18.627L9.0415 9.75H14.9595ZM10.9937 2.25L7.56494 8.25H1.50049C1.48853 8.25 1.47618 8.25042 1.46436 8.25098C1.46855 8.23177 1.47247 8.2125 1.47705 8.19336C1.62169 7.58872 2.03739 7.03349 2.86963 5.92383L4.18506 4.16992C4.71302 3.46597 4.97745 3.11422 5.31201 2.86035C5.6083 2.63556 5.94365 2.46737 6.30127 2.36523C6.70507 2.24994 7.14507 2.25 8.0249 2.25H10.9937ZM15.9751 2.25C16.8549 2.25 17.2949 2.24994 17.6987 2.36523C18.0563 2.46737 18.3917 2.63556 18.688 2.86035C19.0226 3.11422 19.287 3.46598 19.8149 4.16992L21.1304 5.92383C21.9626 7.03349 22.3783 7.58872 22.5229 8.19336C22.5275 8.21244 22.5305 8.23184 22.5347 8.25098C22.5233 8.25046 22.5119 8.25001 22.5005 8.25H16.436L13.0073 2.25H15.9751ZM14.7075 8.25H9.29346L12.0005 3.51172L14.7075 8.25Z" fill="currentColor" />
</svg>