<svg xmlns="http://www.w3.org/2000/svg" width="24" height="24" viewBox="0 0 24 24" fill="none">
<path d="M6.16007 5.09944C5.74881 4.68818 5.54319 4.48256 5.47592 4.21423C5.42226 4.00018 5.45543 3.71091 5.55617 3.51457C5.68245 3.26845 5.89665 3.13505 6.32505 2.86825C7.97207 1.84253 9.91684 1.25 12 1.25C17.9371 1.25 22.75 6.06294 22.75 12C22.75 14.0832 22.1575 16.0279 21.1317 17.675C20.865 18.1034 20.7316 18.3176 20.4854 18.4438C20.2891 18.5446 19.9998 18.5777 19.7858 18.5241C19.5174 18.4568 19.3118 18.2512 18.9006 17.8399L6.16007 5.09944Z" fill="currentColor" /><path d="M5.09941 6.16011C4.68816 5.74885 4.48253 5.54322 4.21421 5.47595C4.00015 5.42229 3.71088 5.45547 3.51454 5.55621C3.26842 5.68249 3.13502 5.89669 2.86823 6.32509C1.84252 7.97211 1.25 9.91686 1.25 12C1.25 17.9371 6.06294 22.75 12 22.75C14.0831 22.75 16.0279 22.1575 17.6749 21.1318C18.1033 20.865 18.3175 20.7316 18.4438 20.4855C18.5445 20.2891 18.5777 19.9998 18.524 19.7858C18.4568 19.5175 18.2512 19.3118 17.8399 18.9006L5.09941 6.16011Z" fill="currentColor" />
</svg>