<svg xmlns="http://www.w3.org/2000/svg" width="24" height="24" viewBox="0 0 24 24" fill="none">
<path d="M2 10V9.5V7.8C2 6.11984 2 5.27976 2.32698 4.63803C2.6146 4.07354 3.07354 3.6146 3.63803 3.32698C4.27976 3 5.11984 3 6.8 3H9.2C10.8802 3 11.7202 3 12.362 3.32698C12.9265 3.6146 13.3854 4.07354 13.673 4.63803C14 5.27976 14 6.11984 14 7.8V16.2C14 17.8802 14 18.7202 13.673 19.362C13.3854 19.9265 12.9265 20.3854 12.362 20.673C11.7202 21 10.8802 21 9.2 21H6.8C5.11984 21 4.27976 21 3.63803 20.673C3.07354 20.3854 2.6146 19.9265 2.32698 19.362C2 18.7202 2 17.8802 2 16.2V14.5V14M18 6V18M22 9V15" stroke="currentColor" stroke-width={1.5} stroke-linecap="round" stroke-linejoin="round" />
</svg>