<svg xmlns="http://www.w3.org/2000/svg" width="24" height="24" viewBox="0 0 24 24" fill="none">
<path d="M12.3496 2.25C14.5898 2.25 15.7108 2.24957 16.5664 2.68555C17.3189 3.06902 17.931 3.68109 18.3145 4.43359C18.7504 5.28924 18.75 6.41018 18.75 8.65039V15.3496C18.75 17.5898 18.7504 18.7108 18.3145 19.5664C17.931 20.3189 17.3189 20.931 16.5664 21.3145C15.7108 21.7504 14.5898 21.75 12.3496 21.75H11.6504C9.41018 21.75 8.28924 21.7504 7.43359 21.3145C6.68109 20.931 6.06902 20.3189 5.68555 19.5664C5.24957 18.7108 5.25 17.5898 5.25 15.3496V8.65039C5.25 6.41018 5.24957 5.28924 5.68555 4.43359C6.06902 3.68109 6.68109 3.06902 7.43359 2.68555C8.28924 2.24957 9.41018 2.25 11.6504 2.25H12.3496ZM2 3.25C2.41421 3.25 2.75 3.58579 2.75 4V20C2.75 20.4142 2.41421 20.75 2 20.75C1.58579 20.75 1.25 20.4142 1.25 20V4C1.25 3.58579 1.58579 3.25 2 3.25ZM22 3.25C22.4142 3.25 22.75 3.58579 22.75 4V20C22.75 20.4142 22.4142 20.75 22 20.75C21.5858 20.75 21.25 20.4142 21.25 20V4C21.25 3.58579 21.5858 3.25 22 3.25Z" fill="currentColor" />
</svg>