<svg xmlns="http://www.w3.org/2000/svg" width="24" height="24" viewBox="0 0 24 24" fill="none">
<path d="M6 15C6.55228 15 7 15.4477 7 16V22C7 22.5523 6.55228 23 6 23C5.44772 23 5 22.5523 5 22V16C5 15.4477 5.44772 15 6 15ZM18 10.25C19.633 10.25 20.4498 10.2502 21.0771 10.5596C21.6692 10.8516 22.1484 11.3308 22.4404 11.9229C22.7498 12.5502 22.75 13.367 22.75 15C22.75 16.633 22.7498 17.4498 22.4404 18.0771C22.1484 18.6692 21.6692 19.1484 21.0771 19.4404C20.5933 19.679 19.9967 19.7326 19 19.7451V22C19 22.5523 18.5523 23 18 23C17.4477 23 17 22.5523 17 22V19.7451C16.0033 19.7326 15.4067 19.679 14.9229 19.4404C14.3308 19.1484 13.8516 18.6692 13.5596 18.0771C13.2502 17.4498 13.25 16.633 13.25 15C13.25 13.367 13.2502 12.5502 13.5596 11.9229C13.8516 11.3308 14.3308 10.8516 14.9229 10.5596C15.5502 10.2502 16.367 10.25 18 10.25ZM6 1C6.55228 1 7 1.44772 7 2V4.25391C7.99666 4.26639 8.5933 4.32096 9.07715 4.55957C9.66921 4.85162 10.1484 5.33079 10.4404 5.92285C10.7498 6.55022 10.75 7.367 10.75 9C10.75 10.633 10.7498 11.4498 10.4404 12.0771C10.1484 12.6692 9.66921 13.1484 9.07715 13.4404C8.44978 13.7498 7.633 13.75 6 13.75C4.367 13.75 3.55022 13.7498 2.92285 13.4404C2.33079 13.1484 1.85162 12.6692 1.55957 12.0771C1.25019 11.4498 1.25 10.633 1.25 9C1.25 7.367 1.25019 6.55022 1.55957 5.92285C1.85162 5.33079 2.33079 4.85162 2.92285 4.55957C3.4067 4.32096 4.00334 4.26639 5 4.25391V2C5 1.44772 5.44772 1 6 1ZM18 1C18.5523 1 19 1.44772 19 2V8C19 8.55228 18.5523 9 18 9C17.4477 9 17 8.55228 17 8V2C17 1.44772 17.4477 1 18 1Z" fill="currentColor" />
</svg>