<svg xmlns="http://www.w3.org/2000/svg" width="24" height="24" viewBox="0 0 24 24" fill="none">
<path d="M21 21.25C21.4142 21.25 21.75 21.5858 21.75 22C21.75 22.4142 21.4142 22.75 21 22.75H3C2.58579 22.75 2.25 22.4142 2.25 22C2.25 21.5858 2.58579 21.25 3 21.25H21ZM15.3496 5.25C17.5898 5.25 18.7108 5.24957 19.5664 5.68555C20.3189 6.06902 20.931 6.68109 21.3145 7.43359C21.7504 8.28924 21.75 9.41018 21.75 11.6504V12.3496C21.75 14.5898 21.7504 15.7108 21.3145 16.5664C20.931 17.3189 20.3189 17.931 19.5664 18.3145C18.7108 18.7504 17.5898 18.75 15.3496 18.75H8.65039C6.41018 18.75 5.28924 18.7504 4.43359 18.3145C3.68109 17.931 3.06902 17.3189 2.68555 16.5664C2.24957 15.7108 2.25 14.5898 2.25 12.3496V11.6504C2.25 9.41018 2.24957 8.28924 2.68555 7.43359C3.06902 6.68109 3.68109 6.06902 4.43359 5.68555C5.28924 5.24957 6.41018 5.25 8.65039 5.25H15.3496ZM21 1.25C21.4142 1.25 21.75 1.58579 21.75 2C21.75 2.41421 21.4142 2.75 21 2.75H3C2.58579 2.75 2.25 2.41421 2.25 2C2.25 1.58579 2.58579 1.25 3 1.25H21Z" fill="currentColor" />
</svg>