<svg xmlns="http://www.w3.org/2000/svg" width="24" height="24" viewBox="0 0 24 24" fill="none">
<path d="M21 10V9.5C21 9.03558 21 8.80337 20.9743 8.60842C20.7971 7.26222 19.7378 6.2029 18.3916 6.02567C18.1966 6 17.9644 6 17.5 6H7.8C6.11984 6 5.27976 6 4.63803 6.32698C4.07354 6.6146 3.6146 7.07354 3.32698 7.63803C3 8.27976 3 9.11984 3 10.8V13.2C3 14.8802 3 15.7202 3.32698 16.362C3.6146 16.9265 4.07354 17.3854 4.63803 17.673C5.27976 18 6.11984 18 7.8 18H17.5C17.9644 18 18.1966 18 18.3916 17.9743C19.7378 17.7971 20.7971 16.7378 20.9743 15.3916C21 15.1966 21 14.9644 21 14.5V14M3 2H21M3 22H21" stroke="currentColor" stroke-width={1.5} stroke-linecap="round" stroke-linejoin="round" />
</svg>