<svg xmlns="http://www.w3.org/2000/svg" width="24" height="24" viewBox="0 0 24 24" fill="none">
<path d="M5 13C5.55228 13 6 13.4477 6 14L6 22C6 22.5523 5.55228 23 5 23C4.44772 23 4 22.5523 4 22L4 14C4 13.4477 4.44772 13 5 13ZM12 12.5C13.933 12.5 15.5 14.067 15.5 16C15.5 17.5854 14.4455 18.9231 13 19.3535V22C13 22.5523 12.5523 23 12 23C11.4477 23 11 22.5523 11 22V19.3535C9.55447 18.9231 8.5 17.5854 8.5 16C8.5 14.067 10.067 12.5 12 12.5ZM19 13C19.5523 13 20 13.4477 20 14V22C20 22.5523 19.5523 23 19 23C18.4477 23 18 22.5523 18 22V14C18 13.4477 18.4477 13 19 13ZM5 1C5.55228 1 6 1.44772 6 2L6 4.64551C7.44566 5.07583 8.5 6.41455 8.5 8C8.5 9.933 6.933 11.5 5 11.5C3.067 11.5 1.5 9.933 1.5 8C1.5 6.41455 2.55434 5.07583 4 4.64551L4 2C4 1.44772 4.44772 1 5 1ZM19 1C19.5523 1 20 1.44772 20 2V4.64551C21.4457 5.07583 22.5 6.41455 22.5 8C22.5 9.933 20.933 11.5 19 11.5C17.067 11.5 15.5 9.933 15.5 8C15.5 6.41455 16.5543 5.07583 18 4.64551V2C18 1.44772 18.4477 1 19 1ZM12 1C12.5523 1 13 1.44772 13 2L13 10C13 10.5523 12.5523 11 12 11C11.4477 11 11 10.5523 11 10L11 2C11 1.44772 11.4477 1 12 1Z" fill="currentColor" />
</svg>