<svg xmlns="http://www.w3.org/2000/svg" width="24" height="24" viewBox="0 0 24 24" fill="none">
<path d="M15 21.25C15.4142 21.25 15.75 21.5858 15.75 22C15.75 22.4142 15.4142 22.75 15 22.75H9C8.58579 22.75 8.25 22.4142 8.25 22C8.25 21.5858 8.58579 21.25 9 21.25H15ZM18 17.25C18.4142 17.25 18.75 17.5858 18.75 18C18.75 18.4142 18.4142 18.75 18 18.75H6C5.58579 18.75 5.25 18.4142 5.25 18C5.25 17.5858 5.58579 17.25 6 17.25H18ZM16.1504 1.25C18.1103 1.25 19.0902 1.25039 19.8389 1.63184C20.4974 1.96739 21.0326 2.50262 21.3682 3.16113C21.7496 3.90977 21.75 4.88969 21.75 6.84961V9.15039C21.75 11.1103 21.7496 12.0902 21.3682 12.8389C21.0326 13.4974 20.4974 14.0326 19.8389 14.3682C19.0902 14.7496 18.1103 14.75 16.1504 14.75H7.84961C5.88964 14.75 4.90978 14.7496 4.16113 14.3682C3.5026 14.0326 2.96739 13.4974 2.63184 12.8389C2.25038 12.0902 2.25 11.1103 2.25 9.15039V6.84961C2.25 4.88969 2.25038 3.90977 2.63184 3.16113C2.96739 2.50261 3.5026 1.96738 4.16113 1.63184C4.90978 1.25038 5.88964 1.25 7.84961 1.25H16.1504Z" fill="currentColor" />
</svg>