<svg xmlns="http://www.w3.org/2000/svg" width="24" height="24" viewBox="0 0 24 24" fill="none">
<path d="M16 15.5C17.5854 15.5 18.9242 16.5543 19.3545 18L22 18L22.1025 18.0049C22.6066 18.0562 22.9999 18.4824 23 19C23 19.5177 22.6067 19.9438 22.1025 19.9951L22 20L19.3545 20C18.9242 21.4457 17.5854 22.5 16 22.5C14.067 22.5 12.5 20.933 12.5 19C12.5 17.067 14.067 15.5 16 15.5ZM10 18C10.5522 18 10.9999 18.4478 11 19C11 19.5523 10.5523 20 10 20L2 20C1.44771 20 0.999997 19.5523 0.999997 19C1.00007 18.4478 1.44776 18 2 18L10 18ZM8 8.5C9.933 8.5 11.5 10.067 11.5 12C11.5 13.933 9.93299 15.5 8 15.5C6.41455 15.5 5.07582 14.4457 4.64551 13L2 13C1.44771 13 0.999998 12.5523 0.999998 12C1.00007 11.4478 1.44776 11 2 11L4.64551 11C5.07583 9.55434 6.41456 8.50001 8 8.5ZM22.1025 11.0049C22.6066 11.0562 22.9999 11.4824 23 12C23 12.5177 22.6067 12.9438 22.1025 12.9951L22 13L14 13C13.4477 13 13 12.5523 13 12C13.0001 11.4478 13.4478 11 14 11L22 11L22.1025 11.0049ZM16 1.5C17.5855 1.5 18.9242 2.55434 19.3545 4L22 4L22.1025 4.00489C22.6066 4.05621 22.9999 4.48238 23 5C23 5.55229 22.5523 6 22 6L19.3545 6C18.9242 7.44566 17.5854 8.5 16 8.5C14.067 8.49999 12.5 6.93299 12.5 5C12.5 3.06701 14.067 1.50002 16 1.5ZM10 4C10.5522 4 10.9999 4.44778 11 5C11 5.55229 10.5523 6 10 6L2 6C1.44771 6 0.999999 5.55228 0.999999 5C1.00007 4.44777 1.44776 4 2 4L10 4Z" fill="currentColor" />
</svg>