<svg xmlns="http://www.w3.org/2000/svg" width="24" height="24" viewBox="0 0 24 24" fill="none">
<path d="M8.34961 2.25C10.5893 2.25 11.7099 2.24985 12.5654 2.68555C13.3179 3.06895 13.93 3.6812 14.3135 4.43359C14.7495 5.28924 14.75 6.41018 14.75 8.65039V15.3496C14.75 17.5898 14.7495 18.7108 14.3135 19.5664C13.93 20.3188 13.3179 20.9311 12.5654 21.3145C11.7099 21.7501 10.5893 21.75 8.34961 21.75H7.65039C5.41018 21.75 4.28924 21.7504 3.43359 21.3145C2.68107 20.931 2.06902 20.3189 1.68555 19.5664C1.24957 18.7108 1.25 17.5898 1.25 15.3496V8.65039C1.25 6.41018 1.24957 5.28924 1.68555 4.43359C2.06902 3.68108 2.68107 3.06901 3.43359 2.68555C4.28924 2.24957 5.41018 2.25 7.65039 2.25H8.34961ZM18 5.25C18.4142 5.25003 18.75 5.58581 18.75 6V18C18.75 18.4142 18.4142 18.75 18 18.75C17.5858 18.75 17.25 18.4142 17.25 18V6C17.25 5.58579 17.5858 5.25 18 5.25ZM22 8.25C22.4142 8.25003 22.75 8.58581 22.75 9V15C22.75 15.4142 22.4142 15.75 22 15.75C21.5858 15.75 21.25 15.4142 21.25 15V9C21.25 8.58579 21.5858 8.25 22 8.25Z" fill="currentColor" />
</svg>