<svg xmlns="http://www.w3.org/2000/svg" width="24" height="24" viewBox="0 0 24 24" fill="none">
<path d="M19 5V2M19 5C20.6569 5 22 6.34315 22 8C22 9.65685 20.6569 11 19 11M19 5C17.3431 5 16 6.34315 16 8C16 8.35064 16.0602 8.68722 16.1707 9M12 22V19M12 19C10.3431 19 9 17.6569 9 16C9 14.3431 10.3431 13 12 13C13.6569 13 15 14.3431 15 16C15 17.6569 13.6569 19 12 19ZM5 2V5C6.65685 5 8 6.34315 8 8C8 9.65685 6.65685 11 5 11C3.34315 11 2 9.65685 2 8C2 7.64936 2.06015 7.31278 2.17071 7M19 22V14M12 10V2M5 22V14" stroke="currentColor" stroke-width={2} stroke-linecap="round" stroke-linejoin="round" />
</svg>