<svg xmlns="http://www.w3.org/2000/svg" width="24" height="24" viewBox="0 0 24 24" fill="none">
<path opacity={0.32} d="M7.85 1.25C5.88982 1.25 4.90972 1.25 4.16103 1.63148C3.50247 1.96703 2.96703 2.50247 2.63148 3.16103C2.25 3.90972 2.25 4.88982 2.25 6.85V9.15C2.25 11.1102 2.25 12.0903 2.63148 12.839C2.96703 13.4975 3.50247 14.033 4.16103 14.3685C4.90972 14.75 5.88982 14.75 7.85 14.75H16.15C18.1102 14.75 19.0903 14.75 19.839 14.3685C20.4975 14.033 21.033 13.4975 21.3685 12.839C21.75 12.0903 21.75 11.1102 21.75 9.15V6.85C21.75 4.88982 21.75 3.90972 21.3685 3.16103C21.033 2.50247 20.4975 1.96703 19.839 1.63148C19.0903 1.25 18.1102 1.25 16.15 1.25H7.85Z" fill="currentColor" /><path d="M15 21.25C15.4142 21.25 15.75 21.5858 15.75 22C15.75 22.4142 15.4142 22.75 15 22.75H9C8.58579 22.75 8.25 22.4142 8.25 22C8.25 21.5858 8.58579 21.25 9 21.25H15ZM18 17.25C18.4142 17.25 18.75 17.5858 18.75 18C18.75 18.4142 18.4142 18.75 18 18.75H6C5.58579 18.75 5.25 18.4142 5.25 18C5.25 17.5858 5.58579 17.25 6 17.25H18Z" fill="currentColor" />
</svg>