<svg xmlns="http://www.w3.org/2000/svg" width="24" height="24" viewBox="0 0 24 24" fill="none">
<path d="M19 18.9998H22M19 18.9998C19 20.6566 17.6569 21.9998 16 21.9998C14.3431 21.9998 13 20.6566 13 18.9998C13 17.3429 14.3431 15.9998 16 15.9998C17.6569 15.9998 19 17.3429 19 18.9998ZM2 11.9998H5M5 11.9998C5 13.6566 6.34315 14.9998 8 14.9998C9.65685 14.9998 11 13.6566 11 11.9998C11 10.3429 9.65685 8.99976 8 8.99976C6.34315 8.99976 5 10.3429 5 11.9998ZM19 4.99976H22M19 4.99976C19 6.65661 17.6569 7.99976 16 7.99976C14.3431 7.99976 13 6.65661 13 4.99976C13 3.3429 14.3431 1.99976 16 1.99976C17.6569 1.99976 19 3.3429 19 4.99976ZM2 18.9998H10M14 11.9998H22M2 4.99976H10" stroke="currentColor" stroke-width={2} stroke-linecap="round" />
</svg>