<svg xmlns="http://www.w3.org/2000/svg" width="24" height="24" viewBox="0 0 24 24" fill="none">
<path d="M9 13.5C10.3978 13.5 11.0971 13.5002 11.6484 13.7285C12.3832 14.033 12.967 14.6168 13.2715 15.3516C13.4998 15.9029 13.5 16.6022 13.5 18C13.5 19.3978 13.4998 20.0971 13.2715 20.6484C12.967 21.3832 12.3832 21.967 11.6484 22.2715C11.0971 22.4998 10.3978 22.5 9 22.5C7.60218 22.5 6.90288 22.4998 6.35156 22.2715C5.61679 21.967 5.03299 21.3832 4.72852 20.6484C4.56252 20.2477 4.51824 19.7685 4.50586 19H2C1.44772 19 1 18.5523 1 18C1 17.4477 1.44772 17 2 17H4.50586C4.51824 16.2315 4.56252 15.7523 4.72852 15.3516C5.03299 14.6168 5.61679 14.033 6.35156 13.7285C6.90288 13.5002 7.60218 13.5 9 13.5ZM22 17C22.5523 17 23 17.4477 23 18C23 18.5177 22.6067 18.9438 22.1025 18.9951L22 19H16C15.4477 19 15 18.5523 15 18C15 17.4477 15.4477 17 16 17H22ZM15 1.5C16.3978 1.5 17.0971 1.50015 17.6484 1.72852C18.3832 2.03299 18.967 2.61679 19.2715 3.35156C19.4375 3.75232 19.4818 4.23148 19.4941 5H22C22.5523 5 23 5.44772 23 6C23 6.55228 22.5523 7 22 7H19.4941C19.4818 7.76852 19.4375 8.24768 19.2715 8.64844C18.967 9.38321 18.3832 9.96701 17.6484 10.2715C17.0971 10.4998 16.3978 10.5 15 10.5C13.6022 10.5 12.9029 10.4998 12.3516 10.2715C11.6168 9.96701 11.033 9.38321 10.7285 8.64844C10.5002 8.09712 10.5 7.39782 10.5 6C10.5 4.60218 10.5002 3.90288 10.7285 3.35156C11.033 2.61679 11.6168 2.03299 12.3516 1.72852C12.9029 1.50015 13.6022 1.5 15 1.5ZM8 5C8.55228 5 9 5.44772 9 6C9 6.55228 8.55228 7 8 7H2C1.44772 7 1 6.55228 1 6C1 5.44772 1.44772 5 2 5H8Z" fill="currentColor" />
</svg>