<svg xmlns="http://www.w3.org/2000/svg" width="24" height="24" viewBox="0 0 24 24" fill="none">
<path d="M6 5V2M6 22V16M18 22V19M18 8V2M10 7.5V7C10 5.89543 9.10457 5 8 5H5.2C4.07989 5 3.51984 5 3.09202 5.21799C2.71569 5.40973 2.40973 5.71569 2.21799 6.09202C2 6.51984 2 7.07989 2 8.2V9.8C2 10.9201 2 11.4802 2.21799 11.908C2.40973 12.2843 2.71569 12.5903 3.09202 12.782C3.51984 13 4.07989 13 5.2 13H8C9.10457 13 10 12.1046 10 11V10.5M14 13.5V13C14 11.8954 14.8954 11 16 11H18.8C19.9201 11 20.4802 11 20.908 11.218C21.2843 11.4097 21.5903 11.7157 21.782 12.092C22 12.5198 22 13.0799 22 14.2V15.8C22 16.9201 22 17.4802 21.782 17.908C21.5903 18.2843 21.2843 18.5903 20.908 18.782C20.4802 19 19.9201 19 18.8 19H16C14.8954 19 14 18.1046 14 17V16.5" stroke="currentColor" stroke-width={2} stroke-linecap="round" />
</svg>