<svg xmlns="http://www.w3.org/2000/svg" width="24" height="24" viewBox="0 0 24 24" fill="none">
<path opacity={0.32} d="M7.65 2.25C5.40979 2.25 4.28969 2.25 3.43404 2.68597C2.68139 3.06947 2.06947 3.68139 1.68597 4.43404C1.25 5.28969 1.25 6.40979 1.25 8.65V15.35C1.25 17.5902 1.25 18.7103 1.68597 19.566C2.06947 20.3186 2.68139 20.9305 3.43404 21.314C4.28969 21.75 5.40979 21.75 7.65 21.75H8.35C10.5902 21.75 11.7103 21.75 12.566 21.314C13.3186 20.9305 13.9305 20.3186 14.314 19.566C14.75 18.7103 14.75 17.5902 14.75 15.35V8.65C14.75 6.40979 14.75 5.28969 14.314 4.43404C13.9305 3.68139 13.3186 3.06947 12.566 2.68597C11.7103 2.25 10.5902 2.25 8.35 2.25H7.65Z" fill="currentColor" /><path d="M18 5.25C18.4142 5.25 18.75 5.58579 18.75 6V18C18.75 18.4142 18.4142 18.75 18 18.75C17.5858 18.75 17.25 18.4142 17.25 18V6C17.25 5.58579 17.5858 5.25 18 5.25ZM22 8.25C22.4142 8.25 22.75 8.58579 22.75 9V15C22.75 15.4142 22.4142 15.75 22 15.75C21.5858 15.75 21.25 15.4142 21.25 15V9C21.25 8.58579 21.5858 8.25 22 8.25Z" fill="currentColor" />
</svg>