<svg xmlns="http://www.w3.org/2000/svg" width="24" height="24" viewBox="0 0 24 24" fill="none">
<path d="M14.75 1.25C17.55 1.25 18.95 1.25013 20.0195 1.79492C20.9603 2.27429 21.7257 3.03966 22.2051 3.98047C22.7499 5.04998 22.75 6.45005 22.75 9.25V14.75C22.75 17.55 22.7499 18.95 22.2051 20.0195C21.7257 20.9603 20.9603 21.7257 20.0195 22.2051C18.95 22.7499 17.55 22.75 14.75 22.75H9.25C6.45005 22.75 5.04998 22.7499 3.98047 22.2051C3.03966 21.7257 2.27429 20.9603 1.79492 20.0195C1.25013 18.95 1.25 17.55 1.25 14.75V9.25C1.25 6.45005 1.25013 5.04998 1.79492 3.98047C2.27429 3.03966 3.03966 2.27429 3.98047 1.79492C5.04998 1.25013 6.45005 1.25 9.25 1.25H14.75ZM6 6.25C5.58579 6.25 5.25 6.58579 5.25 7C5.25 7.41421 5.58579 7.75 6 7.75H9.25V17C9.25 17.4142 9.58579 17.75 10 17.75C10.4142 17.75 10.75 17.4142 10.75 17V7.75H14C14.4142 7.75 14.75 7.41421 14.75 7C14.75 6.58579 14.4142 6.25 14 6.25H6ZM14 12.25C13.5858 12.25 13.25 12.5858 13.25 13C13.25 13.4142 13.5858 13.75 14 13.75H15.25V17C15.25 17.4142 15.5858 17.75 16 17.75C16.4142 17.75 16.75 17.4142 16.75 17V13.75H18C18.4142 13.75 18.75 13.4142 18.75 13C18.75 12.5858 18.4142 12.25 18 12.25H14Z" fill="currentColor" />
</svg>