<svg xmlns="http://www.w3.org/2000/svg" width="24" height="24" viewBox="0 0 24 24" fill="none">
<path d="M14.75 1.25C17.55 1.25 18.95 1.25013 20.0195 1.79492C20.9603 2.27429 21.7257 3.03966 22.2051 3.98047C22.7499 5.04998 22.75 6.45005 22.75 9.25V14.75C22.75 17.55 22.7499 18.95 22.2051 20.0195C21.7257 20.9603 20.9603 21.7257 20.0195 22.2051C18.95 22.7499 17.55 22.75 14.75 22.75H9.25C6.45005 22.75 5.04998 22.7499 3.98047 22.2051C3.03966 21.7257 2.27429 20.9603 1.79492 20.0195C1.25013 18.95 1.25 17.55 1.25 14.75V9.25C1.25 6.45005 1.25013 5.04998 1.79492 3.98047C2.27429 3.03966 3.03966 2.27429 3.98047 1.79492C5.04998 1.25013 6.45005 1.25 9.25 1.25H14.75ZM6.38672 5.25C6.11115 5.25219 5.8487 5.26562 5.61328 5.33984C5.00667 5.53118 4.53118 6.00667 4.33984 6.61328C4.26562 6.8487 4.25219 7.11115 4.25 7.38672V8C4.25 8.41421 4.58579 8.75 5 8.75C5.41421 8.75 5.75 8.41421 5.75 8V7.66699C5.75 7.17607 5.75843 7.10276 5.77051 7.06445C5.81467 6.92452 5.92452 6.81467 6.06445 6.77051C6.10276 6.75843 6.17607 6.75 6.66699 6.75H9.25V17.25H8.5C8.08579 17.25 7.75 17.5858 7.75 18C7.75 18.4142 8.08579 18.75 8.5 18.75H11.5C11.9142 18.75 12.25 18.4142 12.25 18C12.25 17.5858 11.9142 17.25 11.5 17.25H10.75V6.75H13.333C13.8239 6.75 13.8972 6.75843 13.9355 6.77051C14.0755 6.81467 14.1853 6.92452 14.2295 7.06445C14.2416 7.10276 14.25 7.17607 14.25 7.66699V8C14.25 8.41421 14.5858 8.75 15 8.75C15.4142 8.75 15.75 8.41421 15.75 8V7.38672C15.7478 7.11115 15.7344 6.8487 15.6602 6.61328C15.4688 6.00667 14.9933 5.53118 14.3867 5.33984C14.1513 5.26562 13.8889 5.25219 13.6133 5.25H6.38672ZM14.5 12.25C13.8096 12.25 13.25 12.8096 13.25 13.5V14C13.25 14.4142 13.5858 14.75 14 14.75C14.4142 14.75 14.75 14.4142 14.75 14V13.75H15.75V17.25H15.5C15.0858 17.25 14.75 17.5858 14.75 18C14.75 18.4142 15.0858 18.75 15.5 18.75H17.5C17.9142 18.75 18.25 18.4142 18.25 18C18.25 17.5858 17.9142 17.25 17.5 17.25H17.25V13.75H18.25V14C18.25 14.4142 18.5858 14.75 19 14.75C19.4142 14.75 19.75 14.4142 19.75 14V13.5C19.75 12.8096 19.1904 12.25 18.5 12.25H14.5Z" fill="currentColor" />
</svg>