<svg xmlns="http://www.w3.org/2000/svg" width="40" height="40" viewBox="0 0 40 40" fill="none">
<path d="M31.6668 16.6665V13.9998C31.6668 10.2661 31.6668 8.39927 30.9402 6.97319C30.3011 5.71878 29.2812 4.69891 28.0268 4.05975C26.6007 3.33313 24.7338 3.33313 21.0002 3.33313H19.0002C15.2665 3.33313 13.3996 3.33313 11.9736 4.05975C10.7191 4.69891 9.69928 5.71878 9.06012 6.97319C8.3335 8.39927 8.3335 10.2661 8.3335 13.9998V25.9998C8.3335 29.7335 8.3335 31.6003 9.06012 33.0264C9.69928 34.2808 10.7191 35.3007 11.9736 35.9398C13.3996 36.6665 15.2665 36.6665 19.0002 36.6665H21.0002C24.7338 36.6665 26.6007 36.6665 28.0268 35.9398C29.2812 35.3007 30.3011 34.2808 30.9402 33.0264C31.6668 31.6003 31.6668 29.7335 31.6668 25.9998V23.3331M20.0002 9.9998H20.0168M16.6668 31.6665H23.3335M20.8335 9.9998C20.8335 10.46 20.4604 10.8331 20.0002 10.8331C19.5399 10.8331 19.1668 10.46 19.1668 9.9998C19.1668 9.53956 19.5399 9.16646 20.0002 9.16646C20.4604 9.16646 20.8335 9.53956 20.8335 9.9998Z" stroke="currentColor" stroke-width={3} stroke-linecap="round" stroke-linejoin="round" />
</svg>