<svg xmlns="http://www.w3.org/2000/svg" width="40" height="40" viewBox="0 0 40 40" fill="none">
<path d="M22.2505 2.08313C25.984 2.08313 27.8508 2.08309 29.2769 2.80969C30.5311 3.44878 31.5508 4.46858 32.1899 5.72278C32.9166 7.14886 32.9165 9.01644 32.9165 12.7501V27.2501C32.9165 30.9836 32.9165 32.8505 32.1899 34.2765C31.5508 35.5308 30.5311 36.5504 29.2769 37.1896C27.8508 37.9162 25.984 37.9161 22.2505 37.9161H17.7505C14.0168 37.9161 12.1492 37.9162 10.7231 37.1896C9.46895 36.5504 8.44914 35.5307 7.81006 34.2765C7.08346 32.8505 7.0835 30.9836 7.0835 27.2501V12.7501C7.0835 9.01644 7.08344 7.14886 7.81006 5.72278C8.44917 4.46861 9.46897 3.44881 10.7231 2.80969C12.1492 2.08307 14.0168 2.08313 17.7505 2.08313H22.2505ZM16.6665 30.4171C15.9763 30.4173 15.4165 30.9769 15.4165 31.6671C15.4168 32.3571 15.9765 32.9169 16.6665 32.9171H23.3335L23.4614 32.9103C24.0914 32.8461 24.5832 32.3139 24.5835 31.6671C24.5835 31.0201 24.0915 30.4882 23.4614 30.424L23.3335 30.4171H16.6665ZM19.9995 7.91711C18.9212 7.91745 18.034 8.73701 17.9272 9.78723L17.9165 10.0001L17.9272 10.213C18.0339 11.2633 18.9211 12.0838 19.9995 12.0841C21.1499 12.0841 22.0832 11.1505 22.0835 10.0001C22.0833 8.84968 21.15 7.91711 19.9995 7.91711Z" fill="currentColor" />
</svg>