<svg xmlns="http://www.w3.org/2000/svg" width="24" height="24" viewBox="0 0 24 24" fill="none">
<path d="M22 9.5V9C22 8.07116 22 7.60674 21.9487 7.21684C21.5942 4.52444 19.4756 2.40579 16.7832 2.05133C16.3933 2 15.9288 2 15 2H11.6C8.23969 2 6.55953 2 5.27606 2.65396C4.14708 3.2292 3.2292 4.14708 2.65396 5.27606C2 6.55953 2 8.23969 2 11.6V12.4C2 15.7603 2 17.4405 2.65396 18.7239C3.2292 19.8529 4.14708 20.7708 5.27606 21.346C6.55953 22 8.23969 22 11.6 22H15C15.9288 22 16.3933 22 16.7832 21.9487C19.4756 21.5942 21.5942 19.4756 21.9487 16.7832C22 16.3933 22 15.9288 22 15V14.5M6 15L9 18V12V9V5M14.6667 10V5L13 6.5625M14.6667 10H16M14.6667 10H13.3333M16 14.5V15.3C16 15.9511 16 16.2766 15.9249 16.5429C15.736 17.2126 15.2126 17.736 14.5429 17.9249C14.2766 18 13.9511 18 13.3 18H13M16 14.5C16 15.3284 15.3284 16 14.5 16C13.6716 16 13 15.3284 13 14.5C13 13.6716 13.6716 13 14.5 13C15.3284 13 16 13.6716 16 14.5Z" stroke="currentColor" stroke-width={2} stroke-linecap="round" stroke-linejoin="round" />
</svg>