<svg xmlns="http://www.w3.org/2000/svg" width="24" height="24" viewBox="0 0 24 24" fill="none">
<path d="M13.1504 1.25C16.5103 1.25 18.1902 1.25042 19.4736 1.9043C20.6026 2.47954 21.5205 3.39739 22.0957 4.52637C22.7496 5.80977 22.75 7.48965 22.75 10.8496V13.1504C22.75 16.5103 22.7496 18.1902 22.0957 19.4736C21.5205 20.6026 20.6026 21.5205 19.4736 22.0957C18.1902 22.7496 16.5103 22.75 13.1504 22.75H10.8496C7.48965 22.75 5.80977 22.7496 4.52637 22.0957C3.39739 21.5205 2.47954 20.6026 1.9043 19.4736C1.25042 18.1902 1.25 16.5103 1.25 13.1504V10.8496C1.25 7.48965 1.25042 5.80977 1.9043 4.52637C2.47954 3.39739 3.39739 2.47954 4.52637 1.9043C5.80977 1.25042 7.48965 1.25 10.8496 1.25H13.1504ZM14.5 12C13.1193 12 12 13.1193 12 14.5C12 15.6586 12.7891 16.6295 13.8584 16.9131C13.6931 16.968 13.5167 17 13.333 17H13C12.4477 17 12 17.4477 12 18C12 18.5523 12.4477 19 13 19H13.333C15.358 19 17 17.358 17 15.333V14.5C17 13.1193 15.8807 12 14.5 12ZM9 4C8.44772 4 8 4.44772 8 5V15.5859L6.70703 14.293L6.63086 14.2246C6.23809 13.9043 5.65908 13.9269 5.29297 14.293C4.90245 14.6835 4.90245 15.3165 5.29297 15.707L8.29297 18.707C8.57897 18.993 9.00914 19.0786 9.38281 18.9238C9.75641 18.769 9.99999 18.4044 10 18V5C10 4.44772 9.55229 4 9 4ZM14.5 14C14.7761 14 15 14.2239 15 14.5C15 14.7761 14.7761 15 14.5 15C14.2239 15 14 14.7761 14 14.5C14 14.2239 14.2239 14 14.5 14ZM15.0645 4.08203C14.6987 3.92358 14.2732 3.99789 13.9824 4.27051L12.3164 5.83301C11.9136 6.21069 11.8929 6.84318 12.2705 7.24609C12.6433 7.6437 13.2635 7.66811 13.667 7.30566V9H13.333C12.7809 9.00018 12.333 9.44783 12.333 10C12.333 10.5522 12.7809 10.9998 13.333 11H16C16.5523 11 17 10.5523 17 10C17 9.44772 16.5523 9 16 9H15.667V5C15.667 4.60143 15.4302 4.2405 15.0645 4.08203Z" fill="currentColor" />
</svg>