<svg xmlns="http://www.w3.org/2000/svg" width="24" height="24" viewBox="0 0 24 24" fill="none">
<path d="M13.1504 1.25C16.5103 1.25 18.1902 1.25042 19.4736 1.9043C20.6026 2.47954 21.5205 3.39739 22.0957 4.52637C22.7496 5.80977 22.75 7.48965 22.75 10.8496V13.1504C22.75 16.5103 22.7496 18.1902 22.0957 19.4736C21.5205 20.6026 20.6026 21.5205 19.4736 22.0957C18.1902 22.7496 16.5103 22.75 13.1504 22.75H10.8496C7.48965 22.75 5.80977 22.7496 4.52637 22.0957C3.39739 21.5205 2.47954 20.6026 1.9043 19.4736C1.25042 18.1902 1.25 16.5103 1.25 13.1504V10.8496C1.25 7.48965 1.25042 5.80977 1.9043 4.52637C2.47954 3.39739 3.39739 2.47954 4.52637 1.9043C5.80977 1.25042 7.48965 1.25 10.8496 1.25H13.1504ZM15.0645 12.082C14.6987 11.9236 14.2732 11.9979 13.9824 12.2705L12.3164 13.833C11.9135 14.2107 11.8929 14.8432 12.2705 15.2461C12.6433 15.6437 13.2635 15.6681 13.667 15.3057V17H13.333C12.7809 17.0002 12.333 17.4478 12.333 18C12.333 18.5522 12.7809 18.9998 13.333 19H16C16.5523 19 17 18.5523 17 18C17 17.4477 16.5523 17 16 17H15.667V13C15.667 12.6014 15.4302 12.2405 15.0645 12.082ZM9 4C8.44772 4 8 4.44772 8 5V15.5859L6.70703 14.293L6.63086 14.2246C6.23809 13.9043 5.65908 13.9269 5.29297 14.293C4.90244 14.6835 4.90244 15.3165 5.29297 15.707L8.29297 18.707C8.57897 18.993 9.00914 19.0786 9.38281 18.9238C9.75641 18.769 10 18.4044 10 18V5C10 4.44772 9.55229 4 9 4ZM14.5 4C13.1193 4 12 5.11929 12 6.5C12 7.77479 12.9544 8.82462 14.1875 8.97852C14.0709 8.99387 13.8526 9 13.2998 9H13C12.4477 9 12 9.44771 12 10C12 10.5523 12.4477 11 13 11H13.7217C14.1282 10.9969 14.4897 10.9793 14.8145 10.8877C15.819 10.6044 16.6044 9.81902 16.8877 8.81445C16.9793 8.48971 16.9969 8.12822 17 7.72168V6.5C17 5.11929 15.8807 4 14.5 4ZM14.5 6C14.7761 6 15 6.22386 15 6.5C15 6.77614 14.7761 7 14.5 7C14.2239 7 14 6.77614 14 6.5C14 6.22386 14.2239 6 14.5 6Z" fill="currentColor" />
</svg>