<svg xmlns="http://www.w3.org/2000/svg" width="24" height="24" viewBox="0 0 24 24" fill="none">
<path d="M22 9.5V9C22 8.07116 22 7.60674 21.9487 7.21684C21.5942 4.52444 19.4756 2.40579 16.7832 2.05133C16.3933 2 15.9288 2 15 2H11.6C8.23969 2 6.55953 2 5.27606 2.65396C4.14708 3.2292 3.2292 4.14708 2.65396 5.27606C2 6.55953 2 8.23969 2 11.6V12.4C2 15.7603 2 17.4405 2.65396 18.7239C3.2292 19.8529 4.14708 20.7708 5.27606 21.346C6.55953 22 8.23969 22 11.6 22H15C15.9288 22 16.3933 22 16.7832 21.9487C19.4756 21.5942 21.5942 19.4756 21.9487 16.7832C22 16.3933 22 15.9288 22 15V14.5M6 15L9 18V12V9V5M14.6667 18V13L13 14.5625M14.6667 18H16M14.6667 18H13.3333M16 6.5V7.3C16 7.95109 16 8.27663 15.9249 8.54288C15.736 9.21261 15.2126 9.73603 14.5429 9.92491C14.2766 10 13.9511 10 13.3 10H13M16 6.5C16 7.32843 15.3284 8 14.5 8C13.6716 8 13 7.32843 13 6.5C13 5.67157 13.6716 5 14.5 5C15.3284 5 16 5.67157 16 6.5Z" stroke="currentColor" stroke-width={2} stroke-linecap="round" stroke-linejoin="round" />
</svg>