<svg xmlns="http://www.w3.org/2000/svg" width="24" height="24" viewBox="0 0 24 24" fill="none">
<path d="M13.1504 1.25C16.5103 1.25 18.1902 1.25042 19.4736 1.9043C20.6026 2.47954 21.5205 3.39739 22.0957 4.52637C22.7496 5.80977 22.75 7.48965 22.75 10.8496V13.1504C22.75 16.5103 22.7496 18.1902 22.0957 19.4736C21.5205 20.6026 20.6026 21.5205 19.4736 22.0957C18.1902 22.7496 16.5103 22.75 13.1504 22.75H10.8496C7.48965 22.75 5.80977 22.7496 4.52637 22.0957C3.39739 21.5205 2.47954 20.6026 1.9043 19.4736C1.25042 18.1902 1.25 16.5103 1.25 13.1504V10.8496C1.25 7.48965 1.25042 5.80977 1.9043 4.52637C2.47954 3.39739 3.39739 2.47954 4.52637 1.9043C5.80977 1.25042 7.48965 1.25 10.8496 1.25H13.1504ZM14.5 12.25C13.2574 12.25 12.25 13.2574 12.25 14.5V18C12.25 18.4142 12.5858 18.75 13 18.75C13.4142 18.75 13.75 18.4142 13.75 18V16.875H15.25V18C15.25 18.4142 15.5858 18.75 16 18.75C16.4142 18.75 16.75 18.4142 16.75 18V14.5C16.75 13.2574 15.7426 12.25 14.5 12.25ZM9 4.25C8.58579 4.25 8.25 4.58579 8.25 5V16.1895L6.53027 14.4697L6.47363 14.418C6.17905 14.1777 5.74433 14.1951 5.46973 14.4697C5.17684 14.7626 5.17684 15.2374 5.46973 15.5303L8.46973 18.5303C8.6842 18.7447 9.00688 18.8094 9.28711 18.6934C9.56736 18.5773 9.74999 18.3033 9.75 18V5C9.75 4.58579 9.41421 4.25 9 4.25ZM14.5 13.75C14.9142 13.75 15.25 14.0858 15.25 14.5V15.375H13.75V14.5C13.75 14.0858 14.0858 13.75 14.5 13.75ZM13 4.25C12.5858 4.25 12.25 4.5858 12.25 5C12.25 5.4142 12.5858 5.75 13 5.75H14.6748L12.3564 9.61426C12.2176 9.84585 12.2147 10.1341 12.3477 10.3691C12.4808 10.6043 12.7298 10.75 13 10.75H16C16.4142 10.75 16.75 10.4142 16.75 10C16.75 9.5858 16.4142 9.25 16 9.25H14.3252L16.6436 5.38574C16.7824 5.15415 16.7853 4.86586 16.6523 4.63086C16.5192 4.39573 16.2702 4.25 16 4.25H13Z" fill="currentColor" />
</svg>