<svg xmlns="http://www.w3.org/2000/svg" width="24" height="24" viewBox="0 0 24 24" fill="none">
<path d="M21 16V17.2C21 18.8802 21 19.7202 20.673 20.362C20.3854 20.9265 19.9265 21.3854 19.362 21.673C18.7202 22 17.8802 22 16.2 22H16M21 16C21 17.1046 20.1046 18 19 18H18C16.8954 18 16 17.1046 16 16C16 14.8954 16.8954 14 18 14H19C20.1046 14 21 14.8954 21 16ZM7 22L3 18M7 22L11 18M7 22V14M7 3V10M19 10V2L16.5 4.5M19 10H21M19 10H17" stroke="currentColor" stroke-width={2} stroke-linecap="round" stroke-linejoin="round" />
</svg>