<svg xmlns="http://www.w3.org/2000/svg" width="24" height="24" viewBox="0 0 24 24" fill="none">
<path d="M13.1504 1.25C16.5103 1.25 18.1902 1.25042 19.4736 1.9043C20.6026 2.47954 21.5205 3.39739 22.0957 4.52637C22.7496 5.80977 22.75 7.48965 22.75 10.8496V13.1504C22.75 16.5103 22.7496 18.1902 22.0957 19.4736C21.5205 20.6026 20.6026 21.5205 19.4736 22.0957C18.1902 22.7496 16.5103 22.75 13.1504 22.75H10.8496C7.48965 22.75 5.80977 22.7496 4.52637 22.0957C3.39739 21.5205 2.47954 20.6026 1.9043 19.4736C1.25042 18.1902 1.25 16.5103 1.25 13.1504V10.8496C1.25 7.48965 1.25042 5.80977 1.9043 4.52637C2.47954 3.39739 3.39739 2.47954 4.52637 1.9043C5.80977 1.25042 7.48965 1.25 10.8496 1.25H13.1504ZM13 12.25C12.5858 12.25 12.25 12.5858 12.25 13C12.25 13.4142 12.5858 13.75 13 13.75H14.6748L12.3564 17.6143C12.2176 17.8459 12.2147 18.1341 12.3477 18.3691C12.4808 18.6043 12.7298 18.75 13 18.75H16L16.0771 18.7461C16.4551 18.7075 16.75 18.3882 16.75 18C16.75 17.5858 16.4142 17.25 16 17.25H14.3252L16.6436 13.3857C16.7824 13.1542 16.7853 12.8659 16.6523 12.6309C16.5192 12.3957 16.2702 12.25 16 12.25H13ZM9 4.25C8.58579 4.25 8.25 4.58579 8.25 5V16.1895L6.53027 14.4697L6.47363 14.418C6.17905 14.1777 5.74433 14.1951 5.46973 14.4697C5.17684 14.7626 5.17684 15.2374 5.46973 15.5303L8.46973 18.5303C8.6842 18.7447 9.00688 18.8094 9.28711 18.6934C9.56736 18.5773 9.74999 18.3033 9.75 18V5C9.75 4.58579 9.41421 4.25 9 4.25ZM14.5 4.25C13.2574 4.25 12.25 5.25736 12.25 6.5V10C12.25 10.4142 12.5858 10.75 13 10.75C13.4142 10.75 13.75 10.4142 13.75 10V8.875H15.25V10C15.25 10.4142 15.5858 10.75 16 10.75C16.4142 10.75 16.75 10.4142 16.75 10V6.5C16.75 5.25736 15.7426 4.25 14.5 4.25ZM14.5 5.75C14.9142 5.75 15.25 6.08578 15.25 6.5V7.375H13.75V6.5C13.75 6.08578 14.0858 5.75 14.5 5.75Z" fill="currentColor" />
</svg>