<svg xmlns="http://www.w3.org/2000/svg" width="24" height="24" viewBox="0 0 24 24" fill="none">
<path d="M14.75 1.25C17.55 1.25 18.95 1.25014 20.0195 1.79493C20.9603 2.27429 21.7257 3.03966 22.2051 3.98047C22.7499 5.04999 22.75 6.45005 22.75 9.25L22.75 14.75C22.75 17.55 22.7499 18.95 22.2051 20.0195C21.7257 20.9603 20.9603 21.7257 20.0195 22.2051C18.95 22.7499 17.5499 22.75 14.75 22.75L9.25 22.75C6.45004 22.75 5.04998 22.7499 3.98047 22.2051C3.03965 21.7257 2.27429 20.9603 1.79492 20.0195C1.25013 18.95 1.25 17.55 1.25 14.75L1.25 9.25C1.25 6.45005 1.25013 5.04998 1.79492 3.98047C2.27429 3.03966 3.03966 2.27429 3.98047 1.79492C5.04998 1.25013 6.45005 1.25 9.25 1.25L14.75 1.25ZM12 6.25C11.5859 6.25 11.2501 6.5859 11.25 7L11.25 17C11.25 17.4142 11.5858 17.75 12 17.75C12.4142 17.75 12.75 17.4142 12.75 17L12.75 7C12.7499 6.58591 12.4141 6.25002 12 6.25ZM9 8.25C8.58586 8.25 8.25013 8.5859 8.25 9L8.25 15C8.25 15.4142 8.58578 15.75 9 15.75C9.4142 15.75 9.75 15.4142 9.75 15L9.75 9C9.74987 8.58591 9.41412 8.25002 9 8.25ZM15 8.25C14.5859 8.25 14.2501 8.5859 14.25 9L14.25 15C14.25 15.4142 14.5858 15.75 15 15.75C15.4142 15.75 15.75 15.4142 15.75 15L15.75 9C15.7499 8.58591 15.4141 8.25002 15 8.25ZM6 10.25C5.58586 10.25 5.25013 10.5859 5.25 11L5.25 13C5.25 13.4142 5.58578 13.75 6 13.75C6.4142 13.75 6.75 13.4142 6.75 13L6.75 11C6.74987 10.5859 6.41412 10.25 6 10.25ZM18 10.25C17.5859 10.25 17.2501 10.5859 17.25 11L17.25 13C17.25 13.4142 17.5858 13.75 18 13.75C18.4142 13.75 18.75 13.4142 18.75 13L18.75 11C18.7499 10.5859 18.4141 10.25 18 10.25Z" fill="currentColor" />
</svg>