<svg xmlns="http://www.w3.org/2000/svg" width="24" height="24" viewBox="0 0 24 24" fill="none">
<path d="M2 10.75C2.41421 10.75 2.75 11.0858 2.75 11.5V18C2.75 18.4142 2.41421 18.75 2 18.75C1.58579 18.75 1.25 18.4142 1.25 18V11.5C1.25 11.0858 1.58579 10.75 2 10.75ZM5.5 6.75C5.91421 6.75 6.25 7.08579 6.25 7.5V18C6.25 18.4142 5.91421 18.75 5.5 18.75C5.08579 18.75 4.75 18.4142 4.75 18V7.5C4.75 7.08579 5.08579 6.75 5.5 6.75ZM11.3955 4.25C14.8782 4.25011 17.7866 6.69638 18.4932 9.96289C21.0869 9.49826 23.75 11.496 23.75 14.3184C23.75 16.7665 21.7609 18.7497 19.3096 18.75H9C8.80073 18.75 8.60946 18.6704 8.46875 18.5293C8.32822 18.3882 8.24948 18.1972 8.25 17.998L8.28418 5.43848C8.28503 5.12947 8.47553 4.85274 8.76367 4.74121C9.56267 4.43261 10.4668 4.25 11.3955 4.25Z" fill="currentColor" />
</svg>