<svg xmlns="http://www.w3.org/2000/svg" width="24" height="24" viewBox="0 0 24 24" fill="none">
<path opacity={0.32} d="M9.25 1.25C6.44974 1.25 5.04961 1.25 3.98005 1.79497C3.03924 2.27433 2.27433 3.03924 1.79497 3.98005C1.25 5.04961 1.25 6.44974 1.25 9.25V14.75C1.25 17.5503 1.25 18.9504 1.79497 20.02C2.27433 20.9608 3.03924 21.7257 3.98005 22.205C5.04961 22.75 6.44974 22.75 9.25 22.75H14.75C17.5503 22.75 18.9504 22.75 20.02 22.205C20.9608 21.7257 21.7257 20.9608 22.205 20.02C22.75 18.9504 22.75 17.5503 22.75 14.75V9.25C22.75 6.44974 22.75 5.04961 22.205 3.98005C21.7257 3.03924 20.9608 2.27433 20.02 1.79497C18.9504 1.25 17.5503 1.25 14.75 1.25H9.25Z" fill="currentColor" /><path d="M12 6.25C12.4142 6.25 12.75 6.58579 12.75 7L12.75 17C12.75 17.4142 12.4142 17.75 12 17.75C11.5858 17.75 11.25 17.4142 11.25 17L11.25 7C11.25 6.58579 11.5858 6.25 12 6.25ZM9 8.25C9.41421 8.25 9.75 8.58579 9.75 9L9.75 15C9.75 15.4142 9.41421 15.75 9 15.75C8.58579 15.75 8.25 15.4142 8.25 15L8.25 9C8.25 8.58579 8.58579 8.25 9 8.25ZM15 8.25C15.4142 8.25 15.75 8.58579 15.75 9L15.75 15C15.75 15.4142 15.4142 15.75 15 15.75C14.5858 15.75 14.25 15.4142 14.25 15L14.25 9C14.25 8.58579 14.5858 8.25 15 8.25ZM6 10.25C6.41421 10.25 6.75 10.5858 6.75 11L6.75 13C6.75 13.4142 6.41421 13.75 6 13.75C5.58579 13.75 5.25 13.4142 5.25 13L5.25 11C5.25 10.5858 5.58579 10.25 6 10.25ZM18 10.25C18.4142 10.25 18.75 10.5858 18.75 11L18.75 13C18.75 13.4142 18.4142 13.75 18 13.75C17.5858 13.75 17.25 13.4142 17.25 13L17.25 11C17.25 10.5858 17.5858 10.25 18 10.25Z" fill="currentColor" />
</svg>