<svg xmlns="http://www.w3.org/2000/svg" width="24" height="24" viewBox="0 0 24 24" fill="none">
<path d="M10 17H10.01M14 17H14.01M20 10V9.5C20 7.17029 20 6.00544 19.6194 5.08658C19.1119 3.86144 18.1386 2.88807 16.9134 2.3806C15.9946 2 14.8297 2 12.5 2H12C9.19974 2 7.79961 2 6.73005 2.54497C5.78924 3.02433 5.02433 3.78924 4.54497 4.73005C4 5.79961 4 7.19974 4 10V14C4 16.8003 4 18.2004 4.54497 19.27C5.02433 20.2108 5.78924 20.9757 6.73005 21.455C7.79961 22 9.19974 22 12 22H12.5C14.8297 22 15.9946 22 16.9134 21.6194C18.1386 21.1119 19.1119 20.1386 19.6194 18.9134C20 17.9946 20 16.8297 20 14.5V14M10.5 17C10.5 17.2761 10.2761 17.5 10 17.5C9.72386 17.5 9.5 17.2761 9.5 17C9.5 16.7239 9.72386 16.5 10 16.5C10.2761 16.5 10.5 16.7239 10.5 17ZM14.5 17C14.5 17.2761 14.2761 17.5 14 17.5C13.7239 17.5 13.5 17.2761 13.5 17C13.5 16.7239 13.7239 16.5 14 16.5C14.2761 16.5 14.5 16.7239 14.5 17ZM15 9C15 10.6569 13.6569 12 12 12C10.3431 12 9 10.6569 9 9C9 7.34315 10.3431 6 12 6C13.6569 6 15 7.34315 15 9Z" stroke="currentColor" stroke-width={1.5} stroke-linecap="round" stroke-linejoin="round" />
</svg>