<svg xmlns="http://www.w3.org/2000/svg" width="24" height="24" viewBox="0 0 24 24" fill="none">
<path d="M14.75 1.25C17.55 1.25 18.95 1.25013 20.0195 1.79492C20.9603 2.27429 21.7257 3.03966 22.2051 3.98047C22.7499 5.04998 22.75 6.45005 22.75 9.25V14.75C22.75 17.55 22.7499 18.95 22.2051 20.0195C21.7257 20.9603 20.9603 21.7257 20.0195 22.2051C18.95 22.7499 17.55 22.75 14.75 22.75H9.25C6.45005 22.75 5.04998 22.7499 3.98047 22.2051C3.03966 21.7257 2.27429 20.9603 1.79492 20.0195C1.25013 18.95 1.25 17.55 1.25 14.75V9.25C1.25 6.45005 1.25013 5.04998 1.79492 3.98047C2.27429 3.03966 3.03966 2.27429 3.98047 1.79492C5.04998 1.25013 6.45005 1.25 9.25 1.25H14.75ZM12 5.25C8.29344 5.25 5.25016 8.17197 5.25 11.8232C5.25 13.5332 5.92051 15.0845 7.01172 16.25H6C5.58579 16.25 5.25 16.5858 5.25 17C5.25 17.4142 5.58579 17.75 6 17.75H9.24805C9.59569 17.75 9.89841 17.5111 9.97852 17.1729C10.0586 16.8347 9.89552 16.486 9.58496 16.3301C7.89109 15.4802 6.75 13.7737 6.75 11.8232C6.75016 9.04229 9.07934 6.75 12 6.75C14.9207 6.75 17.2498 9.04229 17.25 11.8232C17.25 13.7737 16.1089 15.4802 14.415 16.3301C14.1045 16.486 13.9414 16.8347 14.0215 17.1729C14.1016 17.5111 14.4043 17.75 14.752 17.75H18C18.4142 17.75 18.75 17.4142 18.75 17C18.75 16.5858 18.4142 16.25 18 16.25H16.9883C18.0795 15.0845 18.75 13.5332 18.75 11.8232C18.7498 8.17197 15.7066 5.25 12 5.25Z" fill="currentColor" />
</svg>