<svg xmlns="http://www.w3.org/2000/svg" width="24" height="24" viewBox="0 0 24 24" fill="none">
<path opacity={0.32} d="M10.85 1.25C7.48969 1.25 5.80953 1.25 4.52606 1.90396C3.39708 2.4792 2.4792 3.39708 1.90396 4.52606C1.25 5.80953 1.25 7.48969 1.25 10.85V13.15C1.25 16.5103 1.25 18.1905 1.90396 19.4739C2.4792 20.6029 3.39708 21.5208 4.52606 22.096C5.80953 22.75 7.48969 22.75 10.85 22.75H13.15C16.5103 22.75 18.1905 22.75 19.4739 22.096C20.6029 21.5208 21.5208 20.6029 22.096 19.4739C22.75 18.1905 22.75 16.5103 22.75 13.15V10.85C22.75 7.48969 22.75 5.80953 22.096 4.52606C21.5208 3.39708 20.6029 2.4792 19.4739 1.90396C18.1905 1.25 16.5103 1.25 13.15 1.25H10.85Z" fill="currentColor" /><path d="M12 5.25C15.7279 5.25 18.75 8.27208 18.75 12C18.75 15.7279 15.7279 18.75 12 18.75L8.97461 18.75C8.56039 18.75 8.22461 18.4142 8.22461 18C8.22461 17.5858 8.56039 17.25 8.97461 17.25L12 17.25C14.8995 17.25 17.25 14.8995 17.25 12C17.25 9.10051 14.8995 6.75 12 6.75C9.10051 6.75 6.75 9.10051 6.75 12C6.75 12.4142 6.41421 12.75 6 12.75C5.58579 12.75 5.25 12.4142 5.25 12C5.25 8.27208 8.27208 5.25 12 5.25ZM9.07715 14.2539C9.45512 14.2925 9.75 14.6118 9.75 15C9.75 15.3882 9.45512 15.7075 9.07715 15.7461L9 15.75L6 15.75C5.58579 15.75 5.25 15.4142 5.25 15C5.25 14.5858 5.58579 14.25 6 14.25L9 14.25L9.07715 14.2539ZM12 10.25C12.4142 10.25 12.75 10.5858 12.75 11L12.75 13C12.75 13.4142 12.4142 13.75 12 13.75C11.5858 13.75 11.25 13.4142 11.25 13L11.25 11C11.25 10.5858 11.5858 10.25 12 10.25Z" fill="currentColor" />
</svg>