<svg xmlns="http://www.w3.org/2000/svg" width="24" height="24" viewBox="0 0 24 24" fill="none">
<path d="M13.1504 1.25C16.5103 1.25 18.1902 1.25042 19.4736 1.9043C20.6026 2.47954 21.5205 3.3974 22.0957 4.52637C22.7496 5.80978 22.75 7.48966 22.75 10.8496L22.75 13.1504C22.75 16.5104 22.7496 18.1902 22.0957 19.4736C21.5205 20.6026 20.6026 21.5205 19.4736 22.0957C18.1902 22.7496 16.5103 22.75 13.1504 22.75L10.8496 22.75C7.48965 22.75 5.80977 22.7496 4.52636 22.0957C3.39739 21.5205 2.47953 20.6026 1.90429 19.4736C1.25042 18.1902 1.25 16.5103 1.25 13.1504L1.25 10.8496C1.25 7.48965 1.25042 5.80977 1.9043 4.52637C2.47954 3.39739 3.39739 2.47954 4.52637 1.9043C5.80977 1.25042 7.48965 1.25 10.8496 1.25L13.1504 1.25ZM12 5.25C8.27219 5.25012 5.25001 8.27216 5.25 12C5.25 12.4141 5.58589 12.7499 6 12.75C6.41421 12.75 6.75 12.4142 6.75 12C6.75001 9.10059 9.10062 6.75012 12 6.75C14.8995 6.75 17.25 9.10052 17.25 12C17.25 14.8995 14.8995 17.25 12 17.25L8.97461 17.25C8.5605 17.2501 8.22462 17.5859 8.22461 18C8.22461 18.4141 8.5605 18.7499 8.97461 18.75L12 18.75C15.7279 18.75 18.75 15.7279 18.75 12C18.75 8.27209 15.7279 5.25 12 5.25ZM6 14.25C5.5859 14.2501 5.25001 14.5859 5.25 15C5.25 15.4141 5.58589 15.7499 6 15.75L9 15.75L9.07715 15.7461C9.45511 15.7075 9.75 15.3882 9.75 15C9.74999 14.6118 9.45511 14.2925 9.07715 14.2539L9 14.25L6 14.25ZM12 10.25C11.5859 10.2501 11.25 10.5859 11.25 11L11.25 13C11.25 13.4141 11.5859 13.7499 12 13.75C12.4142 13.75 12.75 13.4142 12.75 13L12.75 11C12.75 10.5858 12.4142 10.25 12 10.25Z" fill="currentColor" />
</svg>