<svg xmlns="http://www.w3.org/2000/svg" width="24" height="24" viewBox="0 0 24 24" fill="none">
<g opacity={0.32}><path d="M12.25 1.25C11.3181 1.25 10.8522 1.25 10.4846 1.40224C9.99458 1.60523 9.60523 1.99458 9.40224 2.48463C9.25 2.85218 9.25 3.31812 9.25 4.25H15.75C17.1501 4.25 17.8502 4.25 18.385 4.52248C18.8554 4.76217 19.2378 5.14462 19.4775 5.61502C19.75 6.1498 19.75 6.84987 19.75 8.25V14.75C20.6819 14.75 21.1478 14.75 21.5154 14.5978C22.0054 14.3948 22.3948 14.0054 22.5978 13.5154C22.75 13.1478 22.75 12.6819 22.75 11.75V4.45C22.75 3.3299 22.75 2.76984 22.532 2.34202C22.3403 1.96569 22.0343 1.65973 21.658 1.46799C21.2302 1.25 20.6701 1.25 19.55 1.25H12.25Z" fill="currentColor" /><path d="M5.25 8.25C5.25 7.31812 5.25 6.85218 5.40224 6.48463C5.60523 5.99458 5.99458 5.60523 6.48463 5.40224C6.85218 5.25 7.31812 5.25 8.25 5.25H15.55C16.6701 5.25 17.2302 5.25 17.658 5.46799C18.0343 5.65973 18.3403 5.9657 18.532 6.34202C18.75 6.76984 18.75 7.3299 18.75 8.45V15.7499C18.75 16.6819 18.75 17.1479 18.5977 17.5154C18.3948 18.0054 18.0054 18.3948 17.5154 18.5977C17.1479 18.75 16.6819 18.75 15.7499 18.75V12.25C15.7499 10.8499 15.7499 10.1498 15.4775 9.61503C15.2378 9.14462 14.8553 8.76217 14.3849 8.52249C13.8501 8.25 13.1501 8.25 11.7499 8.25H5.25Z" fill="currentColor" /></g><path d="M4.45 9.25C3.3299 9.25 2.76984 9.25 2.34202 9.46799C1.96569 9.65973 1.65973 9.96569 1.46799 10.342C1.25 10.7698 1.25 11.3299 1.25 12.45V19.55C1.25 20.6701 1.25 21.2302 1.46799 21.658C1.65973 22.0343 1.96569 22.3403 2.34202 22.532C2.76984 22.75 3.32989 22.75 4.45 22.75H11.55C12.6701 22.75 13.2302 22.75 13.658 22.532C14.0343 22.3403 14.3403 22.0343 14.532 21.658C14.75 21.2302 14.75 20.6701 14.75 19.55V12.45C14.75 11.3299 14.75 10.7698 14.532 10.342C14.3403 9.96569 14.0343 9.65973 13.658 9.46799C13.2302 9.25 12.6701 9.25 11.55 9.25H4.45Z" fill="currentColor" />
</svg>