<svg xmlns="http://www.w3.org/2000/svg" width="24" height="24" viewBox="0 0 24 24" fill="none">
<path d="M2.99994 3.00006L7.08398 7.0841M21.9999 22.0001L19.6988 19.699M19.6988 19.699C19.7793 20.1498 19.7727 20.49 19.6629 20.7589C19.4264 21.3381 18.9325 21.7733 18.3282 21.935C17.5953 22.1311 16.4691 21.5679 14.2166 20.4417L13.5718 20.1193C12.9086 19.7877 12.577 19.6219 12.2244 19.5821C12.0752 19.5652 11.9246 19.5652 11.7755 19.5821C11.4229 19.6219 11.0913 19.7877 10.4281 20.1193L9.78325 20.4417C7.53077 21.568 6.40453 22.1311 5.6717 21.935C5.06735 21.7733 4.57349 21.3381 4.33701 20.7589C4.1187 20.2242 4.30824 19.4079 4.77911 18.0001M19.6988 19.699L7.08398 7.0841M7.08398 7.0841C6.86229 7.12644 6.58561 7.15718 6.20464 7.19951C3.77042 7.46998 2.55331 7.60521 2.03954 8.20694C1.69948 8.60522 1.52921 9.121 1.56531 9.64347C1.61985 10.4328 2.51723 11.2661 4.31198 12.9326L4.45288 13.0635C4.91543 13.493 5.1891 13.7471 5.36192 14.0001M8.99998 5.00006C10.0749 2.85284 10.6462 1.7699 11.4702 1.54359C11.817 1.44836 12.1829 1.44836 12.5296 1.54359C13.3899 1.77985 13.9748 2.94966 15.1446 5.28927L15.1921 5.38438C15.5052 6.01061 15.6618 6.32373 15.8982 6.55674C16.0593 6.71561 16.2463 6.84597 16.4511 6.94228C16.7514 7.08353 17.0994 7.12219 17.7952 7.19951C20.2295 7.46998 21.4466 7.60521 21.9603 8.20694C22.3004 8.60522 22.4707 9.121 22.4346 9.64347C22.38 10.4328 21.4826 11.2661 19.6879 12.9326C19.2978 13.2949 18.9021 13.6512 18.4999 14.0001" stroke="currentColor" stroke-width={2} stroke-linecap="round" stroke-linejoin="round" />
</svg>