<svg xmlns="http://www.w3.org/2000/svg" width="40" height="40" viewBox="0 0 40 40" fill="none">
<path d="M25.3294 5.4874C23.775 2.37869 22.9979 0.824326 21.9462 0.325534C21.031 -0.108528 19.9692 -0.108529 19.054 0.325532C18.0023 0.824323 17.2251 2.37868 15.6708 5.4874L14.2406 8.34781C13.7606 9.30767 13.5207 9.78759 13.1696 10.155C12.8588 10.4803 12.4862 10.7402 12.0735 10.9193C11.6074 11.1217 11.0741 11.181 10.0075 11.2995L7.3955 11.5897C3.66958 12.0037 1.80662 12.2107 0.964701 13.0697C0.233051 13.8161 -0.111393 14.8595 0.0320316 15.8949C0.197072 17.0862 1.57064 18.3617 4.31777 20.9126L6.31587 22.768C7.2536 23.6387 7.72246 24.0741 7.99342 24.6017C8.23292 25.068 8.36048 25.5837 8.36599 26.1079C8.37222 26.701 8.16038 27.3048 7.7367 28.5123L6.93699 30.7914C5.55683 34.7249 4.86675 36.6916 5.32502 37.8589C5.72252 38.8713 6.58366 39.6301 7.6381 39.897C8.85375 40.2048 10.718 39.2726 14.4465 37.4084L18.0854 35.5889C18.9708 35.1462 19.4135 34.9249 19.8778 34.8378C20.2891 34.7606 20.7111 34.7606 21.1224 34.8378C21.5867 34.9249 22.0294 35.1462 22.9148 35.5889L26.5537 37.4084C30.2822 39.2726 32.1464 40.2048 33.3621 39.897C34.4165 39.6301 35.2777 38.8713 35.6751 37.8589C36.1334 36.6916 35.4433 34.7249 34.0632 30.7914L33.2635 28.5122C32.8398 27.3048 32.6279 26.701 32.6342 26.1079C32.6397 25.5837 32.7672 25.068 33.0067 24.6017C33.2777 24.0741 33.7466 23.6387 34.6843 22.768L36.6824 20.9126C39.4295 18.3617 40.8031 17.0862 40.9681 15.8949C41.1116 14.8595 40.7671 13.8161 40.0355 13.0697C39.1935 12.2107 37.3306 12.0037 33.6047 11.5897L30.9927 11.2995C29.9261 11.181 29.3928 11.1217 28.9266 10.9193C28.514 10.7402 28.1413 10.4803 27.8306 10.155C27.4795 9.78759 27.2395 9.30766 26.7596 8.34781L25.3294 5.4874Z" fill="currentColor" />
</svg>