<svg xmlns="http://www.w3.org/2000/svg" width="40" height="40" viewBox="0 0 40 40" fill="none">
<path d="M15.2294 7.87368C16.7648 4.80297 17.5324 3.26762 18.5713 2.77492C19.4753 2.34617 20.5241 2.34617 21.4281 2.77492C22.4669 3.26762 23.2346 4.80298 24.77 7.87369L25.3688 9.0713C25.8428 10.0194 26.0799 10.4935 26.4266 10.8564C26.7336 11.1777 27.1017 11.4344 27.5093 11.6114C27.9698 11.8113 28.4965 11.8698 29.5501 11.9869L30.0937 12.0473C33.774 12.4562 35.6142 12.6607 36.4459 13.5091C37.1686 14.2465 37.5088 15.2771 37.3671 16.2998C37.2041 17.4766 35.8473 18.7365 33.1338 21.2562L32.5599 21.7891C31.6336 22.6492 31.1705 23.0793 30.9028 23.6004C30.6663 24.0611 30.5403 24.5705 30.5348 25.0883C30.5287 25.6741 30.7407 26.2783 31.1646 27.4866C32.5486 31.431 33.2406 33.4032 32.788 34.5562C32.3953 35.5562 31.5447 36.3058 30.5032 36.5694C29.3024 36.8734 27.4609 35.9526 23.778 34.1112L22.3848 33.4146C21.5103 32.9773 21.073 32.7587 20.6143 32.6726C20.2081 32.5964 19.7913 32.5964 19.385 32.6726C18.9264 32.7587 18.4891 32.9773 17.6145 33.4146L16.2213 34.1112C12.5384 35.9526 10.697 36.8734 9.49619 36.5694C8.45464 36.3058 7.60403 35.5562 7.21139 34.5562C6.75872 33.4032 7.45072 31.431 8.8347 27.4866C9.25869 26.2783 9.47068 25.6741 9.46453 25.0883C9.45909 24.5705 9.33309 24.0611 9.09652 23.6004C8.82886 23.0793 8.36573 22.6492 7.43948 21.7891L6.86557 21.2562C4.15202 18.7365 2.79525 17.4766 2.63223 16.2998C2.49055 15.2771 2.83079 14.2465 3.55349 13.5091C4.38512 12.6607 6.2253 12.4562 9.90567 12.0473L10.4493 11.9869C11.5028 11.8698 12.0296 11.8113 12.4901 11.6114C12.8977 11.4344 13.2658 11.1777 13.5727 10.8564C13.9195 10.4935 14.1565 10.0194 14.6306 9.07131L15.2294 7.87368Z" stroke="currentColor" stroke-width={3} stroke-linecap="round" stroke-linejoin="round" />
</svg>