<svg xmlns="http://www.w3.org/2000/svg" width="24" height="24" viewBox="0 0 24 24" fill="none">
<path d="M3.00018 3.00006L7.08422 7.0841M22.0002 22.0001L19.6991 19.699M19.6991 19.699C19.7795 20.1498 19.7729 20.49 19.6631 20.7589C19.4266 21.3381 18.9328 21.7733 18.3284 21.935C17.5956 22.1311 16.4693 21.5679 14.2169 20.4417L13.5721 20.1193C12.9089 19.7877 12.5773 19.6219 12.2247 19.5821C12.0755 19.5652 11.9249 19.5652 11.7757 19.5821C11.4231 19.6219 11.0915 19.7877 10.4283 20.1193L9.78349 20.4417C7.53102 21.568 6.40478 22.1311 5.67194 21.935C5.0676 21.7733 4.57373 21.3381 4.33726 20.7589C4.05051 20.0566 4.4674 18.8685 5.3012 16.4921C5.55709 15.7628 5.68504 15.3982 5.67891 15.0399C5.67375 14.7382 5.60037 14.4415 5.46429 14.1722C5.30269 13.8524 5.0195 13.5894 4.45312 13.0635L4.31223 12.9326C2.51747 11.2661 1.62009 10.4328 1.56555 9.64347C1.52945 9.121 1.69972 8.60522 2.03979 8.20694C2.55355 7.60521 3.77066 7.46998 6.20488 7.19951C6.58585 7.15718 6.86254 7.12644 7.08422 7.0841M19.6991 19.699L7.08422 7.0841M9.00022 5.00006C10.0751 2.85284 10.6465 1.7699 11.4705 1.54359C11.8172 1.44836 12.1832 1.44836 12.5299 1.54359C13.3901 1.77985 13.975 2.94966 15.1448 5.28927L15.1924 5.38438C15.5055 6.01061 15.662 6.32373 15.8984 6.55674C16.0596 6.71561 16.2465 6.84597 16.4513 6.94228C16.7517 7.08353 17.0996 7.12219 17.7955 7.19951C20.2297 7.46998 21.4468 7.60521 21.9606 8.20694C22.3006 8.60522 22.4709 9.121 22.4348 9.64347C22.3803 10.4328 21.4829 11.2661 19.6881 12.9326C19.298 13.2949 18.9024 13.6512 18.5002 14.0001" stroke="currentColor" stroke-width={2} stroke-linecap="round" stroke-linejoin="round" />
</svg>