<svg xmlns="http://www.w3.org/2000/svg" width="24" height="24" viewBox="0 0 24 24" fill="none">
<path fill-rule="evenodd" clip-rule="evenodd" d="M12.7283 0.82037C12.2515 0.689434 11.7483 0.689434 11.2716 0.820369C10.5924 1.00693 10.1144 1.52469 9.70613 2.134C9.29393 2.74917 8.85995 3.60432 8.32932 4.66434C8.1439 5.03473 8.29386 5.48531 8.66426 5.67072C9.03465 5.85614 9.48523 5.70618 9.67064 5.33579C10.2149 4.24858 10.604 3.48865 10.9523 2.96897C11.3044 2.44343 11.5241 2.30656 11.6689 2.2668C11.8856 2.20729 12.1143 2.20729 12.331 2.26681C12.4836 2.3087 12.7152 2.45727 13.0924 3.03684C13.4635 3.60689 13.8803 4.43784 14.4737 5.62468L14.5213 5.71979L14.5682 5.81364C14.8348 6.34798 15.0446 6.76846 15.3717 7.09086C15.5933 7.30931 15.8503 7.48856 16.1319 7.62098C16.5475 7.81642 17.0146 7.86793 17.6082 7.9334L17.7124 7.94492C18.9459 8.08198 19.8144 8.17937 20.4422 8.31265C21.0876 8.44967 21.3042 8.59354 21.39 8.69394C21.6025 8.94287 21.7089 9.26523 21.6864 9.59177C21.6773 9.72348 21.5888 9.96806 21.1519 10.4624C20.7268 10.9432 20.087 11.5386 19.1776 12.3831C18.793 12.7401 18.4037 13.0907 18.0085 13.4335C17.6956 13.705 17.662 14.1787 17.9334 14.4915C18.2048 14.8044 18.6785 14.838 18.9914 14.5666C19.4005 14.2117 19.8025 13.8497 20.1982 13.4822L20.2301 13.4527C21.1005 12.6445 21.7956 11.999 22.2757 11.4558C22.7498 10.9195 23.1373 10.3528 23.1828 9.69517C23.2324 8.97678 22.9983 8.26758 22.5307 7.71994C22.1027 7.21861 21.4539 6.99401 20.7537 6.84535C20.0446 6.6948 19.1018 6.59005 17.9213 6.4589L17.8781 6.4541C17.13 6.37098 16.9314 6.33935 16.7703 6.26358C16.6423 6.20339 16.5254 6.12191 16.4247 6.02262C16.2979 5.89764 16.1996 5.72221 15.8629 5.04898L15.8154 4.95387L15.7931 4.90936C15.2271 3.7773 14.7729 2.86883 14.3496 2.2185C13.9269 1.56921 13.4359 1.01473 12.7283 0.82037ZM3.53027 2.46973C3.23738 2.17684 2.7625 2.17684 2.46961 2.46973C2.17672 2.76262 2.17672 3.2375 2.46961 3.53039L5.46653 6.52731C4.56754 6.62909 3.82816 6.7218 3.24616 6.84535C2.54598 6.99401 1.89721 7.21862 1.46916 7.71994C1.00158 8.26758 0.767456 8.97678 0.817093 9.69517C0.862533 10.3528 1.25007 10.9195 1.72413 11.4558C2.20426 11.999 2.8994 12.6445 3.76979 13.4527L3.80165 13.4822L3.94254 13.6131C4.55216 14.1791 4.70818 14.3393 4.79464 14.5104C4.87969 14.6787 4.92555 14.8642 4.92878 15.0527C4.93206 15.2444 4.86869 15.4588 4.59325 16.2438L4.57994 16.2818C4.17431 17.4378 3.8526 18.3546 3.67171 19.0692C3.49548 19.7654 3.40041 20.4491 3.64266 21.0424C3.96781 21.8388 4.64687 22.4372 5.47785 22.6595C6.09695 22.8252 6.76321 22.6448 7.4317 22.3823C8.11782 22.113 8.98685 21.6784 10.0825 21.1306L10.1187 21.1125L10.7635 20.7901C11.4764 20.4337 11.6703 20.3487 11.8596 20.3273C11.9529 20.3168 12.047 20.3168 12.1403 20.3273C12.3295 20.3487 12.5235 20.4337 13.2364 20.7901L13.8812 21.1125L13.9172 21.1305C15.013 21.6784 15.882 22.113 16.5682 22.3823C17.2367 22.6448 17.9029 22.8251 18.522 22.6595C19.2615 22.4616 19.8807 21.966 20.2372 21.298L21.4696 22.5304C21.7625 22.8233 22.2374 22.8233 22.5303 22.5304C22.8232 22.2375 22.8232 21.7626 22.5303 21.4697L20.2292 19.1686L7.61431 6.55377L3.53027 2.46973Z" fill="currentColor" />
</svg>