<svg xmlns="http://www.w3.org/2000/svg" width="40" height="40" viewBox="0 0 40 40" fill="none">
<path d="M7.96558 30C7.18081 32.3464 6.86491 33.7069 7.22876 34.5981C7.62288 35.5634 8.44599 36.2887 9.45323 36.5582C10.6746 36.885 12.5517 35.9465 16.3058 34.0694L17.3805 33.532C18.4859 32.9794 19.0385 32.703 19.6262 32.6367C19.8748 32.6086 20.1258 32.6086 20.3745 32.6367C20.9621 32.703 21.5148 32.9794 22.6201 33.532L23.6948 34.0694C27.4489 35.9465 29.326 36.885 30.5474 36.5582C31.5546 36.2887 32.3777 35.5634 32.7718 34.5981C33.2498 33.4275 32.5549 31.4473 31.1653 27.4868C30.7388 26.2713 30.5255 25.6635 30.5358 25.0664C30.5444 24.5635 30.6666 24.0691 30.8935 23.6202C31.1628 23.0871 31.6348 22.6489 32.5787 21.7723L32.8136 21.5543C35.8048 18.7767 37.3004 17.3879 37.3914 16.0723C37.4515 15.2016 37.1677 14.3419 36.601 13.6781C35.7447 12.6752 33.7162 12.4498 29.6591 11.9991C28.4994 11.8702 27.9195 11.8058 27.4189 11.5703C27.0776 11.4098 26.766 11.1926 26.4974 10.9278C26.1034 10.5394 25.8425 10.0176 25.3206 8.97385L25.2413 8.81533C23.2917 4.91597 22.3168 2.96629 20.8831 2.57252C20.3053 2.41381 19.6953 2.41381 19.1175 2.57252C17.6838 2.96629 16.709 4.91597 14.7593 8.81533L14.68 8.97386C14.1582 10.0176 13.8972 10.5394 13.5033 10.9278C13.2346 11.1926 12.923 11.4098 12.5817 11.5703C12.0811 11.8058 11.5012 11.8702 10.3415 11.9991C6.28444 12.4498 4.25592 12.6752 3.39964 13.6781C2.83287 14.3419 2.54909 15.2016 2.60925 16.0723C2.70015 17.3879 4.19578 18.7767 7.18705 21.5543L7.42187 21.7723C8.04964 22.3553 8.58779 22.9801 8.87786 23.3333" stroke="currentColor" stroke-width={3} stroke-linecap="round" stroke-linejoin="round" />
</svg>