<svg xmlns="http://www.w3.org/2000/svg" width="24" height="24" viewBox="0 0 24 24" fill="none">
<path d="M10.2702 1.38281C5.15516 2.21169 1.25 6.64821 1.25 11.9971C1.25 17.936 6.06441 22.7504 12.0033 22.7504C17.3522 22.7504 21.7887 18.8452 22.6176 13.7302C21.4184 14.2941 20.08 14.6086 18.6721 14.6086C13.5468 14.6086 9.39182 10.4536 9.39182 5.32826C9.39182 3.92045 9.7063 2.58197 10.2702 1.38281Z" fill="currentColor" /><path d="M11.6374 2.0004C11.4014 2.49834 11.2168 3.02534 11.0903 3.57456C10.9604 4.13818 10.8918 4.72521 10.8918 5.32826C10.8918 9.62522 14.3752 13.1086 18.6721 13.1086C19.2752 13.1086 19.8622 13.04 20.4258 12.9101C20.9751 12.7836 21.5021 12.599 22 12.363L11.6374 2.0004Z" fill="currentColor" />
</svg>