<svg xmlns="http://www.w3.org/2000/svg" width="24" height="24" viewBox="0 0 24 24" fill="none">
<path d="M17.5 3.64702C15.9221 2.60596 14.0318 2 12 2C6.47715 2 2 6.47715 2 12C2 17.5228 6.47715 22 12 22C17.5228 22 22 17.5228 22 12C22 10.3814 21.6154 8.85259 20.9327 7.5M11.4 15H12.6C13.4401 15 13.8601 15 14.181 14.8365C14.4632 14.6927 14.6927 14.4632 14.8365 14.181C15 13.8601 15 13.4401 15 12.6V11.4C15 10.5599 15 10.1399 14.8365 9.81901C14.6927 9.53677 14.4632 9.3073 14.181 9.16349C13.8601 9 13.4401 9 12.6 9H11.4C10.5599 9 10.1399 9 9.81901 9.16349C9.53677 9.3073 9.3073 9.53677 9.16349 9.81901C9 10.1399 9 10.5599 9 11.4V12.6C9 13.4401 9 13.8601 9.16349 14.181C9.3073 14.4632 9.53677 14.6927 9.81901 14.8365C10.1399 15 10.5599 15 11.4 15Z" stroke="currentColor" stroke-width={1.5} stroke-linecap="round" stroke-linejoin="round" />
</svg>