<svg xmlns="http://www.w3.org/2000/svg" width="24" height="24" viewBox="0 0 24 24" fill="none">
<path opacity={0.4} d="M22 12V11.6C22 8.23969 22 6.55953 21.346 5.27606C20.7708 4.14708 19.8529 3.2292 18.7239 2.65396C17.4405 2 15.7603 2 12.4 2H12" stroke="currentColor" stroke-width={1.5} stroke-linecap="round" stroke-linejoin="round" /><path d="M12 2H11.5C8.234 2 6.601 2 5.34627 2.61876C4.16167 3.20294 3.20294 4.16167 2.61876 5.34627C2 6.601 2 8.234 2 11.5V12.4C2 15.7603 2 17.4405 2.65396 18.7239C3.2292 19.8529 4.14708 20.7708 5.27606 21.346C6.55953 22 8.23969 22 11.6 22H12.5C15.766 22 17.399 22 18.6537 21.3812C19.8383 20.7971 20.7971 19.8383 21.3812 18.6537C22 17.399 22 15.766 22 12.5V12" stroke="currentColor" stroke-width={1.5} stroke-linecap="round" stroke-linejoin="round" />
</svg>