<svg xmlns="http://www.w3.org/2000/svg" width="24" height="24" viewBox="0 0 24 24" fill="none">
<path d="M8 4.93552C9.20496 4.33671 10.5632 4 12 4C14.4853 4 16.7353 5.00736 18.364 6.63604M20.0645 17C20.6633 15.795 21 14.4368 21 13C21 10.5147 19.9926 8.26472 18.364 6.63604M18.364 19.364C16.7353 20.9926 14.4853 22 12 22C10.5632 22 9.20496 21.6633 8 21.0645M18.364 19.364L21 22M18.364 19.364L5.63604 6.63604M3 4L5.63604 6.63604M5.63604 6.63604C4.00736 8.26472 3 10.5147 3 13C3 14.8501 3.55827 16.5699 4.51555 18M20.5 4.5L18.364 6.63604M14 1H10" stroke="currentColor" stroke-width={1.5} stroke-linecap="round" stroke-linejoin="round" />
</svg>