<svg xmlns="http://www.w3.org/2000/svg" width="24" height="24" viewBox="0 0 24 24" fill="none">
<path opacity={0.32} d="M5.63604 5.57538L5.10571 6.10571C3.34213 7.86929 2.25 10.3078 2.25 13C2.25 18.3848 6.61522 22.75 12 22.75C14.6922 22.75 17.1307 21.6579 18.8943 19.8943L19.4246 19.364L5.63604 5.57538Z" fill="currentColor" /><path d="M8 4.93552C9.20496 4.33671 10.5632 4 12 4C14.4853 4 16.7353 5.00736 18.364 6.63604M20.0645 17C20.6633 15.795 21 14.4368 21 13C21 10.5147 19.9926 8.26472 18.364 6.63604M21 22L18.364 19.364L5.63604 6.63604L3 4M20.5 4.5L18.364 6.63604M14 1H10" stroke="currentColor" stroke-width={1.5} stroke-linecap="round" stroke-linejoin="round" />
</svg>