<svg xmlns="http://www.w3.org/2000/svg" width="24" height="24" viewBox="0 0 24 24" fill="none">
<path d="M18 21.2501C18.4142 21.2501 18.75 21.5859 18.75 22.0001C18.75 22.4143 18.4142 22.7501 18 22.7501H6C5.58579 22.7501 5.25 22.4143 5.25 22.0001C5.25 21.5859 5.58579 21.2501 6 21.2501H18ZM12 12.2501C14.9214 12.2501 17.3326 14.4289 17.7002 17.2501H22L22.0771 17.254C22.4551 17.2926 22.75 17.6119 22.75 18.0001C22.75 18.3883 22.4551 18.7076 22.0771 18.7462L22 18.7501H2C1.58579 18.7501 1.25 18.4143 1.25 18.0001C1.25 17.5859 1.58579 17.2501 2 17.2501H6.2998C6.66739 14.4289 9.07861 12.2501 12 12.2501ZM3.39844 9.39855C3.673 9.124 4.10776 9.10661 4.40234 9.3468L4.45898 9.39855L6.58105 11.5196C6.87369 11.8124 6.87354 12.2873 6.58105 12.5802C6.28816 12.8731 5.81242 12.8731 5.51953 12.5802L3.39844 10.4591C3.10571 10.1662 3.10571 9.69142 3.39844 9.39855ZM19.541 9.39855C19.8339 9.10566 20.3087 9.10566 20.6016 9.39855C20.8942 9.69147 20.8944 10.1663 20.6016 10.4591L18.4805 12.5802C18.1876 12.873 17.7128 12.8729 17.4199 12.5802C17.127 12.2873 17.127 11.8125 17.4199 11.5196L19.541 9.39855ZM11.5264 1.41809C11.8209 1.17778 12.2557 1.19524 12.5303 1.46984L15.5303 4.46984L15.582 4.52648C15.8223 4.82107 15.8049 5.25579 15.5303 5.53039C15.2557 5.80499 14.8209 5.82246 14.5264 5.58215L14.4697 5.53039L12.75 3.81066V9.00012C12.75 9.41433 12.4142 9.75012 12 9.75012C11.5858 9.75012 11.25 9.41433 11.25 9.00012V3.81066L9.53027 5.53039C9.23738 5.82328 8.76262 5.82328 8.46973 5.53039C8.17683 5.2375 8.17683 4.76274 8.46973 4.46984L11.4697 1.46984L11.5264 1.41809Z" fill="currentColor" />
</svg>