<svg xmlns="http://www.w3.org/2000/svg" width="24" height="24" viewBox="0 0 24 24" fill="none">
<path d="M18 21.25C18.4142 21.25 18.75 21.5858 18.75 22C18.75 22.4142 18.4142 22.75 18 22.75H6C5.58579 22.75 5.25 22.4142 5.25 22C5.25 21.5858 5.58579 21.25 6 21.25H18ZM12 12.25C14.9214 12.25 17.3326 14.4288 17.7002 17.25H22L22.0771 17.2539C22.4551 17.2925 22.75 17.6118 22.75 18C22.75 18.3882 22.4551 18.7075 22.0771 18.7461L22 18.75H2C1.58579 18.75 1.25 18.4142 1.25 18C1.25 17.5858 1.58579 17.25 2 17.25H6.2998C6.66739 14.4288 9.07861 12.25 12 12.25ZM3.39844 9.39844C3.673 9.12388 4.10776 9.1065 4.40234 9.34668L4.45898 9.39844L6.58105 11.5195C6.87369 11.8123 6.87354 12.2872 6.58105 12.5801C6.28816 12.873 5.81242 12.873 5.51953 12.5801L3.39844 10.459C3.10571 10.1661 3.10571 9.6913 3.39844 9.39844ZM19.541 9.39844C19.8339 9.10554 20.3087 9.10554 20.6016 9.39844C20.8942 9.69135 20.8944 10.1662 20.6016 10.459L18.4805 12.5801C18.1876 12.8729 17.7128 12.8728 17.4199 12.5801C17.127 12.2872 17.127 11.8124 17.4199 11.5195L19.541 9.39844ZM12 1.25C12.4142 1.25 12.75 1.58579 12.75 2V7.18945L14.4697 5.46973C14.7626 5.17683 15.2374 5.17683 15.5303 5.46973C15.8232 5.76262 15.8232 6.23738 15.5303 6.53027L12.5303 9.53027C12.2374 9.82317 11.7626 9.82317 11.4697 9.53027L8.46973 6.53027L8.41797 6.47363C8.17766 6.17905 8.19512 5.74433 8.46973 5.46973C8.74433 5.19512 9.17905 5.17766 9.47363 5.41797L9.53027 5.46973L11.25 7.18945V2C11.25 1.58579 11.5858 1.25 12 1.25Z" fill="currentColor" />
</svg>