<svg xmlns="http://www.w3.org/2000/svg" width="24" height="24" viewBox="0 0 24 24" fill="none">
<path d="M12.75 1.25C15.55 1.25 16.95 1.25013 18.0195 1.79492C18.9603 2.27429 19.7257 3.03966 20.2051 3.98047C20.7499 5.04998 20.75 6.45005 20.75 9.25V14.75C20.75 17.55 20.7499 18.95 20.2051 20.0195C19.7257 20.9603 18.9603 21.7257 18.0195 22.2051C16.95 22.7499 15.55 22.75 12.75 22.75H11.25C8.45005 22.75 7.04998 22.7499 5.98047 22.2051C5.03966 21.7257 4.27429 20.9603 3.79492 20.0195C3.25013 18.95 3.25 17.55 3.25 14.75V9.25C3.25 6.45005 3.25013 5.04998 3.79492 3.98047C4.27429 3.03966 5.03966 2.27429 5.98047 1.79492C7.04998 1.25013 8.45005 1.25 11.25 1.25H12.75ZM10 18.25C9.58579 18.25 9.25 18.5858 9.25 19C9.25 19.4142 9.58579 19.75 10 19.75H14C14.4142 19.75 14.75 19.4142 14.75 19C14.75 18.5858 14.4142 18.25 14 18.25H10ZM12 4.75C11.3096 4.75 10.75 5.30964 10.75 6C10.75 6.69036 11.3096 7.25 12 7.25C12.6904 7.25 13.25 6.69036 13.25 6C13.25 5.30964 12.6904 4.75 12 4.75Z" fill="currentColor" />
</svg>