<svg xmlns="http://www.w3.org/2000/svg" width="24" height="24" viewBox="0 0 24 24" fill="none">
<path d="M16 6L15.5 5.50001L14.8745 4.87452C14.1827 4.18271 13.8368 3.83681 13.4331 3.58944C13.0753 3.37012 12.6851 3.20851 12.2769 3.11052C11.8166 3 11.3274 3 10.349 3H9.4C7.15979 3 6.03968 3 5.18404 3.43597C4.43139 3.81947 3.81947 4.43139 3.43597 5.18404C3 6.03968 3 7.15979 3 9.4V10.349C3 11.3274 3 11.8166 3.11052 12.2769C3.20851 12.6851 3.37012 13.0753 3.58944 13.4331C3.83681 13.8368 4.18271 14.1827 4.87451 14.8745L8.47452 18.4745C10.0586 20.0586 10.8506 20.8506 11.7639 21.1474C12.5673 21.4084 13.4327 21.4084 14.2361 21.1474C15.1494 20.8506 15.9414 20.0586 17.5255 18.4745L19 17C20.0905 15.9095 20.6357 15.3643 20.9272 14.7761C21.4818 13.657 21.4818 12.343 20.9272 11.2239C20.6357 10.6357 20.0905 10.0905 19 9.00001L18.5 8.5M12 10C12 11.1046 11.1046 12 10 12C8.89543 12 8 11.1046 8 10C8 8.89543 8.89543 8 10 8C11.1046 8 12 8.89543 12 10Z" stroke="currentColor" stroke-width={2} stroke-linecap="round" stroke-linejoin="round" />
</svg>