<svg xmlns="http://www.w3.org/2000/svg" width="24" height="24" viewBox="0 0 24 24" fill="none">
<path fill-rule="evenodd" clip-rule="evenodd" d="M4.12452 15.1852C3.43271 14.4934 3.08681 14.1475 2.83944 13.7438C2.62012 13.3859 2.45851 12.9957 2.36052 12.5876C2.25 12.1272 2.25 11.6381 2.25 10.6597V8.65C2.25 6.40979 2.25 5.28969 2.68597 4.43404C3.06947 3.68139 3.68139 3.06947 4.43404 2.68597C5.28969 2.25 6.40979 2.25 8.65 2.25H10.6597C11.6381 2.25 12.1272 2.25 12.5876 2.36052C12.9957 2.45851 13.3859 2.62012 13.7438 2.83944C14.1475 3.08681 14.4934 3.43271 15.1852 4.12452L18.5303 7.46967C20.3911 9.33049 21.3216 10.2609 21.6996 11.3219C22.0863 12.4072 22.0863 13.5928 21.6996 14.6781C21.3216 15.7391 20.3911 16.6695 18.5303 18.5303C16.6695 20.3911 15.7391 21.3216 14.6781 21.6996C13.5928 22.0863 12.4072 22.0863 11.3219 21.6996C10.2609 21.3216 9.33049 20.3911 7.46967 18.5303L4.12452 15.1852ZM10 12C11.1046 12 12 11.1046 12 10C12 8.89543 11.1046 8 10 8C8.89543 8 8 8.89543 8 10C8 11.1046 8.89543 12 10 12Z" fill="currentColor" />
</svg>