<svg xmlns="http://www.w3.org/2000/svg" width="24" height="24" viewBox="0 0 24 24" fill="none">
<path d="M11.9999 5L11.4999 5L9.94334 5C8.86064 5 8.31929 5 7.81639 5.13306C7.37076 5.25096 6.94886 5.44501 6.56932 5.70663C6.14101 6.00186 5.78871 6.41289 5.0841 7.23493L4.56981 7.83493C3.3027 9.31323 2.66915 10.0524 2.42768 10.8813C2.21486 11.6119 2.21486 12.3881 2.42768 13.1187C2.66915 13.9476 3.3027 14.6868 4.56981 16.1651L5.0841 16.7651C5.78871 17.5871 6.14101 17.9981 6.56932 18.2934C6.94886 18.555 7.37076 18.749 7.81639 18.8669C8.31929 19 8.86064 19 9.94334 19L15.5998 19C17.84 19 18.9601 19 19.8157 18.564C20.5684 18.1805 21.1803 17.5686 21.5638 16.816C21.9998 15.9603 21.9998 14.8402 21.9998 12.6L21.9998 10.4999C21.9998 9.10443 21.9998 8.4067 21.8275 7.83894C21.4398 6.56047 20.4393 5.56 19.1608 5.17221C18.5931 5 17.8953 5 16.4999 5L15.9999 5M11.9998 12C11.9998 13.1046 11.1043 14 9.99976 14C8.89519 14 7.99976 13.1046 7.99976 12C7.99976 10.8954 8.89519 10 9.99976 10C11.1043 10 11.9998 10.8954 11.9998 12Z" stroke="currentColor" stroke-width={2} stroke-linecap="round" stroke-linejoin="round" />
</svg>