<svg xmlns="http://www.w3.org/2000/svg" width="24" height="24" viewBox="0 0 24 24" fill="none">
<path fill-rule="evenodd" clip-rule="evenodd" d="M9.59865 19.7502C8.51595 19.7502 7.9746 19.7502 7.4717 19.6172C7.02606 19.4993 6.60417 19.3052 6.22463 19.0436C5.79632 18.7484 5.44402 18.3374 4.73941 17.5153L3.58226 16.1653C2.31515 14.687 1.6816 13.9479 1.44013 13.1189C1.22731 12.3883 1.22731 11.6122 1.44013 10.8816C1.6816 10.0526 2.31515 9.31347 3.58226 7.83518L4.7394 6.48518C5.44402 5.66313 5.79632 5.25211 6.22463 4.95687C6.60416 4.69525 7.02606 4.50121 7.4717 4.3833C7.9746 4.25024 8.51595 4.25024 9.59865 4.25024H16.35C18.5902 4.25024 19.7103 4.25024 20.566 4.68622C21.3186 5.06971 21.9305 5.68163 22.314 6.43428C22.75 7.28993 22.75 8.41003 22.75 10.6502V13.3502C22.75 15.5905 22.75 16.7106 22.314 17.5662C21.9305 18.3189 21.3186 18.9308 20.566 19.3143C19.7103 19.7502 18.5902 19.7502 16.35 19.7502L9.59865 19.7502ZM9.9999 14C11.1045 14 11.9999 13.1046 11.9999 12C11.9999 10.8955 11.1045 10 9.9999 10C8.89533 10 7.9999 10.8955 7.9999 12C7.9999 13.1046 8.89533 14 9.9999 14Z" fill="currentColor" />
</svg>