<svg xmlns="http://www.w3.org/2000/svg" width="24" height="24" viewBox="0 0 24 24" fill="none">
<path d="M14.9998 22L17.0802 19.9196C19.8523 17.1475 21.2383 15.7614 21.7577 14.1631C22.2145 12.7572 22.2145 11.2428 21.7577 9.83688C21.2383 8.23858 19.8523 6.85252 17.0802 4.08041L15.4998 2.5M2.06155 7C2.13889 5.99859 2.31304 5.30111 2.70523 4.73153C2.98184 4.32981 3.32959 3.98206 3.73131 3.70545C4.75585 3 6.19418 3 9.07085 3C10.324 3 10.9505 3 11.5307 3.18043C11.7631 3.2527 11.9884 3.34603 12.2039 3.45925C12.7417 3.74193 13.1848 4.18497 14.0708 5.07107L15.9998 7C18.0339 9.03411 19.0509 10.0512 19.2766 11.2745C19.365 11.7541 19.365 12.2459 19.2766 12.7255C19.0509 13.9488 18.0339 14.9659 15.9998 17C13.9657 19.0341 12.9486 20.0512 11.7253 20.2768C11.2457 20.3653 10.7539 20.3653 10.2742 20.2768C9.05094 20.0512 8.03389 19.0341 5.99978 17L4.07084 15.0711C3.18475 14.185 2.74171 13.7419 2.45902 13.2041C2.3458 12.9887 2.25248 12.7633 2.18021 12.531C2.051 12.1155 2.01432 11.6762 2.00391 11M10.9998 10C10.9998 11.1046 10.1043 12 8.99976 12C7.89519 12 6.99976 11.1046 6.99976 10C6.99976 8.89543 7.89519 8 8.99976 8C10.1043 8 10.9998 8.89543 10.9998 10Z" stroke="currentColor" stroke-width={2} stroke-linecap="round" stroke-linejoin="round" />
</svg>