<svg xmlns="http://www.w3.org/2000/svg" width="24" height="24" viewBox="0 0 24 24" fill="none">
<path d="M5.28688 16.9999C5.92682 17.7399 6.31466 18.1506 6.78736 18.4332C7.03427 18.5808 7.29638 18.7014 7.56914 18.7928C8.18766 19 8.86504 19 10.2198 19H13.0002C15.8092 19 17.2136 19 18.2225 18.3259C18.6593 18.034 19.0343 17.659 19.3261 17.2223C20.0002 16.2134 20.0002 14.8089 20.0002 12C20.0002 9.19108 20.0002 7.78661 19.3261 6.77772C19.0343 6.34096 18.6593 5.96595 18.2225 5.67412C17.2136 5 15.8092 5 13.0002 5L10.2198 5C8.86504 5 8.18766 5 7.56914 5.20725C7.29638 5.29864 7.03427 5.4192 6.78736 5.56682C6.22748 5.90156 5.78665 6.41586 4.90499 7.44446C3.31701 9.2971 2.52302 10.2234 2.33116 11.2951C2.24769 11.7613 2.24769 12.2387 2.33116 12.7049C2.40848 13.1368 2.58359 13.5451 2.86905 13.9999M9.99969 2L11.7997 2C15.7201 2 17.6802 2 19.1776 2.76295C20.4948 3.43407 21.5656 4.50493 22.2367 5.82207C22.9997 7.31945 22.9997 9.27963 22.9997 13.2V16M11.9998 12C11.9998 13.1046 11.1043 14 9.99976 14C8.89519 14 7.99976 13.1046 7.99976 12C7.99976 10.8954 8.89519 10 9.99976 10C11.1043 10 11.9998 10.8954 11.9998 12Z" stroke="currentColor" stroke-width={2} stroke-linecap="round" stroke-linejoin="round" />
</svg>