<svg xmlns="http://www.w3.org/2000/svg" width="24" height="24" viewBox="0 0 24 24" fill="none">
<path d="M14.793 1.79289C15.1835 1.40237 15.8165 1.40237 16.207 1.79289L17.7871 3.37297C19.1615 4.74735 20.2358 5.82069 21.0264 6.75187C21.8244 7.69191 22.3923 8.55361 22.709 9.52824C23.2309 11.1347 23.2309 12.8651 22.709 14.4716C22.3923 15.4462 21.8244 16.3079 21.0264 17.248C20.2358 18.1792 19.1615 19.2525 17.7871 20.6269L15.707 22.707C15.3165 23.0975 14.6835 23.0975 14.293 22.707C13.9025 22.3164 13.9025 21.6834 14.293 21.2929L16.373 19.2128C17.7708 17.8151 18.7766 16.8085 19.502 15.954C20.2195 15.1087 20.604 14.4778 20.8066 13.8544C21.1982 12.6494 21.1982 11.3505 20.8066 10.1454C20.604 9.52199 20.2195 8.89109 19.502 8.04582C18.7766 7.19138 17.7708 6.18475 16.373 4.78703L14.793 3.20695C14.4025 2.81643 14.4025 2.18341 14.793 1.79289ZM9.66016 2.24992C10.6382 2.24992 11.1276 2.24977 11.5879 2.36027C11.9959 2.45826 12.3863 2.62049 12.7441 2.83976C13.1476 3.08711 13.494 3.43336 14.1855 4.12492L16.9697 6.9091C18.7516 8.69097 19.6427 9.58188 19.9766 10.6093C20.2702 11.5131 20.2702 12.4867 19.9766 13.3905C19.6427 14.418 18.7516 15.3089 16.9697 17.0907L16.0908 17.9696C14.3089 19.7515 13.418 20.6427 12.3906 20.9765C11.4868 21.2701 10.5132 21.2701 9.60938 20.9765C8.58196 20.6427 7.69105 19.7515 5.90918 17.9696L3.125 15.1855C2.43344 14.4939 2.08719 14.1475 1.83984 13.7441C1.62057 13.3862 1.45834 12.9959 1.36035 12.5878C1.24985 12.1275 1.25 11.6381 1.25 10.6601V8.65031C1.25 6.4101 1.24957 5.28916 1.68555 4.43351C2.06902 3.68101 2.68109 3.06894 3.43359 2.68547C4.28924 2.24949 5.41018 2.24992 7.65039 2.24992H9.66016ZM9 7.99992C7.89543 7.99992 7 8.89535 7 9.99992C7 11.1045 7.89543 11.9999 9 11.9999C10.1046 11.9999 11 11.1045 11 9.99992C11 8.89535 10.1046 7.99992 9 7.99992Z" fill="currentColor" />
</svg>