<svg xmlns="http://www.w3.org/2000/svg" width="24" height="24" viewBox="0 0 24 24" fill="none">
<path d="M13.55 4.24991C16.07 4.24991 17.3305 4.24976 18.293 4.74014C19.1397 5.17156 19.8284 5.86018 20.2598 6.70689C20.7502 7.66947 20.75 8.92982 20.75 11.45V12.5495C20.75 15.0697 20.7502 16.33 20.2598 17.2926C19.8284 18.1393 19.1397 18.828 18.293 19.2594C17.3305 19.7497 16.07 19.7496 13.55 19.7496H9.59887C8.51626 19.7496 7.97484 19.7498 7.47196 19.6168C7.02635 19.4989 6.60443 19.3042 6.22492 19.0426C5.79674 18.7474 5.44405 18.3362 4.7396 17.5143L3.58239 16.1647C2.31565 14.6868 1.68239 13.9476 1.44084 13.1189C1.22802 12.3883 1.22802 11.6112 1.44084 10.8806C1.68239 10.0519 2.31565 9.31266 3.58239 7.8348L4.7396 6.48522C5.44405 5.66336 5.79674 5.25215 6.22492 4.95693C6.60443 4.69532 7.02635 4.50063 7.47196 4.38272C7.97484 4.24967 8.51626 4.24991 9.59887 4.24991H13.55ZM11.8 0.99998C13.7435 0.99998 15.2623 0.999151 16.4796 1.09861C17.7083 1.19906 18.7189 1.40688 19.6319 1.87203C21.137 2.63901 22.361 3.86289 23.1279 5.36805C23.593 6.28103 23.8009 7.29154 23.9013 8.52033C24.0008 9.73774 23.9999 11.2563 23.9999 13.1999V15.9997C23.9999 16.5518 23.5521 16.9994 23 16.9997C22.4477 16.9997 22 16.5519 22 15.9997V13.1999C22 11.2233 21.9995 9.80049 21.9082 8.68342C21.8179 7.57831 21.6433 6.86036 21.3457 6.27624C20.7705 5.14739 19.8525 4.22946 18.7237 3.65422C18.1396 3.35664 17.4215 3.18206 16.3165 3.09173C15.1995 3.00047 13.7764 2.99994 11.8 2.99994H10.0002C9.44796 2.99994 9.00026 2.55223 9.00025 1.99996C9.00026 1.44769 9.44796 0.99998 10.0002 0.99998H11.8ZM10.0002 9.9998C8.89569 9.9998 8.00027 10.8952 8.00027 11.9998C8.00027 13.1043 8.89568 13.9997 10.0002 13.9997C11.1047 13.9996 12.0002 13.1042 12.0002 11.9998C12.0002 10.8953 11.1047 9.99995 10.0002 9.9998Z" fill="currentColor" />
</svg>