<svg xmlns="http://www.w3.org/2000/svg" width="24" height="24" viewBox="0 0 24 24" fill="none">
<path d="M16 2.83209C14.7751 2.2969 13.4222 2 12 2C6.47715 2 2 6.47715 2 12C2 17.5228 6.47715 22 12 22C17.5228 22 22 17.5228 22 12C22 9.74835 21.2558 7.67051 20 5.99902M15.0001 12C15.0001 13.6569 13.6569 15 12.0001 15C10.3432 15 9.00006 13.6569 9.00006 12C9.00006 10.3431 10.3432 9 12.0001 9C13.6569 9 15.0001 10.3431 15.0001 12Z" stroke="currentColor" stroke-width={2} stroke-linecap="round" stroke-linejoin="round" />
</svg>