<svg xmlns="http://www.w3.org/2000/svg" width="24" height="24" viewBox="0 0 24 24" fill="none">
<path d="M13.1504 1.25C16.5103 1.25 18.1902 1.25042 19.4736 1.9043C20.6026 2.47954 21.5205 3.3974 22.0957 4.52637C22.7496 5.80978 22.75 7.48966 22.75 10.8496L22.75 13.1504C22.75 16.5104 22.7496 18.1902 22.0957 19.4736C21.5205 20.6026 20.6026 21.5205 19.4736 22.0957C18.1902 22.7496 16.5103 22.75 13.1504 22.75L10.8496 22.75C7.48965 22.75 5.80977 22.7496 4.52636 22.0957C3.39739 21.5205 2.47953 20.6026 1.90429 19.4736C1.25041 18.1902 1.25 16.5103 1.25 13.1504L1.25 10.8496C1.25 7.48965 1.25042 5.80977 1.9043 4.52637C2.47954 3.39739 3.39739 2.47954 4.52637 1.9043C5.80977 1.25042 7.48965 1.25 10.8496 1.25L13.1504 1.25ZM7.70703 9.29297C7.31653 8.90264 6.68345 8.90261 6.29297 9.29297C5.90253 9.68344 5.90261 10.3165 6.29297 10.707L8.58594 13L6.29297 15.293C5.9025 15.6834 5.90263 16.3165 6.29297 16.707C6.68349 17.0976 7.3165 17.0976 7.70703 16.707L10.707 13.707C10.8945 13.5195 11 13.2652 11 13C10.9999 12.7349 10.8945 12.4804 10.707 12.293L7.70703 9.29297ZM13 15C12.4478 15 12.0001 15.4479 12 16C12 16.5523 12.4477 17 13 17L17 17C17.5523 17 18 16.5523 18 16C17.9999 15.4478 17.5522 15 17 15L13 15Z" fill="currentColor" />
</svg>