<svg xmlns="http://www.w3.org/2000/svg" width="24" height="24" viewBox="0 0 24 24" fill="none">
<path d="M2 10V9.5C2 7.17029 2 6.00544 2.3806 5.08658C2.88807 3.86144 3.86144 2.88807 5.08658 2.3806C6.00544 2 7.17029 2 9.5 2H14C16.8003 2 18.2004 2 19.27 2.54497C20.2108 3.02433 20.9757 3.78924 21.455 4.73005C22 5.79961 22 7.19974 22 10V14C22 16.8003 22 18.2004 21.455 19.27C20.9757 20.2108 20.2108 20.9757 19.27 21.455C18.2004 22 16.8003 22 14 22H9.5C7.17029 22 6.00544 22 5.08658 21.6194C3.86144 21.1119 2.88807 20.1386 2.3806 18.9134C2 17.9946 2 16.8297 2 14.5V14M8 8H12H16M12 11V16" stroke="currentColor" stroke-width={1.5} stroke-linecap="round" stroke-linejoin="round" />
</svg>