<svg xmlns="http://www.w3.org/2000/svg" width="24" height="24" viewBox="0 0 24 24" fill="none">
<path d="M14.75 1.25C17.55 1.25 18.95 1.25013 20.0195 1.79492C20.9603 2.27429 21.7257 3.03966 22.2051 3.98047C22.7499 5.04998 22.75 6.45005 22.75 9.25V14.75C22.75 17.55 22.7499 18.95 22.2051 20.0195C21.7257 20.9603 20.9603 21.7257 20.0195 22.2051C18.95 22.7499 17.55 22.75 14.75 22.75H9.25C6.45005 22.75 5.04998 22.7499 3.98047 22.2051C3.03966 21.7257 2.27429 20.9603 1.79492 20.0195C1.25013 18.95 1.25 17.55 1.25 14.75V9.25C1.25 6.45005 1.25013 5.04998 1.79492 3.98047C2.27429 3.03966 3.03966 2.27429 3.98047 1.79492C5.04998 1.25013 6.45005 1.25 9.25 1.25H14.75ZM7.53027 6.46973C7.23738 6.17684 6.76262 6.17684 6.46973 6.46973C6.17684 6.76262 6.17684 7.23738 6.46973 7.53027L11.25 12.3105V17C11.25 17.4142 11.5858 17.75 12 17.75C12.4142 17.75 12.75 17.4142 12.75 17V13.8105L16.4697 17.5303L16.5264 17.582C16.8209 17.8223 17.2557 17.8048 17.5303 17.5303C17.8049 17.2557 17.8223 16.8209 17.582 16.5264L17.5303 16.4697L7.53027 6.46973ZM10 6.25C9.58579 6.25 9.25 6.58579 9.25 7C9.25 7.41421 9.58579 7.75 10 7.75H11.25V9C11.25 9.41421 11.5858 9.75 12 9.75C12.4142 9.74999 12.75 9.41421 12.75 9V7.75H16C16.4142 7.75 16.75 7.41421 16.75 7C16.75 6.58579 16.4142 6.25 16 6.25H10Z" fill="currentColor" />
</svg>