<svg xmlns="http://www.w3.org/2000/svg" width="24" height="24" viewBox="0 0 24 24" fill="none">
<path d="M14.75 1.25C17.55 1.25 18.95 1.25013 20.0195 1.79492C20.9603 2.27429 21.7257 3.03966 22.2051 3.98047C22.7499 5.04998 22.75 6.45005 22.75 9.25V14.75C22.75 17.55 22.7499 18.95 22.2051 20.0195C21.7257 20.9603 20.9603 21.7257 20.0195 22.2051C18.95 22.7499 17.55 22.75 14.75 22.75H9.25C6.45005 22.75 5.04998 22.7499 3.98047 22.2051C3.03966 21.7257 2.27429 20.9603 1.79492 20.0195C1.25013 18.95 1.25 17.55 1.25 14.75V9.25C1.25 6.45005 1.25013 5.04998 1.79492 3.98047C2.27429 3.03966 3.03966 2.27429 3.98047 1.79492C5.04998 1.25013 6.45005 1.25 9.25 1.25H14.75ZM8 17.25C7.5858 17.25 7.25 17.5858 7.25 18C7.25 18.4142 7.5858 18.75 8 18.75H16C16.4142 18.75 16.75 18.4142 16.75 18C16.75 17.5858 16.4142 17.25 16 17.25H8ZM16 5.25C15.5858 5.25002 15.25 5.5858 15.25 6V11C15.25 12.7949 13.7949 14.25 12 14.25C10.2051 14.25 8.75 12.7949 8.75 11V6C8.75 5.58579 8.41421 5.25 8 5.25C7.5858 5.25002 7.25 5.5858 7.25 6V11C7.25 13.6233 9.37666 15.75 12 15.75C14.6234 15.75 16.75 13.6234 16.75 11V6C16.75 5.58579 16.4142 5.25 16 5.25Z" fill="currentColor" />
</svg>