<svg xmlns="http://www.w3.org/2000/svg" width="24" height="24" viewBox="0 0 24 24" fill="none">
<path d="M14.75 1.25C17.55 1.25 18.95 1.25013 20.0195 1.79492C20.9603 2.27429 21.7257 3.03966 22.2051 3.98047C22.7499 5.04998 22.75 6.45005 22.75 9.25V14.75C22.75 17.55 22.7499 18.95 22.2051 20.0195C21.7257 20.9603 20.9603 21.7257 20.0195 22.2051C18.95 22.7499 17.55 22.75 14.75 22.75H9.25C6.45005 22.75 5.04998 22.7499 3.98047 22.2051C3.03966 21.7257 2.27429 20.9603 1.79492 20.0195C1.25013 18.95 1.25 17.55 1.25 14.75V9.25C1.25 6.45005 1.25013 5.04998 1.79492 3.98047C2.27429 3.03966 3.03966 2.27429 3.98047 1.79492C5.04998 1.25013 6.45005 1.25 9.25 1.25H14.75ZM8.74219 5.25C8.4991 5.25 8.28236 5.24965 8.10254 5.26074C7.91692 5.2722 7.72097 5.29757 7.52246 5.37109C6.98926 5.56862 6.56862 5.98926 6.37109 6.52246C6.29757 6.72097 6.2722 6.91692 6.26074 7.10254C6.24965 7.28236 6.25 7.4991 6.25 7.74219V16.0801C6.25 16.4037 6.24913 16.692 6.26855 16.9297C6.28871 17.176 6.33472 17.434 6.46289 17.6855C6.6498 18.0522 6.94782 18.3502 7.31445 18.5371C7.566 18.6653 7.82396 18.7113 8.07031 18.7314C8.30802 18.7509 8.5963 18.75 8.91992 18.75H15C17.0711 18.75 18.75 17.0711 18.75 15C18.75 13.2432 17.5419 11.7684 15.9111 11.3613C16.4348 10.7165 16.75 9.89544 16.75 9C16.75 6.92893 15.0711 5.25 13 5.25H8.74219ZM15 12.75C16.2426 12.75 17.25 13.7574 17.25 15C17.25 16.2426 16.2426 17.25 15 17.25H8.91992C8.57189 17.25 8.35577 17.2496 8.19336 17.2363C8.04316 17.2241 8.00252 17.2044 7.99609 17.2012C7.91142 17.158 7.84197 17.0886 7.79883 17.0039C7.79557 16.9975 7.77594 16.9568 7.76367 16.8066C7.75043 16.6442 7.75 16.4281 7.75 16.0801V12.75H15ZM13 6.75C14.2426 6.75 15.25 7.75736 15.25 9C15.25 10.2426 14.2426 11.25 13 11.25H7.75V7.74219C7.75 7.48073 7.75024 7.31823 7.75781 7.19531C7.76496 7.07945 7.77697 7.04758 7.77832 7.04395C7.8239 6.92087 7.92087 6.8239 8.04395 6.77832C8.04758 6.77698 8.07945 6.76496 8.19531 6.75781C8.31823 6.75024 8.48073 6.75 8.74219 6.75H13Z" fill="currentColor" />
</svg>