<svg xmlns="http://www.w3.org/2000/svg" width="24" height="24" viewBox="0 0 24 24" fill="none">
<path d="M14.75 1.25C17.55 1.25 18.95 1.25013 20.0195 1.79492C20.9603 2.27429 21.7257 3.03966 22.2051 3.98047C22.7499 5.04998 22.75 6.45005 22.75 9.25V14.75C22.75 17.55 22.7499 18.95 22.2051 20.0195C21.7257 20.9603 20.9603 21.7257 20.0195 22.2051C18.95 22.7499 17.55 22.75 14.75 22.75H9.25C6.45005 22.75 5.04998 22.7499 3.98047 22.2051C3.03966 21.7257 2.27429 20.9603 1.79492 20.0195C1.25013 18.95 1.25 17.55 1.25 14.75V9.25C1.25 6.45005 1.25013 5.04998 1.79492 3.98047C2.27429 3.03966 3.03966 2.27429 3.98047 1.79492C5.04998 1.25013 6.45005 1.25 9.25 1.25H14.75ZM10 5.25C9.58581 5.25003 9.25 5.58581 9.25 6C9.25 6.41419 9.58581 6.74997 10 6.75H12.959L9.45898 17.25H7C6.58581 17.25 6.25 17.5858 6.25 18C6.25 18.4142 6.58581 18.75 7 18.75H14L14.0771 18.7461C14.4551 18.7075 14.75 18.3882 14.75 18C14.75 17.5858 14.4142 17.25 14 17.25H11.041L14.541 6.75H17C17.4142 6.75 17.75 6.41421 17.75 6C17.75 5.58579 17.4142 5.25 17 5.25H10Z" fill="currentColor" />
</svg>