<svg xmlns="http://www.w3.org/2000/svg" width="24" height="24" viewBox="0 0 24 24" fill="none">
<path d="M9 9H15M12 11.5V15M4 9V18M6 4C6 5.10457 5.10457 6 4 6C2.89543 6 2 5.10457 2 4C2 2.89543 2.89543 2 4 2C5.10457 2 6 2.89543 6 4ZM6 4H15M20 15V6M18 20C18 21.1046 18.8954 22 20 22C21.1046 22 22 21.1046 22 20C22 18.8954 21.1046 18 20 18C18.8954 18 18 18.8954 18 20ZM18 20H9M4 18C2.89543 18 2 18.8954 2 20C2 21.1046 2.89543 22 4 22C5.10457 22 6 21.1046 6 20C6 18.8954 5.10457 18 4 18ZM20 6C21.1046 6 22 5.10457 22 4C22 2.89543 21.1046 2 20 2C18.8954 2 18 2.89543 18 4C18 5.10457 18.8954 6 20 6Z" stroke="currentColor" stroke-width={1.5} stroke-linecap="round" stroke-linejoin="round" />
</svg>