<svg xmlns="http://www.w3.org/2000/svg" width="24" height="24" viewBox="0 0 24 24" fill="none">
<path d="M14.75 1.25C17.55 1.25 18.95 1.25013 20.0195 1.79492C20.9603 2.27429 21.7257 3.03966 22.2051 3.98047C22.7499 5.04998 22.75 6.45005 22.75 9.25V14.75C22.75 17.55 22.7499 18.95 22.2051 20.0195C21.7257 20.9603 20.9603 21.7257 20.0195 22.2051C18.95 22.7499 17.55 22.75 14.75 22.75H9.25C6.45005 22.75 5.04998 22.7499 3.98047 22.2051C3.03966 21.7257 2.27429 20.9603 1.79492 20.0195C1.25013 18.95 1.25 17.55 1.25 14.75V9.25C1.25 6.45005 1.25013 5.04998 1.79492 3.98047C2.27429 3.03966 3.03966 2.27429 3.98047 1.79492C5.04998 1.25013 6.45005 1.25 9.25 1.25H14.75ZM6.53027 5.46973C6.23741 5.17686 5.76263 5.17691 5.46973 5.46973C5.17683 5.76262 5.17683 6.23738 5.46973 6.53027L11.25 12.3105V17.25H9.33398C8.91977 17.25 8.58398 17.5858 8.58398 18C8.58398 18.4142 8.91977 18.75 9.33398 18.75H14.667L14.7432 18.7461C15.1214 18.7078 15.417 18.3884 15.417 18C15.417 17.6116 15.1214 17.2922 14.7432 17.2539L14.667 17.25H12.75V13.8105L17.4697 18.5303L17.5264 18.582C17.8209 18.8223 18.2557 18.8048 18.5303 18.5303C18.8048 18.2557 18.8222 17.8209 18.582 17.5264L18.5303 17.4697L6.53027 5.46973ZM10 5.25C9.58586 5.25008 9.25 5.58584 9.25 6C9.25 6.41416 9.58586 6.74992 10 6.75H11.25V8.5C11.25 8.91416 11.5859 9.24991 12 9.25C12.4141 9.24991 12.75 8.91416 12.75 8.5V6.75H16C16.1617 6.75 16.2587 6.75061 16.3311 6.75391C16.3711 6.75574 16.3911 6.75771 16.3984 6.75879C16.4845 6.78202 16.5521 6.84942 16.5752 6.93555C16.5723 6.9248 16.577 6.93461 16.5801 7.00293C16.5834 7.07522 16.584 7.17147 16.584 7.33301V8C16.584 8.41421 16.9198 8.75 17.334 8.75C17.7479 8.74965 18.084 8.414 18.084 8V7.33301C18.084 7.07141 18.0895 6.79335 18.0234 6.54688C17.8616 5.94315 17.3899 5.4714 16.7861 5.30957C16.5397 5.2436 16.2616 5.25 16 5.25H10Z" fill="currentColor" />
</svg>