<svg xmlns="http://www.w3.org/2000/svg" width="24" height="24" viewBox="0 0 24 24" fill="none">
<path d="M20 1.25C21.5188 1.25 22.75 2.48122 22.75 4C22.75 5.2584 21.9037 6.31578 20.75 6.64258V17.3564C21.9039 17.6832 22.75 18.7415 22.75 20C22.75 21.5188 21.5188 22.75 20 22.75C18.7415 22.75 17.6832 21.9039 17.3564 20.75H6.64355C6.31684 21.9039 5.2585 22.75 4 22.75C2.48122 22.75 1.25 21.5188 1.25 20C1.25 18.7415 2.09614 17.6832 3.25 17.3564V6.64258C2.09627 6.31578 1.25 5.2584 1.25 4C1.25 2.48122 2.48122 1.25 4 1.25C5.2585 1.25 6.31684 2.09614 6.64355 3.25H17.3564C17.6832 2.09614 18.7415 1.25 20 1.25ZM6.64355 4.75C6.38443 5.66513 5.66509 6.38337 4.75 6.64258V17.3564C5.66522 17.6156 6.38441 18.3348 6.64355 19.25H17.3564C17.6156 18.3348 18.3348 17.6156 19.25 17.3564V6.64258C18.3349 6.38337 17.6156 5.66513 17.3564 4.75H6.64355ZM15 8.25C15.4142 8.25 15.75 8.58579 15.75 9C15.75 9.41421 15.4142 9.75 15 9.75H12.75V15C12.75 15.4142 12.4142 15.75 12 15.75C11.5858 15.75 11.25 15.4142 11.25 15V9.75H9C8.58579 9.75 8.25 9.41421 8.25 9C8.25 8.58579 8.58579 8.25 9 8.25H15Z" fill="currentColor" />
</svg>