<svg xmlns="http://www.w3.org/2000/svg" width="24" height="24" viewBox="0 0 24 24" fill="none">
<path d="M14.75 1.25C17.55 1.25 18.95 1.25013 20.0195 1.79492C20.9603 2.27429 21.7257 3.03966 22.2051 3.98047C22.7499 5.04998 22.75 6.45005 22.75 9.25V14.75C22.75 17.55 22.7499 18.95 22.2051 20.0195C21.7257 20.9603 20.9603 21.7257 20.0195 22.2051C18.95 22.7499 17.55 22.75 14.75 22.75H9.25C6.45005 22.75 5.04998 22.7499 3.98047 22.2051C3.03966 21.7257 2.27429 20.9603 1.79492 20.0195C1.25013 18.95 1.25 17.55 1.25 14.75V9.25C1.25 6.45005 1.25013 5.04998 1.79492 3.98047C2.27429 3.03966 3.03966 2.27429 3.98047 1.79492C5.04998 1.25013 6.45005 1.25 9.25 1.25H14.75ZM6 11.25C5.58579 11.25 5.25 11.5858 5.25 12C5.25 12.4142 5.58579 12.75 6 12.75H12.7402C13.9537 12.75 14.9531 13.7485 14.9531 15C14.9531 16.2515 13.9537 17.25 12.7402 17.25H11.2588C10.1213 17.2499 9.17184 16.3722 9.05762 15.2314L9.04199 14.9229C9.00336 14.5449 8.68406 14.25 8.2959 14.25C7.88178 14.2501 7.5459 14.5859 7.5459 15C7.5459 17.0622 9.19955 18.7498 11.2588 18.75H12.7402C14.7996 18.75 16.4531 17.0623 16.4531 15C16.4531 14.1577 16.1776 13.3779 15.7109 12.75H18C18.4142 12.75 18.75 12.4142 18.75 12C18.75 11.5858 18.4142 11.25 18 11.25H6ZM11.2588 5.25C9.19955 5.25016 7.5459 6.93784 7.5459 9C7.5459 9.32165 7.58599 9.63502 7.66211 9.93457C7.76416 10.336 8.17277 10.5786 8.57422 10.4766C8.95048 10.3809 9.18768 10.0165 9.13184 9.64062L9.11621 9.56543L9.08594 9.42871C9.05976 9.29043 9.0459 9.14715 9.0459 9C9.0459 7.74865 10.0455 6.75016 11.2588 6.75H12.7402C13.9537 6.75 14.9531 7.74855 14.9531 9C14.9531 9.41408 15.2891 9.74978 15.7031 9.75C16.1173 9.75 16.4531 9.41421 16.4531 9C16.4531 6.93774 14.7996 5.25 12.7402 5.25H11.2588Z" fill="currentColor" />
</svg>