<svg xmlns="http://www.w3.org/2000/svg" width="24" height="24" viewBox="0 0 24 24" fill="none">
<path d="M22 9.5V9C22 7.13872 22 6.20808 21.7553 5.45492C21.2607 3.93273 20.0673 2.73931 18.5451 2.24472C17.7919 2 16.8613 2 15 2H10C7.19974 2 5.79961 2 4.73005 2.54497C3.78924 3.02433 3.02433 3.78924 2.54497 4.73005C2 5.79961 2 7.19974 2 10V14C2 16.8003 2 18.2004 2.54497 19.27C3.02433 20.2108 3.78924 20.9757 4.73005 21.455C5.79961 22 7.19974 22 10 22H15C16.8613 22 17.7919 22 18.5451 21.7553C20.0673 21.2607 21.2607 20.0673 21.7553 18.5451C22 17.7919 22 16.8613 22 15V14.5M7 12H13C14.6569 12 16 10.6569 16 9C16 7.34315 14.6569 6 13 6H8.5C8.03406 6 7.80109 6 7.61732 6.07612C7.37229 6.17761 7.17761 6.37229 7.07612 6.61732C7 6.80109 7 7.03406 7 7.5V12ZM7 12H15C16.6569 12 18 13.3431 18 15C18 16.6569 16.6569 18 15 18H8.6C8.03995 18 7.75992 18 7.54601 17.891C7.35785 17.7951 7.20487 17.6422 7.10899 17.454C7 17.2401 7 16.9601 7 16.4V12Z" stroke="currentColor" stroke-width={1.5} stroke-linecap="round" stroke-linejoin="round" />
</svg>