<svg xmlns="http://www.w3.org/2000/svg" width="24" height="24" viewBox="0 0 24 24" fill="none">
<path d="M14.75 1.25C17.55 1.25 18.95 1.25013 20.0195 1.79492C20.9603 2.27429 21.7257 3.03966 22.2051 3.98047C22.7499 5.04998 22.75 6.45005 22.75 9.25V14.75C22.75 17.55 22.7499 18.95 22.2051 20.0195C21.7257 20.9603 20.9603 21.7257 20.0195 22.2051C18.95 22.7499 17.55 22.75 14.75 22.75H9.25C6.45005 22.75 5.04998 22.7499 3.98047 22.2051C3.03966 21.7257 2.27429 20.9603 1.79492 20.0195C1.25013 18.95 1.25 17.55 1.25 14.75V9.25C1.25 6.45005 1.25013 5.04998 1.79492 3.98047C2.27429 3.03966 3.03966 2.27429 3.98047 1.79492C5.04998 1.25013 6.45005 1.25 9.25 1.25H14.75ZM8.38672 5.25C8.11115 5.25219 7.84869 5.26562 7.61328 5.33984C7.00667 5.53118 6.53118 6.00667 6.33984 6.61328C6.26562 6.8487 6.25219 7.11115 6.25 7.38672V8C6.25 8.41421 6.58579 8.74999 7 8.75C7.41421 8.75 7.75 8.41421 7.75 8V7.66699C7.75 7.17608 7.75843 7.10276 7.77051 7.06445C7.81467 6.92453 7.92453 6.81467 8.06445 6.77051C8.10276 6.75843 8.17608 6.75 8.66699 6.75H11.25V17.25H9C8.58579 17.25 8.25 17.5858 8.25 18C8.25 18.4142 8.58579 18.75 9 18.75H15C15.4142 18.75 15.75 18.4142 15.75 18C15.75 17.5858 15.4142 17.25 15 17.25H12.75V6.75H15.333C15.8239 6.75 15.8972 6.75843 15.9355 6.77051C16.0755 6.81467 16.1853 6.92453 16.2295 7.06445C16.2416 7.10276 16.25 7.17607 16.25 7.66699V8C16.25 8.41421 16.5858 8.74999 17 8.75C17.4142 8.75 17.75 8.41421 17.75 8V7.38672C17.7478 7.11115 17.7344 6.8487 17.6602 6.61328C17.4688 6.00667 16.9933 5.53118 16.3867 5.33984C16.1513 5.26562 15.8888 5.25219 15.6133 5.25H8.38672Z" fill="currentColor" />
</svg>