<svg xmlns="http://www.w3.org/2000/svg" width="24" height="24" viewBox="0 0 24 24" fill="none">
<path d="M9.1508 22.7501C9.33284 22.7501 9.50743 22.6778 9.63615 22.5491L15.0627 17.1226C16.1004 16.0848 16.6192 15.566 16.9903 14.9605C17.3193 14.4237 17.5617 13.8384 17.7087 13.2262C17.8745 12.5356 17.8745 11.8019 17.8745 10.3343V6.05012C17.8745 4.36996 17.8745 3.52989 17.5475 2.88815C17.2599 2.32366 16.8009 1.86472 16.2364 1.5771C15.5947 1.25012 14.7546 1.25012 13.0745 1.25012H6.59902C5.13754 1.25012 4.4068 1.25012 3.8166 1.51756C3.29641 1.75326 2.85431 2.13254 2.54225 2.61084C2.18818 3.15352 2.07707 3.87576 1.85484 5.32025L1.26212 9.17295C0.984672 10.9763 0.84595 11.878 1.00524 12.6056C1.29257 13.918 2.21955 14.9985 3.473 15.4821C4.16789 15.7501 5.08019 15.7501 6.9048 15.7501H7.14085C7.21858 15.7501 7.25745 15.7501 7.28593 15.7534C7.59502 15.789 7.79692 16.0952 7.70785 16.3933C7.69964 16.4207 7.68433 16.4565 7.65371 16.5279L6.62723 18.923C5.85078 20.7347 7.17972 22.7501 9.1508 22.7501Z" fill="currentColor" /><path d="M19.1245 13.1251C19.1245 14.1607 19.9639 15.0001 20.9995 15.0001C22.035 15.0001 22.8745 14.1607 22.8745 13.1251V3.12533C22.8745 2.0898 22.035 1.25033 20.9995 1.25033C19.9639 1.25033 19.1245 2.0898 19.1245 3.12533V13.1251Z" fill="currentColor" />
</svg>