<svg xmlns="http://www.w3.org/2000/svg" width="24" height="24" viewBox="0 0 24 24" fill="none">
<path d="M5 13V12C5 11.4941 5 11.2412 5.01983 10.9978C5.12184 9.74635 5.61391 8.55841 6.42671 7.60134C6.58474 7.41526 6.7636 7.2364 7.12132 6.87868L12.7451 1.25489C12.9083 1.09169 13.1297 1 13.3605 1C14.61 1 15.4525 2.27761 14.9602 3.42611L14.2857 5C13.94 5.80657 13.7672 6.20985 13.7753 6.53693C13.7894 7.11006 14.1289 7.62501 14.6502 7.86375C14.9476 8 15.3864 8 16.2639 8H17.4051C19.3327 8 20.2965 8 20.9861 8.39213C21.5914 8.73631 22.0581 9.28031 22.3062 9.93088C22.5889 10.6721 22.4424 11.6247 22.1492 13.5299L21.6262 16.9299C21.4039 18.3744 21.2928 19.0966 20.9388 19.6393C20.6267 20.1176 20.1846 20.4969 19.6644 20.7326C19.0742 21 18.3435 21 16.882 21H8C6.34315 21 5 19.6569 5 18V17M2 9L2 17C2 17.9319 2 18.3978 2.15224 18.7654C2.35523 19.2554 2.74458 19.6448 3.23463 19.8478C3.60218 20 4.06812 20 5 20H5.5" stroke="currentColor" stroke-width={2} stroke-linecap="round" stroke-linejoin="round" />
</svg>