<svg xmlns="http://www.w3.org/2000/svg" width="24" height="24" viewBox="0 0 24 24" fill="none">
<path d="M13.3499 1.24976C15.5897 1.24976 16.7101 1.24955 17.5657 1.68531C18.3182 2.06872 18.9303 2.68093 19.3138 3.43335C19.7498 4.289 19.7503 5.40994 19.7503 7.65015L19.7503 10.3337C19.7503 11.801 19.75 12.5349 19.5843 13.2253C19.4373 13.8375 19.1945 14.4229 18.8655 14.9597C18.4945 15.5651 17.9762 16.0844 16.9388 17.1218L11.4476 22.613C11.36 22.7005 11.2413 22.7497 11.1175 22.7498C9.1036 22.7498 7.7453 20.6907 8.53839 18.8396L9.4339 16.7498C9.63678 16.2764 9.28975 15.7498 8.77472 15.7498L7.47296 15.7498C5.00774 15.7498 3.77513 15.7497 2.88409 15.2673C2.01727 14.7981 1.35385 14.0255 1.02179 13.0974C0.680527 12.1434 0.868615 10.9246 1.24347 8.48804L1.52179 6.67651C1.81809 4.75058 1.9667 3.78777 2.43878 3.06421C2.8548 2.42662 3.44361 1.92047 4.13703 1.6062C4.92392 1.24965 5.89859 1.24976 7.84699 1.24976L13.3499 1.24976ZM22.0003 1.99976C22.5524 1.99988 23.0002 2.44764 23.0003 2.99976L23.0003 14.9998C23.0003 15.552 22.5525 15.9996 22.0003 15.9998C21.448 15.9998 21.0003 15.552 21.0003 14.9998L21.0003 2.99976C21.0004 2.44756 21.4481 1.99976 22.0003 1.99976Z" fill="currentColor" />
</svg>