<svg xmlns="http://www.w3.org/2000/svg" width="24" height="24" viewBox="0 0 24 24" fill="none">
<path d="M18 4.00024V13.0002M18 4.00024C18 4.00024 17 2.00024 15 2.00024H7.11801C5.65653 2.00024 4.92579 2.00024 4.33558 2.26768C3.8154 2.50338 3.3733 2.88267 3.06124 3.36096C2.70717 3.90364 2.59606 4.62588 2.37383 6.07037L1.84848 9.48512C1.55749 11.3766 1.41199 12.3223 1.68989 13.0591C1.93831 13.7176 2.41038 14.2679 3.02352 14.6135C3.70943 15.0002 4.66629 15.0002 6.58001 15.0002H7.47685C7.48269 15.0002 7.48562 15.0002 7.48777 15.0003C8.20198 15.0033 8.68281 15.7325 8.40429 16.3902C8.40345 16.3922 8.4023 16.3949 8.4 16.4002L7.10622 19.4191C6.58255 20.641 7.47885 22.0002 8.80825 22.0002C8.93102 22.0002 9.04877 21.9515 9.13559 21.8647L18 13.0002M18 4.00024C18 2.89567 18.8954 2.00024 20 2.00024C21.1046 2.00024 22 2.89567 22 4.00024V13.0002C22 14.1048 21.1046 15.0002 20 15.0002C18.8954 15.0002 18 14.1048 18 13.0002" stroke="currentColor" stroke-width={2} stroke-linecap="round" stroke-linejoin="round" />
</svg>