<svg xmlns="http://www.w3.org/2000/svg" width="24" height="24" viewBox="0 0 24 24" fill="none">
<path d="M19 6L19 5.5C19 5.03558 19 4.80337 18.9743 4.60842C18.7971 3.26222 17.7378 2.2029 16.3916 2.02567C16.1966 2 15.9644 2 15.5 2H7.11801C5.65653 2 4.92579 2 4.33558 2.26743C3.8154 2.50314 3.3733 2.88242 3.06124 3.36072C2.70717 3.90339 2.59606 4.62564 2.37383 6.07012L1.85075 9.47012C1.55764 11.3753 1.41109 12.3279 1.6938 13.0691C1.94194 13.7197 2.40865 14.2637 3.01392 14.6079C3.70353 15 4.66733 15 6.59493 15H8.46141C8.6946 15 8.8112 15 8.89664 15.0098C9.82391 15.1165 10.4296 16.0351 10.1624 16.9294C10.1378 17.0118 10.0919 17.119 10 17.3333L9.08314 19.4727C8.57039 20.6691 9.448 22 10.7497 22C10.91 22 11.0637 21.9363 11.177 21.823L16.5251 16.4749C17.2307 15.7693 17.5835 15.4165 17.8656 15.0256C18.4119 14.2685 18.774 13.3943 18.923 12.4726C19 11.9968 19 11.4978 19 10.5V10M22 14L22 6.2C22 5.0799 22 4.51984 21.782 4.09202C21.5903 3.71569 21.2843 3.40973 20.908 3.21799C20.4802 3 19.9201 3 18.8 3H18.5" stroke="currentColor" stroke-width={2} stroke-linecap="round" stroke-linejoin="round" />
</svg>