<svg xmlns="http://www.w3.org/2000/svg" width="24" height="24" viewBox="0 0 24 24" fill="none">
<path d="M12.9199 0.25C14.9164 0.250128 16.2621 2.29184 15.4756 4.12695L14.6377 6.08301C14.4011 6.63516 14.8056 7.24969 15.4062 7.25H16.5273C18.9924 7.25 20.2252 7.25007 21.1162 7.73242C21.983 8.2017 22.6465 8.97431 22.9785 9.90234C23.3198 10.8564 23.1317 12.0752 22.7568 14.5117L22.4785 16.3232C22.1822 18.2492 22.0336 19.212 21.5615 19.9355C21.1454 20.5733 20.5559 21.0793 19.8623 21.3936C19.0754 21.75 18.1007 21.75 16.1523 21.75H10.6504C8.41018 21.75 7.28924 21.7504 6.43359 21.3145C5.68109 20.931 5.06902 20.3189 4.68555 19.5664C4.24957 18.7108 4.25 17.5898 4.25 15.3496V12.666C4.25 11.1987 4.25033 10.4648 4.41602 9.77441C4.56295 9.16237 4.80496 8.57675 5.13379 8.04004C5.5048 7.4346 6.02402 6.91543 7.06152 5.87793L12.5264 0.413086C12.6307 0.308774 12.7724 0.25 12.9199 0.25ZM2 7.25C2.41421 7.25 2.75 7.58579 2.75 8V20C2.75 20.4142 2.41421 20.75 2 20.75C1.58579 20.75 1.25 20.4142 1.25 20V8C1.25 7.58579 1.58579 7.25 2 7.25Z" fill="currentColor" />
</svg>