<svg xmlns="http://www.w3.org/2000/svg" width="24" height="24" viewBox="0 0 24 24" fill="none">
<path d="M18 4C18 4 17 2 15 2H7.11801C5.65653 2 4.92579 2 4.33558 2.26743C3.8154 2.50314 3.3733 2.88242 3.06124 3.36072C2.70717 3.90339 2.59606 4.62564 2.37383 6.07012L1.84848 9.48487C1.55749 11.3763 1.41199 12.3221 1.68989 13.0588C1.93831 13.7174 2.41038 14.2676 3.02352 14.6133C3.70943 15 4.66629 15 6.58001 15H7.47685C7.48269 15 7.48562 15 7.48777 15C8.20198 15.0031 8.68281 15.7323 8.40429 16.39C8.40345 16.3919 8.4023 16.3946 8.4 16.4L7.10622 19.4188C6.58255 20.6407 7.47885 22 8.80825 22C8.93102 22 9.04877 21.9512 9.13559 21.8644L15 16L15.5 15.5M18 4V6M18 4C18 2.89543 18.8954 2 20 2C21.1046 2 22 2.89543 22 4V13C22 14.1046 21.1046 15 20 15C18.8954 15 18 14.1046 18 13V10" stroke="currentColor" stroke-width={2} stroke-linecap="round" stroke-linejoin="round" />
</svg>