<svg xmlns="http://www.w3.org/2000/svg" width="40" height="40" viewBox="0 0 40 40" fill="none">
<path d="M13.3333 3.75V10C13.3333 10.9205 14.0798 11.667 15.0002 11.667C15.9205 11.6667 16.6672 10.9203 16.6672 10V3.75H27.2502C30.9837 3.75 32.8506 3.74996 34.2766 4.47656C35.5309 5.11565 36.5505 6.13545 37.1897 7.38965C37.9163 8.81573 37.9163 10.6833 37.9163 14.417V15.6943C37.9163 16.0012 37.6674 16.25 37.3606 16.25H36.6663C34.5953 16.2502 32.9163 17.929 32.9163 20C32.9163 22.071 34.5953 23.7498 36.6663 23.75H37.3606C37.6674 23.75 37.9163 23.9988 37.9163 24.3057V25.583C37.9163 29.3167 37.9163 31.1843 37.1897 32.6104C36.5505 33.8645 35.5309 34.8844 34.2766 35.5234C32.8506 36.25 30.9837 36.25 27.2502 36.25H16.6672V30C16.6672 29.0797 15.9205 28.3333 15.0002 28.333C14.0798 28.333 13.3333 29.0795 13.3333 30V36.25H12.7502C9.01656 36.25 7.14898 36.2501 5.7229 35.5234C4.46873 34.8843 3.44893 33.8645 2.80981 32.6104C2.08319 31.1843 2.08325 29.3167 2.08325 25.583V24.3057C2.08325 23.9988 2.33209 23.75 2.63892 23.75H3.33325C5.40432 23.75 7.08325 22.0711 7.08325 20C7.08325 17.9289 5.40432 16.25 3.33325 16.25H2.63892C2.33209 16.25 2.08325 16.0012 2.08325 15.6943V14.417C2.08325 10.6833 2.08319 8.81573 2.80981 7.38965C3.44893 6.13548 4.46873 5.11568 5.7229 4.47656C7.14898 3.74994 9.01656 3.75 12.7502 3.75H13.3333ZM15.0002 15C14.0798 15 13.3333 15.7465 13.3333 16.667V23.333C13.3333 24.2535 14.0798 25 15.0002 25C15.9205 24.9997 16.6672 24.2533 16.6672 23.333V16.667C16.6672 15.7467 15.9205 15.0003 15.0002 15Z" fill="currentColor" />
</svg>