<svg xmlns="http://www.w3.org/2000/svg" width="40" height="40" viewBox="0 0 40 40" fill="none">
<path d="M14.9999 18.3333V21.6667M14.9999 10V13.3333M14.9999 26.6667V30M3.33325 25.2941V29C3.33325 29.929 3.33325 30.3935 3.39481 30.7822C3.73367 32.9216 5.41162 34.5996 7.55108 34.9384C7.93974 35 8.40425 35 9.33325 35H30.6666C31.5956 35 32.0601 35 32.4488 34.9384C34.5882 34.5996 36.2662 32.9216 36.605 30.7822C36.6666 30.3935 36.6666 29.929 36.6666 29V25.2941C36.6666 25.1317 36.5349 25 36.3725 25C33.7735 25 31.6666 22.8931 31.6666 20.2941V19.7059C31.6666 17.1069 33.7735 15 36.3725 15C36.5349 15 36.6666 14.8683 36.6666 14.7059V11C36.6666 10.071 36.6666 9.60649 36.605 9.21783C36.2662 7.07837 34.5882 5.40042 32.4488 5.06156C32.0601 5 31.5956 5 30.6666 5H9.33325C8.40425 5 7.93974 5 7.55108 5.06156C5.41162 5.40042 3.73367 7.07837 3.39481 9.21783C3.33325 9.60649 3.33325 10.071 3.33325 11V14.7059C3.33325 14.8683 3.46493 15 3.62737 15C6.22636 15 8.33325 17.1069 8.33325 19.7059V20.2941C8.33325 22.8931 6.22636 25 3.62737 25C3.46493 25 3.33325 25.1317 3.33325 25.2941Z" stroke="currentColor" stroke-width={3} stroke-linecap="round" stroke-linejoin="round" />
</svg>