<svg xmlns="http://www.w3.org/2000/svg" width="24" height="24" viewBox="0 0 24 24" fill="none">
<path d="M14 1C14.5523 1 15 1.44772 15 2C15 3.12521 15.6248 4.09524 16.7432 4.82812C17.872 5.56775 19.425 6 21 6C21.5523 6 22 6.44772 22 7C22 7.55228 21.5523 8 21 8C19.0956 8 17.1488 7.48469 15.6475 6.50098C15.422 6.35325 15.2062 6.19192 15 6.02051V16.7363C15 20.2364 12.0479 23 8.5 23C4.95208 23 2 20.2364 2 16.7363C2.00026 13.2365 4.95225 10.4736 8.5 10.4736C9.05226 10.4736 9.49996 10.9214 9.5 11.4736C9.5 12.0259 9.05228 12.4736 8.5 12.4736C5.97294 12.4736 4.00027 14.4232 4 16.7363C4 19.0498 5.97279 21 8.5 21C11.0272 21 13 19.0498 13 16.7363V2C13 1.44772 13.4477 1 14 1Z" fill="currentColor" />
</svg>