<svg xmlns="http://www.w3.org/2000/svg" width="24" height="24" viewBox="0 0 24 24" fill="none">
<g clipPath="url(#clip0_9_589)"><path opacity={0.32} d="M11.9993 1.25C8.39536 1.25 6.59341 1.25 5.7435 1.77977C4.37363 2.63364 3.76539 4.31362 4.27112 5.84655C4.58489 6.79763 5.96919 7.95121 8.73779 10.2584L9.40326 10.8129C9.86302 11.1961 10.0929 11.3876 10.1874 11.612C10.2918 11.8601 10.2918 12.1399 10.1874 12.388C10.0929 12.6124 9.86302 12.8039 9.40326 13.1871L8.73779 13.7416C5.96919 16.0488 4.58489 17.2024 4.27112 18.1535C3.76539 19.6864 4.37363 21.3664 5.7435 22.2202C6.59341 22.75 8.39536 22.75 11.9993 22.75C15.6032 22.75 17.4051 22.75 18.255 22.2202C19.6249 21.3664 20.2332 19.6864 19.7274 18.1535C19.4137 17.2024 18.0294 16.0488 15.2608 13.7416L14.5953 13.1871C14.1355 12.8039 13.9056 12.6124 13.8112 12.388C13.7068 12.1399 13.7068 11.8601 13.8112 11.612C13.9056 11.3876 14.1355 11.1961 14.5953 10.8129L15.2608 10.2584C18.0294 7.95121 19.4137 6.79763 19.7274 5.84655C20.2332 4.31362 19.6249 2.63364 18.255 1.77977C17.4051 1.25 15.6032 1.25 11.9993 1.25Z" fill="currentColor" /><path d="M11.1023 22.75H12.8963C15.761 22.75 17.1934 22.75 17.9067 22.4108C19.6379 21.5876 20.3848 19.5248 19.5818 17.784C19.251 17.0668 18.1506 16.1498 15.9499 14.3159L15.9498 14.3158C15.8503 14.2329 15.8005 14.1914 15.7473 14.1574C15.6225 14.0776 15.4814 14.0266 15.3345 14.0079C15.2719 14 15.207 14 15.0774 14H8.92114C8.7915 14 8.72669 14 8.66409 14.0079C8.5171 14.0266 8.37608 14.0776 8.25124 14.1574C8.19808 14.1914 8.14828 14.2329 8.0487 14.3159L8.04869 14.3159C5.84792 16.1498 4.74753 17.0668 4.41673 17.784C3.61376 19.5248 4.3606 21.5876 6.09187 22.4108C6.80512 22.75 8.2375 22.75 11.1023 22.75Z" fill="currentColor" /></g><defs><clipPath id="clip0_9_589"><rect width={24} height={24} fill="white" /></clipPath></defs>
</svg>