<svg xmlns="http://www.w3.org/2000/svg" width="24" height="24" viewBox="0 0 24 24" fill="none">
<path d="M13.1504 1.25C16.5103 1.25 18.1902 1.25042 19.4736 1.9043C20.6026 2.47954 21.5205 3.39739 22.0957 4.52637C22.7496 5.80977 22.75 7.48965 22.75 10.8496V13.1504C22.75 16.5103 22.7496 18.1902 22.0957 19.4736C21.5205 20.6026 20.6026 21.5205 19.4736 22.0957C18.1902 22.7496 16.5103 22.75 13.1504 22.75H10.8496C7.48965 22.75 5.80977 22.7496 4.52637 22.0957C3.39739 21.5205 2.47954 20.6026 1.9043 19.4736C1.25042 18.1902 1.25 16.5103 1.25 13.1504V10.8496C1.25 7.48965 1.25042 5.80977 1.9043 4.52637C2.47954 3.39739 3.39739 2.47954 4.52637 1.9043C5.80977 1.25042 7.48965 1.25 10.8496 1.25H13.1504ZM12 5.25C11.5858 5.25 11.25 5.58579 11.25 6V7.5C11.25 7.91421 11.5858 8.25 12 8.25C12.4142 8.25 12.75 7.91421 12.75 7.5V6.80371C15.2942 7.16767 17.25 9.35517 17.25 12C17.25 14.8995 14.8995 17.25 12 17.25C9.1005 17.25 6.75 14.8995 6.75 12C6.75 10.55 7.3372 9.23897 8.28809 8.28809C8.58098 7.99519 8.58098 7.51946 8.28809 7.22656C7.99519 6.9337 7.51944 6.93368 7.22656 7.22656C6.00587 8.44725 5.25 10.1362 5.25 12C5.25 15.7279 8.27208 18.75 12 18.75C15.7279 18.75 18.75 15.7279 18.75 12C18.75 8.27208 15.7279 5.25 12 5.25ZM10.9736 9.91797C10.6791 9.67766 10.2443 9.69512 9.96973 9.96973C9.69512 10.2443 9.67766 10.6791 9.91797 10.9736L9.96973 11.0303L11.4697 12.5303L11.5264 12.582C11.8209 12.8223 12.2557 12.8049 12.5303 12.5303C12.8049 12.2557 12.8223 11.8209 12.582 11.5264L12.5303 11.4697L11.0303 9.96973L10.9736 9.91797Z" fill="currentColor" />
</svg>