<svg xmlns="http://www.w3.org/2000/svg" width="40" height="40" viewBox="0 0 40 40" fill="none">
<path d="M20 2.08333C29.895 2.0835 37.916 10.1053 37.916 20.0003C37.9158 29.8952 29.8948 37.9162 20 37.9163C10.105 37.9163 2.08318 29.8953 2.08301 20.0003C2.08301 10.1052 10.1049 2.08333 20 2.08333ZM20 12.0833C19.3096 12.0833 18.75 12.643 18.75 13.3333V20.0003C18.7502 20.4181 18.959 20.8086 19.3066 21.0404L24.3066 24.3734L24.417 24.4388C24.9769 24.7347 25.6812 24.565 26.04 24.0267C26.399 23.4882 26.2848 22.7724 25.7959 22.3695L25.6934 22.2933L21.25 19.3304V13.3333C21.25 12.6431 20.6902 12.0835 20 12.0833Z" fill="currentColor" />
</svg>