<svg xmlns="http://www.w3.org/2000/svg" width="24" height="24" viewBox="0 0 24 24" fill="none">
<g clipPath="url(#clip0_9_592)"><path d="M12.0002 1.25C8.39634 1.25 6.59438 1.25 5.74447 1.77977C4.3746 2.63364 3.76637 4.31362 4.2721 5.84655C4.58587 6.79763 5.97017 7.95121 8.73877 10.2584L9.40424 10.8129C9.864 11.1961 10.0939 11.3876 10.1883 11.612C10.2928 11.8601 10.2928 12.1399 10.1883 12.388C10.0939 12.6124 9.864 12.8039 9.40424 13.1871L8.73877 13.7416C5.97017 16.0488 4.58587 17.2024 4.2721 18.1535C3.76637 19.6864 4.3746 21.3664 5.74447 22.2202C6.59438 22.75 8.39634 22.75 12.0002 22.75C15.6042 22.75 17.4061 22.75 18.256 22.2202C19.6259 21.3664 20.2341 19.6864 19.7284 18.1535C19.4146 17.2024 18.0303 16.0488 15.2617 13.7416L14.5963 13.1871C14.1365 12.8039 13.9066 12.6124 13.8122 12.388C13.7077 12.1399 13.7077 11.8601 13.8122 11.612C13.9066 11.3876 14.1365 11.1961 14.5963 10.8129L15.2617 10.2584C18.0303 7.95121 19.4146 6.79763 19.7284 5.84655C20.2341 4.31362 19.6259 2.63364 18.256 1.77977C17.4061 1.25 15.6042 1.25 12.0002 1.25Z" fill="currentColor" /></g><defs><clipPath id="clip0_9_592"><rect width={24} height={24} fill="white" /></clipPath></defs>
</svg>