<svg xmlns="http://www.w3.org/2000/svg" width="24" height="24" viewBox="0 0 24 24" fill="none">
<path d="M15 14.5L15.6 15C17.2605 16.3838 18.0908 17.0757 18.3678 17.6012C19.1922 19.1654 18.4919 21.0997 16.8572 21.7736C16.3079 22 15.2271 22 13.0656 22H12C8.96156 22 7.44235 22 6.7223 21.5602C5.52422 20.8284 4.99388 19.3635 5.44577 18.0343C5.71737 17.2355 6.88445 16.2629 9.21861 14.3178L13.2 11M8.99996 9.5L8.39996 9C6.73943 7.61623 5.90917 6.92434 5.63217 6.39878C4.80775 4.83458 5.50806 2.90028 7.14277 2.22641C7.69202 2 8.77279 2 10.9343 2H12C15.0384 2 16.5576 2 17.2776 2.43983C18.4757 3.17164 19.006 4.63647 18.5541 5.96565C18.3887 6.4522 17.8911 7.0032 17 7.79912" stroke="currentColor" stroke-width={1.5} stroke-linecap="round" stroke-linejoin="round" />
</svg>