<svg xmlns="http://www.w3.org/2000/svg" width="24" height="24" viewBox="0 0 24 24" fill="none">
<path opacity={0.32} d="M10.85 1.25C7.48969 1.25 5.80953 1.25 4.52606 1.90396C3.39708 2.4792 2.4792 3.39708 1.90396 4.52606C1.25 5.80953 1.25 7.48969 1.25 10.85V13.15C1.25 16.5103 1.25 18.1905 1.90396 19.4739C2.4792 20.6029 3.39708 21.5208 4.52606 22.096C5.80953 22.75 7.48969 22.75 10.85 22.75H13.15C16.5103 22.75 18.1905 22.75 19.4739 22.096C20.6029 21.5208 21.5208 20.6029 22.096 19.4739C22.75 18.1905 22.75 16.5103 22.75 13.15V10.85C22.75 7.48969 22.75 5.80953 22.096 4.52606C21.5208 3.39708 20.6029 2.4792 19.4739 1.90396C18.1905 1.25 16.5103 1.25 13.15 1.25H10.85Z" fill="currentColor" /><path d="M12 5.25C15.7279 5.25 18.75 8.27208 18.75 12C18.75 15.7279 15.7279 18.75 12 18.75C8.27208 18.75 5.25 15.7279 5.25 12C5.25 10.1362 6.00587 8.44725 7.22656 7.22656C7.51944 6.93368 7.99519 6.9337 8.28809 7.22656C8.58098 7.51946 8.58098 7.99519 8.28809 8.28809C7.3372 9.23897 6.75 10.55 6.75 12C6.75 14.8995 9.1005 17.25 12 17.25C14.8995 17.25 17.25 14.8995 17.25 12C17.25 9.35517 15.2942 7.16767 12.75 6.80371V7.5C12.75 7.91421 12.4142 8.25 12 8.25C11.5858 8.25 11.25 7.91421 11.25 7.5V6C11.25 5.58579 11.5858 5.25 12 5.25ZM9.96973 9.96973C10.2443 9.69512 10.6791 9.67766 10.9736 9.91797L11.0303 9.96973L12.5303 11.4697L12.582 11.5264C12.8223 11.8209 12.8049 12.2557 12.5303 12.5303C12.2557 12.8049 11.8209 12.8223 11.5264 12.582L11.4697 12.5303L9.96973 11.0303L9.91797 10.9736C9.67766 10.6791 9.69512 10.2443 9.96973 9.96973Z" fill="currentColor" />
</svg>