<svg xmlns="http://www.w3.org/2000/svg" width="24" height="24" viewBox="0 0 24 24" fill="none">
<path d="M19 1.25C21.0711 1.25 22.75 2.92894 22.75 5C22.75 6.81421 21.4617 8.32734 19.75 8.67481L19.75 15.3242C21.4618 15.6716 22.75 17.1857 22.75 19C22.75 21.0711 21.0711 22.75 19 22.75C17.1858 22.75 15.6727 21.4617 15.3252 19.75L8.6748 19.75C8.32734 21.4617 6.8142 22.75 5 22.75C2.92893 22.75 1.25 21.0711 1.25 19C1.25 17.1857 2.53824 15.6716 4.25 15.3242L4.25 8.67481C2.53834 8.32734 1.25 6.81421 1.25 5C1.25 2.92893 2.92893 1.25 5 1.25C6.81421 1.25 8.32734 2.53834 8.6748 4.25L15.3252 4.25C15.6727 2.53834 17.1858 1.25 19 1.25ZM8.6748 5.75C8.37653 7.21932 7.21932 8.37653 5.75 8.67481L5.75 15.3242C7.21941 15.6224 8.37652 16.7806 8.6748 18.25L15.3252 18.25C15.6235 16.7806 16.7806 15.6224 18.25 15.3242L18.25 8.67481C16.7807 8.37654 15.6235 7.21932 15.3252 5.75L8.6748 5.75Z" fill="currentColor" />
</svg>