<svg xmlns="http://www.w3.org/2000/svg" width="24" height="24" viewBox="0 0 24 24" fill="none">
<path opacity={0.32} d="M16 18.25C16.4142 18.25 16.75 18.5858 16.75 19C16.75 19.4142 16.4142 19.75 16 19.75L8 19.75C7.58578 19.75 7.25 19.4142 7.25 19C7.25 18.5858 7.58579 18.25 8 18.25L16 18.25ZM5 7.25C5.41421 7.25 5.75 7.58579 5.75 8L5.75 16C5.75 16.4142 5.41421 16.75 5 16.75C4.58579 16.75 4.25 16.4142 4.25 16L4.25 8C4.25 7.58579 4.58579 7.25 5 7.25ZM19 7.25C19.4142 7.25 19.75 7.58579 19.75 8L19.75 16C19.75 16.4142 19.4142 16.75 19 16.75C18.5858 16.75 18.25 16.4142 18.25 16L18.25 8C18.25 7.58579 18.5858 7.25 19 7.25ZM16 4.25C16.4142 4.25 16.75 4.58579 16.75 5C16.75 5.41422 16.4142 5.75 16 5.75L8 5.75C7.58579 5.75 7.25 5.41421 7.25 5C7.25 4.58579 7.58579 4.25 8 4.25L16 4.25Z" fill="currentColor" /><path d="M5 1.25C2.92893 1.25 1.25 2.92893 1.25 5C1.25 7.07107 2.92893 8.75 5 8.75C7.07107 8.75 8.75 7.07107 8.75 5C8.75 2.92893 7.07107 1.25 5 1.25Z" fill="currentColor" /><path d="M19 1.25C16.9289 1.25 15.25 2.92893 15.25 5C15.25 7.07107 16.9289 8.75 19 8.75C21.0711 8.75 22.75 7.07107 22.75 5C22.75 2.92893 21.0711 1.25 19 1.25Z" fill="currentColor" /><path d="M5 15.25C2.92893 15.25 1.25 16.9289 1.25 19C1.25 21.0711 2.92893 22.75 5 22.75C7.07107 22.75 8.75 21.0711 8.75 19C8.75 16.9289 7.07107 15.25 5 15.25Z" fill="currentColor" /><path d="M19 15.25C16.9289 15.25 15.25 16.9289 15.25 19C15.25 21.0711 16.9289 22.75 19 22.75C21.0711 22.75 22.75 21.0711 22.75 19C22.75 16.9289 21.0711 15.25 19 15.25Z" fill="currentColor" />
</svg>