<svg xmlns="http://www.w3.org/2000/svg" width="24" height="24" viewBox="0 0 24 24" fill="none">
<path d="M8 5C8 6.65685 6.65685 8 5 8M8 5C8 3.34315 6.65685 2 5 2C3.34315 2 2 3.34315 2 5C2 6.65685 3.34315 8 5 8M8 5H16M5 8L5 16M16 5C16 6.65685 17.3431 8 19 8M16 5C16 3.34315 17.3431 2 19 2C20.6569 2 22 3.34315 22 5C22 6.65685 20.6569 8 19 8M5 16C3.34315 16 2 17.3431 2 19C2 20.6569 3.34315 22 5 22C6.65685 22 8 20.6569 8 19M5 16C6.65685 16 8 17.3431 8 19M8 19H16M16 19C16 20.6569 17.3431 22 19 22C20.6569 22 22 20.6569 22 19C22 17.3431 20.6569 16 19 16M16 19C16 17.3431 17.3431 16 19 16M19 16V8" stroke="currentColor" stroke-width={1.5} stroke-linecap="round" stroke-linejoin="round" />
</svg>