<svg xmlns="http://www.w3.org/2000/svg" width="40" height="40" viewBox="0 0 40 40" fill="none">
<path d="M22.1169 1.83402C23.0256 1.83402 23.8931 1.80862 24.6628 2.11137C25.2859 2.35646 25.8378 2.75404 26.2673 3.26762C26.7979 3.90213 27.0474 4.73275 27.3347 5.59476L27.7488 6.83402H36.6667C37.4951 6.83411 38.1667 7.50565 38.1667 8.33402C38.1667 9.16237 37.4951 9.83393 36.6667 9.83402H34.7478L33.7546 26.7149C33.6521 28.4579 33.5712 29.8536 33.4148 30.9776C33.2559 32.1193 33.0052 33.1035 32.4988 34.0039C31.6854 35.45 30.451 36.6148 28.9597 37.3418C28.031 37.7946 27.0328 37.9866 25.8835 38.0782C24.7524 38.1682 23.3549 38.167 21.6091 38.167H18.3914C16.6455 38.167 15.2481 38.1683 14.1169 38.0782C12.9676 37.9866 11.9696 37.7946 11.0408 37.3418C9.54951 36.6148 8.31507 35.4499 7.50171 34.0039C6.99532 33.1035 6.74458 32.1193 6.58569 30.9776C6.4293 29.8536 6.34838 28.4579 6.24585 26.7149L5.25269 9.83402H3.33374C2.50533 9.83402 1.83377 9.16242 1.83374 8.33402C1.83374 7.50559 2.50531 6.83402 3.33374 6.83402H12.2527L12.6658 5.59476C12.9531 4.73267 13.2035 3.90216 13.7341 3.26762C14.1637 2.75412 14.7156 2.35639 15.3386 2.11137C16.1083 1.80881 16.975 1.83402 17.8835 1.83402H22.1169ZM16.6667 15C15.7463 15.0001 14.9998 15.7466 14.9998 16.667V28.334C15 29.2542 15.7465 29.9999 16.6667 30C17.5871 30 18.3335 29.2543 18.3337 28.334V16.667C18.3337 15.7466 17.5872 15 16.6667 15ZM23.3337 15C22.4133 15.0001 21.6667 15.7466 21.6667 16.667V23.334C21.667 24.2542 22.4135 24.9999 23.3337 25C24.2539 24.9999 24.9995 24.2542 24.9998 23.334V16.667C24.9998 15.7467 24.2541 15.0002 23.3337 15ZM17.8835 4.83402C16.7193 4.83402 16.5486 4.85921 16.4363 4.90336C16.2805 4.96462 16.1423 5.06402 16.0349 5.19242C15.9575 5.28501 15.8796 5.43869 15.5115 6.54301L15.4148 6.83402H24.5857L24.489 6.54301C24.121 5.43889 24.043 5.28501 23.9656 5.19242C23.8582 5.06408 23.7199 4.96462 23.5642 4.90336C23.4519 4.85925 23.2805 4.83402 22.1169 4.83402H17.8835Z" fill="currentColor" />
</svg>