<svg xmlns="http://www.w3.org/2000/svg" width="40" height="40" viewBox="0 0 40 40" fill="none">
<path d="M6.66659 8.3335L7.74265 26.6265C7.95053 30.1605 8.05447 31.9275 8.80871 33.2684C9.47268 34.4489 10.4804 35.3991 11.6979 35.9926C13.0808 36.6668 14.8508 36.6668 18.3909 36.6668H21.6089C25.149 36.6668 26.9191 36.6668 28.302 35.9926C29.5194 35.3991 30.5272 34.4489 31.1911 33.2684C31.9454 31.9275 32.0493 30.1605 32.2572 26.6265L32.9411 15.0002M6.66659 8.3335H3.33325M6.66659 8.3335H36.6666M26.6666 8.3335L26.2155 6.98028C25.7784 5.66891 25.5598 5.01323 25.1544 4.52846C24.7965 4.10039 24.3367 3.76903 23.8174 3.56479C23.2293 3.3335 22.5382 3.3335 21.1559 3.3335H18.844C17.4617 3.3335 16.7705 3.3335 16.1824 3.56479C15.6631 3.76903 15.2034 4.10039 14.8454 4.52846C14.44 5.01323 14.2214 5.66891 13.7843 6.98028L13.3333 8.3335M16.6666 16.6668V28.3335M23.3333 16.6668V23.3335" stroke="currentColor" stroke-width={3} stroke-linecap="round" stroke-linejoin="round" />
</svg>