<svg xmlns="http://www.w3.org/2000/svg" width="40" height="40" viewBox="0 0 40 40" fill="none">
<path d="M6.66659 8.33325L7.74265 26.6263C7.95053 30.1603 8.05447 31.9273 8.80871 33.2682C9.47268 34.4487 10.4804 35.3989 11.6979 35.9924C13.0808 36.6666 14.8508 36.6666 18.3909 36.6666H21.6089C25.149 36.6666 26.9191 36.6666 28.302 35.9924C29.5194 35.3989 30.5272 34.4487 31.1911 33.2682C31.9454 31.9273 32.0493 30.1603 32.2572 26.6263L33.3333 8.33325M6.66659 8.33325H3.33325M6.66659 8.33325H33.3333M33.3333 8.33325H36.6666M26.6666 8.33325L25.9116 6.06834C25.5838 5.08482 25.4199 4.59305 25.1158 4.22948C24.8473 3.90842 24.5025 3.6599 24.113 3.50672C23.672 3.33325 23.1536 3.33325 22.1169 3.33325H17.883C16.8462 3.33325 16.3279 3.33325 15.8868 3.50672C15.4973 3.6599 15.1525 3.90842 14.884 4.22948C14.58 4.59305 14.4161 5.08482 14.0882 6.06834L13.3333 8.33325" stroke="currentColor" stroke-width={3} stroke-linecap="round" stroke-linejoin="round" />
</svg>