<svg xmlns="http://www.w3.org/2000/svg" width="40" height="40" viewBox="0 0 40 40" fill="none">
<path d="M22.1165 2.08289C23.0464 2.08289 23.8556 2.06153 24.5706 2.34266C25.1547 2.5724 25.6718 2.94613 26.0745 3.42762C26.5672 4.01691 26.8039 4.7906 27.0979 5.67274L27.5676 7.08289H36.6663C37.3564 7.08298 37.916 7.64281 37.9163 8.33289C37.9163 9.02319 37.3565 9.5828 36.6663 9.58289H34.512L33.5051 26.6991C33.4024 28.4457 33.3219 29.8296 33.1672 30.9413C33.0105 32.068 32.7654 33.0186 32.2805 33.8807C31.4921 35.2824 30.2953 36.4113 28.8499 37.1161C27.9606 37.5496 26.9976 37.7377 25.8635 37.828C24.7446 37.9171 23.3585 37.9159 21.6086 37.9159H18.3909C16.6409 37.9159 15.255 37.9171 14.136 37.828C13.0019 37.7377 12.0389 37.5496 11.1497 37.1161C9.70408 36.4113 8.50742 35.2825 7.71899 33.8807C7.23409 33.0185 6.98905 32.0681 6.83228 30.9413C6.67764 29.8296 6.59713 28.4457 6.49438 26.6991L5.48853 9.58289H3.33325C2.6429 9.58289 2.08325 9.02325 2.08325 8.33289C2.08351 7.64275 2.64305 7.08289 3.33325 7.08289H12.4329L12.9026 5.67274C13.1966 4.79073 13.4324 4.01687 13.925 3.42762C14.3277 2.94624 14.8449 2.57238 15.429 2.34266C16.1439 2.06157 16.9531 2.08289 17.8831 2.08289H22.1165ZM17.8831 4.58289C16.7404 4.58289 16.5111 4.60417 16.344 4.66981C16.1495 4.74635 15.9771 4.87087 15.843 5.03113C15.7278 5.16887 15.6351 5.37954 15.2737 6.46375L15.0676 7.08289H24.9319L24.7258 6.46375C24.3644 5.37937 24.2717 5.16888 24.1565 5.03113C24.0223 4.87078 23.8501 4.74635 23.6555 4.66981C23.4884 4.60409 23.2596 4.58289 22.1165 4.58289H17.8831Z" fill="currentColor" />
</svg>