<svg xmlns="http://www.w3.org/2000/svg" width="40" height="40" viewBox="0 0 40 40" fill="none">
<path d="M6.66659 8.3335L7.74265 26.6265C7.95053 30.1605 8.05447 31.9275 8.80871 33.2684C9.47268 34.4489 10.4804 35.3991 11.6979 35.9926C13.0808 36.6668 14.8508 36.6668 18.3909 36.6668H21.6089C25.149 36.6668 26.9191 36.6668 28.302 35.9926C29.5194 35.3991 30.5272 34.4489 31.1911 33.2684C31.9454 31.9275 32.0493 30.1605 32.2572 26.6265L33.3333 8.3335M6.66659 8.3335H3.33325M6.66659 8.3335H33.3333M33.3333 8.3335H36.6666M26.6666 8.3335L25.9116 6.06859C25.5838 5.08506 25.4199 4.5933 25.1158 4.22972C24.8473 3.90866 24.5025 3.66015 24.113 3.50697C23.672 3.3335 23.1536 3.3335 22.1169 3.3335H17.883C16.8462 3.3335 16.3279 3.3335 15.8868 3.50697C15.4973 3.66015 15.1525 3.90866 14.884 4.22972C14.58 4.5933 14.4161 5.08506 14.0882 6.06859L13.3333 8.3335M16.6666 16.6668V28.3335M23.3333 16.6668V23.3335" stroke="currentColor" stroke-width={3} stroke-linecap="round" stroke-linejoin="round" />
</svg>