<svg xmlns="http://www.w3.org/2000/svg" width="24" height="24" viewBox="0 0 24 24" fill="none">
<path d="M14.75 1.25C17.55 1.25 18.95 1.25013 20.0195 1.79492C20.9603 2.27429 21.7257 3.03966 22.2051 3.98047C22.7499 5.04998 22.75 6.45005 22.75 9.25V14.75C22.75 17.55 22.7499 18.95 22.2051 20.0195C21.7257 20.9603 20.9603 21.7257 20.0195 22.2051C18.95 22.7499 17.55 22.75 14.75 22.75H9.25C6.45005 22.75 5.04998 22.7499 3.98047 22.2051C3.03966 21.7257 2.27429 20.9603 1.79492 20.0195C1.25013 18.95 1.25 17.55 1.25 14.75V9.25C1.25 6.45005 1.25013 5.04998 1.79492 3.98047C2.27429 3.03966 3.03966 2.27429 3.98047 1.79492C5.04998 1.25013 6.45005 1.25 9.25 1.25H14.75ZM14 7.25C13.5858 7.25 13.25 7.58579 13.25 8C13.25 8.41421 13.5858 8.75 14 8.75H16.3984L13.8438 11.8164C13.8263 11.8373 13.821 11.8435 13.8174 11.8477C13.3477 12.3992 12.5089 12.4373 11.9912 11.9307C11.9873 11.9268 11.9812 11.9206 11.9619 11.9014C11.9469 11.8863 11.9351 11.8753 11.9248 11.8652C10.8554 10.8168 9.14458 10.8168 8.0752 11.8652C8.06493 11.8753 8.05314 11.8863 8.03809 11.9014L5.46973 14.4697C5.17683 14.7626 5.17683 15.2374 5.46973 15.5303C5.76262 15.8232 6.23738 15.8232 6.53027 15.5303L9.125 12.9355C9.61102 12.4593 10.389 12.4593 10.875 12.9355L10.9414 13.002C12.0804 14.1175 13.9266 14.0334 14.96 12.8193C14.9698 12.8077 14.9813 12.7941 14.9961 12.7764L17.25 10.0713V12C17.25 12.4142 17.5858 12.75 18 12.75C18.4142 12.75 18.75 12.4142 18.75 12V8C18.75 7.58579 18.4142 7.25 18 7.25H14Z" fill="currentColor" />
</svg>