<svg xmlns="http://www.w3.org/2000/svg" width="24" height="24" viewBox="0 0 24 24" fill="none">
<path d="M14.75 1.25C17.55 1.25 18.95 1.25013 20.0195 1.79492C20.9603 2.27429 21.7257 3.03966 22.2051 3.98047C22.7499 5.04998 22.75 6.45005 22.75 9.25V14.75C22.75 17.55 22.7499 18.95 22.2051 20.0195C21.7257 20.9603 20.9603 21.7257 20.0195 22.2051C18.95 22.7499 17.55 22.75 14.75 22.75H9.25C6.45005 22.75 5.04998 22.7499 3.98047 22.2051C3.03966 21.7257 2.27429 20.9603 1.79492 20.0195C1.25013 18.95 1.25 17.55 1.25 14.75V9.25C1.25 6.45005 1.25013 5.04998 1.79492 3.98047C2.27429 3.03966 3.03966 2.27429 3.98047 1.79492C5.04998 1.25013 6.45005 1.25 9.25 1.25H14.75ZM6.53027 8.46973C6.23738 8.17683 5.76262 8.17683 5.46973 8.46973C5.17683 8.76262 5.17683 9.23738 5.46973 9.53027L8.03809 12.0986C8.05314 12.1137 8.06493 12.1247 8.0752 12.1348C9.14458 13.1832 10.8554 13.1832 11.9248 12.1348C11.9351 12.1247 11.9469 12.1137 11.9619 12.0986C11.9812 12.0794 11.9873 12.0732 11.9912 12.0693C12.5089 11.5627 13.3477 11.6008 13.8174 12.1523C13.821 12.1565 13.8263 12.1627 13.8438 12.1836L16.3984 15.25H14C13.5858 15.25 13.25 15.5858 13.25 16C13.25 16.4142 13.5858 16.75 14 16.75H18C18.4142 16.75 18.75 16.4142 18.75 16V12C18.75 11.5858 18.4142 11.25 18 11.25C17.5858 11.25 17.25 11.5858 17.25 12V13.9277L14.9961 11.2236C14.9813 11.2059 14.9698 11.1923 14.96 11.1807C13.9266 9.96659 12.0804 9.88253 10.9414 10.998L10.875 11.0645C10.389 11.5407 9.61102 11.5407 9.125 11.0645L6.53027 8.46973Z" fill="currentColor" />
</svg>