<svg xmlns="http://www.w3.org/2000/svg" width="24" height="24" viewBox="0 0 24 24" fill="none">
<g clipPath="url(#clip0_48_4336)"><path d="M6.50002 16.25C8.29495 16.25 9.75002 17.7051 9.75002 19.5C9.75002 21.2949 8.29495 22.75 6.50002 22.75C4.70511 22.75 3.25002 21.2949 3.25002 19.5C3.25002 17.7051 4.70511 16.25 6.50002 16.25ZM17.5 16.25C19.2949 16.25 20.75 17.7051 20.75 19.5C20.75 21.2949 19.2949 22.75 17.5 22.75C15.7051 22.75 14.25 21.2949 14.25 19.5C14.25 17.7051 15.7051 16.25 17.5 16.25ZM18.9502 1.25C20.6303 1.25 21.4706 1.25018 22.1123 1.57715C22.6766 1.86472 23.1353 2.32347 23.4229 2.8877C23.7498 3.52941 23.75 4.36978 23.75 6.0498V17.9932C23.75 18.9634 22.9635 19.75 21.9932 19.75C22.1323 17.2089 20.0501 15 17.5 15C15.2372 15 13.3428 16.7398 13.042 18.9072C12.994 19.2533 12.9697 19.4265 12.9112 19.5186C12.8525 19.6106 12.7973 19.6586 12.6983 19.7041C12.5991 19.7496 12.4531 19.75 12.1621 19.75H11.8379C11.547 19.75 11.401 19.7496 11.3018 19.7041C11.2027 19.6586 11.1476 19.6106 11.0889 19.5186C11.0304 19.4265 11.0061 19.2533 10.958 18.9072C10.6572 16.7398 8.76289 15 6.50002 15C4.03836 15 2.01234 17.0587 2.00002 19.4873C1.99914 19.6299 1.88679 19.7499 1.74416 19.75C0.919134 19.75 0.250021 19.0809 0.250021 18.2559V15.6592C0.0951108 15.4831 2.11574e-05 15.253 2.11574e-05 15V12.3291C1.93394e-05 11.866 -0.00265468 11.5245 0.0527555 11.1855C0.0993244 10.9008 0.176671 10.6216 0.283224 10.3535C0.410085 10.0344 0.587917 9.74283 0.826193 9.3457L1.74416 7.81641C2.22004 7.02328 2.56191 6.432 3.05764 5.99609C3.47168 5.63208 3.9563 5.3572 4.48147 5.18945C5.1103 4.98864 5.79286 5 6.71779 5H10.2549C10.2686 3.98743 10.3267 3.37921 10.5772 2.8877C10.8647 2.32347 11.3235 1.86473 11.8877 1.57715C12.5294 1.25018 13.3698 1.25 15.0498 1.25H18.9502ZM6.71779 7C5.66071 7 5.35151 7.01117 5.08986 7.09473C4.82731 7.17862 4.58495 7.31604 4.37795 7.49805C4.17169 7.67942 4.00285 7.93831 3.45901 8.84473L2.61233 10.2549C2.85202 10.2497 3.12804 10.25 3.45022 10.25H7.04983C8.16993 10.25 8.7304 10.2502 9.15822 10.0322C9.53448 9.84049 9.84051 9.53446 10.0322 9.1582C10.2502 8.73038 10.25 8.16991 10.25 7.0498V7H6.71779Z" fill="currentColor" /></g><defs><clipPath id="clip0_48_4336"><rect width={24} height={24} fill="white" /></clipPath></defs>
</svg>