<svg xmlns="http://www.w3.org/2000/svg" width="24" height="24" viewBox="0 0 24 24" fill="none">
<path d="M7.40039 0.549763C7.63354 0.239225 8.06118 0.160927 8.38672 0.357381L8.4502 0.400349L9.57031 1.24019C10.6557 2.05423 11.0361 2.32277 11.4268 2.42574C11.8022 2.52454 12.1978 2.52456 12.5732 2.42574C12.9639 2.32276 13.3442 2.05428 14.4297 1.24019L15.5498 0.400351C15.8811 0.151901 16.351 0.218664 16.5996 0.549765C16.8479 0.881022 16.7812 1.35102 16.4502 1.59957L15.3301 2.44039C14.9107 2.75489 14.5501 3.02577 14.2178 3.24996L14.75 3.24996C17.55 3.24996 18.95 3.25002 20.0195 3.79488C20.9603 4.27422 21.7257 5.03873 22.2051 5.97945C22.75 7.04901 22.75 8.4497 22.75 11.25L22.75 12.75C22.75 15.5499 22.7499 16.95 22.2051 18.0195C21.7257 18.9603 20.9603 19.7257 20.0195 20.205C19.3205 20.5611 18.4802 20.6818 17.2002 20.7246L17.6709 21.665L17.7012 21.7353C17.8357 22.0907 17.6821 22.4973 17.335 22.6709C16.9646 22.8558 16.5143 22.7051 16.3291 22.3349L15.5342 20.7461C15.2856 20.7466 15.0245 20.75 14.75 20.75L9.25 20.75C8.97515 20.75 8.71372 20.7466 8.46484 20.7461L7.67089 22.3349C7.48571 22.7051 7.03538 22.8557 6.66504 22.6709C6.29472 22.4857 6.14425 22.0354 6.3291 21.665L6.79882 20.7246C5.51908 20.6818 4.67843 20.5612 3.97949 20.205C3.0388 19.7257 2.27424 18.9602 1.79492 18.0195C1.25003 16.95 1.25 15.5499 1.25 12.75L1.25 11.25C1.25 8.44969 1.24995 7.04901 1.79492 5.97945C2.27422 5.03891 3.03898 4.27422 3.97949 3.79488C5.04905 3.24991 6.44974 3.24996 9.25 3.24996L9.78125 3.24996C9.44907 3.02586 9.08897 2.75468 8.66992 2.44039L7.5498 1.59957C7.21873 1.351 7.15201 0.881026 7.40039 0.549763ZM12 15C11.1716 15 10.5 15.6715 10.5 16.5C10.5001 17.3283 11.1716 18 12 18C12.8283 17.9999 13.4999 17.3282 13.5 16.5C13.5 15.6716 12.8284 15 12 15Z" fill="currentColor" />
</svg>