<svg xmlns="http://www.w3.org/2000/svg" width="24" height="24" viewBox="0 0 24 24" fill="none">
<path d="M22 10V9.5C22 8.10444 22 7.40666 21.8278 6.83886C21.44 5.56046 20.4395 4.56004 19.1611 4.17224C18.5933 4 17.8956 4 16.5 4H7.5C6.10444 4 5.40666 4 4.83886 4.17224C3.56046 4.56004 2.56004 5.56046 2.17224 6.83886C2 7.40666 2 8.10444 2 9.5V10M22 14V14.5C22 15.8956 22 16.5933 21.8278 17.1611C21.44 18.4395 20.4395 19.44 19.1611 19.8278C18.5933 20 17.8956 20 16.5 20H7.5C6.10444 20 5.40666 20 4.83886 19.8278C3.56046 19.44 2.56004 18.4395 2.17224 17.1611C2 16.5933 2 15.8956 2 14.5V14M8 1L8.16 1.12C9.53703 2.15278 10.2256 2.66916 10.9817 2.86822C11.6492 3.04393 12.3508 3.04393 13.0183 2.86822C13.7744 2.66916 14.463 2.15278 15.84 1.12L16 1M8 20L7 22M16 20L17 22M12.5 16C12.5 16.2761 12.2761 16.5 12 16.5C11.7239 16.5 11.5 16.2761 11.5 16M12.5 16C12.5 15.7239 12.2761 15.5 12 15.5C11.7239 15.5 11.5 15.7239 11.5 16M12.5 16H11.5" stroke="currentColor" stroke-width={1.5} stroke-linecap="round" stroke-linejoin="round" />
</svg>