<svg xmlns="http://www.w3.org/2000/svg" width="24" height="24" viewBox="0 0 24 24" fill="none">
<path opacity={0.32} fill-rule="evenodd" clip-rule="evenodd" d="M9.25 20.75C6.44974 20.75 5.04961 20.75 3.98005 20.205C3.03924 19.7257 2.27433 18.9608 1.79497 18.02C1.25 16.9504 1.25 15.5503 1.25 12.75L1.25 11.25C1.25 8.44974 1.25 7.04961 1.79497 5.98005C2.27434 5.03924 3.03924 4.27433 3.98005 3.79497C5.04961 3.25 6.44974 3.25 9.25 3.25L14.75 3.25C17.5503 3.25 18.9504 3.25 20.02 3.79497C20.9608 4.27434 21.7257 5.03924 22.205 5.98005C22.75 7.04961 22.75 8.44974 22.75 11.25V12.75C22.75 15.5503 22.75 16.9504 22.205 18.02C21.7257 18.9608 20.9608 19.7257 20.02 20.205C18.9504 20.75 17.5503 20.75 14.75 20.75H9.25Z" fill="currentColor" /><path d="M6.82855 20.6649C7.0137 20.2946 7.46402 20.1442 7.83441 20.329C8.20476 20.5142 8.35528 20.9645 8.17034 21.3349L7.67034 22.3349C7.48516 22.7052 7.03488 22.8557 6.66448 22.6708C6.29425 22.4856 6.14365 22.0353 6.32855 21.6649L6.82855 20.6649ZM16.1645 20.329C16.5116 20.1557 16.9288 20.2768 17.1323 20.5976L17.1703 20.6649L17.6703 21.6649L17.7006 21.7353C17.8352 22.0906 17.6817 22.4972 17.3344 22.6708C16.964 22.8557 16.5137 22.7052 16.3285 22.3349L15.8285 21.3349C15.6437 20.9645 15.7942 20.5142 16.1645 20.329ZM7.39984 0.549705C7.63296 0.239211 8.06064 0.160974 8.38617 0.357322L8.44964 0.400291L9.56976 1.24013C10.6551 2.05415 11.0356 2.32268 11.4262 2.42568C11.8016 2.5245 12.1973 2.52448 12.5727 2.42568C12.9633 2.32271 13.3437 2.05421 14.4291 1.24014L15.5493 0.400292C15.8805 0.151868 16.3504 0.218697 16.5991 0.549706C16.8475 0.880973 16.7807 1.35092 16.4496 1.59951L15.3295 2.44033C14.3505 3.17459 13.6976 3.6801 12.9545 3.87588C12.3288 4.04057 11.6701 4.04059 11.0444 3.87588C10.3013 3.68006 9.64836 3.17457 8.66937 2.44033L7.54925 1.59951C7.21828 1.35091 7.15146 0.880927 7.39984 0.549705Z" fill="currentColor" /><path d="M12 18C12.8284 18 13.5 17.3284 13.5 16.5C13.5 15.6716 12.8284 15 12 15C11.1716 15 10.5 15.6716 10.5 16.5C10.5 17.3284 11.1716 18 12 18Z" fill="currentColor" />
</svg>