<svg xmlns="http://www.w3.org/2000/svg" width="40" height="40" viewBox="0 0 40 40" fill="none">
<path d="M38.3332 5.50602C38.3332 10.2941 35.5961 12.0588 35.5961 12.0588V13.4578C35.5961 23.506 27.7832 35 13.5444 35C9.11788 35 5.0602 33.7711 1.6665 31.6024C5.73881 32.1012 9.85349 30.9695 13.1018 28.494C9.70809 28.4217 6.83082 26.253 5.87174 23.2169C7.07134 23.3848 8.15378 23.3627 9.33921 23.0723C5.72199 22.3339 3.14202 19.1568 3.14202 15.5542C4.17489 16.1325 5.42908 16.4217 6.68327 16.494C3.34048 14.348 2.18144 9.74943 4.24866 6.37349C8.08501 10.9277 13.8395 13.9639 20.2581 14.3253C20.1105 13.747 20.0367 13.1687 20.0367 12.5904C20.0367 8.39759 23.5042 5 27.7832 5C29.9965 5 31.9884 5.86747 33.464 7.38554C35.1608 7.0241 36.8577 6.37349 38.3332 5.50602Z" stroke="currentColor" stroke-width={2.5} stroke-linecap="round" stroke-linejoin="round" />
</svg>