<svg xmlns="http://www.w3.org/2000/svg" width="40" height="40" viewBox="0 0 40 40" fill="none">
<path d="M27.7833 3.75C22.8381 3.75 18.7868 7.68336 18.7868 12.5904C18.7868 12.7056 18.7893 12.8208 18.7943 12.9358C13.3489 12.2368 8.51626 9.49928 5.2048 5.56817C4.946 5.26095 4.55532 5.09682 4.15475 5.12704C3.75418 5.15726 3.39255 5.37815 3.18277 5.72073C1.54558 8.39439 1.62772 11.6816 3.03386 14.3089C2.39997 14.364 1.89215 14.9134 1.89215 15.5542C1.89215 18.2027 3.08523 20.6456 5.01754 22.3044C4.67341 22.6267 4.53596 23.1377 4.67992 23.5934C5.4708 26.0971 7.36417 28.0781 9.77772 29.0635C7.32098 30.2304 4.55829 30.6972 1.8186 30.3617C1.23926 30.2907 0.687925 30.6301 0.490393 31.1794C0.29286 31.7286 0.501714 32.3414 0.993539 32.6557C4.5908 34.9545 8.88253 36.25 13.5446 36.25C28.5894 36.25 36.8462 24.0747 36.8462 13.4578V12.6505L36.8782 12.6207C37.1976 12.3217 37.6061 11.8771 38.0089 11.2652C38.8218 10.03 39.5833 8.1544 39.5833 5.50602C39.5833 5.05768 39.3432 4.64368 38.954 4.42104C38.5649 4.1984 38.0863 4.20123 37.6998 4.42845C36.526 5.11853 35.1913 5.66322 33.835 6.01407C32.1901 4.56627 30.0835 3.75 27.7833 3.75Z" fill="currentColor" />
</svg>