<svg xmlns="http://www.w3.org/2000/svg" width="24" height="24" viewBox="0 0 24 24" fill="none">
<path d="M11.9999 1.25C16.9227 1.25011 19.6247 4.56342 21.0565 7.6875C21.7745 9.25395 22.1957 10.8115 22.4374 11.9717C22.7454 13.45 21.5197 14.7499 20.0097 14.75H12.9999V20C12.9999 21.6569 11.6567 23 9.99989 23C8.34304 23 6.99989 21.6569 6.99989 20V19C6.99989 18.4477 7.44761 18 7.99989 18C8.55218 18 8.99989 18.4477 8.99989 19V20C8.99989 20.5523 9.44761 21 9.99989 21C10.5522 21 10.9999 20.5523 10.9999 20V14.75H3.99013C2.47997 14.75 1.25439 13.4501 1.56239 11.9717C1.80412 10.8115 2.22531 9.25391 2.94325 7.6875C4.37516 4.56341 7.07701 1.25 11.9999 1.25Z" fill="currentColor" />
</svg>