<svg xmlns="http://www.w3.org/2000/svg" width="24" height="24" viewBox="0 0 24 24" fill="none">
<path d="M12 2C16.9747 2 19.5052 5.66632 20.7736 8.94588C21.2403 10.1525 21.4736 10.7558 21.2838 11.6339C21.1427 12.2865 20.5582 13.1392 20.0005 13.5062C19.2499 14 18.4277 14 16.7834 14H7.21664C5.57219 14 4.74996 14 3.99941 13.5061C3.44164 13.1391 2.85718 12.2864 2.71613 11.6338C2.52632 10.7556 2.75981 10.152 3.22678 8.94486C3.34771 8.63225 3.48011 8.31612 3.625 8M12 2C9.5 2 7.99992 8.5 8 14H16M12 2C14.0075 2 15.3702 5.86893 15.8292 10.5M12 2C9.06195 2 6.97646 3.27883 5.5 5.00155M12 14V20C12 21.1046 11.1046 22 10 22C8.89543 22 8 21.1046 8 20V19" stroke="currentColor" stroke-width={2} stroke-linecap="round" stroke-linejoin="round" />
</svg>