<svg xmlns="http://www.w3.org/2000/svg" width="24" height="24" viewBox="0 0 24 24" fill="none">
<path d="M14.75 1.25C17.55 1.25 18.95 1.25013 20.0195 1.79492C20.9603 2.27429 21.7257 3.03966 22.2051 3.98047C22.7499 5.04998 22.75 6.45005 22.75 9.25V14.75C22.75 17.55 22.7499 18.95 22.2051 20.0195C21.7257 20.9603 20.9603 21.7257 20.0195 22.2051C18.95 22.7499 17.55 22.75 14.75 22.75H9.25C6.45005 22.75 5.04998 22.7499 3.98047 22.2051C3.03966 21.7257 2.27429 20.9603 1.79492 20.0195C1.25013 18.95 1.25 17.55 1.25 14.75V9.25C1.25 6.45005 1.25013 5.04998 1.79492 3.98047C2.27429 3.03966 3.03966 2.27429 3.98047 1.79492C5.04998 1.25013 6.45005 1.25 9.25 1.25H14.75ZM12.5 9.25C10.4804 9.25002 8.68282 10.3921 7.4541 11.4268C7.19847 11.642 6.9639 11.8586 6.75 12.0645V10C6.75 9.58579 6.41421 9.25 6 9.25C5.58581 9.25003 5.25 9.58581 5.25 10V14C5.25 14.4142 5.58581 14.75 6 14.75H10C10.4142 14.75 10.75 14.4142 10.75 14C10.75 13.5858 10.4142 13.25 10 13.25H7.67969C7.89983 13.0334 8.14842 12.8027 8.4209 12.5732C9.5671 11.6081 11.0198 10.75 12.5 10.75C14.4895 10.75 15.6621 11.6194 16.3555 12.4727C16.7094 12.9083 16.942 13.3468 17.0859 13.6758C17.1575 13.8394 17.2066 13.9736 17.2363 14.0635C17.2511 14.1081 17.2607 14.1417 17.2666 14.1621C17.2695 14.1721 17.2715 14.1792 17.2725 14.1826L17.2734 14.1855C17.3754 14.5851 17.7811 14.8275 18.1816 14.7275C18.5834 14.6271 18.8279 14.2201 18.7275 13.8184L18 14C18.6976 13.8256 18.7264 13.8181 18.7275 13.8174V13.8164L18.7266 13.8145C18.7262 13.8131 18.726 13.8113 18.7256 13.8096C18.7246 13.8056 18.7233 13.7998 18.7217 13.7939C18.7185 13.7822 18.7134 13.767 18.708 13.748C18.697 13.7099 18.6815 13.6573 18.6602 13.5928C18.6176 13.464 18.5534 13.2855 18.4609 13.0742C18.2767 12.6532 17.978 12.0917 17.5195 11.5273C16.5879 10.3807 15.0103 9.25 12.5 9.25Z" fill="currentColor" />
</svg>