<svg xmlns="http://www.w3.org/2000/svg" width="24" height="24" viewBox="0 0 24 24" fill="none">
<path d="M14.75 1.25C17.55 1.25 18.95 1.25013 20.0195 1.79492C20.9603 2.27429 21.7257 3.03966 22.2051 3.98047C22.7499 5.04998 22.75 6.45005 22.75 9.25V14.75C22.75 17.55 22.7499 18.95 22.2051 20.0195C21.7257 20.9603 20.9603 21.7257 20.0195 22.2051C18.95 22.7499 17.55 22.75 14.75 22.75H9.25C6.45005 22.75 5.04998 22.7499 3.98047 22.2051C3.03966 21.7257 2.27429 20.9603 1.79492 20.0195C1.25013 18.95 1.25 17.55 1.25 14.75V9.25C1.25 6.45005 1.25013 5.04998 1.79492 3.98047C2.27429 3.03966 3.03966 2.27429 3.98047 1.79492C5.04998 1.25013 6.45005 1.25 9.25 1.25H14.75ZM8.53027 5.46973C8.23738 5.17683 7.76262 5.17683 7.46973 5.46973L5.46973 7.46973C5.32908 7.61038 5.25 7.80109 5.25 8C5.25 8.19891 5.32908 8.38962 5.46973 8.53027L7.46973 10.5303L7.52637 10.582C7.82095 10.8223 8.25567 10.8049 8.53027 10.5303C8.80487 10.2557 8.82233 9.82095 8.58203 9.52637L8.53027 9.46973L7.81055 8.75H13.5C15.5711 8.75001 17.25 10.4289 17.25 12.5C17.25 14.5711 15.5711 16.25 13.5 16.25H11C10.5858 16.25 10.25 16.5858 10.25 17C10.25 17.4142 10.5858 17.75 11 17.75H13.5C16.3995 17.75 18.75 15.3995 18.75 12.5C18.75 9.60051 16.3995 7.25001 13.5 7.25H7.81055L8.53027 6.53027C8.82317 6.23738 8.82316 5.76262 8.53027 5.46973Z" fill="currentColor" />
</svg>