<svg xmlns="http://www.w3.org/2000/svg" width="24" height="24" viewBox="0 0 24 24" fill="none">
<path d="M11.0498 13.25C14.1978 13.25 16.75 15.8022 16.75 18.9502C16.7499 21.0487 15.0487 22.7499 12.9502 22.75H5.0498C2.95128 22.7499 1.25011 21.0487 1.25 18.9502C1.25 15.8022 3.80217 13.25 6.9502 13.25H11.0498ZM20 6.25C20.4142 6.25 20.75 6.58579 20.75 7V11.1895L22.4697 9.46973C22.7626 9.17683 23.2374 9.17683 23.5303 9.46973C23.8232 9.76262 23.8232 10.2374 23.5303 10.5303L20.5303 13.5303C20.2374 13.8232 19.7626 13.8232 19.4697 13.5303L16.4697 10.5303C16.1768 10.2374 16.1768 9.76262 16.4697 9.46973C16.7443 9.19512 17.1791 9.17766 17.4736 9.41797L17.5303 9.46973L19.25 11.1895V7C19.25 6.58579 19.5858 6.25 20 6.25ZM9 1.25C11.6234 1.25 13.75 3.37665 13.75 6C13.75 8.62335 11.6234 10.75 9 10.75C6.37665 10.75 4.25 8.62335 4.25 6C4.25 3.37665 6.37665 1.25 9 1.25Z" fill="currentColor" />
</svg>