<svg xmlns="http://www.w3.org/2000/svg" width="24" height="24" viewBox="0 0 24 24" fill="none">
<path d="M12.0498 13.25C15.1978 13.25 17.75 15.8022 17.75 18.9502C17.7499 21.0487 16.0487 22.7499 13.9502 22.75H4.0498C1.95128 22.7499 0.250106 21.0487 0.25 18.9502C0.25 15.8022 2.80217 13.25 5.9502 13.25H12.0498ZM9 1.25C11.6234 1.25 13.75 3.37665 13.75 6C13.75 8.62335 11.6234 10.75 9 10.75C6.37665 10.75 4.25 8.62335 4.25 6C4.25 3.37665 6.37665 1.25 9 1.25ZM23 9.25C23.4142 9.25 23.75 9.58579 23.75 10C23.75 10.4142 23.4142 10.75 23 10.75H17C16.5858 10.75 16.25 10.4142 16.25 10C16.25 9.58579 16.5858 9.25 17 9.25H23Z" fill="currentColor" />
</svg>