<svg xmlns="http://www.w3.org/2000/svg" width="24" height="24" viewBox="0 0 24 24" fill="none">
<path d="M11.0498 13.25C14.1978 13.25 16.75 15.8022 16.75 18.9502C16.7499 21.0487 15.0487 22.7499 12.9502 22.75H5.0498C2.95128 22.7499 1.25011 21.0487 1.25 18.9502C1.25 15.8022 3.80217 13.25 6.9502 13.25H11.0498ZM22 6.25C22.4142 6.25 22.75 6.58579 22.75 7V11C22.75 11.4142 22.4142 11.75 22 11.75C21.5858 11.75 21.25 11.4142 21.25 11V8.81055L17.5303 12.5303C17.2374 12.8232 16.7626 12.8232 16.4697 12.5303C16.1768 12.2374 16.1768 11.7626 16.4697 11.4697L20.1895 7.75H18C17.5858 7.75 17.25 7.41421 17.25 7C17.25 6.58579 17.5858 6.25 18 6.25H22ZM9 1.25C11.6234 1.25 13.75 3.37665 13.75 6C13.75 8.62335 11.6234 10.75 9 10.75C6.37665 10.75 4.25 8.62335 4.25 6C4.25 3.37665 6.37665 1.25 9 1.25Z" fill="currentColor" />
</svg>