<svg xmlns="http://www.w3.org/2000/svg" width="24" height="24" viewBox="0 0 24 24" fill="none">
<path d="M11.0498 13.25C14.1978 13.25 16.75 15.8022 16.75 18.9502C16.7499 21.0487 15.0487 22.7499 12.9502 22.75H5.0498C2.95128 22.7499 1.25011 21.0487 1.25 18.9502C1.25 15.8022 3.80217 13.25 6.9502 13.25H11.0498ZM22.4697 6.46973C22.7626 6.17683 23.2374 6.17683 23.5303 6.46973C23.8232 6.76262 23.8232 7.23738 23.5303 7.53027L21.5605 9.5L23.5303 11.4697L23.582 11.5264C23.8223 11.8209 23.8049 12.2557 23.5303 12.5303C23.2557 12.8049 22.8209 12.8223 22.5264 12.582L22.4697 12.5303L20.5 10.5605L18.5303 12.5303C18.2374 12.8232 17.7626 12.8232 17.4697 12.5303C17.1768 12.2374 17.1768 11.7626 17.4697 11.4697L19.4395 9.5L17.4697 7.53027C17.1768 7.23738 17.1768 6.76262 17.4697 6.46973C17.7626 6.17683 18.2374 6.17683 18.5303 6.46973L20.5 8.43945L22.4697 6.46973ZM9 1.25C11.6234 1.25 13.75 3.37665 13.75 6C13.75 8.62335 11.6234 10.75 9 10.75C6.37665 10.75 4.25 8.62335 4.25 6C4.25 3.37665 6.37665 1.25 9 1.25Z" fill="currentColor" />
</svg>