<svg xmlns="http://www.w3.org/2000/svg" width="24" height="24" viewBox="0 0 24 24" fill="none">
<path d="M11.0498 13.25C14.1978 13.25 16.75 15.8022 16.75 18.9502C16.7499 21.0487 15.0487 22.7499 12.9502 22.75H5.0498C2.95128 22.7499 1.25011 21.0487 1.25 18.9502C1.25 15.8022 3.80217 13.25 6.9502 13.25H11.0498ZM20 11.75C20.6904 11.75 21.25 12.3096 21.25 13C21.25 13.6904 20.6904 14.25 20 14.25C19.3528 14.25 18.8209 13.7582 18.7568 13.1279L18.75 13L18.7568 12.8721C18.8209 12.2418 19.3528 11.75 20 11.75ZM9 1.25C11.6234 1.25 13.75 3.37665 13.75 6C13.75 8.62335 11.6234 10.75 9 10.75C6.37665 10.75 4.25 8.62335 4.25 6C4.25 3.37665 6.37665 1.25 9 1.25ZM20 4.25C20.4142 4.25 20.75 4.58579 20.75 5V10C20.75 10.4142 20.4142 10.75 20 10.75C19.5858 10.75 19.25 10.4142 19.25 10V5C19.25 4.58579 19.5858 4.25 20 4.25Z" fill="currentColor" />
</svg>