<svg xmlns="http://www.w3.org/2000/svg" width="24" height="24" viewBox="0 0 24 24" fill="none">
<path d="M10.0498 13.25C13.1978 13.25 15.75 15.8022 15.75 18.9502C15.7499 21.0487 14.0487 22.7499 11.9502 22.75H4.0498C1.95128 22.7499 0.250106 21.0487 0.25 18.9502C0.25 15.8022 2.80217 13.25 5.9502 13.25H10.0498ZM18.2002 13.25C21.2652 13.2501 23.7499 15.7348 23.75 18.7998C23.75 20.9813 21.9813 22.75 19.7998 22.75H17C16.5858 22.75 16.25 22.4142 16.25 22C16.25 21.5858 16.5858 21.25 17 21.25H19.7998C21.1529 21.25 22.25 20.1529 22.25 18.7998C22.2499 16.5632 20.4368 14.7501 18.2002 14.75H17C16.5858 14.75 16.25 14.4142 16.25 14C16.25 13.5858 16.5858 13.25 17 13.25H18.2002ZM8 1.25C10.6234 1.25 12.75 3.37665 12.75 6C12.75 8.62335 10.6234 10.75 8 10.75C5.37665 10.75 3.25 8.62335 3.25 6C3.25 3.37665 5.37665 1.25 8 1.25ZM15 1.25C17.6234 1.25 19.75 3.37665 19.75 6C19.75 8.62335 17.6234 10.75 15 10.75C14.5858 10.75 14.25 10.4142 14.25 10C14.25 9.58579 14.5858 9.25 15 9.25C16.7949 9.25 18.25 7.79493 18.25 6C18.25 4.20507 16.7949 2.75 15 2.75C14.5858 2.75 14.25 2.41421 14.25 2C14.25 1.58579 14.5858 1.25 15 1.25Z" fill="currentColor" />
</svg>