<svg xmlns="http://www.w3.org/2000/svg" width="24" height="24" viewBox="0 0 24 24" fill="none">
<path d="M11.0498 13.25C14.1978 13.25 16.75 15.8022 16.75 18.9502C16.7499 21.0487 15.0487 22.7499 12.9502 22.75H5.0498C2.95128 22.7499 1.25011 21.0487 1.25 18.9502C1.25 15.8022 3.80217 13.25 6.9502 13.25H11.0498ZM19.4697 6.46973C19.7626 6.17683 20.2374 6.17683 20.5303 6.46973L23.5303 9.46973C23.8232 9.76262 23.8232 10.2374 23.5303 10.5303L20.5303 13.5303C20.2374 13.8232 19.7626 13.8232 19.4697 13.5303C19.1768 13.2374 19.1768 12.7626 19.4697 12.4697L21.1895 10.75H17C16.5858 10.75 16.25 10.4142 16.25 10C16.25 9.58579 16.5858 9.25 17 9.25H21.1895L19.4697 7.53027L19.418 7.47363C19.1777 7.17905 19.1951 6.74433 19.4697 6.46973ZM9 1.25C11.6234 1.25 13.75 3.37665 13.75 6C13.75 8.62335 11.6234 10.75 9 10.75C6.37665 10.75 4.25 8.62335 4.25 6C4.25 3.37665 6.37665 1.25 9 1.25Z" fill="currentColor" />
</svg>