<svg xmlns="http://www.w3.org/2000/svg" width="24" height="24" viewBox="0 0 24 24" fill="none">
<path d="M22 14.5V15.5C22 15.9643 22 16.1964 21.9872 16.3924C21.7902 19.397 19.397 21.7902 16.3924 21.9872C16.1964 22 15.9643 22 15.5 22H11.6C8.23969 22 6.55953 22 5.27606 21.346C4.14708 20.7708 3.2292 19.8529 2.65396 18.7239C2 17.4405 2 15.7603 2 12.4V11.6C2 8.23969 2 6.55953 2.65396 5.27606C3.2292 4.14708 4.14708 3.2292 5.27606 2.65396C6.55953 2 8.23969 2 11.6 2H15.5C15.9643 2 16.1964 2 16.3924 2.01285C19.397 2.20977 21.7902 4.60304 21.9872 7.60758C22 7.80358 22 8.03572 22 8.5V9.5M14 8C14 9.10457 13.1046 10 12 10C10.8954 10 10 9.10457 10 8C10 6.89543 10.8954 6 12 6C13.1046 6 14 6.89543 14 8ZM16 15.6667C16 16.403 15.403 17 14.6667 17H9.33333C8.59695 17 8 16.403 8 15.6667C8 14.1939 9.19391 13 10.6667 13H13.3333C14.8061 13 16 14.1939 16 15.6667Z" stroke="currentColor" stroke-width={1.5} stroke-linecap="round" stroke-linejoin="round" />
</svg>