<svg xmlns="http://www.w3.org/2000/svg" width="24" height="24" viewBox="0 0 24 24" fill="none">
<path d="M11.0498 13.25C14.1978 13.25 16.75 15.8022 16.75 18.9502C16.7499 21.0487 15.0487 22.7499 12.9502 22.75H5.0498C2.95128 22.7499 1.25011 21.0487 1.25 18.9502C1.25 15.8022 3.80217 13.25 6.9502 13.25H11.0498ZM21.4697 6.46973C21.7626 6.17683 22.2374 6.17683 22.5303 6.46973C22.8232 6.76262 22.8232 7.23738 22.5303 7.53027L18.8105 11.25H21C21.4142 11.25 21.75 11.5858 21.75 12C21.75 12.4142 21.4142 12.75 21 12.75H17C16.5858 12.75 16.25 12.4142 16.25 12V8C16.25 7.58579 16.5858 7.25 17 7.25C17.4142 7.25 17.75 7.58579 17.75 8V10.1895L21.4697 6.46973ZM9 1.25C11.6234 1.25 13.75 3.37665 13.75 6C13.75 8.62335 11.6234 10.75 9 10.75C6.37665 10.75 4.25 8.62335 4.25 6C4.25 3.37665 6.37665 1.25 9 1.25Z" fill="currentColor" />
</svg>