<svg xmlns="http://www.w3.org/2000/svg" width="40" height="40" viewBox="0 0 40 40" fill="none">
<path d="M5.5632 11.6666C4.14512 14.1181 3.3335 16.9643 3.3335 20C3.3335 29.2047 10.7954 36.6666 20.0002 36.6666C29.2049 36.6666 36.6668 29.2047 36.6668 20C36.6668 10.7952 29.2049 3.33331 20.0002 3.33331C17.6298 3.33331 15.375 3.82814 13.3335 4.72013M23.3335 13.3333C23.3335 15.1743 21.8411 16.6666 20.0002 16.6666C18.1592 16.6666 16.6668 15.1743 16.6668 13.3333C16.6668 11.4924 18.1592 9.99998 20.0002 9.99998C21.8411 9.99998 23.3335 11.4924 23.3335 13.3333ZM26.6668 26.1111C26.6668 27.3384 25.6719 28.3333 24.4446 28.3333H15.5557C14.3284 28.3333 13.3335 27.3384 13.3335 26.1111C13.3335 23.6565 15.3233 21.6666 17.7779 21.6666H22.2224C24.677 21.6666 26.6668 23.6565 26.6668 26.1111Z" stroke="currentColor" stroke-width={3} stroke-linecap="round" stroke-linejoin="round" />
</svg>