<svg xmlns="http://www.w3.org/2000/svg" width="40" height="40" viewBox="0 0 40 40" fill="none">
<path fill-rule="evenodd" clip-rule="evenodd" d="M2.08325 20C2.08325 10.1049 10.1048 2.08331 19.9999 2.08331C29.895 2.08331 37.9166 10.1049 37.9166 20C37.9166 29.8951 29.895 37.9166 19.9999 37.9166C10.1048 37.9166 2.08325 29.8951 2.08325 20ZM19.9999 18.3333C22.7613 18.3333 24.9999 16.0947 24.9999 13.3333C24.9999 10.5719 22.7613 8.33331 19.9999 8.33331C17.2385 8.33331 14.9999 10.5719 14.9999 13.3333C14.9999 16.0947 17.2385 18.3333 19.9999 18.3333ZM25.5555 30C27.0896 30 28.3333 28.7563 28.3333 27.2222C28.3333 24.154 25.8459 21.6666 22.7777 21.6666H17.2221C14.1539 21.6666 11.6666 24.154 11.6666 27.2222C11.6666 28.7563 12.9102 30 14.4444 30H25.5555Z" fill="currentColor" />
</svg>