<svg xmlns="http://www.w3.org/2000/svg" width="24" height="24" viewBox="0 0 24 24" fill="none">
<path d="M18.5 2C16.567 2 15 3.567 15 5.5C15 7.433 16.567 9 18.5 9C20.433 9 22 7.433 22 5.5C22 4.9632 21.8792 4.45463 21.6632 4M6 15C6 13.1444 6.55147 11.4268 7.5 10C7.73387 9.64821 7.99189 9.31411 8.27177 9M12.0146 6.5C12.9473 6.17589 13.9516 6 15 6M9 18.5C9 20.433 7.433 22 5.5 22C3.567 22 2 20.433 2 18.5C2 16.567 3.567 15 5.5 15C7.433 15 9 16.567 9 18.5Z" stroke="currentColor" stroke-width={1.5} stroke-linecap="round" stroke-linejoin="round" />
</svg>