<svg xmlns="http://www.w3.org/2000/svg" width="24" height="24" viewBox="0 0 24 24" fill="none">
<path d="M18.5 1.25C20.8472 1.25 22.75 3.15279 22.75 5.5C22.75 7.84721 20.8472 9.75 18.5 9.75C16.595 9.75 14.9833 8.49655 14.4434 6.76953C10.3052 7.04004 7.04004 10.3052 6.76953 14.4434C8.49655 14.9833 9.75 16.595 9.75 18.5C9.75 20.8472 7.84721 22.75 5.5 22.75C3.15279 22.75 1.25 20.8472 1.25 18.5C1.25 16.2265 3.03519 14.3702 5.28027 14.2559C5.63807 9.43961 9.43961 5.63807 14.2559 5.28027C14.3702 3.03519 16.2265 1.25 18.5 1.25Z" fill="currentColor" />
</svg>