<svg xmlns="http://www.w3.org/2000/svg" width="24" height="24" viewBox="0 0 24 24" fill="none">
<path d="M11.4399 0.726782C11.8052 0.620372 12.1937 0.620372 12.559 0.726782C12.9734 0.847561 13.3426 1.16474 14.0815 1.79807L14.8783 2.48069C15.2108 2.76566 15.3773 2.90846 15.5649 3.00999C15.7313 3.10002 15.9102 3.16538 16.0951 3.2053C16.3036 3.25024 16.5226 3.25022 16.9604 3.25022L17.5492 3.25022C18.6694 3.25022 19.2298 3.25098 19.6576 3.46897C20.0338 3.66073 20.34 3.96679 20.5317 4.34299C20.7495 4.77074 20.7494 5.33079 20.7494 6.45042L20.7494 7.03928C20.7494 7.47748 20.7493 7.69691 20.7944 7.90549C20.8343 8.09048 20.9006 8.26933 20.9907 8.43577C21.0922 8.62325 21.235 8.78986 21.52 9.12229L22.2026 9.91819C22.836 10.6572 23.1522 11.0272 23.2729 11.4416C23.3792 11.8068 23.3792 12.1946 23.2729 12.5598C23.1522 12.9742 22.836 13.3442 22.2026 14.0832L21.52 14.8791C21.235 15.2116 21.0922 15.3782 20.9907 15.5657C20.9006 15.7321 20.8343 15.9109 20.7944 16.0959C20.7493 16.3045 20.7494 16.5239 20.7494 16.9621L20.7494 17.551C20.7494 18.6706 20.7495 19.2307 20.5317 19.6584C20.34 20.0346 20.0338 20.3407 19.6576 20.5324C19.2298 20.7504 18.6693 20.7502 17.5492 20.7502L16.9604 20.7502C16.5226 20.7502 16.3036 20.7512 16.0951 20.7961C15.9102 20.836 15.7313 20.9014 15.5649 20.9914C15.3773 21.093 15.2108 21.2357 14.8783 21.5207L14.0815 22.2033C13.3426 22.8367 12.9734 23.1539 12.559 23.2746C12.1937 23.381 11.8052 23.381 11.4399 23.2746C11.0255 23.1539 10.6555 22.8368 9.91643 22.2033L9.12053 21.5207C8.78801 21.2357 8.62163 21.093 8.43401 20.9914C8.26757 20.9014 8.08872 20.836 7.90374 20.7961C7.69527 20.7512 7.47632 20.7502 7.0385 20.7502L6.41546 20.7502C5.29535 20.7502 4.73488 20.7504 4.30706 20.5324C3.93083 20.3407 3.62475 20.0347 3.43303 19.6584C3.21519 19.2307 3.21526 18.6707 3.21526 17.551L3.21526 16.9494C3.21526 16.515 3.21563 16.297 3.17132 16.0901C3.13203 15.9067 3.06652 15.73 2.97796 15.5647C2.87795 15.3781 2.73736 15.2116 2.45647 14.8801L1.76897 14.0696C1.14634 13.3348 0.835075 12.9671 0.716239 12.5559C0.611511 12.1933 0.611512 11.8081 0.716239 11.4455C0.835068 11.0343 1.14633 10.6667 1.76897 9.93186L2.45647 9.12131C2.73736 8.78983 2.87795 8.6233 2.97796 8.43674C3.06652 8.27146 3.13203 8.09471 3.17132 7.91135C3.21563 7.70437 3.21526 7.48646 3.21526 7.05198L3.21526 6.45041C3.21526 5.33073 3.21521 4.77075 3.43304 4.34299C3.62475 3.96674 3.93084 3.66072 4.30706 3.46897C4.73488 3.25098 5.29535 3.25022 6.41546 3.25022L7.03851 3.25022C7.47632 3.25022 7.69528 3.25026 7.90374 3.2053C8.08872 3.16537 8.26758 3.10004 8.43401 3.00998C8.62163 2.90845 8.78802 2.7657 9.12054 2.48069L9.91644 1.79807C10.6555 1.16459 11.0255 0.847546 11.4399 0.726782ZM16.5307 8.46995C16.2378 8.17709 15.763 8.17717 15.4701 8.46995L11.0004 12.9397L9.53069 11.4699L9.47405 11.4182C9.17951 11.1779 8.74476 11.1955 8.47015 11.4699C8.17725 11.7628 8.17725 12.2376 8.47015 12.5305L10.4701 14.5305C10.6108 14.671 10.8016 14.7502 11.0004 14.7502C11.1992 14.7501 11.3901 14.6711 11.5307 14.5305L16.5307 9.53049C16.8234 9.23765 16.8234 8.76282 16.5307 8.46995Z" fill="currentColor" />
</svg>