<svg xmlns="http://www.w3.org/2000/svg" width="24" height="24" viewBox="0 0 24 24" fill="none">
<path opacity={0.32} d="M14.0817 1.79772C13.3426 1.16417 12.973 0.847392 12.5585 0.726659C12.1932 0.620248 11.8051 0.620248 11.4398 0.726659C11.0254 0.847392 10.6558 1.16417 9.91663 1.79772L9.1205 2.48012C8.78779 2.7653 8.62144 2.90789 8.43376 3.00945C8.26729 3.09954 8.08888 3.16554 7.90385 3.20548C7.69527 3.2505 7.47617 3.2505 7.03797 3.2505H6.41495C5.29484 3.2505 4.73479 3.2505 4.30697 3.46849C3.93064 3.66024 3.62468 3.9662 3.43294 4.34252C3.21495 4.77035 3.21495 5.3304 3.21495 6.4505V7.052C3.21495 7.48649 3.21495 7.70373 3.17064 7.91071C3.13134 8.09432 3.06637 8.27148 2.97766 8.43697C2.87765 8.62353 2.73721 8.78927 2.45633 9.12075L1.7691 9.93176C1.14632 10.6667 0.83494 11.0342 0.716132 11.4455C0.611405 11.8081 0.611405 12.1929 0.716132 12.5555C0.83494 12.9668 1.14632 13.3343 1.76909 14.0692L2.45633 14.8803C2.73721 15.2117 2.87765 15.3775 2.97766 15.564C3.06637 15.7295 3.13134 15.9067 3.17064 16.0903C3.21495 16.2973 3.21495 16.5145 3.21495 16.949V17.5505C3.21495 18.6706 3.21495 19.2307 3.43294 19.6585C3.62468 20.0348 3.93064 20.3408 4.30697 20.5325C4.73479 20.7505 5.29484 20.7505 6.41495 20.7505H7.03797C7.47617 20.7505 7.69527 20.7505 7.90385 20.7955C8.08888 20.8355 8.26729 20.9015 8.43376 20.9916C8.62144 21.0931 8.78779 21.2357 9.1205 21.5209L9.91663 22.2033C10.6558 22.8368 11.0254 23.1536 11.4398 23.2743C11.8051 23.3808 12.1932 23.3808 12.5585 23.2743C12.973 23.1536 13.3426 22.8368 14.0817 22.2033L14.8778 21.5209C15.2105 21.2357 15.3769 21.0931 15.5646 20.9916C15.731 20.9015 15.9095 20.8355 16.0945 20.7955C16.3031 20.7505 16.5222 20.7505 16.9604 20.7505H17.5492C18.6693 20.7505 19.2293 20.7505 19.6571 20.5325C20.0335 20.3408 20.3394 20.0348 20.5312 19.6585C20.7492 19.2307 20.7492 18.6706 20.7492 17.5505V16.9617C20.7492 16.5235 20.7492 16.3044 20.7942 16.0958C20.8341 15.9108 20.9001 15.7324 20.9902 15.5659C21.0918 15.3782 21.2344 15.2119 21.5195 14.8792L22.2019 14.083C22.8355 13.3439 23.1523 12.9743 23.273 12.5598C23.3794 12.1945 23.3794 11.8065 23.273 11.4412C23.1523 11.0267 22.8355 10.6571 22.2019 9.91797L21.5195 9.12184C21.2344 8.78913 21.0918 8.62278 20.9902 8.4351C20.9001 8.26863 20.8341 8.09022 20.7942 7.90519C20.7492 7.6966 20.7492 7.47751 20.7492 7.03931V6.4505C20.7492 5.3304 20.7492 4.77035 20.5312 4.34252C20.3394 3.9662 20.0335 3.66024 19.6571 3.46849C19.2293 3.2505 18.6693 3.2505 17.5492 3.2505H16.9604C16.5222 3.2505 16.3031 3.2505 16.0945 3.20548C15.9095 3.16554 15.731 3.09954 15.5646 3.00945C15.3769 2.90789 15.2105 2.7653 14.8778 2.48012L14.0817 1.79772Z" fill="currentColor" /><path d="M15.4697 8.46967C15.7626 8.17678 16.2373 8.17678 16.5302 8.46967C16.8231 8.76256 16.8231 9.23732 16.5302 9.53022L11.5302 14.5302C11.3896 14.6709 11.1989 14.7499 10.9999 14.7499C10.801 14.7499 10.6103 14.6709 10.4697 14.5302L8.46967 12.5302C8.17678 12.2373 8.17678 11.7626 8.46967 11.4697C8.74427 11.1951 9.17899 11.1776 9.47358 11.4179L9.53022 11.4697L10.9999 12.9394L15.4697 8.46967Z" fill="currentColor" />
</svg>