<svg xmlns="http://www.w3.org/2000/svg" width="24" height="24" viewBox="0 0 24 24" fill="none">
<path opacity={0.32} d="M1.25 9.65V16.35C1.25 18.5902 1.25 19.7103 1.68597 20.566C2.06947 21.3186 2.68139 21.9305 3.43404 22.314C4.28969 22.75 5.40979 22.75 7.65 22.75H14.35C16.5902 22.75 17.7103 22.75 18.566 22.314C19.3186 21.9305 19.9305 21.3186 20.314 20.566C20.75 19.7103 20.75 18.5902 20.75 16.35V9.5V8H16V3.25H14.5H7.65C5.40979 3.25 4.28969 3.25 3.43404 3.68597C2.68139 4.06947 2.06947 4.68139 1.68597 5.43404C1.25 6.28969 1.25 7.40979 1.25 9.65Z" fill="currentColor" /><path d="M9.94043 9.87012C10.2754 9.85014 10.6794 10.1196 11.4873 10.6582L13.0029 11.6689C13.6706 12.1141 14.0048 12.3367 14.1211 12.6172C14.2227 12.8623 14.2227 13.1377 14.1211 13.3828C14.0048 13.6633 13.6706 13.8859 13.0029 14.3311L11.4873 15.3418C10.6794 15.8804 10.2754 16.1499 9.94043 16.1299C9.64855 16.1125 9.37855 15.9676 9.20215 15.7344C9.00001 15.4666 9 14.9811 9 14.0107V11.9893C9 11.0189 9.00001 10.5334 9.20215 10.2656C9.37855 10.0324 9.64855 9.88754 9.94043 9.87012ZM19.7998 1C20.9199 1 21.4804 0.999786 21.9082 1.21777C22.2845 1.40951 22.5905 1.71554 22.7822 2.0918C23.0002 2.51962 23 3.08009 23 4.2002V5.7998C23 6.91991 23.0002 7.48038 22.7822 7.9082C22.5905 8.28446 22.2845 8.59049 21.9082 8.78223C21.4804 9.00021 20.9199 9 19.7998 9H18.2002C17.0801 9 16.5196 9.00021 16.0918 8.78223C15.7155 8.59049 15.4095 8.28446 15.2178 7.9082C14.9998 7.48038 15 6.91991 15 5.7998V4.2002C15 3.08009 14.9998 2.51962 15.2178 2.0918C15.4095 1.71554 15.7155 1.40951 16.0918 1.21777C16.5196 0.999786 17.0801 1 18.2002 1H19.7998ZM19 2.25C18.5858 2.25 18.25 2.58579 18.25 3V4.25H17C16.5858 4.25 16.25 4.58579 16.25 5C16.25 5.41421 16.5858 5.75 17 5.75H18.25V7C18.25 7.41421 18.5858 7.75 19 7.75C19.4142 7.75 19.75 7.41421 19.75 7V5.75H21C21.4142 5.75 21.75 5.41421 21.75 5C21.75 4.58579 21.4142 4.25 21 4.25H19.75V3C19.75 2.58579 19.4142 2.25 19 2.25Z" fill="currentColor" />
</svg>