<svg xmlns="http://www.w3.org/2000/svg" width="24" height="24" viewBox="0 0 24 24" fill="none">
<path d="M12.9375 3.25C13.4622 3.25 13.7247 3.24969 13.9277 3.3457C14.1369 3.44462 14.3054 3.61314 14.4043 3.82227C14.5003 4.02526 14.5 4.2878 14.5 4.8125C14.5 6.38632 14.5002 7.17328 14.7881 7.78223C15.0848 8.40965 15.5903 8.91516 16.2178 9.21191C16.8267 9.49979 17.6137 9.5 19.1875 9.5C19.7122 9.5 19.9747 9.49969 20.1777 9.5957C20.3869 9.69462 20.5554 9.86314 20.6543 10.0723C20.7503 10.2753 20.75 10.5378 20.75 11.0625V16.3496C20.75 18.5898 20.7504 19.7108 20.3145 20.5664C19.931 21.3189 19.3189 21.931 18.5664 22.3145C17.7108 22.7504 16.5898 22.75 14.3496 22.75H7.65039C5.41018 22.75 4.28924 22.7504 3.43359 22.3145C2.68109 21.931 2.06902 21.3189 1.68555 20.5664C1.24957 19.7108 1.25 18.5898 1.25 16.3496V9.65039C1.25 7.41018 1.24957 6.28924 1.68555 5.43359C2.06902 4.68109 2.68109 4.06902 3.43359 3.68555C4.28924 3.24957 5.41018 3.25 7.65039 3.25H12.9375ZM9.94043 9.87012C9.64855 9.88754 9.37855 10.0324 9.20215 10.2656C9.00001 10.5334 9 11.0189 9 11.9893V14.0107C9 14.9811 9.00001 15.4666 9.20215 15.7344C9.37855 15.9676 9.64855 16.1125 9.94043 16.1299C10.2754 16.1499 10.6794 15.8804 11.4873 15.3418L13.0029 14.3311C13.6706 13.8859 14.0048 13.6633 14.1211 13.3828C14.2227 13.1377 14.2227 12.8623 14.1211 12.6172C14.0048 12.3367 13.6706 12.1141 13.0029 11.6689L11.4873 10.6582C10.6794 10.1196 10.2754 9.85014 9.94043 9.87012ZM20.7998 8.16361e-10C21.9199 8.16361e-10 22.4804 -0.00021353 22.9082 0.217773C23.2845 0.409508 23.5905 0.715544 23.7822 1.0918C24.0002 1.51962 24 2.08009 24 3.2002V4.7998C24 5.91991 24.0002 6.48038 23.7822 6.9082C23.5905 7.28446 23.2845 7.59049 22.9082 7.78223C22.4804 8.00021 21.9199 8 20.7998 8H19.2002C18.0801 8 17.5196 8.00021 17.0918 7.78223C16.7155 7.59049 16.4095 7.28446 16.2178 6.9082C15.9998 6.48038 16 5.91991 16 4.7998V3.2002C16 2.08009 15.9998 1.51962 16.2178 1.0918C16.4095 0.715544 16.7155 0.409508 17.0918 0.217773C17.5196 -0.00021353 18.0801 8.16361e-10 19.2002 8.16361e-10H20.7998ZM20 1.25C19.5858 1.25 19.25 1.58579 19.25 2V3.25H18C17.5858 3.25 17.25 3.58579 17.25 4C17.25 4.41421 17.5858 4.75 18 4.75H19.25V6C19.25 6.41421 19.5858 6.75 20 6.75C20.4142 6.75 20.75 6.41421 20.75 6V4.75H22C22.4142 4.75 22.75 4.41421 22.75 4C22.75 3.58579 22.4142 3.25 22 3.25H20.75V2C20.75 1.58579 20.4142 1.25 20 1.25Z" fill="currentColor" />
</svg>