<svg xmlns="http://www.w3.org/2000/svg" width="24" height="24" viewBox="0 0 24 24" fill="none">
<path d="M0.469727 0.469668C0.762619 0.176776 1.23738 0.176779 1.53027 0.469668L22.0303 20.9697L22.082 21.0263C22.3223 21.3209 22.3049 21.7556 22.0303 22.0302C21.7557 22.3048 21.3209 22.3223 21.0264 22.082L20.9697 22.0302L18.5078 19.5683C18.183 19.9786 17.8038 20.3432 17.3799 20.6513C16.5736 21.2371 15.6292 21.4996 14.4639 21.6259C13.3124 21.7507 11.8582 21.7499 10 21.7499C8.14184 21.7499 6.68763 21.7507 5.53613 21.6259C4.37077 21.4996 3.42635 21.2371 2.62011 20.6513C2.1322 20.2968 1.70317 19.8677 1.34863 19.3798C0.762866 18.5736 0.500314 17.6292 0.374021 16.4638C0.249264 15.3123 0.249998 13.8581 0.249998 11.9999C0.249998 10.1418 0.249265 8.68757 0.374022 7.53607C0.500316 6.37071 0.762866 5.4263 1.34863 4.62006C1.65668 4.19613 2.02038 3.81595 2.43066 3.49115L0.469726 1.53021C0.176837 1.23732 0.176835 0.76256 0.469727 0.469668ZM10 2.24994C11.8582 2.24994 13.3124 2.24921 14.4639 2.37397C15.6292 2.50026 16.5736 2.76281 17.3799 3.34858C17.8678 3.70312 18.2968 4.13215 18.6514 4.62006C19.2403 5.4307 19.5058 6.38899 19.6309 7.58295C19.8485 7.42812 20.0468 7.29276 20.2285 7.18159C20.6282 6.93707 21.0679 6.72616 21.5518 6.73725C22.2258 6.7529 22.8583 7.07019 23.2734 7.60151C23.5715 7.983 23.6644 8.46193 23.707 8.92866C23.7506 9.40655 23.75 10.0246 23.75 10.7792L23.75 13.1718C23.75 13.6653 23.7498 14.0644 23.7344 14.373C23.7197 14.6666 23.6894 14.974 23.5791 15.2402C23.1035 16.388 21.7866 16.9325 20.6387 16.457C20.3725 16.3466 20.133 16.1523 19.915 15.955C19.6859 15.7477 19.4046 15.4652 19.0557 15.1162C18.9256 14.9861 18.8116 14.8741 18.7148 14.748C18.4746 14.4348 18.3211 14.0641 18.2695 13.6728C18.2488 13.5153 18.25 13.3556 18.25 13.1718L18.25 11.9999C18.25 10.8269 18.2501 9.8541 18.2217 9.02533C18.1581 7.17068 17.951 6.2074 17.4385 5.5019C17.1763 5.1411 16.8588 4.82361 16.498 4.56147C15.9901 4.19243 15.3396 3.97762 14.3018 3.86518C13.2498 3.75123 11.8915 3.74994 10 3.74994C8.82692 3.74994 7.85416 3.74987 7.02539 3.77826C6.61157 3.79228 6.26421 3.46847 6.25 3.05463C6.23582 2.64066 6.56064 2.29342 6.97461 2.27924L7.64648 2.26264C8.34528 2.25024 9.12659 2.24994 10 2.24994Z" fill="currentColor" />
</svg>