<svg xmlns="http://www.w3.org/2000/svg" width="24" height="24" viewBox="0 0 24 24" fill="none">
<path d="M13.5 4H8.4C6.15979 4 5.03968 4 4.18404 4.43597C3.43139 4.81947 2.81947 5.43139 2.43597 6.18404C2 7.03968 2 8.15979 2 10.4V10.5V11M20 10.5V15.6C20 17.8402 20 18.9603 19.564 19.816C19.1805 20.5686 18.5686 21.1805 17.816 21.564C16.9603 22 15.8402 22 13.6 22H8.4C6.15979 22 5.03968 22 4.18404 21.564C3.43139 21.1805 2.81947 20.5686 2.43597 19.816C2 18.9603 2 17.8402 2 15.6V15.5V15M20 1V4M20 4V7M20 4H17M20 4H23M9 11.9896V14.0104C9 14.9815 9 15.4671 9.20249 15.7348C9.37889 15.968 9.64852 16.1123 9.9404 16.1297C10.2754 16.1497 10.6795 15.8804 11.4875 15.3417L13.0031 14.3313C13.6708 13.8862 14.0046 13.6636 14.1209 13.3831C14.2227 13.1378 14.2227 12.8622 14.1209 12.6169C14.0046 12.3364 13.6708 12.1138 13.0031 11.6687L11.4875 10.6583C10.6795 10.1196 10.2754 9.85029 9.9404 9.87029C9.64852 9.88772 9.37889 10.032 9.20249 10.2652C9 10.5329 9 11.0185 9 11.9896Z" stroke="currentColor" stroke-width={1.5} stroke-linecap="round" stroke-linejoin="round" />
</svg>