<svg xmlns="http://www.w3.org/2000/svg" width="24" height="24" viewBox="0 0 24 24" fill="none">
<path d="M2 13V12.5C2 12.0357 2 11.8035 2.01926 11.6079C2.20631 9.70882 3.70882 8.20631 5.60793 8.01926C5.80349 8 6.03566 8 6.5 8H15.6C17.8402 8 18.9603 8 19.816 8.43597C20.5686 8.81947 21.1805 9.43139 21.564 10.184C22 11.0397 22 12.1598 22 14.4V15.6C22 17.8402 22 18.9603 21.564 19.816C21.1805 20.5686 20.5686 21.1805 19.816 21.564C18.9603 22 17.8402 22 15.6 22H6.5C6.03566 22 5.80349 22 5.60793 21.9807C3.70882 21.7937 2.20631 20.2912 2.01926 18.3921C2 18.1965 2 17.9643 2 17.5V17M6 5H18M8 2H16M14.0031 16.3313L12.4875 17.3417C11.6795 17.8804 11.2754 18.1497 10.9404 18.1297C10.6485 18.1123 10.3789 17.968 10.2025 17.7348C10 17.4671 10 16.9815 10 16.0104V13.9896C10 13.0185 10 12.5329 10.2025 12.2652C10.3789 12.032 10.6485 11.8877 10.9404 11.8703C11.2754 11.8503 11.6795 12.1196 12.4875 12.6583L14.0031 13.6687C14.6708 14.1138 15.0046 14.3364 15.1209 14.6169C15.2227 14.8622 15.2227 15.1378 15.1209 15.3831C15.0046 15.6636 14.6708 15.8862 14.0031 16.3313Z" stroke="currentColor" stroke-width={1.5} stroke-linecap="round" stroke-linejoin="round" />
</svg>