<svg xmlns="http://www.w3.org/2000/svg" width="24" height="24" viewBox="0 0 24 24" fill="none">
<path d="M16 1.25C17.9297 1.25 19.5177 2.70775 19.7256 4.58203C19.8733 4.63437 20.0163 4.69628 20.1562 4.76758C21.05 5.22298 21.777 5.94998 22.2324 6.84375C22.5132 7.39487 22.6351 7.99862 22.6934 8.71191C22.7509 9.41651 22.75 10.2928 22.75 11.4004V12.5996C22.75 13.7072 22.7509 14.5835 22.6934 15.2881C22.6351 16.0014 22.5132 16.6051 22.2324 17.1562C21.777 18.05 21.05 18.777 20.1562 19.2324C20.0164 19.3037 19.8731 19.3647 19.7256 19.417C19.5181 21.2917 17.9301 22.75 16 22.75H8C6.0699 22.75 4.48088 21.2918 4.27344 19.417C4.12619 19.3647 3.98334 19.3035 3.84375 19.2324C2.94998 18.777 2.22298 18.05 1.76758 17.1562C1.48682 16.6051 1.36492 16.0014 1.30664 15.2881C1.24909 14.5835 1.25 13.7072 1.25 12.5996V11.4004C1.25 10.2928 1.24909 9.41651 1.30664 8.71191C1.36492 7.99862 1.48682 7.39487 1.76758 6.84375C2.22298 5.94998 2.94998 5.22298 3.84375 4.76758C3.98344 4.69642 4.12608 4.6343 4.27344 4.58203C4.48132 2.7077 6.07023 1.25 8 1.25H16ZM18.1357 19.7021C17.4582 19.7483 16.6289 19.75 15.5996 19.75H8.40039C7.37065 19.75 6.541 19.7483 5.86328 19.7021C6.15838 20.6007 7.00272 21.25 8 21.25H16C16.9972 21.25 17.8406 20.6006 18.1357 19.7021ZM10.9404 8.87012C10.6486 8.88754 10.3786 9.03244 10.2021 9.26562C10 9.53335 10 10.0189 10 10.9893V13.0107C10 13.9811 10 14.4666 10.2021 14.7344C10.3786 14.9676 10.6486 15.1125 10.9404 15.1299C11.2754 15.1499 11.6794 14.8804 12.4873 14.3418L14.0029 13.3311C14.6706 12.8859 15.0048 12.6633 15.1211 12.3828C15.2227 12.1377 15.2227 11.8623 15.1211 11.6172C15.0048 11.3367 14.6706 11.1141 14.0029 10.6689L12.4873 9.6582C11.6794 9.11962 11.2754 8.85014 10.9404 8.87012ZM8 2.75C7.00304 2.75 6.15865 3.39877 5.86328 4.29688C6.54099 4.2507 7.37069 4.25 8.40039 4.25H15.5996C16.6288 4.25 17.4582 4.25077 18.1357 4.29688C17.8403 3.39892 16.9969 2.75 16 2.75H8Z" fill="currentColor" />
</svg>