<svg xmlns="http://www.w3.org/2000/svg" width="24" height="24" viewBox="0 0 24 24" fill="none">
<path opacity={0.32} d="M9.99996 2.25C11.8581 2.25 13.3123 2.24927 14.4638 2.37402C15.6292 2.50032 16.5736 2.76288 17.3798 3.34863C17.8677 3.70317 18.2968 4.13222 18.6513 4.62012C19.2403 5.43075 19.5058 6.38906 19.6308 7.58301C19.8485 7.4282 20.0468 7.29281 20.2285 7.18164C20.6281 6.93714 21.0679 6.72622 21.5517 6.73731C22.2258 6.75298 22.8583 7.07026 23.2734 7.60157C23.5714 7.98306 23.6644 8.462 23.707 8.92871C23.7506 9.4066 23.75 10.0247 23.75 10.7793L23.75 13.1719C23.75 13.6654 23.7498 14.0645 23.7343 14.373C23.7196 14.6667 23.6893 14.9741 23.5791 15.2402C23.1034 16.3881 21.7866 16.9325 20.6386 16.457C20.3725 16.3467 20.133 16.1523 19.915 15.9551C19.6859 15.7478 19.4046 15.4652 19.0556 15.1162C18.9255 14.9861 18.8115 14.8741 18.7148 14.748C18.4746 14.4349 18.3211 14.0641 18.2695 13.6729C18.2487 13.5153 18.25 13.3557 18.25 13.1719L18.25 12C18.25 10.8269 18.25 9.85416 18.2216 9.02539C18.1581 7.17077 17.9509 6.20746 17.4384 5.50196C17.1763 5.14117 16.8588 4.82366 16.498 4.56153C15.99 4.19249 15.3395 3.97768 14.3017 3.86524C13.2498 3.75128 11.8914 3.75 9.99996 3.75C8.82692 3.75 7.8541 3.74993 7.02535 3.77832C6.61153 3.79234 6.26417 3.46853 6.24996 3.05469C6.23578 2.64072 6.5606 2.29348 6.97457 2.2793L7.64644 2.2627C8.34523 2.2503 9.12658 2.25 9.99996 2.25Z" fill="currentColor" /><path d="M0.469727 0.469668C0.762619 0.176776 1.23738 0.176779 1.53027 0.469668L22.0303 20.9697L22.082 21.0263C22.3223 21.3209 22.3049 21.7556 22.0303 22.0302C21.7557 22.3048 21.3209 22.3223 21.0264 22.082L20.9697 22.0302L18.5078 19.5683C18.183 19.9786 17.8038 20.3432 17.3799 20.6513C16.5736 21.2371 15.6292 21.4996 14.4639 21.6259C13.3124 21.7507 11.8582 21.7499 10 21.7499C8.14184 21.7499 6.68763 21.7507 5.53613 21.6259C4.37077 21.4996 3.42635 21.2371 2.62011 20.6513C2.1322 20.2968 1.70317 19.8677 1.34863 19.3798C0.762866 18.5736 0.500314 17.6292 0.374021 16.4638C0.249264 15.3123 0.249998 13.8581 0.249998 11.9999C0.249998 10.1418 0.249265 8.68757 0.374022 7.53607C0.500316 6.37071 0.762866 5.4263 1.34863 4.62006C1.65668 4.19613 2.02038 3.81595 2.43066 3.49115L0.469726 1.53021C0.176837 1.23732 0.176835 0.76256 0.469727 0.469668Z" fill="currentColor" />
</svg>