<svg xmlns="http://www.w3.org/2000/svg" width="24" height="24" viewBox="0 0 24 24" fill="none">
<path opacity={0.32} d="M8.45 7.25C5.92976 7.25 4.66965 7.25 3.70704 7.74047C2.86031 8.1719 2.1719 8.86031 1.74047 9.70704C1.25 10.6696 1.25 11.9298 1.25 14.45V15.55C1.25 18.0702 1.25 19.3304 1.74047 20.293C2.1719 21.1397 2.86031 21.8281 3.70704 22.2595C4.66965 22.75 5.92976 22.75 8.45 22.75H15.55C18.0702 22.75 19.3304 22.75 20.293 22.2595C21.1397 21.8281 21.8281 21.1397 22.2595 20.293C22.75 19.3304 22.75 18.0702 22.75 15.55V14.45C22.75 11.9298 22.75 10.6696 22.2595 9.70704C21.8281 8.86031 21.1397 8.1719 20.293 7.74047C19.3304 7.25 18.0702 7.25 15.55 7.25H8.45Z" fill="currentColor" /><path d="M10.9404 11.8701C11.2754 11.8501 11.6794 12.1196 12.4873 12.6582L14.0029 13.6689C14.6706 14.1141 15.0048 14.3367 15.1211 14.6172C15.2227 14.8623 15.2227 15.1377 15.1211 15.3828C15.0048 15.6633 14.6706 15.8859 14.0029 16.3311L12.4873 17.3418C11.6794 17.8804 11.2754 18.1499 10.9404 18.1299C10.6486 18.1125 10.3786 17.9676 10.2021 17.7344C10 17.4666 10 16.9811 10 16.0107V13.9893C10 13.0189 10 12.5334 10.2021 12.2656C10.3786 12.0324 10.6486 11.8875 10.9404 11.8701ZM18 4.25C18.4142 4.25 18.75 4.58579 18.75 5C18.75 5.41421 18.4142 5.75 18 5.75H6C5.58579 5.75 5.25 5.41421 5.25 5C5.25 4.58579 5.58579 4.25 6 4.25H18ZM16 1.25C16.4142 1.25 16.75 1.58579 16.75 2C16.75 2.41421 16.4142 2.75 16 2.75H8C7.58579 2.75 7.25 2.41421 7.25 2C7.25 1.58579 7.58579 1.25 8 1.25H16Z" fill="currentColor" />
</svg>