<svg xmlns="http://www.w3.org/2000/svg" width="24" height="24" viewBox="0 0 24 24" fill="none">
<path opacity={0.32} d="M20.5377 16.3921C20.3209 16.7449 19.8593 16.8558 19.5064 16.6392C19.1536 16.4226 19.0432 15.9609 19.2593 15.6079L20.5377 16.3921ZM17.3765 5.58353C17.5921 5.26072 18.0144 5.15859 18.3502 5.33646L18.4166 5.3765L18.6031 5.50541C20.5162 6.87956 21.7495 9.29412 21.7496 11.9995C21.7496 13.173 21.5178 14.2892 21.1011 15.2886C20.9402 15.6747 20.7514 16.0438 20.5377 16.3921L19.899 15.9995L19.2593 15.6079C19.432 15.3267 19.586 15.0266 19.7174 14.7115C20.0575 13.8956 20.2496 12.9755 20.2496 11.9995C20.2495 9.8105 19.2839 7.92077 17.8717 6.8306L17.5836 6.62357L17.522 6.57767C17.2287 6.33577 17.1609 5.90654 17.3765 5.58353ZM18.4957 13.2886C18.3362 13.6708 17.8965 13.8513 17.5142 13.6919C17.1322 13.5325 16.9518 13.0936 17.1109 12.7115L18.4957 13.2886ZM16.3765 9.58353C16.5921 9.26072 17.0144 9.15859 17.3502 9.33646L17.4166 9.3765L17.567 9.48392C18.3017 10.0499 18.7495 10.9839 18.7496 11.9995C18.7496 12.4565 18.66 12.8943 18.4957 13.2886L17.8033 12.9995L17.1109 12.7115C17.1988 12.5007 17.2496 12.259 17.2496 11.9995C17.2495 11.4518 17.024 10.999 16.7183 10.7281L16.5836 10.6236L16.522 10.5777C16.2287 10.3358 16.1609 9.90654 16.3765 9.58353ZM10.7779 3.14213C12.0792 2.49678 13.6586 2.97414 14.3834 4.23295C14.6167 4.63824 14.6828 5.19578 14.7154 5.7808C14.7502 6.40423 14.7496 7.23881 14.7496 8.30814L14.7496 9.99955C14.7495 10.3055 14.5637 10.5815 14.2799 10.6958C13.9963 10.8099 13.6716 10.7402 13.4595 10.5201L9.13142 6.02005C8.88523 5.76404 8.85298 5.36997 9.05329 5.0767C9.39003 4.5841 9.67913 4.17971 9.93611 3.87259C10.1822 3.57854 10.4568 3.3015 10.7779 3.14213Z" fill="currentColor" /><path d="M2.46924 2.46918C2.76213 2.17629 3.2369 2.17629 3.52979 2.46918L21.5298 20.4692L21.5815 20.5258C21.8219 20.8204 21.8044 21.2551 21.5298 21.5297C21.2552 21.8043 20.8205 21.8218 20.5259 21.5815L20.4692 21.5297L14.7485 15.809C14.7485 16.8223 14.7488 17.6188 14.7153 18.2192C14.6827 18.8041 14.6157 19.3608 14.3823 19.7661C13.6575 21.0247 12.0791 21.503 10.7778 20.8579C10.3588 20.6501 9.99477 20.223 9.64307 19.7543C9.26828 19.2549 8.80568 18.5603 8.2124 17.6704C7.95878 17.2899 7.88674 17.1889 7.81006 17.1127C7.63724 16.9412 7.41778 16.8236 7.1792 16.7748C7.07316 16.7532 6.94862 16.7495 6.49072 16.7495L5.19971 16.7495C4.65203 16.7495 4.19584 16.7505 3.82471 16.7202C3.44498 16.6891 3.08861 16.6214 2.75147 16.4496C2.23402 16.186 1.81297 15.7649 1.54932 15.2475C1.37761 14.9104 1.30984 14.554 1.27881 14.1743C1.24849 13.8031 1.24951 13.3469 1.24951 12.7993L1.24951 11.1996C1.24951 10.652 1.24849 10.1958 1.27881 9.82465C1.30984 9.44492 1.37761 9.08855 1.54932 8.75141C1.81297 8.23396 2.23402 7.81291 2.75147 7.54926C3.0886 7.37755 3.44504 7.30978 3.82471 7.27875C4.19568 7.24844 4.65143 7.24945 5.19873 7.24945L6.18897 7.24945L2.46924 3.52973L2.41748 3.47309C2.17718 3.17851 2.19464 2.74378 2.46924 2.46918Z" fill="currentColor" />
</svg>