<svg xmlns="http://www.w3.org/2000/svg" width="24" height="24" viewBox="0 0 24 24" fill="none">
<path d="M10.7676 2.7672C12.112 1.77739 14.03 2.35805 14.5996 3.92735C14.7496 4.34063 14.75 5.23779 14.75 7.03185L14.75 16.9693C14.75 18.7628 14.7495 19.6595 14.5996 20.0729C14.0301 21.6421 12.112 22.2237 10.7676 21.234C10.4135 20.9733 9.91603 20.2267 8.9209 18.734C8.64526 18.3205 8.50768 18.1133 8.35254 17.9371C7.79553 17.3046 7.0286 16.8945 6.19336 16.7818C5.96064 16.7505 5.71182 16.7506 5.21484 16.7506L4.8789 16.7506C3.82768 16.7506 3.30202 16.7499 2.88183 16.5943C2.19825 16.3411 1.65851 15.8023 1.40527 15.1188C1.24961 14.6985 1.25 14.1723 1.25 13.1207L1.25 10.8795C1.25 9.82786 1.24958 9.30173 1.40527 8.88145C1.65854 8.19793 2.19829 7.65909 2.88184 7.40587C3.30201 7.2503 3.82775 7.25059 4.87891 7.25059L5.21484 7.25059C5.71182 7.25059 5.96065 7.25071 6.19336 7.21934C7.02864 7.10669 7.79551 6.69564 8.35254 6.06309C8.50763 5.88692 8.64533 5.67956 8.9209 5.26622C9.91568 3.77404 10.4136 3.02803 10.7676 2.7672ZM21.4697 9.46935C21.7626 9.17668 22.2374 9.1767 22.5303 9.46935C22.8231 9.76219 22.823 10.237 22.5303 10.5299L20.5605 12.4996L22.5303 14.4693L22.582 14.526C22.8223 14.8205 22.8047 15.2553 22.5303 15.5299C22.2557 15.8045 21.8209 15.822 21.5264 15.5817L21.4697 15.5299L19.5 13.5602L17.5303 15.5299C17.2374 15.8228 16.7626 15.8228 16.4697 15.5299C16.177 15.237 16.1769 14.7622 16.4697 14.4693L18.4395 12.4996L16.4697 10.5299C16.177 10.237 16.1769 9.76217 16.4697 9.46935C16.7626 9.17668 17.2374 9.1767 17.5303 9.46935L19.5 11.4391L21.4697 9.46935Z" fill="currentColor" />
</svg>