<svg xmlns="http://www.w3.org/2000/svg" width="24" height="24" viewBox="0 0 24 24" fill="none">
<path d="M11.7676 2.7672C13.112 1.77739 15.03 2.35805 15.5996 3.92735C15.7496 4.34063 15.75 5.23779 15.75 7.03185L15.75 16.9693C15.75 18.7628 15.7495 19.6595 15.5996 20.0729C15.0301 21.6421 13.112 22.2237 11.7676 21.234C11.4135 20.9733 10.916 20.2267 9.9209 18.734C9.64526 18.3205 9.50768 18.1133 9.35254 17.9371C8.79553 17.3046 8.0286 16.8945 7.19336 16.7818C6.96064 16.7505 6.71182 16.7506 6.21484 16.7506L5.8789 16.7506C4.82768 16.7506 4.30202 16.7499 3.88183 16.5943C3.19825 16.3411 2.65851 15.8023 2.40527 15.1188C2.24961 14.6985 2.25 14.1723 2.25 13.1207L2.25 10.8795C2.25 9.82786 2.24958 9.30173 2.40527 8.88145C2.65854 8.19793 3.19829 7.65909 3.88184 7.40587C4.30201 7.2503 4.82775 7.25059 5.87891 7.25059L6.21484 7.25059C6.71182 7.25059 6.96065 7.25071 7.19336 7.21934C8.02864 7.10669 8.79551 6.69564 9.35254 6.06309C9.50763 5.88692 9.64533 5.67956 9.9209 5.26622C10.9157 3.77404 11.4136 3.02803 11.7676 2.7672ZM18.376 9.58263C18.5917 9.26015 19.015 9.15871 19.3506 9.33653L19.417 9.3756L19.5674 9.48399C20.302 10.0499 20.7499 10.9842 20.75 11.9996C20.75 13.0828 20.2405 14.0735 19.417 14.6236C19.0726 14.8536 18.6061 14.7609 18.376 14.4166C18.1463 14.0722 18.2388 13.6056 18.583 13.3756C18.9548 13.1272 19.25 12.6254 19.25 11.9996C19.2499 11.4521 19.0242 10.9991 18.7187 10.7281L18.583 10.6236L18.5215 10.5777C18.2286 10.3357 18.1604 9.90543 18.376 9.58263Z" fill="currentColor" />
</svg>