<svg xmlns="http://www.w3.org/2000/svg" width="24" height="24" viewBox="0 0 24 24" fill="none">
<path opacity={0.32} d="M7.87932 16.75H8.2147C8.71177 16.75 8.96031 16.75 9.19305 16.7814C10.0284 16.894 10.7951 17.3043 11.3522 17.9369C11.5074 18.1132 11.6452 18.3199 11.921 18.7335C12.9162 20.2263 13.4137 20.9727 13.7678 21.2334C15.1122 22.2232 17.0304 21.6424 17.6 20.0731C17.75 19.6598 17.75 18.7627 17.75 16.9686V12H4.25V13.1207C4.25 14.1724 4.25 14.6982 4.4057 15.1185C4.65894 15.8021 5.19794 16.3411 5.88153 16.5943C6.30181 16.75 6.82764 16.75 7.87931 16.75H7.87932Z" fill="currentColor" /><path d="M8.2147 7.25003H7.87932C6.82764 7.25003 6.30181 7.25003 5.88153 7.40573C5.19794 7.65897 4.65894 8.19797 4.4057 8.88156C4.25 9.30184 4.25 9.82767 4.25 10.8794V12L17.75 12V7.03138C17.75 5.23729 17.75 4.34024 17.6 3.92698C17.0304 2.35767 15.1122 1.77687 13.7678 2.76667C13.4137 3.02733 12.9162 3.77372 11.921 5.2665L11.921 5.26651C11.6452 5.68009 11.5074 5.88688 11.3522 6.06313C10.7951 6.69574 10.0284 7.10605 9.19305 7.21866C8.96031 7.25003 8.71177 7.25003 8.2147 7.25003Z" fill="currentColor" />
</svg>