<svg xmlns="http://www.w3.org/2000/svg" width="24" height="24" viewBox="0 0 24 24" fill="none">
<path opacity={0.32} d="M4.87932 16.75H5.2147C5.71177 16.75 5.96031 16.75 6.19305 16.7814C7.02842 16.894 7.7951 17.3043 8.35218 17.9369C8.50738 18.1132 8.64524 18.3199 8.92097 18.7335C9.91615 20.2263 10.4137 20.9727 10.7678 21.2334C12.1122 22.2232 14.0304 21.6424 14.6 20.0731C14.75 19.6598 14.75 18.7627 14.75 16.9686V12H1.25V13.1207C1.25 14.1724 1.25 14.6982 1.4057 15.1185C1.65894 15.8021 2.19794 16.3411 2.88153 16.5943C3.30181 16.75 3.82764 16.75 4.87931 16.75H4.87932Z" fill="currentColor" /><path d="M21.4697 9.47008C21.7626 9.17719 22.2374 9.17719 22.5303 9.47008C22.823 9.76299 22.8231 10.2378 22.5303 10.5306L20.5605 12.5004L22.5303 14.4701L22.582 14.5267C22.8221 14.8213 22.8048 15.2561 22.5303 15.5306C22.2557 15.805 21.8209 15.8225 21.5264 15.5824L21.4697 15.5306L19.5 13.5609L17.5303 15.5306C17.2374 15.8233 16.7626 15.8233 16.4697 15.5306C16.1769 15.2378 16.177 14.763 16.4697 14.4701L18.4395 12.5004L16.4697 10.5306C16.1769 10.2378 16.177 9.76299 16.4697 9.47008C16.7626 9.17718 17.2374 9.17718 17.5303 9.47008L19.5 11.4398L21.4697 9.47008ZM10.7676 2.76695C12.112 1.77715 14.03 2.3578 14.5996 3.92711C14.7496 4.34039 14.75 5.23755 14.75 7.0316L14.75 12.0004L1.25 12.0003L1.25 10.8793C1.25 9.82762 1.24958 9.30148 1.40527 8.88121C1.65854 8.19769 2.19829 7.65885 2.88184 7.40562C3.30201 7.25005 3.82775 7.25035 4.87891 7.25035L5.21484 7.25035C5.71182 7.25035 5.96065 7.25047 6.19336 7.2191C7.02864 7.10644 7.79551 6.6954 8.35254 6.06285C8.50758 5.88673 8.6455 5.68005 8.9209 5.26695C9.91581 3.77458 10.4136 3.0278 10.7676 2.76695Z" fill="currentColor" />
</svg>