<svg xmlns="http://www.w3.org/2000/svg" width="24" height="24" viewBox="0 0 24 24" fill="none">
<path d="M17.75 7.03162C17.75 5.23753 17.75 4.34049 17.6 3.92722C17.0304 2.35791 15.1122 1.77711 13.7678 2.76692C13.4137 3.02758 12.9162 3.77396 11.921 5.26674C11.6452 5.68033 11.5074 5.88713 11.3522 6.06337C10.7951 6.69598 10.0284 7.10629 9.19305 7.2189C8.96031 7.25028 8.71178 7.25028 8.21471 7.25028H7.87932C6.82765 7.25028 6.30181 7.25028 5.88153 7.40597C5.19794 7.65922 4.65894 8.19822 4.4057 8.8818C4.25 9.30208 4.25 9.82792 4.25 10.8796L4.25 13.121C4.25 14.1726 4.25 14.6985 4.4057 15.1187C4.65894 15.8023 5.19794 16.3413 5.88153 16.5946C6.30181 16.7503 6.82764 16.7503 7.87932 16.7503H8.2147C8.71177 16.7503 8.96031 16.7503 9.19305 16.7816C10.0284 16.8943 10.7951 17.3046 11.3522 17.9372C11.5074 18.1134 11.6452 18.3202 11.921 18.7338C12.9162 20.2266 13.4137 20.973 13.7678 21.2336C15.1122 22.2234 17.0304 21.6426 17.6 20.0733C17.75 19.6601 17.75 18.763 17.75 16.9689V7.03162Z" fill="currentColor" />
</svg>