<svg xmlns="http://www.w3.org/2000/svg" width="24" height="24" viewBox="0 0 24 24" fill="none">
<path opacity={0.4} d="M17 15L22 10M17 10L22 15" stroke="currentColor" stroke-width={1.5} stroke-linecap="round" stroke-linejoin="round" /><path d="M2 12.7995V11.1995C2 10.0794 2 9.51935 2.21799 9.09153C2.40973 8.71521 2.71569 8.40925 3.09202 8.2175C3.51984 7.99951 4.0799 7.99951 5.2 7.99951H6.49167C6.91814 7.99951 7.13138 7.99951 7.32906 7.95922C7.71106 7.88136 8.06197 7.69356 8.33865 7.4189C8.48183 7.27677 8.60011 7.09935 8.83667 6.74451C10.0339 4.94871 10.6325 4.05082 11.1114 3.81329C12.0579 3.34395 13.2061 3.6916 13.7332 4.6071C14 5.07043 14 6.14956 14 8.30784V15.6912C14 17.8495 14 18.9286 13.7332 19.3919C13.2061 20.3074 12.0579 20.6551 11.1114 20.1857C10.6325 19.9482 10.0339 19.0503 8.83667 17.2545C8.60011 16.8997 8.48183 16.7222 8.33865 16.5801C8.06197 16.3055 7.71106 16.1177 7.32906 16.0398C7.13138 15.9995 6.91814 15.9995 6.49167 15.9995H5.2C4.0799 15.9995 3.51984 15.9995 3.09202 15.7815C2.71569 15.5898 2.40973 15.2838 2.21799 14.9075C2 14.4797 2 13.9196 2 12.7995Z" stroke="currentColor" stroke-width={1.5} stroke-linecap="round" stroke-linejoin="round" />
</svg>