<svg xmlns="http://www.w3.org/2000/svg" width="24" height="24" viewBox="0 0 24 24" fill="none">
<path opacity={0.32} d="M5.87932 16.75H6.2147C6.71177 16.75 6.96031 16.75 7.19305 16.7814C8.02842 16.894 8.7951 17.3043 9.35218 17.9369C9.50738 18.1132 9.64524 18.3199 9.92097 18.7335C10.9162 20.2263 11.4137 20.9727 11.7678 21.2334C13.1122 22.2232 15.0304 21.6424 15.6 20.0731C15.75 19.6598 15.75 18.7627 15.75 16.9686V12H2.25V13.1207C2.25 14.1724 2.25 14.6982 2.4057 15.1185C2.65894 15.8021 3.19794 16.3411 3.88153 16.5943C4.30181 16.75 4.82764 16.75 5.87931 16.75H5.87932Z" fill="currentColor" /><path d="M18.376 9.58312C18.5917 9.26033 19.0148 9.15897 19.3506 9.33702L19.417 9.37608L19.5674 9.48448C20.302 10.0505 20.75 10.9845 20.75 12.0001C20.7499 13.0833 20.2405 14.0741 19.417 14.6241C19.0727 14.8539 18.6061 14.7612 18.376 14.4171C18.146 14.0728 18.2389 13.6062 18.583 13.3761C18.9549 13.1278 19.2499 12.6258 19.25 12.0001C19.25 11.4525 19.0243 10.9997 18.7187 10.7286L18.583 10.6241L18.5215 10.5782C18.2285 10.3363 18.1605 9.90598 18.376 9.58312ZM11.7676 2.76671C13.112 1.7769 15.03 2.35756 15.5996 3.92686C15.7496 4.34014 15.75 5.2373 15.75 7.03136L15.75 12.0001L2.25 12.0001L2.25 10.879C2.25 9.82737 2.24958 9.30124 2.40527 8.88096C2.65854 8.19744 3.19829 7.6586 3.88184 7.40538C4.30201 7.24981 4.82775 7.25011 5.87891 7.25011L6.21484 7.25011C6.71182 7.25011 6.96065 7.25023 7.19336 7.21886C8.02864 7.1062 8.79551 6.69516 9.35254 6.06261C9.50758 5.88648 9.6455 5.6798 9.9209 5.26671C10.9158 3.77433 11.4136 3.02756 11.7676 2.76671Z" fill="currentColor" />
</svg>