<svg xmlns="http://www.w3.org/2000/svg" width="24" height="24" viewBox="0 0 24 24" fill="none">
<path d="M17 9.5V8.30832C17 6.15005 17 5.07091 16.7332 4.60759C16.2061 3.69209 15.0579 3.34443 14.1114 3.81378C13.6325 4.05131 13.0339 4.9492 11.8367 6.745C11.6001 7.09984 11.4818 7.27726 11.3386 7.41939C11.062 7.69405 10.7111 7.88185 10.3291 7.95971C10.1314 8 9.91814 8 9.49167 8H8.2C7.07989 8 6.51984 8 6.09202 8.21799C5.71569 8.40973 5.40973 8.71569 5.21799 9.09202C5 9.51984 5 10.0799 5 11.2V12.8C5 13.9201 5 14.4802 5.21799 14.908C5.40973 15.2843 5.71569 15.5903 6.09202 15.782C6.51984 16 7.0799 16 8.2 16H9.49167C9.91814 16 10.1314 16 10.3291 16.0403C10.7111 16.1181 11.062 16.306 11.3386 16.5806C11.4818 16.7227 11.6001 16.9002 11.8367 17.255C13.0339 19.0508 13.6325 19.9487 14.1114 20.1862C15.0579 20.6556 16.2061 20.3079 16.7332 19.3924C17 18.9291 17 17.8499 17 15.6917V14.5" stroke="currentColor" stroke-width={1.5} stroke-linecap="round" stroke-linejoin="round" />
</svg>