<svg xmlns="http://www.w3.org/2000/svg" width="24" height="24" viewBox="0 0 24 24" fill="none">
<path opacity={0.4} d="M16.9997 9.99951C17.5975 10.3987 17.9997 11.1449 17.9997 11.9995C17.9997 12.3578 17.929 12.6969 17.8029 12.9995M17.9997 5.99951C19.7931 7.19716 20.9997 9.43567 20.9997 11.9995C20.9997 13.0742 20.7877 14.0918 20.4093 14.9995C20.2631 15.3503 20.092 15.6846 19.8987 15.9995M9.67236 5.49951C10.343 4.51845 10.7593 3.98775 11.1111 3.81328C12.0576 3.34394 13.2058 3.6916 13.7329 4.6071C13.9997 5.07042 13.9997 6.14956 13.9997 8.30783V9.99951" stroke="currentColor" stroke-width={1.5} stroke-linecap="round" stroke-linejoin="round" /><path d="M13.9995 13.9995V15.6912C13.9995 17.8495 13.9995 18.9286 13.7327 19.3919C13.2056 20.3074 12.0574 20.6551 11.111 20.1857C10.632 19.9482 10.0334 19.0503 8.83618 17.2545C8.59962 16.8997 8.48134 16.7222 8.33816 16.5801C8.06148 16.3055 7.71057 16.1177 7.32857 16.0398C7.13089 15.9995 6.91765 15.9995 6.49119 15.9995H5.19951C4.07941 15.9995 3.51935 15.9995 3.09153 15.7815C2.71521 15.5898 2.40925 15.2838 2.2175 14.9075C1.99951 14.4797 1.99951 13.9196 1.99951 12.7995V11.1995C1.99951 10.0794 1.99951 9.51935 2.2175 9.09153C2.40925 8.71521 2.71521 8.40925 3.09153 8.2175C3.51935 7.99951 4.07911 7.99951 5.19862 7.99951C5.4514 7.99951 5.71845 7.99951 5.99951 7.99951H6.49119C6.91765 7.99951 7.13089 7.99951 7.32857 7.95922C7.49257 7.92579 7.65084 7.8721 7.79997 7.79997M13.9995 13.9995L7.79997 7.79997M13.9995 13.9995L20.9995 20.9995M2.99951 2.99951L7.79997 7.79997" stroke="currentColor" stroke-width={1.5} stroke-linecap="round" stroke-linejoin="round" />
</svg>