<svg xmlns="http://www.w3.org/2000/svg" width="24" height="24" viewBox="0 0 24 24" fill="none">
<path opacity={0.32} d="M4.87932 16.75H5.2147C5.71177 16.75 5.96031 16.75 6.19305 16.7814C7.02842 16.894 7.7951 17.3043 8.35218 17.9369C8.50738 18.1132 8.64524 18.3199 8.92097 18.7335C9.91615 20.2263 10.4137 20.9727 10.7678 21.2334C12.1122 22.2232 14.0304 21.6424 14.6 20.0731C14.75 19.6598 14.75 18.7627 14.75 16.9686V12H1.25V13.1207C1.25 14.1724 1.25 14.6982 1.4057 15.1185C1.65894 15.8021 2.19794 16.3411 2.88153 16.5943C3.30181 16.75 3.82764 16.75 4.87931 16.75H4.87932Z" fill="currentColor" /><path d="M17.376 5.58336C17.5917 5.26057 18.0148 5.15922 18.3506 5.33727L18.417 5.37633L18.6035 5.50621C20.5165 6.88044 21.75 9.29498 21.75 12.0004C21.7499 14.7927 20.4361 17.2759 18.417 18.6244C18.0727 18.8542 17.6061 18.7614 17.376 18.4173C17.146 18.073 17.2389 17.6065 17.583 17.3763C19.1505 16.3296 20.2499 14.3353 20.25 12.0004C20.25 9.81137 19.2842 7.92165 17.8721 6.83141L17.583 6.62438L17.5215 6.57848C17.2285 6.33655 17.1605 5.90622 17.376 5.58336ZM16.376 9.58336C16.5917 9.26057 17.0148 9.15922 17.3506 9.33727L17.417 9.37633L17.5674 9.48473C18.302 10.0507 18.75 10.9848 18.75 12.0004C18.7499 13.0835 18.2405 14.0743 17.417 14.6244C17.0727 14.8542 16.6061 14.7614 16.376 14.4173C16.146 14.073 16.2389 13.6065 16.583 13.3763C16.9549 13.128 17.2499 12.6261 17.25 12.0004C17.25 11.4527 17.0243 10.9999 16.7187 10.7289L16.583 10.6244L16.5215 10.5785C16.2285 10.3366 16.1605 9.90622 16.376 9.58336ZM10.7676 2.76695C12.112 1.77715 14.03 2.3578 14.5996 3.92711C14.7496 4.34039 14.75 5.23755 14.75 7.0316L14.75 12.0004L1.25 12.0003L1.25 10.8793C1.25 9.82762 1.24958 9.30148 1.40527 8.88121C1.65854 8.19769 2.19829 7.65885 2.88184 7.40562C3.30201 7.25005 3.82775 7.25035 4.87891 7.25035L5.21484 7.25035C5.71182 7.25035 5.96065 7.25047 6.19336 7.2191C7.02864 7.10644 7.79551 6.6954 8.35254 6.06285C8.50758 5.88673 8.6455 5.68005 8.9209 5.26695C9.91581 3.77458 10.4136 3.0278 10.7676 2.76695Z" fill="currentColor" />
</svg>