<svg xmlns="http://www.w3.org/2000/svg" width="24" height="24" viewBox="0 0 24 24" fill="none">
<path opacity={0.12} d="M3 12.7998V11.1998C3 10.0797 3 9.5196 3.21799 9.09177C3.40973 8.71545 3.71569 8.40949 4.09202 8.21774C4.51984 7.99976 5.0799 7.99976 6.2 7.99976H7.49167C7.91814 7.99976 8.13138 7.99976 8.32906 7.95947C8.71106 7.88161 9.06197 7.6938 9.33865 7.41915C9.48183 7.27702 9.60011 7.0996 9.83667 6.74475C11.0339 4.94896 11.6325 4.05106 12.1114 3.81353C13.0579 3.34419 14.2061 3.69185 14.7332 4.60735C15 5.07067 15 6.14981 15 8.30808V15.6914C15 17.8497 15 18.9288 14.7332 19.3922C14.2061 20.3077 13.0579 20.6553 12.1114 20.186C11.6325 19.9485 11.0339 19.0506 9.83667 17.2548C9.60011 16.8999 9.48183 16.7225 9.33865 16.5804C9.06197 16.3057 8.71106 16.1179 8.32906 16.04C8.13138 15.9998 7.91814 15.9998 7.49167 15.9998H6.2C5.0799 15.9998 4.51984 15.9998 4.09202 15.7818C3.71569 15.59 3.40973 15.2841 3.21799 14.9077C3 14.4799 3 13.9199 3 12.7998Z" fill="currentColor" /><path d="M19 10C19.5978 10.3992 20 11.1454 20 12C20 12.8546 19.5978 13.6008 19 14M9.83667 6.745C9.60011 7.09984 9.48183 7.27726 9.33865 7.41939C9.06197 7.69405 8.71106 7.88185 8.32906 7.95971C8.13138 8 7.91814 8 7.49167 8H6.2C5.07989 8 4.51984 8 4.09202 8.21799C3.71569 8.40973 3.40973 8.71569 3.21799 9.09202C3 9.51984 3 10.0799 3 11.2V12.8C3 13.9201 3 14.4802 3.21799 14.908C3.40973 15.2843 3.71569 15.5903 4.09202 15.782C4.51984 16 5.0799 16 6.2 16H7.49167C7.91814 16 8.13138 16 8.32906 16.0403C8.71106 16.1181 9.06197 16.306 9.33865 16.5806C9.48183 16.7227 9.60011 16.9002 9.83667 17.255C11.0339 19.0508 11.6325 19.9487 12.1114 20.1862C13.0579 20.6556 14.2061 20.3079 14.7332 19.3924C15 18.9291 15 17.8499 15 15.6917V8.30832C15 6.15005 15 5.07091 14.7332 4.60759C14.2061 3.69209 13.0579 3.34443 12.1114 3.81378C11.6325 4.05131 11.0339 4.9492 9.83667 6.745Z" stroke="currentColor" stroke-width={1.5} stroke-linecap="round" stroke-linejoin="round" />
</svg>