<svg xmlns="http://www.w3.org/2000/svg" width="24" height="24" viewBox="0 0 24 24" fill="none">
<path d="M15 9.5V8.30832C15 6.15005 15 5.07091 14.7332 4.60759C14.2061 3.69209 13.0579 3.34443 12.1114 3.81378C11.6325 4.05131 11.0339 4.9492 9.83667 6.745C9.60011 7.09984 9.48183 7.27726 9.33865 7.41939C9.06197 7.69405 8.71106 7.88185 8.32906 7.95971C8.13138 8 7.91814 8 7.49167 8H6.2C5.07989 8 4.51984 8 4.09202 8.21799C3.71569 8.40973 3.40973 8.71569 3.21799 9.09202C3 9.51984 3 10.0799 3 11.2V12.8C3 13.9201 3 14.4802 3.21799 14.908C3.40973 15.2843 3.71569 15.5903 4.09202 15.782C4.51984 16 5.0799 16 6.2 16H7.49167C7.91814 16 8.13138 16 8.32906 16.0403C8.71106 16.1181 9.06197 16.306 9.33865 16.5806C9.48183 16.7227 9.60011 16.9002 9.83667 17.255C11.0339 19.0508 11.6325 19.9487 12.1114 20.1862C13.0579 20.6556 14.2061 20.3079 14.7332 19.3924C15 18.9291 15 17.8499 15 15.6917V14.5M19 10C19.5978 10.3992 20 11.1454 20 12C20 12.8546 19.5978 13.6008 19 14" stroke="currentColor" stroke-width={1.5} stroke-linecap="round" stroke-linejoin="round" />
</svg>