<svg xmlns="http://www.w3.org/2000/svg" width="24" height="24" viewBox="0 0 24 24" fill="none">
<path d="M10.7676 2.7672C12.112 1.77739 14.03 2.35805 14.5996 3.92735C14.7496 4.34063 14.75 5.23779 14.75 7.03185L14.75 16.9693C14.75 18.7628 14.7495 19.6595 14.5996 20.0729C14.0301 21.6421 12.112 22.2237 10.7676 21.234C10.4135 20.9733 9.91603 20.2267 8.9209 18.734C8.64526 18.3205 8.50768 18.1133 8.35254 17.9371C7.79553 17.3046 7.0286 16.8945 6.19336 16.7818C5.96064 16.7505 5.71182 16.7506 5.21484 16.7506L4.8789 16.7506C3.82768 16.7506 3.30202 16.7499 2.88183 16.5943C2.19825 16.3411 1.65851 15.8023 1.40527 15.1188C1.24961 14.6985 1.25 14.1723 1.25 13.1207L1.25 10.8795C1.25 9.82786 1.24958 9.30173 1.40527 8.88145C1.65854 8.19793 2.19829 7.65909 2.88184 7.40587C3.30201 7.2503 3.82775 7.25059 4.87891 7.25059L5.21484 7.25059C5.71182 7.25059 5.96065 7.25071 6.19336 7.21934C7.02864 7.10669 7.79551 6.69564 8.35254 6.06309C8.50763 5.88692 8.64533 5.67956 8.9209 5.26622C9.91568 3.77404 10.4136 3.02803 10.7676 2.7672ZM17.376 5.58263C17.5917 5.26017 18.015 5.15861 18.3506 5.33653L18.417 5.3756L18.6035 5.50548C20.5164 6.87962 21.7499 9.29439 21.75 11.9996C21.75 14.792 20.436 17.2751 18.417 18.6236C18.0726 18.8536 17.6061 18.7609 17.376 18.4166C17.1462 18.0722 17.2388 17.6056 17.583 17.3756C19.1504 16.3287 20.25 14.3346 20.25 11.9996C20.2499 9.81078 19.2842 7.92083 17.8721 6.83067L17.583 6.62364L17.5215 6.57774C17.2285 6.33573 17.1604 5.90547 17.376 5.58263ZM16.376 9.58263C16.5917 9.26017 17.015 9.15861 17.3506 9.33653L17.417 9.3756L17.5674 9.48399C18.302 10.0499 18.7499 10.9842 18.75 11.9996C18.75 13.0828 18.2404 14.0735 17.417 14.6236C17.0726 14.8536 16.6061 14.7609 16.376 14.4166C16.1462 14.0722 16.2388 13.6056 16.583 13.3756C16.9548 13.1272 17.25 12.6253 17.25 11.9996C17.2499 11.4521 17.0242 10.9991 16.7187 10.7281L16.583 10.6236L16.5215 10.5777C16.2285 10.3357 16.1604 9.90547 16.376 9.58263Z" fill="currentColor" />
</svg>