<svg xmlns="http://www.w3.org/2000/svg" width="24" height="24" viewBox="0 0 24 24" fill="none">
<path d="M2.46924 2.46918C2.76213 2.17629 3.2369 2.17629 3.52979 2.46918L21.5298 20.4692L21.5815 20.5258C21.8219 20.8204 21.8044 21.2551 21.5298 21.5297C21.2552 21.8043 20.8205 21.8218 20.5259 21.5815L20.4692 21.5297L14.7485 15.809C14.7485 16.8223 14.7488 17.6188 14.7153 18.2192C14.6827 18.8041 14.6157 19.3608 14.3823 19.7661C13.6575 21.0247 12.0791 21.503 10.7778 20.8579C10.3588 20.6501 9.99477 20.223 9.64307 19.7543C9.26828 19.2549 8.80568 18.5603 8.2124 17.6704C7.95878 17.2899 7.88674 17.1889 7.81006 17.1127C7.63724 16.9412 7.41778 16.8236 7.1792 16.7748C7.07316 16.7532 6.94862 16.7495 6.49072 16.7495L5.19971 16.7495C4.65203 16.7495 4.19584 16.7505 3.82471 16.7202C3.44498 16.6891 3.08861 16.6214 2.75147 16.4496C2.23402 16.186 1.81297 15.7649 1.54932 15.2475C1.37761 14.9104 1.30984 14.554 1.27881 14.1743C1.24849 13.8031 1.24951 13.3469 1.24951 12.7993L1.24951 11.1996C1.24951 10.652 1.24849 10.1958 1.27881 9.82465C1.30984 9.44492 1.37761 9.08855 1.54932 8.75141C1.81297 8.23396 2.23402 7.81291 2.75147 7.54926C3.0886 7.37755 3.44504 7.30978 3.82471 7.27875C4.19568 7.24844 4.65143 7.24945 5.19873 7.24945L6.18897 7.24945L2.46924 3.52973L2.41748 3.47309C2.17718 3.17851 2.19464 2.74378 2.46924 2.46918ZM17.3755 5.58246C17.5912 5.25968 18.0143 5.15832 18.3501 5.33637L18.4165 5.37543L18.603 5.50532C20.5161 6.87953 21.7495 9.29404 21.7495 11.9995C21.7495 13.1729 21.5177 14.2891 21.1011 15.2885C20.9401 15.6746 20.7514 16.0438 20.5376 16.392C20.3209 16.7448 19.8593 16.8555 19.5063 16.6391C19.1533 16.4224 19.0426 15.9599 19.2593 15.6069C19.4319 15.3256 19.5859 15.0256 19.7173 14.7104C20.0573 13.8946 20.2495 12.9753 20.2495 11.9995C20.2495 9.81043 19.2838 7.92075 17.8716 6.83051L17.5825 6.62348L17.521 6.57758C17.2279 6.33559 17.1599 5.90536 17.3755 5.58246ZM16.3755 9.58246C16.5912 9.25968 17.0143 9.15832 17.3501 9.33637L17.4165 9.37543L17.5669 9.48383C18.3016 10.0498 18.7495 10.9838 18.7495 11.9995C18.7495 12.4564 18.659 12.8942 18.4946 13.2885L18.4614 13.3569C18.2805 13.6913 17.8726 13.8412 17.5142 13.6918C17.1318 13.5325 16.9515 13.0927 17.1108 12.7104L17.1694 12.5473C17.2209 12.3784 17.2495 12.1941 17.2495 11.9995C17.2495 11.4518 17.0238 10.999 16.7183 10.728L16.5825 10.6235L16.521 10.5776C16.2279 10.3356 16.1599 9.90536 16.3755 9.58246ZM10.7778 3.14106C12.0791 2.49586 13.6575 2.9742 14.3823 4.23285C14.6157 4.6381 14.6827 5.19477 14.7153 5.77973C14.7501 6.40322 14.7495 7.23839 14.7495 8.30805L14.7495 9.99946C14.7495 10.3054 14.5635 10.5804 14.2798 10.6948C13.9959 10.8091 13.6706 10.7396 13.4585 10.519L9.13135 6.01899C8.8854 5.76295 8.85294 5.36977 9.05323 5.0766C9.39 4.58394 9.67904 4.17963 9.93604 3.8725C10.1822 3.5783 10.4565 3.30041 10.7778 3.14106Z" fill="currentColor" />
</svg>