<svg xmlns="http://www.w3.org/2000/svg" width="24" height="24" viewBox="0 0 24 24" fill="none">
<path opacity={0.12} d="M2 12.7993V11.1993C2 10.0792 2 9.51911 2.21799 9.09129C2.40973 8.71496 2.71569 8.409 3.09202 8.21725C3.51984 7.99927 4.0799 7.99927 5.2 7.99927H6.49167C6.91814 7.99927 7.13138 7.99927 7.32906 7.95898C7.71106 7.88112 8.06197 7.69331 8.33865 7.41866C8.48183 7.27653 8.60011 7.09911 8.83667 6.74426C10.0339 4.94847 10.6325 4.05057 11.1114 3.81304C12.0579 3.3437 13.2061 3.69136 13.7332 4.60686C14 5.07018 14 6.14932 14 8.30759V15.6909C14 17.8492 14 18.9284 13.7332 19.3917C13.2061 20.3072 12.0579 20.6548 11.1114 20.1855C10.6325 19.948 10.0339 19.0501 8.83667 17.2543C8.60011 16.8994 8.48183 16.722 8.33865 16.5799C8.06197 16.3052 7.71106 16.1174 7.32906 16.0396C7.13138 15.9993 6.91814 15.9993 6.49167 15.9993H5.2C4.0799 15.9993 3.51984 15.9993 3.09202 15.7813C2.71569 15.5895 2.40973 15.2836 2.21799 14.9072C2 14.4794 2 13.9194 2 12.7993Z" fill="currentColor" /><path d="M17 15L19.5 12.5M19.5 12.5L22 10M19.5 12.5L17 10M19.5 12.5L22 15M8.83667 6.74451C8.60011 7.09935 8.48183 7.27677 8.33865 7.4189C8.06197 7.69356 7.71106 7.88136 7.32906 7.95922C7.13138 7.99951 6.91814 7.99951 6.49167 7.99951H5.2C4.07989 7.99951 3.51984 7.99951 3.09202 8.2175C2.71569 8.40925 2.40973 8.71521 2.21799 9.09153C2 9.51935 2 10.0794 2 11.1995V12.7995C2 13.9196 2 14.4797 2.21799 14.9075C2.40973 15.2838 2.71569 15.5898 3.09202 15.7815C3.51984 15.9995 4.0799 15.9995 5.2 15.9995H6.49167C6.91814 15.9995 7.13138 15.9995 7.32906 16.0398C7.71106 16.1177 8.06197 16.3055 8.33865 16.5801C8.48183 16.7223 8.60011 16.8997 8.83667 17.2545C10.0339 19.0503 10.6325 19.9482 11.1114 20.1857C12.0579 20.6551 13.2061 20.3074 13.7332 19.3919C14 18.9286 14 17.8495 14 15.6912V8.30784C14 6.14956 14 5.07043 13.7332 4.6071C13.2061 3.6916 12.0579 3.34395 11.1114 3.81329C10.6325 4.05082 10.0339 4.94871 8.83667 6.74451Z" stroke="currentColor" stroke-width={1.5} stroke-linecap="round" stroke-linejoin="round" />
</svg>