<svg xmlns="http://www.w3.org/2000/svg" width="40" height="40" viewBox="0 0 40 40" fill="none">
<path d="M3.33398 6.66665V28.6666C3.33398 31.4669 3.33398 32.867 3.87895 33.9366C4.35832 34.8774 5.12322 35.6423 6.06403 36.1217C7.13359 36.6666 8.53372 36.6666 11.334 36.6666H28.6673C31.4676 36.6666 32.8677 36.6666 33.9373 36.1217C34.8781 35.6423 35.643 34.8774 36.1223 33.9366C36.6673 32.867 36.6673 31.4669 36.6673 28.6667V18C36.6673 15.1997 36.6673 13.7996 36.1223 12.73C35.643 11.7892 34.8781 11.0243 33.9373 10.5449C32.8677 9.99998 31.4676 9.99998 28.6673 9.99998H20.0007M3.33398 6.66665C3.33398 8.5076 4.82637 9.99998 6.66732 9.99998H28.334L26.534 7.59998C25.3607 6.03554 24.774 5.25332 24.0305 4.68915C23.372 4.18947 22.6263 3.81662 21.8314 3.58962C20.934 3.33331 19.9562 3.33331 18.0006 3.33331H6.66732C4.82637 3.33331 3.33398 4.8257 3.33398 6.66665ZM36.6673 18.3333H35.834C33.0726 18.3333 30.834 20.5719 30.834 23.3333C30.834 26.0947 33.0726 28.3333 35.834 28.3333H36.6673" stroke="currentColor" stroke-width={3} stroke-linecap="round" stroke-linejoin="round" />
</svg>