<svg xmlns="http://www.w3.org/2000/svg" width="40" height="40" viewBox="0 0 40 40" fill="none">
<path d="M3.33398 15V26C3.33398 29.7337 3.33398 31.6005 4.06061 33.0266C4.69976 34.281 5.71963 35.3009 6.97405 35.94C8.40013 36.6666 10.267 36.6666 14.0007 36.6666H26.0007C29.7343 36.6666 31.6012 36.6666 33.0273 35.94C34.2817 35.3009 35.3015 34.281 35.9407 33.0266C36.6673 31.6005 36.6673 29.7337 36.6673 26V20.6666C36.6673 16.933 36.6673 15.0661 35.9407 13.64C35.3015 12.3856 34.2817 11.3658 33.0273 10.7266C31.6012 9.99998 29.7343 9.99998 26.0006 9.99998H20.0007M36.6673 18.3333H35.834C33.0726 18.3333 30.834 20.5719 30.834 23.3333C30.834 26.0947 33.0726 28.3333 35.834 28.3333H36.6673M28.334 9.99998L26.534 7.59998C25.3607 6.03554 24.774 5.25332 24.0305 4.68915C23.372 4.18947 22.6263 3.81662 21.8314 3.58962C20.934 3.33331 19.9562 3.33331 18.0006 3.33331H6.66732C4.82637 3.33331 3.33398 4.8257 3.33398 6.66665C3.33398 8.5076 4.82637 9.99998 6.66732 9.99998H28.334Z" stroke="currentColor" stroke-width={3} stroke-linecap="round" stroke-linejoin="round" />
</svg>