<svg xmlns="http://www.w3.org/2000/svg" width="40" height="40" viewBox="0 0 40 40" fill="none">
<path fill-rule="evenodd" clip-rule="evenodd" d="M2.08301 6.6667C2.08301 4.13539 4.13504 2.08336 6.66634 2.08336L18.1883 2.08334C19.9628 2.08297 21.1058 2.08274 22.1737 2.38772C23.1176 2.65729 24.0031 3.10005 24.7851 3.69342C25.6698 4.36475 26.3554 5.27926 27.4199 6.69913L28.9739 8.77122C29.5231 8.78497 30.0232 8.80763 30.4801 8.84496C31.6691 8.9421 32.6751 9.14478 33.5938 9.61285C35.0834 10.3718 36.2945 11.5829 37.0535 13.0726C37.5215 13.9912 37.7242 14.9972 37.8214 16.1862C37.8444 16.4683 37.8619 16.7669 37.8751 17.0833H34.9997C31.5479 17.0833 28.7497 19.8815 28.7497 23.3333C28.7497 26.7851 31.5479 29.5833 34.9997 29.5833H37.8751C37.8619 29.8998 37.8444 30.1983 37.8214 30.4804C37.7242 31.6694 37.5215 32.6754 37.0535 33.5941C36.2945 35.0837 35.0834 36.2948 33.5938 37.0538C32.6751 37.5218 31.6691 37.7245 30.4801 37.8217C29.3174 37.9167 27.8749 37.9167 26.0547 37.9166H13.9446C12.1244 37.9167 10.6819 37.9167 9.51923 37.8217C8.33025 37.7245 7.32421 37.5218 6.40558 37.0538C4.91597 36.2948 3.70487 35.0837 2.94587 33.5941C2.47781 32.6754 2.27513 31.6694 2.17799 30.4804C2.08299 29.3177 2.083 27.8752 2.08301 26.055V6.6667ZM17.9997 4.58336C20.0277 4.58336 20.7975 4.59466 21.4872 4.79161C22.133 4.97605 22.7389 5.27899 23.2739 5.68498C23.8453 6.11851 24.3162 6.72763 25.533 8.35003L25.833 8.74998H6.65174C5.50787 8.74213 4.58301 7.81242 4.58301 6.6667C4.58301 5.5161 5.51575 4.58336 6.66634 4.58336H17.9997Z" fill="currentColor" /><path d="M37.9156 27.0833C37.9163 26.7546 37.9163 26.4121 37.9163 26.055V20.6069C37.9163 20.2515 37.9163 19.9106 37.9156 19.5833H34.9997C32.9286 19.5833 31.2497 21.2622 31.2497 23.3333C31.2497 25.4044 32.9286 27.0833 34.9997 27.0833H37.9156Z" fill="currentColor" />
</svg>