<svg xmlns="http://www.w3.org/2000/svg" width="24" height="24" viewBox="0 0 24 24" fill="none">
<path d="M12 6H15.6C17.8402 6 18.9603 6 19.816 6.43597C20.5686 6.81947 21.1805 7.43139 21.564 8.18404C22 9.03968 22 10.1598 22 12.4V15.6C22 17.8402 22 18.9603 21.564 19.816C21.1805 20.5686 20.5686 21.1805 19.816 21.564C18.9603 22 17.8402 22 15.6 22H8.4C6.15979 22 5.03968 22 4.18404 21.564C3.43139 21.1805 2.81947 20.5686 2.43597 19.816C2 18.9603 2 17.8402 2 15.6V9M22 11H21.5C19.8431 11 18.5 12.3431 18.5 14C18.5 15.6569 19.8431 17 21.5 17H22M7.5 14H10H12.5M17 6L15.92 4.56C15.216 3.62134 14.864 3.15201 14.4179 2.8135C14.0228 2.5137 13.5754 2.28999 13.0985 2.15378C12.56 2 11.9733 2 10.8 2H4C2.89543 2 2 2.89543 2 4C2 5.10457 2.89543 6 4 6H17Z" stroke="currentColor" stroke-width={1.5} stroke-linecap="round" stroke-linejoin="round" />
</svg>