<svg xmlns="http://www.w3.org/2000/svg" width="24" height="24" viewBox="0 0 24 24" fill="none">
<path d="M30 31V42.6C30 44.8402 30 45.9603 30.436 46.816C30.8195 47.5686 31.4314 48.1805 32.184 48.564C33.0397 49 34.1598 49 36.4 49H43.6C45.8402 49 46.9603 49 47.816 48.564C48.5686 48.1805 49.1805 47.5686 49.564 46.816C50 45.9603 50 44.8402 50 42.6V39.4C50 37.1598 50 36.0397 49.564 35.184C49.1805 34.4314 48.5686 33.8195 47.816 33.436C46.9603 33 45.8402 33 43.6 33H40M30 31C30 32.1046 30.8954 33 32 33H45L43.92 31.56C43.216 30.6213 42.864 30.152 42.4179 29.8135C42.0228 29.5137 41.5754 29.29 41.0985 29.1538C40.56 29 39.9733 29 38.8 29H32C30.8954 29 30 29.8954 30 31ZM50 38H49.5C47.8431 38 46.5 39.3431 46.5 41C46.5 42.6569 47.8431 44 49.5 44H50M38 38.5V41M38 41V43.5M38 41H35.5M38 41H40.5" stroke="currentColor" stroke-width={1.5} stroke-linecap="round" stroke-linejoin="round" />
</svg>