<svg xmlns="http://www.w3.org/2000/svg" width="24" height="24" viewBox="0 0 24 24" fill="none">
<path d="M12.377 0.250002C12.8329 0.250001 13.2157 0.249995 13.5312 0.273439C13.8563 0.297602 14.1626 0.349696 14.4619 0.480471C14.926 0.683386 15.3252 1.01045 15.6152 1.42578C15.8022 1.6936 15.9135 1.9838 16.001 2.29785C16.0859 2.60275 16.1606 2.97864 16.25 3.42578L16.459 4.47168C19.0276 5.99628 20.75 8.79638 20.75 12C20.75 15.2035 19.0273 18.0027 16.459 19.5273L16.25 20.5742C16.1606 21.0214 16.0859 21.3972 16.001 21.7022C15.9135 22.0162 15.8022 22.3064 15.6152 22.5742C15.3252 22.9896 14.9261 23.3166 14.4619 23.5195C14.1626 23.6503 13.8564 23.7024 13.5312 23.7266C13.2157 23.75 12.8329 23.75 12.3769 23.75L11.623 23.75C11.1671 23.75 10.7843 23.75 10.4687 23.7266C10.1437 23.7024 9.83735 23.6503 9.53808 23.5195C9.07396 23.3166 8.67473 22.9896 8.38476 22.5742C8.19783 22.3064 8.08647 22.0162 7.99902 21.7021C7.91414 21.3973 7.83942 21.0214 7.75 20.5742L7.54004 19.5273C4.97218 18.0026 3.25 15.2031 3.25 12C3.25002 8.79674 4.97194 5.99639 7.54004 4.47168L7.75 3.42578C7.83943 2.97862 7.91414 2.60275 7.99902 2.29785C8.08648 1.98379 8.19781 1.69361 8.38477 1.42578C8.67474 1.01043 9.07395 0.6834 9.53809 0.48047C9.83736 0.349676 10.1437 0.297607 10.4687 0.273439C10.7843 0.249989 11.1671 0.250001 11.623 0.250001L12.377 0.250002ZM14.7754 20.2969C13.903 20.5886 12.9705 20.75 12 20.75C11.0291 20.75 10.0963 20.5888 9.22363 20.2969C9.31559 20.7566 9.37862 21.0638 9.44433 21.2998C9.50829 21.5295 9.56201 21.6409 9.61425 21.7158C9.74603 21.9046 9.92777 22.0533 10.1387 22.1455C10.2223 22.1821 10.3423 22.2138 10.5801 22.2314C10.8272 22.2498 11.1452 22.25 11.623 22.25L12.3769 22.25C12.8548 22.25 13.1727 22.2498 13.4199 22.2314C13.6577 22.2138 13.7777 22.1821 13.8613 22.1455C14.0723 22.0533 14.2539 21.9046 14.3857 21.7158C14.438 21.6409 14.4917 21.5296 14.5557 21.2998C14.6214 21.0638 14.6834 20.7565 14.7754 20.2969ZM12 8.25C11.5858 8.25 11.25 8.58579 11.25 9L11.25 12C11.25 12.2359 11.3611 12.458 11.5498 12.5996L13.5498 14.0996C13.8811 14.3481 14.351 14.2813 14.5996 13.9502C14.8326 13.6395 14.7884 13.2069 14.5088 12.9492L14.4502 12.9004L12.75 11.625L12.75 9C12.75 8.58579 12.4142 8.25 12 8.25ZM11.623 1.75C11.1452 1.75 10.8272 1.7502 10.5801 1.76856C10.3423 1.78624 10.2223 1.81793 10.1387 1.85449C9.92775 1.94674 9.74604 2.09542 9.61426 2.28418C9.562 2.35905 9.50831 2.47046 9.44434 2.7002C9.37867 2.93606 9.31549 3.243 9.22363 3.70215C10.0962 3.41032 11.0293 3.25001 12 3.25C12.9704 3.25 13.9031 3.41054 14.7754 3.70215C14.6836 3.24312 14.6213 2.93603 14.5557 2.7002C14.4917 2.47048 14.438 2.35905 14.3857 2.28418C14.254 2.09544 14.0722 1.94673 13.8613 1.85449C13.7777 1.81795 13.6577 1.78623 13.4199 1.76856C13.1728 1.75021 12.8548 1.75 12.377 1.75L11.623 1.75Z" fill="currentColor" />
</svg>