<svg xmlns="http://www.w3.org/2000/svg" width="24" height="24" viewBox="0 0 24 24" fill="none">
<path d="M17.2916 6C15.8814 4.75527 14.0289 4 12 4C7.58172 4 4 7.58172 4 12C4 16.4183 7.58172 20 12 20C16.4183 20 20 16.4183 20 12C20 10.9391 19.7935 9.92643 19.4185 9M16.0001 5L15.6061 3.42389C15.3894 2.55722 15.2811 2.12389 15.0395 1.80124C14.8263 1.51657 14.5411 1.29388 14.2133 1.15613C13.8416 1 13.395 1 12.5016 1H11.4986C10.6053 1 10.1586 1 9.78699 1.15613C9.45912 1.29388 9.1739 1.51657 8.96074 1.80124C8.71915 2.12389 8.61082 2.55722 8.39415 3.42388L8.00012 5M16.0001 19L15.6061 20.5761C15.3894 21.4428 15.2811 21.8761 15.0395 22.1988C14.8263 22.4834 14.5411 22.7061 14.2133 22.8439C13.8416 23 13.395 23 12.5016 23H11.4986C10.6053 23 10.1586 23 9.78699 22.8439C9.45912 22.7061 9.1739 22.4834 8.96074 22.1988C8.71915 21.8761 8.61082 21.4428 8.39415 20.5761L8.00012 19M12 9V12L14 13.5" stroke="currentColor" stroke-width={1.5} stroke-linecap="round" stroke-linejoin="round" />
</svg>