<svg xmlns="http://www.w3.org/2000/svg" width="24" height="24" viewBox="0 0 24 24" fill="none">
<path d="M12.5762 0.250002C13.0324 0.250002 13.4158 0.249976 13.7314 0.273439C14.0565 0.297606 14.3629 0.349702 14.6621 0.480471C15.1262 0.683395 15.5255 1.01049 15.8154 1.42578C16.0024 1.69356 16.1137 1.98386 16.2012 2.29785C16.2818 2.58747 16.3529 2.94142 16.4365 3.35938C17.0726 3.43667 17.5747 3.56836 18.0195 3.79492C18.9603 4.27429 19.7257 5.03966 20.2051 5.98047C20.7499 7.04998 20.75 8.45005 20.75 11.25L20.75 12.75C20.75 15.5503 20.75 16.951 20.2051 18.0205C19.7257 18.9612 18.9603 19.7258 18.0195 20.2051C17.5747 20.4317 17.0727 20.5633 16.4365 20.6406C16.3529 21.0587 16.2818 21.4125 16.2012 21.7022C16.1137 22.0162 16.0023 22.3064 15.8154 22.5742C15.5255 22.9896 15.1262 23.3166 14.6621 23.5195C14.3628 23.6503 14.0565 23.7024 13.7314 23.7266C13.4157 23.75 13.0324 23.75 12.5762 23.75L11.4238 23.75C10.9676 23.75 10.5842 23.75 10.2686 23.7266C9.94346 23.7024 9.63716 23.6503 9.33789 23.5195C8.87379 23.3166 8.47451 22.9896 8.18457 22.5742C7.99766 22.3064 7.88627 22.0162 7.79882 21.7021C7.71818 21.4124 7.64614 21.0587 7.5625 20.6406C6.92679 20.5633 6.42508 20.4316 5.98047 20.2051C5.03974 19.7258 4.27429 18.9612 3.79492 18.0205C3.24995 16.9509 3.25 15.5503 3.25 12.75L3.25 11.25C3.25 8.45004 3.25006 7.04998 3.79492 5.98047C4.27429 5.03966 5.03966 4.27429 5.98047 3.79492C6.42505 3.56848 6.92685 3.43669 7.5625 3.35938C7.64612 2.94134 7.71819 2.58751 7.79883 2.29785C7.88628 1.98386 7.99765 1.69356 8.18457 1.42578C8.47452 1.01049 8.87382 0.683392 9.33789 0.48047C9.63713 0.349707 9.9435 0.297605 10.2686 0.273439C10.5842 0.249977 10.9677 0.250001 11.4238 0.250001L12.5762 0.250002ZM14.8857 20.7344C14.2769 20.7483 13.5741 20.75 12.75 20.75L11.25 20.75C10.4255 20.75 9.72234 20.7483 9.11328 20.7344C9.16161 20.9666 9.20189 21.148 9.24414 21.2998C9.30808 21.5294 9.3628 21.641 9.41504 21.7158C9.54684 21.9045 9.72856 22.0533 9.93945 22.1455C10.0231 22.182 10.1424 22.2138 10.3799 22.2314C10.6271 22.2498 10.9456 22.25 11.4238 22.25L12.5762 22.25C13.0544 22.25 13.3728 22.2498 13.6201 22.2314C13.8576 22.2138 13.9769 22.182 14.0605 22.1455C14.2714 22.0533 14.4531 21.9045 14.585 21.7158C14.6372 21.641 14.6919 21.5294 14.7559 21.2998C14.7981 21.1481 14.8374 20.9665 14.8857 20.7344ZM12 8.25C11.5858 8.25 11.25 8.58579 11.25 9L11.25 12C11.25 12.2359 11.3611 12.458 11.5498 12.5996L13.5498 14.0996C13.8811 14.3481 14.351 14.2813 14.5996 13.9502C14.8326 13.6395 14.7884 13.2069 14.5088 12.9492L14.4502 12.9004L12.75 11.625L12.75 9C12.75 8.58579 12.4142 8.25 12 8.25ZM11.4238 1.75C10.9456 1.75 10.6271 1.75019 10.3799 1.76856C10.1425 1.7862 10.0231 1.81802 9.93945 1.85449C9.72859 1.94665 9.54686 2.09557 9.41504 2.28418C9.36279 2.35903 9.3081 2.47057 9.24414 2.7002C9.2019 2.85192 9.16159 3.03346 9.11328 3.26563C9.72234 3.25171 10.4255 3.25 11.25 3.25L12.75 3.25C13.5741 3.25 14.2769 3.25174 14.8857 3.26563C14.8374 3.03356 14.7981 2.85188 14.7559 2.7002C14.6919 2.47057 14.6372 2.35903 14.585 2.28418C14.4531 2.09557 14.2714 1.94665 14.0605 1.85449C13.9769 1.81802 13.8575 1.7862 13.6201 1.76856C13.3728 1.75019 13.0544 1.75 12.5762 1.75L11.4238 1.75Z" fill="currentColor" />
</svg>