<svg xmlns="http://www.w3.org/2000/svg" width="24" height="24" viewBox="0 0 24 24" fill="none">
<path d="M20 10V9.5C20 9.0357 20 8.80355 19.9846 8.6077C19.7916 6.15582 17.8442 4.20838 15.3923 4.01541C15.1965 4 14.9643 4 14.5 4H12C9.19974 4 7.79961 4 6.73005 4.54497C5.78924 5.02433 5.02433 5.78924 4.54497 6.73005C4 7.79961 4 9.19974 4 12C4 14.8003 4 16.2004 4.54497 17.27C5.02433 18.2108 5.78924 18.9757 6.73005 19.455C7.79961 20 9.19974 20 12 20H14.5C14.9643 20 15.1965 20 15.3923 19.9846C17.8442 19.7916 19.7916 17.8442 19.9846 15.3923C20 15.1965 20 14.9643 20 14.5V14M12 9V12L14 13.5M16 4L15.8335 3.37548C15.6067 2.52511 15.4933 2.09992 15.2512 1.78381C15.0375 1.50485 14.7541 1.28711 14.4295 1.15252C14.0616 1 13.6216 1 12.7415 1H11.2585C10.3784 1 9.93836 1 9.57053 1.15252C9.24593 1.28711 8.96251 1.50485 8.74883 1.78381C8.50669 2.09992 8.3933 2.52511 8.16654 3.37548L8 4M16 20L15.8335 20.6245C15.6067 21.4749 15.4933 21.9001 15.2512 22.2162C15.0375 22.4952 14.7541 22.7129 14.4295 22.8475C14.0616 23 13.6216 23 12.7415 23H11.2585C10.3784 23 9.93836 23 9.57053 22.8475C9.24593 22.7129 8.96251 22.4952 8.74883 22.2162C8.50669 21.9001 8.3933 21.4749 8.16654 20.6245L8 20" stroke="currentColor" stroke-width={1.5} stroke-linecap="round" stroke-linejoin="round" />
</svg>