<svg xmlns="http://www.w3.org/2000/svg" width="24" height="24" viewBox="0 0 24 24" fill="none">
<path fill-rule="evenodd" clip-rule="evenodd" d="M12.0002 1.25C7.16769 1.25 3.25018 5.16751 3.25018 10C3.25018 14.8325 7.16769 18.75 12.0002 18.75C16.8327 18.75 20.7502 14.8325 20.7502 10C20.7502 5.16751 16.8327 1.25 12.0002 1.25ZM12.0002 12C13.1047 12 14.0002 11.1046 14.0002 10C14.0002 8.89543 13.1048 8 12.0002 8C10.8956 8 10.0002 8.89543 10.0002 10C10.0002 11.1046 10.8956 12 12.0002 12Z" fill="currentColor" /><path d="M5.80875 18.1695C5.62906 18.0331 5.53922 17.9649 5.4634 17.9388C5.30241 17.8834 5.14681 17.9064 5.00864 18.0058C4.94357 18.0527 4.88261 18.1365 4.7607 18.3041C3.96998 19.3914 3.57463 19.935 3.49058 20.3738C3.31871 21.2712 3.77691 22.171 4.60379 22.5599C5.0081 22.75 5.68028 22.75 7.02463 22.75H16.9757C18.3201 22.75 18.9922 22.75 19.3965 22.5599C20.2234 22.171 20.6816 21.2712 20.5098 20.3738C20.4257 19.935 20.0304 19.3914 19.2397 18.3041C19.1177 18.1365 19.0568 18.0527 18.9917 18.0059C18.8535 17.9064 18.6979 17.8834 18.5369 17.9388C18.4611 17.9649 18.3713 18.0331 18.1916 18.1695C16.4715 19.4751 14.3263 20.25 12.0002 20.25C9.67405 20.25 7.5289 19.4751 5.80875 18.1695Z" fill="currentColor" />
</svg>