<svg xmlns="http://www.w3.org/2000/svg" width="24" height="24" viewBox="0 0 24 24" fill="none">
<path d="M1.46964 1.46973C1.76252 1.17697 2.23733 1.17693 2.53019 1.46973L22.5302 21.4697L22.5819 21.5264C22.8222 21.8209 22.8047 22.2557 22.5302 22.5303C22.2556 22.8049 21.8209 22.8223 21.5263 22.582L21.4696 22.5303L19.7021 20.7627C19.6057 21.1577 19.401 21.5463 19.0536 21.9072C18.5684 22.4113 17.8836 22.5878 17.1483 22.6689C16.4126 22.7501 15.4478 22.75 14.247 22.75L9.75284 22.75C8.55204 22.75 7.58718 22.7501 6.85147 22.6689C6.11626 22.5878 5.43146 22.4113 4.9462 21.9072C4.36202 21.3002 4.12053 20.6341 4.21182 19.9385C4.29476 19.3074 4.64152 18.7604 4.95596 18.3311C5.08643 18.1529 5.22723 17.9751 5.35928 17.8086C7.14804 19.3313 9.46674 20.25 11.9999 20.25C14.047 20.25 15.9522 19.6472 17.5526 18.6133L16.4657 17.5264C15.1584 18.3038 13.6313 18.75 11.9999 18.75C9.77149 18.75 7.73716 17.9175 6.19229 16.5459C4.3881 14.944 3.24991 12.6044 3.24991 10C3.24994 8.36971 3.69612 6.84179 4.47354 5.53418L1.46964 2.53027C1.17681 2.23738 1.17677 1.7626 1.46964 1.46973ZM11.9999 1.25C16.8323 1.25003 20.7498 5.16763 20.7499 10C20.7499 11.5925 20.3239 13.0882 19.579 14.376C19.3716 14.7342 18.913 14.8564 18.5546 14.6494C18.1961 14.442 18.0728 13.9826 18.2802 13.624C18.8965 12.5585 19.2499 11.3216 19.2499 10C19.2498 5.99606 16.0039 2.75003 11.9999 2.75C10.6783 2.75 9.44142 3.10343 8.37589 3.71973C8.01742 3.92709 7.55797 3.80465 7.3505 3.44629C7.14323 3.08784 7.26562 2.62835 7.62394 2.4209C8.91168 1.67601 10.4075 1.25 11.9999 1.25ZM12.2812 7.26465C13.6677 7.40555 14.7498 8.57628 14.7499 10C14.7499 10.4142 14.4141 10.75 13.9999 10.75C13.5857 10.75 13.2499 10.4142 13.2499 10C13.2498 9.35294 12.758 8.82094 12.1278 8.75684L11.9999 8.75L11.9228 8.7461C11.5448 8.70747 11.2499 8.38817 11.2499 8C11.25 7.58587 11.5858 7.25 11.9999 7.25L12.2812 7.26465Z" fill="currentColor" />
</svg>