<svg xmlns="http://www.w3.org/2000/svg" width="24" height="24" viewBox="0 0 24 24" fill="none">
<path d="M7 16.2454C8.3696 17.3433 10.1081 18 12 18C13.6983 18 15.2731 17.4708 16.5683 16.5683M7 16.2454C5.17107 14.7793 4 12.5264 4 10C4 8.30167 4.52921 6.72694 5.43173 5.43173M7 16.2454C7 18.0232 3.66801 19.4973 5.48649 21.3869C6.07658 22 7.31796 22 9.80074 22H14.1993C16.682 22 17.9234 22 18.5135 21.3869C19.4758 20.3869 18.8888 19.2208 18.2257 18.2257M18.2257 18.2257L22 22M18.2257 18.2257L16.5683 16.5683M16.5683 16.5683L5.43173 5.43173M18.9297 14C19.6104 12.8233 20 11.4571 20 10C20 5.58172 16.4183 2 12 2C10.5429 2 9.17669 2.38958 8 3.07026M5.43173 5.43173L2 2M12 8C13.1046 8 14 8.89543 14 10" stroke="currentColor" stroke-width={1.5} stroke-linecap="round" stroke-linejoin="round" />
</svg>