<svg xmlns="http://www.w3.org/2000/svg" width="24" height="24" viewBox="0 0 24 24" fill="none">
<path opacity={0.32} d="M11.9997 1.25C16.8322 1.25 20.7497 5.16751 20.7497 10C20.7497 11.5925 20.3237 13.0882 19.5788 14.376C19.3713 14.7342 18.9118 14.8567 18.5534 14.6494C18.1954 14.4419 18.0728 13.9824 18.28 13.624C18.8963 12.5585 19.2497 11.3217 19.2497 10C19.2497 5.99594 16.0037 2.75 11.9997 2.75C10.6781 2.75007 9.44112 3.10344 8.37566 3.71973C8.01725 3.92684 7.5577 3.80452 7.35027 3.44629C7.14311 3.08795 7.26565 2.62843 7.62371 2.4209C8.91137 1.67603 10.4073 1.25007 11.9997 1.25ZM12.2809 7.26465C13.6676 7.40554 14.7497 8.57619 14.7497 10C14.7497 10.4142 14.4139 10.75 13.9997 10.75C13.5857 10.7498 13.2497 10.4141 13.2497 10C13.2497 9.35285 12.7579 8.82093 12.1276 8.75684L11.9997 8.75L11.9225 8.74609C11.5448 8.7073 11.2497 8.38802 11.2497 8C11.2497 7.58592 11.5857 7.25022 11.9997 7.25L12.2809 7.26465Z" fill="currentColor" /><path d="M2.53033 1.46967C2.23744 1.17678 1.76256 1.17678 1.46967 1.46967C1.17678 1.76256 1.17678 2.23744 1.46967 2.53033L4.47376 5.53442C3.69645 6.84198 3.25 8.36963 3.25 9.99983C3.25 12.6043 4.38865 14.9432 6.19285 16.5451C7.73772 17.9168 9.77157 18.7498 12 18.7498C13.6312 18.7498 15.1582 18.3034 16.4655 17.5262L17.5549 18.6156C15.9544 19.6496 14.0473 20.2498 12 20.2498C9.46682 20.2498 7.14827 19.3309 5.35952 17.8082C5.22743 17.9747 5.08674 18.1527 4.95625 18.3309C4.64174 18.7603 4.29501 19.3074 4.21218 19.9386C4.12089 20.6343 4.36192 21.2998 4.9461 21.9068C5.43137 22.411 6.11628 22.5875 6.85158 22.6687C7.58729 22.7499 8.55212 22.7498 9.75293 22.7498L14.2471 22.7498C15.4479 22.7498 16.4127 22.7499 17.1484 22.6687C17.8837 22.5875 18.5686 22.411 19.0539 21.9068C19.401 21.5461 19.6064 21.1581 19.7028 20.7634L21.4697 22.5303C21.7626 22.8232 22.2374 22.8232 22.5303 22.5303C22.8232 22.2374 22.8232 21.7626 22.5303 21.4697L18.8089 17.7483L18.763 17.7022C18.763 17.7022 18.7631 17.7022 18.763 17.7022L17.6997 16.639C17.6996 16.639 17.6997 16.639 17.6997 16.639L5.36088 4.30005C5.36086 4.30008 5.36091 4.30002 5.36088 4.30005L2.53033 1.46967Z" fill="currentColor" />
</svg>