<svg xmlns="http://www.w3.org/2000/svg" width="24" height="24" viewBox="0 0 24 24" fill="none">
<path d="M19.1514 5.25C21.1388 5.25 22.75 6.86121 22.75 8.84863V14.75C22.75 17.55 22.7499 18.95 22.2051 20.0195C21.7257 20.9603 20.9603 21.7257 20.0195 22.2051C18.95 22.7499 17.5499 22.75 14.75 22.75H9.25C6.45006 22.75 5.04998 22.7499 3.98047 22.2051C3.03966 21.7257 2.27429 20.9603 1.79492 20.0195C1.25012 18.95 1.25 17.55 1.25 14.75V8.84863C1.25 6.86121 2.86121 5.25 4.84863 5.25L5.49707 7.51855C5.8536 8.7664 6.03159 9.39039 6.39551 9.85352C6.71674 10.2623 7.13882 10.5808 7.62012 10.7773C8.16538 11 8.81458 11 10.1123 11H13.8877C15.1854 11 15.8346 11 16.3799 10.7773C16.8612 10.5808 17.2833 10.2623 17.6045 9.85352C17.9684 9.39039 18.1464 8.7664 18.5029 7.51855L19.1514 5.25ZM10 16.25C9.58579 16.25 9.25001 16.5858 9.25 17C9.25001 17.4142 9.58579 17.75 10 17.75H14L14.0771 17.7461C14.4551 17.7075 14.75 17.3882 14.75 17C14.75 16.6118 14.4551 16.2925 14.0771 16.2539L14 16.25H10ZM14.752 1.25C16.1921 1.25 16.9125 1.24989 17.3965 1.5498C17.8204 1.81251 18.1305 2.22434 18.2666 2.7041C18.422 3.25188 18.2247 3.94436 17.8291 5.3291L17.2285 7.42871C16.9909 8.26033 16.8723 8.67663 16.6299 8.98535C16.4157 9.25784 16.1343 9.47051 15.8135 9.60156C15.45 9.75002 15.0173 9.75 14.1523 9.75H12.835L13.7275 6.18164C13.8278 5.77988 13.5834 5.3729 13.1816 5.27246C12.7799 5.17216 12.3729 5.4166 12.2725 5.81836L11.29 9.75H9.84766C8.98268 9.75 8.55 9.75002 8.18652 9.60156C7.8657 9.47051 7.58425 9.25784 7.37012 8.98535C7.12767 8.67663 7.00909 8.26034 6.77148 7.42871L6.1709 5.3291C5.77526 3.94436 5.578 3.25188 5.7334 2.7041C5.86953 2.22434 6.17962 1.81251 6.60352 1.5498C7.08754 1.24989 7.80786 1.25 9.24805 1.25H14.752Z" fill="currentColor" />
</svg>