<svg xmlns="http://www.w3.org/2000/svg" width="24" height="24" viewBox="0 0 24 24" fill="none">
<path d="M13.1504 1.25C16.5103 1.25 18.1902 1.25042 19.4736 1.9043C20.6026 2.47954 21.5205 3.39739 22.0957 4.52637C22.7496 5.80977 22.75 7.48965 22.75 10.8496V13.1504C22.75 16.5103 22.7496 18.1902 22.0957 19.4736C21.5205 20.6026 20.6026 21.5205 19.4736 22.0957C18.1902 22.7496 16.5103 22.75 13.1504 22.75H10.8496C7.48965 22.75 5.80977 22.7496 4.52637 22.0957C3.39739 21.5205 2.47954 20.6026 1.9043 19.4736C1.25042 18.1902 1.25 16.5103 1.25 13.1504V10.8496C1.25 7.48965 1.25042 5.80977 1.9043 4.52637C2.47954 3.39739 3.39739 2.47954 4.52637 1.9043C5.80977 1.25042 7.48965 1.25 10.8496 1.25H13.1504ZM10 16.25C9.58579 16.25 9.25 16.5858 9.25 17C9.25 17.4142 9.58579 17.75 10 17.75H14C14.4142 17.75 14.75 17.4142 14.75 17C14.75 16.5858 14.4142 16.25 14 16.25H10ZM12 7C10.1476 7 8.72405 7.51468 7.72949 8.06738C7.35691 8.27444 7.1704 8.37805 6.90234 8.77637C6.72257 9.04359 6.55192 9.64305 6.56348 9.96484C6.58072 10.4446 6.74215 10.7355 7.06543 11.3174L7.08594 11.3545C7.41851 11.9531 7.58473 12.2527 7.82129 12.4707C8.03067 12.6637 8.27945 12.8101 8.5498 12.8994C8.85526 13.0002 9.19796 13 9.88281 13H10.8086L9.34473 10.3643C9.1436 10.0022 9.27378 9.54593 9.63574 9.34473C9.99778 9.1436 10.4541 9.27378 10.6553 9.63574L12.5244 13H14.1172C14.802 13 15.1447 13.0002 15.4502 12.8994C15.7205 12.8101 15.9693 12.6637 16.1787 12.4707C16.4153 12.2527 16.5815 11.9531 16.9141 11.3545L16.9346 11.3174C17.2578 10.7355 17.4193 10.4446 17.4365 9.96484C17.4481 9.64306 17.2774 9.0436 17.0977 8.77637C16.8296 8.37805 16.6431 8.27444 16.2705 8.06738C15.276 7.51468 13.8524 7 12 7Z" fill="currentColor" />
</svg>