<svg xmlns="http://www.w3.org/2000/svg" width="24" height="24" viewBox="0 0 24 24" fill="none">
<path d="M17 6C17.9293 6 18.394 6 18.7804 6.07686C20.3671 6.39249 21.6075 7.63288 21.9231 9.21964C22 9.60603 22 10.0707 22 11V14.5C22 16.8297 22 17.9946 21.6194 18.9134C21.1119 20.1386 20.1386 21.1119 18.9134 21.6194C17.9946 22 16.8297 22 14.5 22H14M7 6C6.07069 6 5.60603 6 5.21964 6.07686C3.63288 6.39249 2.39249 7.63288 2.07686 9.21964C2 9.60603 2 10.0707 2 11V14.5C2 16.8297 2 17.9946 2.3806 18.9134C2.88807 20.1386 3.86144 21.1119 5.08658 21.6194C6.00544 22 7.17029 22 9.5 22H10M12 10L13 6M10 17H14M10.4985 10H13.5015C14.3949 10 14.8415 10 15.2131 9.84387C15.541 9.70612 15.8262 9.48343 16.0394 9.19876C16.281 8.87611 16.3893 8.44278 16.606 7.57612L17.006 5.97611C17.3448 4.6208 17.5142 3.94314 17.3493 3.40943C17.2047 2.94166 16.8936 2.54317 16.4748 2.28947C15.9971 2 15.2985 2 13.9015 2H10.0985C8.70145 2 8.00294 2 7.52517 2.28947C7.10644 2.54317 6.79531 2.94166 6.65073 3.40943C6.48578 3.94314 6.6552 4.62079 6.99403 5.97611L7.39403 7.57611C7.61069 8.44278 7.71903 8.87611 7.96062 9.19876C8.17378 9.48343 8.459 9.70612 8.78687 9.84387C9.15848 10 9.60515 10 10.4985 10Z" stroke="currentColor" stroke-width={1.5} stroke-linecap="round" />
</svg>