<svg xmlns="http://www.w3.org/2000/svg" width="24" height="24" viewBox="0 0 24 24" fill="none">
<path d="M12.7998 4.41315e-06C13.3434 4.41315e-06 13.8116 -0.00106928 14.1953 0.0302779C14.5906 0.0625887 14.984 0.134402 15.3623 0.327153C15.9265 0.614726 16.3853 1.07348 16.6729 1.6377C16.8656 2.01599 16.9374 2.40944 16.9697 2.80469C17.0011 3.18836 17 3.65665 17 4.2002V4.62891C19.845 6.33185 21.75 9.44315 21.75 13C21.75 18.3848 17.3848 22.75 12 22.75C6.61522 22.75 2.25 18.3848 2.25 13C2.25 9.44315 4.15503 6.33185 7 4.62891V4.2002C7 3.65665 6.99893 3.18836 7.03027 2.80469C7.06258 2.40944 7.1344 2.016 7.32715 1.6377C7.61472 1.07348 8.07347 0.614726 8.6377 0.327153C9.01599 0.134402 9.40943 0.0625887 9.80469 0.0302779C10.1884 -0.00106928 10.6566 4.41315e-06 11.2002 4.41315e-06H12.7998ZM8 13C7.44772 13 7 13.4477 7 14C7 16.7614 9.23858 19 12 19C12.5523 19 13 18.5523 13 18C13 17.4477 12.5523 17 12 17C10.3431 17 9 15.6569 9 14C9 13.4477 8.55228 13 8 13ZM11.2002 2C10.6236 2 10.2511 2.00127 9.96777 2.02442C9.69619 2.04661 9.59534 2.08419 9.5459 2.10938C9.35793 2.20522 9.20521 2.35793 9.10938 2.5459C9.08419 2.59534 9.04661 2.6962 9.02441 2.96778C9.00842 3.16355 9.00385 3.4019 9.00195 3.72071C9.94657 3.41574 10.9539 3.25 12 3.25C13.0458 3.25 14.0527 3.41592 14.9971 3.72071C14.9952 3.40191 14.9916 3.16354 14.9756 2.96778C14.9534 2.6962 14.9158 2.59534 14.8906 2.5459C14.7948 2.35793 14.6421 2.20522 14.4541 2.10938C14.4047 2.08419 14.3038 2.04661 14.0322 2.02442C13.7489 2.00127 13.3764 2 12.7998 2H11.2002Z" fill="currentColor" />
</svg>