<svg xmlns="http://www.w3.org/2000/svg" width="24" height="24" viewBox="0 0 24 24" fill="none">
<path d="M12 1.25C17.9371 1.25 22.75 6.06294 22.75 12C22.75 17.9371 17.9371 22.75 12 22.75C10.786 22.75 9.72205 22.5769 8.72363 22.2197C7.83033 21.9002 7.46398 21.7701 7.35352 21.7441C6.24919 21.4847 5.24153 22.4804 4.19336 22.6553C3.0689 22.8426 2.06787 21.9223 2.16113 20.7861C2.21595 20.1187 2.60594 19.6105 2.78418 18.9902C3.03681 18.1103 2.60277 17.293 2.24121 16.5127C1.60516 15.1397 1.25 13.6102 1.25 12C1.25 6.06294 6.06294 1.25 12 1.25ZM8.48535 7.22461C8.37629 7.22461 8.26727 7.2793 8.1582 7.2793L8.10352 7.33301C7.99461 7.38695 7.88527 7.49407 7.77637 7.54785C7.6674 7.65564 7.61288 7.7633 7.50391 7.87109C7.12247 8.35582 6.90533 8.94858 6.90527 9.54102C6.90527 9.9719 7.01422 10.4032 7.17773 10.7803L7.23145 10.9414C7.72186 11.9647 8.37616 12.8806 9.24805 13.6885L9.46582 13.9043C9.62923 14.0659 9.79336 14.1735 9.90234 14.335C11.0468 15.3046 12.3548 16.0048 13.8262 16.3818C13.9897 16.4356 14.2076 16.4364 14.3711 16.4902H14.916C15.1885 16.4902 15.5154 16.3821 15.7334 16.2744C15.8968 16.1668 16.0053 16.1663 16.1143 16.0586L16.2236 15.9512C16.3326 15.8434 16.4418 15.7894 16.5508 15.6816C16.6597 15.574 16.7687 15.4661 16.8232 15.3584C16.9321 15.143 16.9865 14.8737 17.041 14.6045V14.2275C17.0383 14.2249 16.9839 14.1725 16.8779 14.1201L16.2783 13.8506C16.2783 13.8506 15.4063 13.4734 14.8613 13.2041C14.8069 13.2041 14.7526 13.1507 14.6982 13.1504C14.5348 13.1504 14.4254 13.2039 14.3164 13.2578C14.3164 13.2578 14.262 13.312 13.499 14.1738C13.4445 14.2814 13.3355 14.3349 13.2266 14.335H13.1719C13.1174 14.3349 13.0087 14.2813 12.9541 14.2275L12.6816 14.1201C12.0822 13.8508 11.5366 13.5276 11.1006 13.0967C10.9917 12.989 10.8287 12.8811 10.7197 12.7734C10.3383 12.3964 9.95698 11.9652 9.68457 11.4805L9.62988 11.373C9.57543 11.3191 9.57504 11.2649 9.52051 11.1572C9.52051 11.0495 9.52066 10.9416 9.5752 10.8877C9.58042 10.8812 9.79559 10.6166 9.95703 10.457C10.066 10.3492 10.1206 10.1877 10.2295 10.0801C10.3384 9.91847 10.3924 9.70261 10.3379 9.54102C10.2831 9.27103 9.62921 7.81721 9.46582 7.49414C9.35686 7.33281 9.24831 7.27846 9.08496 7.22461H8.48535Z" fill="currentColor" />
</svg>