<svg xmlns="http://www.w3.org/2000/svg" width="24" height="24" viewBox="0 0 24 24" fill="none">
<path d="M9.08496 7.22461C9.24831 7.27846 9.35686 7.33281 9.46582 7.49414C9.62921 7.81721 10.2831 9.27103 10.3379 9.54102C10.3924 9.70261 10.3384 9.91847 10.2295 10.0801C10.1206 10.1877 10.066 10.3492 9.95703 10.457C9.79559 10.6166 9.58042 10.8812 9.5752 10.8877C9.52066 10.9416 9.52051 11.0495 9.52051 11.1572C9.57504 11.2649 9.57543 11.3191 9.62988 11.373L9.68457 11.4805C9.95698 11.9652 10.3383 12.3964 10.7197 12.7734C10.8287 12.8811 10.9917 12.989 11.1006 13.0967C11.5366 13.5276 12.0822 13.8508 12.6816 14.1201L12.9541 14.2275C13.0087 14.2813 13.1174 14.3349 13.1719 14.335H13.2266C13.3355 14.3349 13.4445 14.2814 13.499 14.1738C14.262 13.312 14.3164 13.2578 14.3164 13.2578C14.4254 13.2039 14.5348 13.1504 14.6982 13.1504C14.7526 13.1507 14.8069 13.2041 14.8613 13.2041C15.4063 13.4734 16.2783 13.8506 16.2783 13.8506L16.8779 14.1201C16.9839 14.1725 17.0383 14.2249 17.041 14.2275V14.6045C16.9865 14.8737 16.9321 15.143 16.8232 15.3584C16.7687 15.4661 16.6597 15.574 16.5508 15.6816C16.4418 15.7894 16.3326 15.8434 16.2236 15.9512L16.1143 16.0586C16.0053 16.1663 15.8968 16.1668 15.7334 16.2744C15.5154 16.3821 15.1885 16.4902 14.916 16.4902H14.3711C14.2076 16.4364 13.9897 16.4356 13.8262 16.3818C12.3548 16.0048 11.0468 15.3046 9.90234 14.335C9.79336 14.1735 9.62923 14.0659 9.46582 13.9043L9.24805 13.6885C8.37616 12.8806 7.72186 11.9647 7.23145 10.9414L7.17773 10.7803C7.01422 10.4032 6.90527 9.9719 6.90527 9.54102C6.90533 8.94858 7.12247 8.35582 7.50391 7.87109C7.61288 7.7633 7.6674 7.65564 7.77637 7.54785C7.88527 7.49407 7.99461 7.38695 8.10352 7.33301L8.1582 7.2793C8.26727 7.2793 8.37629 7.22461 8.48535 7.22461H9.08496Z" fill="currentColor" /><path fill-rule="evenodd" clip-rule="evenodd" d="M12 1.25C17.9371 1.25 22.75 6.06294 22.75 12C22.75 17.9371 17.9371 22.75 12 22.75C10.786 22.75 9.72205 22.5769 8.72363 22.2197C7.83033 21.9002 7.46398 21.7701 7.35352 21.7441C6.8215 21.6191 6.46588 21.7249 6.04102 21.9268C5.63444 22.12 4.98496 22.5233 4.19336 22.6553C3.0689 22.8426 2.06787 21.9223 2.16113 20.7861C2.19589 20.3629 2.35523 19.9843 2.48145 19.7051C2.62585 19.3856 2.72563 19.194 2.78418 18.9902C3.01942 18.1711 2.73361 17.5756 2.24121 16.5127C1.60516 15.1397 1.25 13.6102 1.25 12C1.25 6.06294 6.06294 1.25 12 1.25ZM12 2.75C6.89137 2.75 2.75 6.89137 2.75 12C2.75 13.3877 3.0552 14.7023 3.60156 15.8818C4.04279 16.8343 4.64145 17.9582 4.22559 19.4053C4.12747 19.7466 3.95132 20.0961 3.84863 20.3232C3.72779 20.5906 3.66811 20.7648 3.65625 20.9092C3.64314 21.0713 3.78578 21.2025 3.94629 21.1758C4.46273 21.0897 4.78273 20.8644 5.39746 20.5723C5.99377 20.2889 6.71177 20.0524 7.69727 20.2842C7.91579 20.3356 8.40714 20.5128 9.22852 20.8066C10.0446 21.0986 10.9353 21.25 12 21.25C17.1086 21.25 21.25 17.1086 21.25 12C21.25 6.89137 17.1086 2.75 12 2.75Z" fill="currentColor" />
</svg>