<svg xmlns="http://www.w3.org/2000/svg" width="24" height="24" viewBox="0 0 24 24" fill="none">
<path d="M9.5 2L9 2C8.07116 2 7.60674 2 7.21684 2.05133C4.52444 2.40579 2.40579 4.52444 2.05133 7.21684C2 7.60674 2 8.07116 2 9L2 12.4C2 15.7603 2 17.4405 2.65396 18.7239C3.2292 19.8529 4.14709 20.7708 5.27606 21.346C6.55953 22 8.23969 22 11.6 22H12.4C15.7603 22 17.4405 22 18.7239 21.346C19.8529 20.7708 20.7708 19.8529 21.346 18.7239C22 17.4405 22 15.7603 22 12.4V9C22 8.07116 22 7.60674 21.9487 7.21684C21.5942 4.52444 19.4756 2.40579 16.7832 2.05133C16.3933 2 15.9288 2 15 2L14.5 2M12.5 5C12.5 5.27614 12.2761 5.5 12 5.5C11.7239 5.5 11.5 5.27614 11.5 5M12.5 5C12.5 4.72386 12.2761 4.5 12 4.5C11.7239 4.5 11.5 4.72386 11.5 5M12.5 5H11.5M18 17H17.3333C17.2364 17 17.1879 17 17.147 16.9973C16.5328 16.9562 16.0438 16.4672 16.0027 15.853C16 15.8121 16 15.7636 16 15.6667V14.9663C16 14.278 16 13.9339 15.8661 13.671C15.7482 13.4398 15.5602 13.2518 15.329 13.1339C15.0661 13 14.722 13 14.0337 13H13.9663C13.278 13 12.9339 13 12.671 12.8661C12.4398 12.7482 12.2518 12.5602 12.1339 12.329C12 12.0661 12 11.722 12 11.0337V10.0769V8C12 9.10457 12.8954 10 14 10H15M9 9.12988C7.27477 9.57393 6 11.14 6 13.0039C6 15.213 7.79086 17.0039 10 17.0039C11.0144 17.0039 11.9407 16.6262 12.6458 16.0039" stroke="currentColor" stroke-width={2} stroke-linecap="round" stroke-linejoin="round" />
</svg>