<svg xmlns="http://www.w3.org/2000/svg" width="24" height="24" viewBox="0 0 24 24" fill="none">
<path d="M13.1504 1.25C16.5103 1.25 18.1902 1.25042 19.4736 1.9043C20.6026 2.47954 21.5205 3.39739 22.0957 4.52637C22.7496 5.80977 22.75 7.48965 22.75 10.8496V13.1504C22.75 16.5103 22.7496 18.1902 22.0957 19.4736C21.5205 20.6026 20.6026 21.5205 19.4736 22.0957C18.1902 22.7496 16.5103 22.75 13.1504 22.75H10.8496C7.48965 22.75 5.80977 22.7496 4.52637 22.0957C3.39739 21.5205 2.47954 20.6026 1.9043 19.4736C1.25042 18.1902 1.25 16.5103 1.25 13.1504V10.8496C1.25 7.48965 1.25042 5.80977 1.9043 4.52637C2.47954 3.39739 3.39739 2.47954 4.52637 1.9043C5.80977 1.25042 7.48965 1.25 10.8496 1.25H13.1504ZM9.96875 8.88086C9.83111 8.34611 9.28574 8.02367 8.75098 8.16113C6.59466 8.71613 5 10.6727 5 13.0039C5.00002 15.7653 7.23859 18.0039 10 18.0039C11.2673 18.0039 12.4268 17.5313 13.3076 16.7539C13.7217 16.3884 13.761 15.7559 13.3955 15.3418C13.0301 14.928 12.3984 14.8888 11.9844 15.2539C11.4549 15.7212 10.7615 16.0039 10 16.0039C8.34316 16.0039 7.00002 14.6607 7 13.0039C7 11.6075 7.95504 10.4318 9.24902 10.0986C9.78378 9.961 10.1062 9.41562 9.96875 8.88086ZM12 7C11.4477 7 11 7.44772 11 8V11.0342C11 11.3615 10.9997 11.667 11.0205 11.9219C11.0423 12.1886 11.0924 12.4873 11.2432 12.7832C11.4568 13.2024 11.7976 13.5432 12.2168 13.7568C12.5127 13.9076 12.8114 13.9577 13.0781 13.9795C13.333 14.0003 13.6385 14 13.9658 14H14.0342C14.3945 14 14.6051 14.001 14.7598 14.0137C14.8275 14.0192 14.8644 14.0256 14.8809 14.0293C14.9185 14.05 14.9488 14.0806 14.9697 14.1182C14.9733 14.134 14.9806 14.1708 14.9863 14.2402C14.999 14.3949 15 14.6055 15 14.9658V15.667C15 15.7477 14.9994 15.8374 15.0049 15.9199C15.0794 17.0336 15.9664 17.9206 17.0801 17.9951C17.1626 18.0006 17.2523 18 17.333 18H18C18.5523 18 19 17.5523 19 17C19 16.4477 18.5523 16 18 16H17.2305C17.2221 15.9999 17.2168 15.9991 17.2139 15.999C17.0995 15.9914 17.0086 15.9005 17.001 15.7861C17.0009 15.7832 17.0001 15.7779 17 15.7695V14.9658C17 14.6385 17.0003 14.333 16.9795 14.0781C16.9577 13.8114 16.9076 13.5127 16.7568 13.2168C16.5699 12.85 16.2856 12.5432 15.9365 12.3291L15.7832 12.2432L15.6719 12.1914C15.4129 12.0805 15.1553 12.0396 14.9219 12.0205C14.667 11.9997 14.3615 12 14.0342 12H13.9658C13.6055 12 13.3949 11.999 13.2402 11.9863C13.1708 11.9806 13.134 11.9733 13.1182 11.9697C13.0806 11.9488 13.05 11.9185 13.0293 11.8809C13.0256 11.8644 13.0192 11.8275 13.0137 11.7598C13.001 11.6051 13 11.3945 13 11.0342V10.8252C13.3131 10.936 13.6489 11 14 11H15C15.5523 11 16 10.5523 16 10C16 9.44771 15.5523 9 15 9H14C13.4823 9 13.0562 8.60667 13.0049 8.10254L12.9951 7.89746C12.9438 7.39333 12.5177 7 12 7ZM12 3.5C11.1716 3.5 10.5 4.17157 10.5 5C10.5 5.82843 11.1716 6.5 12 6.5C12.8284 6.5 13.5 5.82843 13.5 5C13.5 4.17157 12.8284 3.5 12 3.5Z" fill="currentColor" />
</svg>