<svg xmlns="http://www.w3.org/2000/svg" width="24" height="24" viewBox="0 0 24 24" fill="none">
<path d="M9.5 2L9 2C8.07116 2 7.60674 2 7.21684 2.05133C4.52444 2.40579 2.40579 4.52444 2.05133 7.21684C2 7.60674 2 8.07116 2 9L2 12.4C2 15.7603 2 17.4405 2.65396 18.7239C3.2292 19.8529 4.14709 20.7708 5.27606 21.346C6.55953 22 8.23969 22 11.6 22H12.4C15.7603 22 17.4405 22 18.7239 21.346C19.8529 20.7708 20.7708 19.8529 21.346 18.7239C22 17.4405 22 15.7603 22 12.4V9C22 8.07116 22 7.60674 21.9487 7.21684C21.5942 4.52444 19.4756 2.40579 16.7832 2.05133C16.3933 2 15.9288 2 15 2L14.5 2M5 10C5.81667 9.13249 6.80101 8.41724 7.903 7.903M19 10C17.2641 8.15603 14.7706 7 12 7C11.6623 7 11.3286 7.01718 11 7.05069M9.5 14C10.3077 13.3764 10.8553 13 12 13C12.4806 13 12.856 13.0664 13.1895 13.1895M17 12C16.0411 11.0894 14.8379 10.4377 13.5 10.1557M7 12C7.89161 11.1533 8.99452 10.5304 10.2205 10.2205M6 6L7.903 7.903M17 17L13.1895 13.1895M13.1895 13.1895L10.2205 10.2205M10.2205 10.2205L7.903 7.903M12.5 16.5C12.5 16.7761 12.2761 17 12 17C11.7239 17 11.5 16.7761 11.5 16.5M12.5 16.5C12.5 16.2239 12.2761 16 12 16C11.7239 16 11.5 16.2239 11.5 16.5M12.5 16.5H11.5" stroke="currentColor" stroke-width={2} stroke-linecap="round" stroke-linejoin="round" />
</svg>