<svg xmlns="http://www.w3.org/2000/svg" width="24" height="24" viewBox="0 0 24 24" fill="none">
<path d="M13.1504 1.25C16.5103 1.25 18.1902 1.25042 19.4736 1.9043C20.6026 2.47954 21.5205 3.39739 22.0957 4.52637C22.7496 5.80977 22.75 7.48965 22.75 10.8496V13.1504C22.75 16.5103 22.7496 18.1902 22.0957 19.4736C21.5205 20.6026 20.6026 21.5205 19.4736 22.0957C18.1902 22.7496 16.5103 22.75 13.1504 22.75H10.8496C7.48965 22.75 5.80977 22.7496 4.52637 22.0957C3.39739 21.5205 2.47954 20.6026 1.9043 19.4736C1.25042 18.1902 1.25 16.5103 1.25 13.1504V10.8496C1.25 7.48965 1.25042 5.80977 1.9043 4.52637C2.47954 3.39739 3.39739 2.47954 4.52637 1.9043C5.80977 1.25042 7.48965 1.25 10.8496 1.25H13.1504ZM12 15C11.1716 15 10.5 15.6716 10.5 16.5C10.5 17.3284 11.1716 18 12 18C12.8284 18 13.5 17.3284 13.5 16.5C13.5 15.6716 12.8284 15 12 15ZM12 12C11.3062 12 10.7396 12.1162 10.2119 12.3545C9.71103 12.5807 9.28759 12.9 8.88867 13.208C8.45155 13.5455 8.37057 14.1742 8.70801 14.6113C9.0455 15.0485 9.67418 15.1294 10.1113 14.792C10.52 14.4765 10.7742 14.2956 11.0352 14.1777C11.2693 14.072 11.5491 14 12 14C12.4509 14 12.7307 14.072 12.9648 14.1777C13.1605 14.2661 13.3523 14.3898 13.6084 14.5791L13.8887 14.792L13.9727 14.8496C14.4031 15.1175 14.9755 15.0213 15.292 14.6113C15.6083 14.2015 15.5563 13.6241 15.1885 13.2754L15.1113 13.208L14.8066 12.9766C14.4958 12.7462 14.1637 12.5242 13.7881 12.3545C13.2604 12.1162 12.6938 12 12 12ZM12 9C9.79763 9 7.7949 9.86587 6.31152 11.2744C5.91115 11.6546 5.8944 12.288 6.27441 12.6885C6.65463 13.0889 7.28798 13.1056 7.68848 12.7256C8.81677 11.6541 10.3324 11 12 11C13.5635 11 14.9934 11.5745 16.0957 12.5293L16.3115 12.7256L16.3887 12.792C16.7896 13.1022 17.369 13.064 17.7256 12.6885C18.1056 12.288 18.0889 11.6546 17.6885 11.2744C16.2051 9.86587 14.2024 9 12 9ZM12 6C8.94668 6 6.19149 7.27491 4.27148 9.31445C3.89306 9.71659 3.91237 10.35 4.31445 10.7285C4.71659 11.1069 5.35 11.0876 5.72852 10.6855C7.28029 9.03723 9.51215 8 12 8C14.3324 8 16.4397 8.91169 17.9727 10.3838L18.2715 10.6855L18.3457 10.7568C18.7286 11.0887 19.3086 11.0832 19.6855 10.7285C20.0625 10.3737 20.1031 9.79483 19.7949 9.39258L19.7285 9.31445L19.3584 8.94141C17.4625 7.12076 14.8625 6 12 6Z" fill="currentColor" />
</svg>