<svg xmlns="http://www.w3.org/2000/svg" width="24" height="24" viewBox="0 0 24 24" fill="none">
<path d="M13.1504 1.25C16.5103 1.25 18.1902 1.25042 19.4736 1.9043C20.6026 2.47954 21.5205 3.39739 22.0957 4.52637C22.7496 5.80977 22.75 7.48965 22.75 10.8496V13.1504C22.75 16.5103 22.7496 18.1902 22.0957 19.4736C21.5205 20.6026 20.6026 21.5205 19.4736 22.0957C18.1902 22.7496 16.5103 22.75 13.1504 22.75H10.8496C7.48965 22.75 5.80977 22.7496 4.52637 22.0957C3.39739 21.5205 2.47954 20.6026 1.9043 19.4736C1.25042 18.1902 1.25 16.5103 1.25 13.1504V10.8496C1.25 7.48965 1.25042 5.80977 1.9043 4.52637C2.47954 3.39739 3.39739 2.47954 4.52637 1.9043C5.80977 1.25042 7.48965 1.25 10.8496 1.25H13.1504ZM12 15C11.1716 15 10.5 15.6716 10.5 16.5C10.5 17.3284 11.1716 18 12 18C12.8284 18 13.5 17.3284 13.5 16.5C13.5 15.6716 12.8284 15 12 15ZM6.70703 5.29297C6.31651 4.90244 5.68349 4.90244 5.29297 5.29297C4.92685 5.65908 4.90426 6.23809 5.22461 6.63086L5.29297 6.70703L6.25684 7.6709C5.52733 8.13754 4.85976 8.68955 4.27148 9.31445C3.89306 9.71659 3.91237 10.35 4.31445 10.7285C4.71659 11.1069 5.35 11.0876 5.72852 10.6855C6.3036 10.0747 6.97246 9.54826 7.71289 9.12695L8.4082 9.82227C7.63458 10.1972 6.92809 10.689 6.31152 11.2744C5.91115 11.6546 5.8944 12.288 6.27441 12.6885C6.65463 13.0889 7.28798 13.1056 7.68848 12.7256C8.32815 12.1181 9.09316 11.6473 9.9375 11.3516L10.7461 12.1602C10.5619 12.2122 10.3847 12.2765 10.2119 12.3545C9.71103 12.5807 9.28759 12.9 8.88867 13.208C8.45155 13.5455 8.37057 14.1742 8.70801 14.6113C9.0455 15.0485 9.67418 15.1294 10.1113 14.792C10.52 14.4765 10.7742 14.2956 11.0352 14.1777C11.2693 14.072 11.5491 14 12 14C12.2759 14 12.4851 14.028 12.6572 14.0713L16.293 17.707L16.3691 17.7754C16.7619 18.0957 17.3409 18.0731 17.707 17.707C18.0731 17.3409 18.0957 16.7619 17.7754 16.3691L17.707 16.293L6.70703 5.29297ZM13.7061 9.17676C13.1658 9.06304 12.6355 9.40902 12.5215 9.94922C12.4147 10.4558 12.7116 10.9542 13.1943 11.1084L13.2939 11.1338L13.5078 11.1836C14.4313 11.4128 15.2764 11.8479 15.9912 12.4404L16.3115 12.7256L16.3887 12.792C16.7896 13.1022 17.369 13.064 17.7256 12.6885C18.1056 12.288 18.0889 11.6546 17.6885 11.2744C16.5997 10.2406 15.2306 9.49813 13.7061 9.17676ZM12 6C11.6283 6 11.2607 6.01872 10.8984 6.05566C10.3491 6.11174 9.94886 6.60294 10.0049 7.15234C10.061 7.70168 10.5522 8.10191 11.1016 8.0459C11.3965 8.01583 11.6962 8 12 8C14.3324 8 16.4397 8.91169 17.9727 10.3838L18.2715 10.6855L18.3457 10.7568C18.7286 11.0887 19.3086 11.0832 19.6855 10.7285C20.0625 10.3737 20.1031 9.79483 19.7949 9.39258L19.7285 9.31445L19.3584 8.94141C17.4625 7.12076 14.8625 6 12 6Z" fill="currentColor" />
</svg>