<svg xmlns="http://www.w3.org/2000/svg" width="24" height="24" viewBox="0 0 24 24" fill="none">
<path d="M1.67969 10.5398C4.23895 7.74938 7.91513 6 11.9999 6C13.0297 6 14.0335 6.11118 15 6.3222M18 7.34731C19.6409 8.12685 21.1062 9.21621 22.3201 10.5398M18.8533 12.7177C17.0634 11.0326 14.6522 10 11.9999 10C11.315 10 10.6462 10.0689 10 10.2M5.14648 12.7177C5.70724 12.1898 6.32898 11.7259 7 11.3378M15.8912 15.4329C14.8435 14.5394 13.4846 14 11.9998 14C10.5149 14 9.15606 14.5394 8.1084 15.4329M12.5 18C12.5 18.2761 12.2761 18.5 12 18.5C11.7239 18.5 11.5 18.2761 11.5 18M12.5 18C12.5 17.7239 12.2761 17.5 12 17.5C11.7239 17.5 11.5 17.7239 11.5 18M12.5 18H11.5" stroke="currentColor" stroke-width={2} stroke-linecap="round" stroke-linejoin="round" />
</svg>