<svg xmlns="http://www.w3.org/2000/svg" width="24" height="24" viewBox="0 0 24 24" fill="none">
<path d="M22.75 16.4612C22.75 17.392 22.7498 18.1391 22.6982 18.7376C22.6454 19.3508 22.5337 19.887 22.2617 20.3665C21.8333 21.1218 21.1562 21.7053 20.3457 22.0169C19.8313 22.2146 19.2851 22.245 18.6709 22.2063C18.0713 22.1685 17.3319 22.0583 16.4111 21.9202L11.25 21.1458V12.7503H22.75V16.4612ZM9.75 12.7503V20.9212L5.94727 20.3509C5.24688 20.2458 4.67936 20.1599 4.2207 20.055C3.74659 19.9464 3.33432 19.8062 2.95898 19.5628C2.35851 19.1732 1.8821 18.6196 1.58594 17.968C1.4008 17.5607 1.32313 17.1318 1.28613 16.6468C1.25037 16.1776 1.24999 15.6039 1.25 14.8958V12.7503H9.75ZM18.6709 1.79323C19.285 1.75457 19.8313 1.78495 20.3457 1.98269C21.1562 2.29425 21.8333 2.87787 22.2617 3.63308C22.5337 4.1126 22.6454 4.64871 22.6982 5.26198C22.7498 5.8606 22.75 6.60824 22.75 7.53933V11.2503H11.25V2.85378L16.4111 2.07937C17.3319 1.94125 18.0713 1.83101 18.6709 1.79323ZM9.75 11.2503H1.25V9.10378C1.24999 8.39564 1.25036 7.82192 1.28613 7.3528C1.32313 6.86774 1.4008 6.43889 1.58594 6.03152C1.88206 5.38009 2.3587 4.82725 2.95898 4.43777C3.33435 4.19426 3.74655 4.05314 4.2207 3.9446C4.67933 3.83963 5.24693 3.75472 5.94727 3.64968L9.75 3.07839V11.2503Z" fill="currentColor" />
</svg>