<svg xmlns="http://www.w3.org/2000/svg" width="24" height="24" viewBox="0 0 24 24" fill="none">
<path d="M14.75 1.25C17.55 1.25 18.95 1.25014 20.0195 1.79493C20.9603 2.27429 21.7257 3.03966 22.2051 3.98047C22.7499 5.04999 22.75 6.45005 22.75 9.25L22.75 14.75C22.75 17.55 22.7499 18.95 22.2051 20.0195C21.7257 20.9603 20.9603 21.7257 20.0195 22.2051C18.95 22.7499 17.5499 22.75 14.75 22.75L9.25 22.75C6.45004 22.75 5.04998 22.7499 3.98047 22.2051C3.03965 21.7257 2.27429 20.9603 1.79492 20.0195C1.25013 18.95 1.25 17.55 1.25 14.75L1.25 9.25C1.25 6.45005 1.25013 5.04998 1.79492 3.98047C2.27429 3.03966 3.03966 2.27429 3.98047 1.79492C5.04998 1.25013 6.45005 1.25 9.25 1.25L14.75 1.25ZM6 10.75C5.58579 10.75 5.25 11.0858 5.25 11.5C5.25 11.9142 5.58579 12.25 6 12.25L16.2705 12.25C17.3619 12.2541 18.2459 13.1381 18.25 14.2295L18.25 14.2705C18.2459 15.3619 17.3619 16.2459 16.2705 16.25L13.8105 16.25L14.5303 15.5303C14.8232 15.2374 14.8232 14.7626 14.5303 14.4697C14.2374 14.1768 13.7626 14.1768 13.4697 14.4697L11.4697 16.4697C11.3291 16.6104 11.25 16.8011 11.25 17C11.25 17.1989 11.3291 17.3896 11.4697 17.5303L13.4697 19.5303L13.5264 19.582C13.8209 19.8223 14.2557 19.8049 14.5303 19.5303C14.8049 19.2557 14.8223 18.821 14.582 18.5264L14.5303 18.4697L13.8105 17.75L16.2764 17.75C18.1918 17.7427 19.7427 16.1918 19.75 14.2764L19.75 14.2236C19.7427 12.3082 18.1918 10.7573 16.2764 10.75L6 10.75ZM6 16.25C5.58579 16.25 5.25 16.5858 5.25 17C5.25 17.4142 5.58579 17.75 6 17.75L8.5 17.75C8.91421 17.75 9.24999 17.4142 9.25 17C9.25 16.5858 8.91421 16.25 8.5 16.25L6 16.25ZM6 5.25C5.58579 5.25 5.25 5.58579 5.25 6C5.25 6.41421 5.58579 6.75 6 6.75L18 6.75L18.0771 6.7461C18.4551 6.70748 18.75 6.38817 18.75 6C18.75 5.61184 18.4551 5.29253 18.0771 5.25391L18 5.25L6 5.25Z" fill="currentColor" />
</svg>