<svg xmlns="http://www.w3.org/2000/svg" width="24" height="24" viewBox="0 0 24 24" fill="none">
<g clipPath="url(#clip0_48_4982)"><path d="M15.0001 1.25C10.7199 1.25 7.25011 4.71979 7.25011 9C7.25011 9.54962 7.26736 10.2289 7.3429 10.896C7.39233 11.3326 7.41705 11.5509 7.41938 11.6364C7.43572 12.236 7.33629 12.5204 6.94993 12.9792C6.89483 13.0446 6.7969 13.1426 6.60105 13.3384L1.96978 17.9697C0.848463 19.091 0.848463 20.909 1.96978 22.0303C3.0911 23.1516 4.90912 23.1517 6.03044 22.0303L10.6617 17.3991C10.8576 17.2032 10.9555 17.1053 11.0209 17.0502C11.4797 16.6638 11.7641 16.5644 12.3637 16.5807C12.4492 16.5831 12.6675 16.6078 13.1041 16.6572C13.7712 16.7328 14.4505 16.75 15.0001 16.75C19.2803 16.75 22.7501 13.2802 22.7501 9C22.7501 8.62484 22.7234 8.25547 22.6717 7.8938L22.4593 6.40925L19.8723 8.99621C19.0803 9.78825 18.6843 10.1843 18.2276 10.3326C17.826 10.4632 17.3933 10.4632 16.9916 10.3326C16.5349 10.1843 16.1389 9.78825 15.3469 8.99621L15.0039 8.65325C14.2119 7.86121 13.8158 7.4652 13.6675 7.00854C13.537 6.60685 13.537 6.17416 13.6675 5.77247C13.8158 5.31581 14.2119 4.9198 15.0039 4.12776L17.5909 1.54079L16.1063 1.32845C15.7446 1.27671 15.3753 1.25 15.0001 1.25Z" fill="currentColor" /></g><defs><clipPath id="clip0_48_4982"><rect width={24} height={24} fill="white" /></clipPath></defs>
</svg>