<svg xmlns="http://www.w3.org/2000/svg" width="24" height="24" viewBox="0 0 24 24" fill="none">
<path d="M4.14453 4.66406C4.05101 5.0942 4 5.54024 4 6C4 10.0051 7.7319 13 12 13C15.4639 13 18 15.3776 18 18C18 19.7644 16.8512 21.4164 15.0449 22.3096C14.0793 22.5943 13.0579 22.75 12 22.75C6.06297 22.75 1.25 17.937 1.25 12C1.25 9.16366 2.34982 6.58508 4.14453 4.66406ZM13 16.5C12.1717 16.5 11.5001 17.1717 11.5 18C11.5 18.8284 12.1716 19.5 13 19.5C13.8284 19.5 14.5 18.8284 14.5 18C14.4999 17.1717 13.8283 16.5 13 16.5ZM12 1.25C17.9371 1.25 22.75 6.06294 22.75 12C22.75 14.8364 21.6492 17.4139 19.8545 19.335C19.9479 18.9051 20 18.4595 20 18C20 13.9949 16.2681 11 12 11C8.53612 11 6 8.62236 6 6C6 4.23615 7.14778 2.58379 8.95312 1.69043C9.9193 1.40533 10.9414 1.25001 12 1.25ZM11 4.5C10.1717 4.5 9.50013 5.17169 9.5 6C9.5 6.82843 10.1716 7.5 11 7.5C11.8284 7.5 12.5 6.82843 12.5 6C12.4999 5.17169 11.8283 4.5 11 4.5Z" fill="currentColor" />
</svg>