<svg xmlns="http://www.w3.org/2000/svg" width="24" height="24" viewBox="0 0 24 24" fill="none">
<path d="M12 22C17.5228 22 22 17.5228 22 12C22 6.47715 17.5228 2 12 2M12 22C6.47715 22 2 17.5228 2 12C2 6.47715 6.47715 2 12 2M12 22C15.3137 22 18 19.7614 18 17C18 14.2386 15.3137 12 12 12C8.68629 12 6 9.76142 6 7C6 4.23858 8.68629 2 12 2M11.5 7C11.5 7.27614 11.2761 7.5 11 7.5C10.7239 7.5 10.5 7.27614 10.5 7M11.5 7C11.5 6.72386 11.2761 6.5 11 6.5C10.7239 6.5 10.5 6.72386 10.5 7M11.5 7H10.5M13.5 17C13.5 17.2761 13.2761 17.5 13 17.5C12.7239 17.5 12.5 17.2761 12.5 17M13.5 17C13.5 16.7239 13.2761 16.5 13 16.5C12.7239 16.5 12.5 16.7239 12.5 17M13.5 17H12.5" stroke="currentColor" stroke-width={2} stroke-linecap="round" stroke-linejoin="round" />
</svg>