<svg xmlns="http://www.w3.org/2000/svg" width="24" height="24" viewBox="0 0 24 24" fill="none">
<path d="M12 22.001C17.5228 22.001 22 17.5238 22 12.001C22 6.47813 17.5228 2.00098 12 2.00098M12 22.001C6.47715 22.001 2 17.5238 2 12.001C2 6.47813 6.47715 2.00098 12 2.00098M12 22.001C15.3137 22.001 18 19.7624 18 17.001C18 14.8239 16.3304 12.9719 14 12.2855M12 2.00098C8.68629 2.00098 6 4.23955 6 7.00098C6 9.33078 7.91216 11.2884 10.5 11.8435M11.5 7.00098C11.5 7.27712 11.2761 7.50098 11 7.50098C10.7239 7.50098 10.5 7.27712 10.5 7.00098M11.5 7.00098C11.5 6.72483 11.2761 6.50098 11 6.50098C10.7239 6.50098 10.5 6.72483 10.5 7.00098M11.5 7.00098H10.5M13.5 17.001C13.5 17.2771 13.2761 17.501 13 17.501C12.7239 17.501 12.5 17.2771 12.5 17.001M13.5 17.001C13.5 16.7248 13.2761 16.501 13 16.501C12.7239 16.501 12.5 16.7248 12.5 17.001M13.5 17.001H12.5" stroke="currentColor" stroke-width={2} stroke-linecap="round" stroke-linejoin="round" />
</svg>