<svg xmlns="http://www.w3.org/2000/svg" width="24" height="24" viewBox="0 0 24 24" fill="none">
<path d="M21.25 12C21.25 10.0012 21.1864 8.50218 20.9668 7.36035C20.7496 6.23092 20.3939 5.53086 19.8701 5.05469C19.3369 4.57011 18.5338 4.22965 17.2402 4.02148C15.9453 3.8131 14.2478 3.75 12 3.75C9.75215 3.75 8.05471 3.8131 6.75977 4.02148C5.46618 4.22965 4.6631 4.57011 4.12988 5.05469C3.60609 5.53086 3.2504 6.23092 3.0332 7.36035C2.81362 8.50218 2.75 10.0012 2.75 12C2.75 13.9988 2.81363 15.4978 3.0332 16.6396C3.2504 17.7691 3.60609 18.4691 4.12988 18.9453C4.6631 19.4299 5.46617 19.7704 6.75977 19.9785C8.05471 20.1869 9.75215 20.25 12 20.25C14.2478 20.25 15.9453 20.1869 17.2402 19.9785C18.5338 19.7704 19.3369 19.4299 19.8701 18.9453C20.3939 18.4691 20.7496 17.7691 20.9668 16.6396C21.1864 15.4978 21.25 13.9988 21.25 12ZM9.63086 8.34766C9.86586 8.21467 10.1541 8.21763 10.3857 8.35645L15.3857 11.3564C15.6116 11.492 15.75 11.7366 15.75 12C15.75 12.2634 15.6116 12.508 15.3857 12.6436L10.3857 15.6436C10.1541 15.7824 9.86586 15.7853 9.63086 15.6523C9.39573 15.5192 9.25 15.2702 9.25 15V9C9.25 8.7298 9.39573 8.48079 9.63086 8.34766ZM10.75 13.6748L13.541 12L10.75 10.3242V13.6748ZM22.75 12C22.75 14.0012 22.6886 15.6272 22.4395 16.9229C22.1879 18.2307 21.7309 19.2809 20.8799 20.0547C20.0381 20.8199 18.9034 21.2297 17.4785 21.459C16.0547 21.6881 14.2521 21.75 12 21.75C9.74786 21.75 7.94529 21.6881 6.52148 21.459C5.09661 21.2297 3.9619 20.8199 3.12012 20.0547C2.26914 19.2809 1.81206 18.2307 1.56055 16.9229C1.31139 15.6272 1.25 14.0012 1.25 12C1.25 9.99882 1.31138 8.37281 1.56055 7.07715C1.81206 5.76926 2.26913 4.71911 3.12012 3.94531C3.9619 3.18006 5.0966 2.77031 6.52148 2.54102C7.94529 2.3119 9.74786 2.25 12 2.25C14.2521 2.25 16.0547 2.3119 17.4785 2.54102C18.9034 2.77031 20.0381 3.18006 20.8799 3.94531C21.7309 4.71911 22.1879 5.76926 22.4395 7.07715C22.6886 8.37281 22.75 9.99882 22.75 12Z" fill="currentColor" />
</svg>