<svg xmlns="http://www.w3.org/2000/svg" width="40" height="40" viewBox="0 0 40 40" fill="none">
<path d="M36.178 33.8229C36.8285 34.4738 36.8287 35.5286 36.178 36.1794C35.5272 36.8298 34.4723 36.8298 33.8215 36.1794L36.178 33.8229ZM30.4875 30.489C31.0977 29.8788 32.0634 29.8409 32.718 30.3747L32.845 30.489L36.178 33.8229L34.9993 35.0007L33.8215 36.1794L30.4875 32.8464L30.3733 32.7194C29.8396 32.0649 29.8777 31.0991 30.4875 30.489ZM18.3333 2.08368C27.3079 2.08368 34.5833 9.35905 34.5833 18.3337C34.5833 27.3083 27.3079 34.5837 18.3333 34.5837C9.35862 34.5837 2.08325 27.3083 2.08325 18.3337C2.08325 9.35905 9.35862 2.08368 18.3333 2.08368ZM18.3333 12.0837C17.643 12.0837 17.0833 12.6434 17.0833 13.3337V17.0837H13.3333C12.643 17.0837 12.0833 17.6434 12.0833 18.3337C12.0833 19.024 12.6429 19.5837 13.3333 19.5837H17.0833V23.3337C17.0833 24.024 17.6429 24.5837 18.3333 24.5837C19.0235 24.5836 19.5833 24.024 19.5833 23.3337V19.5837H23.3333C24.0235 19.5836 24.5833 19.024 24.5833 18.3337C24.5832 17.6435 24.0235 17.0838 23.3333 17.0837H19.5833V13.3337C19.5832 12.6435 19.0235 12.0838 18.3333 12.0837Z" fill="currentColor" />
</svg>