<svg xmlns="http://www.w3.org/2000/svg" width="40" height="40" viewBox="0 0 40 40" fill="none">
<path d="M33.9393 36.0608C34.525 36.6466 35.4748 36.6466 36.0606 36.0608C36.6464 35.475 36.6464 34.5253 36.0606 33.9395L33.9393 36.0608ZM13.3333 16.8335C12.5048 16.8335 11.8333 17.5051 11.8333 18.3335C11.8333 19.1619 12.5048 19.8335 13.3333 19.8335V16.8335ZM23.3333 19.8335C24.1617 19.8335 24.8333 19.1619 24.8333 18.3335C24.8333 17.5051 24.1617 16.8335 23.3333 16.8335V19.8335ZM18.3333 33.3335V31.8335C10.8774 31.8335 4.83325 25.7893 4.83325 18.3335H3.33325H1.83325C1.83325 27.4462 9.22055 34.8335 18.3333 34.8335V33.3335ZM3.33325 18.3335H4.83325C4.83325 10.8777 10.8774 4.8335 18.3333 4.8335V3.3335V1.8335C9.22055 1.8335 1.83325 9.2208 1.83325 18.3335H3.33325ZM18.3333 3.3335V4.8335C25.7891 4.8335 31.8333 10.8777 31.8333 18.3335H33.3333H34.8333C34.8333 9.2208 27.4459 1.8335 18.3333 1.8335V3.3335ZM33.3333 18.3335H31.8333C31.8333 22.0618 30.3239 25.4348 27.8792 27.8794L28.9399 28.9401L30.0005 30.0008C32.9848 27.0165 34.8333 22.8894 34.8333 18.3335H33.3333ZM28.9399 28.9401L27.8792 27.8794C25.4345 30.3241 22.0616 31.8335 18.3333 31.8335V33.3335V34.8335C22.8892 34.8335 27.0162 32.985 30.0005 30.0008L28.9399 28.9401ZM28.9399 28.9401L27.8792 30.0008L33.9393 36.0608L34.9999 35.0002L36.0606 33.9395L30.0005 27.8794L28.9399 28.9401ZM13.3333 18.3335V19.8335H18.3333V18.3335V16.8335H13.3333V18.3335ZM18.3333 18.3335V19.8335H23.3333V18.3335V16.8335H18.3333V18.3335Z" fill="currentColor" />
</svg>