<svg xmlns="http://www.w3.org/2000/svg" width="40" height="40" viewBox="0 0 40 40" fill="none">
<path d="M30.775 23.5832C30.4526 24.3463 30.8098 25.2263 31.5729 25.5487C32.3361 25.8712 33.2161 25.5139 33.5385 24.7508L30.775 23.5832ZM33.9393 36.061C34.525 36.6468 35.4748 36.6468 36.0606 36.061C36.6464 35.4752 36.6464 34.5255 36.0606 33.9397L33.9393 36.061ZM13.3333 16.8337C12.5048 16.8337 11.8333 17.5053 11.8333 18.3337C11.8333 19.1621 12.5048 19.8337 13.3333 19.8337V16.8337ZM23.3333 19.8337C24.1617 19.8337 24.8333 19.1621 24.8333 18.3337C24.8333 17.5053 24.1617 16.8337 23.3333 16.8337V19.8337ZM19.8333 13.3337C19.8333 12.5053 19.1617 11.8337 18.3333 11.8337C17.5048 11.8337 16.8333 12.5053 16.8333 13.3337H19.8333ZM16.8333 23.3337C16.8333 24.1621 17.5048 24.8337 18.3333 24.8337C19.1617 24.8337 19.8333 24.1621 19.8333 23.3337H16.8333ZM26.8978 30.6499L26.0403 29.4191L26.8978 30.6499ZM28.6016 29.6378L28.8854 31.1107L28.6016 29.6378ZM29.5153 29.7189L30.0539 28.3189L29.5153 29.7189ZM18.3333 33.3337V31.8337C10.8774 31.8337 4.83325 25.7895 4.83325 18.3337H3.33325H1.83325C1.83325 27.4464 9.22055 34.8337 18.3333 34.8337V33.3337ZM3.33325 18.3337H4.83325C4.83325 10.8778 10.8774 4.83368 18.3333 4.83368V3.33368V1.83368C9.22055 1.83368 1.83325 9.22098 1.83325 18.3337H3.33325ZM18.3333 3.33368V4.83368C25.7891 4.83368 31.8333 10.8778 31.8333 18.3337H33.3333H34.8333C34.8333 9.22098 27.4459 1.83368 18.3333 1.83368V3.33368ZM33.3333 18.3337H31.8333C31.8333 20.1986 31.456 21.9715 30.775 23.5832L32.1567 24.167L33.5385 24.7508C34.3727 22.7763 34.8333 20.6068 34.8333 18.3337H33.3333ZM26.8978 30.6499L26.0403 29.4191C23.8554 30.9413 21.2008 31.8337 18.3333 31.8337V33.3337V34.8337C21.8336 34.8337 25.0835 33.742 27.7552 31.8806L26.8978 30.6499ZM30.8255 30.8259L29.7648 31.8866L33.9393 36.061L34.9999 35.0003L36.0606 33.9397L31.8861 29.7652L30.8255 30.8259ZM13.3333 18.3337V19.8337H18.3333V18.3337V16.8337H13.3333V18.3337ZM18.3333 18.3337V19.8337H23.3333V18.3337V16.8337H18.3333V18.3337ZM18.3333 18.3337H19.8333V13.3337H18.3333H16.8333V18.3337H18.3333ZM18.3333 18.3337H16.8333V23.3337H18.3333H19.8333V18.3337H18.3333ZM26.8978 30.6499L27.7552 31.8806C28.2225 31.5551 28.5204 31.3483 28.7449 31.2101C28.9871 31.061 28.9933 31.09 28.8854 31.1107L28.6016 29.6378L28.3179 28.1649C27.8628 28.2526 27.4692 28.4725 27.1724 28.6552C26.8579 28.8488 26.4775 29.1145 26.0403 29.4191L26.8978 30.6499ZM30.8255 30.8259L31.8861 29.7652C31.574 29.4531 31.2882 29.1662 31.0375 28.9466C30.785 28.7254 30.4635 28.4765 30.0539 28.3189L29.5153 29.7189L28.9768 31.1188C28.8972 31.0882 28.9041 31.0661 29.0608 31.2033C29.2193 31.3422 29.4236 31.5454 29.7648 31.8866L30.8255 30.8259ZM28.6016 29.6378L28.8854 31.1107C28.9261 31.1029 28.9454 31.1012 28.95 31.1009C28.9529 31.1007 28.9455 31.1013 28.9324 31.1001C28.9193 31.099 28.9121 31.0971 28.9149 31.0978C28.9194 31.0989 28.9381 31.104 28.9768 31.1188L29.5153 29.7189L30.0539 28.3189C29.4635 28.0918 28.939 28.0452 28.3179 28.1649L28.6016 29.6378Z" fill="currentColor" />
</svg>