<svg xmlns="http://www.w3.org/2000/svg" width="40" height="40" viewBox="0 0 40 40" fill="none">
<path d="M33.9393 36.061C34.525 36.6468 35.4748 36.6468 36.0606 36.061C36.6464 35.4752 36.6464 34.5255 36.0606 33.9397L33.9393 36.061ZM13.3333 16.8337C12.5048 16.8337 11.8333 17.5053 11.8333 18.3337C11.8333 19.1621 12.5048 19.8337 13.3333 19.8337V16.8337ZM23.3333 19.8337C24.1617 19.8337 24.8333 19.1621 24.8333 18.3337C24.8333 17.5053 24.1617 16.8337 23.3333 16.8337V19.8337ZM19.8333 13.3337C19.8333 12.5053 19.1617 11.8337 18.3333 11.8337C17.5048 11.8337 16.8333 12.5053 16.8333 13.3337H19.8333ZM16.8333 23.3337C16.8333 24.1621 17.5048 24.8337 18.3333 24.8337C19.1617 24.8337 19.8333 24.1621 19.8333 23.3337H16.8333ZM18.3333 33.3337V31.8337C10.8774 31.8337 4.83325 25.7895 4.83325 18.3337H3.33325H1.83325C1.83325 27.4464 9.22055 34.8337 18.3333 34.8337V33.3337ZM3.33325 18.3337H4.83325C4.83325 10.8778 10.8774 4.83368 18.3333 4.83368V3.33368V1.83368C9.22055 1.83368 1.83325 9.22098 1.83325 18.3337H3.33325ZM18.3333 3.33368V4.83368C25.7891 4.83368 31.8333 10.8778 31.8333 18.3337H33.3333H34.8333C34.8333 9.22098 27.4459 1.83368 18.3333 1.83368V3.33368ZM33.3333 18.3337H31.8333C31.8333 22.062 30.3239 25.435 27.8792 27.8796L28.9399 28.9403L30.0005 30.0009C32.9848 27.0167 34.8333 22.8896 34.8333 18.3337H33.3333ZM28.9399 28.9403L27.8792 27.8796C25.4345 30.3243 22.0616 31.8337 18.3333 31.8337V33.3337V34.8337C22.8892 34.8337 27.0162 32.9852 30.0005 30.0009L28.9399 28.9403ZM28.9399 28.9403L27.8792 30.0009L33.9393 36.061L34.9999 35.0003L36.0606 33.9397L30.0005 27.8796L28.9399 28.9403ZM13.3333 18.3337V19.8337H18.3333V18.3337V16.8337H13.3333V18.3337ZM18.3333 18.3337V19.8337H23.3333V18.3337V16.8337H18.3333V18.3337ZM18.3333 18.3337H19.8333V13.3337H18.3333H16.8333V18.3337H18.3333ZM18.3333 18.3337H16.8333V23.3337H18.3333H19.8333V18.3337H18.3333Z" fill="currentColor" />
</svg>