<svg xmlns="http://www.w3.org/2000/svg" width="40" height="40" viewBox="0 0 40 40" fill="none">
<path d="M36.178 33.8218C36.8287 34.4726 36.8287 35.5274 36.178 36.1782C35.5272 36.829 34.4724 36.8289 33.8215 36.1782L36.178 33.8218ZM30.4875 30.4878C31.0976 29.8778 32.0634 29.84 32.718 30.3735L32.845 30.4878L36.178 33.8218L34.9993 34.9995L33.8215 36.1782L30.4875 32.8452L30.3733 32.7183C29.8397 32.0636 29.8775 31.0979 30.4875 30.4878ZM18.3333 2.0835C27.3079 2.0835 34.5833 9.35887 34.5833 18.3335C34.5833 27.3081 27.3079 34.5835 18.3333 34.5835C9.35862 34.5835 2.08325 27.3081 2.08325 18.3335C2.08325 9.35887 9.35862 2.0835 18.3333 2.0835ZM13.3333 17.0835C12.6429 17.0835 12.0833 17.6431 12.0833 18.3335C12.0833 19.0239 12.6429 19.5835 13.3333 19.5835H23.3333L23.4612 19.5767C24.0913 19.5125 24.5833 18.9806 24.5833 18.3335C24.5833 17.6864 24.0913 17.1545 23.4612 17.0903L23.3333 17.0835H13.3333Z" fill="currentColor" />
</svg>