<svg xmlns="http://www.w3.org/2000/svg" width="24" height="24" viewBox="0 0 24 24" fill="none">
<g clipPath="url(#clip0_61_6071)"><path d="M17.2174 1.19072C15.6397 0.427875 13.8698 0 12 0C10.1302 0 8.36025 0.427875 6.78262 1.19072L5.73914 12L6.78262 22.8093C8.36025 23.5721 10.1302 24 12 24C13.8698 24 15.6397 23.5721 17.2174 22.8093L18.2609 12L17.2174 1.19072Z" fill="#D80027" /><path d="M6.78263 1.19116C2.76872 3.13212 0 7.24254 0 12C0 16.7575 2.76872 20.8679 6.78263 22.8089V1.19116Z" fill="black" /><path d="M17.2173 1.19116V22.8089C21.2313 20.8679 24 16.7575 24 12C24 7.24254 21.2313 3.13212 17.2173 1.19116Z" fill="#496E2D" /><path d="M12 7.82605C9.69478 7.82605 7.82611 9.69477 7.82611 11.9999C7.82611 14.3051 9.69483 16.1738 12 16.1738C14.3052 16.1738 16.1739 14.3051 16.1739 11.9999C16.1739 9.69477 14.3052 7.82605 12 7.82605ZM12 14.6086C10.5593 14.6086 9.39131 13.4406 9.39131 11.9999C9.39131 10.5592 10.5593 9.39125 12 9.39125C13.4407 9.39125 14.6087 10.5592 14.6087 11.9999C14.6087 13.4406 13.4408 14.6086 12 14.6086Z" fill="#FFDA44" /><path d="M12 10.4347C11.4237 10.4347 10.9565 10.9018 10.9565 11.4782V13.0434H13.0435V11.4782C13.0435 10.9018 12.5764 10.4347 12 10.4347Z" fill="#FFDA44" /></g><defs><clipPath id="clip0_61_6071"><rect width={24} height={24} fill="white" /></clipPath></defs>
</svg>