<svg xmlns="http://www.w3.org/2000/svg" width="24" height="24" viewBox="0 0 24 24" fill="none">
<g clipPath="url(#clip0_61_6284)"><path d="M12 24C18.6274 24 24 18.6274 24 12C24 5.37258 18.6274 0 12 0C5.37258 0 0 5.37258 0 12C0 18.6274 5.37258 24 12 24Z" fill="#FFDA44" /><path d="M12 23.9999C15.6371 23.9999 18.896 22.3816 21.0966 19.826H2.9034C5.10404 22.3816 8.36293 23.9999 12 23.9999Z" fill="#338AF3" /><path d="M24 12C24 5.37262 18.6274 0 12 0C5.37262 0 0 5.37262 0 12C0 13.0831 0.144375 14.1323 0.413391 15.1305H23.5867C23.8556 14.1323 24 13.0831 24 12Z" fill="#338AF3" /><path d="M0.953857 16.6957C1.18519 17.2392 1.45561 17.762 1.76128 18.2609H22.2387C22.5444 17.7619 22.8148 17.2392 23.0462 16.6957H0.953857Z" fill="#338AF3" /><path d="M5.49924 7.56855L3.15474 6.53384L5.49924 5.49912L6.53391 3.15466L7.56858 5.49912L9.91304 6.53384L7.56858 7.56855L6.53391 9.91301L5.49924 7.56855Z" fill="#F0F0F0" /><path d="M6.5339 4.4469L7.17285 5.89482L8.62082 6.53387L7.17285 7.17287L6.5339 8.62079L5.89485 7.17287L4.44693 6.53387L5.89485 5.89482L6.5339 4.4469Z" fill="#D80027" /></g><defs><clipPath id="clip0_61_6284"><rect width={24} height={24} fill="white" /></clipPath></defs>
</svg>