<svg xmlns="http://www.w3.org/2000/svg" width="24" height="24" viewBox="0 0 24 24" fill="none">
<g clipPath="url(#clip0_61_6095)"><path d="M24 12C24 18.6274 18.6274 24 12 24C5.37262 24 0 18.6274 0 12C0 12.0028 12 0.00135937 12 0C18.6274 0 24 5.37262 24 12Z" fill="#0052B4" /><path d="M11.9679 12H12C12 11.9891 12 11.9787 12 11.9679C11.9893 11.9786 11.9786 11.9893 11.9679 12Z" fill="#F0F0F0" /><path d="M12 6.26086C12 4.14937 12 2.76577 12 0H11.998C5.3715 0.00107812 0 5.37319 0 12H6.26086V8.47439L9.78642 12H11.9679C11.9787 11.9893 11.9894 11.9786 12 11.9678C12 11.1594 12 10.438 12 9.78647L8.47444 6.26086H12Z" fill="#F0F0F0" /><path d="M6.071 1.56519C4.19417 2.63389 2.63389 4.19417 1.56519 6.071V12H4.69564V4.69569V4.69564H12C12 3.70831 12 2.76772 12 1.56519H6.071Z" fill="#D80027" /><path d="M12 10.5243L7.73654 6.26089H6.26086C6.26086 6.26084 6.26086 6.26089 6.26086 6.26089L11.9999 11.9999H12C12 11.9999 12 10.9825 12 10.5243Z" fill="#D80027" /><path d="M7.23729 14.087L7.89588 15.4641L9.38309 15.1204L8.71709 16.4939L9.91305 17.4423L8.42398 17.778L8.42815 19.3044L7.23729 18.3494L6.04648 19.3044L6.05065 17.778L4.56152 17.4423L5.75754 16.4939L5.09145 15.1204L6.57874 15.4641L7.23729 14.087Z" fill="#F0F0F0" /><path d="M17.9665 16.6957L18.2958 17.3842L19.0394 17.2123L18.7063 17.8991L19.3044 18.3733L18.5598 18.5411L18.5619 19.3044L17.9665 18.8269L17.3711 19.3044L17.3731 18.5411L16.6286 18.3733L17.2266 17.8991L16.8936 17.2123L17.6372 17.3842L17.9665 16.6957Z" fill="#F0F0F0" /><path d="M14.9032 9.39136L15.2324 10.08L15.976 9.90801L15.643 10.5948L16.241 11.069L15.4965 11.2368L15.4985 12L14.9032 11.5225L14.3077 12L14.3098 11.2368L13.5652 11.069L14.1632 10.5948L13.8302 9.90801L14.5739 10.08L14.9032 9.39136Z" fill="#F0F0F0" /><path d="M17.9665 5.21741L18.2958 5.906L19.0394 5.73411L18.7064 6.42088L19.3043 6.89506L18.5598 7.06292L18.5619 7.82614L17.9665 7.34863L17.3711 7.82614L17.3731 7.06292L16.6286 6.89506L17.2265 6.42088L16.8936 5.73411L17.6372 5.906L17.9665 5.21741Z" fill="#F0F0F0" /><path d="M20.6423 8.3479L20.9715 9.03649L21.7152 8.86456L21.3822 9.55132L21.9801 10.0256L21.2356 10.1934L21.2376 10.9566L20.6423 10.4791L20.0469 10.9566L20.0489 10.1934L19.3044 10.0256L19.9024 9.55132L19.5694 8.86456L20.3129 9.03649L20.6423 8.3479Z" fill="#F0F0F0" /><path d="M18.7289 12L18.9879 12.7972H19.8261L19.148 13.2899L19.4071 14.087L18.7289 13.5943L18.0508 14.087L18.3098 13.2899L17.6317 12.7972H18.4699L18.7289 12Z" fill="#F0F0F0" /></g><defs><clipPath id="clip0_61_6095"><rect width={24} height={24} fill="white" /></clipPath></defs>
</svg>