<svg xmlns="http://www.w3.org/2000/svg" width="24" height="24" viewBox="0 0 24 24" fill="none">
<g clipPath="url(#clip0_61_5365)"><path d="M12 24C18.6274 24 24 18.6274 24 12C24 5.37258 18.6274 0 12 0C5.37258 0 0 5.37258 0 12C0 18.6274 5.37258 24 12 24Z" fill="#F0F0F0" /><path d="M0 12C0 16.5485 2.53078 20.5057 6.26086 22.5409V1.45911C2.53078 3.49433 0 7.45151 0 12Z" fill="#D80027" /><path d="M0 11.9999C0 17.5443 3.76036 22.2095 8.86955 23.5865V0.41333C3.76036 1.79033 0 6.45561 0 11.9999Z" fill="#0052B4" /><path d="M4.30434 4.17395V6.13047C4.30434 7.10298 5.09269 7.89133 6.0652 7.89133C7.03772 7.89133 7.82606 7.10298 7.82606 6.13047V4.17395H4.30434Z" fill="#D80027" /><path d="M6.0652 6.84781C5.66962 6.84781 5.34782 6.52602 5.34782 6.13044V5.21741H6.78262V6.13044C6.78262 6.52602 6.46078 6.84781 6.0652 6.84781Z" fill="#F0F0F0" /><path d="M13.0435 12.5218H9.91303C9.91303 11.9455 9.44583 11.4783 8.86955 11.4783C8.29327 11.4783 7.82606 11.9455 7.82606 12.5218H4.69561C4.69561 13.0981 5.19759 13.5652 5.77383 13.5652H5.73909C5.73909 14.1416 6.2062 14.6087 6.78258 14.6087C6.78258 15.1851 7.24969 15.6522 7.82606 15.6522H9.91303C10.4893 15.6522 10.9565 15.1851 10.9565 14.6087C11.5328 14.6087 12 14.1416 12 13.5652H11.9653C12.5415 13.5652 13.0435 13.0981 13.0435 12.5218Z" fill="#FFDA44" /><path d="M13.4723 10.8519L13.1984 11.2906L13.5307 11.6866L13.0289 11.5616L12.7549 12.0001L12.7188 11.4842L12.217 11.3591L12.6966 11.1654L12.6605 10.6495L12.9929 11.0457L13.4723 10.8519Z" fill="#FFDA44" /><path d="M11.8737 9.51062L11.7663 10.0164L12.2141 10.275L11.6998 10.3292L11.5923 10.8349L11.382 10.3625L10.8677 10.4165L11.252 10.0705L11.0417 9.59818L11.4895 9.8567L11.8737 9.51062Z" fill="#FFDA44" /><path d="M9.91294 8.797L9.9849 9.30911L10.4941 9.39887L10.0294 9.62556L10.1013 10.1377L9.74218 9.76567L9.27736 9.99236L9.52013 9.53575L9.16093 9.16384L9.67022 9.25356L9.91294 8.797Z" fill="#FFDA44" /><path d="M7.8262 8.797L8.06902 9.25356L8.57822 9.16379L8.21902 9.53584L8.46178 9.9924L7.99706 9.76567L7.63781 10.1376L7.70981 9.62556L7.24505 9.39892L7.75425 9.30911L7.8262 8.797Z" fill="#FFDA44" /><path d="M5.86537 9.51062L6.24966 9.8567L6.69741 9.59818L6.48722 10.0707L6.87136 10.4166L6.35719 10.3625L6.14676 10.8349L6.03942 10.3292L5.52511 10.2752L5.97286 10.0165L5.86537 9.51062Z" fill="#FFDA44" /><path d="M4.26685 10.8519L4.74642 11.0457L5.07863 10.6495L5.04272 11.1655L5.52211 11.3592L5.02031 11.4842L4.98413 12L4.71033 11.5616L4.20858 11.6866L4.54097 11.2905L4.26685 10.8519Z" fill="#FFDA44" /></g><defs><clipPath id="clip0_61_5365"><rect width={24} height={24} fill="white" /></clipPath></defs>
</svg>