<svg xmlns="http://www.w3.org/2000/svg" width="24" height="24" viewBox="0 0 24 24" fill="none">
<g clipPath="url(#clip0_61_5385)"><path d="M12 24C18.6274 24 24 18.6274 24 12C24 5.37258 18.6274 0 12 0C5.37258 0 0 5.37258 0 12C0 18.6274 5.37258 24 12 24Z" fill="#FFDA44" /><path d="M7.30434 7.82611H23.2536C21.5581 3.2565 17.1595 0 12 0C8.68622 0 5.68654 1.34339 3.51511 3.51511L7.30434 7.82611Z" fill="#338AF3" /><path d="M7.30434 16.174H23.2536C21.5581 20.7436 17.1595 24.0001 12 24.0001C8.68622 24.0001 5.68654 22.6567 3.51511 20.4849L7.30434 16.174Z" fill="#338AF3" /><path d="M3.51468 3.51465C-1.1716 8.20093 -1.1716 15.7989 3.51468 20.4853C5.45123 18.5487 7.31371 16.6862 12 12L3.51468 3.51465Z" fill="black" /></g><defs><clipPath id="clip0_61_5385"><rect width={24} height={24} fill="white" /></clipPath></defs>
</svg>