<svg xmlns="http://www.w3.org/2000/svg" width="24" height="24" viewBox="0 0 24 24" fill="none">
<g clipPath="url(#clip0_61_6258)"><path d="M12 0C18.6274 0 24 5.37261 24 12C24 18.6273 18.6274 24 12 24C5.37266 24 4.57764e-05 18.6273 4.57764e-05 12" fill="#FFDA44" /><path d="M11.7392 5.33341H21.9787C21.3045 4.32621 20.4817 3.42715 19.5418 2.66675H11.7392V5.33341Z" fill="#D80027" /><path d="M11.7392 10.6667H23.9259C23.8237 9.74209 23.6164 8.84926 23.3163 8.00012H11.7392V10.6667Z" fill="#D80027" /><path d="M0.683813 16.0001H23.3162C23.6163 15.1509 23.8236 14.258 23.9259 13.3334H0.0741577C0.176345 14.2581 0.383626 15.151 0.683813 16.0001Z" fill="#D80027" /><path d="M4.45818 21.3334H19.5418C20.4816 20.5731 21.3044 19.6739 21.9787 18.6667H2.02139C2.69563 19.6739 3.51838 20.573 4.45818 21.3334Z" fill="#D80027" /><path d="M12 0C5.37262 0 -4.68746e-05 5.37261 3.06725e-10 12.0001C2.73871 12 5.37261 12.0001 12 12.0001L12 0Z" fill="#4A1F63" /><path d="M9.91306 6.26089V7.30437H9.39134V6.26089H8.34786V7.30437H7.82614V5.21741H5.73917V7.30437H5.21741V6.26089H4.17397V7.30437H3.65221V6.26089H2.60868V9.39129H10.9565V6.26089H9.91306Z" fill="#F0F0F0" /></g><defs><clipPath id="clip0_61_6258"><rect width={24} height={24} fill="white" /></clipPath></defs>
</svg>