<svg xmlns="http://www.w3.org/2000/svg" width="24" height="24" viewBox="0 0 24 24" fill="none">
<g clipPath="url(#clip0_61_6181)"><path d="M12 24C18.6274 24 24 18.6274 24 12C24 5.37258 18.6274 0 12 0C5.37258 0 0 5.37258 0 12C0 18.6274 5.37258 24 12 24Z" fill="#FCFCFC" /><path d="M4.9565 11.1305L3.65216 8.76408L4.9565 6.43481L6.26085 8.76408L4.9565 11.1305Z" fill="#A2001D" /><path d="M2.34783 11.1305L1.04349 8.76408L2.34783 6.43481L3.65217 8.76408L2.34783 11.1305Z" fill="#A2001D" /><path d="M4.9565 17.5653L3.65216 15.1989L4.9565 12.8696L6.26085 15.1989L4.9565 17.5653Z" fill="#A2001D" /><path d="M2.34783 17.5653L1.04349 15.1989L2.34783 12.8696L3.65217 15.1989L2.34783 17.5653Z" fill="#A2001D" /><path d="M6.26086 2.32936L5.89158 1.66992C5.22924 2.06236 4.608 2.51672 4.03561 3.02503L4.95652 4.6957L6.26086 2.32936Z" fill="#A2001D" /><path d="M4.9565 19.3044L4.02585 20.9664C4.59772 21.4754 5.21854 21.9305 5.8806 22.3237L6.26089 21.6338L4.9565 19.3044Z" fill="#A2001D" /><path d="M7.30435 15.1305V23.0459C8.74665 23.6599 10.3335 24 12 24C17.1596 24 21.5581 20.7435 23.2536 16.1739L7.30435 15.1305Z" fill="#6DA544" /><path d="M23.2536 16.1739C23.736 14.8739 24 13.4678 24 12C24 5.37263 18.6274 0 12 0C10.3336 0 8.74665 0.339984 7.30435 0.953813V16.1739H23.2536V16.1739Z" fill="#A2001D" /></g><defs><clipPath id="clip0_61_6181"><rect width={24} height={24} fill="white" /></clipPath></defs>
</svg>