<svg xmlns="http://www.w3.org/2000/svg" width="24" height="24" viewBox="0 0 24 24" fill="none">
<g clipPath="url(#clip0_61_6016)"><path d="M0.566686 8.34777C0.199092 9.49944 1.41684e-05 10.7263 6.10434e-05 11.9999C1.41684e-05 13.2735 0.199092 14.5004 0.566733 15.6521L12.0001 16.1739L23.4333 15.6521C23.8009 14.5004 24 13.2734 24 12C24 10.7264 23.8009 9.49944 23.4333 8.34777L12 7.82605L0.566686 8.34777Z" fill="#F0F0F0" /><path d="M24 12C24 11.2881 23.9377 10.5908 23.8187 9.91296H0.181313C0.0623437 10.5908 0 11.288 0 11.9999C0 12.7119 0.0623906 13.4091 0.181313 14.0869H23.8187C23.9376 13.409 24 12.7118 24 12Z" fill="black" /><path d="M12.0001 23.9999C17.3539 23.9999 21.8882 20.4935 23.4334 15.652H0.566742C2.11198 20.4934 6.64624 23.9998 12.0001 23.9999Z" fill="#338AF3" /><path d="M12.0001 1.87984e-09C6.64623 1.87984e-09 2.11201 3.50639 0.566681 8.34773L23.4332 8.34778C21.8881 3.50639 17.3538 -9.37481e-05 12.0001 1.87984e-09Z" fill="#338AF3" /></g><defs><clipPath id="clip0_61_6016"><rect width={24} height={24} fill="white" /></clipPath></defs>
</svg>