<svg xmlns="http://www.w3.org/2000/svg" width="24" height="24" viewBox="0 0 24 24" fill="none">
<g clipPath="url(#clip0_61_6324)"><path d="M12 24C18.6274 24 24 18.6274 24 12C24 5.37258 18.6274 0 12 0C5.37258 0 0 5.37258 0 12C0 18.6274 5.37258 24 12 24Z" fill="#F0F0F0" /><path d="M21.9999 13.4361C20.9999 13.4361 20.9999 12.5217 19.9998 12.5217C18.9999 12.5217 18.9999 13.4361 17.9999 13.4361C17 13.4361 16.9999 12.5217 16 12.5217C15 12.5217 15 13.4361 14 13.4361C13 13.4361 12.9999 12.5217 11.9998 12.5217C10.9998 12.5217 10.9998 13.4361 9.99991 13.4361C9.00006 13.4361 9.00006 12.5217 8.00008 12.5217C7 12.5217 7 13.4361 5.99992 13.4361C4.99984 13.4361 4.99984 12.5217 3.99977 12.5217C2.99992 12.5217 2.99992 13.4361 1.99994 13.4361C1.00534 13.4361 0.999578 12.5318 0.015625 12.5222C0.0433281 13.071 0.108859 13.6099 0.207953 14.1369C1.00502 14.254 1.07481 15.036 2.00003 15.036C3.00002 15.036 3.00002 14.1218 3.99986 14.1218C4.99994 14.1218 4.99994 15.036 6.00002 15.036C7.00009 15.036 7.00009 14.1218 8.00017 14.1218C9.00016 14.1218 9.00016 15.036 10 15.036C11 15.036 11 14.1218 11.9999 14.1218C13 14.1218 13 15.036 14.0001 15.036C15.0002 15.036 15.0002 14.1218 16.0001 14.1218C17.0001 14.1218 17.0001 15.036 18 15.036C19 15.036 19 14.1218 19.9999 14.1218C21 14.1218 21 15.036 22 15.036C22.9252 15.036 22.995 14.254 23.7921 14.1369C23.8913 13.6099 23.9567 13.0711 23.9845 12.5222C23.0004 12.5319 22.9945 13.4361 21.9999 13.4361Z" fill="#0052B4" /><path d="M19.9998 15.6522C18.9999 15.6522 18.9999 16.5666 17.9999 16.5666C17 16.5666 16.9999 15.6522 16 15.6522C15 15.6522 15 16.5666 14 16.5666C12.9999 16.5666 12.9999 15.6522 11.9998 15.6522C10.9998 15.6522 10.9998 16.5666 9.99991 16.5666C9.00006 16.5666 9.00006 15.6522 8.00008 15.6522C7 15.6522 7 16.5666 5.99992 16.5666C4.99985 16.5666 4.99985 15.6522 3.99977 15.6522C2.99992 15.6522 2.99992 16.5666 1.99994 16.5666C1.2633 16.5666 1.06881 16.0707 0.617737 15.8095C0.890924 16.6261 1.24975 17.4032 1.68311 18.1309C1.77696 18.1535 1.8813 18.1666 1.99989 18.1666C2.99988 18.1666 2.99988 17.2523 3.99972 17.2523C4.9998 17.2523 4.9998 18.1666 5.99988 18.1666C6.99996 18.1666 6.99996 17.2523 8.00003 17.2523C9.00002 17.2523 9.00002 18.1666 9.99986 18.1666C10.9998 18.1666 10.9998 17.2523 11.9998 17.2523C12.9999 17.2523 12.9999 18.1666 13.9999 18.1666C15 18.1666 15 17.2523 16 17.2523C16.9999 17.2523 16.9999 18.1666 17.9999 18.1666C18.9998 18.1666 18.9999 17.2523 19.9998 17.2523C20.9999 17.2523 20.9999 18.1666 21.9998 18.1666C22.1185 18.1666 22.2229 18.1535 22.3168 18.1308C22.7502 17.4032 23.109 16.626 23.3822 15.8096C22.9311 16.0708 22.7365 16.5666 21.9998 16.5666C20.9999 16.5666 20.9999 15.6522 19.9998 15.6522Z" fill="#0052B4" /><path d="M23.7208 9.41915C22.9899 9.57089 22.8967 10.3057 21.9999 10.3057C20.9999 10.3057 20.9999 9.39136 19.9999 9.39136C18.9999 9.39136 18.9999 10.3057 17.9999 10.3057C17 10.3057 16.9999 9.39136 16 9.39136C15 9.39136 15 10.3057 14 10.3057C13 10.3057 12.9999 9.39136 11.9998 9.39136C11.4595 9.39136 11.2111 9.65826 10.9391 9.9037V11.5037C11.2111 11.2583 11.4595 10.9914 11.9998 10.9914C12.9999 10.9914 12.9999 11.9057 14 11.9057C15.0001 11.9057 15.0001 10.9914 16 10.9914C17 10.9914 17 11.9057 17.9999 11.9057C18.9999 11.9057 18.9999 10.9914 19.9999 10.9914C20.9999 10.9914 20.9999 11.9057 21.9999 11.9057C22.9251 11.9057 22.9949 11.1237 23.792 11.0066C23.8431 11.0066 23.9002 11.0061 23.9587 11.0054C23.9144 10.4657 23.8342 9.93623 23.7208 9.41915Z" fill="#0052B4" /><path d="M22.8443 6.8566C22.6371 7.03065 22.3975 7.17521 21.9999 7.17521C20.9999 7.17521 20.9999 6.26086 19.9999 6.26086C18.9999 6.26086 18.9999 7.17521 18 7.17521C17.0001 7.17521 17 6.26086 16.0001 6.26086C15.0001 6.26086 15.0001 7.17521 14.0001 7.17521C13 7.17521 13 6.26086 11.9999 6.26086C11.4596 6.26086 11.2111 6.52777 10.9392 6.77321V8.37319C11.2111 8.1278 11.4595 7.86094 11.9999 7.86094C13 7.86094 13 8.77519 14.0001 8.77519C15 8.77519 15 7.86094 16 7.86094C17 7.86094 17 8.77519 17.9999 8.77519C18.9999 8.77519 18.9999 7.86094 19.9999 7.86094C20.9999 7.86094 20.9999 8.77519 21.9999 8.77519C22.7094 8.77519 22.9161 8.31558 23.3333 8.0483C23.1911 7.64063 23.0278 7.2429 22.8443 6.8566Z" fill="#0052B4" /><path d="M20.0852 3.13293C20.0575 3.13143 20.0292 3.13049 19.9998 3.13049C18.9999 3.13049 18.9999 4.04484 17.9999 4.04484C16.9999 4.04484 16.9999 3.13049 16 3.13049C15 3.13049 15 4.04484 13.9999 4.04484C12.9999 4.04484 12.9999 3.13049 11.9998 3.13049C11.4594 3.13049 11.211 3.3974 10.9391 3.64284V5.24282C11.211 4.99743 11.4594 4.73057 11.9998 4.73057C12.9999 4.73057 12.9999 5.64482 13.9999 5.64482C15 5.64482 15 4.73057 15.9999 4.73057C16.9999 4.73057 16.9999 5.64482 17.9999 5.64482C18.9998 5.64482 18.9999 4.73057 19.9998 4.73057C20.9999 4.73057 20.9999 5.64482 21.9998 5.64482C22.0614 5.64482 22.1189 5.64117 22.1734 5.63465C21.5926 4.70821 20.8892 3.86648 20.0852 3.13293Z" fill="#0052B4" /><path d="M15.0672 0.39631C14.7927 0.643247 14.5446 0.914466 14 0.914466C12.9999 0.914466 12.9999 0.00021582 11.9998 0.00012207H11.9997C11.4825 0.000168945 11.2329 0.244716 10.9739 0.480919V2.08095C11.2328 1.84475 11.4826 1.60015 11.9998 1.60015C12.9999 1.60015 12.9999 2.5144 14 2.5144C15 2.5144 15 1.60015 16 1.60015C17 1.60015 17 2.5144 17.9999 2.5144C18.4195 2.5144 18.6629 2.35334 18.8781 2.1665C17.7374 1.36704 16.4512 0.761138 15.0672 0.39631Z" fill="#0052B4" /><path d="M13.9999 22.8274C12.9998 22.8274 12.9998 21.913 11.9998 21.913C10.9998 21.913 10.9998 22.8274 9.99984 22.8274C9 22.8274 9 21.913 8.00002 21.913C7.23403 21.913 7.05436 22.449 6.56311 22.7001C7.9178 23.3899 9.42094 23.8295 11.0119 23.9592C11.2579 23.7344 11.5079 23.513 11.9998 23.513C12.4918 23.513 12.7418 23.7344 12.9878 23.9592C14.5788 23.8296 16.0821 23.3899 17.4368 22.7002C16.9455 22.4491 16.7658 21.913 15.9999 21.913C15 21.913 15 22.8274 13.9999 22.8274Z" fill="#0052B4" /><path d="M17.9999 19.6969C16.9999 19.6969 16.9999 18.7826 16 18.7826C15 18.7826 15 19.6969 14 19.6969C12.9999 19.6969 12.9999 18.7826 11.9998 18.7826C10.9998 18.7826 10.9998 19.6969 9.99988 19.6969C9.00004 19.6969 9.00004 18.7826 8.00006 18.7826C6.99998 18.7826 6.99998 19.6969 5.9999 19.6969C4.99982 19.6969 4.99982 18.7826 3.99974 18.7826C3.28063 18.7826 3.0787 19.2556 2.65002 19.5211C2.91871 19.8548 3.20437 20.1742 3.50666 20.477C3.64209 20.4191 3.80099 20.3826 3.9997 20.3826C4.99977 20.3826 4.99977 21.2969 5.99985 21.2969C6.99993 21.2969 6.99993 20.3826 8.00001 20.3826C8.99999 20.3826 8.99999 21.2969 9.99984 21.2969C10.9998 21.2969 10.9998 20.3826 11.9998 20.3826C12.9998 20.3826 12.9998 21.2969 13.9999 21.2969C15 21.2969 15 20.3826 15.9999 20.3826C16.9999 20.3826 16.9999 21.2969 17.9999 21.2969C18.9998 21.2969 18.9998 20.3826 19.9998 20.3826C20.1987 20.3826 20.3576 20.4191 20.4931 20.4771C20.7955 20.1742 21.0811 19.8548 21.3498 19.5212C20.9211 19.2557 20.7192 18.7826 19.9998 18.7826C18.9998 18.7826 18.9998 19.6969 17.9999 19.6969Z" fill="#0052B4" /><path d="M11.9679 12H12C12 11.9892 12 11.9787 12 11.9679C11.9893 11.9786 11.9786 11.9893 11.9679 12Z" fill="#F0F0F0" /><path d="M12 6.26085V9.78646L7.82611 5.73914L12 6.26085Z" fill="#0052B4" /><path d="M6.2609 12H9.78637L6.26085 7.30432L5.73914 10.9565L6.2609 12Z" fill="#0052B4" /><path d="M12 6.26086C12 4.14937 12 2.76586 12 0H11.998C5.3715 0.001125 0 5.37323 0 12H6.26091V8.47448L9.78638 12H11.9679C11.9786 11.9893 11.9893 11.9786 12 11.9679C12 11.1594 12 10.4381 12 9.78647L8.47444 6.26086H12Z" fill="#F0F0F0" /><path d="M6.071 1.56519C4.19417 2.63389 2.63389 4.19417 1.56519 6.071V12H4.69564V4.69573V4.69564H12C12 3.70831 12 2.76772 12 1.56519H6.071Z" fill="#D80027" /><path d="M12 10.5243L7.73649 6.26086H6.26086V6.26096L11.9999 12H12C12 12 12 10.9824 12 10.5243Z" fill="#D80027" /><path d="M15.6522 6.26086H20.3478L18 8.60869L15.6522 6.26086Z" fill="#6DA544" /><path d="M17.4783 8.08691H18.5218V10.9565H17.4783V8.08691Z" fill="#A2001D" /><path d="M17.4783 15.6521H18.5218V18.5216H17.4783V15.6521Z" fill="#A2001D" /><path d="M21.1304 14.087C21.1304 13.2226 20.4296 12.5218 19.5652 12.5218C19.1643 12.5218 18.7987 12.6727 18.5217 12.9206V12H19.0435V10.9565H18.5217V10.4348H17.4783V10.9565H16.9565V12H17.4783V12.9206C17.2013 12.6727 16.8357 12.5218 16.4348 12.5218C15.5704 12.5218 14.8696 13.2226 14.8696 14.087C14.8696 14.5504 15.0712 14.9667 15.3913 15.2533V16.174H20.6087V15.2533C20.9288 14.9667 21.1304 14.5504 21.1304 14.087Z" fill="#FFDA44" /><path d="M19.5652 13.5652C19.4006 13.5652 19.2854 13.6375 19.2177 13.698L18.5217 14.321H17.4783L16.7823 13.698C16.7146 13.6375 16.5994 13.5652 16.4348 13.5652C16.1471 13.5652 15.9131 13.7992 15.9131 14.0869C15.9131 14.2895 16.0224 14.4176 16.0875 14.4759L16.4349 14.787V15.1304H19.5653V14.787L19.9127 14.4759C19.9778 14.4176 20.0871 14.2895 20.0871 14.0869C20.087 13.7992 19.8529 13.5652 19.5652 13.5652Z" fill="#D80027" /></g><defs><clipPath id="clip0_61_6324"><rect width={24} height={24} fill="white" /></clipPath></defs>
</svg>