<svg xmlns="http://www.w3.org/2000/svg" width="24" height="24" viewBox="0 0 24 24" fill="none">
<g clipPath="url(#clip0_61_6399)"><path d="M12 0C10.5321 0 9.12602 0.264047 7.82609 0.746391L7.30432 12L7.82604 23.2536C9.12602 23.736 10.5321 24 12 24C13.4678 24 14.8739 23.736 16.1739 23.2536L16.6956 12L16.1739 0.746391C14.8739 0.264047 13.4678 0 12 0V0Z" fill="#338AF3" /><path d="M24 11.9999C24 6.84037 20.7435 2.44185 16.1739 0.746338V23.2536C20.7435 21.558 24 17.1595 24 11.9999Z" fill="#FFDA44" /><path d="M7.82611 23.2536V0.746338C3.2565 2.44185 0 6.84037 0 11.9999C0 17.1595 3.2565 21.558 7.82611 23.2536Z" fill="#F0F0F0" /></g><defs><clipPath id="clip0_61_6399"><rect width={24} height={24} fill="white" /></clipPath></defs>
</svg>