<svg xmlns="http://www.w3.org/2000/svg" width="24" height="24" viewBox="0 0 24 24" fill="none">
<g clipPath="url(#clip0_61_6456)"><path d="M20.4853 20.4852C15.799 25.1715 8.201 25.1715 3.51468 20.4852C-1.17164 15.799 -1.1716 8.20097 3.51468 3.51465C3.88358 3.88351 13.1067 10.8931 13.1067 10.8931L20.4853 20.4852Z" fill="#0052B4" /><path d="M3.51472 3.5147C8.201 -1.17157 15.799 -1.17157 20.4853 3.5147C25.1716 8.20098 25.1716 15.799 20.4853 20.4853" fill="#6DA544" /><path d="M12 15.1304C13.7289 15.1304 15.1304 13.7289 15.1304 12C15.1304 10.2711 13.7289 8.86951 12 8.86951C10.2711 8.86951 8.86954 10.2711 8.86954 12C8.86954 13.7289 10.2711 15.1304 12 15.1304Z" fill="#FFDA44" /><path d="M4.46835 17.2174L4.79765 17.906L5.54122 17.7341L5.20822 18.4208L5.80625 18.8951L5.06169 19.0628L5.06376 19.8261L4.46835 19.3486L3.87295 19.8261L3.87501 19.0628L3.13045 18.8951L3.72848 18.4208L3.39543 17.7341L4.13906 17.906L4.46835 17.2174Z" fill="#F0F0F0" /><path d="M2.31431 11.4783L2.64361 12.1668L3.38719 11.9949L3.05423 12.6817L3.65217 13.1559L2.90766 13.3237L2.90972 14.087L2.31431 13.6095L1.71895 14.087L1.72097 13.3237L0.976456 13.1559L1.57444 12.6817L1.24144 11.9949L1.98502 12.1668L2.31431 11.4783Z" fill="#F0F0F0" /><path d="M4.46835 6.78259L4.79765 7.47114L5.54122 7.2992L5.20827 7.98601L5.80625 8.46025L5.06169 8.62801L5.06376 9.39128L4.46835 8.91381L3.87295 9.39128L3.87501 8.62801L3.13049 8.46025L3.72843 7.98601L3.39543 7.2992L4.13905 7.47114L4.46835 6.78259Z" fill="#F0F0F0" /><path d="M7.14412 10.4348L7.47341 11.1234L8.21704 10.9514L7.88399 11.6383L8.48197 12.1125L7.73746 12.2803L7.73947 13.0435L7.14412 12.566L6.54871 13.0435L6.55077 12.2803L5.80626 12.1125L6.4042 11.6383L6.07124 10.9514L6.81482 11.1234L7.14412 10.4348Z" fill="#F0F0F0" /><path d="M5.23082 13.5652L5.48985 14.3623H6.32798L5.64988 14.855L5.90891 15.6521L5.23082 15.1595L4.55273 15.6521L4.81176 14.855L4.13367 14.3623H4.97179L5.23082 13.5652Z" fill="#F0F0F0" /><path d="M12 14.087H13.0435C13.0435 14.087 13.4956 13.2871 13.0435 12.5218L14.0869 11.4783L13.5652 10.4348H13.0435C13.0435 10.4348 12.7826 11.2174 11.7392 11.2174C10.6957 11.2174 10.4348 10.4348 10.4348 10.4348H9.9131L10.4348 11.4783L9.9131 12.5218L10.4348 13.0435C10.4348 13.0435 10.9565 12 12 12.5218C12 12.5218 12.4435 13.174 12 14.087Z" fill="#6DA544" /><path d="M19.7884 6.57294C19.813 6.44474 19.8261 6.31251 19.8261 6.17713C19.8261 5.24901 19.2201 4.46287 18.3823 4.19165C18.6383 4.71196 18.7826 5.29715 18.7826 5.91627C18.7826 6.12505 18.7658 6.3299 18.7343 6.52982C18.6082 6.32671 18.4462 6.14113 18.2483 5.98368C17.503 5.39062 16.4844 5.37491 15.7314 5.87437C16.3128 6.0013 16.8749 6.25935 17.3721 6.65493C17.7614 6.96468 18.0759 7.38364 18.3167 7.78808L15.1304 8.78581C18.2609 9.30753 20.8695 7.22061 20.8695 7.22061C20.5805 6.64255 20.1316 6.54505 19.7884 6.57294Z" fill="#FFDA44" /></g><defs><clipPath id="clip0_61_6456"><rect width={24} height={24} fill="white" /></clipPath></defs>
</svg>