<svg xmlns="http://www.w3.org/2000/svg" width="24" height="24" viewBox="0 0 24 24" fill="none">
<g clipPath="url(#clip0_61_6468)"><path d="M12 24C18.6274 24 24 18.6274 24 12C24 5.37258 18.6274 0 12 0C5.37258 0 0 5.37258 0 12C0 18.6274 5.37258 24 12 24Z" fill="#6DA544" /><path d="M18.4211 17.2174L18.7504 17.906L19.4941 17.7341L19.1611 18.4209L19.759 18.8951L19.0145 19.0629L19.0166 19.8261L18.4211 19.3486L17.8257 19.8261L17.8278 19.0629L17.0833 18.8951L17.6813 18.4209L17.3483 17.7341L18.0918 17.906L18.4211 17.2174Z" fill="#FFDA44" /><path d="M15.3578 9.91309L15.6871 10.6016L16.4307 10.4297L16.0977 11.1166L16.6957 11.5907L15.9511 11.7586L15.9532 12.5218L15.3578 12.0443L14.7624 12.5218L14.7644 11.7586L14.0199 11.5907L14.6179 11.1166L14.2848 10.4297L15.0285 10.6016L15.3578 9.91309Z" fill="#FFDA44" /><path d="M18.4211 5.73914L18.7504 6.42768L19.494 6.25574L19.1611 6.94256L19.759 7.41679L19.0145 7.58456L19.0165 8.34782L18.4211 7.87031L17.8257 8.34782L17.8278 7.58456L17.0833 7.41679L17.6813 6.94256L17.3483 6.25574L18.0918 6.42768L18.4211 5.73914Z" fill="#FFDA44" /><path d="M21.0969 8.86963L21.4262 9.55818L22.1699 9.38629L21.8368 10.0731L22.4348 10.5473L21.6903 10.7151L21.6923 11.4784L21.0969 11.0008L20.5015 11.4784L20.5035 10.7151L19.759 10.5473L20.357 10.0731L20.024 9.38629L20.7676 9.55818L21.0969 8.86963Z" fill="#FFDA44" /><path d="M19.1836 12.5217L19.4426 13.3189H20.2808L19.6027 13.8116L19.8617 14.6087L19.1836 14.1161L18.5055 14.6087L18.7645 13.8116L18.0864 13.3189H18.9246L19.1836 12.5217Z" fill="#FFDA44" /><path d="M13.3043 15.3914C11.4313 15.3914 9.91297 13.873 9.91297 12.0001C9.91297 10.1272 11.4313 8.6088 13.3043 8.6088C13.8883 8.6088 14.4378 8.7565 14.9175 9.01642C14.165 8.28039 13.1358 7.82617 11.9999 7.82617C9.69477 7.82617 7.82605 9.69489 7.82605 12.0001C7.82605 14.3052 9.69477 16.174 11.9999 16.174C13.1358 16.174 14.165 15.7197 14.9175 14.9837C14.4378 15.2437 13.8883 15.3914 13.3043 15.3914Z" fill="#FFDA44" /><path d="M7.54622 4.69571C7.18529 4.07208 6.51146 3.65222 5.73915 3.65222C4.96683 3.65222 4.29301 4.07208 3.93207 4.69571H7.54622Z" fill="#FFDA44" /><path d="M7.55316 4.70776L5.73914 6.52178L3.92513 4.70776C3.75174 5.01203 3.65222 5.36392 3.65222 5.7392C3.65222 6.89181 4.58658 7.82617 5.73919 7.82617C6.8918 7.82617 7.82616 6.89186 7.82616 5.7392C7.82611 5.36392 7.72655 5.01203 7.55316 4.70776Z" fill="#FFDA44" /><path d="M5.21738 6V7.76034C5.38411 7.80323 5.55895 7.82606 5.7391 7.82606C5.91924 7.82606 6.09408 7.80319 6.26081 7.76034V6H5.21738Z" fill="#A2001D" /></g><defs><clipPath id="clip0_61_6468"><rect width={24} height={24} fill="white" /></clipPath></defs>
</svg>