<svg xmlns="http://www.w3.org/2000/svg" width="24" height="24" viewBox="0 0 24 24" fill="none">
<g clipPath="url(#clip0_61_5988)"><path d="M12 24C18.6274 24 24 18.6274 24 12C24 5.37258 18.6274 0 12 0C5.37258 0 0 5.37258 0 12C0 18.6274 5.37258 24 12 24Z" fill="#F0F0F0" /><path d="M23.2536 7.82605H0.746391C0.264047 9.12603 0 10.5321 0 11.9999C0 13.4678 0.264047 14.8738 0.746391 16.1738H23.2537C23.736 14.8738 24 13.4678 24 11.9999C24 10.5321 23.736 9.12603 23.2536 7.82605Z" fill="#D80027" /><path d="M12 0C8.36293 0 5.10404 1.61831 2.9034 4.17389H21.0966C18.896 1.61831 15.6371 0 12 0Z" fill="#0052B4" /><path d="M21.0966 19.826H2.9034C5.10404 22.3816 8.36293 23.9999 12 23.9999C15.6371 23.9999 18.896 22.3816 21.0966 19.826Z" fill="#0052B4" /></g><defs><clipPath id="clip0_61_5988"><rect width={24} height={24} fill="white" /></clipPath></defs>
</svg>