<svg xmlns="http://www.w3.org/2000/svg" width="24" height="24" viewBox="0 0 24 24" fill="none">
<g clipPath="url(#clip0_61_5953)"><path d="M24 12C24 10.5321 23.736 9.12602 23.2536 7.82609L12 7.30432L0.746391 7.82604C0.264047 9.12602 0 10.5321 0 12C0 13.4678 0.264047 14.8739 0.746391 16.1739L12 16.6956L23.2536 16.1739C23.736 14.8739 24 13.4678 24 12Z" fill="#F0F0F0" /><path d="M12 24.0001C17.1596 24.0001 21.5581 20.7436 23.2536 16.174H0.746399C2.44191 20.7436 6.84043 24.0001 12 24.0001Z" fill="#0052B4" /><path d="M0.746399 7.82611H23.2537C21.5581 3.2565 17.1596 0 12 0C6.84043 0 2.44191 3.2565 0.746399 7.82611Z" fill="#D80027" /><path d="M15.1304 8.3479H13.0435L13.3913 5.73916L14.7826 4.69568L16.1739 5.73916V7.82613L15.1304 8.3479Z" fill="#338AF3" /><path d="M8.86955 8.3479H10.9565L10.6087 5.73916L9.21736 4.69568L7.82611 5.73916V7.82613L8.86955 8.3479Z" fill="#338AF3" /><path d="M13.3913 8.3479H10.6086V5.73916L12 4.69568L13.3913 5.73916V8.3479Z" fill="#0052B4" /><path d="M7.82611 7.82617V13.5653C7.82611 14.9318 8.4862 16.1471 9.50433 16.909L10.2348 16.7262L11.1565 17.6535C11.4291 17.7096 11.7112 17.7392 12 17.7392C12.2874 17.7392 12.568 17.71 12.8392 17.6544L13.8914 16.7783L14.4957 16.9073C15.5134 16.1455 16.1739 14.9314 16.1739 13.5653V7.82617H7.82611Z" fill="#F0F0F0" /><path d="M7.82611 7.82605H9.49566V9.4956H7.82611V7.82605Z" fill="#D80027" /><path d="M11.1652 7.82605H12.8348V9.4956H11.1652V7.82605Z" fill="#D80027" /><path d="M14.5043 7.82605H16.1739V9.4956H14.5043V7.82605Z" fill="#D80027" /><path d="M9.49567 9.49561H11.1652V11.1652H9.49567V9.49561Z" fill="#D80027" /><path d="M12.8348 9.49561H14.5043V11.1652H12.8348V9.49561Z" fill="#D80027" /><path d="M7.82611 11.1647H9.49566V12.8342H7.82611V11.1647Z" fill="#D80027" /><path d="M9.49567 12.8342H11.1652V14.5038H9.49567V12.8342Z" fill="#D80027" /><path d="M11.1652 11.1647H12.8348V12.8342H11.1652V11.1647Z" fill="#D80027" /><path d="M14.5043 11.1647H16.1739V12.8342H14.5043V11.1647Z" fill="#D80027" /><path d="M12.8348 12.8342H14.5043V14.5038H12.8348V12.8342Z" fill="#D80027" /><path d="M11.1652 14.5038H12.8348V16.1733H11.1652V14.5038Z" fill="#D80027" /><path d="M9.49567 14.5039H7.93384C8.07709 15.1245 8.35871 15.6924 8.74487 16.1735H9.49567V14.5039Z" fill="#D80027" /><path d="M14.5043 16.1735H15.2551C15.6413 15.6924 15.9229 15.1245 16.0661 14.5039H14.5043V16.1735Z" fill="#D80027" /><path d="M9.49567 16.1735V16.9019C9.98124 17.2673 10.5487 17.5293 11.1652 17.655V16.1735H9.49567Z" fill="#D80027" /><path d="M12.8348 16.1735V17.655C13.4513 17.5294 14.0187 17.2673 14.5043 16.9019V16.1735H12.8348Z" fill="#D80027" /></g><defs><clipPath id="clip0_61_5953"><rect width={24} height={24} fill="white" /></clipPath></defs>
</svg>