<svg xmlns="http://www.w3.org/2000/svg" width="24" height="24" viewBox="0 0 24 24" fill="none">
<g clipPath="url(#clip0_61_4885)"><path d="M22.6675 6.49763C22.113 5.4233 21.3863 4.41493 20.4857 3.51436C19.5851 2.61375 18.5767 1.88696 17.5024 1.33252L9.04852 9.04843L1.33257 17.5023C1.88705 18.5766 2.61385 19.585 3.51441 20.4856C4.41497 21.3862 5.42339 22.113 6.49767 22.6674L14.9515 14.9515L22.6675 6.49763Z" fill="#FFDA44" /><path d="M3.5144 20.4857C4.01779 20.9891 4.55493 21.438 5.11832 21.8333L21.8332 5.11835C21.438 4.55496 20.989 4.01782 20.4856 3.51443C19.9822 3.01104 19.4451 2.56212 18.8817 2.16687L2.16684 18.8817C2.56204 19.445 3.01096 19.9823 3.5144 20.4857Z" fill="#D80027" /><path d="M3.51441 3.51431C-0.271541 7.30026 -0.998338 12.9861 1.33257 17.5023L17.5024 1.33251C12.9862 -0.998347 7.30032 -0.271457 3.51441 3.51431Z" fill="#338AF3" /><path d="M20.4856 20.4856C24.2715 16.6997 24.9983 11.0139 22.6675 6.49768L6.49771 22.6674C11.0139 24.9983 16.6998 24.2716 20.4856 20.4856Z" fill="#338AF3" /><path d="M6.39497 3.65186L7.0425 5.64484H9.138L7.44272 6.87653L8.09025 8.86946L6.39497 7.63773L4.69959 8.86946L5.34722 6.87653L3.65184 5.64484H5.74734L6.39497 3.65186Z" fill="#FFDA44" /></g><defs><clipPath id="clip0_61_4885"><rect width={24} height={24} fill="white" /></clipPath></defs>
</svg>