<svg xmlns="http://www.w3.org/2000/svg" width="24" height="24" viewBox="0 0 24 24" fill="none">
<g clipPath="url(#clip0_61_5837)"><path d="M12 24C18.6274 24 24 18.6274 24 12C24 5.37258 18.6274 0 12 0C5.37258 0 0 5.37258 0 12C0 18.6274 5.37258 24 12 24Z" fill="#F0F0F0" /><path d="M14.3478 23.7698C19.0917 22.8287 22.8287 19.0917 23.7697 14.3479H14.3478V23.7698Z" fill="#496E2D" /><path d="M0.230301 14.3479C1.17132 19.0917 4.90829 22.8287 9.65218 23.7698V14.3479H0.230301Z" fill="#496E2D" /><path d="M23.7697 9.65222C22.8287 4.90838 19.0917 1.17141 14.3478 0.230347V9.65222H23.7697Z" fill="#496E2D" /><path d="M9.65218 0.230347C4.90829 1.17141 1.17132 4.90838 0.230301 9.65222H9.65218V0.230347Z" fill="#496E2D" /><path d="M11.2174 14.3479H9.65218V23.7698C10.163 23.8711 10.6855 23.9397 11.2174 23.974V14.3479Z" fill="#FFDA44" /><path d="M11.2174 9.65219V0.026123C10.6855 0.0603418 10.1629 0.129014 9.65218 0.230311V9.65219H11.2174Z" fill="#FFDA44" /><path d="M12.7826 0.0261094C12.5238 0.009375 12.263 0 12 0C11.737 0 11.4762 0.009375 11.2174 0.0261094V9.65222H12.7826V0.0261094H12.7826Z" fill="black" /><path d="M11.2174 23.9738C11.4762 23.9906 11.737 24 12 24C12.263 24 12.5238 23.9906 12.7826 23.9738V14.3478H11.2174V23.9738H11.2174Z" fill="black" /><path d="M9.65217 11.2174V9.65222H0.230295C0.128952 10.1631 0.0603265 10.6855 0.0261078 11.2174H9.65217Z" fill="#FFDA44" /><path d="M14.3478 11.2174H23.9739C23.9397 10.6855 23.871 10.1631 23.7697 9.65222H14.3479V11.2174H14.3478Z" fill="#FFDA44" /><path d="M14.3478 12.7827H23.9739C23.9906 12.5239 24 12.263 24 12C24 11.737 23.9906 11.4762 23.9739 11.2174H14.3478V12.7827Z" fill="black" /><path d="M0.0261094 11.2174C0.00942187 11.4762 0 11.737 0 12C0 12.263 0.00942187 12.5239 0.0261094 12.7827H9.65222V11.2175H0.0261094V11.2174Z" fill="black" /><path d="M12 17.7391C15.1696 17.7391 17.7391 15.1696 17.7391 12C17.7391 8.83037 15.1696 6.26086 12 6.26086C8.83037 6.26086 6.26086 8.83037 6.26086 12C6.26086 15.1696 8.83037 17.7391 12 17.7391Z" fill="#D80027" /><path d="M13.3075 12.6403C12.8807 11.7866 12.3258 10.9213 12.3258 10.9213C12.3258 10.9213 12.3396 10.5273 12.3396 10.2925C12.3396 9.93891 12.0529 9.65222 11.6993 9.65222C11.3642 9.65222 11.0897 9.90961 11.0618 10.2373C10.7983 10.2545 10.5899 10.473 10.5899 10.7408C10.5899 10.9355 10.7002 11.1042 10.8616 11.1885C10.9419 11.0008 11.099 10.8543 11.2933 10.7875C11.325 10.8134 11.359 10.8366 11.3954 10.8562L11.4774 10.8955C11.4774 10.8955 11.1732 11.7529 11.1732 12.2135C11.1732 13.5083 12.027 13.9077 12.027 13.9077V13.921L11.6001 14.3479H12.4539V13.4941L12.8807 13.921C12.8845 13.913 13.6893 13.404 13.3075 12.6403Z" fill="#496E2D" /><path d="M12 7.30432L12.1943 7.90216H12.8229L12.3143 8.27168L12.5086 8.86952L12 8.50006L11.4914 8.86952L11.6857 8.27168L11.1772 7.90216H11.8058L12 7.30432Z" fill="#496E2D" /><path d="M9.24 8.2011L9.7485 8.57061L10.2571 8.20105L10.0628 8.79899L10.5714 9.16841L9.9428 9.16846L9.74855 9.7663L9.55425 9.16846L8.92566 9.16841L9.43421 8.79889L9.24 8.2011Z" fill="#496E2D" /><path d="M7.53418 10.549H8.16273L8.35702 9.95117L8.55127 10.549L9.17991 10.549L8.67137 10.9185L8.86566 11.5164L8.35702 11.1469L7.84848 11.5163L8.04268 10.9185L7.53418 10.549Z" fill="#496E2D" /><path d="M7.53418 13.451L8.04268 13.0815L7.84843 12.4836L8.35702 12.8532L8.86562 12.4836L8.67137 13.0815L9.17996 13.451L8.55127 13.451L8.35702 14.0488L8.16273 13.451H7.53418Z" fill="#496E2D" /><path d="M9.24 15.7988L9.43421 15.201L8.92561 14.8315H9.55425L9.74855 14.2336L9.9428 14.8315H10.5714L10.0628 15.201L10.2571 15.7988L9.7485 15.4293L9.24 15.7988Z" fill="#496E2D" /><path d="M12 16.6956L11.8058 16.0978H11.1772L11.6857 15.7283L11.4914 15.1304L12 15.4998L12.5086 15.1304L12.3143 15.7283L12.8229 16.0978L12.1943 16.0978L12 16.6956Z" fill="#496E2D" /><path d="M14.76 15.7988L14.2515 15.4293L13.743 15.7989L13.9372 15.201L13.4286 14.8315L14.0572 14.8315L14.2514 14.2336L14.4458 14.8315H15.0744L14.5658 15.201L14.76 15.7988Z" fill="#496E2D" /><path d="M16.4658 13.451H15.8373L15.643 14.0489L15.4487 13.4511H14.8201L15.3286 13.0816L15.1343 12.4838L15.643 12.8532L16.1515 12.4838L15.9573 13.0816L16.4658 13.451Z" fill="#496E2D" /><path d="M16.4658 10.549L15.9573 10.9184L16.1515 11.5163L15.643 11.1468L15.1344 11.5164L15.3286 10.9185L14.8201 10.549L15.4487 10.5489L15.6429 9.95117L15.8373 10.549H16.4658Z" fill="#496E2D" /><path d="M14.76 8.20117L14.5658 8.79897L15.0744 9.16848H14.4458L14.2515 9.76638L14.0572 9.16853L13.4286 9.16858L13.9372 8.79897L13.7429 8.20122L14.2515 8.57064L14.76 8.20117Z" fill="#496E2D" /></g><defs><clipPath id="clip0_61_5837"><rect width={24} height={24} fill="white" /></clipPath></defs>
</svg>