<svg xmlns="http://www.w3.org/2000/svg" width="24" height="24" viewBox="0 0 24 24" fill="none">
<g clipPath="url(#clip0_61_5945)"><path d="M24 12C24 10.5321 23.736 9.12602 23.2536 7.82609L12 7.30432L0.746391 7.82604C0.264047 9.12602 0 10.5321 0 12C0 13.4678 0.264047 14.8739 0.746391 16.1739L12 16.6956L23.2536 16.1739C23.736 14.8739 24 13.4678 24 12Z" fill="#F0F0F0" /><path d="M12 24.0001C17.1596 24.0001 21.5581 20.7436 23.2536 16.174H0.746399C2.44191 20.7436 6.84043 24.0001 12 24.0001Z" fill="#0052B4" /><path d="M0.746399 7.82611H23.2537C21.5581 3.2565 17.1596 0 12 0C6.84043 0 2.44191 3.2565 0.746399 7.82611Z" fill="#6DA544" /></g><defs><clipPath id="clip0_61_5945"><rect width={24} height={24} fill="white" /></clipPath></defs>
</svg>