<svg xmlns="http://www.w3.org/2000/svg" width="24" height="24" viewBox="0 0 24 24" fill="none">
<g clipPath="url(#clip0_61_5543)"><path d="M12 24C18.6274 24 24 18.6274 24 12C24 5.37258 18.6274 0 12 0C5.37258 0 0 5.37258 0 12C0 18.6274 5.37258 24 12 24Z" fill="#F0F0F0" /><path d="M12 0C9.87838 0 7.88582 0.551344 6.15651 1.51744V22.4826C7.88587 23.4487 9.87838 24 12 24C18.6274 24 24 18.6274 24 12C24 5.37262 18.6274 0 12 0Z" fill="#6DA544" /><path d="M6.19181 1.49768C5.43689 1.91604 4.73198 2.41329 4.08797 2.9786C4.15308 2.92151 4.21884 2.86507 4.28512 2.80938L13.4757 12L4.28508 21.1906C4.21875 21.1349 4.15303 21.0784 4.08792 21.0214C4.73194 21.5867 5.43689 22.0839 6.19177 22.5023L24 12L6.19181 1.49768Z" fill="#F0F0F0" /><path d="M5.17828 2.12732C4.81232 2.38073 4.46085 2.6534 4.12593 2.94482L12 12L4.12589 21.0553C4.46081 21.3467 4.81228 21.6194 5.17823 21.8728L21.9458 12L5.17828 2.12732Z" fill="#FFDA44" /><path d="M4.28508 2.80945C4.01832 3.0336 3.76088 3.26859 3.51469 3.51473L10.9565 12L3.51469 20.4854C3.76088 20.7315 4.01827 20.9666 4.28508 21.1906L13.4757 12L4.28508 2.80945Z" fill="black" /><path d="M3.51468 3.51465C-1.1716 8.20093 -1.1716 15.7989 3.51468 20.4853C5.45123 18.5487 7.31371 16.6862 12 12L3.51468 3.51465Z" fill="#D80027" /></g><defs><clipPath id="clip0_61_5543"><rect width={24} height={24} fill="white" /></clipPath></defs>
</svg>