<svg xmlns="http://www.w3.org/2000/svg" width="24" height="24" viewBox="0 0 24 24" fill="none">
<g clipPath="url(#clip0_61_4972)"><path d="M12 24C18.6274 24 24 18.6274 24 12C24 5.37258 18.6274 0 12 0C5.37258 0 0 5.37258 0 12C0 18.6274 5.37258 24 12 24Z" fill="#D80027" /><path d="M16.4431 8.04428L15.595 11.071L13.0501 10.6011L11.412 7.22449L6.98672 8.79485L6.63773 7.81141L5.47992 7.66877L6.35231 10.1273L9.39773 9.34849L10.2632 11.7873L8.15793 14.8943L11.7306 17.9415L11.0535 18.7354L11.5088 19.8095L13.2018 17.8246L11.0046 15.5766L12.684 13.6077L16.4273 13.8775L17.28 9.2598L18.3061 9.44932L19.0087 8.51791L16.4431 8.04428Z" fill="#F0F0F0" /></g><defs><clipPath id="clip0_61_4972"><rect width={24} height={24} fill="white" /></clipPath></defs>
</svg>