<svg xmlns="http://www.w3.org/2000/svg" width="24" height="24" viewBox="0 0 24 24" fill="none">
<g clipPath="url(#clip0_61_6840)"><path d="M12 24C18.6274 24 24 18.6274 24 12C24 5.37258 18.6274 0 12 0C5.37258 0 0 5.37258 0 12C0 18.6274 5.37258 24 12 24Z" fill="#F0F0F0" /><path d="M12 0C7.24248 0 3.13173 2.76867 1.19073 6.78263H22.8092C20.8683 2.76867 16.7575 0 12 0Z" fill="black" /><path d="M12 24C7.24248 24 3.13173 21.2314 1.19073 17.2174H22.8092C20.8683 21.2314 16.7575 24 12 24Z" fill="#496E2D" /><path d="M23.4333 8.34778H0.566672C0.199078 9.49945 0 10.7264 0 11.9999C0 13.2735 0.199078 14.5004 0.566672 15.6521H23.4333C23.8009 14.5004 24 13.2735 24 11.9999C24 10.7264 23.8009 9.49945 23.4333 8.34778Z" fill="#A2001D" /><path d="M15.7366 5.54533L14.3155 4.8894L12 10.1324L9.68448 4.8894L8.26337 5.54533L11.1381 12L8.26337 18.4546L9.68448 19.1105L12 13.8675L14.3155 19.1105L15.7366 18.4546L12.8619 12L15.7366 5.54533Z" fill="#F0F0F0" /><path d="M12.9652 6.16346C12.4151 5.56266 12 5.21729 12 5.21729C12 5.21729 11.5849 5.56261 11.0348 6.16346V17.8363C11.5849 18.4372 12 18.7825 12 18.7825C12 18.7825 12.4151 18.4372 12.9652 17.8363V6.16346Z" fill="#F0F0F0" /><path d="M9.3913 8.40202V15.5979C9.97264 16.628 10.6842 17.4723 11.2174 18.0321V5.9679C10.6842 6.52763 9.97259 7.37199 9.3913 8.40202Z" fill="#A2001D" /><path d="M14.6087 8.40202C14.0273 7.37194 13.3158 6.52763 12.7826 5.9679V18.0321C13.3158 17.4723 14.0273 16.628 14.6087 15.5979V8.40202Z" fill="#A2001D" /><path d="M14.6087 8.40198V15.5979C15.1972 14.5549 15.6522 13.3217 15.6522 12C15.6522 10.6782 15.1972 9.44495 14.6087 8.40198Z" fill="black" /><path d="M9.39132 8.40198V15.5979C8.80281 14.5549 8.34784 13.3217 8.34784 12C8.34784 10.6782 8.80281 9.44495 9.39132 8.40198Z" fill="black" /></g><defs><clipPath id="clip0_61_6840"><rect width={24} height={24} fill="white" /></clipPath></defs>
</svg>