<svg xmlns="http://www.w3.org/2000/svg" width="24" height="24" viewBox="0 0 24 24" fill="none">
<g clipPath="url(#clip0_61_5791)"><path d="M12 24C18.6274 24 24 18.6274 24 12C24 5.37258 18.6274 0 12 0C5.37258 0 0 5.37258 0 12C0 18.6274 5.37258 24 12 24Z" fill="#0052B4" /><path d="M5.27105 7.30432L5.53008 8.10157H6.3682L5.69015 8.59418L5.94914 9.39129L5.27105 8.89868L4.5929 9.39129L4.85198 8.59418L4.17389 8.10157H5.01197L5.27105 7.30432Z" fill="#F0F0F0" /><path d="M7.87976 6.52173L8.13879 7.31893H8.97692L8.29887 7.81154L8.55786 8.60865L7.87976 8.11604L7.20167 8.60865L7.4607 7.81154L6.78265 7.31893H7.62078L7.87976 6.52173Z" fill="#F0F0F0" /><path d="M10.4884 5.73914L10.7474 6.53634H11.5856L10.9075 7.029L11.1665 7.8261L10.4884 7.33345L9.81031 7.8261L10.0693 7.029L9.3913 6.53634H10.2294L10.4884 5.73914Z" fill="#F0F0F0" /><path d="M18.7289 7.30432L18.4699 8.10157H17.6318L18.3099 8.59418L18.0508 9.39129L18.7289 8.89868L19.4071 9.39129L19.148 8.59418L19.8261 8.10157H18.988L18.7289 7.30432Z" fill="#F0F0F0" /><path d="M16.1203 6.52173L15.8613 7.31893H15.0231L15.7012 7.81154L15.4422 8.60865L16.1203 8.11604L16.7984 8.60865L16.5394 7.81154L17.2174 7.31893H16.3793L16.1203 6.52173Z" fill="#F0F0F0" /><path d="M13.5116 5.73914L13.2526 6.53634H12.4144L13.0925 7.029L12.8335 7.8261L13.5116 7.33345L14.1897 7.8261L13.9306 7.029L14.6087 6.53634H13.7706L13.5116 5.73914Z" fill="#F0F0F0" /><path d="M14.087 12.5218L12 9.91309L10.9565 10.4348V11.4783L9.39132 12.5218H8.34784V13.8699C9.87728 14.4892 10.9565 15.9877 10.9565 17.7392H12V16.6957L13.0435 15.6522L14.087 16.6957L15.1305 15.6522V14.6087L16.1739 13.0435L14.087 12.5218Z" fill="#FFDA44" /></g><defs><clipPath id="clip0_61_5791"><rect width={24} height={24} fill="white" /></clipPath></defs>
</svg>