<svg xmlns="http://www.w3.org/2000/svg" width="24" height="24" viewBox="0 0 24 24" fill="none">
<g clipPath="url(#clip0_61_5230)"><path d="M24 12C24 18.6274 18.6274 24 12 24C5.37262 24 0 18.6274 0 12C0.521719 12 12 10.4348 12 10.4348L24 12Z" fill="#D80027" /><path d="M0 12C0 5.37262 5.37262 0 12 0C18.6274 0 24 5.37262 24 12" fill="#0052B4" /><path d="M8.86956 8.34785C8.86956 7.48343 8.16878 6.78265 7.30436 6.78265C6.90334 6.78265 6.53786 6.93358 6.26088 7.18151V6.26088H6.78259V5.2174H6.26088V4.69568H5.21739V5.2174H4.69567V6.26088H5.21739V7.18151C4.94041 6.93358 4.57492 6.78265 4.17391 6.78265C3.30948 6.78265 2.6087 7.48343 2.6087 8.34785C2.6087 8.8113 2.81031 9.22755 3.13042 9.51419V10.4348H8.3478V9.51419C8.668 9.22755 8.86956 8.8113 8.86956 8.34785Z" fill="#FFDA44" /></g><defs><clipPath id="clip0_61_5230"><rect width={24} height={24} fill="white" /></clipPath></defs>
</svg>