<svg xmlns="http://www.w3.org/2000/svg" width="24" height="24" viewBox="0 0 24 24" fill="none">
<g clipPath="url(#clip0_61_6874)"><path d="M23.2536 16.1739C23.736 14.8739 24 13.4678 24 12C24 10.5321 23.736 9.12601 23.2536 7.82608L12 6.78259L0.746391 7.82608C0.264 9.12601 0 10.5321 0 12C0 13.4678 0.264 14.8739 0.746391 16.1739L12 17.2173L23.2536 16.1739Z" fill="#6DA544" /><path d="M23.2536 7.82611C21.5581 3.2565 17.1596 0 12 0C6.84043 0 2.44191 3.2565 0.746399 7.82611H23.2536Z" fill="#FFDA44" /><path d="M12 24.0001C17.1596 24.0001 21.5581 20.7436 23.2536 16.174H0.746399C2.44191 20.7436 6.84043 24.0001 12 24.0001Z" fill="#D80027" /></g><defs><clipPath id="clip0_61_6874"><rect width={24} height={24} fill="white" /></clipPath></defs>
</svg>