<svg xmlns="http://www.w3.org/2000/svg" width="24" height="24" viewBox="0 0 24 24" fill="none">
<g clipPath="url(#clip0_61_5885)"><path d="M12 24C18.6274 24 24 18.6274 24 12C24 5.37258 18.6274 0 12 0C5.37258 0 0 5.37258 0 12C0 18.6274 5.37258 24 12 24Z" fill="#496E2D" /><path d="M14.087 11.4996C13.7924 11.4996 13.5128 11.5584 13.2531 11.6518C13.3953 11.3348 13.4907 10.982 13.4907 10.6053C13.4907 9.1146 12.0001 7.99658 12.0001 7.99658C12.0001 7.99658 10.5094 9.1146 10.5094 10.6053C10.5094 10.982 10.6048 11.3348 10.747 11.6518C10.4873 11.5585 10.2076 11.4996 9.91313 11.4996C8.42246 11.4996 7.30444 12.9903 7.30444 12.9903C7.30444 12.9903 8.42246 14.481 9.91313 14.481C10.7871 14.481 11.5325 13.9688 12.0001 13.5448C12.4677 13.9687 13.2131 14.481 14.0871 14.481C15.5777 14.481 16.6958 12.9903 16.6958 12.9903C16.6958 12.9903 15.5776 11.4996 14.087 11.4996Z" fill="#F0F0F0" /><path d="M12 4.69568L12.3079 5.6433H13.3043L12.4983 6.22905L12.806 7.17668L12 6.59093L11.194 7.17668L11.5017 6.22905L10.6956 5.6433H11.6921L12 4.69568Z" fill="#FFDA44" /><path d="M8.21095 6.35315L8.80335 6.88649L9.49368 6.48796L9.1695 7.21616L9.76186 7.7496L8.96911 7.66626L8.64492 8.39446L8.47907 7.61479L7.68637 7.53145L8.37665 7.13282L8.21095 6.35315Z" fill="#FFDA44" /><path d="M5.43723 9.12692L6.21694 9.29262L6.61552 8.60229L6.69887 9.395L7.47849 9.56084L6.75033 9.88508L6.83368 10.6777L6.30019 10.0855L5.57204 10.4097L5.97062 9.71928L5.43723 9.12692Z" fill="#FFDA44" /><path d="M15.7891 6.35315L15.1967 6.88649L14.5064 6.48796L14.8305 7.21616L14.2382 7.7496L15.0309 7.66626L15.3551 8.39446L15.521 7.61479L16.3137 7.53145L15.6234 7.13282L15.7891 6.35315Z" fill="#FFDA44" /><path d="M18.5628 9.12692L17.7831 9.29262L17.3846 8.60229L17.3012 9.395L16.5216 9.56084L17.2497 9.88508L17.1664 10.6777L17.6999 10.0855L18.428 10.4097L18.0295 9.71928L18.5628 9.12692Z" fill="#FFDA44" /><path d="M12 18.655C13.1841 18.655 14.2755 18.2599 15.1511 17.5952H8.84897C9.7245 18.2599 10.8159 18.655 12 18.655Z" fill="#F0F0F0" /><path d="M7.21719 15.5245C7.3828 15.9036 7.5928 16.2586 7.83946 16.5843H16.1606C16.4073 16.2586 16.6173 15.9036 16.7829 15.5245H7.21719Z" fill="#F0F0F0" /></g><defs><clipPath id="clip0_61_5885"><rect width={24} height={24} fill="white" /></clipPath></defs>
</svg>