<svg xmlns="http://www.w3.org/2000/svg" width="24" height="24" viewBox="0 0 24 24" fill="none">
<g clipPath="url(#clip0_61_6498)"><path d="M12 24C18.6274 24 24 18.6274 24 12C24 5.37258 18.6274 0 12 0C5.37258 0 0 5.37258 0 12C0 18.6274 5.37258 24 12 24Z" fill="#D80027" /><path d="M19.0922 9.84846H13.6734L12 4.6969L10.3266 9.84846H4.90781L9.29062 13.0313L7.61718 18.1828L12 15L16.3828 18.1828L14.7094 13.0313L19.0922 9.84846ZM10.5187 12.6328L11.0859 10.8891H12.9187L13.4859 12.6328L12.0047 13.711L10.5187 12.6328ZM12.5766 9.84846H11.4234L12 8.0719L12.5766 9.84846ZM14.3719 11.9906L14.0156 10.8938H15.8812L14.3719 11.9906ZM9.98906 10.8938L9.63281 11.9906L8.12343 10.8938H9.98906ZM9.59999 15.4547L10.1766 13.6781L11.1094 14.3578L9.59999 15.4547ZM12.8859 14.3578L13.8187 13.6781L14.3953 15.4547L12.8859 14.3578Z" fill="#6DA544" /></g><defs><clipPath id="clip0_61_6498"><rect width={24} height={24} fill="white" /></clipPath></defs>
</svg>