<svg xmlns="http://www.w3.org/2000/svg" width="24" height="24" viewBox="0 0 24 24" fill="none">
<g clipPath="url(#clip0_61_6991)"><path d="M12 24C18.6274 24 24 18.6274 24 12C24 5.37258 18.6274 0 12 0C5.37258 0 0 5.37258 0 12C0 18.6274 5.37258 24 12 24Z" fill="#F0F0F0" /><path d="M6.48614 16.6957L3.51511 20.4849C5.68654 22.6566 8.68622 24 12 24C16.9608 24 21.2177 20.9893 23.0452 16.6957H6.48614Z" fill="#FFDA44" /><path d="M23.0639 7.3478C21.2466 3.03103 16.9776 0 12 0C8.68622 0 5.68654 1.34339 3.51511 3.51511L6.52026 7.3478H23.0639Z" fill="#496E2D" /><path d="M2.60869 8.82605V15.1304H23.5867C23.8558 14.1323 24 13.0831 24 12C24 10.9011 23.852 9.83705 23.5753 8.82605H2.60869Z" fill="black" /><path d="M3.51469 3.51465C-1.17159 8.20093 -1.17159 15.7989 3.51469 20.4853C5.45123 18.5487 7.31372 16.6862 12 12L3.51469 3.51465Z" fill="#A2001D" /><path d="M4.85672 8.86951L5.63367 11.2609H8.14833L6.11404 12.7389L6.89095 15.1304L4.85672 13.6524L2.82239 15.1304L3.59948 12.7389L1.5652 11.2609H4.07967L4.85672 8.86951Z" fill="#FFDA44" /><path d="M2.58314 12H7.13114V14.087H2.58314V12Z" fill="#F0F0F0" /><path d="M7.99219 9.60741L7.25433 8.86951L4.85677 11.2671L2.4592 8.86951L1.72134 9.60741L4.12102 12.0028L1.72134 14.4025L2.4592 15.1304L4.85677 12.7372L7.25433 15.1304L7.99219 14.4025L5.59252 12.0028L7.99219 9.60741Z" fill="black" /></g><defs><clipPath id="clip0_61_6991"><rect width={24} height={24} fill="white" /></clipPath></defs>
</svg>