<svg xmlns="http://www.w3.org/2000/svg" width="24" height="24" viewBox="0 0 24 24" fill="none">
<g clipPath="url(#clip0_61_6898)"><path d="M12 24C18.6274 24 24 18.6274 24 12C24 5.37258 18.6274 0 12 0C5.37258 0 0 5.37258 0 12C0 18.6274 5.37258 24 12 24Z" fill="#F0F0F0" /><path d="M3.51474 20.4853C4.01813 20.9887 4.55522 21.4376 5.11861 21.8328L21.8328 5.11863C21.4376 4.55524 20.9887 4.01814 20.4852 3.51475C19.9818 3.01136 19.4447 2.56249 18.8813 2.16724L2.16722 18.8815C2.56242 19.4448 3.01135 19.9819 3.51474 20.4853Z" fill="#A2001D" /><path d="M3.51474 3.51465C-0.271074 7.30047 -0.997824 12.986 1.33294 17.5021L17.5021 1.33295C12.9861 -0.997814 7.30046 -0.27097 3.51474 3.51465Z" fill="#0052B4" /><path d="M20.4853 20.4853C24.271 16.6996 24.9977 11.014 22.6671 6.49792L6.49791 22.6671C11.0139 24.9978 16.6995 24.2711 20.4853 20.4853Z" fill="#496E2D" /><path d="M9.91303 6.78267L8.56837 7.41516L9.28443 8.71744L7.82433 8.43816L7.63926 9.91308L6.62226 8.82825L5.60522 9.91308L5.42025 8.43816L3.96009 8.71739L4.67611 7.41511L3.3315 6.78267L4.67615 6.15014L3.96009 4.84796L5.4202 5.12724L5.60526 3.65222L6.62226 4.7371L7.63931 3.65222L7.82433 5.12724L9.28443 4.84796L8.56847 6.15019L9.91303 6.78267Z" fill="#FFDA44" /></g><defs><clipPath id="clip0_61_6898"><rect width={24} height={24} fill="white" /></clipPath></defs>
</svg>