<svg xmlns="http://www.w3.org/2000/svg" width="24" height="24" viewBox="0 0 24 24" fill="none">
<g clipPath="url(#clip0_61_5897)"><path d="M24 12C24 18.6274 18.6274 24 12 24C5.37262 24 0 18.6274 0 12C0 12.0029 12 0.0013125 12 0C18.6274 0 24 5.37262 24 12Z" fill="#FFDA44" /><path d="M12 5.73914V9.78646L7.82611 5.73914H12Z" fill="#0052B4" /><path d="M6.26085 12H9.78637L6.26085 7.30432L5.73914 10.9565L6.26085 12Z" fill="#0052B4" /><path d="M11.9679 12H12C12 11.9892 12 11.9787 12 11.9679C11.9893 11.9786 11.9786 11.9893 11.9679 12Z" fill="#F0F0F0" /><path d="M12 6.26086C12 4.14937 12 2.76586 12 0H11.998C5.37145 0.001125 0 5.37323 0 12H6.26086V8.47448L9.78638 12H11.9679C11.9786 11.9893 11.9893 11.9786 12 11.9679C12 11.1594 12 10.4381 12 9.78647L8.47444 6.26086H12Z" fill="#F0F0F0" /><path d="M12 10.5243L7.73649 6.26086H6.26086V6.26096L11.9999 12H12C12 12 12 10.9824 12 10.5243Z" fill="#D80027" /><path d="M6.07103 1.56519C5.60842 1.82862 5.16522 2.1222 4.74372 2.44269H5.23609L3.93475 3.38834L4.43172 4.9182L3.13037 3.97273L2.9919 4.07337C2.45158 4.68697 1.97251 5.35578 1.56522 6.071V12H4.69567V4.69573V4.69564H12C12 3.70831 12 2.76772 12 1.56519H6.07103Z" fill="#D80027" /><path d="M5.12625 2.16333C4.99683 2.25394 4.86924 2.34708 4.74356 2.44266L3.93474 3.38831L3.13036 3.97266L2.99072 4.0741C2.69606 4.40878 2.41974 4.75997 2.16333 5.1262C2.4556 5.26805 2.78367 5.34778 3.13036 5.34778C4.35502 5.34778 5.34774 4.35506 5.34774 3.13041C5.34783 2.78363 5.26814 2.45564 5.12625 2.16333Z" fill="#0052B4" /><path d="M2.99078 4.07406L3.13042 3.97263L4.43177 4.91814L3.93475 3.38828L5.236 2.44263H4.74353C4.10631 2.92727 3.51911 3.47402 2.99078 4.07406Z" fill="#FFDA44" /><path d="M8.29418 2.08691L8.55321 2.88402H9.39134L8.71329 3.37673L8.97218 4.17384L8.29418 3.68118L7.61613 4.17384L7.87498 3.37673L7.19693 2.88402H8.0351L8.29418 2.08691Z" fill="#FFDA44" /><path d="M3.13047 7.30432L3.3895 8.10143H4.22762L3.54962 8.59418L3.80851 9.39129L3.13047 8.89859L2.45237 9.39129L2.71126 8.59418L2.03326 8.10143H2.87139L3.13047 7.30432Z" fill="#FFDA44" /></g><defs><clipPath id="clip0_61_5897"><rect width={24} height={24} fill="white" /></clipPath></defs>
</svg>