<svg xmlns="http://www.w3.org/2000/svg" width="24" height="24" viewBox="0 0 24 24" fill="none">
<g clipPath="url(#clip0_61_6788)"><path d="M12 24C18.6274 24 24 18.6274 24 12C24 5.37258 18.6274 0 12 0C5.37258 0 0 5.37258 0 12C0 18.6274 5.37258 24 12 24Z" fill="#F0F0F0" /><path d="M12 0C8.36293 0 5.10404 1.61831 2.9034 4.17389H21.0966C18.896 1.61831 15.6371 0 12 0Z" fill="#0052B4" /><path d="M21.0966 19.826H2.9034C5.10404 22.3816 8.36293 23.9999 12 23.9999C15.6371 23.9999 18.896 22.3816 21.0966 19.826Z" fill="#0052B4" /><path d="M22.2387 5.73914H1.76128C0.644297 7.56187 0 9.7056 0 12C0 14.2944 0.644297 16.4382 1.76128 18.2609H22.2387C23.3557 16.4382 24 14.2944 24 12C24 9.7056 23.3557 7.56187 22.2387 5.73914Z" fill="#D80027" /><path d="M7.38262 16.6173C9.93272 16.6173 12 14.55 12 11.9999C12 9.44984 9.93272 7.38257 7.38262 7.38257C4.83251 7.38257 2.76524 9.44984 2.76524 11.9999C2.76524 14.55 4.83251 16.6173 7.38262 16.6173Z" fill="#F0F0F0" /><path d="M7.38262 7.38257L8.41861 10.5711H11.7766L9.05896 12.5418L10.1031 15.7398L7.38262 13.7597L4.66631 15.7361L5.70628 12.5418L2.99104 10.5711H6.34659L7.38262 7.38257Z" fill="#D80027" /></g><defs><clipPath id="clip0_61_6788"><rect width={24} height={24} fill="white" /></clipPath></defs>
</svg>