<svg xmlns="http://www.w3.org/2000/svg" width="24" height="24" viewBox="0 0 24 24" fill="none">
<g clipPath="url(#clip0_61_7000)"><path d="M12 24C18.6274 24 24 18.6274 24 12C24 5.37258 18.6274 0 12 0C5.37258 0 0 5.37258 0 12C0 18.6274 5.37258 24 12 24Z" fill="#F0F0F0" /><path d="M12 0C8.07413 0 4.58874 1.88545 2.39949 4.8H21.6005C19.4113 1.88545 15.9259 0 12 0Z" fill="#D80027" /><path d="M12 24C15.9259 24 19.4113 22.1145 21.6005 19.2H2.39949C4.58874 22.1145 8.07413 24 12 24Z" fill="#D80027" /><path d="M0 12C0 12.8219 0.082875 13.6245 0.240328 14.4H23.7598C23.9172 13.6245 24 12.8219 24 12C24 11.178 23.9171 10.3754 23.7597 9.59998H0.240328C0.082875 10.3754 0 11.178 0 12H0Z" fill="#D80027" /><path d="M3.51468 3.51465C-1.1716 8.20093 -1.1716 15.7989 3.51468 20.4853C5.45123 18.5487 7.31371 16.6862 12 12L3.51468 3.51465Z" fill="#0052B4" /><path d="M4.85672 8.86951L5.63367 11.2609H8.14833L6.11404 12.7389L6.89095 15.1304L4.85672 13.6524L2.82239 15.1304L3.59948 12.7389L1.5652 11.2609H4.07967L4.85672 8.86951Z" fill="#F0F0F0" /></g><defs><clipPath id="clip0_61_7000"><rect width={24} height={24} fill="white" /></clipPath></defs>
</svg>