<svg xmlns="http://www.w3.org/2000/svg" width="24" height="24" viewBox="0 0 24 24" fill="none">
<g clipPath="url(#clip0_61_5643)"><path d="M12 24C18.6274 24 24 18.6274 24 12C24 5.37258 18.6274 0 12 0C5.37258 0 0 5.37258 0 12C0 18.6274 5.37258 24 12 24Z" fill="#F0F0F0" /><path d="M12 4.44542e-06C11.9888 -0.00843306 -0.00318686 11.9969 6.35322e-07 12C6.35322e-07 5.37263 5.37262 4.44542e-06 12 4.44542e-06Z" fill="#D80027" /><path d="M12 4.44543e-06C12.0112 -0.00843306 24.0032 11.9968 24 12C24 5.37263 18.6274 4.44543e-06 12 4.44543e-06Z" fill="#D80027" /><path d="M12 24C11.9888 24.0084 -0.00318686 12.0032 6.35322e-07 12C6.35322e-07 18.6274 5.37262 24 12 24Z" fill="#0052B4" /><path d="M12 24C12.0112 24.0084 24.0032 12.0032 24 12C24 18.6274 18.6274 24 12 24Z" fill="#0052B4" /><path d="M12 6.26086L13.295 10.2466H17.4859L14.0954 12.7099L15.3904 16.6957L12 14.2323L8.60951 16.6957L9.90457 12.7099L6.5141 10.2466H10.7049L12 6.26086Z" fill="#FFDA44" /></g><defs><clipPath id="clip0_61_5643"><rect width={24} height={24} fill="white" /></clipPath></defs>
</svg>