<svg xmlns="http://www.w3.org/2000/svg" width="24" height="24" viewBox="0 0 24 24" fill="none">
<g clipPath="url(#clip0_61_5241)"><path d="M24 12C24 18.6274 18.6274 24 12 24C5.37262 24 0 18.6274 0 12C0.521719 12 12 10.4348 12 10.4348L24 12Z" fill="#338AF3" /><path d="M0 12C0 5.37262 5.37262 0 12 0C18.6274 0 24 5.37262 24 12" fill="#F0F0F0" /><path d="M16.7633 8.28015L12 13.0434L7.23677 8.28015C6.62079 9.19454 6.26093 10.2951 6.26093 11.4782V13.0434C6.26093 15.5567 7.88491 17.6976 10.1385 18.4725C9.83772 19.062 9.88844 19.7977 10.3292 20.3477C10.9146 19.8786 11.5206 19.3929 12.0348 18.981C12.5489 19.3929 13.155 19.8786 13.7403 20.3477C14.1862 19.7912 14.2333 19.0445 13.9206 18.4516C16.1434 17.6598 17.7391 15.5346 17.7391 13.0434V11.4782C17.7392 10.2951 17.3793 9.19459 16.7633 8.28015Z" fill="#6DA544" /><path d="M12 17.2174C9.69849 17.2174 7.82611 15.345 7.82611 13.0435V11.4783C7.82611 9.17682 9.69853 7.30444 12 7.30444C14.3015 7.30444 16.1739 9.17687 16.1739 11.4783V13.0435C16.1739 15.345 14.3015 17.2174 12 17.2174Z" fill="#FFDA44" /><path d="M14.6087 13.0435V11.4783C14.6087 10.0399 13.4384 8.86963 12 8.86963C10.5616 8.86963 9.3913 10.0399 9.3913 11.4783V13.0435L12 13.5652L14.6087 13.0435Z" fill="#338AF3" /><path d="M9.3913 13.0435C9.3913 14.4819 10.5616 15.6521 12 15.6521C13.4384 15.6521 14.6087 14.4819 14.6087 13.0435H9.3913Z" fill="#6DA544" /><path d="M15.1304 7.30439C15.1304 6.43997 14.4296 5.73919 13.5652 5.73919C13.1642 5.73919 12.7987 5.89013 12.5217 6.13805V5.21742H13.0435V4.17394H12.5217V3.65222H11.4783V4.17394H10.9565V5.21742H11.4783V6.13805C11.2013 5.89013 10.8357 5.73919 10.4348 5.73919C9.57035 5.73919 8.86957 6.43997 8.86957 7.30439C8.86957 7.76785 9.07118 8.1841 9.39129 8.47074V9.39136H14.6087V8.47074C14.9288 8.1841 15.1304 7.76785 15.1304 7.30439Z" fill="#FFDA44" /></g><defs><clipPath id="clip0_61_5241"><rect width={24} height={24} fill="white" /></clipPath></defs>
</svg>