<svg xmlns="http://www.w3.org/2000/svg" width="24" height="24" viewBox="0 0 24 24" fill="none">
<g clipPath="url(#clip0_61_5994)"><path d="M12 24C18.6274 24 24 18.6274 24 12C24 5.37258 18.6274 0 12 0C5.37258 0 0 5.37258 0 12C0 18.6274 5.37258 24 12 24Z" fill="#F0F0F0" /><path d="M0 12C0 5.37263 5.37262 0 12 0C18.6274 0 24 5.37263 24 12" fill="#D80027" /><path d="M7.30436 6.26077C7.30436 4.51242 8.53309 3.05189 10.1739 2.69353C9.92171 2.6385 9.66011 2.60864 9.39128 2.60864C7.3742 2.60864 5.73911 4.24374 5.73911 6.26081C5.73911 8.27789 7.3742 9.91299 9.39128 9.91299C9.66001 9.91299 9.92167 9.88313 10.1739 9.82805C8.53309 9.46969 7.30436 8.00916 7.30436 6.26077Z" fill="#F0F0F0" /><path d="M12 2.86951L12.2591 3.66662H13.0972L12.4191 4.15932L12.6781 4.95643L12 4.46382L11.3219 4.95643L11.581 4.15932L10.9029 3.66662H11.741L12 2.86951Z" fill="#F0F0F0" /><path d="M9.96682 4.43469L10.2258 5.23185H11.064L10.3859 5.7245L10.6449 6.52161L9.96682 6.029L9.28863 6.52161L9.54771 5.7245L8.86957 5.23185H9.70774L9.96682 4.43469Z" fill="#F0F0F0" /><path d="M14.0333 4.43469L14.2923 5.23185H15.1305L14.4523 5.7245L14.7114 6.52161L14.0333 6.029L13.3552 6.52161L13.6142 5.7245L12.9361 5.23185H13.7742L14.0333 4.43469Z" fill="#F0F0F0" /><path d="M13.2507 6.78259L13.5097 7.57975H14.3478L13.6698 8.0724L13.9288 8.86951L13.2507 8.3769L12.5726 8.86951L12.8316 8.0724L12.1535 7.57975H12.9916L13.2507 6.78259Z" fill="#F0F0F0" /><path d="M10.7494 6.78259L11.0084 7.57975H11.8466L11.1685 8.0724L11.4275 8.86951L10.7494 8.3769L10.0713 8.86951L10.3303 8.0724L9.65219 7.57975H10.4904L10.7494 6.78259Z" fill="#F0F0F0" /></g><defs><clipPath id="clip0_61_5994"><rect width={24} height={24} fill="white" /></clipPath></defs>
</svg>