<svg xmlns="http://www.w3.org/2000/svg" width="24" height="24" viewBox="0 0 24 24" fill="none">
<g clipPath="url(#clip0_61_5660)"><path d="M5.23657 21.913C7.16248 23.2295 9.49109 24 12 24C14.509 24 16.8376 23.2295 18.7635 21.913L12 20.8695L5.23657 21.913Z" fill="#D80027" /><path d="M18.7635 2.08697C16.8376 0.770484 14.509 0 12 0C9.49109 0 7.16238 0.770484 5.23657 2.08697L12 3.13045L18.7635 2.08697Z" fill="#D80027" /><path d="M5.23657 21.913C7.16248 23.2295 9.49109 24 12 24C14.509 24 16.8376 23.2295 18.7635 21.913L12 20.8695L5.23657 21.913Z" fill="#D80027" /><path d="M18.7635 2.08697C16.8376 0.770484 14.509 0 12 0C9.49109 0 7.16238 0.770484 5.23657 2.08697L12 3.13045L18.7635 2.08697Z" fill="#D80027" /><path d="M23.9694 11.2174C23.6851 7.51377 21.4348 3.91302 18.7634 2.08691H5.23654C2.27704 4.11009 0.26952 7.42359 0.0252075 11.2174L12 12L23.9694 11.2174Z" fill="#0052B4" /><path d="M0.0252075 12.7826C0.26952 16.5765 2.27699 19.8899 5.23649 21.9131H18.7634C21.723 19.89 23.7304 16.5765 23.9747 12.7826L12 12L0.0252075 12.7826Z" fill="#0052B4" /><path d="M23.9694 11.2173H12.7826V1.56519H11.2174V11.2173H0.0252656C0.008625 11.4761 0 11.737 0 12C0 12.2629 0.00857813 12.5238 0.0252187 12.7826H11.2174V22.4348H12.7826V12.7826H23.9748C23.9914 12.5238 24 12.2629 24 12C24 11.7389 23.9895 11.4779 23.9694 11.2173Z" fill="#D80027" /><path d="M4.69568 12L12 7.40894L19.3044 12L12 16.591L4.69568 12Z" fill="#F0F0F0" /><path d="M7.82611 14.087H17.2174L15.1305 10.9565L14.087 12L13.0435 11.4783L12 13.0435H9.91303L8.86955 12L7.82611 14.087Z" fill="#6DA544" /><path d="M12 8.86951L12.259 9.66662H13.0971L12.4191 10.1593L12.6781 10.9565L12 10.4638L11.3219 10.9565L11.5809 10.1593L10.9029 9.66662H11.741L12 8.86951Z" fill="#FFDA44" /><path d="M12 6.09717L2.6087 11.9999L12 17.9027L21.3913 11.9999L12 6.09717ZM5.55002 11.9999L12 7.94587L18.45 11.9999L12 16.054L5.55002 11.9999Z" fill="#D80027" /></g><defs><clipPath id="clip0_61_5660"><rect width={24} height={24} fill="white" /></clipPath></defs>
</svg>