<svg xmlns="http://www.w3.org/2000/svg" width="24" height="24" viewBox="0 0 24 24" fill="none">
<g clipPath="url(#clip0_61_5675)"><path d="M10.9565 13.0435C10.9565 13.0435 3.52172 3.51305 3.51469 3.51473C5.68622 1.34316 8.68626 0 12 0C18.6274 0 24 5.37262 24 12L10.9565 13.0435Z" fill="#D80027" /><path d="M10.9565 12C10.9565 12 3.52172 20.487 3.51469 20.4853C5.68622 22.6568 8.68626 24 12 24C18.6274 24 24 18.6274 24 12H10.9565Z" fill="#0052B4" /><path d="M3.51469 3.51465C-1.17159 8.20093 -1.17159 15.7989 3.51469 20.4853C5.45123 18.5487 7.31372 16.6862 12 12L3.51469 3.51465Z" fill="#F0F0F0" /><path d="M1.31536 12C1.3088 12.0862 1.30434 12.173 1.30434 12.2608C1.30434 14.1337 2.82272 15.6521 4.69566 15.6521C6.56859 15.6521 8.08697 14.1337 8.08697 12.2608C8.08697 12.173 8.08252 12.0861 8.07595 12H1.31536Z" fill="#FFDA44" /><path d="M4.69566 10.4347C5.27196 10.4347 5.73914 9.96756 5.73914 9.39126C5.73914 8.81496 5.27196 8.34778 4.69566 8.34778C4.11936 8.34778 3.65218 8.81496 3.65218 9.39126C3.65218 9.96756 4.11936 10.4347 4.69566 10.4347Z" fill="#FFDA44" /><path d="M2.34783 9.13049V12.5218C2.34783 14.319 4.69566 14.8696 4.69566 14.8696C4.69566 14.8696 7.04349 14.319 7.04349 12.5218V9.13049H2.34783Z" fill="#D80027" /><path d="M4.69678 13.7776C4.26122 13.6208 3.39127 13.2202 3.39127 12.5218V10.174H6V12.5218C6 13.2225 5.13014 13.6221 4.69678 13.7776Z" fill="#338AF3" /><path d="M5.21738 11.4783V10.9565L4.69566 10.6957L4.17389 10.9565V11.4783L3.91303 11.7392V12.7826H5.47828V11.7392L5.21738 11.4783Z" fill="#F3F3F3" /></g><defs><clipPath id="clip0_61_5675"><rect width={24} height={24} fill="white" /></clipPath></defs>
</svg>