<svg xmlns="http://www.w3.org/2000/svg" width="24" height="24" viewBox="0 0 24 24" fill="none">
<g clipPath="url(#clip0_61_7008)"><path d="M12 24C18.6274 24 24 18.6274 24 12C24 5.37258 18.6274 0 12 0C5.37258 0 0 5.37258 0 12C0 18.6274 5.37258 24 12 24Z" fill="#F0F0F0" /><path d="M23.2536 7.82613H10.4348V4.69568H4.17389V7.82613H0.746391C0.264047 9.12607 0 10.5322 0 12C0 13.4679 0.264047 14.8739 0.746391 16.1739L12 17.2174L23.2536 16.1739C23.736 14.8739 24 13.4679 24 12C24 10.5322 23.736 9.12607 23.2536 7.82613Z" fill="#0052B4" /><path d="M12 24.0001C17.1596 24.0001 21.5581 20.7436 23.2536 16.174H0.746384C2.4419 20.7436 6.84041 24.0001 12 24.0001Z" fill="#D80027" /><path d="M4.17389 7.82616V8.8696C4.17389 11.2659 7.30434 12.0001 7.30434 12.0001C7.30434 12.0001 10.4348 11.2659 10.4348 8.8696V7.82616L9.39131 8.86965L7.30434 7.30444L5.21737 8.86965L4.17389 7.82616Z" fill="#F0F0F0" /></g><defs><clipPath id="clip0_61_7008"><rect width={24} height={24} fill="white" /></clipPath></defs>
</svg>