<svg xmlns="http://www.w3.org/2000/svg" width="24" height="24" viewBox="0 0 24 24" fill="none">
<g clipPath="url(#clip0_61_5691)"><path d="M20.4856 20.4856C24.9861 15.9851 25.1638 8.79988 21.0206 4.08618L12 11.9999L4.08618 21.0206C8.79988 25.1638 15.9851 24.9861 20.4856 20.4856Z" fill="#496E2D" /><path d="M3.51439 3.5144C8.0149 -0.986107 15.2001 -1.16381 19.9138 2.97942L12 12.0001L2.97946 19.9138C-1.16382 15.2001 -0.986068 8.01491 3.51439 3.5144Z" fill="#0052B4" /><path d="M19.9137 2.97937L2.97937 19.9138C3.15056 20.1085 3.32831 20.2996 3.51435 20.4856C3.70035 20.6716 3.89146 20.8493 4.08627 21.0206L21.0205 4.08618C20.8494 3.89137 20.6716 3.70031 20.4855 3.51426C20.2996 3.32835 20.1085 3.15056 19.9137 2.97937Z" fill="#FFDA44" /><path d="M5.05597 4.17358L5.31505 4.97079H6.15322L5.47513 5.46339L5.73411 6.2606L5.05597 5.76789L4.37783 6.2606L4.63691 5.46339L3.95877 4.97079H4.79699L5.05597 4.17358Z" fill="#F0F0F0" /><path d="M9.33748 4.17358L9.59656 4.97079H10.4347L9.75659 5.46339L10.0156 6.2606L9.33748 5.76789L8.65934 6.2606L8.91842 5.46339L8.24028 4.97079H9.07845L9.33748 4.17358Z" fill="#F0F0F0" /><path d="M5.05597 8.34766L5.31505 9.14486H6.15322L5.47513 9.63751L5.73411 10.4347L5.05597 9.94201L4.37783 10.4347L4.63691 9.63751L3.95877 9.14486H4.79699L5.05597 8.34766Z" fill="#F0F0F0" /><path d="M9.33748 8.34766L9.59656 9.14486H10.4347L9.75659 9.63751L10.0156 10.4347L9.33748 9.94201L8.65934 10.4347L8.91842 9.63751L8.24028 9.14486H9.07845L9.33748 8.34766Z" fill="#F0F0F0" /><path d="M7.19675 6.26062L7.45583 7.05782H8.29395L7.61586 7.55048L7.87489 8.34768L7.19675 7.85498L6.51861 8.34768L6.77764 7.55048L6.0995 7.05782H6.93772L7.19675 6.26062Z" fill="#F0F0F0" /></g><defs><clipPath id="clip0_61_5691"><rect width={24} height={24} fill="white" /></clipPath></defs>
</svg>