<svg xmlns="http://www.w3.org/2000/svg" width="24" height="24" viewBox="0 0 24 24" fill="none">
<g clipPath="url(#clip0_61_5701)"><path d="M23.2536 16.1739C23.736 14.8739 24 13.4678 24 12C24 10.5321 23.736 9.12606 23.2536 7.82608L12 6.78259L0.746391 7.82608C0.264047 9.12606 0 10.5321 0 12C0 13.4678 0.264047 14.8739 0.746391 16.1739L12 17.2173L23.2536 16.1739Z" fill="#F0F0F0" /><path d="M12 24.0001C17.1595 24.0001 21.5581 20.7436 23.2536 16.174H0.746338C2.4419 20.7436 6.84037 24.0001 12 24.0001Z" fill="#D80027" /><path d="M12 0C6.84037 0 2.4419 3.2565 0.746338 7.82611H23.2536C21.5581 3.2565 17.1595 0 12 0Z" fill="#496E2D" /><path d="M12 9.39136L12.6475 11.3842H14.7429L13.0477 12.6159L13.6953 14.6087L12 13.3772L10.3047 14.6087L10.9523 12.6159L9.25705 11.3842H11.3525L12 9.39136Z" fill="black" /><path d="M15.5652 2.34778V4.78251C15.5652 5.16618 15.2532 5.47818 14.8696 5.47818V6.52167C15.8286 6.52167 16.6087 5.74153 16.6087 4.78251V2.34778H15.5652Z" fill="#F0F0F0" /><path d="M8.08697 4.78251C8.08697 5.16618 7.77492 5.47818 7.3913 5.47818V6.52167C8.35031 6.52167 9.13045 5.74153 9.13045 4.78251V2.34778H8.08697V4.78251Z" fill="#F0F0F0" /><path d="M13.9998 2.34778H15.0433V4.78251H13.9998V2.34778Z" fill="#F0F0F0" /><path d="M12.4348 3.73903C12.4348 3.83493 12.3567 3.91298 12.2609 3.91298C12.165 3.91298 12.0869 3.83493 12.0869 3.73903V2.34778H11.0434V3.73903C11.0434 3.83493 10.9654 3.91298 10.8695 3.91298C10.7736 3.91298 10.6956 3.83493 10.6956 3.73903V2.34778H9.65213V3.73903C9.65213 4.41037 10.1982 4.95647 10.8695 4.95647C11.128 4.95647 11.3678 4.87523 11.5651 4.73728C11.7625 4.87523 12.0023 4.95647 12.2608 4.95647C12.3129 4.95647 12.3641 4.95281 12.4144 4.94639C12.3405 5.25103 12.0661 5.47818 11.7391 5.47818V6.52167C12.6981 6.52167 13.4782 5.74153 13.4782 4.78251V3.73903V2.34778H12.4347L12.4348 3.73903Z" fill="#F0F0F0" /><path d="M9.65216 5.47827H11.2174V6.52176H9.65216V5.47827Z" fill="#F0F0F0" /></g><defs><clipPath id="clip0_61_5701"><rect width={24} height={24} fill="white" /></clipPath></defs>
</svg>