<svg xmlns="http://www.w3.org/2000/svg" width="24" height="24" viewBox="0 0 24 24" fill="none">
<g clipPath="url(#clip0_61_5358)"><path d="M12 24C18.6274 24 24 18.6274 24 12C24 5.37258 18.6274 0 12 0C5.37258 0 0 5.37258 0 12C0 18.6274 5.37258 24 12 24Z" fill="#F0F0F0" /><path d="M23.2536 7.82605H0.746344C0.264047 9.12608 0 10.5321 0 11.9999C0 13.4678 0.264047 14.8739 0.746344 16.1738H23.2536C23.736 14.8739 24 13.4678 24 11.9999C24 10.5321 23.736 9.12608 23.2536 7.82605Z" fill="#A2001D" /><path d="M12.0347 24C16.1448 24 19.7718 21.9332 21.9345 18.7826H2.13495C4.29767 21.9332 7.92457 24 12.0347 24Z" fill="#6DA544" /><path d="M12.0347 0.00012207C16.1448 0.00012207 19.7718 2.06693 21.9345 5.2175H2.13495C4.29767 2.06693 7.92457 0.00012207 12.0347 0.00012207Z" fill="#6DA544" /><path d="M12 7.82605L13.036 11.0145H16.3887L13.6763 12.9853L14.7124 16.1738L12 14.2033L9.28756 16.1738L10.3237 12.9853L7.61127 11.0145H10.964L12 7.82605Z" fill="#FFDA44" /></g><defs><clipPath id="clip0_61_5358"><rect width={24} height={24} fill="white" /></clipPath></defs>
</svg>