<svg xmlns="http://www.w3.org/2000/svg" width="24" height="24" viewBox="0 0 24 24" fill="none">
<g clipPath="url(#clip0_61_5029)"><path d="M22.8093 17.2174C23.5721 15.6398 24 13.8698 24 12C24 10.1302 23.5721 8.36021 22.8093 6.78263L12 6.26086L1.19072 6.78258C0.427875 8.36021 0 10.1302 0 12C0 13.8698 0.427875 15.6398 1.19072 17.2174L12 17.7391L22.8093 17.2174Z" fill="#FFDA44" /><path d="M12 0C7.24245 0 3.1317 2.76867 1.1907 6.78263H22.8092C20.8683 2.76867 16.7575 0 12 0Z" fill="black" /><path d="M12 24C7.24245 24 3.1317 21.2314 1.1907 17.2174H22.8092C20.8683 21.2314 16.7575 24 12 24Z" fill="#0052B4" /><path d="M23.4333 8.34778H0.566672C0.199078 9.49945 0 10.7264 0 11.9999C0 13.2735 0.199078 14.5004 0.566672 15.6521H23.4333C23.8009 14.5004 24 13.2735 24 11.9999C24 10.7264 23.8009 9.49945 23.4333 8.34778Z" fill="#A2001D" /><path d="M4.17389 11.4783H19.8261V12.5218H4.17389V11.4783Z" fill="#FFDA44" /><path d="M6.26086 9.39136H17.7391V10.4348H6.26086V9.39136Z" fill="#FFDA44" /><path d="M17.8137 12C17.8137 12 15.1304 15.1304 12 15.1304C8.86958 15.1304 8.86954 12 8.86954 12C8.86954 12 8.86954 8.86951 12 8.86951C15.1304 8.86951 17.8137 12 17.8137 12Z" fill="#F0F0F0" /><path d="M12 15.1304C8.86956 15.1304 6.18634 12 6.18634 12C6.18634 12 8.86956 8.86951 12 8.86951" fill="black" /><path d="M9.91302 10.9565H10.9565V13.0435H9.91302V10.9565Z" fill="#F0F0F0" /><path d="M13.0435 10.9565H14.087V13.0435H13.0435V10.9565Z" fill="black" /><path d="M4.17389 13.0435C4.75019 13.0435 5.21737 12.5763 5.21737 12C5.21737 11.4237 4.75019 10.9565 4.17389 10.9565C3.59759 10.9565 3.1304 11.4237 3.1304 12C3.1304 12.5763 3.59759 13.0435 4.17389 13.0435Z" fill="#0052B4" /><path d="M19.8261 13.0435C20.4024 13.0435 20.8696 12.5763 20.8696 12C20.8696 11.4237 20.4024 10.9565 19.8261 10.9565C19.2498 10.9565 18.7826 11.4237 18.7826 12C18.7826 12.5763 19.2498 13.0435 19.8261 13.0435Z" fill="#0052B4" /></g><defs><clipPath id="clip0_61_5029"><rect width={24} height={24} fill="white" /></clipPath></defs>
</svg>