<svg xmlns="http://www.w3.org/2000/svg" width="24" height="24" viewBox="0 0 24 24" fill="none">
<g clipPath="url(#clip0_61_5399)"><path d="M12 0C11.104 0 10.2312 0.0990469 9.39132 0.285234L8.8696 12L9.39132 23.7147C10.2313 23.9009 11.104 24 12 24C18.6274 24 24 18.6274 24 12C23.9999 5.37258 18.6274 0 12 0V0Z" fill="#496E2D" /><path d="M3.13047 3.91736C1.1859 6.04998 6.10352e-05 8.88639 6.10352e-05 11.9999C6.10352e-05 15.1135 1.18595 17.9499 3.13051 20.0826L3.65223 11.9999L3.13047 3.91736Z" fill="#496E2D" /><path d="M17.551 9.05143C18.1414 7.40584 17.4781 5.61611 16.0547 4.72473C16.3107 4.75806 16.567 4.81834 16.8199 4.90904C18.7185 5.59023 19.7054 7.68142 19.0242 9.57995C18.343 11.4786 16.2519 12.4654 14.3533 11.7842C14.1003 11.6935 13.8641 11.577 13.6453 11.44C15.3108 11.6569 16.9606 10.697 17.551 9.05143Z" fill="#F0F0F0" /><path d="M14.2764 4.27368L13.7634 4.93659L12.9745 4.65351L13.4464 5.34623L12.9334 6.00904L13.738 5.77438L14.21 6.46701L14.2353 5.62926L15.0399 5.39456L14.2511 5.11157L14.2764 4.27368Z" fill="#F0F0F0" /><path d="M15.6617 6.43359L15.1486 7.09645L14.3597 6.81338L14.8316 7.50609L14.3186 8.16891L15.1232 7.93416L15.5952 8.62692L15.6206 7.78912L16.4252 7.55438L15.6363 7.27134L15.6617 6.43359Z" fill="#F0F0F0" /><path d="M11.8341 5.0603L11.321 5.72312L10.5322 5.44013L11.0041 6.1328L10.4911 6.79566L11.2956 6.56096L11.7676 7.25363L11.793 6.41588L12.5976 6.18118L11.8087 5.8981L11.8341 5.0603Z" fill="#F0F0F0" /><path d="M11.7778 7.53455L11.2648 8.19741L10.4759 7.91437L10.9478 8.60709L10.4348 9.26991L11.2395 9.03525L11.7113 9.72787L11.7367 8.89012L12.5414 8.65542L11.7524 8.37234L11.7778 7.53455Z" fill="#F0F0F0" /><path d="M14.1322 8.37927L13.6191 9.04208L12.8302 8.75905L13.3022 9.45177L12.7891 10.1145L13.5938 9.87988L14.0657 10.5726L14.091 9.73476L14.8957 9.5001L14.1067 9.21707L14.1322 8.37927Z" fill="#F0F0F0" /><path d="M3.13046 3.91743V20.0826C4.76546 21.8758 6.93718 23.1707 9.39132 23.7147V0.285278C6.93713 0.82931 4.76551 2.12423 3.13046 3.91743Z" fill="#D80027" /><path d="M5.51967 6.3181L4.4715 5.53725V4.43302L5.51967 3.65222H7.00209L8.05026 4.43302V5.53725L7.00209 6.3181H5.51967Z" fill="#F0F0F0" /><path d="M6.2609 3.65222H5.51967L4.4715 4.43302V4.97288H6.2609V3.65222Z" fill="#FF9811" /><path d="M6.26089 6.31814H7.00208L8.05025 5.5373V4.974H6.26089V6.31814Z" fill="#FF9811" /><path d="M5.51967 20.3478L4.4715 19.5669V18.4627L5.51967 17.6819H7.00209L8.05026 18.4627V19.5669L7.00209 20.3478H5.51967Z" fill="#F0F0F0" /><path d="M6.2609 17.6819H5.51967L4.4715 18.4627V19.0026H6.2609V17.6819Z" fill="#FF9811" /><path d="M6.26089 20.3478H7.00208L8.05025 19.5669V19.0037H6.26089V20.3478Z" fill="#FF9811" /><path d="M5.51967 13.3329L4.4715 12.552V11.4478L5.51967 10.667H7.00209L8.05026 11.4478V12.552L7.00209 13.3329H5.51967Z" fill="#496E2D" /><path d="M8.08697 15.0508H7.63041V14.5943H6.82814L6.26086 14.027L5.69363 14.5943H4.89136V15.0508H4.43484V15.9638H4.89136V16.4203H5.69358L6.26091 16.9876L6.82814 16.4203H7.63041V15.9638H8.08697V15.0508Z" fill="#496E2D" /><path d="M8.08697 8.03593H7.63041V7.57937H6.82814L6.26086 7.01208L5.69363 7.57937H4.89136V8.03593H4.43484V8.94896H4.89136V9.40548H5.69358L6.26091 9.97285L6.82814 9.40548H7.63041V8.94896H8.08697V8.03593Z" fill="#496E2D" /><path d="M5.73911 11.4781H6.78259V12.5216H5.73911V11.4781Z" fill="#D80027" /><path d="M6.26082 9.01402C6.54896 9.01402 6.78254 8.78044 6.78254 8.4923C6.78254 8.20416 6.54896 7.97058 6.26082 7.97058C5.97269 7.97058 5.73911 8.20416 5.73911 8.4923C5.73911 8.78044 5.97269 9.01402 6.26082 9.01402Z" fill="#D80027" /><path d="M6.26082 16.0293C6.54896 16.0293 6.78254 15.7957 6.78254 15.5076C6.78254 15.2194 6.54896 14.9858 6.26082 14.9858C5.97269 14.9858 5.73911 15.2194 5.73911 15.5076C5.73911 15.7957 5.97269 16.0293 6.26082 16.0293Z" fill="#D80027" /></g><defs><clipPath id="clip0_61_5399"><rect width={24} height={24} fill="white" /></clipPath></defs>
</svg>