<svg xmlns="http://www.w3.org/2000/svg" width="24" height="24" viewBox="0 0 24 24" fill="none">
<g clipPath="url(#clip0_61_5811)"><path d="M23.9999 12.0001C23.9999 11.4696 23.9651 10.9472 23.8984 10.4349H10.4346C7.98303 7.9834 3.51449 3.51515 3.51467 3.51477C-1.1716 8.20104 -1.1716 15.799 3.51467 20.4854L10.4348 13.5653H23.8984C23.9651 13.0529 23.9999 12.5306 23.9999 12.0001Z" fill="black" /><path d="M23.9965 12.2729C23.996 12.2961 23.9955 12.3194 23.9949 12.3425C23.9954 12.3193 23.996 12.2961 23.9965 12.2729Z" fill="#F0F0F0" /><path d="M23.985 12.6008C23.9839 12.6238 23.9823 12.6466 23.9811 12.6695C23.9823 12.6466 23.9838 12.6238 23.985 12.6008Z" fill="#F0F0F0" /><path d="M23.9688 12.8624C23.9664 12.8961 23.9641 12.9298 23.9614 12.9634C23.9641 12.9298 23.9664 12.8961 23.9688 12.8624Z" fill="#F0F0F0" /><path d="M23.9288 10.6921C23.9332 10.7323 23.9376 10.7723 23.9416 10.8126C23.9376 10.7723 23.9331 10.7323 23.9288 10.6921Z" fill="#F0F0F0" /><path d="M23.9811 11.3306C23.9823 11.3534 23.9839 11.3763 23.985 11.3992C23.9838 11.3763 23.9823 11.3534 23.9811 11.3306Z" fill="#F0F0F0" /><path d="M23.9948 11.6576C23.9955 11.6807 23.9959 11.704 23.9965 11.7272C23.996 11.7039 23.9954 11.6807 23.9948 11.6576Z" fill="#F0F0F0" /><path d="M23.9614 11.0366C23.9641 11.0702 23.9664 11.1039 23.9688 11.1376C23.9664 11.1039 23.9641 11.0702 23.9614 11.0366Z" fill="#F0F0F0" /><path d="M23.8984 10.4347C23.9038 10.4758 23.9085 10.5172 23.9135 10.5584C23.2013 4.6108 18.1394 0 12 0C8.6862 0 5.68616 1.3432 3.51459 3.51487L10.4344 10.4348H23.8984V10.4347Z" fill="#D80027" /><path d="M23.8984 13.5652H10.4344L3.51459 20.4851C5.68616 22.6567 8.6862 24 12 24C18.1394 24 23.2013 19.3892 23.9135 13.4415C23.9085 13.4827 23.9037 13.5241 23.8984 13.5652Z" fill="#6DA544" /><path d="M23.9415 13.1875C23.9375 13.2277 23.9331 13.2678 23.9287 13.3079C23.9331 13.2678 23.9376 13.2278 23.9415 13.1875Z" fill="#F0F0F0" /><path d="M23.9688 11.1376C23.9734 11.2017 23.9775 11.2661 23.981 11.3305C23.9775 11.2661 23.9734 11.2017 23.9688 11.1376Z" fill="black" /><path d="M23.9135 10.5585C23.9189 10.603 23.924 10.6475 23.9287 10.6922C23.9239 10.6475 23.9188 10.603 23.9135 10.5585Z" fill="black" /><path d="M23.9415 10.8125C23.9488 10.887 23.9554 10.9617 23.9614 11.0366C23.9555 10.9617 23.9489 10.8869 23.9415 10.8125Z" fill="black" /><path d="M24 12C24 12.0913 23.9986 12.1822 23.9965 12.2729C23.9986 12.1821 24 12.0912 24 12Z" fill="black" /><path d="M23.9811 12.6694C23.9775 12.7339 23.9734 12.7982 23.9689 12.8624C23.9734 12.7982 23.9774 12.7339 23.9811 12.6694Z" fill="black" /><path d="M23.9614 12.9635C23.9554 13.0384 23.9488 13.1131 23.9415 13.1875C23.9489 13.1131 23.9555 13.0384 23.9614 12.9635Z" fill="black" /><path d="M23.9287 13.3079C23.924 13.3525 23.9189 13.397 23.9135 13.4415C23.9188 13.3971 23.9239 13.3525 23.9287 13.3079Z" fill="black" /><path d="M23.9965 11.7272C23.9986 11.8179 24 11.9089 24 12C24 11.9089 23.9986 11.8179 23.9965 11.7272Z" fill="black" /><path d="M23.985 11.3992C23.9892 11.485 23.9924 11.5712 23.9948 11.6576C23.9924 11.5712 23.9893 11.485 23.985 11.3992Z" fill="black" /><path d="M23.9948 12.3425C23.9924 12.4289 23.9892 12.5151 23.985 12.601C23.9893 12.515 23.9924 12.4289 23.9948 12.3425Z" fill="black" /><path d="M23.9885 11.4739H9.99378L2.80519 4.28638C2.57283 4.53144 2.32097 4.87363 2.1652 5.11733L9.03983 11.9956L2.15944 18.8761C2.29566 19.1184 2.59242 19.4771 2.80078 19.7105L9.99392 12.5174H23.9902C23.9977 12.3443 24 12.1705 24 11.9957C24 11.7614 23.9935 11.5886 23.9885 11.4739Z" fill="#FFDA44" /><path d="M2.91501 14.558V13.5529C3.91804 13.5529 4.73399 12.7369 4.73399 11.7339C4.73399 11.0243 4.15663 10.447 3.44704 10.447C2.96362 10.447 2.57029 10.8402 2.57029 11.3238C2.57029 11.6329 2.82177 11.8844 3.13096 11.8844C3.30571 11.8844 3.44788 11.7422 3.44788 11.5674H4.45297C4.45297 12.2965 3.85991 12.8895 3.13101 12.8895C2.26762 12.8896 1.56529 12.1871 1.56529 11.3239C1.56529 10.2862 2.40951 9.44202 3.44709 9.44202C4.71093 9.44202 5.73917 10.4703 5.73917 11.7341C5.73913 13.2911 4.47224 14.558 2.91501 14.558Z" fill="#FFDA44" /></g><defs><clipPath id="clip0_61_5811"><rect width={24} height={24} fill="white" /></clipPath></defs>
</svg>