<svg xmlns="http://www.w3.org/2000/svg" width="24" height="24" viewBox="0 0 24 24" fill="none">
<g clipPath="url(#clip0_61_6638)"><path d="M22.8093 17.2174C23.5722 15.6397 24 13.8699 24 12C24 10.1301 23.5722 8.36025 22.8093 6.78262L12 5.73914L1.19072 6.78262C0.427828 8.36025 0 10.1301 0 12C0 13.8699 0.427828 15.6397 1.19072 17.2174L12 18.2609L22.8093 17.2174Z" fill="#0052B4" /><path d="M12 24C16.7575 24 20.8683 21.2314 22.8093 17.2174H1.19073C3.13173 21.2314 7.24248 24 12 24Z" fill="#D80027" /><path d="M20.7829 14.3555L20.1491 14.8507L20.4241 15.6064L19.7572 15.1567L19.1234 15.6519L19.345 14.8787L18.6782 14.4289L19.4821 14.4009L19.7039 13.6277L19.9791 14.3835L20.7829 14.3555Z" fill="#F0F0F0" /><path d="M19.1598 11.5444L18.7336 12.2266L19.2507 12.8426L18.4702 12.6483L18.0439 13.3303L17.9877 12.5279L17.2073 12.3333L17.9531 12.0319L17.8971 11.2295L18.4141 11.8458L19.1598 11.5444Z" fill="#F0F0F0" /><path d="M16.6732 9.45789L16.506 10.2447L17.2026 10.6469L16.4027 10.7312L16.2354 11.5178L15.9082 10.783L15.1082 10.867L15.7061 10.3288L15.3789 9.59406L16.0755 9.99615L16.6732 9.45789Z" fill="#F0F0F0" /><path d="M13.6229 8.34778L13.735 9.14433L14.527 9.28392L13.8041 9.6367L13.9161 10.4332L13.3574 9.85457L12.6343 10.2072L13.012 9.49687L12.4532 8.91834L13.2454 9.05798L13.6229 8.34778Z" fill="#F0F0F0" /><path d="M10.377 8.34778L10.7547 9.05798L11.5467 8.91825L10.9881 9.49701L11.3656 10.2073L10.6427 9.85457L10.0838 10.4331L10.1959 9.6367L9.47296 9.28411L10.2651 9.14433L10.377 8.34778Z" fill="#F0F0F0" /><path d="M7.32681 9.45789L7.92466 9.99615L8.62108 9.59406L8.29403 10.3291L8.89173 10.8672L8.09181 10.783L7.76453 11.5178L7.59751 10.7311L6.79755 10.6471L7.49411 10.2448L7.32681 9.45789Z" fill="#F0F0F0" /><path d="M4.84022 11.5444L5.58614 11.8457L6.10298 11.2296L6.04706 12.0322L6.79275 12.3335L6.01232 12.528L5.95612 13.3303L5.53003 12.6483L4.74951 12.8428L5.26654 12.2266L4.84022 11.5444Z" fill="#F0F0F0" /><path d="M3.21722 14.3555L4.02122 14.3835L4.29619 13.6278L4.51815 14.4011L5.32191 14.4291L4.65507 14.8789L4.87669 15.6521L4.24294 15.1569L3.57605 15.6066L3.85116 14.8508L3.21722 14.3555Z" fill="#F0F0F0" /><path d="M22.8093 6.78263C20.8683 2.76867 16.7575 0 12 0C7.24248 0 3.13173 2.76867 1.19073 6.78263H22.8093Z" fill="#FFDA44" /></g><defs><clipPath id="clip0_61_6638"><rect width={24} height={24} fill="white" /></clipPath></defs>
</svg>