<svg xmlns="http://www.w3.org/2000/svg" width="24" height="24" viewBox="0 0 24 24" fill="none">
<g clipPath="url(#clip0_61_4989)"><path d="M12 24C18.6274 24 24 18.6274 24 12C24 5.37258 18.6274 0 12 0C5.37258 0 0 5.37258 0 12C0 18.6274 5.37258 24 12 24Z" fill="#F0F0F0" /><path d="M22.8514 6.87197C22.2418 5.58413 21.4097 4.42242 20.4047 3.43594L12 2.60864L3.59531 3.43599C3.5685 3.46228 3.54234 3.48919 3.51581 3.51577L6.87206 6.87202L12 7.02863L22.8514 6.87197Z" fill="#FFDA44" /><path d="M3.51567 20.4842C3.55983 20.5284 3.60389 20.5726 3.6487 20.6161L12 21.3912L20.3512 20.6161C21.3666 19.6317 22.2088 18.4699 22.827 17.1801L7.3043 16.6956C5.96869 18.0312 4.42819 19.5716 3.51567 20.4842Z" fill="#FFDA44" /><path d="M23.8807 10.3081L9.91302 9.91309L12 12.0001C11.3819 12.6182 10.4591 13.541 9.91302 14.087L23.8733 13.7442C23.9563 13.1747 24 12.5925 24 12.0001C24 11.4256 23.9587 10.861 23.8807 10.3081Z" fill="black" /><path d="M12 0C8.72681 0 5.76028 1.31109 3.59531 3.43603H20.4047C18.2397 1.31109 15.2732 0 12 0Z" fill="#6DA544" /><path d="M10.308 10.3081H23.8806C23.7094 9.09502 23.3571 7.9403 22.8514 6.87207H6.87201L10.308 10.3081Z" fill="#D80027" /><path d="M6.81984 17.1802H22.8271C23.3387 16.1127 23.6966 14.9579 23.8734 13.7441H10.2559C8.92523 15.0748 7.79751 16.2025 6.81984 17.1802Z" fill="#D80027" /><path d="M12 23.9999C15.2463 23.9999 18.191 22.7103 20.3512 20.6161H3.6488C5.80899 22.7103 8.75368 23.9999 12 23.9999Z" fill="#6DA544" /><path d="M4.28508 2.80945C4.01832 3.0336 3.76093 3.26859 3.51469 3.51473L12 12L3.51469 20.4854C3.76088 20.7315 4.01832 20.9665 4.28508 21.1906L13.4757 12L4.28508 2.80945Z" fill="black" /><path d="M4.82461 8.86951L5.60156 11.2609H8.11617L6.08189 12.7389L6.85889 15.1304L4.82461 13.6524L2.79028 15.1304L3.56738 12.7389L1.53314 11.2609H4.04761L4.82461 8.86951Z" fill="#D80027" /><path d="M6.96183 12.1957L4.93692 11.4783C4.93692 11.4783 4.7873 10.0747 4.77825 10.0272C4.70953 9.66515 4.39139 9.39136 4.00936 9.39136C3.57717 9.39136 3.22673 9.74175 3.22673 10.174C3.22673 10.2457 3.23719 10.3147 3.25523 10.3807L2.68748 10.9522H3.69698C3.69698 12 2.91511 12 2.91511 13.0435L3.34884 14.087H5.95753L6.39234 13.0435H6.39216C6.4357 12.9434 6.46214 12.8401 6.47306 12.737C6.84788 12.5854 6.96183 12.1957 6.96183 12.1957Z" fill="#FFDA44" /></g><defs><clipPath id="clip0_61_4989"><rect width={24} height={24} fill="white" /></clipPath></defs>
</svg>